<svg width="428" height="638" viewBox="0 0 428 638" fill="none" xmlns="http://www.w3.org/2000/svg">
<g clip-path="url(#clip0_207_201)">
<rect x="8" y="8" width="412" height="892" rx="33" fill="#F6EDFF"/>
<rect x="8" y="8" width="419" height="892" rx="13" fill="url(#paint0_linear_207_201)"/>
<g clip-path="url(#clip1_207_201)">
<g clip-path="url(#clip2_207_201)">
<path opacity="0.47" d="M373.5 24.5C373.5 23.7917 373.5 23.2905 373.532 22.8987C373.564 22.5128 373.624 22.2772 373.718 22.092C373.91 21.7157 374.216 21.4097 374.592 21.218C374.777 21.1236 375.013 21.0639 375.399 21.0324C375.791 21.0004 376.292 21 377 21H393C393.708 21 394.209 21.0004 394.601 21.0324C394.987 21.0639 395.223 21.1236 395.408 21.218C395.784 21.4097 396.09 21.7157 396.282 22.092C396.376 22.2772 396.436 22.5128 396.468 22.8987C396.5 23.2905 396.5 23.7917 396.5 24.5V28.1476C396.5 28.7856 396.5 29.2369 396.474 29.5909C396.448 29.9399 396.399 30.1546 396.322 30.3244C396.122 30.7672 395.767 31.1219 395.324 31.3222C395.155 31.399 394.94 31.4478 394.591 31.4736C394.237 31.4997 393.786 31.5 393.148 31.5H377C376.292 31.5 375.791 31.4996 375.399 31.4676C375.013 31.4361 374.777 31.3764 374.592 31.282C374.216 31.0903 373.91 30.7843 373.718 30.408C373.624 30.2228 373.564 29.9872 373.532 29.6013C373.5 29.2095 373.5 28.7083 373.5 28V24.5Z" stroke="white"/>
<path opacity="0.58" fill-rule="evenodd" clip-rule="evenodd" d="M398 28.3719C398.874 28.063 399.5 27.2296 399.5 26.2499C399.5 25.2702 398.874 24.4368 398 24.1279V28.3719Z" fill="white"/>
<path fill-rule="evenodd" clip-rule="evenodd" d="M375 24.1C375 23.5399 375 23.2599 375.109 23.046C375.205 22.8578 375.358 22.7049 375.546 22.609C375.76 22.5 376.04 22.5 376.6 22.5H393.4C393.96 22.5 394.24 22.5 394.454 22.609C394.642 22.7049 394.795 22.8578 394.891 23.046C395 23.2599 395 23.5399 395 24.1V28.4C395 28.9601 395 29.2401 394.891 29.454C394.795 29.6422 394.642 29.7951 394.454 29.891C394.24 30 393.96 30 393.4 30H376.6C376.04 30 375.76 30 375.546 29.891C375.358 29.7951 375.205 29.6422 375.109 29.454C375 29.2401 375 28.9601 375 28.4V24.1Z" fill="white"/>
<path d="M342.168 30.5H343.223V22.0449H342.174L339.924 23.6621V24.7754L342.074 23.2168H342.168V30.5ZM348.59 30.6992C350.488 30.6992 351.578 29.0938 351.578 26.2871C351.578 23.4863 350.471 21.8457 348.59 21.8457C346.697 21.8457 345.59 23.4805 345.59 26.2695C345.59 29.082 346.686 30.6992 348.59 30.6992ZM348.59 29.7793C347.342 29.7793 346.65 28.5312 346.65 26.2695C346.65 24.0371 347.354 22.7715 348.59 22.7715C349.826 22.7715 350.518 24.0254 350.518 26.2695C350.518 28.5371 349.838 29.7793 348.59 29.7793ZM356.148 30.6992C358.047 30.6992 359.137 29.0938 359.137 26.2871C359.137 23.4863 358.029 21.8457 356.148 21.8457C354.256 21.8457 353.148 23.4805 353.148 26.2695C353.148 29.082 354.244 30.6992 356.148 30.6992ZM356.148 29.7793C354.9 29.7793 354.209 28.5312 354.209 26.2695C354.209 24.0371 354.912 22.7715 356.148 22.7715C357.385 22.7715 358.076 24.0254 358.076 26.2695C358.076 28.5371 357.396 29.7793 356.148 29.7793ZM362.137 25.8711C363.279 25.8711 363.971 25.127 363.971 23.8789C363.971 22.6484 363.273 21.8926 362.137 21.8926C361 21.8926 360.297 22.6484 360.297 23.8789C360.297 25.1211 360.988 25.8711 362.137 25.8711ZM362.518 30.5L368.359 22.0449H367.404L361.562 30.5H362.518ZM362.137 25.1035C361.545 25.1035 361.205 24.6582 361.205 23.8848C361.205 23.1172 361.545 22.666 362.137 22.666C362.723 22.666 363.062 23.1172 363.062 23.8848C363.062 24.6523 362.729 25.1035 362.137 25.1035ZM367.791 30.582C368.934 30.582 369.625 29.8379 369.625 28.5898C369.625 27.3594 368.928 26.6035 367.791 26.6035C366.654 26.6035 365.951 27.3594 365.951 28.5898C365.951 29.832 366.648 30.582 367.791 30.582ZM367.791 29.8145C367.199 29.8145 366.865 29.3691 366.865 28.5957C366.865 27.8281 367.199 27.377 367.791 27.377C368.383 27.377 368.717 27.8281 368.717 28.5957C368.717 29.3633 368.383 29.8145 367.791 29.8145Z" fill="white"/>
<path fill-rule="evenodd" clip-rule="evenodd" d="M329.5 20V24.75L327.25 22.5L326.5 23.25L329.25 26L326.5 28.75L327.25 29.5L329.5 27.249V32L333.5 28.5L330.75 25.9995L333.5 23.5L329.5 20ZM330.5 22.37L332 23.6L330.5 25V22.37ZM332 28.4589L330.501 27L330.5 29.75L332 28.4589Z" fill="white"/>
</g>
<path d="M197.174 30.7051C199.324 30.7051 200.602 29.0234 200.602 26.1699C200.602 23.3691 199.242 21.834 197.221 21.834C195.381 21.834 194.08 23.0703 194.08 24.7988C194.08 26.4219 195.252 27.6055 196.863 27.6055C197.854 27.6055 198.656 27.1484 199.055 26.3457H199.154C199.137 28.332 198.428 29.4688 197.191 29.4688C196.465 29.4688 195.885 29.0703 195.703 28.4258H194.197C194.443 29.8027 195.627 30.7051 197.174 30.7051ZM197.227 26.4395C196.242 26.4395 195.562 25.748 195.562 24.752C195.562 23.7969 196.277 23.0645 197.232 23.0645C198.188 23.0645 198.902 23.8086 198.902 24.7812C198.902 25.7422 198.205 26.4395 197.227 26.4395ZM203.256 25.0273C203.812 25.0273 204.193 24.6406 204.193 24.1191C204.193 23.5977 203.812 23.2109 203.256 23.2109C202.705 23.2109 202.318 23.5977 202.318 24.1191C202.318 24.6406 202.705 25.0273 203.256 25.0273ZM203.256 29.3281C203.812 29.3281 204.193 28.9355 204.193 28.4199C204.193 27.8984 203.812 27.5117 203.256 27.5117C202.705 27.5117 202.318 27.8984 202.318 28.4199C202.318 28.9355 202.705 29.3281 203.256 29.3281ZM210.035 30.5H211.482V28.877H212.625V27.6289H211.482V22.0449H209.35C208.201 23.791 207 25.7363 205.904 27.6406V28.877H210.035V30.5ZM207.305 27.5762C208.131 26.1406 209.109 24.5762 209.977 23.252H210.059V27.6641H207.305V27.5762ZM216.088 30.5H217.6V22.0449H216.094L213.885 23.5977V25.0215L215.988 23.5332H216.088V30.5ZM228.814 30.5H230.438L227.432 22.0449H225.732L222.732 30.5H224.262L224.988 28.3145H228.1L228.814 30.5ZM226.5 23.6328H226.6L227.748 27.1484H225.34L226.5 23.6328ZM240.621 30.5V22.0449H238.852L236.309 28.3203H236.203L233.66 22.0449H231.891V30.5H233.297V24.5059H233.379L235.717 30.2363H236.795L239.133 24.5059H239.215V30.5H240.621Z" fill="white"/>
<g clip-path="url(#clip3_207_201)">
<path fill-rule="evenodd" clip-rule="evenodd" d="M50.25 21C49.8358 21 49.5 21.3358 49.5 21.75V30.25C49.5 30.6642 49.8358 31 50.25 31H51.75C52.1642 31 52.5 30.6642 52.5 30.25V21.75C52.5 21.3358 52.1642 21 51.75 21H50.25ZM45.75 23C45.3358 23 45 23.3358 45 23.75V30.25C45 30.6642 45.3358 31 45.75 31H47.25C47.6642 31 48 30.6642 48 30.25V23.75C48 23.3358 47.6642 23 47.25 23H45.75ZM40.5 25.75C40.5 25.3358 40.8358 25 41.25 25H42.75C43.1642 25 43.5 25.3358 43.5 25.75V30.25C43.5 30.6642 43.1642 31 42.75 31H41.25C40.8358 31 40.5 30.6642 40.5 30.25V25.75ZM36.75 26.5C36.3358 26.5 36 26.8358 36 27.25V30.25C36 30.6642 36.3358 31 36.75 31H38.25C38.6642 31 39 30.6642 39 30.25V27.25C39 26.8358 38.6642 26.5 38.25 26.5H36.75Z" fill="white"/>
<path fill-rule="evenodd" clip-rule="evenodd" d="M61.8766 28.8768L63.4999 30.5L65.1231 28.8768C64.6612 28.5602 64.1022 28.375 63.4999 28.375C62.8976 28.375 62.3386 28.5602 61.8766 28.8768ZM60.2653 27.2654C61.1467 26.5492 62.2707 26.12 63.4949 26.12C64.7216 26.12 65.8477 26.551 66.73 27.2699L67.6121 26.3877C66.5014 25.4472 65.0644 24.88 63.4949 24.88C61.9279 24.88 60.493 25.4453 59.383 26.3831L60.2653 27.2654ZM57.8761 24.8762C59.3747 23.553 61.3435 22.75 63.4999 22.75C65.6562 22.75 67.6251 23.553 69.1236 24.8762L70.009 23.9909C68.283 22.4421 66.0014 21.5 63.4999 21.5C60.9983 21.5 58.7168 22.4421 56.9907 23.9909L57.8761 24.8762Z" fill="white"/>
<path d="M63.4999 30.5L63.1463 30.8536C63.3416 31.0488 63.6582 31.0488 63.8534 30.8536L63.4999 30.5ZM61.8766 28.8768L61.594 28.4643C61.4713 28.5484 61.3925 28.6826 61.3788 28.8307C61.3651 28.9787 61.4179 29.1252 61.5231 29.2303L61.8766 28.8768ZM65.1231 28.8768L65.4767 29.2303C65.5818 29.1252 65.6347 28.9787 65.621 28.8307C65.6073 28.6826 65.5284 28.5484 65.4058 28.4643L65.1231 28.8768ZM60.2653 27.2654L59.9117 27.619C60.0929 27.8001 60.3817 27.815 60.5806 27.6535L60.2653 27.2654ZM66.73 27.2699L66.4141 27.6575C66.613 27.8195 66.9022 27.8048 67.0835 27.6235L66.73 27.2699ZM67.6121 26.3877L67.9657 26.7413C68.0646 26.6424 68.1175 26.5067 68.1117 26.367C68.1059 26.2274 68.0419 26.0965 67.9353 26.0061L67.6121 26.3877ZM59.383 26.3831L59.0603 26.0012C58.9535 26.0915 58.8893 26.2224 58.8835 26.3622C58.8776 26.5019 58.9305 26.6378 59.0295 26.7367L59.383 26.3831ZM57.8761 24.8762L57.5225 25.2298C57.7093 25.4165 58.0091 25.4258 58.207 25.251L57.8761 24.8762ZM69.1236 24.8762L68.7927 25.251C68.9907 25.4258 69.2904 25.4165 69.4772 25.2298L69.1236 24.8762ZM70.009 23.9909L70.3626 24.3444C70.4597 24.2473 70.5125 24.1146 70.5088 23.9773C70.5051 23.8401 70.4451 23.7104 70.3429 23.6187L70.009 23.9909ZM56.9907 23.9909L56.6568 23.6187C56.5546 23.7104 56.4946 23.8401 56.4909 23.9773C56.4872 24.1146 56.5401 24.2473 56.6372 24.3444L56.9907 23.9909ZM63.8534 30.1464L62.2302 28.5232L61.5231 29.2303L63.1463 30.8536L63.8534 30.1464ZM64.7696 28.5232L63.1463 30.1464L63.8534 30.8536L65.4767 29.2303L64.7696 28.5232ZM65.4058 28.4643C64.8633 28.0925 64.2062 27.875 63.4999 27.875V28.875C63.9981 28.875 64.4591 29.0279 64.8405 29.2892L65.4058 28.4643ZM63.4999 27.875C62.7935 27.875 62.1365 28.0925 61.594 28.4643L62.1593 29.2892C62.5406 29.0279 63.0016 28.875 63.4999 28.875V27.875ZM60.5806 27.6535C61.3761 27.0071 62.3896 26.62 63.4949 26.62V25.62C62.1517 25.62 60.9173 26.0914 59.95 26.8774L60.5806 27.6535ZM63.4949 26.62C64.6024 26.62 65.6178 27.0087 66.4141 27.6575L67.0458 26.8823C66.0776 26.0934 64.8409 25.62 63.4949 25.62V26.62ZM67.2586 26.0342L66.3764 26.9163L67.0835 27.6235L67.9657 26.7413L67.2586 26.0342ZM67.9353 26.0061C66.7376 24.992 65.187 24.38 63.4949 24.38V25.38C64.9417 25.38 66.2652 25.9023 67.289 26.7693L67.9353 26.0061ZM63.4949 24.38C61.8054 24.38 60.2572 24.99 59.0603 26.0012L59.7057 26.7651C60.7289 25.9006 62.0504 25.38 63.4949 25.38V24.38ZM60.6188 26.9119L59.7366 26.0296L59.0295 26.7367L59.9117 27.619L60.6188 26.9119ZM58.207 25.251C59.6178 24.0053 61.47 23.25 63.4999 23.25V22.25C61.217 22.25 59.1316 23.1006 57.5452 24.5014L58.207 25.251ZM63.4999 23.25C65.5297 23.25 67.382 24.0053 68.7927 25.251L69.4546 24.5014C67.8682 23.1006 65.7827 22.25 63.4999 22.25V23.25ZM69.6555 23.6373L68.7701 24.5227L69.4772 25.2298L70.3626 24.3444L69.6555 23.6373ZM63.4999 22C65.8735 22 68.0372 22.8934 69.6751 24.363L70.3429 23.6187C68.5287 21.9908 66.1294 21 63.4999 21V22ZM57.3246 24.363C58.9625 22.8934 61.1263 22 63.4999 22V21C60.8703 21 58.471 21.9908 56.6568 23.6187L57.3246 24.363ZM58.2297 24.5227L57.3443 23.6373L56.6372 24.3444L57.5225 25.2298L58.2297 24.5227Z" fill="white"/>
</g>
</g>
<path d="M191.514 403.953C191.514 408.64 189.567 412.864 186.479 415.966C183.391 419.068 179.027 420.916 174.26 420.916H124.447C110.416 420.916 99.0698 432.071 99.0698 445.866C99.0698 447.12 99.204 448.308 99.3383 449.496C95.9816 443.028 94.0347 435.239 94.0347 426.791C94.0347 407.65 104.105 391.743 117.599 387.848C119.613 387.254 121.761 386.99 123.91 386.99H174.328C183.794 386.99 191.514 394.581 191.514 403.953Z" fill="white"/>
<path d="M160.565 444.15C160.565 448.836 158.618 453.061 155.396 456.163C152.241 459.265 147.81 461.113 142.976 461.113H132.57C121.359 461.113 111.49 466.657 105.783 475.106C102.427 470.222 100.547 464.413 100.547 458.143C100.547 454.777 101.084 451.542 102.091 448.572C106.253 436.163 118.338 427.253 132.57 427.253H142.976C152.241 427.253 159.894 434.249 160.498 443.094C160.565 443.358 160.565 443.754 160.565 444.15Z" fill="white"/>
<path d="M117.129 485.139C120.985 485.139 124.111 482.066 124.111 478.274C124.111 474.483 120.985 471.41 117.129 471.41C113.273 471.41 110.147 474.483 110.147 478.274C110.147 482.066 113.273 485.139 117.129 485.139Z" fill="white"/>
<path d="M208.6 430.685V438.672H222.832V444.282H208.6V455.305H201.483V425.075H224.712V430.685H208.6Z" fill="white"/>
<path d="M233.037 454.117C231.09 453.127 229.546 451.675 228.404 449.892C227.263 448.11 226.726 445.998 226.726 443.688C226.726 441.378 227.263 439.332 228.404 437.484C229.546 435.701 231.09 434.249 233.037 433.259C234.984 432.269 237.266 431.741 239.75 431.741C242.234 431.741 244.45 432.269 246.397 433.259C248.343 434.249 249.888 435.701 251.029 437.484C252.17 439.266 252.707 441.378 252.707 443.688C252.707 445.998 252.17 448.044 251.029 449.892C249.888 451.675 248.411 453.127 246.397 454.117C244.45 455.107 242.234 455.635 239.75 455.635C237.199 455.635 234.984 455.173 233.037 454.117ZM244.047 448.374C245.188 447.186 245.725 445.668 245.725 443.688C245.725 441.708 245.188 440.19 244.047 439.002C242.906 437.814 241.496 437.286 239.75 437.286C238.005 437.286 236.528 437.88 235.386 439.002C234.245 440.19 233.641 441.708 233.641 443.688C233.641 445.668 234.245 447.186 235.386 448.374C236.528 449.562 238.005 450.09 239.75 450.09C241.496 450.09 242.906 449.562 244.047 448.374Z" fill="white"/>
<path d="M261.77 454.117C259.823 453.127 258.279 451.675 257.138 449.892C255.997 448.11 255.459 445.998 255.459 443.688C255.459 441.378 255.997 439.332 257.138 437.484C258.279 435.701 259.823 434.249 261.77 433.259C263.717 432.269 266 431.741 268.484 431.741C270.968 431.741 273.183 432.269 275.13 433.259C277.077 434.249 278.621 435.701 279.762 437.484C280.904 439.266 281.441 441.378 281.441 443.688C281.441 445.998 280.904 448.044 279.762 449.892C278.621 451.675 277.144 453.127 275.13 454.117C273.183 455.107 270.968 455.635 268.484 455.635C266 455.635 263.784 455.173 261.77 454.117ZM272.78 448.374C273.921 447.186 274.459 445.668 274.459 443.688C274.459 441.708 273.921 440.19 272.78 439.002C271.639 437.814 270.229 437.286 268.484 437.286C266.738 437.286 265.261 437.88 264.12 439.002C262.979 440.19 262.374 441.708 262.374 443.688C262.374 445.668 262.979 447.186 264.12 448.374C265.261 449.562 266.738 450.09 268.484 450.09C270.229 450.09 271.706 449.562 272.78 448.374Z" fill="white"/>
<path d="M310.04 423.293V455.305H303.528V452.599C301.85 454.645 299.366 455.635 296.143 455.635C293.928 455.635 291.914 455.173 290.101 454.183C288.289 453.193 286.879 451.807 285.872 450.024C284.865 448.242 284.328 446.13 284.328 443.688C284.328 441.312 284.865 439.2 285.872 437.352C286.879 435.57 288.289 434.117 290.101 433.193C291.914 432.203 293.928 431.741 296.143 431.741C299.164 431.741 301.514 432.665 303.192 434.579V423.293H310.04ZM301.648 448.374C302.79 447.186 303.394 445.668 303.394 443.688C303.394 441.708 302.79 440.19 301.648 439.002C300.507 437.814 299.097 437.286 297.352 437.286C295.606 437.286 294.129 437.88 292.988 439.002C291.847 440.19 291.242 441.708 291.242 443.688C291.242 445.668 291.847 447.186 292.988 448.374C294.129 449.562 295.606 450.09 297.352 450.09C299.03 450.09 300.507 449.562 301.648 448.374Z" fill="white"/>
<path d="M339.848 432.071L329.173 456.757C328.099 459.463 326.756 461.311 325.145 462.433C323.534 463.555 321.654 464.083 319.372 464.083C318.163 464.083 316.955 463.885 315.746 463.489C314.538 463.093 313.598 462.565 312.792 461.905L315.276 457.087C315.814 457.549 316.418 457.879 317.089 458.143C317.76 458.407 318.432 458.539 319.103 458.539C320.043 458.539 320.781 458.341 321.386 457.879C321.99 457.417 322.527 456.691 322.997 455.635L323.064 455.437L312.86 432.005H319.909L326.555 447.78L333.201 432.005H339.848V432.071Z" fill="white"/>
</g>
<rect x="4" y="4" width="420" height="900" rx="37" stroke="black" stroke-opacity="0.8" stroke-width="8"/>
<defs>
<linearGradient id="paint0_linear_207_201" x1="217.5" y1="900" x2="217.5" y2="8" gradientUnits="userSpaceOnUse">
<stop stop-color="#D11152"/>
<stop offset="1" stop-color="#A20314"/>
</linearGradient>
<clipPath id="clip0_207_201">
<rect x="8" y="8" width="412" height="892" rx="33" fill="white"/>
</clipPath>
<clipPath id="clip1_207_201">
<rect width="364" height="15" fill="white" transform="translate(36 19)"/>
</clipPath>
<clipPath id="clip2_207_201">
<rect width="74" height="15" fill="white" transform="translate(326 19)"/>
</clipPath>
<clipPath id="clip3_207_201">
<rect width="35" height="10" fill="white" transform="translate(36 21)"/>
</clipPath>
</defs>
</svg>
