<svg width="461" height="711" viewBox="0 0 461 711" fill="none" xmlns="http://www.w3.org/2000/svg">
<path d="M460.647 889.568C459.482 886.676 456.488 885.32 453.76 886.415C453.023 886.702 454.784 888.915 440.287 869.597C436.371 864.4 431.904 858.453 430.366 856.38C428.809 854.334 423.792 847.636 419.211 841.511C414.609 835.388 408.911 827.812 406.531 824.664C404.15 821.516 401.327 817.749 400.231 816.295C399.158 814.839 396.446 811.227 394.201 808.255C391.957 805.282 388.203 800.282 385.845 797.131C378.915 787.926 374.091 781.494 365.981 770.701C361.79 765.129 356.694 758.345 354.662 755.611C352.611 752.904 350.938 750.487 350.907 750.249C350.9 750.009 350.763 749.833 350.629 749.85C350.472 749.87 349.952 749.357 349.487 748.741L348.61 747.573L348.705 748.502C348.784 749.12 348.728 749.393 348.536 749.32C347.57 749.057 297.517 735.523 287.904 732.934C281.566 731.231 274.919 729.423 273.175 728.945C271.43 728.468 266.764 727.204 262.805 726.139L255.597 724.21L255.446 723.022C255.228 721.312 254.66 720.251 253.466 719.268C252.732 718.686 252.028 718.341 251.099 718.194L249.772 717.953L249.133 715.259C248.808 713.78 248.475 712.423 248.403 712.215C248.354 712.004 248.127 711.115 247.942 710.198C247.623 708.766 247.325 707.501 246.401 703.637C246.267 703.123 244.58 695.953 242.664 687.702C236.972 663.376 236.631 661.947 236.463 661.341C236.375 661.015 236.177 660.171 236.019 659.467C235.403 656.77 231.716 641.046 231.53 640.298C231.352 639.62 231.382 639.496 232.101 639.066C234.932 637.354 235.388 633.073 233.016 630.527C231.988 629.427 230.742 628.934 229.157 628.992L227.773 629.023L228.828 612.84C229.423 603.931 230.107 593.756 230.337 590.203C230.567 586.65 230.963 580.832 231.187 577.232C232.323 560.242 232.514 557.635 232.566 556.615C232.602 556.007 232.914 551.309 233.28 546.146C233.624 540.986 234.095 534.145 234.301 530.933C234.506 527.721 234.866 522.51 235.08 519.37C235.295 516.229 235.614 511.41 235.765 508.664C236.107 503.311 236.346 499.829 236.727 494.423C236.874 492.546 237.269 486.535 237.615 481.036C237.965 475.562 238.456 468.163 238.686 464.61C238.916 461.057 239.518 452.027 240.019 444.53C240.498 437.036 241.011 429.634 241.112 428.1C241.281 425.497 241.504 422.427 242.041 413.96L242.282 410.672L243.57 410.242C245.204 409.672 246.17 408.68 246.78 406.865C247.718 404.042 246.375 401.004 243.743 399.987C241.707 399.185 239.744 399.676 238.118 401.38L237.152 402.371L235.473 401.692C234.558 401.302 231.751 400.163 229.234 399.157C226.736 398.123 222.202 396.288 219.155 395.059C216.131 393.827 212.39 392.324 210.88 391.72C209.367 391.093 205.316 389.485 201.885 388.088C198.453 386.691 194.4 385.059 192.889 384.455C191.379 383.851 188.67 382.772 186.892 382.033C183.505 380.63 159.996 371.124 155.225 369.221C153.715 368.617 152.154 367.972 151.746 367.806C151.357 367.614 149.726 366.953 148.145 366.334C145.029 365.09 141.673 363.756 139.032 362.668C138.118 362.278 133.513 360.427 128.835 358.537C112.498 351.93 95.0813 344.881 89.1322 342.477C85.8439 341.134 81.5994 339.43 79.7289 338.679L76.348 337.324L76.4527 336.538C76.6622 334.967 75.7539 332.838 74.3651 331.76L73.5071 331.097L74.0342 329.341C74.6697 327.184 77.8011 316.577 78.701 313.639C79.0514 312.46 80.0864 308.973 81.0099 305.863C81.9111 302.756 83.2861 298.188 84.039 295.703C84.7695 293.221 85.8565 289.607 86.4266 287.652C88.1593 281.784 88.5067 280.582 89.8001 276.266C90.4876 273.982 91.2344 271.449 91.4705 270.623C92.25 267.99 93.5433 263.674 94.3585 260.964L95.1605 258.327L96.6606 258.136C98.9862 257.816 100.315 256.633 100.977 254.329C101.826 251.349 99.818 247.912 96.9073 247.39L95.9977 247.216L91.5874 212.591L87.177 177.966L88.1301 177.41C91.5281 175.505 91.9355 170.843 88.9274 168.306C87.3202 166.942 85.5447 166.758 83.2276 167.681C82.6666 167.921 84.0142 169.391 70.1218 153.036C64.4748 146.394 56.0678 136.484 51.438 131.041C46.8082 125.597 41.4844 119.349 39.6339 117.147C37.7834 114.945 34.6525 111.265 32.678 108.983C29.4648 105.193 26.844 102.124 16.051 89.3803C14.1812 87.2051 10.4325 82.7835 7.67857 79.5625C2.72866 73.7493 2.6748 73.6837 3.03973 73.1546C4.88793 70.3368 3.56886 66.2332 0.413662 65.0423C-2.47709 63.9625 -5.35159 65.5111 -6.211 68.5891L-6.52571 69.691L-8.3575 69.7795C-9.37716 69.8129 -10.7805 69.871 -11.4583 69.909C-12.1391 69.9233 -13.5618 70.008 -14.6232 70.0708C-15.6846 70.1336 -16.9984 70.1803 -17.5642 70.2041C-18.13 70.2279 -19.4886 70.2803 -20.6172 70.3516C-21.7234 70.4201 -23.2163 70.4896 -23.8941 70.5277C-24.9585 70.5667 -34.0472 71.0245 -39.8306 71.3509C-40.8249 71.4052 -42.0939 71.4461 -42.6597 71.4699C-43.2285 71.47 -46.6204 71.6365 -50.2361 71.8316C-53.8295 72.0239 -57.4453 72.219 -58.2574 72.2741C-59.0725 72.3055 -60.5878 72.3779 -61.6492 72.4407C-62.7106 72.5035 -64.0692 72.5559 -64.7022 72.5882C-65.3128 72.6177 -67.4611 72.7224 -69.4496 72.8309C-74.3761 73.0964 -74.5358 73.0926 -74.6175 72.4514C-74.7458 71.6231 -75.7007 70.2002 -76.6126 69.4716C-77.7248 68.5997 -78.975 68.2521 -80.3185 68.4232L-81.4156 68.563L-84.6825 60.2427C-86.4966 55.6471 -88.474 50.6619 -89.0767 49.1459C-89.6794 47.6298 -92.6958 40.0258 -95.7781 32.2612C-98.8381 24.4938 -102.765 14.5682 -104.504 10.2043C-106.22 5.83752 -107.821 1.8422 -108.025 1.3131C-108.364 0.439178 -108.469 0.331844 -109.051 0.405996C-109.432 0.454479 -109.708 0.610297 -109.689 0.752787C-109.671 0.895277 -107.478 6.5045 -104.826 13.2137C-99.6654 26.2161 -92.5471 44.2302 -90.9218 48.4155C-90.3566 49.8157 -88.781 53.7901 -87.4062 57.2592C-82.4214 69.7771 -82.6283 69.2243 -83.0532 69.6404C-83.2753 69.8618 -83.5064 70.0119 -83.6214 70.0024C-84.0934 69.8694 -123.131 41.7063 -123.164 41.445C-123.186 41.2788 -122.787 39.5869 -122.258 37.6613C-121.749 35.7623 -120.945 32.788 -120.504 31.0666C-118.95 25.0524 -113.556 4.69639 -113.064 3.01683C-112.799 2.06591 -112.591 1.19479 -112.606 1.07605C-112.621 0.957306 -112.969 0.905092 -113.372 0.956428L-114.089 1.04769L-116.951 11.9828C-122.882 34.5551 -124.49 40.5038 -124.647 40.5237C-124.781 40.5409 -126.651 39.2586 -131.388 35.8317C-132.291 35.1744 -135.896 32.5928 -139.4 30.0947C-142.904 27.5967 -145.832 25.5081 -145.883 25.4663C-145.934 25.4245 -145.854 24.9799 -145.69 24.4764C-145.514 23.8988 -145.488 23.0268 -145.647 21.9609L-145.855 20.3223L-142.379 17.7799C-140.465 16.3776 -138.425 14.8869 -137.865 14.4537C-137.281 14.0414 -133.223 11.0629 -128.809 7.84597L-120.813 2.02488L-122.211 2.13046C-123.809 2.2617 -122.701 1.49309 -137.033 12.055C-138.177 12.9006 -140.863 14.8596 -142.986 16.4092L-146.861 19.2195L-147.477 18.6705C-149.757 16.6682 -153.372 17.2252 -154.931 19.813C-155.756 21.1972 -155.923 22.208 -155.603 24.0014C-155.228 26.0533 -154.281 27.2359 -152.468 27.8978L-151.205 28.3404L-151.075 30.2545C-151.009 31.308 -150.921 33.2516 -150.867 34.572C-150.812 35.8924 -150.73 37.7885 -150.695 38.7736C-150.639 39.7558 -150.562 41.6044 -150.517 42.8536C-150.472 44.1028 -150.365 46.5508 -150.284 48.254C-150.201 49.981 -150.128 51.8058 -150.106 52.334C-150.084 52.8622 -150.023 54.592 -149.958 56.1765C-149.87 57.7582 -149.803 59.5355 -149.794 60.1378C-149.754 61.1704 -149.58 65.3957 -149.423 68.4166C-149.39 69.2088 -149.298 71.5381 -149.22 73.5795C-149.142 75.6209 -148.974 79.7988 -148.817 82.8196C-148.679 85.867 -148.456 91.3653 -148.304 95.0625C-148.129 98.7568 -147.965 102.549 -147.917 103.46C-147.866 104.395 -147.836 105.525 -147.823 105.982C-147.801 106.872 -147.731 108.673 -147.606 111.264C-147.564 112.127 -147.528 113.305 -147.497 113.905C-147.466 114.504 -147.414 115.801 -147.358 116.783C-147.162 120.282 -147.159 120.305 -148.198 120.727C-150.233 121.541 -151.543 123.76 -151.452 126.258C-151.36 128.587 -149.319 130.861 -146.95 131.235C-146.465 131.294 -145.987 131.475 -145.921 131.635C-145.798 131.885 -143.303 140.931 -141.071 149.166C-140.607 150.845 -139.093 156.299 -137.707 161.287C-136.318 166.299 -134.604 172.428 -133.922 174.923C-133.24 177.419 -132.39 180.52 -132.022 181.801C-131.677 183.084 -131.172 184.902 -130.936 185.861C-130.703 186.797 -130.124 188.847 -129.697 190.41C-129.251 191.946 -128.37 195.116 -127.734 197.424C-127.099 199.732 -124.856 207.869 -122.725 215.49L-118.888 229.36L-119.824 230.228C-122.282 232.544 -121.88 236.957 -119.065 238.867C-117.052 240.204 -114.468 239.947 -112.755 238.208L-112.108 237.571L-101.917 243.803C-88.0511 252.269 -79.5653 257.439 -69.3011 263.709C-64.5157 266.623 -57.4586 270.937 -53.5833 273.316C-49.711 275.67 -45.2948 278.366 -43.7868 279.308C-41.4703 280.702 -41.0159 281.055 -41.0988 281.475C-41.1327 281.745 -41.0892 282.802 -40.9815 283.826L-40.7679 285.681L-42.6379 287.077C-43.6564 287.835 -46.4002 289.874 -48.7548 291.573C-51.1065 293.297 -53.8116 295.282 -54.7853 296.034C-55.762 296.762 -57.9049 298.338 -59.5691 299.563C-75.3626 311.156 -79.1249 313.952 -79.1158 314.023C-79.1067 314.095 -71.4599 325.718 -66.7841 332.773C-64.9222 335.601 -62.3553 339.497 -61.0591 341.456C-59.763 343.415 -57.2245 347.267 -55.4164 350.029C-53.586 352.788 -50.9876 356.753 -49.6315 358.825C-48.2724 360.92 -46.6919 363.325 -46.1067 364.168C-45.541 365.037 -44.0772 367.24 -42.8663 369.065C-41.6525 370.913 -39.8759 373.607 -38.9149 375.077C-37.954 376.548 -35.4724 380.31 -33.4144 383.427C-31.3564 386.543 -28.8748 390.306 -27.9139 391.776C-26.9306 393.244 -25.4608 395.494 -24.6136 396.786C-23.7665 398.078 -20.9496 402.329 -18.3767 406.273C-15.7844 410.19 -13.6544 413.515 -13.6392 413.633C-13.6241 413.752 -13.8474 414.142 -14.1216 414.491C-14.9797 415.614 -15.1782 416.556 -14.9483 418.361C-14.7094 420.237 -14.3154 421.008 -12.8982 422.13L-11.9863 422.859L-13.0351 426.951C-13.6361 429.199 -15.3495 435.933 -16.888 441.897C-18.4041 447.858 -20.6634 456.738 -21.9096 461.603C-23.1781 466.47 -24.4776 471.631 -24.8395 473.077C-25.2014 474.523 -26.2279 478.612 -27.1611 482.182L-28.8152 488.667L-30.342 489.007C-32.0927 489.374 -32.6192 489.707 -33.6323 491.043C-35.058 492.889 -35.0176 495.708 -33.5302 497.739C-33.1472 498.245 -32.5027 498.839 -32.1142 499.031C-31.7033 499.22 -31.4177 499.497 -31.4443 499.645C-31.4903 499.82 -31.9007 501.779 -32.3449 504.007C-32.8146 506.215 -34.7659 515.369 -36.6997 524.303C-38.611 533.235 -41.0247 544.475 -42.056 549.24C-43.0843 554.029 -45.9278 567.254 -48.3905 578.645C-50.8308 590.033 -53.2149 601.149 -53.6876 603.333C-54.9053 609.135 -54.7522 608.73 -55.4421 608.673C-55.7646 608.641 -56.4974 608.783 -57.0645 608.976C-60.368 610.193 -61.4641 614.629 -59.2003 617.574C-57.2058 620.192 -53.1792 620.186 -51.2142 617.571L-50.5915 616.743L-43.5834 619.422C-39.7335 620.887 -34.4209 622.937 -31.7886 623.953C-29.1562 624.969 -21.1412 628.051 -13.9642 630.805C-6.78729 633.56 2.78299 637.24 7.32758 638.978L15.5817 642.15L15.6779 643.441C15.7988 645.284 16.4221 646.604 17.6674 647.628C18.7827 648.524 20.5334 649.049 21.6378 648.787C22.0123 648.691 22.2483 648.758 22.3488 649.011C23.6558 652.126 58.8174 737.57 75.768 778.827C83.2555 797.06 89.4747 812.123 89.5915 812.326C89.7143 812.575 89.5521 812.91 89.0498 813.432C88.6698 813.843 88.1487 814.754 87.9169 815.435C87.6258 816.365 87.4158 816.681 87.1126 816.623C86.9051 816.602 86.0167 816.594 85.1314 816.61C84.2715 816.647 81.296 816.689 78.5474 816.725C75.7988 816.761 70.2315 816.819 66.1661 816.878C62.0977 816.914 57.9173 816.963 56.8468 816.955C55.7793 816.97 53.8937 816.993 52.6441 817.008C51.3944 817.022 50.0105 817.053 49.5536 817.039C49.1221 817.046 46.7602 817.081 44.3281 817.102C41.8991 817.145 39.5148 817.184 39.0131 817.175C38.5145 817.19 34.3759 817.211 29.8312 817.259C25.2866 817.307 21.4869 817.308 21.433 817.242C21.3568 817.18 21.3507 817.132 21.4403 817.121C21.7314 817.084 20.647 815.002 19.9814 814.242C19.588 813.833 18.7003 813.295 18.0341 813.066C13.3224 811.446 9.5298 816.683 12.1887 821.123C12.8234 822.176 13.3317 822.594 15.2101 823.586C15.5284 823.762 15.5386 824.558 15.3696 829.84C15.0837 838.492 14.6724 850.805 14.0327 870.434C13.7286 879.837 13.4124 890.038 13.3009 893.093C13.1925 896.171 13.0223 901.623 12.9102 905.209C12.8012 908.819 12.5843 914.977 12.4698 918.901C12.3329 922.828 12.1045 930.145 11.944 935.137C11.7835 940.129 11.5442 947.183 11.4321 950.769C11.3231 954.379 11.1226 960.486 10.999 964.339C10.7034 973.451 10.6543 974.495 10.5769 974.601C10.5605 974.652 10.1085 974.854 9.58622 975.041C7.72113 975.761 6.32379 977.653 6.23597 979.643L6.18814 980.518L4.80295 980.718C4.06406 980.813 3.08493 980.986 2.66556 981.087C2.24316 981.165 -0.204663 981.598 -2.78988 982.023C-5.35269 982.446 -7.82593 982.858 -8.2453 982.96C-8.66467 983.061 -11.1155 983.47 -13.7007 983.896C-16.2666 984.295 -18.5353 984.705 -18.7083 984.775C-18.8814 984.845 -21.1979 985.237 -23.8279 985.669C-26.4609 986.076 -29.0655 986.529 -29.6192 986.647C-30.1729 986.766 -32.2625 987.153 -34.291 987.484C-36.3194 987.815 -38.927 988.243 -40.0823 988.463C-41.2375 988.682 -43.554 989.074 -45.2018 989.356C-46.8496 989.639 -49.3647 990.08 -50.7662 990.331L-53.3229 990.801L-53.7483 989.962C-54.3087 988.779 -55.9679 987.542 -57.2732 987.298C-59.37 986.914 -61.2394 987.779 -62.477 989.674C-64.1509 992.253 -63.2881 995.811 -60.6115 997.353C-59.7746 997.849 -59.5877 998.067 -59.5629 998.619C-59.5544 999.221 -59.5036 999.263 -58.8095 999.174C-58.2273 999.1 -58.0827 998.985 -58.1311 998.605C-58.1795 998.225 -58.0349 998.11 -57.3408 998.022C-56.8929 997.965 -56.3199 997.82 -56.0602 997.714C-55.7365 997.576 -55.5422 997.672 -55.2833 998.098C-55.0182 998.571 -54.7792 998.661 -54.1522 998.581C-53.7268 998.527 -53.3746 998.434 -53.3807 998.386C-53.3898 998.315 -53.6457 997.913 -53.9719 997.496L-54.551 996.701L-53.872 995.601C-53.2674 994.631 -52.8903 993.304 -52.9962 992.473C-53.0234 992.259 -52.4982 992.096 -51.1802 991.904C-50.1726 991.775 -49.1934 991.602 -49.0173 991.556C-48.8443 991.486 -46.6875 991.09 -44.2367 990.681C-41.7858 990.273 -39.4245 989.875 -39.0051 989.774C-38.5827 989.696 -36.1767 989.293 -33.6586 988.876C-31.1406 988.458 -28.536 988.006 -27.8704 987.873C-27.2047 987.74 -24.8912 987.324 -22.7508 986.979C-20.6104 986.634 -18.1402 986.199 -17.2954 986.043C-16.4282 985.884 -14.0251 985.458 -11.9519 985.121C-9.85626 984.782 -7.60994 984.375 -6.94428 984.242C-5.3025 983.912 2.78291 982.544 4.84284 982.282C6.4967 982.047 6.4967 982.047 6.81136 982.731C6.97474 983.121 7.46549 983.758 7.86184 984.19L8.59768 984.965L7.54645 987.609C6.20836 991.038 6.2126 990.892 7.13061 990.775C7.84711 990.684 7.92155 990.554 8.88502 988.114L9.90054 985.548L10.7278 985.611C11.1877 985.649 11.6282 985.714 11.7015 985.753C11.7971 985.789 12.0119 986.582 12.2224 987.52C12.7518 989.89 12.8178 990.051 13.5791 989.954C14.0045 989.9 14.2327 989.726 14.2665 989.456C14.3047 989.041 14.3271 989.038 14.4009 989.439C14.4626 989.745 14.6762 989.814 15.236 989.743L15.9973 989.646L15.0696 987.544C14.5571 986.378 14.1239 985.299 14.1057 985.157C14.0876 985.014 14.3036 984.745 14.5705 984.518C15.0716 984.165 15.2434 984.264 18.3078 986.528C21.3498 988.795 21.5725 988.936 22.4905 988.819C23.0055 988.753 23.4249 988.652 23.4188 988.604C23.4097 988.533 16.1179 983.09 15.9491 983.015C15.9237 982.994 16.0259 982.547 16.2057 981.993C16.3885 981.463 16.5065 980.603 16.4654 980.102C16.3994 979.048 15.6938 979.404 23.2498 976.559C26.1817 975.461 35.9489 971.756 44.9567 968.34C53.9644 964.924 63.8823 961.151 66.9873 959.983C76.8888 956.26 85.0282 953.172 91.9499 950.528C95.6607 949.115 104.688 945.672 112.026 942.903C119.361 940.111 127.327 937.093 129.692 936.188C132.057 935.284 134.124 934.538 134.28 934.518C134.415 934.501 134.694 934.731 134.868 935.022C135.247 935.674 135.631 935.118 123.505 950.853C119.15 956.5 114.015 963.163 112.086 965.702C110.153 968.217 107.15 972.147 105.392 974.422L102.208 978.544L103.158 978.496C104.04 978.456 104.184 978.341 105.198 977.005C105.801 976.204 112.362 967.694 119.762 958.087C127.185 948.478 133.895 939.707 134.734 938.611C135.705 937.305 136.326 936.646 136.585 936.71C136.869 936.795 136.83 937.21 136.25 939.263C132.342 953.42 126.388 975.271 126.412 975.461C126.424 975.556 126.741 975.54 127.138 975.441C127.977 975.238 127.541 976.645 133.151 956.02C135.164 948.596 137.133 941.37 137.523 939.969L138.245 937.416L139.502 937.28C141.094 937.101 142.446 936.277 143.26 934.991C143.603 934.465 143.932 934.012 143.999 934.004C144.066 933.995 150.822 935.765 159.013 937.908C167.208 940.074 176.486 942.536 179.663 943.362C182.84 944.188 187.382 945.372 189.784 946.007C192.189 946.666 196.801 947.864 200.026 948.708C203.273 949.55 208.925 951.05 212.619 952.004L219.33 953.779L219.478 954.943C219.582 955.581 219.746 956.333 219.872 956.606C220.09 957.061 219.787 957.365 216.553 960.022C214.595 961.623 212.474 963.365 211.856 963.878L210.75 964.839L212.989 964.554L215.228 964.269L218.217 961.475L221.203 958.657L222.11 959.169C222.623 959.442 223.432 959.725 223.921 959.807L224.779 959.939L224.973 961.459L225.17 963.003L225.841 962.917C226.491 962.834 226.491 962.834 226.355 961.235L226.223 959.659L227.076 959.212C227.525 958.986 228.106 958.55 228.319 958.257L228.729 957.723L232.122 959.704C235.447 961.694 235.517 961.709 236.605 961.498L237.715 961.284L235.85 960.218C234.819 959.626 233.903 959.043 233.824 958.956C233.764 958.843 235.093 959.277 236.814 959.927C239.756 961.048 240.037 961.109 241.447 960.929L242.967 960.712L242.132 960.408C241.676 960.224 238.709 959.082 235.529 957.87L229.783 955.634L229.685 954.15C229.627 953.337 229.645 952.586 229.722 952.48C229.781 952.4 234.427 949.757 240.035 946.629C245.644 943.501 250.851 940.618 251.615 940.183C254.141 938.751 287.443 920.101 300.358 912.881C307.368 908.971 326.229 898.412 342.288 889.44C363.339 877.684 371.527 873.19 371.731 873.357C371.934 873.525 371.933 873.694 371.739 873.96C371.581 874.149 364.645 882.755 356.313 893.084C348.004 903.409 337.469 916.456 332.932 922.102C328.392 927.724 321.205 936.676 316.923 942C312.66 947.297 309.023 951.791 308.868 952.004C308.635 952.323 308.731 952.359 309.627 952.245L310.657 952.114L322.722 937.159C335.63 921.131 344.627 909.945 362.03 888.301C368.082 880.797 373.082 874.682 373.178 874.718C373.248 874.733 373.726 874.913 374.249 875.088C375.081 875.368 375.16 875.455 375.114 876.16C375.101 876.596 375.105 878.237 375.103 879.83C375.102 881.423 375.084 886.107 375.061 890.213C374.984 899.973 374.956 909.22 374.902 921.124C374.838 934.913 374.806 942.519 374.768 943.296C374.755 943.901 374.805 943.943 375.477 943.857L376.216 943.763L376.22 940.577C376.223 938.815 376.225 934.012 376.245 929.883C376.292 921.671 376.333 914.136 376.41 898.126C376.448 892.353 376.482 885.833 376.498 883.634C376.514 881.436 376.553 878.704 376.542 877.547C376.545 875.785 376.612 875.415 376.947 875.372C377.149 875.346 377.476 875.232 377.668 875.135C377.902 875.009 378.216 875.331 378.829 876.387C379.312 877.146 380.676 879.458 381.914 881.497C384.539 885.844 383.702 884.455 393.771 901.345C398.195 908.745 402.329 915.652 402.941 916.708C403.576 917.762 404.416 919.175 404.82 919.848C405.224 920.52 407.043 923.546 408.862 926.573C410.659 929.602 413.027 933.548 414.101 935.366C416.02 938.645 416.049 938.69 416.788 938.595C417.168 938.547 417.498 938.457 417.489 938.386C417.48 938.314 415.826 935.508 413.827 932.143C411.806 928.78 408.219 922.769 405.841 918.752C403.441 914.738 400.631 910.004 399.538 908.212C391.018 894.021 379.926 875.354 379.984 875.275C380.062 875.168 386.264 876.526 398.474 879.315C402.737 880.268 409.156 881.719 412.762 882.515C416.37 883.334 426.325 885.566 434.898 887.49L450.48 891.032L450.796 892.44C450.969 893.263 451.362 894.202 451.694 894.667L452.298 895.483L445.838 905.138C442.306 910.463 438.924 915.528 438.352 916.397C437.78 917.266 434.401 922.354 430.87 927.679C427.316 933.007 424.421 937.43 424.43 937.501C424.439 937.573 424.826 937.572 425.296 937.512C426.124 937.406 426.282 937.217 431.781 928.939C434.876 924.297 437.738 919.975 438.158 919.342C453.457 896.18 453.492 896.103 454.462 896.751C454.513 896.793 453.664 905.131 452.568 915.286C451.476 925.465 450.591 933.88 450.609 934.022C450.627 934.165 450.933 934.246 451.291 934.201C451.874 934.126 451.929 934.023 452.111 932.6C452.381 930.249 455.926 897.168 455.911 897.05C455.902 896.978 456.299 896.88 456.792 896.817C459.277 896.5 461.097 894 460.936 891.124C460.914 890.596 460.779 889.889 460.647 889.568ZM451.525 888.341C451.28 888.734 451.043 889.199 451.016 889.347C450.979 889.593 448.334 889.013 430.952 885.097C429.079 884.684 417.061 881.967 404.247 879.086C391.434 876.205 380.679 873.762 380.373 873.681L379.808 873.535L380.212 872.953C381.168 871.528 381.225 868.938 380.329 867.267C379.563 865.892 378.211 864.93 376.673 864.643C375.716 864.451 375.282 864.265 375.249 864.004C375.219 863.766 374.097 858.528 372.741 852.353C369.871 839.107 369.253 836.218 368.833 834.171C368.657 833.325 368.418 832.342 368.321 831.944C368.228 831.57 367.986 830.563 367.81 829.716C367.634 828.87 367.127 826.497 366.682 824.43C366.236 822.363 365.475 818.888 365.012 816.679C364.529 814.496 364.068 812.31 363.944 811.867C363.714 810.955 363.429 809.616 362.537 805.289C362.194 803.667 361.835 802.096 361.747 801.769C361.66 801.443 361.45 800.504 361.274 799.658C359.855 792.984 359.208 790.05 358.997 789.112C358.855 788.526 358.493 786.763 358.16 785.212C357.826 783.662 357.34 781.455 357.076 780.282C356.494 777.677 356.132 776.082 355.7 773.941C355.518 773.047 355.255 771.874 355.143 771.358C355.01 770.844 354.663 769.198 354.339 767.719C354.014 766.24 353.624 764.432 353.466 763.728C352.556 759.62 351.292 753.627 351.337 753.621C351.359 753.619 353.218 756.061 355.468 759.08C357.715 762.076 363.527 769.831 368.402 776.305C373.277 782.78 379.006 790.424 381.143 793.266C383.279 796.107 388.268 802.76 392.238 808.022C396.207 813.284 403.228 822.671 407.859 828.839C412.493 835.03 418.219 842.651 420.577 845.801C426.788 854.012 430.84 859.385 439.662 871.124C443.938 876.83 448.433 882.822 449.665 884.451C450.896 886.08 451.937 887.468 451.943 887.515C451.972 887.56 451.768 887.924 451.525 888.341ZM373.426 865.057C373.103 865.194 372.764 865.213 372.662 865.13C372.561 865.046 370.526 862.651 368.121 859.844C363.307 854.206 360.635 851.096 351.898 840.914C348.665 837.151 344.948 832.797 343.611 831.23C342.299 829.684 338.395 825.113 334.95 821.111C331.505 817.109 326.162 810.888 323.087 807.297C320.013 803.707 316.99 800.158 316.353 799.443C315.713 798.704 315.191 797.998 315.172 797.855C315.154 797.713 322.87 787.366 332.336 774.866L349.507 752.117L349.853 753.762C350.058 754.653 350.376 756.085 350.55 756.907C351.595 761.722 354.206 773.649 354.462 774.944C354.747 776.283 355.326 778.864 356.072 782.22C356.192 782.808 356.446 783.91 356.613 784.685C357.3 787.928 359.142 796.502 359.381 797.485C359.502 798.073 359.889 799.858 360.232 801.48C360.575 803.101 361.181 805.896 361.593 807.702C362.005 809.508 362.485 811.667 362.661 812.513C362.837 813.36 363.725 817.47 364.647 821.672C365.546 825.878 366.533 830.41 366.821 831.773C367.322 834.098 368.692 840.392 369.265 842.925C370.055 846.445 371.728 854.22 372.071 855.841C372.293 856.875 372.745 858.989 373.101 860.537C374.083 864.852 374.077 864.805 373.426 865.057ZM371.398 866.28C370.984 866.068 364.922 862.423 351.861 854.554C345.895 850.946 338.624 846.563 335.716 844.809C309.595 829.095 305.122 826.31 305.23 825.91C305.293 825.685 305.305 824.887 305.278 824.142C305.205 822.679 304.723 821.389 303.895 820.433C303.198 819.605 301.465 818.86 300.187 818.83L299.136 818.795L306.592 808.915L314.029 799.063L314.711 799.772C315.082 800.184 317.212 802.615 319.408 805.208C321.627 807.797 326.25 813.193 329.695 817.195C339.104 828.184 341.751 831.274 345.626 835.8C347.579 838.085 354.228 845.806 360.398 852.984C366.569 860.162 371.629 866.13 371.641 866.225C371.679 866.341 371.544 866.358 371.398 866.28ZM370.723 868.128C370.56 868.101 351.272 864.403 327.854 859.905C304.439 855.43 285.241 851.721 285.215 851.7C285.015 851.557 298.108 829.303 298.344 829.37C300.574 829.906 302.286 829.591 303.65 828.332L304.425 827.63L320.866 837.554C329.912 843.014 341.103 849.77 345.736 852.559C350.347 855.35 357.913 859.913 362.546 862.702C369.918 867.169 371.83 868.422 370.723 868.128ZM364.773 875.185C361.353 877.093 352.494 882.034 345.082 886.188C337.67 890.342 324.056 897.965 314.815 903.124C305.597 908.28 292.64 915.529 286.034 919.219C279.427 922.908 269.102 928.664 263.089 932.012C257.076 935.36 251.577 938.45 250.877 938.853C250.18 939.279 244.934 942.216 239.242 945.403L228.853 951.191L228.383 950.72C228.12 950.439 227.966 950.121 228.037 949.967C228.112 949.837 229.976 946.607 232.176 942.803C246.339 918.41 250.817 910.696 252.833 907.23C255.732 902.299 256.176 901.495 271.138 875.696C277.946 863.945 283.716 854.039 283.945 853.696L284.387 853.061L288.214 853.804C301.088 856.267 370.192 869.499 370.403 869.544C370.543 869.575 370.722 870.083 370.798 870.677L370.953 871.719L364.773 875.185ZM331.624 773.388C323.758 783.802 316.57 793.285 315.657 794.512L314.005 796.725L305.318 786.585C300.533 780.992 293.101 772.31 288.798 767.283C280.19 757.229 273.079 748.916 261.857 735.841C254.805 727.641 254.505 727.245 254.701 726.641C254.841 726.309 255.067 725.943 255.215 725.851C255.494 725.719 258.007 726.34 267.486 728.946C269.891 729.605 275.597 731.171 280.165 732.375C284.735 733.603 290.368 735.13 292.655 735.756C294.941 736.382 302.341 738.383 309.078 740.18C315.817 742 327.175 745.067 334.291 746.984C341.432 748.922 347.559 750.579 347.936 750.676L348.64 750.852L347.279 752.666C346.543 753.677 339.493 762.998 331.624 773.388ZM302.225 812.32C299.928 815.363 297.992 817.854 297.925 817.863C297.836 817.874 278.528 779.017 273.905 769.518C273.345 768.334 271.751 765.11 270.378 762.365C269.004 759.62 267.353 756.306 266.708 754.989C264.311 750.105 260.509 742.408 257.236 735.827C255.371 732.082 253.885 728.989 253.901 728.939C253.943 728.909 257.379 732.84 261.552 737.738C265.723 742.613 271.789 749.684 275.021 753.447C282.475 762.127 296.131 778.054 302.942 785.971C305.803 789.323 309.277 793.369 310.642 794.981L313.105 797.877L309.759 802.334C307.91 804.79 304.522 809.276 302.225 812.32ZM296.124 820.868L295.233 822.091L287.071 819.825C282.568 818.588 276.176 816.82 272.872 815.889C269.568 814.959 258.412 811.867 248.081 809.008L229.283 803.8L229.573 802.677C229.721 802.055 231.064 797.057 232.57 791.556C234.077 786.054 236.384 777.555 237.72 772.679C239.056 767.803 240.342 763.077 240.614 762.174C240.864 761.273 241.464 759.025 241.957 757.176C242.45 755.327 243.76 750.43 244.896 746.304C247.754 735.876 248.732 732.3 249.189 730.528L249.567 729.032L250.856 728.965C251.556 728.924 252.15 728.945 252.198 728.963C252.274 729.025 256.341 737.195 258.684 742.013C259.512 743.694 261.106 746.918 262.212 749.166C268.418 761.625 270.837 766.506 272.188 769.254C272.994 770.937 278.904 782.854 285.295 795.7C291.668 808.572 296.937 819.22 296.956 819.362C296.999 819.525 296.608 820.203 296.124 820.868ZM291.629 837.562C288.771 842.463 285.827 847.568 285.063 848.896C284.274 850.203 283.55 851.309 283.438 851.323C283.214 851.352 266.45 848.178 264.414 847.737C263.709 847.561 254.473 845.794 243.888 843.787C233.302 841.781 224.552 840.072 224.428 839.991C223.903 839.624 223.327 839.745 236.012 837.333C240.098 836.547 244.163 835.764 245.004 835.584C245.872 835.426 247.603 835.085 248.893 834.848C250.182 834.611 251.872 834.299 252.669 834.126C254.333 833.793 256.73 833.319 259.885 832.724C262.64 832.204 276.324 829.592 278.878 829.098C282.363 828.413 288.072 827.323 290.206 826.931C291.361 826.711 292.958 826.387 293.758 826.237L295.196 825.909L295.938 827.094C296.339 827.743 296.715 828.37 296.727 828.465C296.765 828.581 294.463 832.663 291.629 837.562ZM294.845 824.409C294.695 824.477 292.813 824.885 290.678 825.278C288.547 825.694 285.148 826.344 283.129 826.746C281.107 827.125 278.665 827.605 277.689 827.801C276.71 827.974 274.911 828.324 273.689 828.552C272.466 828.78 270.824 829.11 270.024 829.26C269.224 829.41 267.381 829.766 265.912 830.025C264.447 830.309 263.004 830.589 262.696 830.676C262.389 830.764 260.744 831.07 259.032 831.384C257.317 831.675 255.563 832.019 255.144 832.121C254.724 832.223 252.881 832.578 251.032 832.886C249.208 833.215 247.541 833.524 247.368 833.594C247.192 833.641 245.751 833.945 244.148 834.221C242.568 834.495 240.612 834.865 239.815 835.039C238.087 835.404 235.975 835.793 230.375 836.845C228.065 837.284 225.687 837.731 225.114 837.877L224.051 838.109L223.464 837.073C223.139 836.487 222.423 835.685 221.87 835.273L220.888 834.529L223.054 826.531C225.896 816.153 227.4 810.628 228.201 807.63C228.553 806.282 228.963 805.216 229.081 805.249C240.429 808.414 267.085 815.83 270.243 816.683C272.648 817.342 279.017 819.113 284.394 820.6C289.774 822.111 294.37 823.36 294.606 823.426C295.075 823.535 295.23 824.215 294.845 824.409ZM240.524 415.626C240.355 418.23 240.019 423.268 239.788 426.821C239.558 430.374 239.164 436.385 238.9 440.208C238.658 444.027 238.039 453.277 237.537 460.774C237.058 468.268 236.316 479.054 235.927 484.751C235.538 490.448 235.02 497.995 234.79 501.548C234.56 505.101 233.992 513.861 233.515 521.017C233.039 528.173 232.446 537.275 232.197 541.216C231.693 548.689 231.473 552.144 231.135 556.99C231.037 558.547 230.632 564.656 230.245 570.546C229.857 576.436 229.369 583.497 229.196 586.246C229 588.998 228.333 599.122 227.692 608.737L226.553 626.234L225.994 624.881C225.673 624.15 223.881 619.551 221.986 614.677C220.091 609.802 217.584 603.339 216.401 600.304C215.218 597.269 212.102 589.244 209.467 582.484C206.853 575.722 204.318 569.215 203.847 568.02C203.402 566.846 201.645 562.339 199.956 558.017C198.294 553.716 196.26 548.472 195.425 546.383C193.568 541.624 187.412 525.804 183.371 515.338C181.676 510.968 179.85 506.277 179.288 504.901L178.29 502.422L178.865 501.576C179.478 500.677 188.295 487.367 193.122 480.067C194.802 477.536 205.906 460.749 217.815 442.773C229.724 424.797 239.474 410.064 239.491 410.014C239.582 409.833 240.789 410.379 240.819 410.617C240.837 410.759 240.715 413.019 240.524 415.626ZM232.35 418.26C229.087 423.188 218.532 439.11 208.897 453.683C199.24 468.259 190.747 481.069 189.998 482.154C189.248 483.239 186.195 487.852 183.197 492.36C180.225 496.89 177.706 500.517 177.627 500.431C177.525 500.347 176.056 496.673 174.352 492.232C172.63 487.818 170.157 481.448 168.842 478.092C167.55 474.733 165.962 470.663 165.341 469.005C164.701 467.373 162.878 462.706 161.29 458.636C159.705 454.591 158.372 451.092 158.345 450.879C158.318 450.665 158.586 450.269 158.92 450.033C160.128 449.155 161.055 446.431 160.684 444.764C160.588 444.366 161.675 443.793 169.486 440.096C219.429 416.503 236.835 408.276 237.229 408.154C237.533 408.043 237.775 408.157 237.98 408.517C238.176 408.805 238.305 409.103 238.292 409.177C238.282 409.275 235.593 413.358 232.35 418.26ZM236.786 406.641C236.75 406.718 227.477 411.085 176.373 435.212L159.955 442.975L159.512 442.355C158.42 440.926 155.969 440.08 154.3 440.558C153.884 440.683 153.356 440.823 153.109 440.854C152.709 440.929 148.691 435.818 136.071 419.277C134.542 417.275 131.623 413.472 129.578 410.812C127.533 408.153 125.133 405.032 124.23 403.843C123.354 402.676 122.128 401.094 121.53 400.326C120.934 399.581 119.269 397.404 117.848 395.534C116.404 393.666 112.912 389.115 110.075 385.422C107.238 381.729 102.705 375.791 99.9754 372.228C97.2463 368.666 91.3543 360.994 86.8836 355.192C74.0418 338.511 75.2254 340.122 75.4602 339.464C75.5776 339.136 75.7937 338.867 75.928 338.85C76.0624 338.833 77.4711 339.353 79.0517 339.972C85.2937 342.532 94.2891 346.164 96.6661 347.141C98.0555 347.688 101.293 348.989 103.858 350.014C106.426 351.062 109.087 352.123 109.737 352.402C110.409 352.679 114.08 354.166 117.894 355.707C121.731 357.246 127.345 359.523 130.369 360.755C133.416 361.984 137.086 363.471 138.527 364.06C139.989 364.646 142.94 365.839 145.123 366.719C147.305 367.6 156.686 371.4 165.994 375.162C175.301 378.924 183.771 382.358 184.826 382.779C185.88 383.2 188.739 384.38 191.183 385.348C193.63 386.34 199.194 388.575 203.54 390.363C207.905 392.123 213.402 394.368 215.776 395.32C228.053 400.248 233.451 402.433 235.038 403.099L236.768 403.82L236.806 405.191C236.81 405.939 236.802 406.591 236.786 406.641ZM270.742 873.478C264.231 884.709 256.993 897.191 254.66 901.205C252.349 905.216 249.214 910.611 247.722 913.19C246.208 915.772 240.966 924.814 236.057 933.259C231.174 941.724 227.045 948.79 226.913 949C226.7 949.293 226.521 949.316 225.816 949.14C225.111 948.964 224.981 948.836 224.984 948.329C225.009 947.988 224.941 946.742 224.88 945.543C224.799 944.37 224.732 942.955 224.71 942.427C224.689 941.899 224.658 940.768 224.617 939.905C224.538 938.394 223.904 925.733 223.737 922.279C223.689 921.368 223.613 919.519 223.558 918.199C223.504 916.878 223.404 914.84 223.319 913.644C223.238 912.471 223.178 911.104 223.165 910.647C223.153 910.19 223.025 907.044 222.848 903.688C222.671 900.332 222.493 896.976 222.47 896.255C222.371 893.516 221.74 880.878 221.566 877.546C221.458 875.629 221.364 873.638 221.342 873.11C221.343 872.579 221.196 869.46 221.024 866.151C220.856 862.866 220.685 859.558 220.662 858.837C220.616 858.119 220.498 855.407 220.353 852.843C220.209 850.279 220.096 847.783 220.105 847.323C220.093 846.867 220.053 846.196 220.033 845.861C219.966 845.338 220.108 845.199 221.079 844.786C221.967 844.432 222.439 844.034 223.208 842.922L224.215 841.539L243.063 845.172C253.441 847.156 262.887 848.969 264.03 849.186C273.467 850.928 282.734 852.764 282.682 852.892C282.649 852.992 277.275 862.245 270.742 873.478ZM247.553 718.935C247.091 719.236 246.579 719.687 246.408 719.95C246.065 720.476 246.575 720.725 208.546 700.301C203.367 697.51 198.458 694.877 197.627 694.428C196.777 694.005 196.105 693.56 196.138 693.459C196.168 693.335 200.77 685.339 219.101 653.658C226.188 641.412 227.275 639.585 227.409 639.567C227.773 639.569 229.749 639.897 229.879 640.025C230.006 640.13 233.559 654.978 239.164 678.977C240.857 686.194 240.897 686.334 241.149 687.412C241.282 687.926 241.496 688.888 241.645 689.521C241.797 690.177 242.377 692.589 242.923 694.909C243.468 697.229 244.035 699.715 244.216 700.416C244.374 701.12 245.325 705.198 246.343 709.436C247.364 713.698 248.228 717.45 248.293 717.779C248.379 718.275 248.224 718.488 247.553 718.935ZM246.905 733.498C246.213 735.927 245.652 737.954 245.658 738.001C245.667 738.072 243.931 744.448 241.295 754.123C240.517 756.949 239.418 760.999 238.846 763.123C238.275 765.247 236.545 771.67 234.973 777.373C233.424 783.073 231.211 791.246 230.046 795.497C228.906 799.769 227.942 803.271 227.925 803.321C227.89 803.398 209.445 798.29 164.249 785.729C157.903 783.956 152.053 782.336 151.275 782.121L149.862 781.746L149.654 780.469L149.471 779.213L162.898 771.904C170.306 767.896 189.18 757.624 204.865 749.11C220.547 740.572 234.381 733.066 235.616 732.402C236.854 731.762 239.706 730.216 241.939 728.99L246.046 726.754L247.069 727.637C247.631 728.121 248.106 728.639 248.128 728.805C248.146 728.948 247.597 731.069 246.905 733.498ZM245.267 724.029L245.314 725.471L243.61 726.388C242.673 726.894 239.991 728.345 237.649 729.609C235.307 730.873 214.454 742.217 191.3 754.796C168.146 767.374 149.051 777.698 148.872 777.721C148.692 777.744 148.391 777.517 148.214 777.201C147.952 776.752 147.95 776.559 148.176 776.193C148.348 775.929 151.516 770.434 155.247 763.997C158.975 757.537 162.874 750.814 163.9 749.043C176.49 727.311 187.418 708.422 190.159 703.681C192.001 700.454 193.923 697.144 194.411 696.334L195.294 694.87L208.556 701.989C215.859 705.91 225.845 711.251 230.751 713.86C245.405 721.719 245.452 721.737 245.328 722.187C245.291 722.433 245.259 723.258 245.267 724.029ZM226.132 630.077C225.863 630.111 220.764 625.451 196.504 603.08C186.164 593.537 169.897 578.546 153.896 563.86L147.22 557.712L147.525 557.069C148.349 555.323 148.213 553.362 147.171 551.612L146.476 550.445L160.042 529.941C176.535 505.083 177.243 504.027 177.421 504.173C177.497 504.236 177.726 504.786 177.936 505.363C178.172 505.96 181.695 515.044 185.784 525.528C189.875 536.036 193.691 545.807 194.24 547.258C194.811 548.705 196.568 553.212 198.131 557.26C199.715 561.306 201.639 566.225 202.389 568.181C203.138 570.137 204.519 573.654 205.432 575.999C206.345 578.344 208.269 583.264 209.69 586.92C211.115 590.6 212.869 595.083 213.581 596.923C220.955 615.87 223.691 622.882 224.909 626.009C226.622 630.352 226.513 630.028 226.132 630.077ZM214.511 658.707C208.809 668.604 201.998 680.332 199.425 684.787L194.746 692.888L180.707 685.385C172.99 681.252 165.515 677.232 164.099 676.471C162.679 675.687 154.838 671.473 146.634 667.088C113.96 649.577 115.379 650.362 115.383 649.855C115.397 648.719 115.065 648.785 123.073 647.886C127.247 647.426 141.592 645.72 154.968 644.089C168.344 642.457 182.667 640.753 186.793 640.276C190.922 639.823 200.066 638.73 207.077 637.861C214.111 636.99 220.86 636.202 222.12 636.09L224.39 635.873L224.796 636.739C224.991 637.197 225.389 637.822 225.652 638.102C226.128 638.62 226.131 638.644 225.536 639.685C225.199 640.259 220.238 648.831 214.511 658.707ZM224.87 631.782C224.767 631.867 221.375 630.779 217.327 629.364C213.301 627.946 209.131 626.474 208.082 626.101C203.275 624.445 187.978 619.032 185.093 618C183.327 617.356 180.325 616.291 178.421 615.64C174.685 614.354 150.507 605.85 145.359 604.02C143.619 603.397 139.191 601.861 135.544 600.564C131.878 599.293 128.864 598.133 128.845 597.99C128.827 597.848 129.494 595.76 130.32 593.313C131.169 590.864 132.775 586.147 133.898 582.818C136.986 573.833 138.077 570.605 139.5 566.418C140.215 564.348 141.014 562.05 141.285 561.315L141.777 559.998L142.87 560.003C143.551 559.989 144.389 559.786 145.165 559.445L146.371 558.906L147.498 559.896C148.117 560.469 152.6 564.58 157.45 569.079C162.324 573.574 167.12 578.007 168.149 578.938C169.178 579.869 173.975 584.302 178.848 588.797C183.721 593.293 188.953 598.105 190.474 599.504C202.76 610.754 225.017 631.329 225.035 631.471C225.048 631.566 224.973 631.696 224.87 631.782ZM223.18 634.411C222.595 634.461 212.686 635.627 201.168 637.021C153.415 642.79 142.79 644.047 133.821 645.093C128.64 645.68 122.32 646.437 119.767 646.762C115.715 647.278 115.104 647.308 115.065 646.999C114.995 646.453 114.018 645.033 113.436 644.576L112.912 644.208L113.871 641.383C117.797 630.047 120.282 622.756 121.105 620.286C121.631 618.699 122.111 617.286 122.182 617.132C122.257 617.002 123.066 614.606 124.01 611.831C126.848 603.385 128.007 599.979 128.162 599.767C128.217 599.663 129.894 600.149 131.848 600.842C136.4 602.458 143.833 605.083 145.523 605.664C146.237 605.911 148.236 606.598 149.928 607.203C151.643 607.805 156.718 609.596 161.245 611.191C165.768 612.763 170.747 614.518 172.322 615.09C173.893 615.638 178.942 617.408 183.517 619.021C188.113 620.632 192.831 622.3 193.998 622.706C195.187 623.11 199.261 624.546 203.051 625.897C206.863 627.246 210.937 628.682 212.104 629.088C225.441 633.761 224.338 633.322 224.276 633.909C224.235 634.3 224.062 634.371 223.18 634.411ZM225.467 812.25C224.489 815.826 222.97 821.401 222.106 824.624C221.22 827.85 220.275 831.325 220.018 832.348L219.503 834.199L218.3 834.401C217.564 834.518 216.718 834.843 216.175 835.226L215.254 835.85L213.461 834.462C212.498 833.691 205.895 828.475 198.812 822.885C191.726 817.272 184.443 811.539 182.625 810.129C164.66 796.103 149.078 783.632 149.253 783.392C149.369 783.233 150.559 783.467 152.706 784.062C154.501 784.582 162.286 786.752 169.998 788.883C177.71 791.014 189.453 794.248 196.058 796.086C202.686 797.92 212.238 800.565 217.287 801.973C222.358 803.379 226.724 804.608 227.03 804.69C227.457 804.829 227.543 804.963 227.403 805.294C227.321 805.546 226.446 808.674 225.467 812.25ZM174.823 505.035C173.792 506.59 166.73 517.24 159.153 528.679C151.58 540.142 145.313 549.532 145.23 549.591C145.143 549.626 144.882 549.538 144.611 549.38C144.096 549.083 143.752 552.458 147.738 518.549C148.751 510.07 149.889 500.247 150.307 496.743C150.703 493.241 151.84 483.588 152.81 475.307C153.803 467.023 154.825 458.253 155.108 455.828L155.615 451.419L156.265 451.337C157.004 451.242 156.503 450.172 160.842 461.372C161.965 464.294 165.96 474.573 169.741 484.252C173.544 493.928 176.657 501.93 176.669 502.025C176.707 502.141 175.879 503.501 174.823 505.035ZM219.158 856.856C219.408 861.675 219.642 866.376 219.69 867.287C219.741 868.221 219.783 869.447 219.814 870.046C219.823 870.648 219.942 873.191 220.077 875.684C220.37 881.559 220.534 884.628 220.643 887.269C220.679 888.447 221.681 908.639 221.9 913.221C221.942 914.085 222.016 915.378 222.039 916.099C222.063 916.82 222.234 920.129 222.402 923.414C222.573 926.723 222.736 929.96 222.75 930.61C222.79 931.28 222.878 933.224 222.959 934.927C223.042 936.654 223.153 938.595 223.167 939.245C223.207 939.915 223.286 941.788 223.361 943.443C223.641 948.862 223.644 948.886 223.061 949.129C222.779 949.237 222.414 949.405 222.247 949.522C222.035 949.646 220.555 947.855 216.807 942.903C213.967 939.186 210.33 934.388 208.718 932.276C206.148 928.887 201.906 923.273 188.556 905.643C186.67 903.156 183.251 898.644 180.953 895.606C178.632 892.571 176.733 889.99 176.715 889.847C176.694 889.681 201.462 861.017 215.446 845.045L216.001 844.395L217.03 844.795C217.601 844.988 218.191 845.154 218.325 845.137C218.527 845.111 218.623 845.509 218.672 846.613C218.708 847.429 218.931 852.034 219.158 856.856ZM213.419 838.063C213.046 837.99 198.106 835.38 180.187 832.256C162.266 829.109 147.53 826.497 147.432 826.437C147.33 826.354 147.222 825.33 147.186 824.152C147.147 822.95 147.045 821.081 146.992 819.953C146.917 818.828 146.866 817.532 146.853 817.075C146.841 816.618 146.801 815.416 146.744 814.434C146.688 813.452 146.648 812.25 146.636 811.793C146.631 811.045 146.367 805.215 146.11 800.517C146.068 799.654 146.001 797.876 145.946 796.556C145.892 795.235 145.788 792.811 145.713 791.155C145.498 786.429 145.512 786.354 146.138 786.275C146.452 786.235 147.074 785.938 147.553 785.588L148.407 784.972L150.841 786.931C154.495 789.892 183.102 812.626 188.867 817.153C208.715 832.749 214.326 837.32 214.198 837.747C214.081 838.075 213.908 838.146 213.419 838.063ZM195.294 866.002C184.557 878.35 175.718 888.454 175.629 888.465C175.561 888.474 175.219 888.107 174.89 887.666C174.58 887.199 169.325 880.242 163.228 872.21L152.151 857.596L152.698 856.706C153.001 856.233 153.302 855.374 153.389 854.808C153.451 854.221 153.532 853.607 153.558 853.459C153.576 853.239 154.124 853.073 155.218 852.91C156.113 852.796 157.204 852.608 157.624 852.507C158.024 852.432 159.822 852.082 161.627 851.78C163.406 851.456 165.499 851.093 166.296 850.919C167.096 850.769 168.849 850.425 170.184 850.183C177.502 848.865 179.082 848.591 183.303 847.788C184.279 847.591 186.238 847.245 187.639 846.994C193.114 846.031 201.095 844.556 204.759 843.848C205.671 843.684 207.783 843.294 209.431 843.012C211.075 842.706 212.855 842.383 213.386 842.267C214.202 842.066 214.368 842.117 214.605 842.546C214.753 842.816 214.843 843.167 214.836 843.289C214.832 843.434 206.028 853.63 195.294 866.002ZM212.642 840.889C211.934 841.052 210.069 841.41 208.466 841.687C206.885 841.96 204.725 842.332 203.682 842.537C202.638 842.743 200.747 843.08 199.458 843.317C198.168 843.553 196.37 843.903 195.458 844.067C194.546 844.232 192.591 844.602 191.122 844.861C189.653 845.121 187.564 845.507 186.45 845.697C185.362 845.908 181.449 846.624 177.778 847.285C174.108 847.945 170.217 848.658 169.107 848.872C168.018 849.083 165.263 849.603 162.994 850.012C160.726 850.422 157.612 850.988 156.079 851.279L153.276 851.781L152.619 850.731C151.902 849.567 150.484 848.613 149.086 848.357C148.202 848.204 148.173 848.16 148.182 847.338C148.189 846.854 148.113 845.006 148.023 843.231C147.934 841.457 147.844 839.682 147.86 839.27C147.857 838.884 147.731 836.294 147.604 833.511C147.458 830.754 147.405 828.371 147.482 828.265C147.595 828.082 212.941 839.307 213.619 839.63C213.715 839.667 213.812 839.895 213.845 840.157C213.891 840.513 213.679 840.636 212.642 840.889ZM191.015 699.324C189.429 702.06 187.323 705.708 186.313 707.429C185.326 709.147 178.498 720.926 171.172 733.612C163.823 746.301 156.196 759.484 154.2 762.924C152.203 766.364 149.708 770.712 148.627 772.587L146.65 776.001L145.872 775.786C145.445 775.648 144.844 775.579 144.531 775.619C144.217 775.659 143.908 775.554 143.845 775.417C143.779 775.256 143.254 773.272 142.694 771.026C142.135 768.781 141.204 765.038 140.591 762.727C138.433 754.362 138.169 753.358 137.908 752.208C137.737 751.579 137.131 749.146 136.519 746.835C135.928 744.521 135.337 742.207 135.204 741.693C135.092 741.176 134.558 739.12 134.054 737.133C132.251 730.123 131.847 728.557 130.884 724.746C130.34 722.619 129.423 718.995 128.81 716.684C127.575 711.991 127.482 711.616 126.827 708.973C126.559 707.945 126.155 706.379 125.925 705.467C125.698 704.579 125.092 702.146 124.558 700.091C124.045 698.032 123.234 694.878 122.754 693.08C121.679 688.922 120.466 684.225 118.412 676.137C117.53 672.605 116.597 669.031 116.398 668.188C116.177 667.347 115.558 664.988 115.046 662.93C114.533 660.871 114.014 658.934 113.927 658.608C112.774 654.386 112.686 653.867 113.039 653.604C113.248 653.457 113.708 652.964 114.082 652.506L114.772 651.67L122.393 655.767C148.478 669.773 165.599 678.959 182.347 687.903C188.673 691.297 193.88 694.133 193.889 694.204C193.899 694.275 192.597 696.565 191.015 699.324ZM219.801 952.295C219.785 952.346 214.608 951.002 208.273 949.323C201.941 947.668 193.747 945.502 190.053 944.549C186.357 943.571 181.649 942.337 179.575 941.781C177.502 941.224 172.37 939.875 168.156 938.77C163.946 937.69 156.858 935.817 152.386 934.649L144.262 932.498L144.068 931.147C143.971 930.387 143.674 929.484 143.421 929.106L142.969 928.415L147.457 923.282C149.919 920.459 152.935 916.986 154.144 915.577C155.352 914.168 158.191 910.91 160.412 908.335C162.657 905.78 166.985 900.812 170.04 897.286C173.075 893.786 175.601 890.93 175.627 890.951C175.652 890.972 177.048 892.821 178.745 895.067C180.442 897.312 182.848 900.481 184.101 902.107C185.333 903.737 189.955 909.833 194.336 915.646C198.739 921.456 202.978 927.047 203.77 928.08C205.546 930.412 213.666 941.107 217.775 946.568L220.842 950.642L220.328 951.432C220.041 951.855 219.795 952.248 219.801 952.295ZM153.608 456.381C153.418 457.926 152.42 466.524 151.377 475.489C150.335 484.455 149.13 494.648 148.712 498.153C148.294 501.657 146.792 514.518 145.365 526.719L142.777 548.914L141.447 549.372C140.704 549.612 139.961 549.851 139.766 549.925C139.522 549.98 135.718 546.193 128.429 538.626C122.376 532.374 116.422 526.182 115.166 524.894L112.911 522.551L114.345 520.051C115.908 517.318 123.64 503.711 137.565 479.059C142.508 470.344 147.561 461.423 148.81 459.261C150.033 457.078 151.6 454.368 152.225 453.203C153.319 451.253 153.718 450.816 154.125 451.151C154.201 451.213 154.184 451.795 154.103 452.408C154.025 453.046 153.798 454.836 153.608 456.381ZM150.733 443.812C150.58 444.217 149.724 444.109 141.604 442.706C136.673 441.862 128.087 440.373 122.53 439.44C116.97 438.483 110.27 437.333 107.637 436.848C105.007 436.386 102.333 435.931 101.682 435.821C101.011 435.737 94.4743 434.615 87.143 433.328C79.7924 432.069 71.9533 430.726 69.7192 430.335C67.488 429.967 65.5733 429.584 65.4971 429.521C65.3954 429.438 65.4233 428.227 65.5389 426.813C65.6545 425.398 65.996 420.576 66.3127 416.096C66.889 407.937 67.0162 406.256 67.9473 393.202C68.2337 389.376 68.54 384.993 68.6405 383.46C68.9293 379.296 69.4191 372.066 69.8442 366.292C70.056 363.49 70.4992 356.966 70.8655 351.803C71.2318 346.64 71.5382 342.257 71.5587 342.061C71.5957 341.815 72.0804 341.512 72.8459 341.269L74.0695 340.872L74.6904 341.638C75.0196 342.079 79.987 348.565 85.7429 356.062C91.4764 363.561 97.7485 371.716 99.6576 374.2C101.567 376.684 107.025 383.808 111.799 390.029C116.574 396.251 122.165 403.527 124.21 406.187C126.256 408.846 128.766 412.123 129.776 413.442C130.789 414.785 132.395 416.849 133.322 418.058C135.288 420.632 141.124 428.214 147.319 436.306L151.708 441.998L151.319 442.699C151.093 443.066 150.84 443.581 150.733 443.812ZM149.708 454.706C148.517 456.788 142.759 466.958 136.888 477.311C131.016 487.664 125.724 497.026 125.112 498.118C124.095 499.961 121.46 504.64 114.676 516.582C113.265 519.079 112.007 521.169 111.898 521.208C111.77 521.272 109.031 518.532 105.777 515.133C102.526 511.758 99.1666 508.252 98.3007 507.349C97.4378 506.47 93.6091 502.492 89.8059 498.536C85.9803 494.583 81.9901 490.409 80.8924 489.294C67.5911 475.615 65.898 473.755 66.1855 473.333C66.5861 472.727 66.9583 471.183 66.8706 470.494C66.801 469.948 66.91 469.91 69.8395 469.151C71.4885 468.699 76.8163 467.297 81.6605 466.028C86.5048 464.759 97.711 461.812 106.541 459.504C115.391 457.17 123.847 454.959 125.365 454.548C126.885 454.162 128.515 453.737 128.999 453.603C131.089 453.047 140.823 450.504 145.071 449.384C147.626 448.72 149.916 448.115 150.175 448.009C150.566 447.863 150.792 448.027 151.459 448.98C152.079 449.915 152.211 450.236 152.046 450.547C151.936 450.754 150.877 452.626 149.708 454.706ZM149.786 446.563C149.395 446.709 147.436 447.224 145.431 447.745C142.063 448.632 125.661 452.942 113.177 456.222C110.27 456.978 103.05 458.887 97.1041 460.441C91.1808 461.992 82.3087 464.328 77.3973 465.606C72.4889 466.907 68.0416 468.076 67.4909 468.219C66.4985 468.466 66.4761 468.469 66.1046 467.696C65.7645 466.991 64.2559 465.687 63.183 465.124C62.8423 464.95 62.8429 464.419 63.1456 460.543C63.5095 455.718 63.8891 450.481 64.3571 443.616C64.7827 437.311 65.2568 431.386 65.3536 431.253C65.4341 431.17 87.825 434.931 97.8341 436.697C100.071 437.112 102.791 437.562 103.882 437.736C105.858 438.064 112.858 439.248 123.656 441.131C126.796 441.672 133.914 442.889 139.474 443.846C145.031 444.779 149.777 445.599 150.01 445.641C150.664 445.775 150.529 446.323 149.786 446.563ZM139.859 561.014C139.585 561.725 138.887 563.745 138.312 565.483C131.991 584.099 127.353 597.529 127.196 597.549C127.107 597.56 125.755 597.129 124.206 596.578C122.634 596.03 120.632 595.32 119.705 595.003C117.897 594.389 108.988 591.252 97.3116 587.116C93.2602 585.677 88.8548 584.139 87.5447 583.678L85.1634 582.847L84.7526 581.765C84.5396 581.165 84.2758 580.523 84.1814 580.318C84.0107 580.05 84.8864 579.6 89.2326 577.816C92.1301 576.626 98.3293 574.027 103.016 572.054C135.41 558.419 138.329 557.227 138.608 557.626C138.772 557.846 139.194 558.299 139.581 558.66C139.969 559.021 140.311 559.388 140.326 559.507C140.338 559.602 140.129 560.28 139.859 561.014ZM137.731 554.673C137.764 555.827 137.706 555.907 136.972 556.217C130.539 558.943 109.758 567.648 101.418 571.123C95.4754 573.594 88.9301 576.334 86.8592 577.225C84.7854 578.093 82.9875 578.805 82.8531 578.822C82.7188 578.839 82.3333 578.671 82.0374 578.491L81.4456 578.132L84.5496 572.669C86.2392 569.678 89.4921 563.954 91.7579 559.949C94.0461 555.941 99.5617 546.189 104.038 538.282C108.515 530.375 112.271 523.959 112.376 524.067C112.477 524.15 118.428 530.319 125.585 537.733L138.593 551.257L138.163 552.349C137.922 552.959 137.736 553.996 137.731 554.673ZM93.6982 247.919C93.0343 248.245 92.791 248.3 92.5369 248.091C91.7429 247.396 75.9468 230.921 75.9226 230.731C75.9044 230.589 80.6393 204.525 85.1201 180.038C85.3035 178.976 85.5558 178.1 85.6454 178.088C85.7573 178.074 87.7895 193.671 90.1992 212.768L94.5514 247.472L93.6982 247.919ZM80.5065 197.229C78.5841 207.683 76.4561 219.2 75.7842 222.857L74.5767 229.455L65.6439 220.239C60.7236 215.195 55.1976 209.503 53.3895 207.634C43.5338 197.426 19.448 172.498 17.3796 170.373C16.0695 169.019 12.7135 165.537 9.90938 162.636C7.10522 159.735 3.27962 155.782 1.39222 153.826C-8.35574 143.749 -13.0727 138.872 -13.2657 138.607C-13.3765 138.452 -13.3904 138.164 -13.2578 137.954C-13.0539 137.59 -12.4609 137.78 -0.791956 142.037C3.45673 143.596 5.57652 144.34 12.9235 147C14.5683 147.587 17.8355 148.763 20.1973 149.621C22.5592 150.478 25.7785 151.637 27.3531 152.209C28.9246 152.757 33.983 154.598 38.5633 156.259C43.169 157.941 47.8225 159.641 48.9414 160.029C50.0603 160.418 52.8972 161.432 55.2591 162.29C68.0469 166.936 71.1482 168.061 77.1088 170.198L80.612 171.441L80.6392 172.548C80.6585 174.307 81.358 175.69 82.7244 176.771C83.3822 177.291 83.928 177.824 83.9685 177.964C84.0091 178.104 82.4511 186.773 80.5065 197.229ZM168.603 896.721C165.761 899.955 162.368 903.862 161.059 905.38C159.751 906.899 156.973 910.1 154.888 912.489C152.823 914.852 149.149 919.061 146.749 921.828C144.373 924.616 142.283 926.958 142.163 927.094C141.852 927.327 140.459 926.756 140.411 926.376C140.396 926.257 140.877 921.997 141.508 916.945C142.116 911.896 142.778 906.551 142.929 905.059C143.437 900.65 144.522 891.486 145.315 885.207C145.7 881.972 146.563 874.815 147.206 869.327L148.387 859.306L149.383 859.083C149.914 858.967 150.532 858.816 150.753 858.764C151.06 858.676 153.036 861.152 159.653 869.866C164.332 876.051 169.033 882.234 170.074 883.622C171.138 885.007 172.591 886.946 173.329 887.913L174.642 889.653L174.216 890.238C173.961 890.56 171.441 893.463 168.603 896.721ZM89.8365 271.193C87.688 278.441 85.4191 285.995 84.8326 288C84.2238 290.008 83.4872 292.443 83.2215 293.394C82.5728 295.625 81.2988 299.914 77.4902 312.707C75.8228 318.374 73.9236 324.721 73.3045 326.827C72.6884 328.957 72.1207 330.574 72.0608 330.461C71.9664 330.256 71.9 324.376 71.8666 311.251C71.8437 308.213 71.8389 305.318 71.8486 304.858C71.8359 304.401 71.8252 301.458 71.7932 298.349C71.7836 295.237 71.7535 291.428 71.742 289.909C71.753 288.387 71.7488 286.746 71.7361 286.289C71.7234 285.833 71.7126 282.89 71.703 279.778C71.6935 276.666 71.6827 273.723 71.67 273.266C71.6797 272.806 71.6658 270.732 71.655 268.682C71.6442 266.632 71.614 263.716 71.625 262.194C71.6165 260.699 71.6353 259.417 71.6547 259.391C71.6965 259.361 72.2738 259.071 72.9631 258.766C74.4027 258.1 75.6082 256.667 75.8612 255.259C76.0283 254.248 75.8104 254.324 79.3651 254.185C80.7908 254.124 82.7375 254.045 83.6646 254C84.5917 253.954 85.7711 253.924 86.2698 253.909C86.7684 253.894 87.9926 253.859 88.9899 253.828C90.8217 253.74 91.1563 253.866 91.2683 254.745C91.3439 255.338 92.8192 257.274 93.3105 257.381C93.5018 257.453 93.6797 257.599 93.7009 257.765C93.719 257.908 91.9881 263.969 89.8365 271.193ZM81.0811 168.871C80.6926 168.68 79.1204 167.77 77.5677 166.833C76.0179 165.92 68.2631 161.309 60.3395 156.623C52.4158 151.937 42.9618 146.311 39.2929 144.124C35.6494 141.957 29.543 138.318 25.753 136.074C21.9631 133.83 17.263 131.05 15.2933 129.877C13.3235 128.704 6.67917 124.771 0.527962 121.139C-5.62625 117.482 -10.8703 114.361 -11.0991 114.173C-11.5027 113.862 -11.5015 113.693 -10.9646 111.477C-10.3746 108.964 -4.26297 84.776 -2.80619 79.0638L-1.93831 75.6952L-1.0336 75.6524C-0.534968 75.6371 0.278357 75.4129 0.769147 75.1573L1.6672 74.705L7.07639 81.0872C10.0742 84.615 13.7945 88.992 15.3472 90.8215C16.8969 92.6272 20.4333 96.8104 23.241 100.097C26.0264 103.386 29.3219 107.286 30.58 108.767C31.835 110.224 37.4282 116.8 42.9959 123.355C48.589 129.931 58.1657 141.165 64.269 148.351C70.3723 155.538 76.7956 163.094 78.5323 165.117C80.2497 167.167 81.7008 168.913 81.7159 169.032C81.728 169.127 81.4472 169.066 81.0811 168.871ZM91.2872 250.784C91.0166 251.519 90.8012 252.149 90.8072 252.197C90.7879 252.224 88.3903 252.336 85.491 252.44C82.5694 252.546 79.264 252.678 78.11 252.728L76.0319 252.848L75.7814 252.132C75.3778 250.928 74.5549 249.826 73.5086 249.115L72.5101 248.422L74.0039 240.678C74.8046 236.425 75.514 232.883 75.5527 232.83C75.6302 232.724 77.5654 234.697 85.1912 242.583C90.955 248.534 91.7163 249.33 91.7253 249.401C91.7314 249.449 91.5383 250.077 91.2872 250.784ZM72.0808 166.808C68.8838 165.647 65.3553 164.382 64.2334 163.97C63.1145 163.582 60.0131 162.456 57.3196 161.496C42.3104 156.023 36.656 153.968 27.3804 150.637C21.7514 148.602 14.0727 145.84 10.3275 144.483C0.548486 140.95 -5.55858 138.735 -9.27838 137.399L-12.5201 136.243L-12.5715 134.946C-12.6265 133.264 -13.3575 131.813 -14.673 130.773L-15.6612 129.982L-13.9006 122.904C-12.9171 119.014 -12.0789 115.77 -12.0044 115.64C-11.9494 115.536 -8.56908 117.422 -4.50862 119.825C10.8037 128.928 16.1464 132.109 24.7605 137.214C29.6355 140.117 35.3443 143.492 37.4351 144.722C39.5258 145.952 45.0628 149.229 49.7405 152.012C60.006 158.113 67.2676 162.425 73.4188 166.058C75.9549 167.569 78.0039 168.829 77.9622 168.858C77.9458 168.909 75.2808 167.993 72.0808 166.808ZM125.159 604.059C124.258 606.635 122.753 611.074 121.774 613.926C120.795 616.778 119.45 620.69 118.787 622.633C118.124 624.575 117.292 626.974 116.959 627.934C116.607 628.92 115.533 632.097 114.56 634.997C111.823 643.165 111.686 643.52 111.105 643.425C110.85 643.385 110.236 643.391 109.788 643.448L108.982 643.551L107.733 640.886C106.216 637.556 92.52 608.626 90.8541 605.194C90.1994 603.806 88.093 599.416 86.1948 595.41C82.9617 588.606 82.7608 588.101 83.1052 587.767C83.8743 587.018 84.5624 585.989 84.8493 585.204L85.1331 584.396L88.1104 585.44C90.8771 586.44 103.787 590.973 119.199 596.395C120.248 596.768 122.368 597.512 123.914 598.039C125.441 598.593 126.712 599.106 126.724 599.201C126.736 599.296 126.037 601.485 125.159 604.059ZM72.7156 239.852L71.2242 248.151L69.675 248.493C68.8139 248.699 68.1004 248.814 68.075 248.794C67.9988 248.731 12.9365 174.969 6.09987 165.776C3.35263 162.071 -1.09137 156.121 -3.77569 152.554C-6.4376 148.983 -8.88108 145.698 -9.18484 145.279L-9.73853 144.504L-9.17031 145.035C-8.85928 145.334 -6.40065 147.844 -3.72661 150.617C-1.05255 153.389 3.35035 157.945 6.04678 160.715C11.1795 165.998 28.6071 184.026 43.2336 199.177C47.976 204.076 54.2408 210.566 57.1497 213.574C60.0585 216.583 63.7032 220.366 65.2257 221.958C66.7482 223.55 69.3744 226.304 71.0748 228.043C72.7752 229.781 74.1737 231.292 74.1858 231.387C74.1979 231.482 73.5442 235.282 72.7156 239.852ZM103.658 536.013C99.6254 543.115 94.7573 551.7 92.8667 555.078C82.3238 573.773 79.9327 577.866 79.494 577.995C79.0552 578.123 79.0177 578.007 78.2542 573.084C77.8331 570.314 77.2341 566.505 76.925 564.614C76.6158 562.723 76.0453 558.958 75.6272 556.212C75.2122 553.489 74.6011 549.585 74.2992 547.572C73.9749 545.562 73.3893 541.679 72.9712 538.932C72.5562 536.21 71.9403 532.089 71.5827 529.818C70.8282 524.967 69.9032 518.954 68.9418 512.657C68.56 510.196 67.9804 506.36 67.6289 504.136C67.0179 500.232 66.4685 496.634 64.867 486.026C64.4429 483.232 63.8924 479.803 63.6467 478.41L63.1857 475.863L63.7824 475.545C64.1001 475.36 64.5297 475.161 64.7282 475.111C65.1028 475.015 67.4223 477.326 76.3224 486.642C78.9771 489.442 82.2823 492.882 103.513 514.866C107.678 519.163 111.052 522.787 111.042 522.885C111.009 522.986 107.688 528.887 103.658 536.013ZM144.411 793.252C144.521 796.086 144.677 799.276 144.721 800.332C144.787 801.386 144.838 802.682 144.86 803.21C144.883 804.462 145.077 809.023 145.171 811.014C145.235 811.875 145.324 813.818 145.38 815.332C145.436 816.845 145.541 818.738 145.573 819.53C145.75 823.418 145.827 825.99 145.747 826.073C145.669 826.179 106.232 819.353 100.587 818.262L98.0179 817.744L97.8637 816.533L97.7288 815.295L99.4765 814.011C100.456 813.307 110.135 806.403 121.008 798.695L140.746 784.669L141.298 785.25C141.609 785.548 142.325 785.988 142.921 786.202C144.209 786.665 144.1 786.172 144.411 793.252ZM141.954 776.285C141.13 776.607 140.017 778.052 139.647 779.258C139.376 780.161 139.356 780.719 139.58 781.945L139.844 783.48L128.89 791.271C108.464 805.795 97.2126 813.744 97.0335 813.767C96.717 813.783 94.4417 811.997 94.4024 811.689C94.3661 811.404 95.4963 800.448 104.698 712.274C107.988 680.94 110.673 655.04 110.701 654.723C110.729 654.405 110.881 654.169 111.047 654.22C111.35 654.278 112.188 657.285 114.68 667.2C115.451 670.215 116.675 675.006 117.399 677.834C118.124 680.662 120.474 689.823 122.606 698.167C124.741 706.535 126.576 713.614 126.663 713.941C126.75 714.268 127.064 715.483 127.347 716.629C127.61 717.802 128.241 720.256 128.729 722.124C129.604 725.416 131.907 734.39 135.273 747.597C137.166 754.958 137.054 754.61 137.94 757.996C138.326 759.419 139.156 762.717 139.834 765.357C140.489 768.001 141.294 771.108 141.599 772.252C142.47 775.52 142.515 776.045 141.954 776.285ZM146.193 833.328C146.18 833.402 146.204 834.485 146.294 835.729C146.362 836.975 146.434 838.438 146.434 838.969C146.456 839.497 146.544 841.803 146.656 844.105C146.767 846.408 146.827 848.307 146.807 848.334C146.766 848.363 146.329 848.684 145.802 849.017C145.279 849.373 144.72 849.806 144.517 850.001C144.173 850.334 144.567 850.574 115.104 831.303C108.749 827.141 97.9023 820.052 97.5108 819.836C97.4854 819.815 97.4896 819.67 97.5416 819.543C97.6488 819.312 101.342 819.903 129.154 824.783L145.863 827.699L146.054 830.45C146.155 831.958 146.229 833.251 146.193 833.328ZM145.951 867.87C145.411 872.38 144.833 877.135 144.677 878.41C144.3 881.523 141.637 903.848 140.98 909.41C140.698 911.835 140.129 916.662 139.73 920.14L138.963 926.44L138.022 926.56C137.485 926.628 136.703 926.921 136.283 927.192L135.531 927.722L134.858 927.083C134.493 926.72 127.163 919.906 118.544 911.906C109.926 903.905 102.847 897.277 102.784 897.14C102.706 896.885 102.584 896.997 121.783 879.275C128.851 872.776 136.929 865.279 139.779 862.647C144.911 857.915 144.972 857.859 145.477 858.253C145.776 858.456 146.244 858.735 146.531 858.843C146.817 858.951 147.03 859.19 147.006 859.361C146.957 859.513 146.492 863.361 145.951 867.87ZM70.2391 265.605C70.2583 268.257 70.2848 271.68 70.2739 273.202C70.2853 274.721 70.3125 277.614 70.3142 279.592C70.319 281.595 70.3492 284.511 70.3473 286.104C70.3454 287.697 70.3574 292.257 70.3863 296.236C70.4464 307.426 70.4952 316.204 70.5185 322.283C70.5221 325.348 70.551 328.433 70.5746 329.154L70.6096 330.501L69.504 330.932C68.8983 331.178 68.0601 331.743 67.619 332.209L66.8619 333.054L62.1999 330.752C59.6269 329.487 53.5574 326.495 48.6787 324.1C43.8001 321.704 39.6925 319.645 39.54 319.52C39.3112 319.332 40.0653 317.57 42.6204 312.442C47.6174 302.37 66.2052 264.839 67.7617 261.697C68.4819 260.205 69.1488 259.01 69.2414 259.022C69.334 259.035 69.5894 259.075 69.8447 259.115C70.1927 259.167 70.2586 259.327 70.2283 259.983C70.2156 260.419 70.2198 262.952 70.2391 265.605ZM66.3321 251.188C65.9242 251.915 65.5115 252.426 65.2815 252.407C65.077 252.409 63.8286 252.255 62.4906 252.111C61.1496 251.944 54.8779 251.295 48.536 250.631C42.1941 249.966 33.8437 249.075 29.9671 248.652C26.0906 248.229 16.8173 247.238 9.32259 246.455C1.84724 245.645 -9.15368 244.488 -15.1283 243.849C-21.0805 243.208 -26.8923 242.597 -28.0197 242.499C-29.1501 242.377 -30.1207 242.26 -30.1939 242.221C-30.2448 242.179 -29.7091 237.453 -28.9809 231.737C-28.2721 226.048 -26.9652 215.407 -26.05 208.123C-25.1571 200.842 -24.323 194.171 -24.1856 193.285C-24.0706 192.401 -23.2365 185.731 -22.3437 178.449C-19.9539 158.983 -17.6816 140.738 -17.6204 140.682C-17.6011 140.655 -16.9862 140.48 -16.2564 140.315L-14.9311 140.001L-7.24006 150.364C-3.01149 156.052 0.884867 161.276 1.42645 161.955C1.97107 162.658 10.856 174.534 21.1491 188.355C31.4646 202.173 45.9772 221.61 53.4092 231.548C60.8413 241.485 66.9373 249.687 66.9718 249.779C66.9839 249.874 66.7013 250.513 66.3321 251.188ZM65.0645 263.923C61.2058 271.678 53.5853 287.057 45.3905 303.643C41.5735 311.369 38.3146 317.938 38.1464 318.225C37.8159 318.846 38.4882 319.123 27.3114 313.548C25.7828 312.801 15.7805 307.873 5.09982 302.621C-5.58084 297.369 -17.0415 291.709 -20.3916 290.06C-23.7192 288.408 -27.4832 286.547 -28.7219 285.932C-30.1518 285.246 -30.947 284.72 -30.907 284.497C-30.861 284.322 -30.8156 283.786 -30.7835 283.323C-30.7769 282.84 -30.6909 282.443 -30.6013 282.431C-30.5342 282.423 -28.2927 281.799 -25.6349 281.05C-18.6447 279.122 -12.9739 277.555 -6.83581 275.905C-4.4854 275.243 -1.20668 274.367 0.416942 273.895C2.0436 273.446 4.9223 272.645 6.79222 272.141C8.65911 271.614 15.7836 269.669 22.62 267.784C38.4284 263.454 40.6251 262.836 43.8366 261.969C46.696 261.194 52.6997 259.561 57.7975 258.139C65.1368 256.094 66.0427 255.882 66.1341 256.064C66.1716 256.18 66.58 256.707 67.0109 257.231C67.4193 257.758 67.7963 258.217 67.8024 258.265C67.8308 258.309 66.5853 260.857 65.0645 263.923ZM132.655 867.271C126.668 872.788 117.2 881.524 111.599 886.678L101.462 896.054L100.875 895.549C100.437 895.147 82.4213 878.4 75.193 871.67C71.2918 868.016 49.492 847.818 47.8697 846.335C46.7871 845.338 40.4442 839.486 33.8065 833.284C27.1495 827.109 21.4958 821.844 21.2386 821.611C20.8513 821.25 20.8108 821.111 21.0341 820.72C21.2871 820.205 21.4529 820.257 40.4017 825.397C53.437 828.949 77.7316 835.508 82.698 836.806C85.8556 837.659 115.828 845.739 119.955 846.879C121.77 847.372 127.708 848.98 133.198 850.453L143.137 853.097L143.328 854.424C143.422 855.16 143.614 855.956 143.76 856.203C143.908 856.474 143.899 856.765 143.764 856.951C143.648 857.11 138.642 861.754 132.655 867.271ZM135.161 849.431C130.826 848.27 125.264 846.758 122.789 846.084C120.339 845.43 112.423 843.301 105.237 841.369C90.2968 837.335 80.237 834.634 72.9523 832.642C66.7998 830.964 46.6068 825.524 43.5 824.713C32.0078 821.663 22.5482 819.031 22.7407 818.934C22.869 818.87 24.429 818.791 26.2027 818.783C27.9764 818.774 29.8427 818.778 30.3413 818.762C30.843 818.771 33.2049 818.736 35.5668 818.7C37.9511 818.662 40.2458 818.635 40.6772 818.628C41.1341 818.643 43.0198 818.62 44.883 818.6C46.7656 818.553 49.2201 818.53 50.3324 818.509C51.47 818.509 52.7899 818.509 53.2885 818.494C53.7871 818.479 55.1294 818.477 56.2447 818.48C57.3793 818.456 62.5824 818.396 67.8302 818.331C73.078 818.266 77.8242 818.193 78.393 818.193C78.9619 818.193 79.8248 818.179 80.3265 818.188C81.282 818.187 82.4614 818.157 84.5292 818.135C87.8436 818.075 87.633 818.029 87.9138 818.983C88.8389 822.316 93.0561 823.806 95.7776 821.77L96.7543 821.043L103.631 825.549C107.403 828.012 117.855 834.862 126.838 840.717C135.824 846.595 143.129 851.433 143.091 851.486C143.074 851.536 139.498 850.616 135.161 849.431ZM65.5253 254.5C65.1895 254.543 38.6735 261.806 33.3131 263.309C32.9639 263.426 30.4344 264.11 27.7094 264.868C24.9813 265.601 21.6863 266.528 20.3447 266.892C19.0254 267.253 14.914 268.38 11.219 269.381C7.5239 270.383 3.87363 271.379 3.08269 271.6C0.4055 272.376 -3.39849 273.415 -16.7028 277.041C-24.0257 279.035 -30.2697 280.748 -30.5771 280.835C-31.0576 280.993 -31.207 280.891 -31.6427 280.15C-32.1099 279.341 -33.3135 278.288 -34.2309 277.874C-34.5909 277.726 -34.534 276.923 -33.7223 270.255C-33.2199 266.161 -32.2738 258.583 -31.6582 253.412C-31.0202 248.239 -30.4748 243.946 -30.4137 243.89C-30.3556 243.81 -29.1417 243.873 -27.6887 244.025C-26.2581 244.181 -22.755 244.531 -19.8938 244.843C-14.082 245.454 4.37187 247.423 12.6327 248.326C22.4136 249.373 39.8297 251.233 49.5344 252.217C52.3925 252.505 56.0167 252.912 57.6101 253.095C59.2034 253.278 61.4866 253.518 62.6872 253.655C63.8878 253.792 65.063 253.907 65.296 253.95C65.7172 254.041 65.906 254.452 65.5253 254.5ZM69.8624 346.428C69.2581 354.903 67.5623 378.746 67.2439 383.034C67.1603 383.986 66.7547 389.733 66.3242 395.822C65.6594 405.608 65.2538 411.355 64.6684 419.442C64.1011 427.672 63.9455 429.309 63.7633 429.308C63.5558 429.286 48.1585 426.662 20.872 421.98C14.0321 420.8 5.49408 419.329 1.91284 418.723L-4.6239 417.601L-5.0396 416.303C-5.29313 415.563 -5.5527 414.775 -5.65315 414.523C-5.81653 414.133 -4.02948 412.264 5.70403 402.578C12.045 396.268 22.9664 385.368 29.9706 378.37C36.9748 371.372 43.8374 364.513 45.2311 363.128C46.6248 361.744 52.3158 356.048 57.91 350.484L68.0623 340.334L68.8768 340.834C69.3221 341.115 69.8256 341.316 69.9824 341.296C70.1615 341.274 70.2305 341.458 70.1923 341.873C70.1645 342.19 69.9931 344.239 69.8624 346.428ZM106.874 678.089C104.312 702.814 93.1456 809.146 92.9452 810.788C92.8363 811.719 92.7975 811.772 91.9243 811.884L90.9839 812.003L86.9292 802.142C73.8252 770.362 63.5452 745.39 62.5558 742.982C61.9532 741.466 56.5448 728.302 50.5265 713.744C25.1324 652.107 23.4774 648.046 23.734 647.917C24.2472 647.659 25.4642 645.959 25.6452 645.236C25.8588 644.412 25.9453 644.377 27.5326 644.513C28.1299 644.558 31.8927 644.802 35.857 645.021C39.8243 645.264 46.7049 645.691 51.1097 645.975C55.5369 646.255 62.6922 646.695 67.0492 646.961C71.4033 647.203 76.3128 647.519 77.9419 647.625C79.5933 647.728 82.6917 647.937 84.8224 648.052C86.9785 648.187 90.7413 648.432 93.1946 648.578C95.6478 648.724 99.318 648.957 101.334 649.062L105.001 649.271L105.288 650.272C105.45 650.83 105.904 651.714 106.29 652.244C106.98 653.194 108.522 654.228 109.104 654.154C109.283 654.131 109.372 654.289 109.338 654.558C109.298 654.781 108.19 665.372 106.874 678.089ZM107.244 644.375C107.007 644.478 106.472 645.101 106.052 645.734C105.613 646.393 105.158 646.934 105.046 646.948C104.934 646.962 103.278 646.642 101.383 646.232C99.4876 645.822 93.8301 644.636 88.8044 643.587C83.8041 642.558 78.0062 641.342 75.9451 640.881C73.887 640.443 63.5294 638.263 52.9194 636.066C42.3095 633.87 33.5379 631.995 33.4393 631.935C33.3152 631.854 38.7375 626.192 45.4912 619.371C52.2195 612.529 61.9959 602.644 67.2143 597.345C74.9114 589.535 76.739 587.806 77.0573 587.983C78.1617 588.614 79.3641 588.944 80.3554 588.866C81.1196 588.793 81.5408 588.884 81.6606 589.11C81.752 589.291 83.7791 593.594 86.1777 598.671C88.5764 603.747 91.4754 609.894 92.6499 612.326C93.8244 614.759 97.1235 621.724 99.991 627.802C102.859 633.881 105.743 639.909 106.388 641.226C107.742 643.998 107.78 644.114 107.244 644.375ZM58.7875 347.549C54.2845 352.032 49.1569 357.15 47.3995 358.894C45.6197 360.641 41.4416 364.818 38.0715 368.191C34.7237 371.562 29.0714 377.205 25.5179 380.747C21.9643 384.289 16.4373 389.844 13.2058 393.055C9.99654 396.263 4.14155 402.101 0.227342 406.027C-3.68688 409.952 -6.94691 413.119 -7.02014 413.08C-7.12483 412.972 -6.09963 410.839 -0.415102 399.375C1.12207 396.259 7.27985 383.867 13.2307 371.814C19.1845 359.785 25.0833 347.86 26.3348 345.36C27.5833 342.836 29.1949 339.589 29.9211 338.145C31.5073 334.878 34.1696 329.519 36.6472 324.498L38.5342 320.734L40.378 321.633C41.3971 322.131 47.5906 325.204 54.1697 328.444L66.0921 334.335L66.1979 336.059C66.2518 337.017 66.449 338.03 66.6033 338.348C66.78 338.663 66.9404 339.029 66.9555 339.148C66.9736 339.29 63.2906 343.066 58.7875 347.549ZM134.166 930.044C133.934 930.725 133.806 931.682 133.866 932.157L133.975 933.012L129.373 934.757C126.832 935.708 120.449 938.114 115.197 940.11C97.2487 946.933 94.1437 948.101 86.0013 951.165C81.528 952.845 76.5996 954.704 75.0389 955.313C73.5006 955.919 69.4437 957.474 66.0342 958.753C62.6278 960.055 57.0265 962.169 53.556 963.504C50.1048 964.812 45.7404 966.454 43.8977 967.171C42.052 967.865 35.0183 970.523 28.2696 973.096C20.1527 976.181 15.9492 977.658 15.8191 977.529C15.7114 977.398 15.9765 976.978 16.3789 976.565C17.3539 975.645 40.4815 954.285 53.8835 941.959C59.6452 936.64 67.5239 929.361 71.3939 925.803C96.8829 902.26 101.322 898.171 101.482 898.175C101.616 898.158 134.553 928.619 134.574 928.785C134.574 928.785 134.397 929.362 134.166 930.044ZM94.3522 647.127C92.1513 646.998 88.0466 646.748 85.2037 646.579C78.2306 646.14 76.0968 646.002 70.0659 645.636C67.223 645.467 61.7639 645.124 57.9116 644.891C54.0592 644.658 47.661 644.266 43.6937 644.023C39.7294 643.804 35.6919 643.546 34.7527 643.497C33.8105 643.424 31.4916 643.261 29.5878 643.141C27.7064 643.019 26.1221 642.907 26.0743 642.889C26.0235 642.847 25.8855 642.478 25.7639 642.059C25.6646 641.638 25.4323 641.064 25.278 640.746C25.1237 640.428 25.059 640.098 25.1364 639.991C25.3331 639.749 31.1209 633.92 31.6099 633.471C31.8961 633.218 33.9675 633.581 41.8937 635.251C47.366 636.412 59.5711 638.984 69.0162 640.967C78.4612 642.949 88.9592 645.16 92.3256 645.865C95.6921 646.571 98.4358 647.211 98.397 647.264C98.3583 647.317 96.5277 647.237 94.3522 647.127ZM62.5015 450.127L61.4656 464.86L60.5016 465.151C59.9987 465.312 59.1872 465.729 58.7503 466.05C58.0628 466.548 57.845 466.624 57.5206 466.4C57.1007 466.14 27.5182 444.326 25.3282 442.674C24.6989 442.199 17.8675 437.157 10.1333 431.457C-7.03909 418.826 -5.34532 420.155 -5.03728 419.536C-4.77827 419.069 -4.24513 419.146 8.19964 421.277C15.3427 422.515 30.6504 425.151 42.2335 427.127C53.8165 429.102 63.4014 430.753 63.5418 430.784C63.8704 430.863 63.8546 431.275 62.5015 450.127ZM76.9081 578.951L76.1311 579.461L66.0757 571.257C60.5412 566.749 46.7527 555.497 35.4071 546.275C24.0615 537.053 14.8266 529.397 14.8817 529.293C14.947 529.092 22.8367 519.399 42.5943 495.162C46.373 490.53 51.5285 484.201 54.0078 481.159C56.5066 478.089 58.6344 475.501 58.7566 475.389C58.8819 475.301 59.3926 475.38 59.9155 475.555C60.419 475.757 61.0059 475.899 61.2298 475.87C61.4314 475.845 61.6643 475.888 61.7243 476.001C61.9112 476.218 62.6264 480.761 66.5577 506.445C66.9576 509.049 67.5312 512.837 67.8555 514.847C68.1798 516.857 68.7957 520.978 69.244 523.962C69.6953 526.969 70.2973 530.802 70.5569 532.483C70.8419 534.184 71.4275 538.067 71.8849 541.122C72.3423 544.177 72.9098 547.918 73.1675 549.406C73.4029 550.896 74.0684 555.228 74.6389 558.992C75.2125 562.781 75.9687 567.825 76.3668 570.236C76.7426 572.65 77.1921 575.464 77.373 576.527L77.6598 578.421L76.9081 578.951ZM75.0981 581.354C74.9952 581.44 74.8693 582.059 74.7973 582.744C74.6768 583.942 74.6575 583.968 73.8768 584.092C73.4066 584.152 72.6514 584.296 72.1648 584.407C71.2172 584.648 67.9457 585.402 56.5761 587.961C52.6197 588.875 48.9482 589.705 48.3975 589.847C47.5588 590.051 45.1484 590.599 38.3338 592.119C37.601 592.26 36.0101 592.632 34.7937 592.907C33.5773 593.183 31.9416 593.56 31.1446 593.734C30.3477 593.908 28.8239 594.271 27.7195 594.532C26.6375 594.791 24.9346 595.177 23.9585 595.374C22.9854 595.594 21.9003 595.829 21.5258 595.925C21.1766 596.042 19.6722 596.378 18.2126 596.709C16.7529 597.039 15.0694 597.399 14.4515 597.55C13.8561 597.698 11.0681 598.319 8.25783 598.942C5.46989 599.563 2.8163 600.166 2.39996 600.292C1.98059 600.393 0.94336 600.646 0.0791979 600.828C-1.78345 601.211 -8.37416 602.702 -9.76358 603.048C-10.3173 603.166 -11.3545 603.419 -12.0843 603.585C-12.8172 603.726 -15.1603 604.266 -17.2856 604.73C-19.4109 605.193 -21.9943 605.812 -23.0315 606.065C-24.0688 606.318 -25.5925 606.681 -26.4567 606.863C-28.473 607.289 -32.2758 608.159 -36.4114 609.097C-38.2232 609.52 -40.9664 610.135 -42.4932 610.475C-44.02 610.814 -45.614 611.162 -46.0303 611.287C-46.4497 611.389 -47.5989 611.656 -48.575 611.853L-50.345 612.247L-50.863 611.396C-51.4663 610.411 -51.706 610.852 -48.4174 606.837C-46.2479 604.22 -1.75449 549.633 1.15699 546.053C7.13185 538.655 13.6925 530.676 13.7821 530.664C14.0732 530.627 75.2028 580.568 75.2421 580.877C75.2663 581.067 75.201 581.269 75.0981 581.354ZM64.4639 598.082C58.4152 604.186 52.7944 609.897 51.9448 610.73C51.0758 611.588 46.2792 616.447 41.2636 621.551C36.2256 626.657 31.9313 630.993 31.6838 631.193C31.314 631.506 29.6832 631.207 18.764 628.905C11.8878 627.44 -6.34519 623.633 -21.7733 620.409C-37.179 617.183 -49.9039 614.459 -50.0056 614.376C-50.4631 614 -49.8053 613.626 -48.0546 613.258C-47.0143 613.029 -45.7756 612.751 -45.289 612.641C-44.8055 612.507 -43.2116 612.159 -41.7519 611.828C-40.2923 611.497 -36.9537 610.734 -34.3418 610.16C-31.733 609.562 -29.0795 608.959 -28.484 608.811C-27.8661 608.66 -25.6767 608.164 -23.6186 607.708C-21.5411 607.227 -19.3516 606.73 -18.7532 606.606C-18.1353 606.455 -13.7564 605.463 -9.02232 604.401C-4.26584 603.337 0.110015 602.321 0.708506 602.196C1.32637 602.045 6.74247 600.8 12.7601 599.455C18.7747 598.085 24.2162 596.861 24.8117 596.713C25.4296 596.562 28.7458 595.802 32.2218 595.045C35.6947 594.265 39.4781 593.421 40.6243 593.13C41.7735 592.863 44.4688 592.23 46.5941 591.766C48.7164 591.279 50.8162 590.794 51.2356 590.692C51.655 590.591 53.3131 590.211 54.8847 589.866C57.6532 589.272 63.6231 587.908 65.9438 587.371C67.9317 586.901 74.4583 585.442 74.7718 585.402C75.1076 585.359 75.7769 586.505 75.5608 586.773C75.5058 586.877 70.5095 591.954 64.4639 598.082ZM56.7859 469.027C56.6673 469.525 56.5922 470.186 56.6315 470.495C56.7071 471.089 57.1011 470.966 47.8931 473.346C46.5037 473.692 44.9188 474.111 44.3681 474.253C43.8174 474.396 41.749 474.949 39.7447 475.47C37.7405 475.99 35.7586 476.508 35.3422 476.634C34.9229 476.735 32.8962 477.259 30.8278 477.812C28.7788 478.339 23.8673 479.616 19.926 480.649C15.9816 481.658 9.90468 483.253 6.38268 484.184C2.88007 485.089 -2.38354 486.459 -5.28767 487.239C-8.19481 487.996 -13.5032 489.372 -17.07 490.309C-20.6398 491.222 -23.8319 492.063 -24.1587 492.177C-24.6422 492.311 -24.7887 492.233 -25.0404 491.686C-25.2231 491.323 -25.838 490.605 -26.4286 490.077L-27.4827 489.125L-26.3346 484.562C-25.6773 482.041 -24.5231 477.526 -23.7472 474.507C-22.2814 468.866 -20.154 460.558 -16.5892 446.565C-15.4871 442.177 -13.695 435.168 -12.6135 430.975L-10.6701 423.367L-9.12094 423.025C-8.07765 422.82 -7.29882 422.503 -6.78443 422.076C-6.12541 421.533 -5.92691 421.484 -5.60558 421.684C-5.3829 421.825 1.14345 426.617 8.85827 432.343C16.5955 438.067 24.1802 443.665 25.7348 444.794C36.3748 452.586 56.9796 467.868 56.9947 467.987C57.0068 468.082 56.9075 468.553 56.7859 469.027ZM54.4406 478.304C52.6481 480.487 50.346 483.314 49.3269 484.603C48.2824 485.87 41.5147 494.189 34.2733 503.076C27.0318 511.962 19.4163 521.307 17.3527 523.862L13.6157 528.465L8.92598 524.694C6.33964 522.61 -2.34337 515.535 -10.394 508.958C-23.598 498.187 -25.0242 496.993 -24.807 496.555C-24.6805 496.298 -24.4965 495.599 -24.4154 494.985C-24.3343 494.371 -24.2635 493.855 -24.2471 493.805C-24.189 493.725 -19.5687 492.485 -11.0457 490.265C-8.49078 489.602 -4.83446 488.654 -2.89737 488.141C-0.960272 487.629 5.58082 485.927 11.6384 484.359C17.696 482.791 26.6576 480.443 31.566 479.142C36.4775 477.865 40.8799 476.701 41.3665 476.591C41.85 476.457 43.8319 475.939 45.769 475.426C52.9666 473.52 56.9364 472.532 56.9903 472.597C57.285 472.946 57.694 473.835 57.6989 474.052C57.6977 474.221 56.2331 476.121 54.4406 478.304ZM30.9634 332.751C28.4857 337.773 24.6821 345.425 22.5482 349.752C20.4144 354.078 14.3728 366.311 9.1034 376.925C3.85944 387.56 -2.20757 399.772 -4.34145 404.099C-6.47535 408.425 -8.26548 412.056 -8.34295 412.162C-8.42042 412.269 -8.90998 412.355 -9.41467 412.323L-10.3508 412.297L-10.6879 410.723C-11.04 409.031 -11.4194 407.124 -12.1061 403.519C-12.3396 402.221 -12.5986 400.903 -12.6857 400.576C-12.7728 400.249 -13.0862 398.503 -13.4087 396.686C-13.7088 394.866 -14.0325 393.218 -14.1015 393.034C-14.1705 392.849 -14.4385 391.46 -14.7186 389.975C-14.9764 388.487 -15.4477 386.037 -15.7502 384.556C-16.417 381.286 -16.8702 378.979 -17.3687 376.315C-17.6791 374.593 -18.2829 371.46 -20.1096 361.943C-20.3008 360.977 -20.5748 359.54 -20.7418 358.765C-20.8864 357.987 -21.2011 356.41 -21.4195 355.231C-21.6349 354.076 -21.9301 352.473 -22.0971 351.698C-22.3621 350.332 -22.5969 349.203 -23.3919 345.105C-23.5922 344.069 -24.6643 338.51 -25.7637 332.737C-26.8854 326.967 -27.9019 321.666 -28.0598 320.963C-28.1953 320.256 -28.5039 318.726 -28.7223 317.548C-28.9377 316.392 -29.4091 313.943 -29.7539 312.128C-30.823 306.593 -31.0173 305.604 -31.4329 303.413C-31.6707 302.26 -31.9327 300.918 -32.0349 300.473C-32.1372 300.027 -32.4609 298.379 -32.7277 296.82C-32.9945 295.261 -33.3303 293.518 -33.4507 292.93C-34.3922 288.754 -34.4587 288.232 -33.9885 288.172C-33.7422 288.141 -33.0711 287.693 -32.5017 287.162L-31.485 286.212L-27.0397 288.421C-21.7695 291.032 -22.2282 290.825 -1.23299 301.135C7.84587 305.601 17.5807 310.395 20.3764 311.8C23.1915 313.18 27.9999 315.56 31.0571 317.053C34.1397 318.567 36.7635 319.873 36.9354 319.972C37.1581 320.113 36.9947 320.616 36.3592 321.88C35.889 322.833 33.4634 327.727 30.9634 332.751ZM-4.94427 81.7495C-5.78977 85.1152 -6.90823 89.5535 -7.44385 91.6007C-7.95407 93.6688 -9.22988 98.658 -10.24 102.696C-11.2501 106.735 -12.2336 110.625 -12.443 111.303C-12.627 112.002 -12.814 112.678 -12.8376 112.85C-12.8612 113.022 -13.5305 112.769 -14.4915 112.191C-15.3762 111.677 -21.3585 108.119 -27.7802 104.327C-34.2049 100.512 -40.6775 96.6785 -42.1794 95.7838C-43.659 94.8862 -50.1539 91.0557 -56.5786 87.2404C-71.2707 78.5412 -74.7931 76.4317 -74.8052 76.3367C-74.8113 76.2892 -74.7508 75.8713 -74.6709 75.4267L-74.502 74.6087L-71.9985 74.4347C-70.6206 74.3557 -68.8814 74.2548 -68.1334 74.232C-67.3855 74.2091 -63.9712 74.0397 -60.557 73.8703C-57.1427 73.7008 -53.6837 73.5257 -52.8686 73.4943C-51.4907 73.4153 -37.4978 72.6949 -33.5432 72.4808C-32.5489 72.4265 -31.3695 72.3969 -30.938 72.3903C-30.5066 72.3836 -29.0137 72.3141 -27.6611 72.2142C-26.2863 72.1115 -24.7262 72.0334 -24.1604 72.0096C-21.7791 71.9477 -7.53697 71.2196 -6.84285 71.1312C-6.43983 71.0798 -6.29037 71.1815 -6.23592 71.6089C-6.09857 72.5085 -5.14673 73.9077 -4.20211 74.5355C-3.72526 74.8851 -3.33497 75.2698 -3.36462 75.3942C-3.36885 75.5395 -4.09876 78.3838 -4.94427 81.7495ZM94.5198 902.465C91.4861 905.264 84.2156 911.958 78.3927 917.334C72.5668 922.685 64.3021 930.327 60.0042 934.277C55.7287 938.224 48.664 944.747 44.3274 948.751C39.9907 952.754 31.562 960.537 25.5975 966.051L14.7463 976.073L13.9959 975.541C13.5729 975.257 12.9932 974.993 12.6706 974.962C12.0002 974.878 12.0244 975.068 12.1667 971.72C12.203 970.219 12.3654 965.42 12.5089 961.009C12.8046 951.897 13.0911 942.714 13.4891 930.476C13.9997 915.014 14.388 903.235 14.7685 891.216C14.9847 884.697 15.287 875.101 15.4651 869.89C15.6238 864.705 15.8546 857.942 15.9407 854.867C16.0521 851.811 16.2284 846.407 16.3465 842.869C16.4646 839.33 16.6228 833.783 16.7294 830.512C16.839 827.264 16.9686 824.351 17.0249 824.079C17.0945 823.732 17.3644 823.529 17.8733 823.415C18.2703 823.317 18.8985 823.068 19.2295 822.808C19.8141 822.396 19.8843 822.411 20.418 822.85C20.726 823.125 26.9703 828.918 34.3257 835.752C41.6586 842.589 48.4965 848.934 49.5253 849.865C50.554 850.796 56.414 856.251 62.5791 861.958C68.7247 867.691 74.5818 873.124 75.6105 874.054C86.0175 883.589 100.232 896.934 100.164 897.112C100.112 897.239 97.5728 899.638 94.5198 902.465ZM-15.3651 123.018L-16.9968 129.501L-18.2446 129.708C-18.9357 129.82 -19.8519 130.13 -20.2725 130.401C-20.7185 130.65 -21.0809 130.841 -21.1064 130.821C-21.1348 130.776 -24.2542 127.722 -28.0242 124.027C-31.7941 120.332 -35.5386 116.658 -36.3192 115.889C-37.0998 115.119 -40.2163 112.089 -43.2056 109.164C-46.2173 106.241 -53.3384 99.2806 -59.0539 93.7098C-64.7469 88.136 -70.7195 82.3324 -72.2807 80.7936C-73.8613 79.2815 -74.8664 78.1787 -74.5033 78.3496C-73.7711 78.739 -23.2926 108.655 -16.1684 112.96L-13.2631 114.69L-13.487 115.611C-13.6281 116.112 -14.4542 119.451 -15.3651 123.018ZM-21.3233 158.771C-22.5097 168.213 -23.8638 179.198 -24.3813 183.173C-24.8765 187.146 -25.4467 191.78 -25.641 193.47C-26.8298 203.251 -31.6711 241.878 -31.7262 241.981C-31.8067 242.064 -57.8642 239.35 -73.7184 237.604C-76.7647 237.268 -82.8318 236.617 -87.2131 236.162C-91.5943 235.706 -98.7441 234.952 -103.125 234.496L-111.061 233.649L-111.352 232.793C-111.505 232.305 -111.845 231.601 -112.098 231.222C-112.521 230.577 -112.53 230.505 -112.176 230.074C-111.979 229.832 -108.992 226.845 -105.558 223.439C-102.101 220.03 -98.6442 216.621 -97.8811 215.824C-97.0926 215.048 -95.1579 213.088 -93.5391 211.506C-91.9233 209.901 -84.7938 202.815 -77.6837 195.755C-70.5736 188.695 -63.4441 181.609 -61.8283 180.003C-60.2095 178.421 -57.9498 176.155 -56.7782 174.992C-55.6066 173.829 -52.3363 170.565 -49.5102 167.743C-46.681 164.945 -39.2683 157.581 -33.0466 151.407C-26.8249 145.233 -21.5496 140.024 -21.3245 139.826C-20.9741 139.54 -20.7666 139.562 -19.9926 139.922C-19.2604 140.311 -19.1018 140.484 -19.1503 140.997C-19.1751 141.338 -20.1593 149.331 -21.3233 158.771ZM-22.3675 132.888C-22.5727 133.421 -22.7422 133.877 -22.7809 133.93C-22.8166 134.007 -24.3083 133.907 -45.0309 132.347C-51.9683 131.831 -62.2594 131.067 -67.8872 130.649C-73.5151 130.232 -80.1777 129.729 -82.7042 129.544C-85.2307 129.359 -88.2395 129.139 -89.3638 129.065C-90.5106 128.994 -91.5738 128.864 -91.7426 128.789C-91.9369 128.693 -91.7033 127.312 -90.9249 123.954C-90.3021 121.341 -87.7523 110.277 -85.2321 99.3369L-80.6438 79.4455L-79.5497 79.282C-78.9228 79.2022 -78.0392 78.9931 -77.5363 78.8325L-76.6395 78.5493L-58.8875 95.9089C-49.1165 105.452 -40.3041 114.08 -39.2917 115.061C-38.2793 116.042 -33.9696 120.223 -29.7361 124.342C-25.5027 128.46 -22.0214 131.854 -22.0183 131.878C-21.9929 131.899 -22.1624 132.355 -22.3675 132.888ZM-28.5931 144.927C-32.166 148.495 -40.953 157.217 -48.1242 164.333C-55.2985 171.425 -62.0643 178.151 -63.1717 179.281C-64.2822 180.388 -72.8247 188.885 -82.1588 198.135C-91.4899 207.408 -102.417 218.26 -106.434 222.272L-113.744 229.55L-114.445 229.229L-115.126 228.881L-112.399 217.07C-110.904 210.581 -108.028 198.148 -106.039 189.472C-104.027 180.793 -101.919 171.619 -101.332 169.083C-100.745 166.546 -98.5018 156.824 -96.3508 147.452C-94.1998 138.079 -92.4253 130.396 -92.4059 130.369C-92.3866 130.343 -89.9557 130.492 -86.9917 130.718C-84.0277 130.943 -77.8728 131.39 -73.3245 131.728C-68.7762 132.066 -63.4485 132.449 -61.4939 132.61C-59.5423 132.748 -55.7063 133.032 -52.9946 133.241C-50.286 133.427 -47.5967 133.64 -47.0219 133.687C-46.447 133.735 -43.7577 133.947 -41.0491 134.133C-38.3374 134.343 -33.1471 134.719 -29.5156 135.005L-22.9232 135.493L-22.6618 136.473C-22.5057 136.984 -22.2703 137.581 -22.1565 137.76C-22.0204 137.936 -21.9677 138.17 -22.0004 138.271C-22.0361 138.348 -24.9978 141.356 -28.5931 144.927ZM27.0379 635.984C25.4669 637.584 24.1343 638.912 24.0448 638.924C23.9776 638.932 23.4935 638.704 22.9585 638.435C20.9816 637.383 18.1773 638.054 16.7963 639.895L16.1572 640.773L8.4544 637.821C4.24445 636.209 -6.32975 632.15 -15.0141 628.815C-23.6984 625.481 -34.1546 621.455 -38.266 619.903C-42.3579 618.325 -45.7104 617.014 -45.6686 616.985C-45.6329 616.908 0.581214 626.563 17.2372 630.137C22.6393 631.284 27.7097 632.327 28.5237 632.465C29.3122 632.581 29.95 632.766 29.9397 632.864C29.907 632.964 28.6059 634.361 27.0379 635.984ZM6.48742 537.168C3.13779 541.239 -0.108956 545.224 -0.754066 546.055C-2.00858 547.638 -4.2108 550.356 -29.7781 581.68C-38.8091 592.774 -47.3498 603.25 -48.7654 604.999C-52.6185 609.761 -52.4381 609.569 -52.9791 609.252C-53.4947 608.956 -53.4977 608.932 -52.2467 603.391C-51.9429 602.025 -49.7011 591.579 -47.2607 580.191C-41.8541 554.934 -36.3525 529.351 -33.2585 515.056C-31.9796 509.198 -30.7395 503.393 -30.4877 502.154L-30.0404 499.949L-28.815 499.745C-28.0567 499.624 -27.2331 499.302 -26.6903 498.919L-25.8164 498.277L-6.67132 513.89C3.864 522.467 12.5022 529.548 12.5113 529.619C12.5234 529.714 9.81466 533.1 6.48742 537.168ZM-32.8042 251.024C-33.3157 255.047 -34.2588 262.649 -34.9325 267.899L-36.1262 277.463L-37.2275 277.748C-38.4155 278.069 -39.112 278.495 -39.7408 279.275C-40.1922 279.84 -37.1375 281.671 -83.3044 253.45C-111.507 236.215 -112.252 235.731 -110.944 235.275C-110.749 235.202 -102.912 235.989 -93.5466 236.993C-84.1777 238.02 -75.3674 238.949 -73.9847 239.086C-72.5795 239.221 -67.0201 239.816 -61.5786 240.378C-40.1934 242.674 -32.1208 243.528 -32.0088 243.514C-31.8297 243.491 -31.8182 243.224 -32.8042 251.024ZM-12.0701 412.734C-12.1984 412.798 -16.1673 407.005 -20.8521 399.879C-25.5624 392.732 -29.8744 386.21 -30.4402 385.341C-31.8186 383.272 -34.6355 379.021 -37.4898 374.654C-38.7636 372.693 -40.4833 370.088 -41.299 368.865C-42.1147 367.641 -43.7237 365.192 -44.9061 363.412C-46.0661 361.629 -49.3948 356.574 -52.3 352.166C-57.6613 344.016 -58.5878 342.638 -65.0522 332.794C-67.0788 329.746 -70.5812 324.4 -72.8891 320.929C-76.6384 315.252 -77.3258 313.964 -76.6541 313.879C-76.5421 313.864 -75.0195 312.778 -73.2718 311.493C-67.9065 307.527 -66.1811 306.246 -58.8339 300.869C-54.9403 298.032 -51.0109 295.119 -50.0953 294.447C-46.9207 292.039 -43.6564 289.621 -41.7387 288.242L-39.8179 286.887L-39.1123 287.425C-38.3305 288.025 -37.2981 288.449 -36.3274 288.566C-35.9825 288.595 -35.6866 288.774 -35.6654 288.941C-35.6291 289.226 -33.235 301.591 -32.6554 304.534C-32.4702 305.451 -31.8603 308.632 -31.3001 311.601C-30.7144 314.592 -30.1481 317.609 -29.9901 318.312C-29.8546 319.019 -29.5521 320.501 -29.3427 321.609C-28.8938 324.061 -27.7134 330.113 -27.3098 332.21C-27.1561 333.059 -26.8536 334.541 -26.6624 335.506C-26.4712 336.471 -26.1415 338.167 -25.9321 339.275C-25.7228 340.382 -25.3162 342.502 -25.0137 343.984C-24.7111 345.466 -24.2549 347.797 -24.0123 349.166C-23.7697 350.535 -23.4551 352.112 -23.3347 352.7C-23.2143 353.288 -22.8997 354.865 -22.657 356.234C-22.4144 357.602 -22.0998 359.179 -21.9794 359.767C-21.859 360.355 -21.5565 361.837 -21.332 363.064C-21.1075 364.29 -20.7899 365.891 -20.6543 366.597C-20.3518 368.079 -20.2629 368.599 -17.9589 380.614C-17.0132 385.537 -15.9532 391.001 -15.6174 392.744C-15.2816 394.487 -14.8163 396.89 -14.6009 398.045C-14.3825 399.224 -14.0951 400.587 -13.9838 401.104C-13.8724 401.62 -13.5487 403.268 -13.2686 404.753C-13.0109 406.241 -12.6043 408.361 -12.3725 409.466C-11.8292 412.124 -11.7911 412.601 -12.0701 412.734ZM-86.5144 98.559C-91.4821 120.116 -92.1552 123.049 -92.9498 126.457C-93.3989 128.469 -93.5193 128.774 -93.9375 128.706C-94.2153 128.669 -96.0773 128.52 -98.0961 128.391C-103.124 128.042 -106.433 127.788 -115.554 127.092C-125.229 126.345 -134.508 125.668 -137.836 125.441C-139.213 125.351 -140.522 125.252 -140.71 125.204C-141.103 125.157 -142.033 122.862 -141.775 122.564C-141.694 122.481 -138.799 120.206 -135.315 117.542C-131.832 114.878 -120.456 106.116 -110.035 98.0796C-99.6131 90.043 -89.3586 82.1242 -87.2442 80.5034L-83.4105 77.5535L-82.7049 78.0911C-82.3267 78.3808 -82.0126 78.7028 -82.0005 78.7978C-81.9914 78.869 -84.0208 87.7674 -86.5144 98.559ZM-84.6225 75.0049C-84.4827 75.5663 -84.3236 76.1011 -84.2504 76.14C-84.1457 76.2474 -85.5279 77.3646 -93.1565 83.2113C-95.9941 85.4069 -100.988 89.2528 -104.243 91.7429C-107.495 94.2568 -116.86 101.483 -125.067 107.79C-133.271 114.12 -140.627 119.787 -141.392 120.391C-142.176 121.022 -142.886 121.523 -142.953 121.531C-143.046 121.519 -143.361 121.366 -143.66 121.163L-144.207 120.798L-143.017 116.206C-142.337 113.682 -139.025 101.097 -135.632 88.2596C-132.238 75.4227 -128.168 60.0379 -126.601 54.1186C-125.038 48.1756 -123.702 43.2994 -123.612 43.288C-123.545 43.2794 -119.145 46.3872 -113.861 50.1789C-108.554 53.9678 -99.7634 60.2812 -94.3045 64.1954L-84.3658 71.3039L-84.6279 72.6405C-84.7907 73.5059 -84.7804 74.301 -84.6225 75.0049ZM-96.951 143.812C-98.6499 151.196 -100.454 159.004 -100.972 161.193C-102.386 167.238 -110.784 203.663 -111.801 208.185C-116.251 227.914 -116.448 228.687 -117.075 228.767C-117.635 228.839 -117.692 228.749 -118.009 227.511C-118.173 226.759 -118.683 224.894 -119.107 223.355C-120.748 217.434 -121.72 213.913 -124.604 203.421C-126.252 197.452 -128.529 189.223 -129.665 185.12C-132.011 176.707 -135.524 163.953 -137.1 158.193C-137.666 156.069 -138.829 151.945 -139.638 148.983C-140.467 146.048 -141.317 142.947 -141.538 142.106C-141.759 141.265 -142.51 138.586 -143.189 136.114C-143.89 133.645 -144.462 131.474 -144.487 131.284C-144.511 131.094 -144.247 130.843 -143.901 130.702C-143.074 130.404 -141.553 128.593 -141.316 127.597C-141.207 127.198 -140.981 126.831 -140.824 126.811C-140.421 126.76 -136.678 127.031 -99.5121 129.778C-94.6667 130.127 -93.8813 130.22 -93.8661 130.338C-93.8601 130.386 -95.2491 136.451 -96.951 143.812ZM-131.271 66.2252C-141.846 106.283 -145.528 120.073 -145.702 120.313C-145.815 120.496 -145.896 120.217 -145.898 119.493C-145.884 118.888 -145.972 116.582 -146.078 114.327C-146.18 112.096 -146.287 109.648 -146.31 108.927C-146.412 106.164 -146.45 105.155 -146.543 103.526C-146.628 101.968 -146.682 100.648 -146.761 98.2446C-146.783 97.7165 -146.819 96.5385 -146.87 95.6038C-146.918 94.6928 -146.957 93.4911 -146.979 92.9629C-147 92.4348 -147.037 91.2568 -147.087 90.3221C-147.135 89.4111 -147.187 88.1144 -147.227 87.4438C-147.241 86.794 -147.437 82.0405 -147.662 76.8804C-147.884 71.7441 -148.086 66.9431 -148.109 66.222C-148.152 64.9966 -148.337 61.0382 -148.469 58.0383C-148.645 54.5131 -148.799 50.623 -148.92 47.3562C-149.011 45.3889 -149.118 42.9408 -149.152 41.9558C-149.271 39.7747 -149.462 35.2378 -149.494 33.9145C-149.516 33.3863 -149.561 32.1371 -149.618 31.1549C-149.734 28.6357 -149.69 28.268 -149.242 28.211C-149.018 28.1825 -148.36 27.8091 -147.776 27.3967L-146.687 26.6547L-135.795 34.4622L-124.928 42.2489L-126.432 47.943C-127.263 51.0656 -129.448 59.2838 -131.271 66.2252Z" fill="url(#paint0_linear_202_59)"/>
<defs>
<linearGradient id="paint0_linear_202_59" x1="-125.474" y1="505.082" x2="403.204" y2="437.742" gradientUnits="userSpaceOnUse">
<stop stop-color="white"/>
<stop offset="1" stop-color="#460085"/>
</linearGradient>
</defs>
</svg>
