<svg width="1051" height="754" viewBox="0 0 1051 754" fill="none" xmlns="http://www.w3.org/2000/svg">
<g clip-path="url(#clip0_41_199)">
<path d="M-458.457 708.339C-454.824 710.072 -450.733 708.704 -449.019 705.227C-448.547 704.296 -452.175 703.745 -421.362 709.334C-413.058 710.823 -403.569 712.541 -400.28 713.156C-396.995 713.728 -386.321 715.674 -376.568 717.461C-366.794 719.226 -354.698 721.407 -349.66 722.302C-344.621 723.196 -338.616 724.289 -336.293 724.706C-333.99 725.145 -328.227 726.188 -323.473 727.036C-318.719 727.883 -310.742 729.328 -305.722 730.245C-291.02 732.89 -280.763 734.754 -263.539 737.867C-254.642 739.47 -243.817 741.428 -239.475 742.236C-235.138 743.002 -231.42 743.827 -231.186 744.027C-230.97 744.251 -230.686 744.298 -230.57 744.162C-230.434 744.003 -229.484 744.031 -228.498 744.207L-226.635 744.544L-227.53 743.739C-228.14 743.218 -228.32 742.907 -228.071 742.806C-226.902 742.197 -166.401 710.593 -154.79 704.512C-147.139 700.5 -139.095 696.313 -136.981 695.217C-134.868 694.121 -129.225 691.177 -124.446 688.672L-115.75 684.102L-114.578 685.104C-112.889 686.547 -111.419 687.059 -109.407 686.936C-108.188 686.84 -107.204 686.543 -106.171 685.857L-104.668 684.906L-101.72 686.916C-100.127 688.043 -98.6311 689.047 -98.3813 689.182C-98.1509 689.34 -97.1631 689.988 -96.1906 690.702C-94.6441 691.789 -93.2618 692.735 -89.0251 695.612C-88.4512 695.985 -80.618 701.348 -71.6288 707.542C-45.0832 725.765 -43.5174 726.829 -42.8303 727.26C-42.4633 727.495 -41.5417 728.126 -40.7803 728.659C-37.8515 730.693 -20.6855 742.465 -19.8578 743.016C-19.1003 743.507 -19.0219 743.652 -19.3524 744.704C-20.6362 748.863 -17.3858 753.368 -12.8752 753.694C-10.9238 753.832 -9.28308 753.195 -7.78596 751.728L-6.46324 750.466L6.47327 766.901C13.5816 775.96 21.696 786.311 24.5377 789.917C27.3794 793.524 32.014 799.448 34.9026 803.094C48.4579 820.372 50.5208 823.038 51.3505 824.061C51.8397 824.676 55.5896 829.451 59.6881 834.721C63.8059 839.967 69.2508 846.937 71.8225 850.195C74.394 853.453 78.5394 858.763 81.0406 861.96C83.5419 865.158 87.3897 870.056 89.6127 872.82C93.8987 878.25 96.6701 881.796 100.964 887.311C102.44 889.24 107.243 895.347 111.65 900.92C116.034 906.473 121.941 913.994 124.782 917.601C127.624 921.207 134.83 930.389 140.811 938.013C146.812 945.615 152.699 953.159 153.924 954.717C156.007 957.36 158.438 960.498 165.221 969.083L167.824 972.446L166.939 974.004C165.837 976.004 165.751 977.814 166.722 980.096C168.243 983.633 172.175 985.347 175.62 983.976C178.299 982.932 179.789 980.714 179.905 977.635L179.991 975.826L182.215 974.981C183.444 974.54 187.164 973.131 190.489 971.854C193.817 970.619 199.824 968.34 203.856 966.804C207.868 965.292 212.814 963.399 214.808 962.633C216.826 961.887 222.164 959.82 226.717 958.102C231.27 956.385 236.632 954.338 238.626 953.572C240.621 952.805 244.194 951.427 246.565 950.551C251.08 948.879 282.215 937.05 288.509 934.624C290.504 933.858 292.584 933.086 293.124 932.881C293.669 932.719 295.831 931.899 297.907 931.085C302.02 929.501 306.444 927.791 309.959 926.481C311.188 926.04 317.277 923.713 323.47 921.358C345.107 913.139 368.178 904.381 376.056 901.386C380.422 899.744 386.032 897.596 388.505 896.65L392.972 894.938L393.548 895.783C394.7 897.474 397.423 898.704 399.708 898.499L401.117 898.37L402.119 900.521C403.36 903.152 409.46 916.096 411.118 919.71C411.793 921.151 413.793 925.411 415.576 929.211C417.379 932.988 419.979 938.586 421.39 941.635C422.819 944.662 424.878 949.09 426.009 951.47C429.383 958.631 430.082 960.091 432.545 965.375C433.846 968.174 435.303 971.264 435.786 972.265C437.298 975.48 439.761 980.764 441.305 984.085L442.798 987.323L441.499 988.841C439.508 991.219 439.233 993.534 440.576 996.33C442.319 999.939 447.244 1001.44 450.533 999.35L451.571 998.707L485.754 1027.93L519.938 1057.16L519.488 1058.54C517.818 1063.39 521.443 1068.21 526.567 1067.96C529.311 1067.84 531.202 1066.44 532.666 1063.49C533.006 1062.76 530.423 1062.55 558.088 1065.84C569.327 1067.17 586.08 1069.18 595.293 1070.27C604.507 1071.36 615.092 1072.6 618.797 1073.06C622.503 1073.52 628.732 1074.26 632.628 1074.68C639.033 1075.45 644.238 1076.06 665.762 1078.65C669.463 1079.07 676.936 1079.96 682.402 1080.59C692.247 1081.75 692.356 1081.77 692.456 1082.6C693.085 1086.94 697.914 1089.7 702.019 1088.03C705.77 1086.49 707.237 1082.45 705.419 1078.74L704.775 1077.4L706.486 1075.68C707.451 1074.74 708.77 1073.44 709.398 1072.8C710.05 1072.18 711.365 1070.83 712.346 1069.83C713.327 1068.82 714.568 1067.61 715.099 1067.08C715.631 1066.55 716.911 1065.29 717.95 1064.22C718.97 1063.17 720.366 1061.78 720.994 1061.14C721.999 1060.15 730.468 1051.62 735.828 1046.16C736.751 1045.22 737.953 1044.05 738.484 1043.53C739.039 1043.02 742.204 1039.84 745.562 1036.43C748.901 1033.05 752.26 1029.64 753.004 1028.87C753.772 1028.11 755.188 1026.69 756.169 1025.69C757.15 1024.68 758.43 1023.42 759.019 1022.83C759.589 1022.26 761.594 1020.25 763.44 1018.37C768.016 1013.73 768.175 1013.59 768.808 1014.13C769.648 1014.81 771.808 1015.32 773.326 1015.21C775.163 1015.05 776.683 1014.27 777.845 1012.91L778.795 1011.8L789.162 1016.86C794.897 1019.65 801.128 1022.66 803.024 1023.57C804.921 1024.49 814.425 1029.08 824.133 1033.77C833.821 1038.49 846.216 1044.49 851.679 1047.12C857.121 1049.78 862.131 1052.18 862.787 1052.5C863.871 1053.04 864.066 1053.05 864.57 1052.46C864.899 1052.07 865.034 1051.68 864.893 1051.56C864.753 1051.44 857.772 1048.02 849.395 1043.96C833.141 1036.1 810.652 1025.19 805.454 1022.63C803.695 1021.79 798.728 1019.39 794.393 1017.29C778.728 1009.75 779.407 1010.09 779.462 1009.31C779.488 1008.9 779.584 1008.55 779.704 1008.46C780.279 1008.17 842.661 1000.38 842.919 1000.6C843.083 1000.74 844.154 1002.71 845.3 1005.03C846.443 1007.3 848.225 1010.86 849.281 1012.9C852.955 1020.05 865.261 1044.34 866.231 1046.38C866.793 1047.53 867.342 1048.55 867.459 1048.65C867.577 1048.75 867.961 1048.49 868.31 1048.08L868.93 1047.36L862.284 1034.34C848.589 1007.45 845.024 1000.32 845.16 1000.16C845.276 1000.02 848.207 999.587 855.784 998.651C857.232 998.476 862.977 997.738 868.55 997.01C874.123 996.283 878.782 995.675 878.868 995.67C878.953 995.665 879.259 996.162 879.534 996.789C879.86 997.499 880.588 998.357 881.662 999.236L883.28 1000.62L882.084 1006.15C881.426 1009.2 880.723 1012.44 880.552 1013.35C880.337 1014.27 878.95 1020.73 877.421 1027.74L874.645 1040.43L875.917 1039.09C877.363 1037.54 876.946 1039.26 881.81 1016.39C882.196 1014.56 883.125 1010.29 883.859 1006.92L885.212 1000.78L886.287 1000.76C890.239 1000.64 893.284 996.893 892.572 993.027C892.182 990.967 891.472 989.851 889.613 988.418C887.476 986.788 885.532 986.499 883.192 987.479L881.579 988.18L879.8 986.463C878.826 985.513 877.063 983.73 875.87 982.515C874.678 981.299 872.961 979.557 872.077 978.644C871.174 977.754 869.505 976.052 868.382 974.897C867.26 973.741 865.043 971.492 863.495 969.933C861.923 968.354 860.277 966.672 859.799 966.186C859.322 965.699 857.77 964.097 856.339 962.638C854.888 961.202 853.289 959.56 852.761 958.991C851.83 958.038 848.014 954.148 845.254 951.396C844.538 950.666 842.438 948.518 840.6 946.633C838.763 944.747 834.993 940.897 832.233 938.145C829.468 935.35 824.506 930.283 821.167 926.879C817.808 923.498 814.375 920.013 813.542 919.184C812.686 918.334 811.681 917.278 811.274 916.852C810.484 916.02 808.862 914.358 806.504 911.989C805.718 911.199 804.666 910.104 804.119 909.557C803.571 909.011 802.402 907.815 801.499 906.925C798.289 903.75 798.266 903.729 798.914 902.401C800.197 899.809 799.56 896.519 797.316 894.208C795.216 892.059 791.262 891.7 788.629 893.451C788.105 893.826 787.483 894.079 787.28 893.984C786.944 893.854 776.704 887.414 767.42 881.517C765.519 880.323 759.335 876.449 753.678 872.907C747.998 869.345 741.037 865.003 738.219 863.221C735.4 861.438 731.894 859.226 730.43 858.327C728.986 857.406 726.924 856.115 725.866 855.406C724.832 854.718 722.497 853.271 720.732 852.155C718.972 851.081 715.376 848.831 712.765 847.186C710.153 845.542 700.943 839.748 692.288 834.349L676.575 824.485L676.739 822.821C677.138 818.414 672.936 814.548 668.543 815.225C665.426 815.737 663.127 818.284 662.957 821.473L662.876 822.66L647.558 825.766C626.727 830.005 613.988 832.611 598.565 835.745C591.383 837.216 580.776 839.369 574.944 840.542C569.135 841.735 562.501 843.086 560.217 843.527C556.755 844.254 556.007 844.321 555.725 843.844C555.525 843.556 554.571 842.583 553.582 841.699L551.773 840.113L552.392 837.111C552.732 835.479 553.648 831.084 554.478 827.36C555.284 823.616 556.209 819.307 556.51 817.72C556.835 816.154 557.565 812.737 558.13 810.082C563.53 784.921 564.787 778.894 564.717 778.834C564.646 778.774 547.156 774.453 536.507 771.861C532.251 770.811 526.385 769.366 523.43 768.644C520.475 767.923 514.675 766.495 510.528 765.46C506.361 764.448 500.405 762.965 497.294 762.189C494.16 761.393 490.543 760.497 489.245 760.211C487.943 759.883 484.614 759.077 481.859 758.408C479.079 757.719 475.022 756.722 472.815 756.169C470.609 755.617 464.942 754.224 460.245 753.072C455.548 751.92 449.88 750.527 447.674 749.975C445.448 749.445 442.073 748.6 440.131 748.117C438.19 747.634 431.774 746.072 425.861 744.587C419.952 743.144 415.005 741.857 414.888 741.757C414.771 741.657 414.652 741.084 414.618 740.506C414.486 738.667 413.866 737.588 412.085 736.065C410.232 734.481 409.183 734.094 406.832 734.281L405.314 734.396L402.806 729.544C401.452 726.856 397.311 718.883 393.665 711.803C389.999 704.746 384.54 694.233 381.557 688.465C378.593 682.675 375.406 676.577 374.512 674.87C373.617 673.164 371.09 668.335 368.919 664.086L364.935 656.404L366.132 654.72C367.522 652.809 367.748 652.022 367.584 649.841C367.381 646.803 364.909 644.141 361.705 643.521C360.895 643.377 359.754 643.382 359.209 643.544C358.645 643.729 358.127 643.718 358.026 643.552C357.92 643.344 356.629 641.103 355.139 638.574C353.692 636.042 347.696 625.54 341.871 615.264C336.027 605.011 328.681 592.1 325.575 586.62C322.445 581.119 313.805 565.925 306.377 552.826C298.929 539.749 291.661 526.984 290.237 524.472C286.418 517.832 286.618 518.357 287.34 517.797C287.682 517.54 288.275 516.752 288.661 516.063C290.833 511.956 288.074 506.733 283.324 505.929C279.12 505.198 275.197 508.789 275.538 513.042L275.644 514.389L266.497 518.063C261.478 520.089 254.527 522.856 251.082 524.226C247.638 525.597 237.16 529.782 227.783 533.535C218.406 537.288 205.895 542.285 199.963 544.667L189.174 548.979L187.967 547.829C186.258 546.172 184.511 545.462 182.412 545.591C180.552 545.726 178.391 546.782 177.539 548.016C177.257 548.441 176.969 548.587 176.653 548.435C172.689 546.616 64.6549 496.112 12.5161 471.702C-10.5219 460.911 -29.5881 452.026 -29.8766 451.936C-30.212 451.806 -30.3423 451.342 -30.3034 450.394C-30.2869 449.663 -30.5649 448.326 -30.9267 447.468C-31.4454 446.318 -31.5135 445.828 -31.1678 445.614C-30.9466 445.45 -30.0736 444.666 -29.224 443.863C-28.4173 443.061 -25.5506 440.373 -22.9011 437.891C-20.2516 435.409 -14.8709 430.397 -10.9569 426.721C-7.01929 423.065 -2.98482 419.295 -1.9334 418.35C-0.90545 417.385 0.913997 415.684 2.12044 414.558C3.32689 413.432 4.6496 412.169 5.10748 411.776C5.52262 411.386 7.79577 409.249 10.1506 407.064C12.4819 404.859 14.7745 402.7 15.2712 402.261C15.7443 401.803 19.7635 398.099 24.1549 394.007C28.5462 389.915 32.2513 386.53 32.3604 386.545C32.4888 386.537 32.5358 386.577 32.4583 386.668C32.2063 386.963 35.0609 387.991 36.366 388.126C37.1021 388.167 38.4327 387.892 39.2801 387.518C45.2739 384.874 44.4532 376.483 38.0283 374.599C36.5 374.156 35.6435 374.208 32.9557 374.931C32.4928 375.045 31.7966 374.293 27.4024 369.085C20.2144 360.546 9.98993 348.392 -6.32684 329.027C-14.1447 319.754 -22.6395 309.706 -25.1673 306.682C-27.7186 303.637 -32.2575 298.266 -35.243 294.733C-38.2519 291.179 -43.3544 285.091 -46.6294 281.231C-49.8851 277.35 -55.9774 270.14 -60.1289 265.218C-64.2805 260.295 -70.1342 253.329 -73.1197 249.795C-76.1286 246.242 -81.2036 240.216 -84.4084 236.417C-91.9837 227.43 -92.8368 226.386 -92.853 226.216C-92.8806 226.153 -92.6143 225.557 -92.2664 224.912C-91.0689 222.562 -91.3383 219.507 -92.9702 217.523L-93.6786 216.643L-92.5006 215.218C-91.8611 214.47 -91.0554 213.433 -90.7341 212.962C-90.3893 212.511 -88.375 209.918 -86.221 207.208C-84.0863 204.522 -82.0291 201.926 -81.7078 201.455C-81.3865 200.984 -79.3488 198.411 -77.1946 195.701C-75.0365 193.035 -73.1773 190.623 -73.0691 190.401C-72.961 190.18 -71.0394 187.742 -68.8466 184.988C-66.6304 182.253 -64.4804 179.501 -64.0428 178.894C-63.6053 178.287 -61.901 176.057 -60.2079 173.934C-58.5149 171.811 -56.3415 169.079 -55.4041 167.84C-54.4668 166.602 -52.5453 164.164 -51.1817 162.427C-49.818 160.69 -47.7455 158.028 -46.5951 156.54L-44.5073 153.813L-43.3685 154.238C-41.8005 154.872 -39.1149 154.579 -37.6312 153.65C-35.2541 152.152 -34.1778 149.659 -34.6063 146.742C-35.1987 142.783 -39.1113 140.144 -43.0522 141.051C-44.2972 141.321 -44.6673 141.279 -45.1678 140.773C-45.6957 140.204 -45.7814 140.209 -46.3822 140.911C-46.886 141.501 -46.9278 141.74 -46.5527 142.06C-46.1776 142.381 -46.2194 142.62 -46.8201 143.322C-47.2077 143.776 -47.6412 144.425 -47.8034 144.757C-48.0003 145.177 -48.2726 145.259 -48.8924 145.082C-49.5591 144.865 -49.8702 144.991 -50.4128 145.626C-50.7809 146.056 -51.044 146.459 -50.9972 146.499C-50.9269 146.559 -50.3305 146.716 -49.6524 146.825L-48.4014 147.071L-48.1143 148.729C-47.867 150.196 -47.0894 151.802 -46.2688 152.503C-46.0578 152.684 -46.4291 153.308 -47.5489 154.665C-48.4209 155.685 -49.2267 156.723 -49.3583 156.924C-49.4664 157.145 -51.2288 159.444 -53.2666 162.018C-55.3044 164.591 -57.2647 167.074 -57.586 167.544C-57.9307 167.995 -59.9297 170.523 -62.0256 173.165C-64.1216 175.806 -66.2716 178.558 -66.8061 179.278C-67.3404 179.998 -69.2386 182.456 -71.0285 184.692C-72.8185 186.928 -74.8521 189.544 -75.5416 190.445C-76.2504 191.369 -78.2261 193.917 -79.9579 196.085C-81.7091 198.276 -83.549 200.665 -84.0835 201.385C-85.4002 203.163 -92.1062 211.671 -93.8889 213.756C-95.2994 215.454 -95.2994 215.454 -96.1966 215.079C-96.6921 214.851 -97.7208 214.678 -98.4804 214.617L-99.867 214.53L-101.123 211.063C-102.777 206.589 -102.656 206.732 -103.45 207.661C-104.07 208.387 -104.03 208.577 -102.865 211.771L-101.64 215.133L-102.502 215.808C-102.983 216.182 -103.469 216.512 -103.574 216.54C-103.698 216.59 -104.592 216.022 -105.607 215.311C-108.169 213.513 -108.372 213.418 -109.031 214.189C-109.399 214.62 -109.472 214.989 -109.272 215.278C-108.951 215.709 -108.97 215.732 -109.388 215.414C-109.712 215.176 -109.98 215.3 -110.465 215.866L-111.124 216.637L-108.405 217.824C-106.899 218.483 -105.545 219.131 -105.405 219.251C-105.264 219.371 -105.243 219.821 -105.307 220.276C-105.491 221.061 -105.744 221.119 -110.687 221.679C-115.61 222.217 -115.949 222.28 -116.743 223.21C-117.189 223.731 -117.51 224.202 -117.463 224.242C-117.393 224.302 -105.584 223.021 -105.354 222.942C-105.312 222.94 -105.025 223.459 -104.723 224.15C-104.443 224.82 -103.817 225.748 -103.344 226.192C-102.37 227.142 -101.989 226.173 -106.903 235.624C-108.816 239.285 -115.145 251.529 -120.983 262.82C-126.82 274.11 -133.238 286.553 -135.259 290.436C-141.704 302.816 -146.977 313.019 -151.447 321.713C-153.847 326.37 -159.681 337.703 -164.448 346.888C-169.193 356.092 -174.359 366.074 -175.885 369.046C-177.411 372.017 -178.783 374.571 -178.918 374.73C-179.035 374.866 -179.506 374.895 -179.927 374.77C-180.859 374.484 -180.754 375.358 -182.506 349.496C-183.132 340.212 -183.873 329.26 -184.182 325.112C-184.468 320.984 -184.93 314.547 -185.179 310.803L-185.631 304.022L-186.515 304.914C-187.341 305.737 -187.383 305.976 -187.218 308.157C-187.116 309.461 -186.171 323.451 -185.098 339.237C-184.045 355.046 -183.021 369.418 -182.893 371.214C-182.713 373.33 -182.751 374.514 -183.058 374.683C-183.408 374.854 -183.729 374.423 -184.934 371.941C-193.341 354.906 -206.391 328.684 -206.578 328.523C-206.672 328.443 -206.967 328.74 -207.269 329.188C-207.911 330.13 -208.701 328.395 -196.373 353.137C-191.929 362.037 -187.614 370.709 -186.786 372.398L-185.286 375.485L-186.395 376.734C-187.794 378.323 -188.401 380.315 -188.085 382.272C-187.965 383.081 -187.896 383.807 -187.954 383.875C-188.012 383.943 -196.129 388.263 -205.968 393.505C-215.829 398.726 -227.005 404.63 -230.816 406.667C-234.628 408.705 -240.08 411.616 -242.971 413.146C-245.885 414.656 -251.418 417.615 -255.292 419.678C-259.185 421.764 -265.993 425.359 -270.419 427.735L-278.497 432.01L-279.646 431.028C-280.298 430.509 -281.106 429.936 -281.465 429.786C-282.07 429.544 -282.037 428.983 -281.175 423.56C-280.647 420.285 -280.082 416.727 -279.922 415.687L-279.673 413.781L-281.611 416.048L-283.549 418.314L-284.053 423.651L-284.533 429.007L-285.86 429.324C-286.595 429.52 -287.629 429.97 -288.176 430.325L-289.128 430.964L-290.628 429.681L-292.152 428.378L-292.734 429.058C-293.296 429.715 -293.296 429.715 -291.783 431.126L-290.294 432.517L-290.74 433.704C-290.983 434.321 -291.174 435.256 -291.129 435.726L-291.067 436.603L-296.086 437.726C-301.047 438.781 -301.128 438.829 -302.007 440L-302.906 441.193L-300.167 440.553C-298.65 440.203 -297.253 439.945 -297.101 439.957C-296.945 440.012 -298.617 440.781 -300.856 441.691C-304.693 443.236 -305.019 443.428 -306.24 444.856L-307.534 446.417L-306.457 445.964C-305.855 445.734 -301.975 444.186 -297.827 442.515L-290.292 439.541L-288.916 440.874C-288.158 441.601 -287.528 442.336 -287.512 442.507C-287.499 442.635 -289.75 449.302 -292.521 457.291C-295.293 465.279 -297.883 472.676 -298.253 473.772C-299.48 477.392 -315.868 524.898 -322.234 543.309C-325.698 553.294 -334.981 580.196 -342.901 603.084C-353.289 633.083 -357.397 644.675 -357.74 644.696C-358.082 644.717 -358.227 644.554 -358.268 644.127C-358.277 643.805 -358.939 629.39 -359.726 612.083C-360.532 594.798 -361.517 572.928 -361.964 563.482C-362.388 554.057 -363.103 539.087 -363.521 530.177C-363.934 521.31 -364.265 513.769 -364.297 513.427C-364.346 512.915 -364.471 512.965 -365.246 513.872L-366.137 514.915L-365 539.976C-363.757 566.814 -362.879 585.534 -361.174 621.751C-360.601 634.325 -360.201 644.632 -360.325 644.683C-360.407 644.73 -361.029 644.983 -361.69 645.282C-362.743 645.754 -362.895 645.742 -363.459 645.025C-363.823 644.596 -365.243 643.029 -366.616 641.502C-367.989 639.975 -372.014 635.474 -375.534 631.523C-383.883 622.11 -391.835 613.232 -402.057 601.785C-413.894 588.527 -420.427 581.215 -421.061 580.438C-421.569 579.846 -421.655 579.851 -422.236 580.531L-422.876 581.279L-420.13 584.333C-418.612 586.023 -414.469 590.624 -410.925 594.595C-403.884 602.499 -397.422 609.75 -383.679 625.148C-378.735 630.709 -373.141 636.982 -371.259 639.101C-369.378 641.22 -367.058 643.87 -366.048 644.968C-364.531 646.658 -364.276 647.072 -364.567 647.412C-364.741 647.616 -364.961 648.016 -365.065 648.28C-365.185 648.61 -365.769 648.581 -367.278 648.115C-368.404 647.819 -371.73 646.82 -374.697 645.97C-381.009 644.144 -378.993 644.729 -403.391 637.523C-414.093 634.376 -424.085 631.444 -425.594 630.978C-427.122 630.534 -429.162 629.929 -430.136 629.645C-431.111 629.361 -435.497 628.082 -439.883 626.804C-444.249 625.503 -449.965 623.834 -452.581 623.049C-457.283 621.619 -457.349 621.601 -457.989 622.349C-458.318 622.734 -458.562 623.114 -458.491 623.175C-458.421 623.235 -454.386 624.448 -449.532 625.891C-444.659 627.311 -435.972 629.873 -430.187 631.602C-424.382 633.309 -417.555 635.34 -414.943 636.082C-394.385 642.084 -367.457 650.081 -367.445 650.209C-367.428 650.38 -374.65 654.602 -388.966 662.803C-393.947 665.685 -401.46 670.011 -405.663 672.459C-409.89 674.887 -421.525 681.614 -431.549 687.404L-449.804 697.886L-451.327 696.819C-452.206 696.186 -453.399 695.636 -454.124 695.487L-455.418 695.244L-457.449 680.247C-458.601 672.004 -459.672 664.144 -459.865 662.803C-460.057 661.461 -461.152 653.581 -462.303 645.339C-463.435 637.074 -464.428 630.261 -464.499 630.201C-464.569 630.141 -464.945 630.486 -465.352 630.962C-466.069 631.801 -466.06 632.122 -464.279 644.944C-463.292 652.144 -462.353 658.831 -462.217 659.81C-457.149 695.608 -457.118 695.713 -458.624 695.956C-458.709 695.961 -465.077 687.222 -472.772 676.523C-480.491 665.805 -486.889 656.96 -487.03 656.84C-487.171 656.72 -487.54 656.914 -487.85 657.277C-488.354 657.866 -488.318 658.014 -487.268 659.539C-485.502 662.03 -460.411 696.86 -460.294 696.96C-460.224 697.02 -460.526 697.468 -460.952 697.967C-463.103 700.483 -462.721 704.498 -460.082 707.107C-459.605 707.593 -458.862 708.149 -458.457 708.339ZM-448.501 701.393C-448.6 700.798 -448.771 700.143 -448.872 699.977C-449.049 699.709 -445.968 697.909 -425.635 686.183C-423.451 684.911 -409.384 676.811 -394.4 668.161C-379.416 659.512 -366.817 652.275 -366.448 652.081L-365.772 651.718L-365.663 652.634C-365.366 654.85 -363.187 657.38 -360.87 658.184C-358.936 658.817 -356.788 658.535 -355.04 657.44C-353.941 656.771 -353.358 656.564 -353.1 656.784C-352.865 656.985 -347.249 661.002 -340.599 665.707C-326.368 675.833 -323.271 678.05 -321.095 679.635C-320.193 680.288 -319.112 681.017 -318.674 681.312C-318.26 681.588 -317.155 682.336 -316.253 682.99C-315.351 683.644 -312.809 685.464 -310.59 687.047C-308.372 688.629 -304.631 691.279 -302.272 692.982C-299.917 694.642 -297.582 696.325 -297.078 696.638C-296.067 697.306 -294.633 698.335 -290.029 701.684C-288.295 702.931 -286.588 704.115 -286.221 704.35C-285.854 704.586 -284.839 705.297 -283.937 705.95C-276.794 711.076 -273.631 713.31 -272.615 714.021C-271.971 714.454 -270.096 715.822 -268.433 717.009C-266.769 718.196 -264.391 719.876 -263.121 720.765C-260.306 722.74 -258.576 723.945 -256.307 725.61C-255.358 726.304 -254.088 727.193 -253.534 727.588C-252.96 727.961 -251.203 729.229 -249.609 730.355C-248.016 731.482 -246.075 732.867 -245.313 733.4C-240.881 736.523 -234.476 741.136 -234.515 741.181C-234.534 741.204 -238.454 740.52 -243.255 739.632C-248.033 738.765 -260.394 736.514 -270.736 734.656C-281.078 732.797 -293.264 730.578 -297.8 729.76C-302.336 728.943 -312.943 727.014 -321.357 725.51C-329.77 724.006 -344.718 721.269 -354.558 719.487C-364.421 717.685 -376.583 715.486 -381.603 714.569C-394.747 712.237 -403.335 710.701 -422.071 707.315C-431.167 705.66 -440.722 703.925 -443.329 703.461C-445.936 702.998 -448.149 702.596 -448.196 702.556C-448.262 702.539 -448.377 702.009 -448.501 701.393ZM-352.23 654.154C-352.033 653.734 -351.719 653.414 -351.548 653.403C-351.377 653.393 -347.325 653.875 -342.556 654.421C-332.996 655.533 -327.705 656.133 -310.396 658.102C-303.996 658.827 -296.613 659.686 -293.956 659.996C-291.342 660.308 -283.589 661.208 -276.775 661.973C-269.962 662.737 -259.381 663.937 -253.284 664.638C-247.187 665.339 -241.175 666.045 -239.937 666.162C-238.674 666.3 -237.556 666.511 -237.415 666.631C-237.275 666.751 -235.871 683.527 -234.316 703.923L-231.432 740.992L-233.189 739.725C-234.157 739.054 -235.704 737.967 -236.583 737.334C-241.757 733.655 -254.598 724.561 -255.965 723.549C-257.398 722.519 -260.19 720.564 -263.814 718.015C-264.439 717.559 -265.638 716.73 -266.47 716.137C-269.938 713.642 -279.135 707.074 -280.216 706.346C-280.841 705.89 -282.759 704.525 -284.493 703.278C-286.227 702.031 -289.23 699.895 -291.19 698.533C-293.151 697.171 -295.482 695.53 -296.384 694.877C-297.286 694.223 -301.699 691.078 -306.226 687.875C-310.732 684.65 -315.606 681.189 -317.063 680.14C-319.558 678.359 -326.326 673.554 -329.072 671.639C-332.879 668.972 -341.221 663.017 -342.955 661.77C-344.064 660.978 -346.329 659.356 -348.012 658.192C-352.694 654.934 -352.647 654.974 -352.23 654.154ZM-351.308 651.176C-350.721 651.011 -341.663 649.104 -322.132 645.009C-313.199 643.152 -302.324 640.875 -297.974 639.965C-258.935 631.755 -252.169 630.438 -251.929 630.918C-251.796 631.189 -251.119 631.964 -250.45 632.653C-249.117 633.989 -247.533 634.794 -245.901 634.974C-244.506 635.146 -242.173 634.316 -240.9 633.207L-239.844 632.305L-238.591 648.402L-237.342 664.457L-238.62 664.385C-239.337 664.321 -243.513 663.89 -247.892 663.363C-252.29 662.859 -261.457 661.809 -268.271 661.044C-286.932 658.9 -292.179 658.297 -299.866 657.415C-303.742 656.964 -316.891 655.492 -329.104 654.113C-341.317 652.734 -351.404 651.526 -351.498 651.445C-351.634 651.368 -351.518 651.232 -351.308 651.176ZM-352.244 648.806C-352.062 648.688 -330.058 635.055 -303.334 618.512C-276.634 601.95 -254.707 588.408 -254.664 588.405C-254.345 588.364 -247.911 621.328 -248.198 621.475C-250.836 622.946 -252.235 624.772 -252.478 627.193L-252.628 628.555L-277.229 633.69C-290.765 636.516 -307.511 640.011 -314.436 641.466C-321.342 642.898 -332.66 645.266 -339.585 646.721C-350.631 649.008 -353.577 649.511 -352.244 648.806ZM-352.531 636.752C-350.841 631.88 -346.465 619.262 -342.82 608.685C-339.176 598.109 -332.475 578.69 -327.914 565.523C-323.373 552.379 -316.992 533.902 -313.732 524.488C-310.472 515.074 -305.368 500.37 -302.393 491.811C-299.417 483.252 -296.72 475.397 -296.385 474.388C-296.074 473.36 -293.491 465.877 -290.689 457.758L-285.551 442.967L-284.686 443C-284.188 443.034 -283.763 443.201 -283.7 443.412C-283.66 443.603 -282.69 448.355 -281.554 453.956C-274.317 489.921 -272.028 501.294 -271.002 506.408C-269.574 513.709 -269.313 514.875 -261.643 552.897C-258.142 570.21 -255.22 584.831 -255.148 585.363L-255.031 586.366L-259.405 589.06C-274.087 598.164 -352.91 647.021 -353.154 647.165C-353.317 647.261 -353.93 646.933 -354.516 646.432L-355.567 645.573L-352.531 636.752ZM-232.346 704.705C-233.661 687.73 -234.834 672.251 -235.002 670.264L-235.301 666.673L-218.077 668.648C-208.583 669.742 -193.841 671.439 -185.305 672.42C-168.234 674.383 -154.123 676.011 -131.894 678.538C-117.939 680.112 -117.304 680.223 -116.974 680.976C-116.824 681.418 -116.728 681.971 -116.793 682.19C-116.951 682.564 -119.939 684.208 -131.434 690.152C-134.348 691.662 -141.265 695.243 -146.759 698.157C-152.277 701.051 -159.089 704.604 -161.859 706.04C-164.63 707.477 -173.575 712.149 -181.696 716.426C-189.84 720.683 -203.565 727.86 -212.16 732.36C-220.798 736.862 -228.204 740.73 -228.655 740.973L-229.494 741.432L-229.732 738.483C-229.887 736.86 -231.055 721.659 -232.346 704.705ZM-237.269 641.255C-237.655 636.295 -237.917 632.187 -237.859 632.119C-237.782 632.028 -185.415 652.043 -172.709 657.022C-171.141 657.656 -166.804 659.324 -163.095 660.73C-159.386 662.135 -154.916 663.838 -153.15 664.524C-146.597 667.066 -136.246 671.051 -127.374 674.438C-122.323 676.363 -118.204 678.001 -118.177 678.064C-118.192 678.13 -124.936 677.425 -133.234 676.451C-141.509 675.497 -153.527 674.127 -159.928 673.402C-174.689 671.728 -201.753 668.637 -215.229 667.121C-220.913 666.459 -227.793 665.677 -230.516 665.35L-235.417 664.769L-236 657.523C-236.316 653.526 -236.883 646.214 -237.269 641.255ZM-238.695 627.638L-238.882 625.673L-228.966 620.577C-223.506 617.751 -215.746 613.754 -211.72 611.703C-207.694 609.652 -194.144 602.68 -181.6 596.22L-158.771 584.47L-158.084 585.803C-157.692 586.53 -154.688 592.511 -151.41 599.12C-148.132 605.728 -143.048 615.921 -140.142 621.779C-137.237 627.637 -134.414 633.306 -133.899 634.413C-133.365 635.497 -132.011 638.185 -130.896 640.394C-129.781 642.603 -126.833 648.458 -124.379 653.42C-118.168 665.949 -116.036 670.243 -114.953 672.347L-114.03 674.116L-115.229 675.328C-115.876 675.99 -116.474 676.499 -116.536 676.525C-116.664 676.533 -127.682 672.331 -134.125 669.804C-136.384 668.933 -140.72 667.265 -143.739 666.096C-160.544 659.693 -167.116 657.174 -170.806 655.746C-173.044 654.852 -189.093 648.703 -206.413 642.094C-223.738 635.443 -238.067 629.941 -238.207 629.82C-238.391 629.703 -238.593 628.706 -238.695 627.638ZM-248.718 607.652C-250.161 600.416 -251.694 592.906 -252.096 590.954C-252.454 589 -252.702 587.297 -252.606 587.184C-252.412 586.957 -233.321 575.07 -230.955 573.68C-230.116 573.22 -219.582 566.69 -207.525 559.186C-195.469 551.683 -185.459 545.528 -185.268 545.495C-184.439 545.38 -183.983 544.751 -194.274 558.354C-197.581 562.745 -200.87 567.113 -201.536 568.035C-202.244 568.959 -203.639 570.827 -204.692 572.202C-205.746 573.576 -207.125 575.379 -207.752 576.255C-209.088 578.055 -211.017 580.643 -213.581 584.022C-215.82 586.973 -226.912 601.657 -228.977 604.404C-231.785 608.162 -236.413 614.288 -238.156 616.564C-239.093 617.803 -240.371 619.535 -241.022 620.391L-242.141 621.985L-243.888 621.512C-244.839 621.248 -245.747 620.981 -245.841 620.901C-245.977 620.823 -247.256 614.866 -248.718 607.652ZM-240.505 623.109C-240.416 622.91 -238.933 620.843 -237.19 618.567C-235.47 616.271 -232.717 612.623 -231.094 610.44C-229.448 608.277 -227.48 605.644 -226.698 604.586C-225.892 603.549 -224.44 601.613 -223.444 600.306C-222.449 598.999 -221.132 597.222 -220.482 596.366C-219.831 595.51 -218.34 593.528 -217.131 591.972C-215.946 590.396 -214.78 588.843 -214.556 588.485C-214.331 588.128 -212.991 586.37 -211.593 584.545C-210.171 582.74 -208.757 580.849 -208.436 580.378C-208.115 579.907 -206.624 577.926 -205.086 575.985C-203.59 574.046 -202.231 572.266 -202.123 572.044C-201.991 571.843 -200.849 570.269 -199.524 568.577C-198.219 566.908 -196.63 564.813 -196.003 563.937C-194.632 562.049 -192.909 559.796 -188.354 553.803C-186.479 551.326 -184.546 548.78 -184.113 548.131L-183.277 546.963L-181.81 547.431C-180.988 547.703 -179.597 547.833 -178.702 547.735L-177.102 547.573L-172.312 557.16C-166.129 569.627 -162.827 576.255 -161.021 579.839C-160.201 581.443 -159.681 582.829 -159.825 582.902C-173.624 589.976 -206.024 606.608 -209.84 608.602C-212.754 610.112 -220.495 614.087 -227.023 617.451C-233.575 620.795 -239.136 623.691 -239.423 623.838C-239.975 624.151 -240.713 623.637 -240.505 623.109ZM165.263 966.138C163.181 963.494 159.161 958.37 156.319 954.764C153.478 951.157 148.675 945.05 145.633 941.155C142.572 937.283 135.194 927.875 129.213 920.251C123.212 912.649 114.628 901.661 110.091 895.86C105.555 890.059 99.5462 882.372 96.7045 878.765C93.8628 875.159 86.8563 866.265 81.1454 858.99C75.4345 851.714 68.1579 842.472 64.9992 838.477C59.0416 830.872 56.2743 827.369 52.4225 822.428C51.1739 820.85 46.2967 814.64 41.5918 808.656C36.8869 802.672 31.2697 795.477 29.066 792.69C26.8818 789.881 18.7949 779.593 11.1229 769.817L-2.86652 752.05L-1.1538 752.848C-0.20977 753.262 5.50637 756.07 11.562 759.05C17.6176 762.031 25.6398 765.986 29.4128 767.839C33.1859 769.691 43.1511 774.602 51.5556 778.727C59.9407 782.875 68.0291 786.848 69.5196 787.573C70.9672 788.3 76.5702 791.05 81.9469 793.686C87.2807 796.323 93.789 799.534 96.407 800.791C102.326 803.694 121.983 813.36 134.957 819.783C140.381 822.458 146.21 825.323 147.946 826.141L151.06 827.625L151.228 828.947C151.405 830.354 154.293 850.948 155.885 862.235C156.43 866.153 160.087 892.113 163.985 919.927C167.883 947.741 171.087 970.528 171.115 970.591C171.182 970.845 169.533 971.396 169.299 971.196C169.158 971.076 167.326 968.804 165.263 966.138ZM170.963 956.338C169.893 948.713 166.447 924.072 163.268 901.542C160.108 878.988 157.336 859.16 157.131 857.454C156.925 855.748 155.923 848.614 154.956 841.628C153.946 834.644 153.273 828.929 153.425 828.941C153.596 828.931 158.2 831.141 163.694 833.876C169.184 836.569 177.093 840.467 181.271 842.509C185.431 844.574 190.491 847.057 192.528 848.092C194.561 849.085 200.367 851.93 205.428 854.413C210.465 856.875 214.784 859.038 214.995 859.219C215.206 859.399 215.287 860.017 215.164 860.54C214.744 862.456 216.191 865.89 217.991 867.155C218.428 867.45 217.862 868.967 213.434 879.462C185.082 946.517 175.204 969.89 174.926 970.358C174.725 970.735 174.391 970.841 173.88 970.679C173.439 970.577 173.057 970.408 173.006 970.325C172.932 970.222 172.03 963.919 170.963 956.338ZM176.663 971.411C176.631 971.306 181.908 958.868 210.931 890.269L220.246 868.219L221.212 868.418C223.511 868.814 226.633 867.442 227.848 865.499C228.145 865.008 228.54 864.404 228.753 864.155C229.079 863.727 237.409 865.043 263.993 869.645C267.212 870.2 273.341 871.242 277.632 871.968C281.922 872.693 286.956 873.545 288.862 873.88C290.725 874.217 293.285 874.64 294.532 874.843C295.755 875.026 299.258 875.628 302.259 876.153C305.279 876.655 312.612 877.903 318.566 878.914C324.521 879.924 334.068 881.574 339.804 882.554C345.54 883.535 357.908 885.635 367.275 887.21C394.197 891.748 391.653 891.26 391.991 892.098C392.16 892.517 392.181 892.967 392.065 893.103C391.949 893.239 390.126 893.995 388.05 894.809C379.752 897.916 367.843 902.447 364.682 903.628C362.855 904.342 358.575 905.978 355.188 907.281C351.778 908.564 348.268 909.917 347.393 910.228C346.498 910.562 341.634 912.406 336.584 914.327C331.514 916.269 324.072 919.087 320.06 920.6C316.028 922.136 311.164 923.98 309.251 924.698C307.319 925.44 303.411 926.925 300.523 928.025C297.634 929.125 285.204 933.838 272.879 938.523C260.554 943.208 249.329 947.461 247.937 947.997C246.545 948.533 242.739 949.948 239.52 951.197C236.277 952.427 228.921 955.24 223.14 957.398C217.362 959.598 210.064 962.343 206.926 963.545C190.698 969.758 183.548 972.472 181.425 973.246L179.116 974.096L177.895 972.818C177.246 972.106 176.691 971.474 176.663 971.411ZM-259.342 554.668C-262.684 538.118 -266.396 519.722 -267.584 513.802C-268.792 507.905 -270.39 499.948 -271.161 496.15C-271.912 492.33 -274.603 479.005 -277.102 466.55C-279.645 454.097 -281.717 443.656 -281.768 443.336C-281.813 442.867 -281.658 442.685 -280.819 442.226C-279.98 441.766 -279.742 441.773 -279.308 442.262C-279.038 442.611 -277.896 443.744 -276.801 444.837C-275.711 445.887 -274.424 447.183 -273.947 447.669C-273.47 448.156 -272.465 449.211 -271.679 450.001C-270.299 451.377 -258.753 462.935 -255.609 466.094C-254.777 466.923 -253.107 468.625 -251.914 469.841C-250.722 471.057 -248.865 472.919 -247.75 473.99C-246.66 475.04 -245.42 476.296 -245.013 476.722C-244.607 477.148 -241.768 480.046 -238.699 483.102C-235.629 486.157 -232.56 489.213 -231.915 489.882C-229.455 492.417 -217.933 503.955 -214.887 506.99C-213.128 508.73 -211.317 510.552 -210.84 511.039C-210.383 511.548 -207.548 514.403 -204.525 517.418C-201.527 520.414 -198.504 523.429 -197.859 524.099C-197.194 524.745 -194.739 527.237 -192.385 529.563C-190.032 531.889 -187.768 534.178 -187.38 534.627C-186.974 535.053 -186.356 535.66 -186.047 535.963C-185.531 536.404 -185.55 536.663 -186.14 537.923C-186.7 539.053 -186.818 539.855 -186.608 541.603L-186.397 543.824L-207.915 557.127C-219.751 564.467 -230.529 571.141 -231.831 571.951C-242.539 578.685 -253.163 585.177 -253.222 585.009C-253.277 584.884 -256.019 571.24 -259.342 554.668ZM-103.352 681.99C-103.16 681.291 -103.051 680.403 -103.111 679.999C-103.231 679.19 -103.943 679.406 -49.2239 665.102C-41.763 663.164 -34.7029 661.314 -33.5048 661.004C-32.3107 660.652 -31.2718 660.481 -31.2167 660.607C-31.1382 660.752 -28.7268 672.504 -19.2655 719.159C-15.6097 737.193 -15.0924 739.911 -15.2087 740.047C-15.5657 740.369 -17.7755 741.815 -18.013 741.808C-18.2271 741.821 -34.5062 730.767 -60.6848 712.78C-68.5649 707.376 -68.7249 707.279 -69.9003 706.47C-70.4742 706.097 -71.513 705.366 -72.2042 704.893C-72.9188 704.399 -75.5662 702.607 -78.1005 700.872C-80.6348 699.137 -83.3331 697.261 -84.114 696.75C-84.8755 696.217 -89.3232 693.16 -93.9738 690.008C-98.6478 686.836 -102.729 684.014 -103.076 683.756C-103.588 683.358 -103.62 683.016 -103.352 681.99ZM-115.288 667.47C-116.709 664.528 -117.911 662.089 -117.958 662.048C-118.028 661.988 -121.836 654.338 -127.616 642.728C-129.296 639.33 -131.718 634.473 -132.994 631.931C-134.27 629.388 -138.125 621.698 -141.514 614.839C-144.922 608.002 -149.817 598.206 -152.35 593.099C-154.925 587.994 -157.006 583.782 -157.033 583.719C-157.065 583.614 -134.667 572.083 -79.7434 543.87C-72.0221 539.918 -64.9187 536.261 -63.9744 535.774L-62.2725 534.875L-60.9676 535.912L-59.7057 536.952L-66.4938 555.904C-70.2597 566.338 -79.8047 592.976 -87.7559 615.093C-95.6837 637.23 -102.699 656.733 -103.331 658.468C-103.986 660.184 -105.434 664.203 -106.554 667.365L-108.629 673.163L-110.389 673.227C-111.355 673.265 -112.266 673.192 -112.43 673.051C-112.571 672.931 -113.866 670.411 -115.288 667.47ZM-105.518 675.077L-106.808 673.738L-105.938 671.344C-105.461 670.026 -104.097 666.248 -102.904 662.953C-101.71 659.658 -91.1601 630.23 -79.4316 597.572C-67.7032 564.914 -57.988 538.028 -57.8329 537.847C-57.6779 537.666 -57.1874 537.614 -56.7429 537.759C-56.0997 537.956 -55.9314 538.139 -55.8357 538.691C-55.7757 539.096 -54.1229 547.178 -52.2075 556.662C-50.2685 566.167 -48.2696 576.075 -47.7411 578.685C-41.2676 610.702 -35.625 638.516 -34.2065 645.496C-33.2176 650.226 -32.236 655.106 -32.013 656.316L-31.6108 658.504L-50.6906 663.495C-61.1972 666.243 -75.5468 670.021 -82.5835 671.891C-103.659 677.412 -103.721 677.437 -103.988 676.895C-104.164 676.627 -104.845 675.809 -105.518 675.077ZM-5.77235 747.997C-5.53981 747.725 3.45506 747.647 46.4247 747.466C64.7458 747.397 93.5493 747.267 121.831 747.083L133.649 747.025L133.906 747.912C134.608 750.317 136.434 752.074 138.96 752.822L140.645 753.32L145.108 785.03C150.474 823.516 150.695 825.156 150.395 825.174C150.267 825.182 149.569 824.86 148.866 824.495C148.121 824.132 136.845 818.572 123.809 812.174C110.749 805.756 98.5953 799.798 96.8082 798.898C95.0017 798.02 89.3987 795.27 84.3809 792.785C79.3437 790.322 73.2218 787.325 70.8026 786.119C68.3834 784.914 64.0018 782.777 61.0871 781.344C58.1725 779.911 52.0505 776.914 47.5088 774.679C42.9437 772.423 37.3642 769.693 35.0816 768.566C11.5381 756.99 2.81757 752.712 -1.06867 750.802C-6.48812 748.169 -6.10177 748.382 -5.77235 747.997ZM-19.146 710.238C-22.1257 695.685 -25.6032 678.392 -26.9383 671.836L-29.366 659.913L-9.19713 654.598C1.89672 651.685 12.6561 648.879 14.6944 648.346C16.7562 647.833 28.0408 644.887 39.827 641.782C86.8088 629.456 84.747 629.968 85.1812 630.457C86.1475 631.558 86.4147 631.198 79.3796 639.189C75.705 643.345 63.1859 657.751 51.5469 671.222C39.908 684.693 27.4082 699.076 23.7958 703.206C20.1599 707.317 12.1834 716.504 6.0947 723.578C-0.0134443 730.675 -5.91651 737.437 -7.04858 738.667L-9.07608 740.896L-10.2189 740.429C-10.8041 740.164 -11.7319 739.92 -12.2304 739.886C-13.1419 739.813 -13.1654 739.793 -13.4831 738.266C-13.6501 737.417 -16.2092 724.793 -19.146 710.238ZM-6.01332 745.24C-5.98676 745.067 -1.73865 743.089 3.43125 740.839C8.58177 738.612 13.9189 736.31 15.2639 735.733C21.3821 733.039 40.9736 724.601 44.6782 723.021C46.9562 722.066 50.8046 720.413 53.2223 719.341C57.9761 717.246 88.8986 703.862 95.4991 701.031C97.7343 700.078 103.378 697.606 108.055 695.601C112.727 693.554 116.669 691.981 116.81 692.101C116.95 692.222 118.102 694.815 119.407 697.892C120.693 700.993 123.198 706.94 124.975 711.127C129.717 722.478 131.439 726.54 133.665 731.817C134.754 734.435 135.958 737.347 136.327 738.291L136.985 739.991L135.914 740.958C135.262 741.578 134.62 742.52 134.156 743.536L133.446 745.126L131.492 745.181C130.394 745.184 122.474 745.239 113.86 745.251C105.227 745.285 96.7227 745.311 94.916 745.336C93.1093 745.361 84.6048 745.387 75.972 745.421C67.3391 745.456 58.0832 745.507 55.3925 745.521C33.6996 745.688 -5.7657 745.805 -5.90636 745.685C-6.00016 745.605 -6.03982 745.414 -6.01332 745.24ZM-6.63321 741.219C-6.10595 740.649 2.55288 730.712 12.5835 719.122C54.1826 671.082 63.4615 660.419 71.3065 651.433C75.8531 646.257 81.3646 639.906 83.5736 637.322C87.081 633.219 87.6512 632.647 87.9559 632.908C88.4952 633.369 90.6739 633.859 91.6354 633.778L92.4644 633.663L93.9664 637.223C99.9202 651.572 103.789 660.765 105.118 663.862C105.975 665.85 106.726 667.63 106.789 667.841C106.829 668.032 108.107 671.047 109.581 674.544C114.102 685.157 115.911 689.45 115.944 689.792C115.979 689.94 113.924 690.968 111.42 692.045C105.585 694.55 96.0696 698.655 93.9201 699.602C93.0105 700.002 90.4684 701.124 88.2954 702.052C86.1031 703.002 79.6076 705.805 73.8157 708.308C68.0472 710.83 61.6761 713.583 59.6469 714.437C57.6412 715.312 51.1885 718.112 45.3344 720.64C39.4609 723.19 33.4202 725.794 31.9314 726.444C30.4233 727.116 25.2106 729.368 20.3476 731.448C15.4653 733.551 10.2526 735.804 8.7638 736.453C-8.27744 743.854 -6.82338 743.292 -7.26979 742.675C-7.56741 742.264 -7.45929 742.043 -6.63321 741.219ZM-162.342 572.982C-164.474 568.688 -167.803 561.997 -169.742 558.142C-171.662 554.264 -173.739 550.095 -174.371 548.888L-175.466 546.657L-174.467 545.393C-173.851 544.625 -173.306 543.56 -173.107 542.71L-172.747 541.292L-169.8 541.026C-168.196 540.906 -157.254 540.022 -145.521 539.067C-133.765 538.133 -121.713 537.138 -118.724 536.869C-89.0968 534.304 -63.1355 532.372 -63.0989 532.756C-63.0745 533.012 -64.4379 533.848 -67.0453 535.189C-69.2448 536.29 -78.7109 541.144 -88.0719 545.969C-97.433 550.795 -111.679 558.154 -119.707 562.275C-127.754 566.419 -139.354 572.392 -145.494 575.538C-151.653 578.708 -156.973 581.417 -157.342 581.612C-157.878 581.859 -158.077 581.807 -158.227 581.365C-158.364 581.051 -160.21 577.277 -162.342 572.982ZM152.185 822.036C151.849 819.63 149.546 803.145 147.064 785.448C144.558 767.73 142.568 753.16 142.598 753.029C142.652 752.918 142.983 752.769 143.383 752.68C144.142 752.505 141.565 748.968 166.941 784.983C173.271 794.004 180.638 804.422 183.254 808.149C185.89 811.854 193.112 822.109 199.312 830.902C205.492 839.717 212.064 849.023 213.882 851.597L217.191 856.27L216.629 856.928C215.99 857.676 217.402 858.255 203.503 851.394C199.886 849.597 187.12 843.311 175.079 837.411C163.018 831.533 153.077 826.643 152.983 826.563C152.846 826.485 152.48 824.445 152.185 822.036ZM-194.683 524.656C-199.086 520.264 -203.371 515.973 -204.204 515.143C-205.06 514.294 -206.159 513.158 -206.706 512.611C-207.234 512.042 -209.545 509.714 -211.828 507.448C-217.185 502.083 -219.992 499.291 -222.377 496.859C-223.429 495.764 -241.834 477.322 -246.002 473.131C-246.787 472.341 -247.976 471.168 -248.621 470.499C-249.267 469.829 -252.289 466.814 -255.288 463.819C-258.31 460.803 -261.262 457.848 -261.837 457.238C-262.455 456.632 -264.218 454.85 -265.766 453.29C-267.338 451.711 -269.121 449.952 -269.696 449.342C-270.314 448.736 -272.007 447.014 -273.508 445.495C-278.458 440.556 -278.482 440.536 -278.123 439.784C-277.941 439.429 -277.729 438.944 -277.667 438.682C-277.568 438.375 -274.579 438.773 -266.649 440.177C-260.672 441.208 -252.983 442.563 -249.589 443.15C-244.157 444.106 -235.175 445.705 -206.938 450.7C-202.952 451.401 -195.723 452.677 -190.86 453.539C-185.978 454.379 -181.897 455.16 -181.757 455.281C-181.593 455.421 -181.014 504.917 -180.87 532.66L-180.85 533.776L-182.199 534.31C-182.922 534.633 -183.641 534.999 -183.757 535.135C-183.931 535.339 -184.369 535.044 -185.37 534.031C-186.109 533.282 -190.3 529.07 -194.683 524.656ZM-172.867 537.54C-172.44 537.278 -155.615 526.475 -135.442 513.513C-115.246 500.571 -98.6188 489.952 -98.471 489.921C-98.2996 489.911 -97.3109 490.795 -96.259 491.891C-95.1836 493.006 -93.4711 494.706 -92.4466 495.739C-91.4028 496.749 -90.2336 497.944 -89.8269 498.371C-89.4202 498.797 -88.3449 499.912 -87.4417 500.802C-86.5386 501.692 -85.4632 502.808 -85.0565 503.234C-84.4072 503.946 -79.1168 509.293 -74.8122 513.561C-74.0263 514.351 -72.4269 515.993 -71.2343 517.209C-70.0417 518.425 -67.8481 520.653 -66.3467 522.172C-62.0573 526.506 -62.0063 526.589 -62.5489 527.224C-62.8202 527.541 -63.1712 528.379 -63.3355 529.141L-63.6376 530.491L-67.7018 530.783C-73.8215 531.2 -121.345 534.903 -130.874 535.701C-163.693 538.44 -173.11 539.059 -173.354 538.537C-173.523 538.118 -173.415 537.896 -172.867 537.54ZM-179.299 494.653C-179.483 473.27 -179.582 455.727 -179.505 455.637C-179.446 455.569 -178.796 455.615 -178.094 455.744C-177.389 455.915 -166.26 457.898 -153.381 460.16L-129.965 464.29L-129.73 465.629C-129.618 466.352 -129.169 467.442 -128.766 468.061C-128.319 468.679 -127.869 469.338 -127.767 469.504C-127.595 469.73 -127.985 470.376 -128.911 471.507C-129.686 472.414 -130.589 473.564 -130.91 474.035C-131.236 474.463 -132.688 476.399 -134.187 478.295C-135.644 480.189 -137.372 482.4 -137.999 483.276C-138.65 484.132 -140.063 486.023 -141.155 487.443C-147.156 495.22 -148.461 496.89 -151.885 501.416C-152.667 502.474 -154.279 504.549 -155.429 506.037C-159.938 511.833 -166.45 520.351 -169.413 524.291C-170.16 525.26 -171.884 527.514 -173.247 529.251C-174.588 531.009 -176.044 532.902 -176.462 533.486C-177.085 534.405 -177.291 534.503 -177.892 534.304C-178.27 534.177 -178.661 533.921 -178.758 533.798C-178.88 533.655 -179.091 516.055 -179.299 494.653ZM-174.548 534.142C-173.998 533.357 -172.487 531.353 -171.163 529.661C-169.857 527.991 -168.071 525.712 -167.231 524.587C-166.39 523.462 -164.837 521.455 -163.783 520.08C-162.73 518.705 -161.277 516.769 -160.53 515.8C-159.782 514.831 -158.194 512.736 -156.985 511.18C-155.777 509.624 -154.073 507.393 -153.151 506.219C-152.271 505.049 -149.072 500.879 -146.062 496.979C-143.052 493.079 -139.872 488.932 -138.974 487.739C-138.094 486.568 -135.856 483.617 -133.996 481.205C-132.137 478.793 -129.588 475.479 -128.345 473.835L-126.044 470.859L-124.496 471.28C-122.793 471.756 -120.586 471.406 -119.002 470.407C-118.007 469.766 -117.941 469.783 -117.241 470.578C-116.83 471.047 -115.16 472.749 -113.542 474.368C-111.923 475.988 -110.304 477.607 -109.964 478.016C-109.628 478.382 -107.27 480.751 -104.744 483.303C-102.222 485.812 -100.114 488.046 -100.098 488.216C-100.05 488.493 -173.473 535.924 -174.415 536.218C-174.539 536.268 -174.832 536.136 -175.089 535.915C-175.441 535.614 -175.341 535.308 -174.548 534.142ZM-31.2814 650.429C-32.0961 646.398 -33.1888 641.03 -33.6898 638.484C-34.2102 635.959 -37.7152 618.603 -41.5177 599.934C-45.3008 581.242 -49.2387 561.829 -50.26 556.758C-51.2814 551.687 -52.6002 545.302 -53.1644 542.544L-54.1817 537.516L-53.2374 537.029C-52.7011 536.781 -52.0566 536.312 -51.7853 535.995C-51.514 535.677 -51.1213 535.503 -50.9419 535.578C-50.739 535.673 -48.5137 537.105 -46.0303 538.757C-43.547 540.409 -39.4082 543.163 -36.8158 544.83C-27.4921 550.918 -26.3677 551.644 -25.122 552.513C-24.4114 552.964 -21.7212 554.754 -19.1288 556.421C-16.5558 558.111 -13.9828 559.801 -13.4088 560.174C-12.8543 560.569 -10.5585 562.061 -8.35247 563.516C-0.543701 568.622 1.20156 569.761 5.43009 572.553C7.79618 574.105 11.8178 576.759 14.4102 578.426C19.6653 581.82 20.0792 582.095 22.9999 584.043C24.1477 584.789 25.893 585.928 26.9043 586.597C27.8921 587.245 30.5823 589.035 32.8781 590.527C35.1544 592.042 38.6684 594.34 40.6869 595.634C45.3252 598.658 50.561 602.075 59.5452 607.99C63.4537 610.587 67.4477 613.177 68.3693 613.808C69.3102 614.417 71.9495 616.124 74.2259 617.638C76.5023 619.153 78.6808 620.545 79.0478 620.78C83.8146 623.796 84.3498 624.215 84.2314 624.78C84.1548 625.107 84.1311 625.989 84.1615 626.761L84.2101 628.175L73.2406 631.038C35.7111 640.852 11.0843 647.3 -12.9704 653.647C-22.0688 656.03 -29.596 657.951 -29.6663 657.891C-29.7366 657.831 -30.4434 654.48 -31.2814 650.429ZM-277.675 433.85C-277.703 433.787 -271.494 430.464 -263.866 426.432C-256.262 422.38 -246.4 417.158 -241.975 414.782C-237.526 412.426 -231.868 409.417 -229.366 408.104C-226.864 406.791 -220.693 403.513 -215.63 400.819C-210.591 398.105 -202.062 393.588 -196.692 390.725L-186.912 385.551L-185.556 386.671C-184.806 387.312 -183.736 387.913 -183.163 388.049L-182.126 388.308L-182.075 397.219C-182.039 402.114 -181.983 408.125 -181.946 410.55C-181.909 412.975 -181.867 418.622 -181.81 423.064C-181.796 427.51 -181.729 436.119 -181.666 442.215C-181.606 448.269 -181.605 453.252 -181.648 453.255C-181.691 453.257 -184.649 452.73 -188.242 452.09C-191.834 451.451 -196.916 450.559 -199.542 450.118C-202.149 449.655 -211.918 447.933 -221.209 446.268C-230.518 444.625 -239.477 443.047 -241.141 442.762C-244.885 442.11 -262.035 439.1 -270.756 437.529L-277.264 436.359L-277.444 435.146C-277.529 434.485 -277.629 433.89 -277.675 433.85ZM214.867 849.732C213.719 848.084 207.273 838.963 200.552 829.451C193.831 819.939 186.209 809.107 183.593 805.379C180.977 801.651 171.342 788 162.205 775.049L145.575 751.494L146.476 749.87C146.994 748.98 147.512 748.089 147.639 747.845C147.829 747.575 154.808 747.814 168.448 748.569C179.747 749.166 190.898 749.794 193.235 749.909L197.457 750.144L198.216 753.814C199.05 757.822 203.251 777.735 210.944 813.736C213.643 826.48 216.414 839.521 217.062 842.703C217.752 845.883 218.563 849.871 218.959 851.544C219.574 854.385 219.562 855.159 218.877 855.201C218.748 855.209 218.263 854.637 217.813 853.977C217.339 853.297 216.015 851.381 214.867 849.732ZM228.519 859.207C228.318 858.683 229.246 858.024 238.377 852.139C243.916 848.556 253.575 842.337 259.8 838.283C266.049 834.249 273.576 829.386 276.563 827.506C279.526 825.606 282.529 823.661 283.259 823.187C283.985 822.67 291.329 817.924 299.59 812.629C307.847 807.291 316.652 801.597 319.168 799.982C321.662 798.348 323.86 797.01 323.989 797.002C324.16 796.992 325.177 798.175 326.285 799.633C327.393 801.09 331.222 806.011 334.78 810.583C341.258 818.907 342.585 820.63 352.943 833.958C355.965 837.876 359.449 842.345 360.674 843.903C363.986 848.146 369.748 855.505 374.316 861.411C376.528 864.283 381.726 870.924 385.824 876.194C389.923 881.463 393.407 885.933 393.556 886.138C393.732 886.407 393.521 887.129 392.983 888.042L392.132 889.512L390.866 889.332C390.165 889.203 379.721 887.415 367.638 885.362C355.573 883.286 342.418 881.063 338.412 880.384C334.407 879.706 322.935 877.744 312.908 876.038C302.882 874.332 291.149 872.343 286.859 871.618C282.569 870.892 277.293 869.991 275.169 869.627C273.022 869.243 269.675 868.696 267.726 868.364C263.588 867.651 251.352 865.586 238.325 863.354L229.133 861.812L228.907 860.794C228.811 860.242 228.614 859.524 228.519 859.207ZM220.116 847.865C219.481 844.811 216.321 829.947 213.113 814.807C209.905 799.666 206.987 785.991 206.642 784.401C206.043 781.731 204.575 774.904 200.886 757.431C200.108 753.784 199.531 750.662 199.604 750.528C199.674 750.352 204.709 750.538 210.817 750.895C216.9 751.231 223.202 751.597 224.827 751.691C226.427 751.765 233.594 752.164 240.718 752.566C247.861 752.945 255.355 753.389 257.388 753.479C282.167 754.734 285.423 755.007 285.508 755.668C285.64 756.605 286.609 758.414 287.289 758.995C287.828 759.456 287.755 759.59 285.553 762.925C284.334 764.825 280.348 770.912 276.718 776.439C273.087 781.967 264.701 794.767 258.079 804.838C251.462 814.951 245.123 824.597 243.997 826.341C242.847 828.066 241.624 829.923 241.268 830.482C239.709 832.876 232.41 843.976 229.232 848.832C227.313 851.742 225.602 854.36 225.44 854.692C225.185 855.18 224.823 855.223 223.35 854.905C221.939 854.562 221.533 854.372 221.426 853.928C221.355 853.631 220.771 850.896 220.116 847.865ZM227.068 855.73C227.323 855.242 228.79 853.005 230.295 850.721C232.815 846.873 245.094 828.143 254.44 813.888C256.623 810.576 262.018 802.32 266.476 795.539C270.915 788.78 277.552 778.644 281.24 773.048C284.905 767.432 288.233 762.353 288.647 761.726C289.402 760.606 289.422 760.583 290.451 760.993C291.391 761.365 293.988 761.27 295.521 760.854C296.003 760.717 296.461 761.226 299.51 765.207C303.319 770.15 307.469 775.503 312.937 782.492C317.963 788.908 322.614 795.003 322.634 795.216C322.627 795.367 297.542 811.702 286.255 818.922C283.715 820.517 280.674 822.507 279.459 823.312C277.249 824.758 269.4 829.856 257.243 837.667C253.713 839.945 245.72 845.116 239.471 849.15C233.245 853.204 227.909 856.646 227.645 856.812C226.891 857.266 226.55 856.621 227.068 855.73ZM137.978 737.309C137.632 736.385 136.57 733.83 135.631 731.654C125.73 708.202 118.664 691.215 118.799 691.056C118.877 690.965 120.567 690.175 122.554 689.323C124.56 688.448 127.125 687.346 128.303 686.823C130.596 685.802 141.993 680.873 156.951 674.437C162.145 672.208 167.769 669.759 169.445 669.033L172.485 667.709L173.819 668.379C174.545 668.764 175.356 669.144 175.625 669.256C176.023 669.361 175.557 670.571 172.858 676.149C171.058 679.868 167.255 687.876 164.386 693.937C144.557 735.833 142.738 739.574 142.122 739.44C141.772 739.376 140.969 739.317 140.28 739.316C139.591 739.316 138.94 739.27 138.823 739.169C138.729 739.089 138.348 738.253 137.978 737.309ZM145.526 741.487C144.498 740.412 144.486 740.283 144.934 739.332C148.856 730.995 161.613 704.159 166.748 693.406C170.412 685.75 174.432 677.298 175.682 674.601C176.956 671.924 178.096 669.642 178.212 669.506C178.328 669.37 178.849 669.188 179.293 669.096L180.18 668.913L181.868 676.908C182.8 681.275 184.567 689.652 185.814 695.504C187.041 701.379 190.078 715.627 192.535 727.183C194.993 738.739 196.865 748.226 196.67 748.216C196.499 748.227 185.371 747.619 171.993 746.891L147.634 745.525L147.11 744.097C146.819 743.298 146.105 742.139 145.526 741.487ZM453.207 995.986C453.573 995.083 453.763 994.814 454.191 994.788C455.565 994.747 485.19 996.456 485.378 996.617C485.518 996.737 503.394 1025.91 520.156 1053.34C520.893 1054.52 521.403 1055.59 521.326 1055.68C521.229 1055.79 505.786 1042.67 486.956 1026.53L452.76 997.174L453.207 995.986ZM509.819 1032.77C502.673 1021.05 494.809 1008.13 492.308 1004.03L487.792 996.641L504.458 997.511C513.611 997.96 523.913 998.49 527.289 998.67C545.712 999.669 590.717 1002.09 594.569 1002.29C597.015 1002.41 603.294 1002.76 608.532 1003.04C613.771 1003.32 620.914 1003.7 624.443 1003.89C642.647 1004.86 651.458 1005.33 651.875 1005.42C652.116 1005.47 652.378 1005.73 652.43 1006.05C652.545 1006.58 651.803 1006.92 636.747 1013.24C631.258 1015.53 628.549 1016.7 619.087 1020.7C616.976 1021.6 612.774 1023.38 609.73 1024.66C606.686 1025.94 602.546 1027.7 600.517 1028.56C598.511 1029.43 591.988 1032.17 586.087 1034.66C580.144 1037.15 574.138 1039.66 572.711 1040.29C571.284 1040.91 567.642 1042.47 564.598 1043.75C548.116 1050.69 544.12 1052.37 536.462 1055.63L531.972 1057.56L530.99 1056.52C529.453 1054.86 527.577 1054.16 525.312 1054.34C524.222 1054.43 523.229 1054.4 523.069 1054.3C522.909 1054.21 516.946 1044.52 509.819 1032.77ZM-179.776 441.477C-179.795 435.85 -179.858 429.088 -179.892 426.47C-179.926 423.851 -179.979 418.313 -180.008 414.169C-180.032 410.068 -180.082 402.768 -180.128 397.981C-180.218 393.196 -180.2 389.092 -180.2 388.856C-180.097 388.356 -178.247 387.663 -177.871 387.983C-177.754 388.084 -174.547 392.591 -170.802 397.99C-167.038 403.366 -163.07 409.073 -161.931 410.635C-158.621 415.309 -151.771 425.049 -147.125 431.768C-144.709 435.207 -139.374 442.828 -135.266 448.655L-127.769 459.301L-128.548 460.401C-128.966 460.985 -129.438 461.68 -129.608 461.927C-129.833 462.284 -133.897 461.674 -147.871 459.221C-157.772 457.464 -167.694 455.73 -169.907 455.329C-172.14 454.95 -175.23 454.387 -176.785 454.117L-179.567 453.622L-179.657 452.682C-179.686 452.147 -179.734 447.123 -179.776 441.477ZM436.887 970.264C432.728 961.412 428.422 952.16 427.264 949.717C426.124 947.253 424.741 944.266 424.18 943.119C422.888 940.405 420.429 935.164 413.103 919.524C409.839 912.614 406.213 904.846 404.999 902.278C403.762 899.69 402.921 897.637 403.077 897.692C403.346 897.804 408.485 903.375 419.844 915.911C422.488 918.8 424.992 921.568 425.379 922.017C425.786 922.443 428.336 925.251 431.051 928.199C433.746 931.17 437.063 934.791 438.385 936.235C439.687 937.702 441.107 939.269 441.514 939.695C441.921 940.121 444.471 942.929 447.166 945.9C449.861 948.871 452.411 951.68 452.818 952.106C453.205 952.555 455.008 954.528 456.788 956.481C458.568 958.434 461.114 961.2 462.417 962.666C463.715 964.09 464.803 965.334 464.807 965.377C464.792 965.442 464.48 966.235 464.071 967.14C463.241 969.06 463.302 971.505 464.27 973.078C464.979 974.194 465.126 973.928 461.779 977.226C460.441 978.553 458.61 980.362 457.746 981.231C456.881 982.101 455.756 983.179 455.283 983.637C454.809 984.096 453.646 985.22 452.699 986.137C450.989 987.852 450.554 988.029 449.686 987.288C449.1 986.787 445.99 986.247 445.419 986.582C445.171 986.683 444.871 986.702 444.707 986.561C444.566 986.441 441.024 979.097 436.887 970.264ZM533.732 1060.44C534.277 1060.28 536.595 1059.75 538.918 1059.26C541.217 1058.76 552.761 1056.27 564.534 1053.7C576.306 1051.13 590.383 1048.1 595.849 1046.93C601.272 1045.76 610.369 1043.81 616.002 1042.58C621.636 1041.35 628.619 1039.83 631.553 1039.2C634.486 1038.57 644.361 1036.42 653.496 1034.42C662.654 1032.44 670.463 1030.76 670.848 1030.74C671.51 1030.68 671.654 1030.84 673.044 1033.44C674.636 1036.37 689.55 1064.97 693.059 1071.74L695.119 1075.74L694.274 1076.58C693.801 1077.04 693.201 1077.98 692.943 1078.66L692.457 1079.89L681.673 1078.6C675.705 1077.89 668.299 1077.01 665.205 1076.64C662.135 1076.29 655.076 1075.44 649.501 1074.79C643.945 1074.12 637.365 1073.32 634.86 1073.02C632.378 1072.74 621.248 1071.43 610.16 1070.11C599.03 1068.79 579.994 1066.56 567.839 1065.12C555.684 1063.67 542.898 1062.15 539.458 1061.76C536.014 1061.33 533.092 1060.95 532.974 1060.85C532.881 1060.77 533.207 1060.58 533.732 1060.44ZM453.086 991.096C452.716 990.152 452.381 989.357 452.335 989.317C452.33 989.274 454.572 987.032 457.31 984.351C460.068 981.648 463.179 978.579 464.261 977.503L466.184 975.538L467.047 976.001C468.479 976.794 470.232 977.116 471.867 976.866L473.439 976.641L478.665 985.385C481.555 990.17 483.919 994.193 483.927 994.278C483.944 994.449 480.353 994.282 466.109 993.521C455.352 992.955 453.922 992.871 453.852 992.811C453.805 992.771 453.451 991.998 453.086 991.096ZM544.291 1054.4C548.412 1052.67 552.945 1050.73 554.395 1050.13C555.821 1049.51 559.817 1047.82 563.273 1046.34C582.636 1038.22 589.925 1035.15 601.847 1030.09C609.093 1027.02 618.967 1022.83 623.791 1020.8C636.378 1015.47 644.246 1012.15 649.028 1010.12L653.187 1008.34L654.356 1009.54C655.862 1011.1 657.827 1011.84 660.007 1011.66L661.654 1011.54L666.045 1019.88C668.443 1024.49 670.425 1028.34 670.465 1028.53C670.501 1028.68 665.576 1029.88 659.542 1031.19C636.75 1036.11 628.794 1037.82 615.986 1040.6C608.727 1042.17 600.245 1044.02 597.144 1044.7C594.044 1045.38 585.815 1047.18 578.851 1048.68C563.573 1051.97 552.768 1054.31 543.633 1056.31C539.856 1057.12 536.77 1057.74 536.785 1057.67C536.758 1057.61 540.147 1056.11 544.291 1054.4ZM115.168 683.009C113.823 679.74 111.46 674.15 109.954 670.547C108.448 666.945 106.384 662.002 105.354 659.552C104.323 657.102 103.065 654.064 102.562 652.849C102.054 651.592 100.36 647.593 98.8067 643.95C94.4271 633.693 94.2539 633.231 94.9025 632.805C95.1859 632.616 95.7795 632.064 96.167 631.611L96.8646 630.795L100.383 632.233C104.736 634.072 143.062 649.576 147.648 651.379C149.485 652.126 155.328 654.453 160.637 656.598C169.662 660.235 170.294 660.54 170.246 661.166C170.143 662.568 170.36 664.166 170.757 665.172L171.178 666.199L167.372 667.85C163.811 669.356 147.307 676.51 127.595 685.04C126.25 685.617 123.54 686.792 121.577 687.664C119.61 688.493 117.927 689.133 117.833 689.053C117.739 688.973 116.533 686.254 115.168 683.009ZM480.634 985.029L474.927 975.755L476.143 974.048C476.805 973.084 477.401 972.339 477.444 972.336C477.573 972.328 594.936 993.929 609.538 996.644C615.415 997.745 624.885 999.485 630.582 1000.51C636.26 1001.56 641.478 1002.53 642.136 1002.66L643.344 1002.91L642.332 1002.91C641.771 1002.9 637.206 1002.68 632.205 1002.41C627.204 1002.14 618.978 1001.69 613.958 1001.44C604.392 1000.95 571.835 999.209 544.493 997.725C535.64 997.257 523.928 996.62 518.495 996.33C513.062 996.039 506.242 995.662 503.383 995.493C500.524 995.325 495.585 995.025 492.427 994.875C489.268 994.725 486.6 994.523 486.506 994.443C486.412 994.362 483.77 990.142 480.634 985.029ZM194.863 729.017C192.668 718.626 190.008 706.073 188.936 701.155C183.086 673.869 181.885 667.821 182.202 667.307C182.52 666.794 182.656 666.871 187.649 670.905C190.45 673.182 194.322 676.296 196.256 677.832C198.19 679.367 201.995 682.464 204.773 684.721C207.527 686.958 211.493 690.152 213.524 691.81C215.575 693.446 219.498 696.643 222.276 698.9C225.03 701.137 229.187 704.535 231.496 706.391C236.419 710.364 242.509 715.297 248.882 720.47C251.378 722.487 255.254 725.643 257.516 727.46C261.481 730.654 265.122 733.61 275.839 742.34C278.664 744.638 282.16 747.431 283.602 748.546L286.25 750.574L285.942 751.41C285.792 751.87 285.545 752.443 285.394 752.667C285.112 753.093 280.855 752.945 264.134 751.949C259.129 751.633 252.936 751.281 213.255 749.135C205.485 748.729 199.065 748.263 198.991 748.16C198.936 748.035 197.083 739.427 194.863 729.017ZM-66.8852 519.005C-69.4387 516.39 -72.3437 513.475 -73.2978 512.502C-74.2713 511.552 -75.4405 510.356 -75.9175 509.87C-77.0204 508.692 -81.1457 504.498 -82.9559 502.676C-83.7612 501.909 -85.5247 500.126 -86.8855 498.728C-88.2464 497.329 -89.9822 495.609 -90.6978 494.88C-94.2247 491.315 -96.5202 488.921 -96.513 488.77C-96.5293 488.599 -52.172 460.023 -45.7241 456.042L-42.7719 454.25L-41.5762 455.272L-40.3764 456.337L-40.9725 459.123C-41.3207 460.67 -44.8023 475.897 -48.7555 492.957L-55.9034 523.96L-56.9434 523.895C-57.5042 523.886 -58.5819 524.103 -59.3477 524.429C-61.0037 525.132 -60.4726 525.507 -66.8852 519.005ZM-49.8463 533.062C-49.321 532.02 -49.4824 529.646 -50.1621 528.163C-50.6768 527.056 -51.1385 526.504 -52.4158 525.53L-53.9979 524.295L-50.0375 507.084C-42.6486 474.992 -38.5342 457.363 -38.3792 457.182C-38.0845 456.884 -34.3242 456.568 -34.0194 456.829C-33.7381 457.07 -25.3854 468.565 41.7345 561.181C65.5673 594.111 85.2997 621.3 85.5464 621.628C85.793 621.957 85.8491 622.319 85.6431 622.417C85.2974 622.632 81.8854 620.499 70.898 613.224C67.5441 611.024 62.2146 607.526 59.0676 605.464C55.9207 603.401 45.7223 596.722 36.4415 590.631C27.1372 584.52 19.2388 579.376 18.8717 579.141C18.5048 578.905 17.15 578.022 15.8848 577.176C14.6157 576.287 11.8826 574.499 9.79383 573.145C6.1004 570.772 -3.89093 564.231 -18.5717 554.583C-26.7709 549.22 -26.3611 549.453 -30.1482 547C-31.7528 545.981 -35.4074 543.563 -38.3474 541.638C-41.2681 539.69 -44.7351 537.432 -46.0196 536.608C-49.6896 534.255 -50.1859 533.792 -49.8463 533.062ZM-103.21 482.221C-103.261 482.138 -104.219 481.123 -105.38 480.012C-106.522 478.879 -107.855 477.543 -108.313 477.034C-108.79 476.548 -110.866 474.42 -112.962 472.314C-115.058 470.208 -116.755 468.443 -116.759 468.401C-116.744 468.335 -116.595 467.639 -116.368 466.852C-116.165 466.045 -115.994 465.132 -115.964 464.765C-115.916 464.139 -116.507 464.261 -71.1386 456.48C-61.348 454.807 -44.6505 451.938 -44.0825 451.796C-44.0397 451.793 -43.9184 451.936 -43.8593 452.104C-43.7646 452.421 -47.8772 455.142 -79.2164 475.232L-98.0299 487.316L-100.59 484.853C-101.99 483.499 -103.179 482.326 -103.21 482.221ZM-132.784 448.933C-136.149 444.134 -139.689 439.067 -140.637 437.707C-142.956 434.391 -159.626 410.645 -163.785 404.735C-165.602 402.161 -169.213 397.033 -171.826 393.348L-176.514 386.633L-175.7 385.681C-175.235 385.137 -174.725 384.161 -174.549 383.527L-174.273 382.35L-173.066 382.362C-172.396 382.386 -159.367 382.383 -144.055 382.37C-128.744 382.356 -116.12 382.4 -115.94 382.475C-115.644 382.65 -115.621 382.434 -119.053 416.496C-120.338 429.011 -121.748 443.382 -122.257 448.439C-123.178 457.538 -123.189 457.646 -124.022 457.719C-124.489 457.79 -125.185 457.94 -125.559 458.092C-125.932 458.244 -126.345 458.205 -126.47 458.019C-126.553 457.831 -129.42 453.732 -132.784 448.933ZM460.825 958.167C458.518 955.645 455.537 952.39 454.234 950.924C452.912 949.48 450.39 946.734 448.68 944.841C446.947 942.928 444.401 940.163 443.028 938.636C441.655 937.109 437.708 932.754 434.247 928.97C424.531 918.31 416.907 909.948 411.639 904.149C408.99 901.218 406.299 898.289 405.654 897.62L404.457 896.361L405.164 894.965C405.543 894.19 405.873 892.903 405.9 892.063L405.91 890.58L412.444 888.634C416.045 887.555 424.547 885.015 431.373 882.965C438.199 880.915 443.982 879.229 444.239 879.213C444.625 879.19 445.409 881.548 447.342 888.732C451.161 902.826 465.42 955.308 466.614 959.703C467.199 961.772 467.58 963.51 467.479 963.581C467.378 963.651 467.094 963.841 466.811 964.03C466.426 964.29 466.224 964.195 465.687 963.54C465.324 963.111 463.133 960.689 460.825 958.167ZM477.078 968.492C476.848 967.432 476.809 966.575 477.05 966.389C477.248 966.205 478.599 965.242 480.028 964.188C481.48 963.154 488.158 958.191 494.917 953.181C501.676 948.171 510.59 941.59 514.736 938.543C518.882 935.497 528.783 928.19 536.768 922.267C544.758 916.386 556.487 907.7 562.866 902.992C569.225 898.307 575.421 893.718 576.605 892.808C577.813 891.917 578.861 891.166 578.966 891.138C579.052 891.133 582.608 896.135 586.83 902.256C591.049 908.334 598.957 919.685 604.351 927.475C609.764 935.241 614.707 942.371 615.338 943.342C615.988 944.29 620.931 951.419 626.344 959.186C640.813 979.952 654.343 999.444 654.331 999.552C654.335 999.594 653.887 1000.31 653.317 1001.12L652.295 1002.6L635.85 999.523C626.817 997.842 618.509 996.31 617.394 996.141C616.257 995.953 597.341 992.493 575.374 988.424C553.387 984.378 522.458 978.689 506.632 975.791C490.807 972.893 477.783 970.468 477.67 970.411C477.576 970.33 477.3 969.467 477.078 968.492ZM467.324 955.17C464.394 944.309 458.555 922.8 452.235 899.624C449.29 888.828 446.799 879.637 446.716 879.212C446.502 878.323 445.608 878.657 461.321 874.044C463.456 873.398 477.465 869.211 492.415 864.731C507.366 860.25 523.429 855.465 528.119 854.061C532.79 852.68 538.068 851.111 539.806 850.597C541.794 849.981 543.023 849.777 543.176 850.025C543.282 850.234 543.701 850.788 544.069 851.259C544.48 851.728 544.739 852.185 544.661 852.276C544.603 852.344 542.955 854.936 541.009 858.019C535.855 866.089 531.676 872.638 527.113 879.684C525.392 882.409 522.95 886.167 521.774 888.065C520.574 889.943 518.458 893.273 517.069 895.42C515.703 897.587 510.432 905.793 505.391 913.683C493.709 931.904 492.099 934.451 489.715 938.141C487.595 941.429 483.149 948.338 479.403 954.238C474.01 962.73 473.309 963.74 473.063 963.647C472.927 963.57 472.073 963.429 471.2 963.31C470.347 963.169 469.583 963.065 469.537 963.025C469.47 963.008 468.486 959.46 467.324 955.17ZM-119.298 437.668C-118.22 427.056 -116.524 410.262 -115.509 400.341L-113.713 382.339L-112.705 382.298C-111.93 382.294 -79.9057 382.289 -67.0477 382.297C-60.089 382.322 -21.3945 382.252 -18.5324 382.228C-16.6167 382.218 -5.37865 382.174 6.44757 382.203C18.2697 382.188 28.328 382.195 28.7797 382.189C29.4689 382.19 29.6289 382.287 29.7481 382.86C29.9457 383.578 29.7398 383.677 6.82142 395.626C-8.95885 403.83 -38.3157 419.18 -44.2801 422.359C-48.0959 424.354 -84.3032 443.302 -89.3121 445.886C-91.5076 447.03 -98.6885 450.777 -105.314 454.254L-117.289 460.572L-118.622 459.472C-119.348 458.85 -120.223 458.26 -120.578 458.152C-120.956 458.025 -121.199 457.739 -121.227 457.44C-121.252 457.184 -120.377 448.281 -119.298 437.668ZM-106.346 456.981C-101.116 454.233 -94.3858 450.728 -91.3899 449.17C-88.4367 447.615 -78.8778 442.605 -70.201 438.058C-52.1478 428.619 -40.0049 422.248 -31.1802 417.67C-23.7311 413.799 0.659732 401.029 4.38983 399.04C18.2306 391.727 29.729 385.825 29.6249 386.09C29.5555 386.266 28.1013 387.729 26.3788 389.317C24.6562 390.904 22.8328 392.562 22.3596 393.021C21.863 393.46 19.5897 395.596 17.3166 397.733C15.024 399.892 12.8089 401.961 12.3938 402.352C11.9359 402.745 10.1166 404.446 8.3166 406.124C6.52063 407.845 4.1465 410.052 3.0797 411.062C1.97014 412.075 0.682093 413.25 0.208924 413.708C-0.264337 414.167 -1.57168 415.364 -2.66194 416.354C-3.74802 417.387 -8.77168 422.076 -13.8342 426.811C-18.8966 431.546 -23.4624 435.842 -24.0171 436.348C-24.5719 436.855 -25.4021 437.636 -25.8987 438.074C-26.8299 438.926 -27.9547 440.004 -29.9526 441.867C-33.1334 444.875 -32.8887 444.731 -33.9856 444.068C-37.7647 441.7 -43.164 444.028 -44.0612 448.401L-44.3859 449.967L-54.9819 451.775C-60.7877 452.775 -76.8939 455.522 -90.7079 457.914C-104.545 460.286 -115.846 462.159 -115.854 462.073C-115.882 462.011 -111.6 459.708 -106.346 456.981ZM475.006 964.602C475.297 964.262 494.892 933.701 498.823 927.489C499.063 927.066 500.94 924.159 502.944 921.007C504.972 917.876 507.386 914.055 508.38 912.512C509.355 910.992 512.393 906.253 515.133 902.004C517.872 897.755 520.573 893.552 521.154 892.635C523.096 889.509 525.909 885.127 535.757 869.811C541.178 861.381 545.791 854.183 546.015 853.825C546.347 853.246 546.581 853.211 547.645 853.532C548.799 853.891 550.882 853.828 552.135 853.408C552.613 853.228 553.251 854.048 558.214 861.155C561.257 865.523 566.874 873.62 570.736 879.119C574.578 884.64 577.751 889.236 577.74 889.344C577.752 889.472 576.514 890.493 574.965 891.641C573.435 892.765 569.716 895.549 566.657 897.798C560.461 902.387 540.761 916.932 531.925 923.422C521.481 931.128 502.889 944.853 492.574 952.551C489.538 954.82 485.651 957.657 483.939 958.901C482.227 960.144 479.793 961.947 478.504 962.885C477.215 963.823 475.969 964.758 475.705 964.925C475.215 965.212 474.677 964.988 475.006 964.602ZM391.441 880.447C384.716 871.794 365.794 847.456 362.404 843.067C361.664 842.081 357.099 836.217 352.265 830.004C344.468 820.043 339.903 814.179 333.495 805.915C326.946 797.53 325.686 795.824 325.864 795.663C326.085 795.499 343.368 784.303 374.023 764.492C381.713 759.532 391.31 753.338 395.326 750.73L402.67 745.985L404.196 746.858C405.082 747.341 406.015 747.863 406.331 748.016C406.827 748.243 406.696 751.624 405.562 769.564C404.823 781.251 403.577 801.411 402.785 814.347C401.992 827.283 401.218 839.961 401.053 842.527C400.889 845.093 400.254 855.614 399.599 865.921L398.456 884.679L397.23 884.926C396.553 885.053 395.889 885.308 395.753 885.467C395.598 885.648 395.372 885.533 395.051 885.102C394.804 884.773 393.203 882.659 391.441 880.447ZM69.114 595.849C50.2744 569.894 -30.599 458.145 -31.821 456.394C-32.5182 455.405 -32.5264 455.32 -31.7706 454.436L-30.9567 453.484L-18.4916 459.315C21.7163 478.077 53.2944 492.834 56.3375 494.259C58.2338 495.174 74.8695 502.962 93.3036 511.543C171.266 547.948 176.384 550.363 176.246 550.715C175.968 551.42 176.248 554.13 176.695 554.984C177.198 555.962 177.144 556.073 175.478 557.356C174.857 557.846 170.976 560.961 166.92 564.281C162.841 567.581 155.761 573.298 151.22 576.948C146.66 580.621 139.301 586.57 134.822 590.195C130.366 593.84 125.305 597.909 123.625 599.258C121.925 600.629 118.722 603.188 116.545 604.975C114.325 606.765 110.444 609.88 107.925 611.925C105.406 613.969 101.626 617.014 99.5686 618.708L95.8116 621.773L94.6678 621.07C94.0276 620.68 92.8226 620.238 91.9886 620.074C90.4959 619.779 88.0988 620.162 87.595 620.751C87.44 620.932 87.2177 620.86 87.018 620.572C86.8651 620.323 78.806 609.196 69.114 595.849ZM97.8481 628.458C97.9909 628.148 97.9749 627.075 97.8385 626.096C97.6981 625.073 97.6748 624.151 97.7717 624.038C97.8686 623.924 99.7602 622.756 101.963 621.461C104.166 620.167 110.707 616.265 116.515 612.795C122.279 609.328 128.984 605.33 131.393 603.937C133.778 602.524 145.762 595.39 158.006 588.046C170.25 580.703 180.424 574.689 180.572 574.658C180.763 574.625 180.36 584.874 179.66 597.418C179.002 609.959 177.997 628.128 177.48 637.847C176.713 652.178 176.422 655.461 175.959 655.575C174.337 655.953 172.88 656.708 171.98 657.666C171.298 658.416 170.809 658.704 170.497 658.594C170.251 658.502 164.56 656.187 157.84 653.462C151.119 650.737 142.987 647.433 139.742 646.149C136.497 644.866 127.268 641.135 119.226 637.868C111.183 634.601 103.168 631.397 101.401 630.71C97.6878 629.262 97.5512 629.185 97.8481 628.458ZM401.276 869.513C401.799 861.212 402.384 851.746 402.592 848.512C402.821 845.254 403.292 837.536 403.667 831.305C404.024 825.097 404.667 814.662 405.076 808.107C405.486 801.552 406.083 791.313 406.463 785.361C406.825 779.432 407.497 768.629 407.927 761.386C408.357 754.142 408.804 748.208 408.91 748.18C409.104 748.19 409.946 751.146 414.294 767.182C415.484 771.534 420.173 788.882 424.77 805.72C429.344 822.538 433.882 839.208 434.819 842.716C435.78 846.244 437.009 850.787 437.547 852.816C438.819 857.357 440.847 864.858 442.765 871.872L444.172 877.155L441.598 877.936C440.174 878.367 431.482 880.939 422.268 883.694L405.555 888.669L403.964 887.112C403.085 886.243 402.018 885.449 401.593 885.281C401.149 885.137 400.677 884.929 400.559 884.829C400.419 884.709 400.753 877.815 401.276 869.513ZM-174.945 378.912C-175.307 378.053 -176.008 377.022 -176.477 376.621L-177.321 375.9L-174.338 370.132C-172.681 366.959 -168.531 358.973 -165.131 352.385C-153.513 329.872 -151.492 325.99 -146.195 315.806C-143.282 310.215 -140.079 304.048 -139.082 302.075C-138.105 300.125 -135.489 295.025 -133.267 290.765C-131.069 286.485 -127.43 279.474 -125.197 275.106C-122.96 270.781 -120.12 265.323 -118.941 262.996C-117.74 260.688 -113.173 251.881 -108.811 243.409C-103.556 233.228 -100.731 228.072 -100.493 228.079C-100.275 228.109 -100.171 228.747 -100.207 229.501C-100.364 231.25 -104.488 272.293 -106.923 296.026C-107.952 306.249 -109.355 320.232 -110.06 327.084C-114.603 372.319 -115.404 380.187 -115.563 380.325C-115.68 380.461 -174.093 380.621 -174.257 380.481C-174.257 380.481 -174.583 379.77 -174.945 378.912ZM108.048 614.344C110.306 612.509 114.525 609.094 117.444 606.724C124.624 600.936 126.825 599.169 133.023 594.15C135.942 591.781 141.562 587.248 145.521 584.042C149.48 580.835 156.059 575.514 160.138 572.214C164.194 568.894 168.354 565.547 169.313 564.758C170.295 563.989 172.698 562.08 174.658 560.5C176.598 558.942 178.24 557.639 178.302 557.613C178.388 557.608 178.841 557.838 179.321 558.131C179.782 558.446 180.503 558.789 180.929 558.956C181.354 559.123 181.701 559.381 181.718 559.552C181.735 559.959 181.12 570.694 181.03 571.558C180.97 572.056 178.636 573.552 169.464 579.011C163.125 582.771 149 591.175 138.077 597.686C127.153 604.197 115.006 611.427 111.114 613.749C107.221 616.07 103.993 617.9 103.985 617.815C103.977 617.73 105.832 616.177 108.048 614.344ZM309.128 774.606L297.424 759.578L298.112 758.44C298.464 757.839 298.896 756.717 299.045 756.021C299.286 754.932 299.432 754.665 299.942 754.591C300.576 754.466 348.256 749.014 351.817 748.646C352.841 748.54 363.856 747.286 376.319 745.857C403.969 742.662 401.17 742.897 401.403 743.764C401.554 744.442 400.968 744.843 386.99 753.882C378.954 759.056 361.749 770.162 348.746 778.583C335.743 787.004 324.969 793.957 324.806 794.053C324.418 794.27 324.077 793.861 309.128 774.606ZM183.899 664.089L184.217 662.91L201.105 661.812C210.394 661.2 233.553 659.697 252.578 658.425C271.603 657.154 287.218 656.263 287.254 656.411C287.364 656.662 288.033 672.967 289.679 713.763C289.991 721.563 290.424 732.212 290.632 737.333C290.843 742.496 291.001 746.868 290.979 747.085C290.933 747.281 290.366 747.659 289.705 747.957C289.04 748.213 288.345 748.599 288.151 748.826C287.977 749.03 287.713 749.196 287.557 749.141C287.186 749.1 282.569 745.387 256.568 724.296C253.931 722.159 250.102 719.042 248.051 717.406C246 715.77 241.843 712.373 238.831 709.916C235.795 707.438 231.9 704.304 230.197 702.926C228.451 701.551 224.528 698.354 221.445 695.836C218.363 693.319 214.581 690.242 213.046 689.047C211.53 687.83 207.142 684.275 203.337 681.179C199.508 678.062 194.417 673.906 191.949 671.952C189.499 669.975 186.631 667.681 185.538 666.824L183.623 665.266L183.899 664.089ZM183.591 660.177C183.617 660.004 183.206 659.298 182.685 658.579C181.769 657.324 181.764 657.282 182.419 656.468C182.826 655.992 183.438 655.182 183.818 654.643C184.534 653.568 187.073 649.933 195.955 637.361C199.025 632.963 201.89 628.9 202.304 628.273C202.947 627.332 204.825 624.661 210.16 617.138C210.753 616.35 211.984 614.578 212.932 613.231C213.881 611.884 215.151 610.067 215.778 609.191C216.405 608.315 217.578 606.61 218.43 605.377C219.262 604.166 220.59 602.281 221.372 601.223C222.131 600.146 222.987 598.955 223.269 598.53C223.509 598.107 224.686 596.445 225.824 594.829C226.963 593.213 228.295 591.37 228.767 590.675C229.22 590.003 231.404 586.927 233.607 583.828C235.79 580.751 237.858 577.811 238.156 577.32C238.477 576.85 239.27 575.684 239.956 574.74C241.443 572.716 246.585 565.42 247.641 563.852C248.079 563.245 248.872 562.08 249.441 561.272C250.034 560.484 251.854 557.881 253.526 555.544C255.199 553.208 257.185 550.316 257.978 549.15C258.772 547.985 259.945 546.281 260.63 545.336C262.23 543.134 265.188 538.914 268.413 534.335C269.814 532.316 271.959 529.285 273.155 527.601C274.352 525.917 275.606 524.165 275.904 523.674C276.225 523.203 277.116 521.924 277.898 520.867L279.284 518.913L280.524 519.267C281.963 519.673 281.816 519.038 282.073 525.809C282.216 530.247 285.927 622.125 286.177 628.145C286.733 640.548 287.221 654.029 287.143 654.119C286.891 654.414 184.167 661.022 183.862 660.762C183.674 660.602 183.564 660.35 183.591 660.177ZM179.527 634.693C180.159 623.464 180.712 612.991 180.823 611.437C180.929 609.841 181.415 600.919 181.902 591.567C182.409 582.192 182.856 574.218 182.924 573.805C183.015 573.177 184.864 572.011 197.501 564.493C205.472 559.774 226.542 547.186 244.372 536.537C262.183 525.91 276.945 517.188 277.116 517.177C277.887 517.13 277.568 518.073 276.177 519.984C275.36 521.13 274.392 522.499 274.013 523.038C273.657 523.597 272.402 525.349 271.264 526.965C270.126 528.581 267.528 532.284 265.476 535.159C263.447 538.054 261.38 540.995 260.927 541.667C260.455 542.362 258.747 544.786 257.133 547.054C255.522 549.365 253.815 551.789 253.339 552.441C252.866 553.136 249.451 557.985 245.75 563.216C242.029 568.47 238.638 573.339 238.162 573.991C237.689 574.685 233.481 580.699 228.773 587.345C224.088 594.012 219.837 600.028 219.384 600.7C218.912 601.395 216.334 605.076 213.596 608.895C210.882 612.734 207.92 616.91 207.053 618.209C206.163 619.488 204.08 622.494 202.407 624.83C200.758 627.186 199.128 629.52 198.807 629.991C198.485 630.461 197.196 632.302 195.961 634.031C193.773 637.065 189.127 643.686 187.327 646.266C185.794 648.486 180.687 655.694 180.416 656.011C180.125 656.351 178.484 655.85 178.462 655.4C178.427 655.252 178.919 645.943 179.527 634.693ZM298.391 751.421C298.077 750.839 297.58 750.139 297.275 749.878C296.689 749.377 296.411 749.845 303.338 739.369C304.395 737.801 305.579 735.988 305.993 735.362C306.407 734.735 307.947 732.364 309.453 730.081C310.958 727.798 312.445 725.537 312.742 725.046C313.064 724.576 314.589 722.27 316.129 719.899C317.673 717.57 321.361 711.975 324.314 707.477C327.29 702.999 331.842 696.061 334.473 692.034C337.109 688.049 341.06 682.051 343.219 678.718C345.402 675.406 349.392 669.362 352.063 665.29C354.756 661.237 357.144 657.59 357.365 657.189C357.721 656.631 357.931 656.575 358.648 656.875C359.14 657.059 360.359 657.2 361.391 657.179L363.24 657.152L366.058 662.543C367.593 665.542 370.364 670.893 372.213 674.474C375.651 681.18 380.745 691.028 389.345 707.6C392.056 712.782 396.358 721.089 398.921 726.066L403.592 735.081L402.376 736.788C401.535 737.913 401.049 738.91 400.916 739.777C400.741 740.883 400.59 741.107 400.104 741.201C399.766 741.265 389.264 742.488 376.798 743.873C364.311 745.282 352.082 746.675 349.591 746.977C332.489 748.991 299.202 752.703 299.085 752.603C298.991 752.523 298.682 751.983 298.391 751.421ZM292.673 740.451C292.537 736.765 292.343 732.008 292.225 729.868C292.15 727.724 291.571 713.733 290.965 698.778C290.36 683.822 289.723 668.095 289.531 663.811L289.203 656.077L297.032 655.512C301.353 655.204 315.928 654.248 329.456 653.377C351.631 651.934 354.052 651.807 354.218 652.42C354.317 652.779 354.741 653.613 355.191 654.272C355.642 654.932 356.018 655.489 356.046 655.552C356.058 655.68 352.621 660.981 346.224 670.695C344.305 673.604 341.557 677.768 340.109 679.983C338.662 682.198 333.751 689.651 329.196 696.546C324.64 703.44 317.926 713.667 314.261 719.283C310.573 724.878 307.283 729.913 306.904 730.451C306.548 731.01 305.062 733.271 303.614 735.486C298.239 743.719 295.22 748.2 295.111 748.185C294.523 748.114 293.356 747.626 293.165 747.423C293.02 747.26 292.809 744.137 292.673 740.451ZM441.185 858.909C439.268 851.895 436.374 841.182 434.722 835.14C433.07 829.098 428.405 812.006 424.385 797.152C420.321 782.3 415.7 765.206 414.048 759.164C412.395 753.122 411.008 748.052 410.992 747.881C410.975 747.71 411.378 747.192 411.898 746.773L412.833 745.964L414.521 747.171C416.325 748.478 418.34 749.966 422.121 752.806C423.469 753.841 424.859 754.872 425.226 755.108C425.593 755.343 427.406 756.736 429.289 758.188C431.152 759.664 432.89 760.954 433.116 761.069C433.343 761.184 434.804 762.276 436.358 763.448C437.893 764.643 440.467 766.569 442.041 767.718C445.513 770.255 447.947 772.061 450.732 774.167C452.521 775.54 455.813 778.002 465.809 785.488C466.828 786.242 468.336 787.374 469.168 787.967C469.98 788.584 471.648 789.813 472.878 790.748C474.085 791.662 475.757 792.934 476.589 793.528C478.026 794.6 479.229 795.471 483.541 798.687C484.631 799.501 490.474 803.869 496.528 808.417C502.602 812.943 508.168 817.113 508.929 817.646C509.671 818.202 511.292 819.392 512.523 820.326C513.73 821.24 516.304 823.166 518.206 824.596C524.026 828.944 525.068 829.718 527.365 831.446C528.591 832.338 530.005 833.39 530.49 833.725C530.974 834.061 532.712 835.351 534.317 836.606C535.923 837.861 537.755 839.231 538.38 839.686C542.902 842.846 543.418 843.287 543.011 843.763C542.798 844.013 542.529 845.039 542.432 846.054L542.26 847.869L536.018 849.712C528.624 851.904 529.25 851.694 499.875 860.515C487.165 864.322 473.533 868.399 469.593 869.543C465.657 870.729 458.913 872.731 454.642 874.023C450.329 875.318 446.642 876.403 446.389 876.461C446.051 876.525 445.775 875.897 445.305 874.122C444.941 872.791 443.083 865.945 441.185 858.909ZM692.826 1067.26C690.746 1063.29 688.007 1058.04 686.763 1055.6C685.476 1053.17 682.414 1047.26 679.914 1042.49C677.414 1037.73 675.017 1033.13 674.635 1032.29C674.211 1031.46 673.811 1030.64 673.686 1030.46C673.56 1030.27 674.431 1029.92 675.867 1029.62C677.174 1029.32 686.079 1027.4 695.615 1025.31C705.174 1023.25 714.796 1021.15 717.033 1020.67C719.251 1020.22 728.891 1018.1 738.451 1016.03C760.288 1011.28 765.545 1010.17 765.638 1010.25C765.685 1010.29 765.987 1010.74 766.293 1011.24L766.834 1012.17L764.542 1014.57C763.266 1015.87 761.657 1017.51 760.947 1018.2C760.237 1018.89 757.054 1022.09 753.87 1025.29C750.686 1028.5 747.463 1031.74 746.695 1032.5C745.419 1033.8 732.393 1046.95 728.72 1050.67C727.797 1051.61 726.672 1052.69 726.257 1053.08C725.842 1053.47 724.446 1054.87 723.213 1056.17C721.961 1057.49 720.506 1058.95 719.975 1059.48C717.706 1061.66 704.443 1075.04 703.842 1075.74C703.493 1076.15 703.26 1076.18 702.838 1075.82C701.927 1075.08 699.791 1074.59 698.328 1074.83C697.561 1074.92 696.849 1074.9 696.77 1074.75C696.649 1074.61 694.906 1071.24 692.826 1067.26ZM-112.475 370.02C-111.932 364.638 -110.617 351.756 -109.577 341.425C-108.513 331.114 -107.046 316.439 -106.263 308.831C-105.5 301.245 -104.238 288.709 -103.463 281.015C-102.689 273.321 -101.184 258.365 -100.125 247.775L-98.1902 228.518L-96.9993 228.359C-96.3416 228.255 -95.5483 227.991 -95.2066 227.734C-94.4806 227.217 -94.6681 227.057 -91.9171 230.39C-90.6573 231.859 -86.6739 236.599 -83.0076 240.949C-75.4322 249.937 -67.7865 258.985 -57.613 271.056C-44.767 286.316 -34.9807 297.939 -24.9795 309.785C-19.564 316.219 -11.5779 325.676 -7.25405 330.824C-2.93432 335.93 2.67684 342.61 5.24749 345.632C7.7753 348.656 12.2673 353.987 15.2059 357.48C18.1446 360.974 22.7772 366.425 25.4967 369.653C28.1926 372.86 30.5799 375.764 30.7602 376.075C30.9916 376.469 30.9038 376.904 30.5049 377.465C30.203 377.913 29.8052 378.711 29.7062 379.254C29.4918 380.169 29.4103 380.217 28.5109 380.272C27.9736 380.284 16.8835 380.297 3.81135 380.302C-9.24146 380.284 -21.3868 380.297 -23.1935 380.322C-25.0003 380.347 -35.4246 380.34 -46.3627 380.365C-57.305 380.347 -67.7058 380.361 -69.5126 380.386C-87.8917 380.522 -113.273 380.4 -113.36 380.169C-113.419 380.001 -113.013 375.444 -112.475 370.02ZM667.375 1018.47L663.372 1010.81L664.411 1009.5C664.988 1008.78 665.614 1007.67 665.791 1007.03C666.01 1006.4 666.199 1005.89 666.242 1005.89C666.308 1005.91 671.986 1006.05 678.852 1006.23C685.718 1006.42 692.541 1006.6 693.966 1006.64C695.392 1006.68 701.046 1006.81 706.487 1006.95C711.947 1007.07 724.899 1007.39 735.282 1007.64C745.645 1007.9 756.479 1008.14 759.33 1008.23C762.176 1008.27 764.108 1008.43 763.607 1008.59C762.557 1008.87 687.503 1025.17 676.839 1027.39L672.513 1028.32L671.936 1027.24C671.641 1026.63 669.565 1022.7 667.375 1018.47ZM642.332 978.935C635.34 968.838 627.181 957.116 624.255 952.848C621.309 948.604 617.866 943.659 616.597 941.868C609.316 931.445 580.703 890.151 580.667 890.003C580.674 889.852 608.432 869.251 625.403 856.807C628.664 854.417 635.144 849.638 639.81 846.174C644.477 842.709 652.101 837.066 656.768 833.601L665.239 827.348L666.262 827.908C666.832 828.238 667.772 828.611 668.345 828.747C669.315 828.989 669.386 829.049 669.412 829.777C669.429 830.185 669.093 835.704 668.683 842.023C668.253 848.364 667.823 854.705 667.767 856.148C667.668 857.593 667.472 861.192 667.258 864.148C667.068 867.124 666.229 880.256 665.387 893.346C664.544 906.435 663.706 919.568 663.516 922.544C663.302 925.499 663.054 929.682 662.915 931.838C662.776 933.995 662.403 940.032 662.082 945.249C661.737 950.447 660.862 964.097 660.121 975.548C659.381 986.999 658.732 996.683 658.683 997.073C658.588 997.659 658.366 997.823 657.301 998.167C656.25 998.446 655.947 998.422 655.551 997.888C655.281 997.539 649.343 989.01 642.332 978.935ZM665.688 1002.79C665.428 1002.09 665.2 1001.51 665.192 1001.42C665.16 1001.32 666.701 1000.08 688.259 983.127C695.471 977.445 706.169 969.014 712.018 964.403C717.868 959.793 724.8 954.342 727.424 952.27C730.048 950.198 733.173 947.729 734.333 946.799C735.513 945.846 736.663 945.024 736.892 944.946C737.164 944.865 738.129 946.395 740.267 950.302C741.915 953.359 748.976 966.223 755.959 978.941L768.65 1002.07L767.724 1003.2C767.182 1003.84 766.5 1004.82 766.148 1005.42L765.518 1006.49L733.222 1005.68C715.455 1005.24 699.414 1004.83 697.58 1004.79C695.746 1004.75 687.934 1004.58 680.25 1004.41C672.567 1004.24 666.242 1004.09 666.219 1004.07C666.176 1004.07 665.948 1003.48 665.688 1002.79ZM661.37 985.718C661.775 979.12 662.819 962.946 663.673 949.749C664.55 936.571 665.344 924.107 665.449 922.039C665.577 919.99 666.576 904.249 667.698 887.083C668.796 869.896 670.089 849.777 670.546 842.36L671.394 828.883L672.355 828.566L673.319 828.293L680.852 842.03C684.994 849.573 692.919 864.038 698.466 874.116C703.994 884.217 709.855 894.877 711.471 897.829C713.088 900.78 719.29 912.085 725.28 922.974C731.271 933.863 736.171 942.799 736.175 942.842C736.179 942.884 733.679 944.906 730.594 947.329C727.508 949.752 721.119 954.804 716.391 958.53C711.663 962.256 706.136 966.632 704.09 968.218C702.068 969.824 698.081 972.968 695.256 975.181C692.453 977.415 689.647 979.605 689.045 980.072C688.443 980.538 685.637 982.729 682.835 984.963C680.009 987.176 674.621 991.437 670.833 994.396L663.982 999.799L662.881 999.093C662.287 998.743 661.542 998.38 661.277 998.31C660.993 998.263 660.739 998.086 660.684 997.96C660.652 997.855 660.945 992.338 661.37 985.718ZM183.321 565.082C183.473 562.151 183.626 559.693 183.704 559.602C183.762 559.534 184.431 559.322 185.185 559.104C188.021 558.35 190.177 555.211 189.935 552.219L189.801 550.809L199.862 546.778C205.36 544.573 219.176 539.045 230.525 534.506C241.873 529.966 255.546 524.512 260.895 522.337C266.248 520.205 270.649 518.475 270.634 518.541C270.666 518.646 217.257 550.547 197.926 561.954C191.668 565.666 185.822 569.182 184.909 569.775C184.04 570.365 183.258 570.756 183.184 570.653C183.129 570.528 183.193 568.032 183.321 565.082ZM288.645 641.397C288.399 634.517 288.126 627.811 288.039 626.442C287.896 623.808 287.698 619.245 285.603 566.491C284.838 547.829 284.128 530.194 283.999 527.26C283.647 519.269 283.637 519.614 284.438 519.436C285.197 519.26 285.22 519.28 288.782 525.7C289.665 527.278 296.493 539.275 303.941 552.352C320.464 581.348 337.176 610.74 346.495 627.182C350.304 633.93 354.104 640.592 354.927 642.002L356.394 644.511L355.375 645.798C354.74 646.589 354.214 647.63 354.015 648.48L353.717 649.873L321.569 651.97C303.891 653.137 289.355 654.048 289.284 653.988C289.19 653.908 288.91 648.255 288.645 641.397ZM573.914 880.385C570.941 876.078 565.301 867.96 561.427 862.333L554.337 852.113L555.165 850.86C556.048 849.495 556.359 848.467 556.299 847.16C556.253 846.218 551.693 847.184 621.077 833.101C663.46 824.493 664.604 824.294 663.723 825.894C663.595 826.138 655.272 832.361 645.271 839.739C635.246 847.097 625.851 854.052 624.383 855.151C622.897 856.273 616.96 860.653 611.168 864.96C588.328 881.801 579.717 888.171 579.62 888.284C579.465 888.465 579.684 888.731 573.914 880.385ZM414.134 744.016C414.203 743.84 423.074 745.853 433.794 748.505C444.556 751.154 454.39 753.559 455.692 753.888C458.822 754.641 465.238 756.203 471.79 757.843C474.726 758.587 478.651 759.55 480.502 759.995C482.354 760.44 486.037 761.353 488.727 762.005C491.397 762.679 499.006 764.554 505.644 766.189C517.907 769.219 520 769.714 534.8 773.383C539.408 774.497 547.437 776.497 552.684 777.766C561.24 779.863 563.022 780.484 562.44 781.164C562.344 781.277 561.796 783.674 561.2 786.46C559.389 795.033 558.813 797.796 556.286 809.486C554.937 815.668 553.619 821.957 553.306 823.415C552.287 828.547 551.19 833.769 550.51 836.796L549.805 839.803L548.653 839.917C547.372 840.038 546 840.552 544.952 841.303C544.591 841.583 544.147 841.675 543.983 841.534C543.702 841.294 530.695 831.586 527.59 829.285C526.617 828.571 523.278 826.069 520.169 823.725C517.017 821.383 513.861 818.998 513.099 818.465C512.357 817.909 510.783 816.76 509.623 815.885C507.068 813.937 500.694 809.193 498.491 807.545C497.608 806.869 496.034 805.719 495.015 804.966C493.996 804.212 492.211 802.882 491.051 802.008C489.891 801.134 487.664 799.466 486.09 798.316C484.516 797.167 482.059 795.341 480.641 794.246C479.224 793.152 477.556 791.922 476.931 791.466C476.306 791.01 474.638 789.781 473.22 788.686C471.802 787.591 470.135 786.362 469.51 785.906C468.885 785.45 467.311 784.301 466.033 783.326C464.756 782.352 463.065 781.102 462.323 780.546C460.749 779.397 460.214 778.978 447.598 769.526C442.426 765.654 436.677 761.366 434.845 759.996C433.013 758.626 430.486 756.741 429.279 755.826C428.049 754.892 426.592 753.843 426.037 753.447C425.483 753.052 423.745 751.762 422.19 750.59C420.655 749.395 418.429 747.727 417.249 746.875C414.425 744.814 413.976 744.391 414.134 744.016ZM757.881 978.544C744.123 953.482 742.248 950.074 740.082 946.104C738.784 943.778 738.638 943.378 739.104 943.071C739.407 942.859 741.352 941.344 743.432 939.67C748.637 935.528 752.084 932.825 761.582 925.37C771.663 917.472 781.297 909.859 784.74 907.113C786.16 905.974 787.523 904.902 787.748 904.781C788.171 904.476 791.059 905.846 791.065 906.361C791.057 906.512 790.197 911.269 789.098 916.921C788 922.572 784.465 941.089 781.236 958.063C778.007 975.036 774.839 991.747 774.175 995.182L772.982 1001.42L771.829 1001.53C771.211 1001.59 770.626 1001.56 770.533 1001.48C770.462 1001.42 764.762 991.097 757.881 978.544ZM776.363 1002.78C775.742 1002.37 775.126 1002 775.021 1002.03C774.826 1002.02 775.21 999.715 777.605 987.325C778.478 982.697 780.03 974.568 781.056 969.286C782.058 963.984 784.956 948.728 787.518 935.382C790.057 922.017 792.341 910.042 792.566 908.782C792.786 907.48 793.047 906.369 793.105 906.301C793.206 906.23 793.645 906.096 794.112 906.024L794.96 905.886L797.763 911.343C799.278 914.364 806.909 929.363 814.678 944.675C822.446 959.987 831.754 978.341 835.334 985.403C838.937 992.486 841.843 998.344 841.765 998.435C841.707 998.503 834.733 999.445 826.306 1000.52C817.861 1001.62 803.838 1003.4 795.136 1004.51L779.307 1006.55L778.409 1005.04C777.821 1004.07 777.125 1003.31 776.363 1002.78ZM729.007 925.925C724.292 917.342 719.313 908.26 717.928 905.703C714.091 898.656 690.847 856.303 687.937 851.069C675.25 828.217 674.776 827.301 675.318 826.667C675.803 826.1 675.935 826.135 677.313 827.039C678.122 827.612 680.23 828.944 681.971 830.04C688.682 834.247 692.668 836.753 704.536 844.232C711.294 848.479 720.617 854.331 725.266 857.247C734.815 863.214 749.248 872.297 755.756 876.41C758.142 877.939 762.834 880.852 766.18 882.968C769.522 885.04 773.028 887.253 773.969 887.861C774.91 888.469 777.955 890.366 780.75 892.128C783.564 893.868 785.997 895.437 786.184 895.598C786.372 895.758 786.331 896.233 786.115 896.676C785.566 897.698 785.645 900.786 786.273 901.95C786.512 902.43 786.608 902.982 786.472 903.141C786.123 903.549 782.238 906.622 743.616 937.081C738.59 941.061 737.743 941.672 737.626 941.572C737.579 941.531 733.699 934.487 729.007 925.925ZM829.44 969.654C805.185 921.886 796.874 905.404 796.838 905.02C796.79 904.743 797.11 904.939 797.736 905.631C798.245 906.222 800.321 908.351 802.37 910.416C804.395 912.462 806.612 914.71 807.257 915.38C809.741 917.934 810.648 918.867 812.145 920.343C813.572 921.759 814.765 922.975 816.916 925.206C817.393 925.693 818.445 926.788 819.301 927.638C820.134 928.467 821.209 929.583 821.686 930.069C822.163 930.556 823.215 931.651 824.071 932.501C824.904 933.331 826.073 934.526 826.691 935.133C827.266 935.742 831.559 940.119 836.232 944.859C840.881 949.58 845.221 953.997 845.867 954.666C846.965 955.801 850.563 959.426 853.28 962.181C856.494 965.4 860.002 968.987 862.938 972.008C864.725 973.81 866.942 976.059 867.826 976.971C869.824 978.954 873.926 983.128 875.099 984.366C875.576 984.852 876.698 986.008 877.601 986.898C879.889 989.207 880.163 989.598 879.775 990.051C879.582 990.278 879.262 991.221 879.048 992.136L878.626 993.816L861.264 996.038L843.945 998.258L840.498 991.467C838.614 987.737 833.652 977.924 829.44 969.654Z" fill="url(#paint0_linear_41_199)"/>
</g>
<defs>
<linearGradient id="paint0_linear_41_199" x1="445.048" y1="554.63" x2="-12.4981" y2="1089.8" gradientUnits="userSpaceOnUse">
<stop stop-color="white"/>
<stop offset="1" stop-color="#460085"/>
</linearGradient>
<clipPath id="clip0_41_199">
<rect width="1284.75" height="1242" fill="white" transform="translate(243.507 1778.89) rotate(-139.471)"/>
</clipPath>
</defs>
</svg>
