<svg width="690" height="421" viewBox="0 0 690 421" fill="none" xmlns="http://www.w3.org/2000/svg">
<path d="M1065.69 -77.3506C1062.62 -77.9266 1059.87 -76.1338 1059.32 -73.2456C1059.17 -72.47 1061.98 -72.7621 1037.89 -70.9484C1031.41 -70.4471 1023.99 -69.8859 1021.42 -69.7058C1018.85 -69.495 1010.51 -68.8739 1002.88 -68.313C995.241 -67.7317 985.789 -67.0101 981.854 -66.6992C977.92 -66.3883 973.225 -66.0376 971.411 -65.8973C969.606 -65.7773 965.101 -65.4366 961.388 -65.1458C957.675 -64.855 951.441 -64.384 947.516 -64.0935C936.028 -63.2114 928.01 -62.6102 914.549 -61.588C907.597 -61.0567 899.136 -60.4154 895.738 -60.1751C892.352 -59.9043 889.415 -59.7961 889.198 -59.8985C888.991 -60.0213 888.77 -60.0012 888.712 -59.8788C888.644 -59.736 887.932 -59.5737 887.162 -59.5135L885.706 -59.4033L886.54 -58.9836C887.103 -58.7174 887.303 -58.5231 887.139 -58.4008C886.397 -57.7281 848.04 -22.8393 840.682 -16.1326C835.834 -11.7091 830.732 -7.08172 829.39 -5.86883C828.048 -4.65591 824.47 -1.40453 821.442 1.35765L815.934 6.39277L814.852 5.88083C813.294 5.14363 812.094 5.05004 810.623 5.52778C809.737 5.83277 809.068 6.24017 808.443 6.94363L807.525 7.93255L804.911 7.02033C803.49 6.4977 802.167 6.04666 801.953 5.99531C801.749 5.92358 800.878 5.63651 800.005 5.29842C798.627 4.79623 797.401 4.36575 793.647 3.06401C793.142 2.89997 786.191 0.460574 778.207 -2.36816C754.644 -10.6702 753.257 -11.1519 752.655 -11.3365C752.333 -11.4391 751.515 -11.726 750.837 -11.972C748.233 -12.9046 732.998 -18.2651 732.267 -18.5111C731.6 -18.7264 731.512 -18.8184 731.537 -19.6554C731.618 -22.9628 728.256 -25.6524 724.834 -25.0243C723.354 -24.7507 722.267 -23.9662 721.462 -22.5995L720.743 -21.4163L707.675 -31.0203C700.488 -36.3184 692.282 -42.3733 689.413 -44.4803C686.543 -46.5872 681.853 -50.0545 678.94 -52.1819C665.235 -62.287 663.141 -63.8518 662.31 -64.4451C661.817 -64.8031 658.027 -67.5953 653.873 -70.6841C649.71 -73.7525 644.199 -77.8333 641.603 -79.7358C639.007 -81.6382 634.811 -84.7474 632.28 -86.6191C629.749 -88.4908 625.86 -91.3546 623.627 -92.9605C619.3 -96.1311 616.495 -98.2074 612.145 -101.439C610.643 -102.575 605.79 -106.144 601.343 -109.397C596.918 -112.639 590.948 -117.037 588.078 -119.144C585.208 -121.251 577.923 -126.62 571.875 -131.08C565.818 -135.519 559.857 -139.937 558.62 -140.847C556.516 -142.392 554.05 -144.233 547.205 -149.245L544.563 -151.219L544.895 -152.535C545.294 -154.219 544.979 -155.567 543.778 -157.059C541.904 -159.369 538.621 -159.873 536.347 -158.202C534.574 -156.919 533.932 -155 534.491 -152.713L534.807 -151.365L533.331 -150.316C532.509 -149.755 530.038 -148.003 527.834 -146.424C525.618 -144.875 521.63 -142.043 518.954 -140.138C516.288 -138.253 513.007 -135.91 511.685 -134.962C510.341 -134.025 506.805 -131.478 503.78 -129.338C500.755 -127.199 497.198 -124.662 495.876 -123.715C494.553 -122.767 492.186 -121.066 490.606 -119.965C487.6 -117.867 466.93 -103.176 462.758 -100.18C461.436 -99.2328 460.051 -98.2649 459.692 -98.0102C459.321 -97.7861 457.886 -96.7673 456.513 -95.7689C453.786 -93.8127 450.855 -91.7038 448.517 -90.0635C447.695 -89.5032 443.656 -86.62 439.545 -83.696C425.18 -73.4876 409.862 -62.6067 404.633 -58.8881C401.731 -56.8403 398.01 -54.1812 396.369 -53.0096L393.407 -50.8904L392.801 -51.4017C391.59 -52.4242 389.307 -52.8052 387.651 -52.2154L386.63 -51.8494L385.434 -53.2394C383.959 -54.9361 376.707 -63.2865 374.716 -65.627C373.911 -66.5571 371.53 -69.3065 369.407 -71.7594C367.274 -74.192 364.165 -77.8102 362.477 -79.7827C360.778 -81.7349 358.319 -84.5967 356.978 -86.1299C352.967 -90.7497 352.14 -91.69 349.2 -95.1037C347.646 -96.9128 345.914 -98.9058 345.345 -99.5498C343.545 -101.625 340.605 -105.038 338.76 -107.185L336.971 -109.28L337.618 -110.647C338.6 -112.779 338.319 -114.535 336.733 -116.334C334.679 -118.654 330.702 -118.813 328.695 -116.642L328.059 -115.969L296.507 -130.897L264.955 -145.825L265 -146.928C265.225 -150.817 261.516 -153.67 257.759 -152.501C255.744 -151.881 254.633 -150.485 254.162 -148.035C254.063 -147.433 256.027 -147.777 234.765 -144.878C226.128 -143.695 213.25 -141.948 206.17 -140.978C199.09 -140.008 190.958 -138.886 188.106 -138.512C185.255 -138.139 180.468 -137.482 177.481 -137.047C172.558 -136.38 168.56 -135.824 152.01 -133.592C149.171 -133.187 143.426 -132.41 139.229 -131.823C131.665 -130.783 131.581 -130.772 131.332 -131.365C129.953 -134.44 125.784 -135.538 123.082 -133.52C120.615 -131.666 120.372 -128.41 122.503 -126.028L123.262 -125.17L122.351 -123.578C121.83 -122.701 121.123 -121.487 120.79 -120.896C120.436 -120.315 119.741 -119.07 119.222 -118.142C118.704 -117.214 118.035 -116.081 117.751 -115.592C117.466 -115.102 116.779 -113.929 116.231 -112.94C115.693 -111.971 114.948 -110.675 114.615 -110.084C114.075 -109.166 109.567 -101.261 106.727 -96.2117C106.238 -95.3447 105.589 -94.2533 105.304 -93.7637C104.998 -93.2843 103.312 -90.3365 101.529 -87.1847C99.7565 -84.0532 97.9739 -80.9014 97.5831 -80.1873C97.1707 -79.4836 96.4157 -78.1678 95.897 -77.2395C95.3784 -76.3113 94.691 -75.1383 94.3774 -74.5875C94.0735 -74.0571 93.005 -72.1905 92.0256 -70.4565C89.5966 -66.1622 89.5073 -66.0296 88.9231 -66.3061C88.156 -66.644 86.4428 -66.6056 85.3379 -66.2295C84.0042 -65.7618 83.0381 -64.8954 82.4589 -63.6713L81.9859 -62.6715L73.2158 -64.3989C68.3664 -65.3449 63.1009 -66.363 61.4989 -66.6715C59.8969 -66.98 51.8651 -68.5328 43.6626 -70.1164C35.4697 -71.7205 24.9917 -73.7565 20.378 -74.6409C15.7741 -75.5458 11.5453 -76.348 10.9896 -76.4611C10.0708 -76.6461 9.92396 -76.6157 9.67297 -76.0852C9.50886 -75.7384 9.49157 -75.4219 9.62141 -75.3605C9.75126 -75.2991 15.659 -74.127 22.7405 -72.7491C36.4756 -70.096 55.4881 -66.3941 59.89 -65.51C61.3741 -65.2323 65.5716 -64.4199 69.2351 -63.7104C82.4674 -61.1702 81.8901 -61.2935 82.012 -60.7115C82.0789 -60.4051 82.081 -60.1295 82.011 -60.0377C81.6449 -59.7116 36.8927 -41.9817 36.6547 -42.0943C36.5032 -42.166 35.2923 -43.4131 33.9542 -44.8952C32.6281 -46.3467 30.5549 -48.6261 29.3417 -49.9242C25.111 -54.4729 10.8625 -69.979 9.71187 -71.2975C9.05365 -72.0334 8.43139 -72.6774 8.32319 -72.7286C8.21499 -72.7798 7.98362 -72.5147 7.80986 -72.1475L7.50095 -71.4946L15.1742 -63.1946C31.0012 -46.0427 35.1476 -41.484 35.08 -41.3412C35.0221 -41.2187 32.9347 -40.3336 27.4963 -38.1873C26.4563 -37.7804 22.3395 -36.1325 18.3479 -34.5252C14.3564 -32.9179 11.0196 -31.5752 10.957 -31.5548C10.8944 -31.5345 10.5628 -31.8412 10.2265 -32.25C9.83501 -32.71 9.11387 -33.201 8.13041 -33.6413L6.63723 -34.3478L6.36664 -38.6459C6.21603 -41.0144 6.05841 -43.5361 5.99445 -44.2405C5.96178 -44.9552 5.63689 -49.9781 5.30298 -55.4298L4.70348 -65.3021L4.04004 -64.0678C3.28973 -62.6499 3.23871 -63.9975 4.42129 -46.2334C4.51792 -44.8143 4.72253 -41.4963 4.88481 -38.8725L5.16674 -34.0947L4.37242 -33.8712C1.45743 -33.028 -0.0198589 -29.6818 1.32129 -26.9747C2.04348 -25.5343 2.80524 -24.8493 4.48851 -24.1527C6.41948 -23.364 7.92593 -23.5252 9.46028 -24.697L10.5129 -25.5224L12.1959 -24.6012C13.1191 -24.0895 14.8044 -23.1174 15.9463 -22.4522C17.0883 -21.787 18.7303 -20.8354 19.5789 -20.334C20.4372 -19.853 22.0359 -18.9217 23.113 -18.2873C24.19 -17.6529 26.3104 -16.4249 27.789 -15.5755C29.2891 -14.7159 30.8662 -13.7949 31.323 -13.5289C31.7798 -13.2628 33.2703 -12.3828 34.6407 -11.5846C36.0206 -10.8068 37.5545 -9.90632 38.0665 -9.58914C38.9584 -9.06726 42.6127 -6.93878 45.2428 -5.44465C45.928 -5.04556 47.9402 -3.86877 49.7024 -2.83524C51.4646 -1.80171 55.0755 0.306292 57.7057 1.80042C60.3478 3.32518 65.1007 6.09834 68.2982 7.96076C71.5053 9.80278 74.7893 11.7062 75.5827 12.1564C76.3977 12.617 77.3665 13.2002 77.7584 13.4356C78.5204 13.896 80.0759 14.8067 82.3262 16.0962C83.0762 16.526 84.0884 17.1297 84.6101 17.4265C85.1318 17.7232 86.2521 18.3782 87.1104 18.8592C90.1636 20.5785 90.1853 20.5887 89.9816 21.6909C89.5719 23.8443 90.7356 26.1428 92.8897 27.4117C94.9019 28.5885 97.9174 28.0925 99.508 26.2981C99.8189 25.9208 100.228 25.6152 100.399 25.646C100.676 25.677 109.642 28.4459 117.783 30.9993C119.447 31.5121 124.858 33.1734 129.808 34.6913C134.779 36.2193 140.866 38.0756 143.336 38.8447C145.806 39.6138 148.878 40.5675 150.155 40.947C151.422 41.347 153.226 41.9007 154.161 42.2185C155.075 42.5261 157.115 43.1414 158.661 43.6234C160.196 44.0747 163.342 45.0388 165.629 45.7464C167.916 46.454 175.98 48.946 183.549 51.2535L197.303 55.489L197.53 56.7449C198.158 60.0635 202.094 62.1005 205.219 60.7574C207.429 59.7805 208.604 57.4649 208.061 55.0856L207.873 54.1972L218.611 48.9653C233.212 41.8401 242.137 37.4734 252.948 32.2007C257.981 29.7374 265.416 26.1138 269.507 24.1289C273.576 22.1339 278.225 19.864 279.831 19.1006C282.253 17.8995 282.795 17.7063 283.105 18.0027C283.314 18.1766 284.228 18.7087 285.148 19.1694L286.827 19.9884L286.997 22.3161C287.086 23.5821 287.327 26.992 287.491 29.8914C287.677 32.801 287.894 36.1496 288.003 37.3748C288.09 38.5897 288.264 41.2441 288.401 43.3064C289.665 62.857 289.995 67.5329 290.06 67.5636C290.125 67.5944 304.037 67.4098 312.5 67.2686C315.885 67.2224 320.551 67.1575 322.899 67.12C325.248 67.0825 329.86 67.0175 333.161 66.9814C336.472 66.9248 341.212 66.8702 343.688 66.8431C346.186 66.8262 349.064 66.7894 350.089 66.7501C351.126 66.7413 353.77 66.694 355.96 66.6563C358.171 66.6287 361.397 66.5823 363.154 66.5643C364.91 66.5464 369.417 66.4813 373.151 66.4253C376.886 66.3693 381.393 66.3043 383.149 66.2863C384.915 66.248 387.603 66.2211 389.148 66.2029C390.692 66.1847 395.791 66.1 400.5 66.0556C405.196 65.9806 409.145 65.9759 409.253 66.0271C409.361 66.0783 409.57 66.4767 409.716 66.8955C410.2 68.2232 410.888 68.898 412.532 69.6761C414.242 70.485 415.103 70.5679 416.812 69.9782L417.917 69.6021L420.8 72.689C422.371 74.4062 427.123 79.4763 431.32 83.984C435.527 88.4714 441.793 95.1565 445.221 98.8261C448.639 102.516 452.289 106.39 453.312 107.474C454.336 108.557 457.228 111.624 459.734 114.333L464.308 119.219L463.772 120.688C463.139 122.361 463.136 122.984 463.716 124.557C464.504 126.753 466.901 128.236 469.413 128.076C470.046 128.026 470.894 127.803 471.264 127.579C471.645 127.334 472.032 127.243 472.143 127.345C472.265 127.478 473.695 128.879 475.334 130.453C476.941 132.038 483.604 138.611 490.091 145.051C496.588 151.471 504.76 159.558 508.22 162.993C511.701 166.438 521.315 175.955 529.587 184.164C537.869 192.353 545.952 200.347 547.538 201.921C551.771 206.072 551.512 205.724 551.093 206.275C550.892 206.53 550.617 207.224 550.474 207.805C549.721 211.244 552.868 214.556 556.57 214.235C559.849 213.964 562.012 210.568 560.867 207.504L560.505 206.533L566.536 202.071C569.843 199.615 574.431 196.243 576.705 194.572C578.979 192.901 585.892 187.806 592.077 183.242C598.262 178.677 606.517 172.594 610.428 169.701L617.546 164.454L618.685 165.068C620.303 165.958 621.752 166.144 623.285 165.646C624.64 165.188 626.026 163.996 626.4 162.925C626.521 162.557 626.704 162.394 626.971 162.446C630.3 163.022 721.232 179.402 765.125 187.335C784.52 190.843 800.562 193.714 800.796 193.724C801.072 193.755 801.267 194.072 801.437 194.777C801.578 195.318 802.065 196.247 802.514 196.81C803.141 197.556 803.294 197.903 803.082 198.127C802.952 198.29 802.468 199.035 802.005 199.79C801.573 200.534 800.005 203.064 798.556 205.399C797.106 207.735 794.157 212.457 792.018 215.915C789.857 219.362 787.648 222.912 787.065 223.809C786.503 224.717 785.507 226.318 784.846 227.379C784.185 228.44 783.466 229.623 783.208 230C782.982 230.367 781.74 232.377 780.447 234.437C779.176 236.507 777.925 238.537 777.647 238.955C777.392 239.384 775.18 242.882 772.773 246.737C770.367 250.593 768.322 253.795 768.238 253.805C768.144 253.836 768.1 253.815 768.139 253.734C768.264 253.468 765.926 253.261 764.927 253.413C764.371 253.524 763.44 253.982 762.888 254.42C758.986 257.518 761.357 263.534 766.53 263.684C767.759 263.717 768.385 263.513 770.232 262.465C770.552 262.291 771.228 262.711 775.588 265.698C782.725 270.598 792.878 277.574 809.075 288.683C816.834 294.003 825.259 299.762 827.773 301.501C830.309 303.25 834.812 306.329 837.773 308.354C840.756 310.39 845.828 313.888 849.073 316.098C852.309 318.328 858.352 322.461 862.472 325.284C866.592 328.107 872.406 332.107 875.368 334.132C878.351 336.168 883.389 339.625 886.569 341.804C894.088 346.96 894.941 347.563 894.989 347.686C895.023 347.727 894.95 348.217 894.827 348.758C894.429 350.717 895.271 352.913 896.9 354.059L897.612 354.57L897.035 355.845C896.716 356.519 896.335 357.437 896.195 357.845C896.033 358.243 895.079 360.538 894.046 362.946C893.022 365.333 892.038 367.639 891.897 368.047C891.757 368.455 890.782 370.741 889.749 373.148C888.704 375.525 887.827 377.658 887.793 377.841C887.759 378.025 886.842 380.188 885.789 382.636C884.715 385.075 883.694 387.513 883.496 388.044C883.298 388.574 882.498 390.543 881.685 392.431C880.871 394.318 879.828 396.746 879.391 397.838C878.954 398.929 878.037 401.092 877.388 402.633C876.738 404.173 875.755 406.53 875.212 407.846L874.232 410.254L873.296 410.161C871.997 409.996 870.062 410.728 869.153 411.696C867.7 413.256 867.423 415.297 868.353 417.361C869.625 420.16 873.088 421.349 875.828 419.923C876.697 419.486 876.981 419.445 877.46 419.722C877.972 420.039 878.034 420.018 878.333 419.386C878.584 418.855 878.565 418.672 878.219 418.508C877.873 418.344 877.854 418.16 878.153 417.528C878.346 417.12 878.532 416.559 878.583 416.283C878.641 415.936 878.827 415.824 879.325 415.835C879.866 415.866 880.071 415.713 880.341 415.142C880.525 414.754 880.636 414.408 880.593 414.387C880.528 414.356 880.051 414.356 879.524 414.406L878.542 414.466L877.981 413.301C877.489 412.27 876.574 411.237 875.817 410.879C875.622 410.787 875.767 410.256 876.315 409.042C876.749 408.124 877.131 407.206 877.186 407.032C877.22 406.849 878.049 404.818 879.024 402.533C879.999 400.248 880.936 398.044 881.076 397.636C881.238 397.238 882.194 394.994 883.198 392.647C884.202 390.301 885.224 387.862 885.47 387.23C885.716 386.597 886.612 384.424 887.474 382.435C888.336 380.445 889.299 378.129 889.622 377.334C889.956 376.517 890.89 374.263 891.723 372.334C892.565 370.386 893.432 368.274 893.679 367.641C894.285 366.08 897.486 358.531 898.374 356.654C899.067 355.134 899.067 355.134 899.812 355.237C900.229 355.309 901.03 355.238 901.608 355.137L902.657 354.935L904.319 357.244C906.487 360.218 906.367 360.136 906.763 359.299C907.072 358.646 907.002 358.514 905.465 356.388L903.849 354.15L904.348 353.487C904.628 353.12 904.919 352.784 904.992 352.743C905.073 352.682 905.857 352.928 906.762 353.256C909.044 354.086 909.215 354.117 909.543 353.423C909.726 353.036 909.703 352.75 909.494 352.576C909.164 352.32 909.174 352.3 909.551 352.453C909.842 352.566 910.016 352.423 910.257 351.913L910.585 351.22L908.315 350.869C907.056 350.674 905.914 350.458 905.784 350.396C905.654 350.335 905.544 350.008 905.496 349.661C905.468 349.048 905.644 348.957 909.202 347.594C912.751 346.251 912.989 346.139 913.385 345.303C913.607 344.834 913.747 344.425 913.704 344.405C913.639 344.374 905.126 347.588 904.972 347.69C904.941 347.7 904.619 347.373 904.249 346.923C903.901 346.484 903.24 345.921 902.795 345.686C901.872 345.174 901.791 345.96 903.463 338.061C904.117 335 906.254 324.774 908.226 315.344C910.198 305.915 912.359 295.526 913.047 292.28C915.241 281.932 917.022 273.411 918.522 266.155C919.328 262.267 921.288 252.806 922.906 245.132C924.503 237.447 926.25 229.11 926.761 226.63C927.272 224.15 927.756 222.007 927.824 221.864C927.882 221.742 928.226 221.63 928.565 221.641C929.318 221.672 929.057 221.049 935.787 239.74C938.2 246.45 941.05 254.366 942.15 257.358C943.228 260.34 944.923 264.988 945.893 267.694L947.653 272.597L948.123 271.77C948.564 271.005 948.545 270.822 947.965 269.249C947.615 268.309 943.977 258.198 939.867 246.789C935.766 235.36 931.989 224.984 931.517 223.686C930.939 222.165 930.719 221.286 930.912 221.103C931.136 220.909 931.465 221.165 932.883 222.759C942.708 233.676 957.915 250.459 958.088 250.541C958.175 250.582 958.331 250.307 958.462 249.919C958.742 249.103 959.693 250.227 945.335 234.394C940.162 228.701 935.134 223.15 934.164 222.067L932.401 220.084L932.963 218.952C933.67 217.513 933.703 215.931 933.058 214.552C932.799 213.98 932.595 213.459 932.624 213.398C932.653 213.337 937.782 208.597 943.998 202.848C950.236 197.11 957.307 190.617 959.714 188.385C962.121 186.153 965.564 182.963 967.392 181.281C969.242 179.609 972.736 176.368 975.184 174.105C977.641 171.822 981.949 167.867 984.741 165.268L989.851 160.569L990.912 161.071C991.506 161.327 992.227 161.593 992.525 161.635C993.026 161.697 993.119 162.115 993.616 166.271C993.911 168.782 994.237 171.508 994.336 172.305L994.551 173.755L995.516 171.714L996.482 169.674L995.737 165.651L994.97 161.618L995.89 161.129C996.396 160.844 997.07 160.314 997.403 159.947L997.976 159.294L999.361 159.95L1000.77 160.615L1001.06 160.003C1001.34 159.411 1001.34 159.411 999.916 158.664L998.517 157.927L998.6 156.968C998.651 156.468 998.597 155.743 998.465 155.406L998.235 154.772L1001.73 152.981C1005.2 151.25 1005.25 151.199 1005.66 150.169L1006.08 149.118L1004.17 150.116C1003.12 150.665 1002.13 151.123 1002.02 151.144C1001.89 151.133 1002.97 150.247 1004.45 149.146C1006.98 147.272 1007.18 147.068 1007.79 145.782L1008.42 144.385L1007.71 144.925C1007.31 145.21 1004.75 147.095 1002.02 149.122L997.042 152.76L995.739 152.043C995.023 151.654 994.4 151.235 994.352 151.112C994.316 151.02 994.591 145.682 994.975 139.272C995.36 132.861 995.734 126.921 995.779 126.043C995.932 123.144 998.149 85.0395 999.02 70.2693C999.5 62.2565 1000.76 40.678 1001.85 22.3147C1003.27 -1.7544 1003.9 -11.0737 1004.15 -11.155C1004.4 -11.2363 1004.54 -11.1442 1004.66 -10.8378C1004.73 -10.6029 1008.25 -0.124243 1012.47 12.4584C1016.69 25.0205 1022.02 40.9223 1024.33 47.7856C1026.62 54.6386 1030.3 65.5156 1032.48 71.9907C1034.64 78.4352 1036.47 83.9197 1036.57 84.1648C1036.71 84.5325 1036.79 84.4714 1037.18 83.6552L1037.62 82.7167L1031.52 64.4965C1024.96 44.9894 1020.38 31.3855 1011.52 5.06618C1008.45 -4.07456 1005.99 -11.5811 1006.07 -11.6423C1006.12 -11.6932 1006.53 -11.9989 1006.96 -12.3454C1007.65 -12.8957 1007.76 -12.9159 1008.33 -12.4966C1008.69 -12.2511 1010.08 -11.3712 1011.42 -10.5118C1012.76 -9.6524 1016.7 -7.11521 1020.14 -4.88494C1028.33 0.434931 1036.1 5.43777 1046.11 11.8933C1057.69 19.372 1064.08 23.4949 1064.72 23.945C1065.22 24.2825 1065.28 24.2622 1065.57 23.6501L1065.89 22.9769L1063.21 21.2581C1061.72 20.3066 1057.68 17.7182 1054.21 15.4777C1047.31 11.0171 1040.99 6.92488 1027.54 -1.76095C1022.69 -4.90174 1017.22 -8.44155 1015.37 -9.63853C1013.53 -10.8355 1011.25 -12.3393 1010.27 -12.9532C1008.79 -13.9047 1008.51 -14.1603 1008.65 -14.4663C1008.74 -14.6499 1008.82 -14.9867 1008.84 -15.2011C1008.86 -15.4664 1009.3 -15.5577 1010.52 -15.5049C1011.42 -15.5037 1014.1 -15.408 1016.49 -15.3536C1021.57 -15.2239 1019.94 -15.267 1039.6 -14.6574C1048.22 -14.4003 1056.26 -14.1643 1057.48 -14.1116C1058.71 -14.0792 1060.36 -14.0258 1061.14 -14.0043C1061.92 -13.9828 1065.45 -13.8859 1068.98 -13.7891C1072.5 -13.6718 1077.1 -13.5428 1079.21 -13.4684C1083.01 -13.3201 1083.06 -13.32 1083.38 -13.9933C1083.55 -14.3402 1083.65 -14.6667 1083.58 -14.6974C1083.52 -14.7281 1080.26 -14.845 1076.35 -14.973C1072.43 -15.0807 1065.43 -15.2947 1060.77 -15.4544C1056.09 -15.5937 1050.59 -15.775 1048.49 -15.8188C1031.95 -16.2811 1010.24 -16.9855 1010.21 -17.0775C1010.16 -17.2 1014.64 -21.6955 1023.57 -30.4825C1026.67 -33.561 1031.35 -38.189 1033.96 -40.7986C1036.59 -43.398 1043.83 -50.5846 1050.07 -56.7723L1061.45 -67.9955L1062.8 -67.5036C1063.59 -67.2065 1064.59 -67.0315 1065.16 -67.0613L1066.17 -67.1314L1070.83 -56.4878C1073.42 -50.645 1075.86 -45.0678 1076.29 -44.1178C1076.71 -43.1678 1079.18 -37.5804 1081.77 -31.7376C1084.34 -25.8744 1086.51 -21.053 1086.57 -21.0223C1086.64 -20.9916 1086.85 -21.318 1087.05 -21.7464C1087.41 -22.5013 1087.33 -22.7362 1083.32 -31.8273C1081.07 -36.9346 1078.97 -41.6742 1078.67 -42.3688C1067.39 -67.7319 1067.34 -67.8035 1068.41 -68.2715C1068.47 -68.2919 1075.04 -63.0866 1083.01 -56.6952C1091 -50.2935 1097.61 -45.0167 1097.74 -44.9552C1097.87 -44.8938 1098.1 -45.1078 1098.26 -45.4343C1098.51 -45.9648 1098.45 -46.0669 1097.35 -46.9872C1095.51 -48.4802 1069.55 -69.2805 1069.44 -69.3317C1069.38 -69.3624 1069.51 -69.7502 1069.72 -70.1991C1070.79 -72.4638 1069.66 -75.3441 1067.15 -76.7564C1066.7 -77.0225 1066.03 -77.2888 1065.69 -77.3506ZM1059.74 -70.3255C1059.94 -69.9066 1060.2 -69.4571 1060.31 -69.3548C1060.5 -69.1913 1058.59 -67.2748 1045.93 -54.7365C1044.57 -53.3807 1035.81 -44.716 1026.48 -35.4702C1017.16 -26.2245 1009.31 -18.4773 1009.07 -18.2632L1008.65 -17.8657L1008.37 -18.5194C1007.69 -20.0925 1005.54 -21.5349 1003.64 -21.6805C1002.07 -21.7745 1000.54 -21.154 999.466 -20.0122C998.789 -19.3088 998.398 -19.0439 998.16 -19.1565C997.944 -19.2589 992.925 -21.1341 986.992 -23.3169C974.285 -28.0306 971.517 -29.0656 969.567 -29.8136C968.759 -30.1209 967.802 -30.4489 967.415 -30.5822C967.049 -30.7052 966.07 -31.0435 965.262 -31.3509C964.454 -31.6582 962.182 -32.5087 960.2 -33.2465C958.219 -33.9843 954.881 -35.214 952.769 -36.0133C950.67 -36.7819 948.58 -37.5708 948.14 -37.7042C947.248 -38.0015 945.966 -38.4831 941.839 -40.061C940.288 -40.645 938.771 -41.1882 938.448 -41.2908C938.126 -41.3933 937.222 -41.7212 936.414 -42.0286C930.027 -44.4264 927.206 -45.4614 926.302 -45.7894C925.732 -45.9841 924.051 -46.6296 922.565 -47.183C921.078 -47.7363 918.957 -48.5151 917.827 -48.925C915.319 -49.8371 913.78 -50.3905 911.743 -51.1795C910.892 -51.5073 909.761 -51.9173 909.266 -52.1017C908.761 -52.2658 907.188 -52.8601 905.767 -53.3827C904.346 -53.9053 902.612 -54.5509 901.934 -54.7968C897.982 -56.2418 892.252 -58.4038 892.271 -58.4446C892.281 -58.465 895.339 -58.7159 899.096 -58.9862C902.83 -59.2668 912.494 -59.9882 920.575 -60.6097C928.655 -61.2312 938.182 -61.9425 941.726 -62.2131C945.271 -62.4838 953.563 -63.105 960.135 -63.6163C966.707 -64.1277 978.397 -64.9891 986.088 -65.5703C993.8 -66.1412 1003.31 -66.8628 1007.23 -67.1533C1017.49 -67.9657 1024.2 -68.4871 1038.84 -69.5995C1045.96 -70.1305 1053.42 -70.6917 1055.46 -70.8521C1057.5 -71.0126 1059.23 -71.1428 1059.27 -71.1223C1059.32 -71.1223 1059.52 -70.7545 1059.74 -70.3255ZM998.066 -17.0538C998.008 -16.7067 997.841 -16.4109 997.716 -16.3703C997.591 -16.3296 994.477 -15.9053 990.816 -15.3898C983.474 -14.3692 979.414 -13.793 966.13 -11.913C961.218 -11.2156 955.548 -10.4274 953.507 -10.1444C951.498 -9.87164 945.544 -9.04296 940.317 -8.29491C935.09 -7.54688 926.97 -6.39461 922.289 -5.73766C917.608 -5.08073 912.99 -4.44414 912.044 -4.29235C911.077 -4.1508 910.201 -4.09076 910.071 -4.15221C909.941 -4.21363 905.377 -16.2863 899.941 -30.9939L890.018 -57.7128L891.591 -57.1185C892.452 -56.8111 893.83 -56.3089 894.616 -56.0117C899.236 -54.3004 910.692 -50.0785 911.921 -49.5969C913.203 -49.1153 915.689 -48.2135 918.919 -47.035C919.479 -46.8198 920.545 -46.4406 921.288 -46.1639C924.39 -44.9958 932.607 -41.9319 933.565 -41.6039C934.125 -41.3887 935.837 -40.7534 937.388 -40.1694C938.939 -39.5853 941.621 -38.5913 943.364 -37.9661C945.108 -37.3409 947.186 -36.5826 947.994 -36.2752C948.802 -35.9678 952.743 -34.5025 956.781 -33.0166C960.809 -31.5103 965.159 -29.9014 966.463 -29.4096C968.692 -28.5796 974.733 -26.3456 977.176 -25.4643C980.567 -24.2345 988.019 -21.4575 989.571 -20.8734C990.561 -20.5045 992.586 -19.7463 994.082 -19.2133C998.247 -17.717 998.204 -17.7375 998.066 -17.0538ZM998.005 -14.6855C997.603 -14.4513 991.268 -11.3059 977.604 -4.53665C971.35 -1.45237 963.742 2.31393 960.698 3.82051C933.392 17.3692 928.636 19.6389 928.358 19.3323C928.202 19.1585 927.536 18.7186 926.894 18.34C925.622 17.6134 924.275 17.3257 923.024 17.5077C921.95 17.6491 920.39 18.7085 919.676 19.7692L919.08 20.636L914.771 9.03332L910.473 -2.53873L911.438 -2.73132C911.984 -2.82244 915.18 -3.3079 918.547 -3.76253C921.924 -4.23757 928.96 -5.22803 934.188 -5.97606C948.514 -7.98732 952.542 -8.55327 958.443 -9.38203C961.42 -9.79636 971.506 -11.2419 980.878 -12.5762C990.249 -13.9105 998.003 -14.9612 998.089 -14.9202C998.207 -14.8894 998.149 -14.767 998.005 -14.6855ZM999.198 -13.122C999.088 -12.9996 985.586 1.26271 969.185 18.5732C952.806 35.894 939.343 50.0747 939.312 50.0849C939.083 50.1765 927.382 27.1606 927.565 26.9976C929.218 25.4074 929.874 23.7954 929.547 21.9677L929.373 20.9364L946.589 12.4266C956.061 7.74415 967.78 1.95216 972.624 -0.450174C977.459 -2.83207 985.378 -6.75107 990.223 -9.15341C997.957 -12.9604 1000.04 -13.8966 999.198 -13.122ZM1001.94 -4.30832C1001.71 -0.39888 1001.1 9.72686 1000.61 18.2093C1000.12 26.6917 999.211 42.2682 998.582 52.833C997.963 63.3772 997.095 78.1985 996.647 85.752C996.198 93.3055 995.488 105.105 995.072 111.975C994.656 118.844 994.298 125.142 994.26 125.949C994.245 126.765 993.895 132.767 993.515 139.28L992.798 151.151L992.148 151.293C991.77 151.364 991.419 151.323 991.328 151.18C991.258 151.047 989.54 147.737 987.52 143.834C974.591 118.765 970.503 110.838 968.667 107.272C966.073 102.175 965.634 101.368 951.952 74.8681C945.716 62.8033 940.475 52.608 940.31 52.23L940.013 51.515L942.7 48.6912C951.707 39.1693 1000.07 -11.9366 1000.22 -12.0895C1000.32 -12.1914 1000.85 -12.0682 1001.39 -11.8122L1002.35 -11.3821L1001.94 -4.30832ZM898.312 -31.1902C902.852 -18.9542 906.972 -7.79074 907.514 -6.36081L908.49 -3.77672L895.268 -1.91709C887.978 -0.89635 876.66 0.690404 870.107 1.6101C857.001 3.4495 846.167 4.96547 829.106 7.38113C818.4 8.90749 817.904 8.94761 817.5 8.45707C817.296 8.16074 817.109 7.77253 817.112 7.59902C817.151 7.29283 819.028 5.509 826.327 -1.07525C828.178 -2.74678 832.57 -6.71164 836.044 -9.91212C839.539 -13.1024 843.859 -17.0265 845.618 -18.6165C847.377 -20.2065 853.048 -25.3639 858.189 -30.0728C863.352 -34.7716 872.052 -42.6911 877.499 -47.6549C882.978 -52.6288 887.673 -56.8995 887.958 -57.1645L888.485 -57.6639L889.281 -55.5395C889.736 -54.3751 893.794 -43.4159 898.312 -31.1902ZM915.287 14.5465C916.615 18.1213 917.672 21.0934 917.643 21.1546C917.604 21.2362 874.465 16.5816 863.971 15.3622C862.672 15.1971 859.097 14.8041 856.045 14.4833C852.992 14.1626 849.311 13.7694 847.853 13.604C842.447 12.9941 833.914 12.0531 826.606 11.267C822.446 10.8221 819.04 10.409 819.006 10.3681C819.004 10.3171 824.166 9.53833 830.541 8.65919C836.894 7.76982 846.119 6.46602 851.031 5.76856C862.358 4.16142 883.132 1.23036 893.471 -0.24546C897.836 -0.851772 903.116 -1.59974 905.21 -1.88264L908.976 -2.39793L910.93 2.82128C912.004 5.70151 913.959 10.9718 915.287 14.5465ZM919.205 24.2908L919.756 25.7003L913.452 31.357C909.985 34.4861 905.053 38.9197 902.49 41.2028C899.927 43.4858 891.314 51.2217 883.342 58.3869L868.831 71.4228L868.041 70.5744C867.596 70.1144 864.108 66.2916 860.284 62.06C856.459 57.8283 850.54 51.3071 847.15 47.5559C843.761 43.8046 840.472 40.176 839.857 39.4606C839.232 38.7655 837.661 37.0483 836.369 35.6377C835.076 34.2272 831.655 30.4861 828.789 27.3073C821.542 19.2835 819.055 16.534 817.808 15.1949L816.751 14.0706L817.388 12.9485C817.731 12.3365 818.068 11.847 818.109 11.8164C818.203 11.7859 827.277 12.7583 832.599 13.3783C834.461 13.5851 838.036 13.9781 840.526 14.2572C854.366 15.7366 859.781 16.3261 862.824 16.6673C864.677 16.8945 877.901 18.3321 892.167 19.863C906.445 21.4246 918.254 22.7174 918.384 22.7788C918.545 22.8301 918.905 23.5248 919.205 24.2908ZM930.852 37.0676C933.443 42.1142 936.159 47.3446 936.867 48.7033C937.544 50.0722 938.086 51.2775 938.037 51.3796C937.941 51.5836 926.239 64.0008 924.772 65.4789C924.244 65.9784 917.781 72.8088 910.391 80.6485C903 88.4883 896.848 94.9415 896.713 95.0025C896.121 95.2467 895.913 95.7976 900.711 83.8097C902.249 79.9429 903.778 76.0965 904.08 75.2905C904.413 74.4743 905.058 72.8317 905.553 71.6176C906.048 70.4035 906.695 68.8119 906.978 68.0467C907.593 66.4653 908.484 64.1901 909.682 61.211C910.728 58.6093 915.895 45.6725 916.854 43.2545C918.153 39.9488 920.309 34.5517 921.128 32.5418C921.565 31.4501 922.152 29.9299 922.456 29.1749L922.954 27.7873L924.351 27.7995C925.114 27.8108 925.846 27.8322 925.932 27.8732C926.05 27.904 928.251 32.0414 930.852 37.0676ZM921.501 27.2748C921.477 27.4381 920.808 29.2441 919.989 31.2539C919.192 33.2741 917.91 36.4879 917.161 38.406C916.391 40.3138 915.481 42.6298 915.121 43.5583C914.739 44.4765 914.066 46.1803 913.6 47.3332C913.134 48.4861 912.528 50.0471 912.223 50.8021C911.919 51.557 911.226 53.3017 910.654 54.679C910.103 56.0666 909.562 57.4337 909.47 57.7398C909.379 58.046 908.751 59.5967 908.094 61.2087C907.416 62.8104 906.761 64.4735 906.621 64.8816C906.481 65.2897 905.788 67.0344 905.052 68.7585C904.347 70.4726 903.709 72.0437 903.675 72.2274C903.62 72.4009 903.1 73.7783 902.47 75.278C901.85 76.7573 901.108 78.604 900.826 79.3692C900.203 81.0221 899.394 83.0115 897.264 88.2964C896.39 90.4798 895.487 92.7243 895.301 93.2855L894.924 94.3058L893.736 94.2429C893.067 94.2011 892.005 94.3732 891.36 94.6172L890.205 95.0444L884.631 88.9115C877.417 80.9286 873.571 76.6868 871.476 74.3972C870.53 73.375 869.852 72.4553 869.944 72.3737C878.721 64.5156 899.324 46.0472 901.743 43.8456C903.593 42.1741 908.515 37.7609 912.663 34.0305C916.834 30.3103 920.361 27.1099 920.544 26.9468C920.888 26.6105 921.545 26.8461 921.501 27.2748ZM547.791 -147.069C549.895 -145.525 553.959 -142.528 556.829 -140.421C559.699 -138.314 564.552 -134.745 567.631 -132.464C570.719 -130.204 578.18 -124.701 584.227 -120.242C590.284 -115.803 598.973 -109.369 603.564 -105.974C608.155 -102.578 614.236 -98.0778 617.106 -95.9709C619.976 -93.8639 627.052 -88.6681 632.825 -84.4133C638.598 -80.1585 645.949 -74.7582 649.136 -72.4262C655.162 -67.9771 657.954 -65.9315 661.855 -63.037C663.115 -62.1165 668.045 -58.4856 672.799 -54.9876C677.553 -51.4897 683.24 -47.2758 685.463 -45.6496C687.677 -44.0029 695.849 -37.9889 703.606 -32.2715L717.736 -21.8901L716.295 -22.1474C715.506 -22.271 710.667 -23.2374 705.538 -24.2655C700.41 -25.2935 693.615 -26.6609 690.42 -27.2983C687.226 -27.9357 678.785 -29.632 671.67 -31.0508C664.565 -32.49 657.716 -33.8573 656.456 -34.1041C655.227 -34.3611 650.483 -35.3069 645.932 -36.2117C641.412 -37.1266 635.899 -38.2369 633.689 -38.6585C628.678 -39.6558 612.033 -42.9868 601.038 -45.2175C596.443 -46.1428 591.507 -47.1297 590.045 -47.3972L587.418 -47.8909L587.015 -48.8306C586.588 -49.8317 580.12 -64.4284 576.568 -72.4266C575.34 -75.2049 567.173 -93.6016 558.438 -113.316C549.703 -133.03 542.539 -149.18 542.506 -149.221C542.403 -149.394 543.513 -150.118 543.729 -150.015C543.859 -149.954 545.698 -148.634 547.791 -147.069ZM545.609 -138.763C548.005 -133.359 555.738 -115.892 562.83 -99.9267C569.912 -83.9407 576.134 -69.8853 576.644 -68.6698C577.155 -67.4543 579.398 -62.398 581.583 -57.4439C583.799 -52.5 585.499 -48.4244 585.383 -48.4042C585.258 -48.3635 581.371 -49.104 576.712 -50.06C572.064 -50.9853 565.365 -52.332 561.829 -53.0312C558.303 -53.7508 554.019 -54.6041 552.287 -54.974C550.567 -55.3133 545.653 -56.29 541.369 -57.1434C537.107 -57.9865 533.441 -58.7471 533.246 -58.8392C533.051 -58.9314 532.862 -59.3706 532.843 -59.779C532.754 -61.2695 530.957 -63.5179 529.353 -64.102C528.966 -64.2352 529.069 -65.4601 530.159 -74.0335C537.171 -128.822 539.612 -147.918 539.721 -148.316C539.791 -148.632 540.017 -148.775 540.431 -148.754C540.78 -148.764 541.1 -148.712 541.155 -148.661C541.232 -148.6 543.225 -144.136 545.609 -138.763ZM538.208 -148.757C538.254 -148.686 536.94 -138.52 529.752 -82.4662L527.453 -64.4518L526.693 -64.412C524.9 -64.2614 522.867 -62.6514 522.371 -60.9881C522.253 -60.5697 522.086 -60.0493 521.98 -59.8249C521.828 -59.4474 515.357 -58.8135 494.623 -57.0869C492.113 -56.8761 487.337 -56.4643 483.994 -56.1729C480.652 -55.8816 476.729 -55.5401 475.242 -55.4197C473.786 -55.3094 471.794 -55.1285 470.824 -55.038C469.876 -54.9373 467.145 -54.7063 464.803 -54.5157C462.452 -54.3046 456.737 -53.8125 452.098 -53.4107C447.458 -53.0089 440.013 -52.3865 435.542 -52.0049C431.071 -51.6233 421.433 -50.7896 414.137 -50.1466C393.165 -48.3081 395.16 -48.438 394.732 -48.9898C394.519 -49.2658 394.408 -49.5926 394.466 -49.715C394.524 -49.8374 395.721 -50.7443 397.094 -51.7427C402.612 -55.6243 410.517 -61.2481 412.62 -62.7254C413.829 -63.6016 416.668 -65.629 418.913 -67.2387C421.18 -68.8382 423.506 -70.5091 424.091 -70.9064C424.686 -71.3241 427.916 -73.6164 431.269 -76.0004C434.631 -78.4048 439.574 -81.9095 442.24 -83.7943C444.916 -85.6994 448.145 -87.9917 449.417 -88.8883C450.699 -89.8052 453.293 -91.6493 455.21 -93.0145C457.127 -94.3797 465.381 -100.238 473.563 -106.055C481.744 -111.873 489.199 -117.16 490.121 -117.822C491.044 -118.485 493.578 -120.257 495.709 -121.796C497.862 -123.324 502.742 -126.808 506.588 -129.508C510.423 -132.238 515.274 -135.662 517.355 -137.149C528.118 -144.841 532.866 -148.213 534.282 -149.191L535.821 -150.261L536.996 -149.555C537.629 -149.156 538.174 -148.798 538.208 -148.757ZM949.87 74.0076C955.828 85.5412 962.448 98.362 964.574 102.489C966.709 106.596 969.567 112.143 970.937 114.789C972.298 117.455 977.094 126.741 981.567 135.425C986.071 144.098 989.802 151.382 989.907 151.606C990.039 151.943 989.962 152.107 989.434 152.606C988.907 153.106 988.729 153.146 988.303 152.87C988.029 152.665 986.942 152.051 985.899 151.458C984.868 150.895 983.639 150.189 983.182 149.923C982.726 149.657 981.757 149.073 981.007 148.644C979.692 147.897 968.681 141.613 965.68 139.894C964.887 139.444 963.288 138.512 962.146 137.847C961.004 137.182 959.232 136.169 958.179 135.596C957.148 135.033 955.963 134.347 955.571 134.112C955.179 133.877 952.46 132.29 949.536 130.633C946.613 128.975 943.69 127.317 943.069 126.948C940.709 125.557 929.719 119.284 926.817 117.636C925.144 116.694 923.416 115.702 922.959 115.436C922.512 115.149 919.805 113.594 916.924 111.956C914.066 110.329 911.186 108.692 910.565 108.323C909.936 107.976 907.587 106.615 905.348 105.356C903.11 104.097 900.946 102.848 900.564 102.593C900.172 102.357 899.586 102.03 899.292 101.866C898.816 101.641 898.776 101.447 898.95 100.406C899.13 99.4669 899.049 98.8543 898.526 97.6082L897.903 96.0148L911.113 82.0889C918.373 74.4124 924.988 67.429 925.786 66.5828C932.335 59.5688 938.873 52.7486 938.952 52.8611C939.019 52.9428 943.921 62.4537 949.87 74.0076ZM807.159 10.331C807.163 10.8822 807.268 11.5561 807.397 11.8421C807.656 12.4142 808.14 12.1188 770.452 33.1662C765.311 36.0274 760.45 38.7462 759.624 39.2044C758.81 39.6932 758.073 40.0189 758.006 39.9371C757.917 39.8451 753.658 31.6622 736.832 -0.844299C730.33 -13.4097 729.375 -15.3098 729.433 -15.4322C729.63 -15.7382 730.97 -17.2267 731.148 -17.2673C731.305 -17.3181 745.73 -12.3161 768.97 -4.11661C775.964 -1.65675 776.103 -1.61574 777.147 -1.24676C777.652 -1.08273 778.578 -0.744526 779.191 -0.5293C779.826 -0.303816 782.171 0.505949 784.419 1.29517C786.668 2.08439 789.068 2.94527 789.756 3.17081C790.434 3.41678 794.383 4.81068 798.502 6.23545C802.644 7.67045 806.27 8.96181 806.583 9.08478C807.047 9.27938 807.143 9.5245 807.159 10.331ZM819.081 18.7186C820.755 20.6095 822.161 22.1734 822.204 22.1939C822.269 22.2246 826.706 27.1206 833.44 34.5515C835.402 36.7287 838.223 39.836 839.705 41.4612C841.187 43.0864 845.667 48.0029 849.626 52.3981C853.595 56.7728 859.291 63.0386 862.246 66.3094C865.232 69.57 867.663 72.2685 867.697 72.3093C867.742 72.3809 853.507 85.1722 818.586 116.493C813.673 120.886 809.159 124.942 808.559 125.483L807.482 126.471L806.294 125.959L805.137 125.437L806.208 110.187C806.819 101.787 808.327 80.3513 809.599 62.5499C810.849 44.7381 811.973 29.0394 812.078 27.641C812.206 26.2528 812.439 23.0171 812.608 20.4755L812.935 15.8108L814.23 15.4247C814.94 15.2113 815.633 15.0898 815.785 15.1615C815.915 15.2229 817.407 16.8277 819.081 18.7186ZM810.22 15.0005L811.46 15.7372L811.315 17.6664C811.237 18.7279 811.016 21.7697 810.82 24.4236C810.624 27.0775 808.954 50.7583 807.085 77.0421C805.217 103.326 803.634 124.975 803.557 125.139C803.48 125.302 803.126 125.434 802.765 125.413C802.245 125.392 802.082 125.29 801.895 124.901C801.765 124.615 798.84 118.987 795.426 112.377C791.99 105.757 788.424 98.8513 787.483 97.0329C775.951 74.7217 765.919 55.3424 763.4 50.4797C761.672 47.1902 759.918 43.7883 759.498 42.9404L758.74 41.4081L771.88 34.0665C779.116 30.024 788.994 24.4846 793.834 21.7557C808.347 13.6402 808.388 13.6096 808.701 13.9571C808.888 14.1207 809.566 14.5912 810.22 15.0005ZM720.748 -19.4665C720.632 -19.2217 713.96 -17.4344 682.045 -9.03727C668.436 -5.46314 647.045 0.172263 626.053 5.74695L617.278 8.06208L616.901 7.45925C615.873 5.82449 614.147 4.88288 612.112 4.81876L610.754 4.77599L600.782 -17.6963C588.716 -44.9797 588.207 -46.1442 588.426 -46.2153C588.52 -46.2458 589.107 -46.1429 589.706 -46.0094C590.336 -45.886 599.888 -43.9635 610.924 -41.7634C621.982 -39.553 632.27 -37.507 633.788 -37.1884C635.315 -36.8902 640.059 -35.9444 644.311 -35.0808C648.574 -34.2377 653.755 -33.2096 655.807 -32.7881C657.859 -32.3667 661.565 -31.6367 664.033 -31.1432C666.501 -30.6497 671.682 -29.6216 675.529 -28.8505C679.397 -28.0692 684.118 -27.1336 686.052 -26.743C705.988 -22.754 713.371 -21.2838 716.661 -20.6259C721.244 -19.7312 720.912 -19.8134 720.748 -19.4665ZM738.615 5.74258C743.885 15.8766 750.099 27.9312 752.468 32.4976L756.775 40.8031L742.893 48.5928C735.254 52.8695 727.843 57.0036 726.439 57.7877C725.013 58.5615 717.24 62.8992 709.128 67.4509C676.778 85.5556 678.204 84.7817 677.778 84.5056C676.829 83.8815 676.706 84.1978 680.26 76.9651C682.121 73.2009 688.407 60.1942 694.235 48.0443C700.063 35.8945 706.34 22.9082 708.159 19.1745C710 15.4511 714.004 7.15738 717.047 0.781493C720.1 -5.61478 723.07 -11.7254 723.654 -12.8474L724.694 -14.8774L725.642 -14.7536C726.133 -14.6712 726.874 -14.6702 727.252 -14.7411C727.945 -14.8626 727.967 -14.8524 728.523 -13.79C728.826 -13.1974 733.377 -4.40167 738.615 5.74258ZM721.505 -17.485C721.522 -17.3523 718.778 -15.0797 715.406 -12.4303C712.043 -9.80134 708.558 -7.08067 707.678 -6.39794C703.694 -3.239 690.896 6.73683 688.473 8.61175C686.98 9.75296 684.465 11.7094 682.892 12.9628C679.797 15.4187 659.611 31.213 655.297 34.5655C653.835 35.6965 650.157 38.6007 647.1 40.9749C644.055 43.3797 641.454 45.2952 641.324 45.2338C641.194 45.1724 639.794 43.486 638.177 41.4727C636.571 39.439 633.46 35.5452 631.26 32.8063C625.352 25.3663 623.219 22.7092 620.457 19.2549C619.098 17.5379 617.592 15.6269 617.119 15.0035L616.273 13.8794L616.866 12.9615C617.221 12.3801 617.501 11.5638 617.632 10.7269L617.827 9.42054L619.268 9.00404C620.084 8.79083 625.962 7.22705 632.365 5.56191C638.777 3.87641 645.096 2.22138 646.434 1.85578C647.772 1.49015 654.091 -0.164857 660.503 -1.85041C666.915 -3.53593 673.787 -5.35351 675.785 -5.8815C691.88 -10.1769 721.202 -17.853 721.332 -17.7915C721.419 -17.7506 721.488 -17.6178 721.505 -17.485ZM722.81 -14.6453C722.537 -14.1251 718.184 -5.14793 713.157 5.30849C692.304 48.6541 687.642 58.2841 683.694 66.4044C681.399 71.0867 678.634 76.8199 677.533 79.1458C675.786 82.8388 675.482 83.3692 675.201 83.2361C674.703 83.0006 672.98 83.0594 672.282 83.3034L671.69 83.5476L669.826 81.2174C662.388 71.8051 657.582 65.7856 655.944 63.7621C654.889 62.4641 653.957 61.2991 653.866 61.156C653.796 61.0232 652.214 59.0508 650.384 56.7616C644.794 49.8222 642.549 47.0118 642.453 46.7666C642.395 46.6645 643.708 45.5128 645.344 44.2391C649.157 41.2738 655.371 36.4235 656.771 35.3127C657.363 34.844 659.018 33.5294 660.44 32.429C661.87 31.3081 666.112 27.9964 669.894 25.0413C673.654 22.076 677.814 18.8254 679.144 17.8065C680.452 16.7773 684.662 13.4757 688.485 10.4901C692.317 7.48405 696.263 4.40673 697.234 3.64247C698.214 2.85783 701.618 0.198272 704.797 -2.26766C707.986 -4.75397 711.39 -7.41353 712.361 -8.17781C723.48 -16.9004 722.516 -16.2076 722.978 -15.8394C723.285 -15.594 723.251 -15.4103 722.81 -14.6453ZM873.897 79.1883C876.383 81.9378 880.263 86.2206 882.514 88.684C884.756 91.1677 887.175 93.8355 887.898 94.6022L889.181 96.0331L888.703 97.1554C888.406 97.8389 888.224 98.7268 888.254 99.3903L888.284 100.503L886.149 101.266C884.981 101.662 877.03 104.417 868.506 107.376C859.96 110.324 851.207 113.374 849.041 114.147C827.548 121.732 808.649 128.147 808.541 127.871C808.469 127.687 809.307 126.811 810.965 125.323C812.37 124.089 818.39 118.698 824.338 113.347C830.287 107.996 839.335 99.8419 844.44 95.2656C849.555 90.6689 856.927 84.0439 860.832 80.548C864.747 77.0316 868.135 74.0147 868.368 73.8007C868.715 73.5154 868.874 73.5156 869.078 73.8119C869.246 74.0163 871.411 76.4387 873.897 79.1883ZM587.754 -43.5621C588.509 -41.8563 593.68 -30.1707 599.24 -17.627C604.821 -5.07318 609.358 5.26404 609.363 5.36611C609.346 5.45797 609.132 5.63119 608.852 5.77374C608.325 6.0486 610.983 8.15527 584.556 -13.4624C577.957 -18.8821 570.293 -25.1302 567.565 -27.3696C564.828 -29.5887 557.305 -35.7447 550.85 -41.0213C544.405 -46.3183 537.565 -51.9017 535.673 -53.4458L532.232 -56.2477L532.512 -56.8394C532.83 -57.5127 531.659 -57.6675 543.433 -55.2928C546.5 -54.6657 557.312 -52.4965 567.504 -50.4711C577.706 -48.4661 586.125 -46.78 586.211 -46.7391C586.329 -46.7083 587.029 -45.2781 587.754 -43.5621ZM908.087 108.524C912.282 110.909 916.369 113.242 917.163 113.692C917.978 114.153 919.033 114.777 919.555 115.074C920.067 115.391 922.274 116.66 924.447 117.888C929.556 120.804 932.229 122.319 934.513 123.649C935.525 124.253 953.08 134.282 957.059 136.564C957.809 136.994 958.939 137.628 959.559 137.997C960.18 138.365 963.06 140.002 965.918 141.63C968.799 143.267 971.614 144.874 972.169 145.211C972.756 145.539 974.441 146.511 975.92 147.36C977.42 148.22 979.115 149.172 979.67 149.509C980.257 149.837 981.877 150.778 983.312 151.607C988.029 154.289 988.051 154.299 987.942 154.921C987.881 155.217 987.825 155.615 987.835 155.819C987.825 156.064 985.519 156.347 979.328 156.838C974.666 157.23 968.665 157.712 966.018 157.932C961.778 158.274 954.763 158.825 932.719 160.58C929.607 160.831 923.964 161.283 920.167 161.583C916.36 161.905 913.162 162.115 913.032 162.053C912.881 161.982 902.064 125.676 896.136 105.292L895.887 104.475L896.778 103.823C897.247 103.446 897.705 103.038 897.763 102.915C897.85 102.732 898.237 102.865 899.194 103.418C899.901 103.827 903.901 106.119 908.087 108.524ZM889.161 103.24C888.898 103.515 878.654 114.699 866.373 128.116C854.071 141.523 843.935 152.533 843.832 152.584C843.707 152.625 842.786 152.164 841.774 151.561C840.74 150.947 839.11 150.026 838.132 149.463C837.143 148.92 836.023 148.265 835.631 148.03C835.239 147.795 834.206 147.181 833.347 146.7C832.489 146.219 831.455 145.605 831.063 145.369C830.431 144.97 825.375 142.054 821.279 139.741C820.529 139.311 818.995 138.411 817.853 137.746C816.711 137.08 814.612 135.863 813.177 135.034C809.078 132.67 809.023 132.619 809.293 132.047C809.428 131.762 809.513 131.078 809.475 130.486L809.417 129.434L812.378 128.438C816.841 126.954 851.402 115.09 858.321 112.67C882.15 104.343 889.023 102.076 889.314 102.413C889.527 102.689 889.493 102.873 889.161 103.24ZM902.943 133.558C907.567 149.255 911.321 162.143 911.283 162.224C911.254 162.285 910.76 162.377 910.212 162.417C909.651 162.426 900.959 163.108 890.908 163.921L872.629 165.385L872.173 164.446C871.938 163.935 871.376 163.219 870.946 162.841C870.485 162.473 870.011 162.074 869.901 161.972C869.725 161.839 869.88 161.288 870.331 160.278C870.717 159.462 871.147 158.442 871.287 158.033C871.439 157.656 872.113 155.952 872.83 154.269C873.516 152.596 874.337 150.637 874.619 149.872C874.924 149.117 875.578 147.454 876.092 146.199C878.922 139.322 879.543 137.843 881.139 133.854C881.498 132.925 882.261 131.089 882.805 129.773C884.941 124.641 887.996 117.122 889.372 113.653C889.725 112.796 890.534 110.806 891.183 109.266C891.811 107.715 892.497 106.042 892.685 105.532C892.955 104.736 893.088 104.624 893.576 104.655C893.884 104.676 894.228 104.789 894.327 104.86C894.447 104.942 898.298 117.851 902.943 133.558ZM891.124 105.417C890.88 106.101 890.177 107.866 889.547 109.366C888.926 110.845 888.076 112.865 887.688 113.855C887.299 114.844 886.565 116.62 886.07 117.834C885.575 119.048 884.901 120.752 884.549 121.609C884.196 122.466 883.455 124.312 882.883 125.69C882.31 127.067 881.511 129.036 881.072 130.077C880.664 131.107 879.159 134.79 877.74 138.238C876.32 141.687 874.826 145.35 874.408 146.4C874 147.431 872.954 150.033 872.078 152.165C871.201 154.297 870.001 157.225 869.422 158.674L868.335 161.306L867.096 161.294C865.729 161.272 864.162 161.954 863.193 162.993C862.589 163.656 862.536 163.656 861.848 163.206C861.444 162.94 859.846 162.009 858.302 161.129C856.759 160.249 855.215 159.368 854.876 159.133C854.549 158.929 852.299 157.639 849.885 156.247C847.484 154.886 845.447 153.648 845.399 153.526C845.306 153.332 889.951 104.313 890.589 103.916C890.671 103.855 890.916 103.896 891.154 104.009C891.479 104.162 891.469 104.407 891.124 105.417ZM760.189 47.4126C761.641 50.222 763.58 53.961 764.487 55.7385C765.403 57.4956 771.652 69.591 778.397 82.5957C785.132 95.6208 792.134 109.146 793.957 112.681C795.781 116.216 798.101 120.66 799.1 122.58L800.911 126.084L800.311 126.624C799.964 126.91 799.584 127.379 799.448 127.664C799.313 127.95 799.058 128.154 798.909 128.133C798.738 128.102 796.783 127.477 794.59 126.739C792.396 126.001 788.741 124.771 786.463 124.043C778.253 121.356 777.264 121.039 776.155 120.639C775.533 120.444 773.156 119.644 770.879 118.916C768.611 118.168 766.343 117.42 765.838 117.256C765.343 117.071 763.323 116.415 761.377 115.769C754.499 113.514 752.962 113.011 749.232 111.771C747.147 111.084 743.599 109.905 741.322 109.177C736.702 107.69 736.336 107.567 733.756 106.696C732.746 106.368 731.209 105.865 730.317 105.568C729.446 105.281 727.07 104.481 725.05 103.825C723.039 103.149 719.944 102.134 718.172 101.57C714.088 100.237 709.478 98.7296 701.556 96.1051C698.105 94.9467 694.591 93.8086 693.773 93.5216C692.946 93.255 690.625 92.5065 688.615 91.83C686.604 91.1534 684.692 90.5484 684.37 90.4459C680.192 89.1435 679.707 88.9387 679.676 88.4996C679.664 88.2444 679.497 87.5909 679.312 87.0292L678.979 85.9977L686.536 81.7821C712.383 67.3432 729.343 57.8632 745.898 48.5664C752.164 45.0636 757.358 42.2024 757.423 42.2331C757.487 42.2638 758.716 44.5931 760.189 47.4126ZM988.854 159.373C988.888 159.414 984.968 163.053 980.142 167.487C975.338 171.931 969.101 177.669 966.309 180.269C963.494 182.857 959.919 186.16 958.334 187.607C956.749 189.055 952.848 192.653 949.649 195.609C946.471 198.575 941.076 203.538 937.684 206.678L931.497 212.365L930.254 211.802C929.562 211.474 928.64 211.238 928.186 211.248L927.36 211.257L925.452 204.711C924.398 201.116 923.096 196.704 922.559 194.927C922.023 193.15 920.806 189.004 919.832 185.746C918.888 182.478 917.033 176.157 915.706 171.683C914.391 167.241 913.345 163.575 913.377 163.565C913.408 163.554 915.718 163.374 918.524 163.153C921.33 162.933 925.295 162.612 927.341 162.431C929.377 162.27 937.002 161.658 944.26 161.097C951.527 160.515 958.52 159.953 959.817 159.843C962.738 159.602 976.123 158.518 982.937 157.997L988.022 157.606L988.411 158.464C988.612 158.934 988.811 159.353 988.854 159.373ZM535.332 -51.8844C536.531 -50.8925 543.239 -45.4216 550.232 -39.7155C557.226 -34.0094 565.166 -27.5057 567.894 -25.2663C570.622 -23.0268 580.651 -14.8358 590.163 -7.06406L607.472 7.06826L607.143 8.43566C606.944 9.19083 606.746 9.94595 606.702 10.1501C606.618 10.3847 601.378 11.5513 591.077 13.6192C582.55 15.3528 574.126 17.0355 572.364 17.4005L569.175 18.0391L567.841 15.4852C566.38 12.6962 559.078 -1.14632 545.803 -26.155C541.121 -35.0122 536.324 -44.0737 535.175 -46.2905C533.994 -48.4972 532.554 -51.2758 531.909 -52.4303C530.855 -54.402 530.702 -54.9739 531.203 -55.1365C531.297 -55.167 531.777 -54.8396 532.251 -54.4409C532.746 -54.0318 534.133 -52.8763 535.332 -51.8844ZM523.192 -56.2299C523.451 -55.8824 522.9 -55.2197 517.345 -49.1332C513.978 -45.4323 508.101 -38.9992 504.322 -34.8191C500.522 -30.6493 495.945 -25.6231 494.119 -23.6657C492.314 -21.698 490.489 -19.6895 490.046 -19.2002C489.615 -18.6801 485.149 -13.7763 480.117 -8.29129C475.098 -2.77569 469.745 3.10693 468.213 4.77892C466.702 6.46115 465.347 7.86799 465.253 7.89849C465.128 7.93914 464.124 7.26397 462.994 6.40489C461.864 5.5458 457.985 2.66157 454.38 -0.0180876C447.815 -4.89671 446.467 -5.90924 435.968 -13.7232C432.899 -16.0244 429.371 -18.6427 428.133 -19.553C424.78 -22.0383 418.951 -26.3443 414.315 -29.8114C412.067 -31.499 406.808 -35.3855 402.655 -38.4743C398.502 -41.5631 394.973 -44.1814 394.82 -44.3041C394.632 -44.4677 394.638 -45.0394 394.846 -45.8149L395.17 -47.0598L396.149 -47.1707C396.698 -47.2108 404.839 -47.9037 414.255 -48.7173C423.662 -49.5104 433.91 -50.4045 437.032 -50.6757C440.153 -50.9469 449.095 -51.7101 456.908 -52.3831C464.722 -53.056 473.864 -53.8495 477.206 -54.1409C480.549 -54.4322 484.661 -54.7837 486.317 -54.9242C487.994 -55.0546 490.598 -55.2959 492.116 -55.4265C495.343 -55.6975 504.875 -56.5314 515.03 -57.395L522.189 -58.028L522.57 -57.323C522.758 -56.9349 523.055 -56.4444 523.192 -56.2299ZM531.82 -49.5007C532.934 -47.3757 538.403 -37.0475 543.965 -26.5251C549.527 -16.0026 554.567 -6.50183 555.157 -5.3985C556.162 -3.54938 558.687 1.19084 565.096 13.3376C566.44 15.8711 567.525 18.0572 567.498 18.1695C567.483 18.3124 563.7 19.1441 559.084 20.0563C554.489 20.9788 549.726 21.9214 548.498 22.1647C547.293 22.4182 541.88 23.5029 536.498 24.5773C531.107 25.6722 525.442 26.7871 523.911 27.1116C505.222 30.9542 502.743 31.3794 502.542 30.9096C502.247 30.2456 501.146 29.1007 500.519 28.8038C500.021 28.5683 500.048 28.4561 500.985 25.5787C501.493 23.946 503.18 18.7014 504.719 13.9363C506.259 9.17117 509.809 -1.85899 512.62 -10.5423C515.418 -19.2562 518.108 -27.5722 518.579 -29.0721C519.072 -30.5618 519.592 -32.1638 519.739 -32.6434C520.397 -34.7046 523.495 -44.2755 524.839 -48.4591C525.656 -50.9691 526.378 -53.2241 526.429 -53.4997C526.516 -53.9079 526.776 -54.0096 527.939 -54.059C529.06 -54.0779 529.401 -54.0161 529.574 -53.7096C529.69 -53.5053 530.697 -51.6051 531.82 -49.5007ZM525.001 -53.9509C524.913 -53.5427 524.292 -51.6142 523.652 -49.6449C522.586 -46.3287 517.385 -30.1865 513.427 -17.9013C512.499 -15.0443 510.219 -7.93234 508.327 -2.08566C506.445 3.7406 503.636 12.475 502.068 17.3013C500.521 22.1378 499.112 26.5152 498.936 27.056C498.609 28.0253 498.6 28.0457 497.748 27.9424C496.971 27.8494 495.06 28.4184 494.008 29.0192C493.678 29.2127 493.231 28.9262 490.128 26.5842C486.258 23.6795 482.049 20.5396 476.516 16.4485C471.433 12.6949 466.695 9.1051 466.635 8.95189C466.609 8.83956 481.835 -8.00304 488.713 -15.4862C490.267 -17.148 492.11 -19.1973 492.845 -20.0231C494.185 -21.5116 498.952 -26.7723 506.353 -34.8571C508.5 -37.2122 513.358 -42.5544 517.159 -46.7243C520.937 -50.9044 524.183 -54.4624 524.345 -54.6358C524.81 -55.1149 525.199 -54.706 525.001 -53.9509ZM616.097 16.0433C616.548 16.6564 617.874 18.3325 619.029 19.753C631.312 35.1032 640.132 46.2427 640.064 46.3856C640.025 46.4672 638.934 47.3742 637.636 48.383C636.328 49.4122 634.651 50.7164 633.885 51.3279C632.394 52.5201 624.954 58.3385 615.181 65.9503C611.787 68.5895 608.119 71.4733 607.025 72.3292L605.043 73.8883L603.91 73.6519C603.289 73.5081 602.606 73.3847 602.382 73.3537C602.065 73.3533 602.158 72.3734 602.994 67.7502C603.552 64.6681 604.7 58.0445 605.561 53.0335C611.515 18.3949 612.082 15.2924 612.568 15.2727C612.843 15.2527 613.451 15.1412 613.964 15.0092C614.477 14.8772 614.97 14.7861 615.078 14.8373C615.165 14.8782 615.624 15.4199 616.097 16.0433ZM609.608 14.4212C610.598 15.0147 610.634 15.1066 610.5 15.8925C609.333 22.7814 605.478 44.979 603.916 53.8784C602.798 60.2162 601.583 67.2072 601.219 69.4321C600.833 71.6467 600.464 73.545 600.407 73.6674C600.349 73.7898 599.999 74.0241 599.689 74.1768L599.068 74.4821L596.135 68.9247C594.525 65.8906 591.454 60.0675 589.299 56.0016C587.153 51.9152 581.905 42.016 577.653 33.9862C573.401 25.9565 570.018 19.3368 570.165 19.3063C570.29 19.2657 578.692 17.5728 588.793 15.5352L607.193 11.8555L607.882 12.8059C608.266 13.3372 609.04 14.0529 609.608 14.4212ZM327.413 -113.652C327.33 -112.917 327.245 -112.683 326.933 -112.581C325.919 -112.287 303.531 -107.847 303.358 -107.929C303.228 -107.99 283.815 -126.015 265.594 -142.976C264.798 -143.702 264.196 -144.387 264.234 -144.468C264.282 -144.571 278.519 -137.884 295.909 -129.632L327.496 -114.612L327.413 -113.652ZM277.596 -129.831C285.369 -122.583 293.929 -114.588 296.649 -112.052L301.558 -107.482L288.982 -104.917C282.082 -103.488 274.31 -101.896 271.762 -101.379C257.853 -98.5708 223.879 -91.6975 220.974 -91.0993C219.128 -90.7242 214.386 -89.7714 210.432 -88.9705C206.477 -88.1696 201.086 -87.0747 198.422 -86.5374C184.682 -83.7496 178.032 -82.4013 177.704 -82.3813C177.514 -82.3714 177.264 -82.5146 177.159 -82.7394C176.962 -83.1071 177.441 -83.5046 187.312 -91.0448C190.913 -93.7857 192.681 -95.1716 198.879 -99.9301C200.259 -101 203.01 -103.119 205.004 -104.648C206.999 -106.176 209.709 -108.265 211.038 -109.284C212.346 -110.313 216.622 -113.584 220.488 -116.549C224.385 -119.525 228.323 -122.531 229.253 -123.264C230.183 -123.998 232.565 -125.842 234.559 -127.371C245.36 -135.645 247.978 -137.652 252.989 -141.524L255.923 -143.806L256.87 -143.233C258.363 -142.302 259.905 -142.147 261.551 -142.716C262.343 -142.991 263.087 -143.163 263.226 -143.122C263.366 -143.081 269.832 -137.1 277.596 -129.831ZM914.456 172.59C915.651 176.726 917.116 181.69 917.691 183.609C918.266 185.529 919.468 189.594 920.359 192.637C921.237 195.65 922.806 201.012 923.845 204.525C924.915 208.028 925.763 211.051 925.813 211.224C925.841 211.612 924.611 212.478 924.265 212.314C924.156 212.263 920.825 209.563 916.908 206.312C912.981 203.08 908.833 199.644 907.658 198.714C904.216 195.912 897.078 190.063 892.214 186.013C889.696 183.948 884.13 179.367 879.852 175.869L872.043 169.478L872.391 168.519C872.58 168.009 872.785 167.407 872.86 167.193C872.952 166.886 876.102 166.554 887.008 165.671C894.739 165.059 902.481 164.427 904.211 164.297C905.951 164.146 908.366 163.966 909.579 163.865L911.752 163.695L912.016 164.369C912.15 164.757 913.24 168.444 914.456 172.59ZM344.945 -97.866C349.896 -92.1525 355.039 -86.1734 356.413 -84.5994C357.777 -83.005 359.433 -81.0733 360.091 -80.3374C361.621 -78.5896 364.549 -75.2065 373.279 -65.1084C377.156 -60.6521 381.482 -55.6337 382.923 -53.9779C384.386 -52.3119 385.443 -50.9629 385.315 -50.9733C385.092 -51.0043 380.101 -54.1146 369.024 -61.1536C366.452 -62.7701 364.009 -64.3252 363.627 -64.581C363.235 -64.8163 360.749 -66.3919 358.112 -68.0392C355.485 -69.7068 352.259 -71.7326 350.973 -72.5409C349.696 -73.3696 348.311 -74.2494 347.92 -74.4848C347.528 -74.7201 345.042 -76.2957 342.415 -77.9634C339.787 -79.631 337.301 -81.2066 336.91 -81.442C336.527 -81.6977 334.773 -82.8027 333.039 -83.8974C331.306 -84.9921 328.832 -86.5371 327.556 -87.3658C326.291 -88.1638 325.222 -88.8697 325.21 -88.9003C325.207 -88.9514 325.273 -89.5944 325.387 -90.3394C325.601 -91.9112 325.043 -93.6985 323.993 -94.6697C323.231 -95.3548 323.178 -95.1303 324.975 -98.2004C325.692 -99.4346 326.673 -101.118 327.134 -101.923C327.595 -102.729 328.205 -103.739 328.46 -104.167C328.716 -104.596 329.346 -105.646 329.857 -106.503C330.769 -108.094 331.055 -108.308 331.856 -107.929C332.397 -107.673 334.823 -107.874 335.177 -108.231C335.341 -108.353 335.56 -108.424 335.711 -108.353C335.841 -108.291 340.016 -103.569 344.945 -97.866ZM254.01 -145.585C253.639 -145.361 252.026 -144.527 250.4 -143.722C248.797 -142.908 240.735 -138.856 232.52 -134.703C224.304 -130.55 214.473 -125.613 210.655 -123.699C206.867 -121.795 200.513 -118.609 196.581 -116.624C192.649 -114.639 187.775 -112.175 185.726 -111.147C183.677 -110.119 176.786 -106.638 170.413 -103.41C164.017 -100.194 158.564 -97.4554 158.282 -97.3639C157.803 -97.191 157.661 -97.2831 156.083 -98.9289C154.283 -100.779 137.192 -118.954 133.163 -123.257L130.792 -125.802L131.243 -126.588C131.499 -127.016 131.748 -127.822 131.797 -128.373L131.899 -129.374L140.19 -130.495C144.777 -131.121 150.468 -131.899 152.846 -132.223C155.202 -132.556 160.631 -133.284 164.912 -133.88C169.184 -134.456 174.245 -135.132 176.17 -135.395C178.074 -135.668 186.627 -136.84 195.148 -138.002C203.701 -139.174 218.324 -141.195 227.666 -142.468C237.008 -143.741 246.834 -145.085 249.474 -145.459C252.126 -145.802 254.379 -146.085 254.487 -146.034C254.573 -145.993 254.371 -145.789 254.01 -145.585ZM328.529 -110.078C329.002 -109.454 329.418 -108.933 329.461 -108.913C329.473 -108.882 328.277 -106.801 326.803 -104.302C325.319 -101.783 323.65 -98.9271 323.072 -97.9275L322.054 -96.1118L321.315 -96.2864C320.084 -96.5944 318.712 -96.4943 317.549 -95.9957L316.427 -95.5277L310.706 -100.956C307.554 -103.921 304.951 -106.426 304.927 -106.487C304.879 -106.61 307.585 -107.178 318.336 -109.357C326.454 -111.01 327.535 -111.223 327.599 -111.192C327.643 -111.171 328.068 -110.671 328.529 -110.078ZM247.425 -139.112C244.725 -137.044 241.759 -134.751 240.808 -134.028C239.878 -133.294 237.26 -131.287 235 -129.534C222.307 -119.834 217.53 -116.176 209.728 -110.154C204.983 -106.506 198.52 -101.523 195.36 -99.098C187.117 -92.7601 181.963 -88.8065 178.834 -86.3916L176.114 -84.2823L174.994 -84.9372C173.547 -85.7968 171.93 -85.9624 170.346 -85.4133L169.147 -85.0067L164.131 -90.3017C161.382 -93.2251 159.1 -95.6784 159.031 -95.8112C158.973 -95.9133 162.383 -97.746 166.594 -99.8736C182.51 -107.875 188.067 -110.664 197.007 -115.174C202.078 -117.719 207.996 -120.712 210.159 -121.811C212.321 -122.91 218.063 -125.812 222.927 -128.255C233.596 -133.619 241.14 -137.417 247.514 -140.644C250.153 -141.967 252.317 -143.015 252.319 -142.964C252.353 -142.923 250.147 -141.171 247.425 -139.112ZM644.453 51.6082C646.139 53.7543 649.069 57.413 650.945 59.7738C652.82 62.1346 655.393 65.3742 656.673 66.9787C657.953 68.5832 659.526 70.5761 660.156 71.3732C660.797 72.201 662.896 74.8173 664.815 77.1985C670.224 83.9028 670.45 84.2094 670.057 84.6478C669.886 84.8415 669.56 85.3616 669.367 85.7697L669.02 86.5042L666.102 86.1224C662.479 85.6068 630.727 81.5706 626.938 81.1263C625.415 80.9301 620.582 80.3415 616.184 79.784C608.71 78.8445 608.176 78.7417 608.08 78.272C607.863 77.2202 607.366 76.0864 606.86 75.4221L606.331 74.7476L608.815 72.8013C611.146 71.008 621.918 62.5707 634.786 52.5031C635.665 51.8204 637.433 50.4345 638.71 49.4155C639.999 48.4271 641.116 47.6325 641.203 47.6734C641.289 47.7144 642.757 49.4825 644.453 51.6082ZM309.317 -100.315L315.507 -94.5898L314.961 -93.1002C314.671 -92.2635 314.384 -91.6004 314.352 -91.5902C314.259 -91.5597 222.454 -84.8804 211.026 -84.0697C206.425 -83.7495 199.019 -83.2087 194.567 -82.8679C190.125 -82.5475 186.041 -82.2572 185.524 -82.2273L184.574 -82.1776L185.327 -82.3705C185.746 -82.472 189.185 -83.192 192.961 -83.9523C196.738 -84.7125 202.947 -85.9696 206.733 -86.7503C213.949 -88.2305 238.524 -93.2081 259.167 -97.3746C265.849 -98.7331 274.691 -100.517 278.792 -101.349C282.893 -102.18 288.044 -103.214 290.205 -103.639C292.366 -104.065 296.102 -104.795 298.482 -105.292C300.862 -105.789 302.889 -106.153 302.975 -106.112C303.062 -106.071 305.912 -103.474 309.317 -100.315ZM575.537 33.0849C579.35 40.3076 583.962 49.032 585.791 52.4441C595.867 71.3947 598.029 75.6138 597.901 76.0526C597.773 76.4914 597.655 76.4606 593.096 74.4533C590.535 73.3166 587.002 71.7701 585.242 71.0122C583.482 70.2543 580.003 68.708 577.463 67.5815C574.946 66.4652 571.327 64.8778 569.468 64.0483C567.6 63.2392 564.012 61.6417 561.473 60.5152C558.955 59.3989 555.151 57.699 553.045 56.7773C548.551 54.8007 542.987 52.3429 537.163 49.7621C534.883 48.7585 531.339 47.1814 529.276 46.2802C525.657 44.6928 522.329 43.2181 512.528 38.8555C509.945 37.7085 506.759 36.3259 505.453 35.783L503.058 34.7997L503.112 34.126C503.127 33.7585 503.19 33.289 503.256 33.0952C503.376 32.7278 506.573 32.0178 519.215 29.5346C523.004 28.8049 527.682 27.8724 557.64 21.8203C563.503 20.624 568.374 19.7326 568.451 19.7939C568.518 19.8757 571.702 25.852 575.537 33.0849ZM814.242 137.261C816.689 138.693 819.461 140.28 820.375 140.812C821.298 141.323 822.418 141.978 822.875 142.244C823.942 142.899 827.89 145.191 829.619 146.184C830.378 146.593 832.064 147.566 833.369 148.333C834.674 149.101 836.326 150.032 837.011 150.431C840.382 152.375 842.591 153.695 842.618 153.808C842.665 153.93 815.678 183.486 811.718 187.655L809.899 189.541L808.795 189.019L807.68 188.466L807.539 186.302C807.473 185.097 806.867 173.224 806.226 159.912L805.036 135.727L805.823 135.575C806.242 135.473 806.998 135.107 807.499 134.72C808.583 133.884 808.109 133.71 814.242 137.261ZM798.622 130.195C798.45 131.062 799.068 132.778 799.885 133.739C800.5 134.454 800.959 134.772 802.113 135.243L803.549 135.847L804.215 149.272C805.455 174.304 806.095 188.066 806.018 188.229C805.861 188.505 803.131 189.46 802.85 189.327C802.59 189.204 793.967 182.353 724.622 127.12C699.99 107.475 679.612 91.266 679.359 91.0717C679.107 90.8774 678.989 90.622 679.122 90.5099C679.334 90.2856 682.319 91.1984 692.015 94.4379C694.971 95.4119 699.668 96.9599 702.441 97.8724C705.214 98.7848 714.199 101.738 722.378 104.434C730.579 107.14 737.532 109.406 737.854 109.509C738.176 109.611 739.369 110.001 740.488 110.38C741.618 110.79 744.025 111.58 745.863 112.174C749.107 113.21 757.909 116.101 770.85 120.376C778.073 122.744 777.719 122.652 781.05 123.729C782.457 124.17 785.682 125.246 788.272 126.097C790.852 126.968 793.904 127.963 795.032 128.322C798.255 129.347 798.722 129.593 798.622 130.195ZM848.972 157.338C849.027 157.39 849.953 157.952 851.049 158.546C852.136 159.16 853.407 159.887 853.855 160.173C854.311 160.439 856.302 161.606 858.302 162.752C860.302 163.898 861.935 164.87 861.947 164.901C861.949 164.952 861.984 165.493 861.981 166.115C861.999 166.748 862.063 167.453 862.118 167.729C862.214 168.198 862.628 167.995 830.525 182.445C823.595 185.559 811.781 190.881 811.389 191.095C811.357 191.105 811.237 191.024 811.158 190.911C811.021 190.697 813.508 187.903 832.596 167.095L844.05 154.585L846.472 155.906C847.796 156.632 848.926 157.267 848.972 157.338ZM877.948 176.142C881.457 179.026 885.153 182.073 886.143 182.891C888.563 184.885 905.942 199.15 910.275 202.699C912.166 204.243 915.927 207.321 918.643 209.53L923.539 213.569L923.133 214.426C922.901 214.915 922.727 215.732 922.729 216.232L922.771 217.151L921.87 217.374C921.367 217.486 911.679 219.994 900.297 222.948C888.914 225.903 879.517 228.299 879.368 228.278C879.111 228.206 879.139 228.369 874.544 202.648C872.873 193.193 870.906 182.349 870.224 178.53C868.999 171.658 868.985 171.577 869.589 171.363C869.921 171.221 870.408 170.976 870.653 170.793C870.899 170.61 871.214 170.559 871.346 170.671C871.447 170.794 874.439 173.258 877.948 176.142ZM329.683 -84.3615C331.929 -82.9496 334.828 -81.1284 336.104 -80.2998C337.39 -79.4915 339.842 -77.9568 341.511 -76.8928C343.201 -75.8185 345.674 -74.2736 347.016 -73.4142C348.357 -72.5548 352.206 -70.1096 355.574 -67.9917C365.036 -62.0167 372.459 -57.3308 377.594 -54.0773C380.178 -52.4302 382.794 -50.7931 383.414 -50.4248L384.568 -49.729L384.335 -48.5655C384.216 -47.9226 384.241 -46.9119 384.397 -46.289L384.701 -45.1963L380.251 -42.5076C377.799 -41.0206 372.01 -37.5172 367.364 -34.696C362.719 -31.8749 358.772 -29.5223 358.584 -29.4614C358.303 -29.3699 357.225 -30.9537 354.279 -35.868C348.482 -45.5026 326.866 -81.3745 325.057 -84.3783C324.188 -85.7882 323.54 -86.9937 323.6 -87.0651C323.66 -87.1365 323.831 -87.3302 324.002 -87.5239C324.234 -87.789 324.404 -87.7581 324.94 -87.3797C325.301 -87.1342 327.438 -85.7734 329.683 -84.3615ZM315.431 -88.8325C315.825 -88.0969 316.033 -87.4739 315.893 -87.2904C315.785 -87.117 314.982 -86.1483 314.141 -85.098C313.278 -84.058 309.354 -79.1227 305.379 -74.1365C301.405 -69.1503 296.157 -62.5937 293.713 -59.5551C291.269 -56.5165 285.441 -49.236 280.745 -43.3422C276.038 -37.4791 269.139 -28.8322 265.384 -24.1417C261.638 -19.4716 257.994 -14.9034 257.304 -14.0061C256.593 -13.1189 255.971 -12.3644 255.899 -12.3237C255.836 -12.3033 252.143 -15.2996 247.718 -18.991C243.306 -22.6518 235.043 -29.4826 229.398 -34.1762C223.743 -38.8494 218.571 -43.1442 217.899 -43.7372C217.216 -44.3098 212.044 -48.6046 206.389 -53.2778C191.273 -65.7737 177.122 -77.5128 177.108 -77.5945C177.096 -77.6251 177.28 -78.2373 177.533 -78.9414L177.983 -80.227L190.857 -81.1275C197.927 -81.628 204.426 -82.0986 205.29 -82.1892C206.176 -82.2697 220.967 -83.3615 238.156 -84.5928C255.354 -85.8446 279.547 -87.6071 291.923 -88.5186C304.299 -89.4301 314.492 -90.1507 314.589 -90.1301C314.675 -90.0891 315.062 -89.5067 315.431 -88.8325ZM325.48 -80.9069C329.937 -73.4791 338.793 -58.7769 348.356 -42.9405C352.811 -35.5639 356.592 -29.2804 356.743 -28.9842C357.089 -28.3712 357.683 -28.7889 346.967 -22.3728C345.515 -21.4867 335.976 -15.7121 325.799 -9.5402C315.622 -3.36835 304.682 3.24139 301.489 5.17645C298.305 7.09112 294.71 9.26041 293.525 9.97332C292.176 10.8085 291.305 11.1952 291.139 11.0418C291.017 10.9089 290.589 10.5817 290.216 10.3055C289.812 10.0395 289.524 9.7533 289.563 9.67169C289.592 9.61049 290.273 7.38604 291.074 4.74321C293.213 -2.1852 294.946 -7.80752 296.86 -13.8685C297.569 -16.2052 298.596 -19.4398 299.072 -21.0623C299.57 -22.6745 300.445 -25.5316 301.028 -27.3784C301.588 -29.2356 303.786 -36.2864 305.879 -43.0617C310.742 -58.7144 311.405 -60.898 312.403 -64.0714C313.29 -66.8979 315.146 -72.8365 316.693 -77.8976C318.922 -85.1832 319.231 -86.0606 319.433 -86.04C319.551 -86.0092 320.215 -86.0695 320.889 -86.1502C321.553 -86.2105 322.143 -86.2811 322.186 -86.2606C322.239 -86.2606 323.716 -83.8391 325.48 -80.9069ZM870.284 187.024C871.709 195.039 873.972 207.721 875.299 215.216L877.741 228.806L876.999 229.03C876.424 229.182 852.612 235.345 843.049 237.812C837.869 239.132 809.11 246.625 806.987 247.194C805.565 247.57 797.218 249.763 788.418 252.017C779.63 254.301 772.149 256.23 771.814 256.321C771.302 256.453 771.162 256.412 770.953 256.014C770.656 255.524 770.788 255.411 785.323 242.212C795.336 233.141 813.944 216.201 817.712 212.715C820.131 210.514 843.079 189.609 846.262 186.745C847.654 185.481 852.208 181.343 856.404 177.51L863.984 170.559L865.205 171.112C865.876 171.429 866.651 171.696 866.937 171.706C867.245 171.727 867.485 171.891 867.569 172.105C867.641 172.289 868.859 179.008 870.284 187.024ZM856.6 175.306C853.287 178.333 849.018 182.206 847.117 183.928C845.248 185.641 839.191 191.165 833.693 196.18C822.249 206.597 814.557 213.619 808.955 218.685C804.228 222.966 788.771 237.052 786.415 239.233C777.657 247.275 770.345 253.829 770.367 253.614C770.382 253.471 771.156 252.115 772.104 250.615C773.052 249.116 774.06 247.545 774.315 247.117C774.593 246.699 775.835 244.69 777.077 242.68C778.328 240.651 779.541 238.703 779.768 238.335C780.026 237.958 781.022 236.357 782.008 234.776C782.983 233.164 784.285 231.084 784.866 230.135C785.479 229.176 786.19 228.065 786.446 227.636C786.701 227.208 787.422 226.076 788.025 225.138C788.616 224.169 791.368 219.752 794.139 215.295C796.91 210.838 799.403 206.799 799.709 206.32C800.016 205.84 800.469 205.106 800.746 204.688C801.26 203.882 801.87 202.872 802.965 201.118C804.699 198.293 804.547 198.446 805.502 198.723C808.809 199.738 812.335 196.987 812.085 193.597L811.998 192.382L819.498 189.014C823.605 187.162 835.005 182.043 844.776 177.627C854.567 173.22 862.578 169.669 862.602 169.73C862.635 169.771 859.934 172.289 856.6 175.306ZM317.788 -86.3689C317.643 -86.0629 309.485 -59.8085 307.866 -54.482C307.776 -54.1249 306.991 -51.6249 306.162 -48.9209C305.311 -46.2271 304.317 -42.9516 303.901 -41.6252C303.495 -40.3191 302.231 -36.2478 301.085 -32.5948C299.94 -28.9418 298.813 -25.3297 298.574 -24.544C297.786 -21.8705 296.614 -18.1053 292.504 -4.94244C290.242 2.30226 288.323 8.48577 288.231 8.7919C288.105 9.28171 287.939 9.35294 287.08 9.3211C286.147 9.27895 284.611 9.72595 283.768 10.276C283.45 10.5001 282.803 10.0194 277.622 5.74505C274.442 3.11703 268.567 -1.76061 264.541 -5.06358C260.525 -8.38694 257.201 -11.1581 257.187 -11.2398C257.151 -11.3317 257.858 -12.3209 258.769 -13.4629C259.67 -14.5846 261.852 -17.348 263.655 -19.5912C267.299 -24.1594 278.895 -38.649 284.104 -45.1239C290.253 -52.8021 301.199 -66.476 307.254 -74.1236C309.035 -76.3772 311.33 -79.2118 312.342 -80.4558C313.354 -81.6998 314.786 -83.4944 315.548 -84.4325C316.309 -85.3706 317.04 -86.2985 317.201 -86.4718C317.505 -86.7777 317.952 -86.7158 317.788 -86.3689ZM397.586 -40.5231C404.402 -35.4502 423.58 -21.1825 427.022 -18.6052C427.779 -18.0222 432.404 -14.5857 437.302 -10.9447C445.191 -5.11479 449.815 -1.67828 456.314 3.16964C462.943 8.07897 464.239 9.09143 464.14 9.2444C464.01 9.40755 453.508 20.9689 434.87 41.4409C430.192 46.569 424.355 52.9716 421.917 55.6632L417.451 60.5671L416.133 60.2181C415.373 60.0333 414.57 59.828 414.303 59.7766C413.887 59.7045 413.274 57.1924 410.353 43.7746C408.45 35.0336 405.146 19.9615 403.021 10.2912C400.896 0.620986 398.811 -8.85525 398.395 -10.775C397.979 -12.6948 396.244 -20.5576 394.568 -28.2672L391.482 -42.2876L392.341 -42.7049C392.818 -42.9288 393.259 -43.2446 393.326 -43.3875C393.404 -43.5507 393.596 -43.5096 393.925 -43.2539C394.178 -43.0596 395.812 -41.8119 397.586 -40.5231ZM696.988 106.879C716.443 122.351 800.03 189.017 801.306 190.07C802.032 190.663 802.056 190.725 801.679 191.52L801.274 192.377L790.781 190.484C756.946 184.414 730.368 179.629 727.806 179.166C726.204 178.858 712.199 176.327 696.691 173.559C631.079 161.767 626.766 160.975 626.795 160.69C626.854 160.118 626.077 158.177 625.565 157.636C624.986 157.012 625.003 156.92 625.972 155.656C626.332 155.176 628.564 152.137 630.883 148.915C633.224 145.703 637.289 140.135 639.9 136.576C642.52 132.996 646.744 127.204 649.314 123.675C651.862 120.137 654.772 116.17 655.739 114.854C656.715 113.518 658.559 111.02 659.803 109.286C661.079 107.543 663.311 104.504 664.755 102.515C666.199 100.526 668.371 97.5589 669.545 95.917L671.696 92.9392L672.694 93.2367C673.252 93.4008 674.241 93.4941 674.895 93.4541C676.067 93.3843 677.769 92.6415 678.02 92.1111C678.097 91.9478 678.278 91.9583 678.487 92.1321C678.653 92.2855 686.98 98.9224 696.988 106.879ZM668.779 88.4128C668.738 88.668 668.975 89.4544 669.282 90.1489C669.601 90.8742 669.811 91.5482 669.763 91.6502C669.715 91.7522 668.553 92.9756 667.187 94.3518C665.821 95.728 661.775 99.8566 658.185 103.527C654.626 107.186 650.479 111.417 648.98 112.905C647.503 114.404 640.089 121.958 632.525 129.715C624.961 137.473 618.658 143.855 618.554 143.906C618.42 143.967 616.568 136.349 614.457 126.985C612.314 117.631 609.249 104.07 607.594 96.8197C605.158 86.1282 604.685 83.6571 605.005 83.484C606.132 82.8935 607.057 82.0578 607.525 81.1805C607.875 80.4971 608.179 80.1913 608.434 80.212C608.636 80.2327 613.353 80.8417 618.922 81.5539C624.491 82.2661 631.232 83.1332 633.914 83.4534C636.597 83.7737 644.242 84.744 650.908 85.6007C657.574 86.4574 664.206 87.2732 665.664 87.4386C668.729 87.79 668.847 87.8208 668.779 88.4128ZM392.567 -30.5873C393.92 -24.3788 395.472 -17.3022 395.995 -14.8821C396.509 -12.4416 397.778 -6.67213 398.806 -2.01571C399.844 2.62032 401.556 10.4219 402.627 15.3234C403.698 20.2249 405.402 27.8733 406.368 32.3255C407.343 36.7573 409.11 44.8345 410.31 50.2466C411.51 55.6587 412.423 60.1108 412.351 60.1515C412.204 60.1819 410.958 58.1691 404.359 47.2063C402.561 44.2332 395.435 32.3713 388.483 20.8669C381.553 9.37282 374.68 -2.01913 373.247 -4.42011C371.793 -6.83132 369.925 -9.93727 369.1 -11.3268C367.201 -14.4226 364.119 -19.5515 361.221 -24.3433L359.066 -27.96L360.817 -29.0295C361.785 -29.6202 367.709 -33.1847 373.982 -36.9836L385.365 -43.8581L386.875 -43.0189C387.712 -42.5481 388.671 -42.169 389.023 -42.1277C389.383 -42.1068 389.778 -42.045 389.886 -41.9938C390.016 -41.9323 391.214 -36.7959 392.567 -30.5873ZM923.992 219.552C924.441 220.114 925.179 220.737 925.612 220.942L926.391 221.311L925.383 226.128C924.816 228.781 923.406 235.455 922.26 240.956C918.345 259.754 917.657 262.999 915.855 271.511C914.862 276.185 913.774 281.338 913.447 282.981C913.13 284.604 912.255 288.86 911.497 292.421C910.76 295.993 909.525 301.851 908.781 305.494C908.025 309.107 907.059 313.669 906.671 315.608C906.261 317.536 904.714 324.894 903.248 331.967C901.477 340.468 900.458 344.805 900.28 344.845C900.111 344.866 899.9 344.416 899.769 343.854C899.518 342.537 893.972 311.547 890.803 293.617C889.423 285.898 887.532 275.34 886.618 270.163C880.505 236.007 879.45 230.065 879.539 229.932C879.597 229.81 923 218.458 923.151 218.53C923.151 218.53 923.543 218.99 923.992 219.552ZM664.156 100.758C662.861 102.543 660.441 105.867 658.768 108.172C654.643 113.811 653.377 115.535 649.821 120.42C648.148 122.724 644.92 127.14 642.649 130.261C640.378 133.381 636.603 138.562 634.262 141.774C631.943 144.996 629.551 148.26 629.004 149.025C628.435 149.779 627.049 151.645 625.923 153.185C624.807 154.705 623.859 155.979 623.818 156.01C623.756 156.03 623.371 155.948 622.953 155.825C622.544 155.681 621.935 155.568 621.584 155.527C621.233 155.486 620.92 155.363 620.872 155.24C620.774 154.944 618.978 146.928 618.864 146.274C618.804 145.897 620.226 144.347 625.901 138.567C629.826 134.581 638.565 125.681 645.322 118.79C652.078 111.899 659.594 104.243 662.001 101.786C664.408 99.3295 666.425 97.3622 666.449 97.4235C666.473 97.4847 665.419 98.9839 664.156 100.758ZM481.004 21.5182L492.86 30.3242L492.587 31.2937C492.452 31.8039 492.366 32.7123 492.401 33.2534C492.451 34.1007 492.398 34.3252 492.034 34.4779C491.589 34.6916 457.278 47.8731 454.707 48.8291C453.968 49.1037 446.04 52.1447 437.073 55.5927C417.183 63.2617 419.214 62.5499 418.859 61.9574C418.605 61.4874 418.957 61.0796 427.454 51.7408C432.343 46.3883 442.807 34.9086 450.709 26.2121C458.611 17.5155 465.163 10.3279 465.265 10.226C465.508 9.99154 465.847 10.2268 481.004 21.5182ZM597.315 78.7467L597.325 79.6757L584.998 83.7314C578.219 85.9677 561.313 91.5277 547.433 96.1223C533.553 100.717 522.129 104.376 522.071 104.274C521.936 104.11 518.017 92.2424 508.233 62.5429C506.364 56.8645 503.808 49.1128 502.579 45.385C501.338 41.6266 500.303 38.4401 500.274 38.2768C500.267 38.1236 500.609 37.7362 501.038 37.3897C501.479 37.0739 501.915 36.656 502.012 36.4519C502.099 36.2683 502.26 36.095 502.388 36.1054C502.671 36.065 506.884 37.9084 530.644 48.4259C533.053 49.4909 536.554 51.0475 538.423 51.8566C540.291 52.6657 544.095 54.3656 546.851 55.5945C549.628 56.8337 553.182 58.3904 554.738 59.0765C556.325 59.7525 559.913 61.35 562.733 62.6096C565.554 63.8693 569.011 65.4054 570.404 65.9892C571.786 66.5935 575.795 68.3652 579.274 69.9115C582.775 71.4681 587.433 73.547 589.679 74.5097C591.915 75.4929 594.529 76.6297 595.522 77.0496L597.273 77.8279L597.315 78.7467ZM598.365 81.5657C598.381 81.6984 598.835 82.138 599.374 82.5676C600.318 83.3141 600.33 83.3447 600.014 84.0691C599.811 84.4975 599.526 85.2117 599.357 85.6811C599.05 86.6096 597.925 89.7726 593.958 100.731C592.598 104.557 591.32 108.097 591.144 108.638C590.864 109.454 590.028 111.781 587.639 118.341C587.363 119.035 586.82 120.576 586.397 121.749C585.974 122.922 585.412 124.504 585.129 125.269C584.846 126.034 584.332 127.514 583.957 128.585C583.592 129.636 583.001 131.279 582.641 132.207C582.303 133.146 581.916 134.187 581.795 134.554C581.706 134.911 581.179 136.36 580.672 137.768C580.165 139.176 579.561 140.788 579.355 141.39C579.16 141.972 578.181 144.655 577.193 147.359C576.215 150.042 575.295 152.603 575.176 153.022C575.036 153.43 574.691 154.44 574.379 155.266C573.698 157.042 571.406 163.398 570.949 164.755C570.751 165.286 570.405 166.296 570.152 167C569.876 167.694 569.07 169.959 568.316 171.999C567.562 174.04 566.693 176.55 566.347 177.56C566.002 178.57 565.487 180.05 565.175 180.876C564.448 182.805 563.134 186.478 561.697 190.467C561.079 192.222 560.12 194.865 559.583 196.334C559.047 197.803 558.482 199.334 558.363 199.752C558.223 200.16 557.829 201.272 557.47 202.201L556.849 203.905L555.853 203.883C554.698 203.861 554.94 204.3 553.328 199.367C552.291 196.13 530.252 129.244 528.803 124.863C525.786 115.845 522.595 106.02 522.634 105.938C522.76 105.673 597.759 81.0544 598.04 81.1875C598.213 81.2695 598.348 81.433 598.365 81.5657ZM606.734 99.5339C608.62 107.918 610.406 115.729 610.65 116.894C610.906 118.088 612.417 124.746 614.017 131.721C615.607 138.716 616.948 144.669 616.984 144.986C617.048 145.465 615.918 146.679 608.099 154.64C603.162 159.646 590.135 172.959 579.112 184.224C568.097 195.468 558.951 204.724 558.825 204.765C558.262 204.948 558.302 204.192 558.934 202.519C559.302 201.519 559.734 200.326 559.903 199.856C560.051 199.377 560.616 197.846 561.123 196.438C561.63 195.03 562.785 191.806 563.708 189.296C564.609 186.776 565.529 184.215 565.725 183.633C565.93 183.031 566.691 180.919 567.416 178.94C568.129 176.93 568.889 174.818 569.107 174.246C569.312 173.644 570.834 169.42 572.489 164.86C574.153 160.278 575.653 156.044 575.871 155.473C576.076 154.871 577.943 149.636 580.05 143.841C582.134 138.036 584.033 132.791 584.229 132.21C584.434 131.608 585.579 128.404 586.814 125.067C588.026 121.721 589.352 118.078 589.724 116.956C590.118 115.844 591.036 113.232 591.79 111.191C592.522 109.14 593.244 107.11 593.384 106.702C593.524 106.294 594.097 104.692 594.652 103.182C595.643 100.529 597.708 94.7641 598.505 92.5194C599.179 90.591 601.464 84.3059 601.6 84.0203C601.744 83.7142 603.07 83.7671 603.18 84.094C603.238 84.1961 604.826 91.14 606.734 99.5339ZM493.853 36.5119C494.208 36.8799 494.725 37.2991 495.006 37.4323C495.547 37.6882 495.656 37.2903 492.703 46.3306C492.246 47.6877 491.746 49.2489 491.569 49.7897C491.393 50.3305 490.745 52.3712 490.105 54.3405C489.464 56.3098 488.834 58.2587 488.715 58.677C488.575 59.0852 487.925 61.0749 487.277 63.1156C486.618 65.1257 485.049 69.952 483.797 73.8294C482.524 77.6966 480.595 83.6759 479.483 87.1452C478.36 90.5838 476.68 95.757 475.774 98.6243C474.846 101.481 473.147 106.695 472.016 110.205C470.863 113.705 469.853 116.848 469.773 117.185C469.626 117.664 469.481 117.746 468.884 117.663C468.48 117.622 467.544 117.753 466.781 117.966L465.411 118.342L462.185 114.918C460.414 113.006 457.231 109.603 455.105 107.323C451.141 103.05 445.286 96.7845 435.415 86.2459C432.311 82.9544 427.369 77.6697 424.419 74.501L419.054 68.7666L419.6 67.2769C419.989 66.2873 420.141 65.4606 420.058 64.797C419.956 63.9495 420.021 63.7557 420.363 63.5928C420.601 63.4809 428.154 60.5617 437.133 57.1444C446.122 53.7067 454.924 50.33 456.713 49.6281C469.007 44.8578 492.98 35.7246 493.088 35.7758C493.175 35.8168 493.519 36.1541 493.853 36.5119ZM500.406 43.4832C501.281 46.1692 502.424 49.6314 502.96 51.1839C503.466 52.7464 506.832 62.9289 510.421 73.816C514.01 84.7031 517.783 96.1519 518.825 99.2669L520.691 104.894L514.989 106.816C511.84 107.873 501.202 111.38 491.326 114.622C475.139 119.948 473.365 120.507 473.113 120.089C472.965 119.843 472.474 119.312 472.001 118.913C471.528 118.514 471.131 118.177 471.097 118.136C471.061 118.044 472.504 113.483 475.223 105.106C476.04 102.596 477.21 99.004 477.821 97.0959C478.433 95.1878 480.521 88.7595 482.461 82.8108C484.402 76.8621 487.249 68.0462 488.795 63.2096C490.364 58.3833 491.754 54.0468 491.923 53.5774C492.07 53.0978 492.701 51.149 493.312 49.2409C495.582 42.1493 496.887 38.272 496.971 38.2619C497.423 38.2013 498.393 38.3354 498.578 38.4479C498.72 38.54 499.532 40.7972 500.406 43.4832ZM365.116 -15.1095C368.013 -10.3177 372.413 -2.99214 374.909 1.13555C377.406 5.26322 384.461 16.9413 390.567 27.0969C396.705 37.2424 403.729 48.9306 406.225 53.0583C408.722 57.186 410.817 60.6496 410.865 60.7721C410.913 60.8947 410.723 61.3538 410.424 61.7617L409.898 62.5368L408.39 61.9732C406.774 61.3584 404.963 60.6515 401.556 59.289C400.337 58.7871 399.086 58.2953 398.764 58.1928C398.442 58.0902 396.802 57.4142 395.097 56.7074C393.402 55.9802 391.839 55.3655 391.646 55.3244C391.454 55.2833 390.138 54.7608 388.736 54.1974C387.344 53.6135 385.026 52.6915 383.614 52.1485C380.5 50.9497 378.312 50.0891 375.799 49.075C374.18 48.4091 371.215 47.231 362.212 43.6454C361.296 43.2868 359.937 42.7438 359.194 42.4672C358.461 42.1701 356.963 41.5861 355.852 41.1354C354.762 40.6949 353.252 40.0802 352.509 39.8036C351.215 39.2913 350.138 38.8815 346.257 37.3448C345.275 36.9555 340.014 34.8655 334.558 32.6835C329.092 30.5218 324.078 28.5241 323.4 28.2781C322.731 28.0118 321.276 27.4483 320.165 26.9975C319.076 26.557 316.758 25.635 315.043 24.9486C309.803 22.869 308.865 22.5001 306.795 21.6704C305.696 21.2503 304.424 20.7483 303.993 20.5945C303.563 20.4408 302 19.8261 300.543 19.2115C299.085 18.597 297.436 17.9413 296.875 17.7262C292.85 16.2709 292.374 16.0456 292.576 15.6172C292.682 15.3927 292.667 14.5863 292.526 13.8204L292.273 12.4522L296.528 9.89589C301.566 6.86094 301.144 7.13598 321.137 -5.00409C329.79 -10.2492 339.071 -15.871 341.761 -17.4699C344.439 -19.0995 349.033 -21.8696 351.938 -23.6418C354.873 -25.4241 357.387 -26.9314 357.563 -27.023C357.801 -27.135 358.138 -26.7261 358.86 -25.5103C359.41 -24.601 362.228 -19.9216 365.116 -15.1095ZM134.275 -120.009C136.656 -117.484 139.793 -114.152 141.23 -112.598C142.698 -111.055 146.215 -107.293 149.074 -104.267C151.933 -101.242 154.681 -98.3183 155.14 -97.7766C155.63 -97.2451 156.099 -96.7238 156.231 -96.6114C156.363 -96.4989 155.79 -96.0709 154.786 -95.5721C153.876 -95.1039 147.656 -91.9787 141.003 -88.6091C134.329 -85.2498 127.614 -81.8599 126.051 -81.0761C124.498 -80.3127 117.773 -76.9024 111.098 -73.5431C95.8568 -65.8471 92.1825 -64.0148 92.0959 -64.0558C92.0526 -64.0763 91.733 -64.3523 91.4014 -64.659L90.8031 -65.2418L92.0045 -67.4451C92.6799 -68.6487 93.5314 -70.1685 93.9149 -70.8111C94.2984 -71.4537 95.9941 -74.4219 97.6898 -77.3901C99.3855 -80.3583 101.101 -83.3674 101.513 -84.0712C102.188 -85.2748 109.116 -97.4537 111.065 -100.901C111.555 -101.768 112.165 -102.778 112.392 -103.145C112.618 -103.512 113.364 -104.808 114.008 -106.001C114.662 -107.215 115.436 -108.572 115.72 -109.061C116.95 -111.101 124.006 -123.494 124.305 -124.127C124.479 -124.494 124.645 -124.565 125.035 -124.381C125.867 -124.012 127.558 -124.061 128.596 -124.519C129.147 -124.733 129.681 -124.854 129.77 -124.762C129.891 -124.681 131.894 -122.534 134.275 -120.009ZM879.405 238.109C880.13 242.173 881.856 251.903 883.25 259.705C884.623 267.495 886.611 278.574 887.625 284.323C888.65 290.051 890.342 299.517 891.38 305.327C892.419 311.137 894.438 322.43 895.873 330.425L898.475 344.965L897.623 345.311C897.156 345.515 896.621 345.861 896.421 346.116C895.989 346.636 896.163 346.718 893.417 344.795C892.172 343.956 888.216 341.235 884.576 338.739C877.058 333.583 869.474 328.397 859.376 321.472C846.621 312.716 836.905 306.046 826.983 299.254C821.605 295.561 813.683 290.139 809.387 287.183C805.104 284.257 799.529 280.421 796.984 278.693C794.47 276.954 790.011 273.895 787.092 271.89C784.174 269.885 779.585 266.765 776.886 264.914C774.208 263.072 771.824 261.395 771.624 261.201C771.37 260.955 771.344 260.618 771.522 260.129C771.653 259.741 771.781 259.078 771.741 258.659C771.708 257.944 771.759 257.893 772.416 257.68C772.813 257.568 781.057 255.426 790.777 252.908C800.486 250.41 809.515 248.065 810.853 247.699C812.192 247.334 819.945 245.334 828.073 243.212C836.213 241.12 843.945 239.11 845.283 238.744C858.921 235.109 877.82 230.317 877.933 230.471C878.013 230.583 878.667 234.014 879.405 238.109ZM163.438 -89.0062L168.022 -84.1406L167.525 -82.9776C167.247 -82.3348 167.015 -81.396 167.017 -80.8958C166.987 -80.3854 166.953 -79.9771 166.922 -79.967C166.869 -79.967 162.616 -78.9828 157.472 -77.7957C152.329 -76.6086 147.216 -75.4317 146.148 -75.1882C145.079 -74.9447 140.848 -73.9502 136.773 -73.0066C132.688 -72.0426 122.989 -69.7901 115.217 -67.9737C107.455 -66.1778 99.3482 -64.2701 97.2109 -63.7831C95.0856 -63.2655 93.6151 -63.0124 93.9546 -63.2263C94.677 -63.6336 147.066 -90.0604 154.531 -93.7452L157.552 -95.262L158.208 -94.5771C158.554 -94.1887 160.923 -91.6945 163.438 -89.0062ZM190.357 -64.7337C197.675 -58.6495 206.202 -51.5937 209.273 -49.0169C212.354 -46.4604 215.952 -43.4847 217.271 -42.411C224.873 -36.1426 254.815 -11.2635 254.872 -11.1614C254.899 -11.049 238.58 9.44659 228.572 21.8662C226.649 24.2522 222.833 29.0141 220.09 32.4606C217.347 35.9071 212.862 41.5256 210.119 44.9721L205.131 51.2023L204.254 50.9867C203.76 50.8533 202.983 50.7603 202.529 50.7699C201.756 50.779 201.691 50.7483 201.519 50.2172C201.421 49.9211 200.512 45.7956 199.492 41.0677C198.481 36.3195 197.469 31.5712 197.209 30.4989C196.979 29.4165 196.37 26.7309 195.908 24.515C195.425 22.2889 193.293 12.4656 191.173 2.67281C189.053 -7.11994 186.92 -16.9433 186.438 -19.1694C185.976 -21.3853 185.283 -24.51 184.934 -26.1234C184.585 -27.7368 183.595 -32.2503 182.74 -36.151C181.905 -40.0416 179.692 -50.253 177.839 -58.8204C175.987 -67.3877 174.438 -74.6378 174.393 -74.9339C174.34 -75.3832 174.47 -75.5463 175.191 -76.0047C175.913 -76.412 176.144 -76.4525 176.55 -76.1355C176.824 -75.9309 183.029 -70.7976 190.357 -64.7337ZM167.984 -77.7911C168.323 -77.3312 168.616 -76.9429 168.64 -76.8816C168.686 -76.8101 167.798 -75.6068 155.326 -58.9849C151.155 -53.417 144.969 -45.157 141.587 -40.6395C138.205 -36.122 134.194 -30.7786 132.677 -28.7492C131.161 -26.7199 129.355 -24.3031 128.688 -23.3955C128.01 -22.4675 127.328 -21.6416 127.174 -21.5398C126.989 -21.4277 125.95 -22.3683 123.541 -24.8319C121.674 -26.764 113.724 -34.8704 105.862 -42.8848L91.5716 -57.462L92.023 -58.4719C92.2933 -59.0432 92.5929 -59.9003 92.7283 -60.4105L92.9726 -61.3187L117.159 -66.9298C130.462 -70.0245 142.478 -72.8046 143.849 -73.1294C145.221 -73.4541 151.065 -74.8341 156.815 -76.1837C162.566 -77.5333 167.3 -78.6393 167.322 -78.6291C167.353 -78.6393 167.646 -78.2509 167.984 -77.7911ZM174.777 -66.0624C175.86 -61.1302 178.477 -49.0297 180.612 -39.1553C182.725 -29.2911 184.75 -19.968 185.106 -18.4261C185.441 -16.8944 188.001 -5.1206 190.769 7.72534C193.558 20.5815 196.819 35.6332 198.036 41.178L200.233 51.2567L199.585 51.6743L198.925 52.0613L190.441 43.4029C185.778 38.6494 176.85 29.531 170.61 23.1829C164.38 16.8143 157.785 10.0981 155.964 8.23765C154.143 6.37718 147.158 -0.747865 140.419 -7.60715C133.68 -14.4664 128.161 -20.099 128.149 -20.1296C128.137 -20.1603 129.571 -22.1284 131.358 -24.5045C133.144 -26.8805 136.835 -31.8263 139.568 -35.477C142.302 -39.1277 145.494 -43.4107 146.682 -44.9709C147.849 -46.5413 150.154 -49.6209 151.791 -51.793C153.406 -53.9753 155.033 -56.127 155.382 -56.5858C155.732 -57.0447 157.359 -59.1964 158.974 -61.3787C160.611 -63.5507 163.723 -67.7215 165.919 -70.6278L169.88 -75.9203L170.847 -75.6127C171.362 -75.469 171.992 -75.3457 172.204 -75.3454C172.425 -75.3655 172.651 -75.2835 172.718 -75.2017C172.764 -75.1302 173.704 -71.0149 174.777 -66.0624ZM618.52 151.48C619.022 153.665 619.423 155.504 619.385 155.585C619.356 155.646 618.903 155.932 618.388 156.237C616.437 157.337 615.492 160.061 616.3 162.216L616.696 163.227L610.06 168.128C606.435 170.808 597.321 177.532 589.835 183.055C582.349 188.577 573.326 195.22 569.805 197.849C566.271 200.447 563.362 202.566 563.359 202.515C563.314 202.444 596.335 168.701 608.315 156.59C612.19 152.655 615.799 148.945 616.354 148.333C616.877 147.731 617.375 147.293 617.452 147.355C617.519 147.436 617.996 149.285 618.52 151.48ZM524.187 115.587C525.813 120.602 527.423 125.484 527.776 126.474C528.434 128.384 529.539 131.704 542.167 170.115C546.652 183.698 550.88 196.536 551.592 198.67C553.53 204.482 553.465 204.226 552.907 204.512C552.379 204.786 552.358 204.776 548.362 200.738C547.375 199.747 539.78 192.233 531.498 184.044C513.126 165.888 494.532 147.477 484.152 137.172C479.904 132.94 475.68 128.769 474.772 127.89L473.155 126.326L473.643 125.183C473.949 124.479 474.121 123.612 474.091 122.948L474.02 121.866L497.486 114.141C510.386 109.882 521.004 106.416 521.069 106.447C521.156 106.487 522.55 110.593 524.187 115.587ZM261.912 -5.38375C265.026 -2.78645 270.924 2.10145 274.985 5.49633L282.402 11.6522L282.049 12.7338C281.679 13.9072 281.663 14.7239 281.982 15.6737C282.215 16.358 285.402 14.77 236.763 38.4764C207.054 52.9609 206.245 53.3272 206.564 51.9802C206.608 51.7761 211.491 45.5967 217.38 38.2449C223.29 30.9033 228.817 23.9796 229.678 22.8886C230.548 21.7771 234.043 17.4129 237.447 13.1302C250.896 -3.65369 255.963 -9.99609 256.011 -10.0981C256.089 -10.2613 255.87 -10.4148 261.912 -5.38375ZM409.34 64.2204C409.325 64.3633 402.306 64.5882 393.779 64.6986C385.22 64.8192 377.403 64.9409 376.366 64.9497C373.88 64.9972 368.781 65.0819 363.565 65.1357C361.226 65.1529 358.105 65.1995 356.635 65.228C355.165 65.2566 352.234 65.2933 350.098 65.3311C347.971 65.3485 341.919 65.4319 336.64 65.5061C326.886 65.6352 325.226 65.6737 313.45 65.8204C309.79 65.8867 303.399 65.9593 299.232 66.0351C292.43 66.1378 290.974 66.0235 291.264 65.4114C291.312 65.3094 291.216 63.4411 291.075 61.2768C290.622 54.6203 290.471 52.4764 289.897 43.3902C289.603 38.5816 289.264 33.7016 289.191 32.5684C288.872 28.5969 288.591 24.5438 288.462 22.1855L288.355 19.8374L289.188 19.5324C290.115 19.1968 291.027 18.555 291.649 17.8004C291.859 17.5251 292.17 17.3724 292.321 17.4441C292.581 17.567 304.289 22.2079 307.081 23.3041C307.954 23.6422 310.963 24.8408 313.766 25.9677C316.602 27.0844 319.449 28.2317 320.127 28.4777C320.796 28.744 322.207 29.2871 323.253 29.7071C325.562 30.6495 331.297 32.9136 333.281 33.7025C334.079 34.0303 335.491 34.5733 336.407 34.9319C337.323 35.2905 338.93 35.9257 339.976 36.3457C341.022 36.7657 343.027 37.5648 344.439 38.1078C345.851 38.6508 348.06 39.5217 349.345 40.0543C350.629 40.5869 352.127 41.1709 352.687 41.3861C353.247 41.6013 354.746 42.1853 356.03 42.7179C357.314 43.2506 358.812 43.8345 359.372 44.0497C359.933 44.2649 361.344 44.8079 362.499 45.2791C363.653 45.7503 365.173 46.3446 365.841 46.6109C367.253 47.1539 367.738 47.3588 379.103 51.8869C383.761 53.7412 388.936 55.7902 390.586 56.4458C392.235 57.1015 394.51 58.003 395.6 58.4435C396.711 58.8942 398.014 59.3861 398.509 59.5705C399.005 59.755 400.568 60.3697 401.97 60.9331C403.362 61.5169 405.368 62.316 406.423 62.7156C408.956 63.689 409.379 63.9142 409.34 64.2204ZM104.516 -42.2231C120.006 -26.4294 122.115 -24.2827 124.559 -21.7782C126.013 -20.3164 126.205 -20.0507 125.923 -19.7346C125.742 -19.5205 124.614 -18.0317 123.418 -16.4001C120.417 -12.3516 118.421 -9.70028 112.922 -2.38869C107.083 5.36137 101.517 12.8158 99.533 15.4978C98.7158 16.6093 97.9275 17.6596 97.7853 17.7922C97.5347 18.098 95.1003 17.6454 94.9878 17.2676C94.9615 17.1552 94.6034 13.49 94.2342 9.1203C93.8651 4.75062 92.6078 -9.55297 91.4475 -22.6621C90.2872 -35.7711 89.1362 -48.6761 88.909 -51.3305L88.4875 -56.1494L89.3205 -56.4545C89.7682 -56.6172 90.2087 -56.7085 90.2952 -56.6675C90.3602 -56.6368 96.7656 -50.1353 104.516 -42.2231ZM85.6873 -56.5005C86.2357 -56.316 86.772 -56.1621 86.8443 -56.2028C86.9911 -56.2332 87.1883 -54.4669 88.0071 -44.8904C88.3293 -41.317 88.881 -35.0381 89.2264 -30.9543C89.5936 -26.8603 90.6403 -15.0784 91.5351 -4.7668C92.4516 5.55508 93.2661 14.8049 93.3634 15.7749C93.4726 16.7754 93.5123 17.6432 93.4833 17.7044C93.4231 17.7758 93.1245 17.9591 92.7922 18.1016L92.1903 18.3661L88.9615 14.8907C87.2006 12.9589 78.379 3.39147 69.3893 -6.38035C60.3996 -16.1522 49.6273 -27.8661 45.4832 -32.3738C41.3175 -36.8917 37.9278 -40.643 37.9664 -40.7246C37.9954 -40.7858 42.9837 -42.8204 49.0241 -45.2312C55.074 -47.6625 65.1276 -51.6704 71.3653 -54.1626L82.7069 -58.7097L83.6921 -57.7691C84.3337 -57.1659 85.0092 -56.7464 85.6873 -56.5005ZM137.028 -9.06151C142.336 -3.65383 147.944 2.07074 149.51 3.68585C153.842 8.13258 180.013 34.8234 183.276 38.1151C197.505 52.488 198.05 53.0707 197.78 53.6419C197.538 54.152 197.433 54.1519 196.218 53.752C195.497 53.4856 193.65 52.9113 192.125 52.4396C186.252 50.6346 182.762 49.5578 172.367 46.3378C166.451 44.5123 158.291 41.9998 154.221 40.7486C145.869 38.195 133.23 34.2878 127.528 32.5137C125.433 31.8472 121.332 30.6062 118.401 29.6935C115.481 28.8115 112.41 27.8578 111.582 27.5912C110.755 27.3246 108.093 26.5144 105.644 25.7555C103.186 25.017 101.048 24.3301 100.875 24.2482C100.702 24.1662 100.633 23.8089 100.701 23.4415C100.894 22.5842 100.188 20.3272 99.4766 19.5912C99.198 19.2846 99.0109 18.8964 99.0784 18.7536C99.2522 18.3863 101.497 15.378 123.824 -14.4599C126.727 -18.3554 127.228 -18.9672 127.336 -18.916C127.38 -18.8955 131.743 -14.459 137.028 -9.06151ZM53.1703 -21.9199C81.2301 8.5609 90.8683 19.089 90.9762 19.3648C91.0698 19.5589 90.7908 19.4769 90.1802 19.0881C89.6778 18.7505 87.6872 17.5839 85.7303 16.4583C83.795 15.3428 81.6745 14.1148 81.0543 13.7465C78.6718 12.3446 77.8015 11.8329 76.3783 11.0347C75.0199 10.2671 73.878 9.60197 71.8105 8.37406C71.3537 8.10799 70.3416 7.50428 69.5266 7.04375C68.7332 6.59347 67.6995 5.97951 67.2427 5.71345C66.7859 5.44739 65.7738 4.84367 64.9588 4.38314C64.1654 3.93286 63.0451 3.27795 62.4585 2.95046C61.9032 2.6128 57.7922 0.218254 53.3229 -2.37075C48.8753 -4.94952 44.721 -7.36455 44.1008 -7.73292C43.0454 -8.35712 39.6099 -10.3322 37.011 -11.8365C33.9457 -13.5864 30.5848 -15.5511 27.7672 -17.2089C26.0603 -18.1913 23.9399 -19.4193 23.0912 -19.9207C21.1895 -20.9952 17.2636 -23.2772 16.1313 -23.9628C15.6746 -24.2288 14.5975 -24.8633 13.7392 -25.3443C11.5539 -26.603 11.2679 -26.8382 11.461 -27.2462C11.5575 -27.4503 11.5971 -28.2056 11.5644 -28.9202L11.5254 -30.2372L23.9696 -35.2114L36.3825 -40.1756L40.3704 -35.8416C42.5542 -33.46 48.303 -27.1942 53.1703 -21.9199Z" fill="url(#paint0_linear_156_200)"/>
<defs>
<linearGradient id="paint0_linear_156_200" x1="426.092" y1="209.507" x2="654.026" y2="-272.242" gradientUnits="userSpaceOnUse">
<stop stop-color="white"/>
<stop offset="1" stop-color="#460085"/>
</linearGradient>
</defs>
</svg>
