<svg width="396" height="1024" viewBox="0 0 396 1024" fill="none" xmlns="http://www.w3.org/2000/svg">
<path d="M664.244 1310.99C664.396 1306.79 661.62 1303.58 657.878 1303.56C656.871 1303.54 657.767 1307.19 650.968 1275.74C649.121 1267.28 647.024 1257.59 646.314 1254.23C645.569 1250.89 643.222 1239.99 641.086 1230.02C638.922 1220.05 636.242 1207.71 635.113 1202.58C633.984 1197.44 632.662 1191.31 632.145 1188.95C631.656 1186.59 630.382 1180.7 629.32 1175.86C628.258 1171.01 626.496 1162.87 625.395 1157.75C622.13 1142.75 619.87 1132.28 616.06 1114.71C614.088 1105.63 611.694 1094.58 610.755 1090.14C609.779 1085.73 609.092 1081.86 609.181 1081.55C609.297 1081.25 609.23 1080.96 609.065 1080.91C608.872 1080.86 608.534 1079.95 608.314 1078.95L607.902 1077.05L607.53 1078.25C607.3 1079.06 607.092 1079.37 606.907 1079.19C605.92 1078.37 554.763 1036.07 544.932 1027.95C538.449 1022.61 531.661 1016.98 529.881 1015.5C528.101 1014.02 523.333 1010.07 519.285 1006.73L511.907 1000.66L512.349 999.107C512.986 996.865 512.879 995.253 512.002 993.422C511.451 992.323 510.813 991.535 509.809 990.88L508.391 989.905L509.051 986.222C509.443 984.213 509.763 982.352 509.788 982.056C509.84 981.768 510.039 980.545 510.301 979.307C510.676 977.361 510.989 975.632 511.926 970.345C512.038 969.636 513.81 959.841 515.879 948.581C521.927 915.364 522.274 913.41 522.394 912.569C522.463 912.117 522.672 910.965 522.854 910.007C523.542 906.332 527.443 884.856 527.616 883.828C527.763 882.894 527.862 882.754 528.922 882.584C533.105 881.888 535.865 876.782 534.432 872.403C533.81 870.51 532.618 869.262 530.744 868.528L529.118 867.864L538.774 848.226C544.104 837.422 550.197 825.085 552.315 820.773C554.433 816.461 557.924 809.408 560.059 805.034C570.227 784.43 571.807 781.278 572.398 780.033C572.757 779.293 575.566 773.596 578.68 767.345C581.768 761.087 585.878 752.798 587.789 748.898C589.7 744.998 592.833 738.686 594.717 734.879C596.602 731.073 599.482 725.228 601.088 721.88C604.273 715.381 606.364 711.162 609.622 704.616C610.772 702.351 614.361 695.058 617.627 688.379C620.884 681.732 625.308 672.757 627.426 668.445C629.543 664.133 634.946 653.181 639.433 644.09C643.892 634.991 648.344 626.024 649.259 624.164C650.811 621.003 652.669 617.291 657.703 607.008L659.696 603.031L661.417 603.15C663.614 603.269 665.254 602.523 666.909 600.57C669.469 597.528 669.49 593.058 666.958 590.454C665.008 588.419 662.47 588.034 659.692 589.331L658.052 590.077L656.453 588.377C655.593 587.426 652.922 584.58 650.519 582.046C648.152 579.489 643.835 574.897 640.932 571.817C638.058 568.745 634.49 564.971 633.048 563.451C631.615 561.899 627.742 557.837 624.479 554.352C621.216 550.867 617.352 546.773 615.91 545.253C614.468 543.733 611.88 541.012 610.198 539.187C606.99 535.718 584.601 511.922 580.045 507.127C578.603 505.606 577.124 504.008 576.735 503.595C576.384 503.158 574.831 501.505 573.315 499.93C570.339 496.796 567.132 493.428 564.626 490.73C563.766 489.779 559.376 485.132 554.92 480.399C539.363 463.862 522.78 446.226 517.114 440.206C513.989 436.862 509.941 432.581 508.157 430.694L504.931 427.287L505.462 426.361C506.523 424.509 506.576 421.393 505.522 419.344L504.87 418.081L506.397 416.159C508.259 413.794 517.424 402.161 520.001 398.956C521.022 397.664 524.041 393.843 526.735 390.435C529.401 387.019 533.378 382.024 535.548 379.309C537.69 376.585 540.836 372.632 542.517 370.485C547.588 364.05 548.618 362.727 552.369 358.004C554.358 355.506 556.545 352.729 557.25 351.818C559.528 348.931 563.279 344.208 565.639 341.244L567.944 338.365L569.788 338.889C572.659 339.671 574.82 338.871 576.79 336.335C579.329 333.051 578.784 327.747 575.671 325.617L574.704 324.938L587.606 279.532L600.508 234.127L601.906 233.918C606.849 233.269 609.75 227.665 607.574 222.974C606.415 220.457 604.446 219.326 601.271 219.299C600.494 219.313 601.295 221.83 593.657 194.383C590.549 183.234 585.933 166.609 583.384 157.47C580.835 148.332 577.898 137.838 576.892 134.153C575.887 130.468 574.162 124.289 573.055 120.441C571.292 114.083 569.843 108.926 563.928 87.5559C562.886 83.8943 560.829 76.4774 559.304 71.0628C556.575 61.301 556.547 61.1919 557.247 60.7177C560.863 58.144 561.466 52.358 558.417 49.2703C555.618 46.4555 551.469 46.9257 548.867 50.3261L547.927 51.54L545.751 50.7197C544.548 50.2432 542.885 49.6026 542.077 49.3057C541.278 48.9776 539.58 48.3604 538.313 47.8994C537.046 47.4384 535.494 46.8291 534.823 46.5713C534.153 46.3135 532.546 45.6886 531.196 45.2041C529.874 44.7275 528.102 44.0556 527.294 43.7587C526.036 43.2666 515.229 39.2196 508.333 36.6881C507.149 36.2506 505.652 35.6569 504.981 35.3991C504.32 35.1102 500.289 33.5945 495.983 32.0007C491.704 30.4147 487.398 28.8208 486.425 28.477C485.46 28.102 483.661 27.4223 482.394 26.9613C481.127 26.5004 479.519 25.8754 478.766 25.5942C478.041 25.3207 475.488 24.3598 473.12 23.4847C467.252 21.3127 467.069 21.2268 467.307 20.386C467.59 19.2882 467.22 17.0291 466.539 15.6576C465.7 14.0055 464.427 12.9371 462.776 12.4678L461.427 12.0846L461.961 0.0524275C462.244 -6.59838 462.541 -13.8177 462.629 -16.0139C462.718 -18.2101 463.17 -29.2221 463.629 -40.4678C464.116 -51.7056 464.718 -66.0742 464.968 -72.3979C465.246 -78.7138 465.465 -84.508 465.503 -85.2712C465.564 -86.5329 465.498 -86.7198 464.783 -86.9232C464.315 -87.0561 463.913 -87.0021 463.86 -86.8152C463.807 -86.6284 463.437 -78.5213 463.027 -68.8098C462.257 -49.9788 461.154 -23.9051 460.864 -17.8618C460.792 -15.8291 460.555 -10.0739 460.347 -5.05076C459.625 13.0872 459.672 12.2928 458.962 12.5957C458.588 12.7589 458.241 12.8285 458.112 12.7583C457.633 12.3528 426.903 -42.5903 427 -42.9329C427.062 -43.1509 428.407 -45.0574 430.024 -47.1895C431.605 -49.2982 434.089 -52.5975 435.498 -54.5196C440.438 -61.2272 457.31 -83.8634 458.756 -85.7075C459.56 -86.758 460.255 -87.7385 460.3 -87.8942C460.344 -88.0499 459.966 -88.2918 459.471 -88.4325L458.59 -88.6828L449.568 -76.5048C430.917 -51.3785 425.948 -44.7799 425.756 -44.8347C425.591 -44.8816 424.084 -47.4301 420.36 -54.109C419.652 -55.3871 416.804 -60.4372 414.031 -65.3314C411.257 -70.2257 408.94 -74.3172 408.902 -74.3952C408.865 -74.4731 409.189 -74.9867 409.641 -75.5314C410.148 -76.1616 410.631 -77.2358 411.002 -78.6451L411.613 -80.7939L416.979 -82.1973C419.936 -82.9726 423.084 -83.7945 423.96 -84.0505C424.855 -84.2675 431.124 -85.919 437.932 -87.6868L450.262 -90.8811L448.582 -91.4594C446.654 -92.108 448.343 -92.5033 426.177 -86.618C424.406 -86.145 420.263 -85.0673 416.987 -84.2144L411.018 -82.6794L410.588 -83.6768C408.979 -87.3313 404.485 -88.4737 401.324 -86.0397C399.644 -84.7332 398.924 -83.558 398.361 -81.1599C397.729 -78.4114 398.215 -76.456 399.979 -74.7094L401.216 -73.5163L400.371 -71.064C399.899 -69.7172 398.989 -67.2494 398.365 -65.5757C397.741 -63.9019 396.849 -61.4964 396.376 -60.2509C395.931 -58.9975 395.057 -56.6542 394.459 -55.0739C393.861 -53.4936 392.711 -50.3875 391.917 -48.2233C391.115 -46.0279 390.25 -43.7159 390 -43.0464C389.75 -42.3769 388.921 -40.1893 388.172 -38.1809C387.45 -36.1646 386.602 -33.9148 386.299 -33.1597C385.808 -31.8518 383.81 -26.4958 382.42 -22.6501C382.045 -21.6459 380.939 -18.6954 379.967 -16.1109C378.995 -13.5263 377.014 -8.23263 375.624 -4.38689C374.198 -0.517812 371.593 6.4496 369.845 11.1361C368.125 15.8303 366.341 20.6414 365.922 21.8013C365.495 22.9924 364.941 24.417 364.718 24.9931C364.28 26.1141 363.424 28.395 362.221 31.688C361.819 32.7857 361.248 34.2726 360.972 35.0355C360.696 35.7984 360.08 37.441 359.635 38.6944C358.04 43.1552 358.031 43.1863 356.604 43.1847C353.813 43.1658 351.135 45.2655 349.939 48.4261C348.833 51.3765 350.023 55.2487 352.583 56.9184C353.116 57.2383 353.578 57.7062 353.571 57.9398C353.584 58.3136 351.774 70.8583 350.082 82.2583C349.747 84.5866 348.668 92.1555 347.682 99.0781C346.688 106.032 345.489 114.543 344.982 118C344.476 121.458 343.849 125.756 343.61 127.539C343.344 129.315 342.984 131.838 342.759 133.154C342.542 134.438 342.149 137.288 341.831 139.453C341.55 141.595 340.924 145.994 340.461 149.195C339.998 152.395 338.368 163.678 336.878 174.261L334.118 193.502L332.577 194.108C328.513 195.746 326.683 201.453 328.961 205.264C330.606 207.953 333.745 208.946 336.642 207.649L337.726 207.183L346.332 220.129C358.047 237.728 365.223 248.485 373.894 261.517C377.941 267.581 383.901 276.544 387.169 281.478C390.446 286.381 394.178 291.985 395.441 293.925C397.409 296.841 397.753 297.511 397.438 297.993C397.258 298.312 396.759 299.651 396.351 300.983L395.633 303.404L392.731 304.195C391.152 304.621 386.9 305.769 383.277 306.692C379.644 307.645 375.465 308.746 373.941 309.189C372.426 309.6 369.114 310.476 366.54 311.158C342.138 317.586 336.307 319.16 336.28 319.253C336.253 319.347 339.093 337.723 340.856 348.893C341.549 353.364 342.505 359.526 342.992 362.626C343.48 365.726 344.426 371.818 345.09 376.18C345.781 380.55 346.738 386.813 347.236 390.085C347.726 393.387 348.311 397.189 348.553 398.536C348.758 399.907 349.313 403.397 349.771 406.287C350.22 409.208 350.883 413.469 351.235 415.791C351.587 418.112 352.513 424.063 353.284 428.994C354.054 433.925 354.98 439.876 355.332 442.197C355.711 444.526 356.249 448.079 356.561 450.119C356.873 452.16 357.936 458.891 358.874 465.115C359.848 471.315 360.594 476.542 360.55 476.698C360.506 476.853 360.043 477.227 359.542 477.522C357.96 478.486 357.238 479.56 356.565 481.927C355.866 484.387 355.923 485.547 356.987 487.667L357.668 489.038L354.317 493.606C352.448 496.104 346.948 503.629 342.054 510.282C337.186 516.943 329.935 526.865 325.953 532.296C321.943 537.72 317.744 543.494 316.57 545.112C315.397 546.731 312.074 551.306 309.13 555.283L303.829 562.527L301.877 562.175C299.649 561.744 298.864 561.891 296.99 563.041C294.371 564.619 292.95 568.153 293.622 571.441C293.804 572.266 294.244 573.334 294.596 573.771C294.975 574.215 295.163 574.706 295.055 574.877C294.91 575.072 293.413 577.305 291.736 579.858C290.04 582.371 283.004 592.791 276.103 602.947C269.229 613.11 260.569 625.896 256.889 631.312C253.199 636.76 243.006 651.803 234.21 664.752C225.442 677.709 216.881 690.355 215.194 692.837C210.757 699.452 211.146 699.024 210.373 698.603C210.015 698.4 209.089 698.204 208.329 698.156C203.853 697.995 200.269 702.968 201.368 707.79C202.324 712.067 207.009 714.105 210.656 711.843L211.811 711.128L218.566 718.028C222.28 721.81 227.39 727.065 229.922 729.669C232.454 732.274 240.17 740.188 247.081 747.268C253.993 754.347 263.206 763.798 267.585 768.273L275.532 776.421L274.972 778.079C274.153 780.438 274.19 782.401 275.105 784.31C275.935 785.993 277.698 787.538 279.118 787.773C279.603 787.844 279.843 788.046 279.829 788.412C279.726 792.961 276.12 917.342 274.347 977.387C273.56 1003.92 272.948 1025.86 272.978 1026.17C272.991 1026.54 272.628 1026.88 271.772 1027.28C271.116 1027.59 270.036 1028.47 269.412 1029.2C268.589 1030.21 268.18 1030.5 267.858 1030.27C267.628 1030.14 266.598 1029.68 265.56 1029.25C264.541 1028.86 261.06 1027.4 257.844 1026.04C254.629 1024.69 248.125 1021.94 243.367 1019.94C238.617 1017.92 233.73 1015.86 232.49 1015.31C231.24 1014.78 229.036 1013.85 227.575 1013.24C226.114 1012.62 224.489 1011.96 223.965 1011.71C223.459 1011.49 220.694 1010.34 217.856 1009.13C215.008 1007.95 212.216 1006.78 211.637 1006.52C211.049 1006.29 206.226 1004.21 200.916 1001.96C195.606 999.709 191.187 997.781 191.158 997.671C191.102 997.554 191.12 997.492 191.23 997.524C191.588 997.625 191.411 994.479 191.033 993.193C190.788 992.484 190.036 991.362 189.381 990.738C184.745 986.324 177.608 990.926 178.388 997.812C178.577 999.448 178.951 1000.23 180.619 1002.42C180.897 1002.8 180.495 1003.8 177.547 1010.3C172.709 1020.94 165.819 1036.08 154.853 1060.22C149.603 1071.79 143.924 1084.35 142.203 1088.1C140.474 1091.88 137.437 1098.59 135.439 1103C133.433 1107.45 129.974 1115.01 127.797 1119.85C125.593 1124.68 121.517 1133.68 118.731 1139.82C115.945 1145.96 111.993 1154.64 109.996 1159.05C107.989 1163.49 104.576 1171.01 102.426 1175.75C97.3368 1186.96 96.7362 1188.23 96.5907 1188.33C96.5455 1188.38 95.9144 1188.4 95.2096 1188.37C92.6657 1188.32 90.0558 1189.97 88.9173 1192.41L88.4061 1193.47L86.6908 1193.02C85.7826 1192.76 84.5539 1192.48 84.0133 1192.39C83.4815 1192.27 80.4098 1191.57 77.1818 1190.79C73.9813 1190.01 70.891 1189.27 70.3503 1189.18C69.8097 1189.1 66.7468 1188.36 63.5188 1187.58C60.3272 1186.77 57.4757 1186.13 57.2378 1186.13C56.9999 1186.13 54.1022 1185.44 50.8191 1184.64C47.545 1183.81 44.2806 1183.05 43.5748 1182.92C42.8691 1182.79 40.2377 1182.21 37.7066 1181.59C35.1755 1180.97 31.92 1180.18 30.4623 1179.87C29.0046 1179.55 26.1068 1178.87 24.0436 1178.38C21.9804 1177.9 18.8261 1177.17 17.0657 1176.77L13.8475 1176.06L13.7896 1174.79C13.7544 1173.03 12.4688 1170.65 11.078 1169.68C8.83991 1168.14 6.21541 1168.27 3.7893 1170C0.50009 1172.36 -0.349568 1177.24 1.96015 1180.52C2.67466 1181.56 2.77883 1181.93 2.52026 1182.63C2.21648 1183.39 2.25381 1183.46 3.107 1183.71C3.82259 1183.91 4.05064 1183.84 4.19225 1183.34C4.33382 1182.84 4.56188 1182.77 5.41507 1183.02C5.96552 1183.17 6.70766 1183.28 7.06446 1183.28C7.51269 1183.28 7.68863 1183.49 7.7682 1184.16C7.83006 1184.88 8.06104 1185.11 8.83167 1185.33C9.3546 1185.48 9.81267 1185.54 9.83036 1185.48C9.85692 1185.39 9.7685 1184.76 9.60636 1184.07L9.34696 1182.79L10.7094 1181.76C11.9176 1180.86 13.0471 1179.4 13.3568 1178.31C13.4365 1178.03 14.1324 1178.09 15.7651 1178.52C17.0036 1178.87 18.2323 1179.15 18.4613 1179.18C18.6992 1179.18 21.4131 1179.79 24.476 1180.52C27.5388 1181.26 30.4916 1181.96 31.0322 1182.05C31.564 1182.17 34.5718 1182.89 37.7173 1183.65C40.8627 1184.4 44.1271 1185.16 44.9704 1185.34C45.8138 1185.51 48.7204 1186.17 51.3891 1186.82C54.0578 1187.48 57.157 1188.19 58.2206 1188.43C59.3117 1188.67 62.3283 1189.36 64.9145 1189.99C67.5281 1190.64 70.3521 1191.27 71.1955 1191.44C73.2764 1191.86 83.3909 1194.27 85.923 1194.99C87.9685 1195.53 87.9685 1195.53 87.9783 1196.55C87.9654 1197.12 88.2042 1198.16 88.4401 1198.9L88.8921 1200.24L86.293 1203C82.9516 1206.6 83.0322 1206.42 84.1606 1206.74C85.0413 1206.99 85.1956 1206.86 87.5864 1204.31L90.104 1201.63L91.0329 1202.13C91.5479 1202.41 92.0266 1202.71 92.0915 1202.8C92.1839 1202.89 92.0206 1203.99 91.7767 1205.27C91.1582 1208.49 91.1513 1208.72 92.0871 1208.99C92.61 1209.14 92.9658 1209.04 93.1457 1208.72C93.4063 1208.22 93.4338 1208.23 93.3109 1208.77C93.2233 1209.18 93.4356 1209.37 94.1237 1209.57L95.0595 1209.83L95.0755 1206.74C95.0864 1205.03 95.1445 1203.46 95.1976 1203.28C95.2507 1203.09 95.642 1202.86 96.0706 1202.72C96.8373 1202.53 96.9857 1202.74 99.37 1207.12C101.727 1211.49 101.913 1211.78 103.041 1212.1C103.674 1212.28 104.215 1212.37 104.232 1212.31C104.259 1212.21 98.6136 1201.72 98.4563 1201.54C98.4376 1201.51 98.7896 1201 99.287 1200.4C99.7756 1199.83 100.361 1198.82 100.574 1198.17C101.046 1196.83 100.04 1196.91 110.308 1197.2C114.289 1197.33 127.577 1197.67 139.831 1197.99C152.084 1198.3 165.582 1198.64 169.801 1198.76C183.254 1199.15 194.327 1199.44 203.753 1199.66C208.804 1199.78 221.094 1200.08 231.069 1200.35C241.053 1200.6 251.889 1200.88 255.11 1200.96C258.331 1201.03 261.123 1201.15 261.315 1201.21C261.48 1201.25 261.686 1201.68 261.736 1202.13C261.837 1203.14 262.573 1202.64 240.279 1216.1C232.274 1220.92 222.832 1226.62 219.267 1228.8C215.71 1230.96 210.171 1234.33 206.942 1236.27L201.093 1239.8L202.222 1240.22C203.269 1240.62 203.497 1240.55 205.371 1239.4C206.489 1238.7 218.551 1231.43 232.159 1223.21C245.794 1215 258.164 1207.48 259.711 1206.54C261.52 1205.4 262.586 1204.9 262.853 1205.11C263.139 1205.36 262.879 1205.86 261.135 1208.12C249.218 1223.78 230.915 1248 230.844 1248.25C230.809 1248.37 231.185 1248.51 231.699 1248.59C232.78 1248.77 231.541 1250.3 248.805 1227.44C255.011 1219.2 261.064 1211.2 262.247 1209.65L264.416 1206.83L265.948 1207.3C267.894 1207.89 269.894 1207.55 271.511 1206.36C272.183 1205.88 272.802 1205.48 272.884 1205.5C272.967 1205.53 279.901 1211.17 288.311 1218C296.712 1224.86 306.22 1232.64 309.484 1235.29C312.748 1237.93 317.414 1241.72 319.876 1243.73C322.329 1245.77 327.069 1249.61 330.379 1252.3C333.717 1255 339.508 1259.74 343.307 1262.81L350.187 1268.43L349.753 1269.95C349.542 1270.8 349.341 1271.82 349.345 1272.23C349.361 1272.91 348.851 1273.13 343.707 1274.8C340.596 1275.8 337.222 1276.89 336.237 1277.22L334.45 1277.86L337.202 1278.64L339.954 1279.42L344.885 1277.46L349.824 1275.46L350.613 1276.56C351.067 1277.16 351.861 1277.92 352.386 1278.28L353.316 1278.88L352.749 1280.87L352.174 1282.89L353 1283.13C353.798 1283.36 353.798 1283.36 354.473 1281.29L355.14 1279.26L356.365 1279.14C357.005 1279.08 357.908 1278.84 358.308 1278.58L359.063 1278.12L361.976 1282.31C364.807 1286.48 364.881 1286.54 366.256 1286.83L367.658 1287.13L366.045 1284.85C365.154 1283.59 364.392 1282.39 364.345 1282.25C364.334 1282.07 365.655 1283.29 367.318 1284.98C370.154 1287.87 370.449 1288.09 372.183 1288.58L374.063 1289.08L373.25 1288.28C372.816 1287.82 369.961 1284.89 366.893 1281.76L361.376 1276.05L362.035 1274.15C362.391 1273.11 362.803 1272.18 362.948 1272.09C363.057 1272.02 369.837 1271.08 377.988 1270.03C386.139 1268.98 393.696 1268.04 394.811 1267.88C398.493 1267.38 446.931 1261.05 465.709 1258.61C475.897 1257.3 503.328 1253.72 526.675 1250.69C557.277 1246.73 569.138 1245.29 569.288 1245.6C569.437 1245.91 569.348 1246.12 568.984 1246.36C568.702 1246.51 556.155 1253.72 541.087 1262.36C526.047 1271.01 507.003 1281.92 498.787 1286.66C490.58 1291.36 477.56 1298.87 469.808 1303.33C462.092 1307.77 455.523 1311.52 455.232 1311.71C454.796 1311.99 454.888 1312.08 455.989 1312.39L457.255 1312.75L479.074 1300.24C502.43 1286.82 518.717 1277.44 550.225 1259.3C561.171 1253.02 570.17 1247.94 570.263 1248.03C570.336 1248.09 570.798 1248.55 571.315 1249.04C572.137 1249.81 572.184 1249.96 571.762 1250.81C571.521 1251.35 570.671 1253.4 569.839 1255.38C569.008 1257.37 566.548 1263.2 564.383 1268.31C559.212 1280.43 554.364 1291.95 548.102 1306.76C540.847 1323.92 536.849 1333.38 536.401 1334.33C536.069 1335.08 536.107 1335.16 536.932 1335.39L537.84 1335.65L539.504 1331.68C540.425 1329.49 542.929 1323.5 545.103 1318.36C549.433 1308.15 553.405 1298.78 561.831 1278.86C564.882 1271.68 568.317 1263.57 569.48 1260.84C570.643 1258.1 572.111 1254.72 572.701 1253.27C573.622 1251.07 573.893 1250.65 574.305 1250.76C574.553 1250.83 574.993 1250.86 575.267 1250.83C575.605 1250.8 575.802 1251.36 575.965 1252.98C576.132 1254.18 576.514 1257.75 576.892 1260.92C577.68 1267.68 577.43 1265.52 580.345 1291.69C581.635 1303.16 582.845 1313.87 583.007 1315.5C583.197 1317.14 583.438 1319.33 583.557 1320.37C583.677 1321.41 584.217 1326.11 584.756 1330.81C585.268 1335.5 585.967 1341.62 586.269 1344.43C586.793 1349.49 586.803 1349.56 587.711 1349.82C588.179 1349.95 588.61 1350.01 588.636 1349.92C588.663 1349.82 588.2 1345.48 587.628 1340.27C587.029 1335.05 585.988 1325.74 585.315 1319.52C584.615 1313.3 583.812 1305.97 583.474 1303.18C580.957 1281.16 577.778 1252.25 577.887 1252.18C578.033 1252.09 584.539 1256.94 597.285 1266.62C601.745 1269.97 608.455 1275.04 612.233 1277.86C616.002 1280.72 626.416 1288.56 635.383 1295.31L651.659 1307.65L651.294 1309.56C651.066 1310.67 651.034 1312.05 651.178 1312.79L651.456 1314.12L638.915 1322.87C632.036 1327.72 625.465 1332.31 624.348 1333.1C623.23 1333.9 616.651 1338.52 609.771 1343.37C602.865 1348.2 597.195 1352.25 597.168 1352.34C597.142 1352.43 597.592 1352.63 598.17 1352.79C599.188 1353.08 599.47 1352.93 610.175 1345.4C616.191 1341.19 621.771 1337.25 622.589 1336.68C652.44 1315.57 652.522 1315.5 653.312 1316.8C653.349 1316.88 648.02 1326.84 641.458 1338.94C634.887 1351.08 629.476 1361.12 629.422 1361.3C629.369 1361.49 629.683 1361.75 630.123 1361.87C630.839 1362.08 630.957 1361.98 631.91 1360.29C633.448 1357.5 654.797 1318.06 654.841 1317.91C654.868 1317.81 655.381 1317.89 655.987 1318.06C659.042 1318.93 662.461 1316.74 663.77 1313.07C664.02 1312.4 664.23 1311.45 664.244 1310.99ZM654.276 1304.82C653.786 1305.19 653.269 1305.65 653.161 1305.82C652.99 1306.11 650.216 1304.04 632.042 1290.32C630.079 1288.86 617.517 1279.37 604.117 1269.26C590.717 1259.16 579.483 1250.65 579.169 1250.39L578.588 1249.93L579.361 1249.41C581.215 1248.12 582.63 1244.92 582.459 1242.38C582.283 1240.27 581.213 1238.39 579.573 1237.25C578.56 1236.52 578.153 1236.07 578.25 1235.73C578.339 1235.42 579.762 1228.32 581.401 1219.93C584.961 1201.96 585.746 1198.04 586.324 1195.28C586.56 1194.13 586.794 1192.79 586.889 1192.24C586.976 1191.73 587.219 1190.35 587.455 1189.2C587.691 1188.06 588.337 1184.84 588.895 1182.04C589.454 1179.24 590.378 1174.52 590.99 1171.53C591.565 1168.56 592.168 1165.6 592.253 1164.99C592.461 1163.74 592.828 1161.92 594.043 1156.07C594.488 1153.88 594.889 1151.74 594.958 1151.28C595.026 1150.83 595.27 1149.56 595.506 1148.41C597.331 1139.37 598.107 1135.39 598.351 1134.11C598.49 1133.31 598.988 1130.92 599.407 1128.82C599.826 1126.72 600.41 1123.72 600.715 1122.12C601.395 1118.58 601.804 1116.41 602.416 1113.52C602.67 1112.31 602.975 1110.72 603.115 1110.02C603.227 1109.31 603.681 1107.08 604.073 1105.07C604.466 1103.06 604.954 1100.61 605.137 1099.65C606.218 1094.07 607.869 1085.96 607.924 1085.97C607.952 1085.98 608.841 1089.97 609.885 1094.88C610.939 1099.75 613.659 1112.37 615.956 1122.92C618.253 1133.47 620.935 1145.91 621.94 1150.54C622.945 1155.17 625.282 1165.99 627.158 1174.57C629.034 1183.15 632.309 1198.42 634.483 1208.46C636.648 1218.53 639.338 1230.94 640.44 1236.07C643.386 1249.46 645.301 1258.21 649.446 1277.33C651.448 1286.62 653.554 1296.37 654.138 1299.03C654.722 1301.68 655.21 1303.94 655.192 1304C655.202 1304.07 654.776 1304.42 654.276 1304.82ZM575.583 1236.11C575.134 1236.12 574.73 1235.97 574.656 1235.82C574.581 1235.66 573.463 1231.64 572.127 1226.92C569.465 1217.45 567.978 1212.21 563.12 1195.08C561.32 1188.75 559.265 1181.43 558.526 1178.8C557.805 1176.2 555.645 1168.52 553.723 1161.78C551.801 1155.04 548.828 1144.57 547.122 1138.53C545.418 1132.5 543.75 1126.54 543.381 1125.32C543.022 1124.07 542.782 1122.93 542.835 1122.74C542.888 1122.56 557.248 1113.58 574.765 1102.8L606.58 1083.17L606.125 1085.39C605.899 1086.61 605.525 1088.56 605.297 1089.67C604.006 1096.2 600.832 1112.4 600.455 1114.14C600.089 1115.96 599.418 1119.47 598.538 1124.03C598.372 1124.82 598.093 1126.33 597.884 1127.38C596.993 1131.77 594.671 1143.4 594.437 1144.74C594.271 1145.54 593.791 1147.96 593.346 1150.15C592.9 1152.35 592.15 1156.14 591.689 1158.6C591.227 1161.06 590.661 1164 590.425 1165.14C590.189 1166.29 589.081 1171.86 587.965 1177.57C586.821 1183.27 585.608 1189.42 585.233 1191.27C584.605 1194.42 582.921 1202.96 582.268 1206.41C581.354 1211.2 579.25 1221.74 578.805 1223.94C578.525 1225.34 577.949 1228.2 577.558 1230.32C576.452 1236.19 576.47 1236.13 575.583 1236.11ZM572.586 1236.61C572.216 1236.13 567.065 1228.51 555.973 1212.07C550.914 1204.54 544.742 1195.38 542.273 1191.71C520.081 1158.85 516.33 1153.11 516.664 1152.67C516.854 1152.42 517.284 1151.43 517.64 1150.49C518.318 1148.63 518.428 1146.77 517.964 1145.16C517.585 1143.77 515.957 1141.96 514.487 1141.28L513.283 1140.7L527.098 1132.17L540.877 1123.67L541.3 1124.9C541.518 1125.6 542.728 1129.71 543.932 1134.06C545.163 1138.41 547.73 1147.49 549.652 1154.23C554.871 1172.71 556.34 1177.91 558.49 1185.52C559.57 1189.36 563.281 1202.36 566.719 1214.45C570.156 1226.53 572.933 1236.54 572.898 1236.66C572.881 1236.83 572.716 1236.78 572.586 1236.61ZM570.839 1238.57C570.665 1238.45 550.16 1224.04 525.271 1206.54C500.373 1189.06 479.978 1174.69 479.959 1174.65C479.801 1174.37 506.615 1153.28 506.855 1153.48C509.169 1155.28 511.323 1155.76 513.566 1154.88L514.833 1154.4L528.783 1175.13C536.459 1186.53 545.955 1200.64 549.89 1206.47C553.798 1212.29 560.221 1221.82 564.156 1227.65C570.403 1236.97 571.974 1239.5 570.839 1238.57ZM560.246 1244.34C555.275 1244.99 542.4 1246.64 531.617 1248.06C520.835 1249.47 501.034 1252.06 487.602 1253.79C474.197 1255.54 455.355 1257.99 445.751 1259.23C436.148 1260.48 421.144 1262.41 412.408 1263.53C403.672 1264.64 395.668 1265.7 394.645 1265.85C393.612 1266.03 385.983 1267.02 377.704 1268.1L362.608 1270.04L362.308 1269.21C362.147 1268.73 362.134 1268.26 362.297 1268.1C362.451 1267.98 366.301 1264.9 370.84 1261.27C400.013 1238.06 409.237 1230.72 413.387 1227.42C419.325 1222.75 420.26 1221.97 451.094 1197.41C465.13 1186.22 476.998 1176.8 477.443 1176.49L478.288 1175.92L482.351 1178.79C496.039 1188.4 569.508 1240.01 569.73 1240.17C569.877 1240.28 569.82 1241.01 569.599 1241.79L569.237 1243.16L560.246 1244.34ZM574.708 1100.6C560.137 1109.58 546.84 1117.75 545.139 1118.82L542.066 1120.74L537.244 1103.69C534.592 1094.28 530.472 1079.68 528.085 1071.23C523.311 1054.32 519.37 1040.35 513.129 1018.35C509.199 1004.54 509.056 1003.89 509.599 1003.24C509.934 1002.9 510.388 1002.56 510.607 1002.52C511 1002.49 513.6 1004.54 523.266 1012.61C525.719 1014.65 531.539 1019.5 536.224 1023.33C540.899 1027.18 546.654 1031.94 548.988 1033.89C551.321 1035.83 558.883 1042.08 565.781 1047.75C572.671 1053.44 584.282 1063.03 591.558 1069.04C598.853 1075.08 605.115 1080.26 605.503 1080.57L606.231 1081.15L603.703 1082.72C602.32 1083.61 589.269 1091.64 574.708 1100.6ZM520.247 1134.2C515.99 1136.82 512.442 1138.95 512.36 1138.92C512.25 1138.89 510.033 1080.64 509.603 1066.45C509.568 1064.69 509.394 1059.86 509.226 1055.74C509.058 1051.62 508.864 1046.65 508.799 1044.68C508.555 1037.37 508.142 1025.85 507.763 1015.98C507.545 1010.36 507.427 1005.75 507.472 1005.7C507.536 1005.68 509.485 1012.33 511.787 1020.56C514.099 1028.75 517.47 1040.65 519.27 1046.98C523.417 1061.59 531.004 1088.38 534.801 1101.71C536.383 1107.35 538.315 1114.15 539.064 1116.86L540.419 1121.72L534.207 1125.57C530.779 1127.7 524.503 1131.57 520.247 1134.2ZM508.7 1141.75L507.027 1142.83L498.717 1135.85C494.123 1132.02 487.612 1126.57 484.254 1123.73C480.897 1120.89 469.533 1111.37 459.009 1102.56L439.861 1086.52L440.783 1085.26C441.279 1084.56 445.443 1079.01 450.06 1072.92C454.676 1066.83 461.786 1057.41 465.878 1052.01C469.971 1046.6 473.928 1041.37 474.714 1040.38C475.473 1039.38 477.343 1036.89 478.878 1034.83C480.414 1032.78 484.488 1027.34 487.957 1022.77C496.711 1011.22 499.711 1007.26 501.165 1005.29L502.384 1003.61L503.917 1004.18C504.753 1004.49 505.433 1004.82 505.479 1004.86C505.535 1004.98 506.01 1017.23 506.225 1024.43C506.314 1026.94 506.488 1031.77 506.603 1035.14C507.332 1053.82 507.604 1061.14 507.744 1065.25C507.805 1067.76 508.471 1085.61 509.214 1104.88C509.921 1124.16 510.505 1140.11 510.452 1140.3C510.417 1140.52 509.609 1141.17 508.7 1141.75ZM494.78 1160.28C488.905 1164.94 482.822 1169.81 481.243 1171.07C479.644 1172.3 478.227 1173.31 478.089 1173.27C477.814 1173.2 459.972 1160.72 457.834 1159.14C457.106 1158.56 447.287 1151.66 436.021 1143.79C424.756 1135.91 415.471 1129.33 415.368 1129.17C414.95 1128.44 414.216 1128.3 430.224 1131.74C435.385 1132.83 440.519 1133.92 441.592 1134.13C442.683 1134.37 444.874 1134.82 446.497 1135.18C448.119 1135.54 450.246 1136.01 451.264 1136.2C453.372 1136.63 456.407 1137.26 460.386 1138.12C463.86 1138.87 481.133 1142.57 484.36 1143.25C488.769 1144.17 495.975 1145.71 498.662 1146.3C500.119 1146.62 502.145 1147.02 503.154 1147.24L504.996 1147.57L505.242 1149.42C505.371 1150.43 505.481 1151.41 505.446 1151.53C505.429 1151.69 500.627 1155.61 494.78 1160.28ZM505.369 1145.52C505.159 1145.53 502.758 1145.08 500.071 1144.48C497.376 1143.92 493.086 1143 490.528 1142.48C487.979 1141.92 484.89 1141.28 483.652 1141.03C482.423 1140.75 480.15 1140.27 478.61 1139.93C477.069 1139.6 474.988 1139.17 473.98 1138.95C472.971 1138.74 470.643 1138.24 468.8 1137.82C466.948 1137.43 465.124 1137.04 464.721 1137C464.318 1136.95 462.246 1136.5 460.091 1136.02C457.945 1135.51 455.727 1135.05 455.186 1134.96C454.645 1134.87 452.317 1134.38 450.006 1133.83C447.714 1133.31 445.614 1132.85 445.376 1132.85C445.147 1132.81 443.314 1132.46 441.306 1131.99C439.325 1131.53 436.859 1131 435.842 1130.81C433.642 1130.39 430.983 1129.8 423.923 1128.26C421.008 1127.64 418.01 1126.99 417.268 1126.88L415.911 1126.63L415.768 1125.04C415.695 1124.14 415.279 1122.78 414.851 1121.98L414.096 1120.56L420.781 1111.69C429.49 1100.19 434.115 1094.07 436.608 1090.74C437.719 1089.24 438.751 1088.12 438.871 1088.22C450.42 1097.93 477.555 1120.72 480.783 1123.39C483.237 1125.43 489.721 1130.87 495.2 1135.46C500.669 1140.08 505.364 1143.97 505.604 1144.17C506.092 1144.55 505.918 1145.47 505.369 1145.52ZM655.072 608.314C653.519 611.474 650.504 617.584 648.386 621.896C646.269 626.208 642.679 633.502 640.382 638.133C638.112 642.772 632.575 653.989 628.088 663.08C623.628 672.179 617.148 685.248 613.729 692.152C610.31 699.056 605.778 708.202 603.66 712.514C601.542 716.826 596.32 727.459 592.039 736.138C587.759 744.817 582.33 755.862 579.988 760.649C575.51 769.709 573.456 773.905 570.539 779.774C569.614 781.665 565.962 789.075 562.445 796.221C558.927 803.366 554.682 811.92 553.049 815.259C551.388 818.591 545.34 830.874 539.588 842.534L529.152 863.768L529.206 861.797C529.214 860.723 529.525 854.08 529.86 847.039C530.195 839.999 530.645 830.67 530.85 826.285C531.054 821.9 531.611 810.312 532.066 800.546C532.548 790.788 532.988 781.388 533.063 779.659C533.157 777.969 533.46 771.459 533.747 765.213C534.054 759.006 534.42 751.436 534.537 748.407C534.855 741.53 535.934 718.681 536.685 703.581C536.991 697.272 537.31 690.497 537.373 688.496L537.503 684.898L538.612 684.136C539.793 683.327 556.977 671.213 566.392 664.565C569.663 662.264 591.318 646.977 614.527 630.618C637.736 614.259 656.747 600.847 656.792 600.792C656.992 600.613 658.111 601.907 658.023 602.219C657.97 602.406 656.651 605.161 655.072 608.314ZM644.194 607.444C637.833 611.93 617.268 626.416 598.476 639.688C579.656 652.953 563.108 664.608 561.671 665.58C560.235 666.552 554.283 670.75 548.449 674.848C542.633 678.984 537.815 682.227 537.768 682.078C537.694 681.923 537.898 676.596 538.23 670.194C538.526 663.816 538.968 654.619 539.186 649.767C539.432 644.923 539.705 639.043 539.847 636.66C539.952 634.3 540.262 627.556 540.535 621.676C540.799 615.828 541.071 610.789 541.15 610.509C541.23 610.228 541.748 609.871 542.259 609.747C544.121 609.266 546.618 606.341 547.054 604.075C547.149 603.53 548.712 603.368 559.721 602.727C630.084 598.689 654.608 597.277 655.13 597.324C655.542 597.34 655.764 597.606 655.815 598.159C655.893 598.618 655.888 599.054 655.834 599.14C655.771 599.257 650.519 602.981 644.194 607.444ZM655.403 595.214C655.321 595.292 642.263 596.024 570.273 600.138L547.138 601.474L546.946 600.476C546.42 598.139 544.01 595.839 541.821 595.587C541.272 595.532 540.584 595.438 540.282 595.352C539.777 595.242 537.766 586.828 531.705 559.796C530.969 556.524 529.555 550.3 528.562 545.945C527.568 541.59 526.403 536.48 525.973 534.54C525.561 532.639 524.96 530.045 524.664 528.783C524.359 527.552 523.556 523.992 522.877 520.938C522.171 517.877 520.48 510.429 519.104 504.384C517.728 498.338 515.549 488.632 514.23 482.805C512.912 476.978 510.055 464.42 507.878 454.915C501.631 427.595 502.168 430.204 502.784 429.504C503.092 429.154 503.483 428.929 503.648 428.976C503.813 429.023 505.18 430.387 506.696 431.962C512.622 438.324 521.19 447.423 523.446 449.848C524.777 451.236 527.864 454.503 530.314 457.083C532.754 459.695 535.296 462.37 535.906 463.048C536.544 463.734 540.038 467.453 543.671 471.313C547.331 475.18 552.674 480.872 555.549 483.943C558.452 487.023 561.946 490.742 563.314 492.208C564.71 493.682 567.52 496.668 569.599 498.874C571.679 501.081 580.609 510.585 589.473 520.004C598.338 529.422 606.399 538.007 607.406 539.067C608.414 540.127 611.122 543.051 613.461 545.499C615.79 547.979 621.096 553.593 625.219 558.029C629.378 562.442 634.601 568.032 636.866 570.426C648.577 582.807 653.717 588.273 655.215 589.91L656.851 591.688L656.181 593.416C655.797 594.35 655.448 595.16 655.403 595.214ZM451.788 1194.44C438.369 1205.14 423.451 1217.02 418.648 1220.84C413.873 1224.66 407.417 1229.8 404.339 1232.25C401.234 1234.7 390.429 1243.31 380.324 1251.35C370.237 1259.42 361.756 1266.13 361.493 1266.32C361.093 1266.58 360.873 1266.52 360.144 1265.94C359.416 1265.36 359.332 1265.14 359.6 1264.51C359.806 1264.09 360.377 1262.51 360.929 1260.98C361.445 1259.48 362.105 1257.68 362.355 1257.01C362.604 1256.34 363.158 1254.92 363.559 1253.82C364.254 1251.9 370.11 1235.79 371.715 1231.4C372.134 1230.24 373.008 1227.89 373.632 1226.22C374.256 1224.55 375.201 1221.95 375.726 1220.42C376.242 1218.92 376.884 1217.18 377.107 1216.61C377.331 1216.03 378.82 1212.04 380.362 1207.77C381.903 1203.5 383.445 1199.22 383.793 1198.31C385.105 1194.85 390.952 1178.77 392.484 1174.53C393.357 1172.08 394.285 1169.55 394.534 1168.88C394.812 1168.22 396.265 1164.26 397.789 1160.05C399.304 1155.87 400.828 1151.66 401.176 1150.75C401.496 1149.83 402.771 1146.39 403.938 1143.12C405.105 1139.85 406.273 1136.68 406.524 1136.11C406.747 1135.53 407.05 1134.68 407.202 1134.25C407.396 1133.56 407.633 1133.46 408.978 1133.44C410.195 1133.45 410.952 1133.2 412.424 1132.2L414.316 1130.99L434.341 1145.09C445.376 1152.84 455.417 1159.9 456.633 1160.75C466.7 1167.72 476.52 1174.71 476.393 1174.85C476.303 1174.95 465.235 1183.76 451.788 1194.44ZM505.299 990.002C504.605 990.142 503.776 990.445 503.439 990.686C502.767 991.168 503.23 991.737 469.643 946.954C465.073 940.843 460.736 935.067 460.004 934.084C459.235 933.125 458.687 932.229 458.777 932.12C458.876 931.98 468.391 924.351 506.206 894.169C520.824 882.504 523.04 880.778 523.205 880.825C523.627 881.012 525.754 882.424 525.839 882.65C525.932 882.845 522.331 903.16 516.352 935.926C514.562 945.784 514.537 945.979 514.267 947.45C514.155 948.159 513.902 949.467 513.746 950.331C513.581 951.227 513 954.528 512.426 957.697C511.853 960.867 511.218 964.254 511.062 965.219C510.879 966.177 509.863 971.744 508.839 977.545C507.806 983.378 506.858 988.493 506.762 988.937C506.604 989.599 506.313 989.786 505.299 990.002ZM496.962 1007.83C494.893 1010.5 493.185 1012.75 493.168 1012.81C493.141 1012.9 487.802 1019.97 479.699 1030.69C477.322 1033.82 473.935 1038.31 472.164 1040.66C470.394 1043.02 465.037 1050.15 460.24 1056.46C455.47 1062.78 448.64 1071.84 445.072 1076.55C441.522 1081.3 438.577 1085.17 438.532 1085.23C438.45 1085.31 419.662 1069.57 373.645 1030.95C367.189 1025.51 361.23 1020.52 360.437 1019.86L358.989 1018.67L359.412 1016.97L359.854 1015.31L379.273 1013.02C389.975 1011.79 417.272 1008.58 439.945 1005.93C462.628 1003.25 482.623 1000.93 484.405 1000.73C486.179 1000.56 490.3 1000.08 493.535 999.685L499.475 998.983L500.205 1000.6C500.607 1001.49 500.89 1002.38 500.828 1002.6C500.775 1002.79 499.032 1005.15 496.962 1007.83ZM499.988 995.191L499.292 997.013L496.833 997.29C495.481 997.444 491.606 997.891 488.224 998.277C484.843 998.662 454.685 1002.21 421.21 1006.13C387.735 1010.04 360.154 1013.21 359.933 1013.15C359.713 1013.09 359.48 1012.65 359.439 1012.17C359.368 1011.47 359.467 1011.23 359.921 1010.89C360.257 1010.65 366.803 1005.41 374.493 999.281C382.192 993.121 390.228 986.721 392.343 985.034C418.301 964.339 440.845 946.344 446.501 941.826C450.323 938.738 454.282 935.589 455.272 934.826L457.061 933.45L468.775 949.064C475.226 957.662 484.058 969.393 488.404 975.138C501.351 992.381 501.398 992.428 501.018 992.926C500.847 993.214 500.381 994.226 499.988 995.191ZM526.662 868.344C526.332 868.25 522.829 859.851 506.266 819.636C499.212 802.486 488.101 775.533 477.142 749.095L472.58 738.038L473.27 737.393C475.137 735.635 476.001 733.12 475.7 730.41L475.5 728.602L501.953 709.934C534.077 687.323 535.449 686.367 535.58 686.64C535.636 686.757 535.616 687.559 535.56 688.384C535.523 689.249 534.89 702.363 534.185 717.511C533.471 732.689 532.82 746.808 532.703 748.896C532.613 750.99 532.31 757.501 532.018 763.342C531.755 769.191 531.43 776.301 531.283 779.12C531.136 781.939 530.911 787.025 530.751 790.412C530.592 793.8 530.267 800.91 530.016 806.19C529.756 811.502 529.461 817.981 529.331 820.637C528.04 848.003 527.57 858.135 527.357 862.652C527.088 868.937 527.13 868.477 526.662 868.344ZM498.239 898.132C486.454 907.573 472.427 918.733 467.115 922.979L457.455 930.701L445.037 914.215C438.215 905.141 431.617 896.333 430.365 894.665C429.123 892.965 422.2 883.728 414.943 874.093C386.065 835.663 387.307 837.363 387.576 836.732C388.184 835.323 387.762 835.237 397.544 838.185C402.636 839.733 420.206 844.894 436.611 849.656C453.015 854.418 470.558 859.571 475.604 861.072C480.642 862.605 491.844 865.889 500.45 868.368C509.083 870.855 517.341 873.302 518.864 873.802L521.618 874.686L521.639 875.971C521.627 876.641 521.765 877.622 521.925 878.105C522.208 878.993 522.199 879.024 520.965 880.02C520.275 880.564 510.042 888.73 498.239 898.132ZM524.306 869.829C524.142 869.883 520.764 866.803 516.793 862.982C512.85 859.169 508.768 855.216 507.743 854.218C503.015 849.71 488.045 835.191 485.228 832.439C483.51 830.739 480.573 827.885 478.698 826.107C475.023 822.606 451.336 799.72 446.302 794.823C444.603 793.162 440.254 788.998 436.689 785.528C433.087 782.081 430.186 779.103 430.239 778.916C430.292 778.729 432.155 776.465 434.389 773.835C436.651 771.213 440.976 766.148 444.015 762.569C452.285 752.937 455.234 749.467 459.07 744.97C460.979 742.752 463.105 740.294 463.802 739.516L465.061 738.123L466.329 738.685C467.128 739.013 468.209 739.186 469.288 739.156L470.971 739.096L471.766 740.903C472.188 741.932 475.26 749.334 478.558 757.407C481.884 765.487 485.154 773.451 485.865 775.134C486.577 776.817 489.846 784.78 493.172 792.86C496.498 800.941 500.076 809.598 501.116 812.114C509.545 832.382 524.713 869.339 524.66 869.526C524.625 869.65 524.471 869.775 524.306 869.829ZM520.972 872.247C520.265 872.013 508.136 868.432 494.016 864.318C435.481 847.248 422.47 843.417 411.497 840.164C405.166 838.264 397.422 835.996 394.284 835.105C389.303 833.689 388.577 833.416 388.692 833.011C388.896 832.295 388.499 830.028 388.061 829.163L387.642 828.438L390.229 825.403C400.698 813.266 407.384 805.439 409.627 802.778C411.065 801.066 412.359 799.549 412.522 799.394C412.677 799.269 414.866 796.694 417.408 793.714C425.106 784.626 428.228 780.969 428.519 780.783C428.636 780.682 430.334 782.14 432.246 783.996C436.697 788.324 443.975 795.373 445.637 796.956C446.338 797.626 448.305 799.498 449.958 801.112C451.639 802.734 456.608 807.545 461.04 811.834C465.482 816.091 470.358 820.809 471.892 822.322C473.434 823.803 478.384 828.575 482.863 832.911C487.369 837.254 491.987 841.73 493.132 842.83C494.304 843.937 498.294 847.797 501.998 851.407C505.729 855.025 509.718 858.885 510.863 859.985C523.94 872.586 522.886 871.479 522.508 872.179C522.257 872.646 522.019 872.646 520.972 872.247ZM431.024 1095.11C428.025 1099.07 423.354 1105.25 420.671 1108.83C417.961 1112.4 415.052 1116.25 414.221 1117.4L412.658 1119.44L411.154 1119.08C410.237 1118.86 409.084 1118.83 408.254 1119.03L406.857 1119.34L405.495 1116.7C404.777 1115.25 399.815 1105.39 394.489 1094.83C389.172 1084.23 383.688 1073.38 382.308 1070.7C368.722 1044.09 357.096 1020.62 357.423 1020.41C357.642 1020.27 358.904 1021.17 361.09 1023C362.907 1024.56 370.83 1031.22 378.688 1037.8C386.547 1044.37 398.518 1054.37 405.242 1060.02C411.994 1065.67 421.725 1073.82 426.862 1078.14C432.027 1082.47 436.464 1086.22 436.778 1086.48C437.202 1086.87 437.232 1087.08 436.897 1087.42C436.671 1087.7 434.023 1091.15 431.024 1095.11ZM532.11 686.394C530.102 687.809 516.343 697.497 501.576 707.909C486.801 718.351 474.623 726.872 474.495 726.903C474.376 726.903 474.118 726.662 473.886 726.326C473.441 725.695 471.284 729.727 493.576 689.48C499.17 679.424 505.609 667.757 507.92 663.601C510.204 659.437 516.553 647.98 521.993 638.15C527.461 628.328 533.216 617.914 534.808 615.034L537.694 609.796L538.493 610.023C539.401 610.281 539.376 608.692 538.59 624.859C538.374 629.073 537.666 643.916 537.023 657.903C536.408 671.898 535.86 683.455 535.825 683.579C535.808 683.743 534.137 685.018 532.11 686.394ZM400.458 1147.51C398.239 1153.65 396.064 1159.63 395.646 1160.79C395.218 1161.98 394.629 1163.53 394.353 1164.29C394.049 1165.04 392.863 1168.28 391.723 1171.45C389.004 1178.93 387.596 1182.83 386.348 1186.18C385.776 1187.67 376.426 1213.35 374.296 1219.17C373.895 1220.27 373.307 1221.92 372.959 1222.83C372.611 1223.74 371.087 1227.95 369.572 1232.13C368.048 1236.35 366.55 1240.46 366.229 1241.28C365.926 1242.14 365.017 1244.61 364.223 1246.77C363.421 1248.97 362.539 1251.44 362.218 1252.26C361.915 1253.12 361.032 1255.49 360.256 1257.59C357.761 1264.49 357.752 1264.52 356.947 1264.53C356.563 1264.52 356.05 1264.54 355.795 1264.6C355.484 1264.65 354.696 1261.67 352.917 1253.59C351.55 1247.51 349.818 1239.68 349.044 1236.23C347.82 1230.7 345.81 1221.55 339.468 1192.78C338.568 1188.73 336.942 1181.36 335.852 1176.41C334.733 1171.45 333.87 1167.26 333.923 1167.08C333.985 1166.86 377.714 1143.71 402.293 1130.9L403.276 1130.37L404.265 1131.4C404.828 1131.93 405.427 1132.43 405.593 1132.48C405.84 1132.55 405.745 1133.1 405.228 1134.5C404.844 1135.53 402.705 1141.39 400.458 1147.51ZM403.571 1121.17C403.175 1120.89 387.161 1110.04 367.951 1097.05C348.749 1084.02 332.974 1073.27 332.89 1073.15C332.815 1072.99 333.224 1071.66 333.795 1070.18C334.375 1068.66 335.23 1066.28 335.756 1064.84C336.255 1063.4 336.87 1061.76 337.093 1061.18C337.316 1060.61 337.897 1059.09 338.342 1057.84C338.787 1056.58 339.367 1055.07 339.591 1054.49C339.975 1053.56 342.703 1046.15 344.851 1040.17C345.252 1039.07 346.099 1036.82 346.724 1035.14C347.348 1033.47 348.489 1030.4 349.265 1028.29C351.476 1022.29 351.53 1022.21 352.301 1022.42C352.686 1022.53 353.564 1022.48 354.303 1022.29L355.617 1021.95L357.428 1025.63C360.134 1031.18 381.563 1074.06 385.909 1082.63C400.868 1112.16 405.013 1120.7 404.642 1121.17C404.334 1121.52 404.096 1121.52 403.571 1121.17ZM367.945 1146.79C349.029 1156.73 333.489 1164.83 333.379 1164.8C333.297 1164.78 333.089 1164.15 332.936 1163.43C332.819 1162.69 330.331 1151.35 327.424 1138.24L322.153 1114.39L323.252 1113.56C323.852 1113.12 324.648 1112.21 325.044 1111.54C325.422 1110.84 325.835 1110.12 325.944 1109.95C326.078 1109.68 326.802 1109.76 328.159 1110.11C329.26 1110.42 330.626 1110.74 331.167 1110.83C331.671 1110.94 333.945 1111.41 336.201 1111.95C338.438 1112.46 341.06 1113.07 342.078 1113.25C343.086 1113.47 345.305 1113.94 346.983 1114.31C356.179 1116.39 358.16 1116.85 363.486 1117.99C364.724 1118.24 367.181 1118.81 368.942 1119.2C375.81 1120.79 385.858 1123 390.488 1123.98C391.634 1124.24 394.293 1124.83 396.356 1125.31C398.428 1125.77 400.665 1126.27 401.344 1126.39C402.397 1126.56 402.564 1126.71 402.616 1127.36C402.647 1127.77 402.569 1128.26 402.498 1128.4C402.417 1128.58 386.87 1136.82 367.945 1146.79ZM401.195 1124.3C400.288 1124.14 397.932 1123.64 395.924 1123.17C393.943 1122.71 391.238 1122.07 389.918 1121.8C388.598 1121.53 386.223 1120.99 384.6 1120.63C382.977 1120.27 380.704 1119.79 379.558 1119.53C378.412 1119.27 375.945 1118.74 374.102 1118.32C372.259 1117.89 369.628 1117.31 368.234 1116.98C366.859 1116.69 361.935 1115.6 357.323 1114.56C352.711 1113.52 347.815 1112.43 346.413 1112.13C345.038 1111.84 341.563 1111.09 338.711 1110.45C335.86 1109.8 331.945 1108.93 330.01 1108.51L326.489 1107.71L326.272 1106.07C326.044 1104.26 324.891 1102.35 323.399 1101.32C322.451 1100.68 322.441 1100.61 322.88 1099.59C323.139 1098.99 324.013 1096.64 324.833 1094.39C325.653 1092.13 326.473 1089.87 326.706 1089.37C326.903 1088.88 328.106 1085.59 329.408 1082.06C330.673 1078.54 331.852 1075.55 331.997 1075.45C332.225 1075.28 402.367 1122.48 402.987 1123.22C403.08 1123.32 403.074 1123.65 402.977 1124C402.844 1124.46 402.533 1124.51 401.195 1124.3ZM449.765 936.829C446.496 939.435 442.147 942.911 440.077 944.544C438.034 946.185 423.961 957.399 408.835 969.492C393.682 981.577 377.948 994.137 373.835 997.411C369.722 1000.68 364.556 1004.84 362.322 1006.63L358.246 1009.88L357.453 1009.21C357.028 1008.82 356.366 1008.43 355.98 1008.32C355.595 1008.21 355.29 1007.93 355.288 1007.72C355.295 1007.49 355.717 1004.75 356.236 1001.67C356.756 998.582 357.621 993.443 358.112 990.25C359.959 978.726 360.174 977.34 360.47 975.775C360.599 974.903 361.161 971.562 361.652 968.37C362.17 965.185 362.689 962 362.801 961.291C362.94 960.591 363.389 957.756 363.838 955.023C365.392 945.368 365.737 943.211 366.602 937.97C367.077 935.042 367.898 930.059 368.389 926.866C369.397 920.388 369.483 919.874 370.098 916.245C370.322 914.828 370.667 912.671 370.875 911.417C371.074 910.195 371.636 906.854 372.085 904.02C372.561 901.193 373.26 896.848 373.638 894.364C374.553 888.633 375.589 882.162 377.412 871.035C378.225 866.184 379.001 861.255 379.21 860.103C379.391 858.942 379.899 855.688 380.375 852.861C380.851 850.034 381.255 847.356 381.324 846.904C382.183 841.056 382.35 840.363 382.897 840.216C383.217 840.138 384.009 839.758 384.682 839.377L385.92 838.685L392.649 847.665C415.689 878.378 430.814 898.528 445.633 918.187C451.221 925.632 455.801 931.813 455.774 931.906C455.748 932 453.042 934.193 449.765 936.829ZM351.507 1266.82C351.462 1266.87 346.141 1262.57 339.649 1257.26C333.148 1251.98 324.747 1245.11 320.949 1242.05C317.158 1238.95 312.326 1235.02 310.205 1233.27C308.084 1231.53 302.819 1227.24 298.494 1223.72C294.16 1220.23 286.894 1214.3 282.302 1210.57L273.975 1203.76L274.451 1201.98C274.735 1200.98 274.86 1199.7 274.762 1199.1L274.596 1198.01L282.489 1193.89C286.822 1191.62 292.138 1188.83 294.277 1187.68C296.416 1186.54 301.414 1183.92 305.337 1181.84C309.279 1179.8 316.898 1175.8 322.287 1172.96C327.639 1170.14 332.064 1167.86 332.083 1167.9C332.101 1167.94 332.762 1170.95 333.565 1174.62C334.369 1178.28 335.517 1183.45 336.128 1186.11C336.712 1188.77 338.912 1198.72 340.979 1208.19C343.074 1217.67 345.092 1226.79 345.475 1228.49C346.326 1232.29 350.199 1249.75 352.133 1258.65L353.578 1265.29L352.57 1266.01C352.015 1266.39 351.525 1266.76 351.507 1266.82ZM532.776 614.961C531.751 616.79 526.113 627.002 520.232 637.649C514.351 648.297 507.642 660.392 505.331 664.548C503.02 668.704 494.576 683.975 486.563 698.459L471.996 724.813L470.211 724.71C469.222 724.631 468.233 724.552 467.967 724.544C467.656 724.489 465.204 717.835 460.668 704.699C456.885 693.829 453.186 683.085 452.396 680.841L450.993 676.774L453.962 674.387C457.203 671.774 473.281 658.739 502.312 635.082C512.597 626.729 523.118 618.174 525.697 616.114C528.257 614.014 531.489 611.432 532.823 610.296C535.11 608.422 535.802 608.08 536.101 608.704C536.157 608.821 535.835 609.537 535.421 610.26C534.998 611.015 533.802 613.132 532.776 614.961ZM535.978 597.831C535.589 598.259 534.65 597.689 525.939 591.815C520.644 588.257 511.435 582.039 505.459 578.052C499.491 574.034 492.299 569.197 489.49 567.255C486.672 565.343 483.799 563.416 483.099 562.948C482.363 562.503 475.346 557.783 467.491 552.454C459.599 547.149 451.182 541.493 448.788 539.87C446.384 538.278 444.358 536.828 444.302 536.711C444.227 536.555 444.89 535.06 445.761 533.356C446.632 531.651 449.54 525.813 452.241 520.388C457.16 510.511 458.183 508.479 466.064 492.678C468.389 488.055 471.028 482.746 471.943 480.886C474.447 475.842 478.782 467.078 482.283 460.096C483.988 456.71 487.901 448.802 491.016 442.551C494.13 436.301 496.769 430.992 496.895 430.759C497.066 430.471 497.787 430.339 498.804 430.426L500.433 430.553L500.757 431.823C500.91 432.539 503.309 443.15 506.098 455.42C508.86 467.681 511.908 481.034 512.834 485.101C513.761 489.167 516.398 500.821 518.71 511.003C521.022 521.185 523.735 533.097 524.729 537.451C525.722 541.806 526.936 547.166 527.423 549.324C527.902 551.513 528.694 554.902 529.143 556.88C530.089 561.087 532.926 573.505 535.917 586.741L538.056 596.066L537.239 596.742C536.785 597.084 536.223 597.598 535.978 597.831ZM529.114 610.892C526.645 612.883 514.653 622.635 502.434 632.558C490.215 642.482 479.185 651.464 477.905 652.514C475.763 654.295 470.262 658.79 456.155 670.23C453.213 672.626 450.661 674.593 450.515 674.585C450.332 674.6 448.575 669.793 446.56 663.903C444.537 658.044 442.456 651.966 441.92 650.4C441.374 648.865 438.993 641.962 436.631 635.098C434.241 628.226 431.774 620.996 431.078 619.048C422.734 595.237 421.733 592.058 422.288 591.677C423.069 591.125 424.306 589.39 424.563 588.487C424.766 587.771 424.913 587.779 428.715 588.321C430.867 588.596 437.793 589.554 444.087 590.434C450.381 591.313 464.947 593.332 476.417 594.942C487.924 596.529 498.908 598.068 500.887 598.327C502.857 598.618 504.973 598.916 505.605 598.995C508.326 599.364 520.969 601.139 526.493 601.901C529.81 602.372 532.787 602.781 533.144 602.781C533.675 602.797 533.852 603.117 534.132 604.644C534.365 606.124 534.352 606.591 533.998 606.894C533.762 607.097 531.556 608.893 529.114 610.892ZM533.445 600.78C532.914 600.764 530.367 600.41 527.765 600.041C523.386 599.436 502.068 596.475 485.843 594.221C482.069 593.687 472.678 592.399 464.955 591.315C457.26 590.239 445.726 588.644 439.349 587.741C432.964 586.869 427.183 586.068 426.469 585.966C425.186 585.77 425.158 585.762 425.129 584.609C425.101 583.558 424.025 581.165 423.071 579.918C422.765 579.528 423.043 578.867 425.413 574.189C428.349 568.359 431.517 562.023 435.636 553.702C439.415 546.059 443.051 538.913 443.233 538.797C443.37 538.734 467.449 554.799 478.169 562.085C480.554 563.739 483.482 565.682 484.661 566.454C486.788 567.867 494.311 572.899 505.887 580.732C509.257 583.002 516.9 588.136 522.868 592.154C528.844 596.14 533.936 599.573 534.185 599.745C534.876 600.244 534.434 600.859 533.445 600.78ZM462.301 738.416C461.612 739.163 459.749 741.325 458.175 743.201C441.13 763.196 428.744 777.582 428.551 777.527C428.441 777.496 427.094 776.272 425.579 774.798C424.037 773.317 422.079 771.414 421.165 770.548C419.383 768.864 410.656 760.427 399.232 749.339C395.27 745.487 390.948 741.33 389.664 740.091L387.328 737.845L387.413 736.287C387.478 735.431 387.506 734.496 387.503 734.192C387.444 733.772 388.696 733.656 394.68 733.64C398.669 733.629 407.231 733.538 413.708 733.46C458.478 732.92 462.495 732.917 462.611 733.556C462.687 733.915 462.942 734.694 463.204 735.34C463.467 735.987 463.674 736.618 463.63 736.774C463.594 736.898 462.998 737.638 462.301 738.416ZM463.129 729.429C462.567 730.885 462.457 730.955 461.442 730.969C452.541 731.099 423.844 731.392 412.335 731.488C404.138 731.548 395.1 731.639 392.227 731.698C389.364 731.726 386.903 731.699 386.738 731.653C386.572 731.606 386.212 731.2 385.961 730.826L385.46 730.078L391.914 724.844C395.437 721.974 402.2 716.491 406.92 712.65C411.668 708.816 423.161 699.46 432.484 691.877C441.807 684.295 449.516 678.205 449.582 678.392C449.656 678.548 453.364 689.261 457.825 702.141L465.91 725.608L464.841 726.752C464.244 727.39 463.487 728.588 463.129 729.429ZM571.664 324.646C570.722 324.715 570.41 324.661 570.224 324.271C569.662 323.001 559.872 294.438 559.943 294.188C559.996 294.002 579.075 263.915 597.037 235.665C597.803 234.435 598.553 233.47 598.663 233.501C598.801 233.54 593.042 254.017 585.9 279.047L572.888 324.523L571.664 324.646ZM582.72 254.752C575.041 266.807 566.569 280.084 563.883 284.302L559.043 291.913L553.454 275.886C550.359 267.098 546.897 257.195 545.768 253.946C539.623 236.212 524.595 192.9 523.297 189.199C522.478 186.846 520.389 180.8 518.638 175.759C516.888 170.718 514.498 163.846 513.322 160.449C507.234 142.934 504.288 134.457 504.202 134.028C504.154 133.779 504.288 133.413 504.551 133.219C504.978 132.869 505.568 133.407 516.921 144.643C521.05 148.744 523.128 150.748 530.286 157.797C531.893 159.365 535.08 162.492 537.38 164.761C539.68 167.03 542.82 170.11 544.353 171.622C545.895 173.104 550.819 177.97 555.28 182.367C559.76 186.804 564.286 191.288 565.385 192.34C566.484 193.393 569.255 196.099 571.555 198.368C584.006 210.657 587.026 213.635 592.845 219.328L596.271 222.657L595.727 224.051C594.833 226.254 594.926 228.333 595.952 230.375C596.447 231.357 596.803 232.3 596.778 232.494C596.752 232.689 590.426 242.705 582.72 254.752ZM320.91 1171.52C315.921 1174.11 309.941 1177.26 307.628 1178.49C305.316 1179.71 300.419 1182.29 296.751 1184.21C293.118 1186.11 286.655 1189.49 282.422 1191.72C278.208 1193.99 274.557 1195.85 274.348 1195.96C273.864 1196.09 272.542 1194.67 272.684 1194.17C272.728 1194.01 275.506 1188.95 278.87 1182.97C282.207 1176.99 285.76 1170.66 286.713 1168.88C289.599 1163.64 295.633 1152.76 299.825 1145.34C301.957 1141.5 306.687 1133.02 310.293 1126.5L316.885 1114.61L318.159 1114.84C318.837 1114.96 319.634 1115.09 319.919 1115.14C320.322 1115.18 321.331 1119.27 324.487 1133.5C326.707 1143.59 328.954 1153.68 329.442 1155.94C329.958 1158.21 330.638 1161.36 330.992 1162.95L331.614 1165.78L330.814 1166.29C330.35 1166.57 325.907 1168.91 320.91 1171.52ZM555.053 351.699C548.78 359.643 542.209 367.907 540.482 370.109C538.729 372.303 536.604 374.964 535.8 376.014C533.884 378.465 530.169 383.165 519.078 397.179C514.188 403.396 508.674 410.344 506.858 412.655C505.032 414.997 503.53 416.725 503.519 416.553C503.516 416.249 506.501 408.885 513.297 392.507C514.852 388.708 516.354 385.096 516.605 384.528C516.828 383.952 518.348 380.277 519.93 376.385C521.539 372.501 523.488 367.737 524.266 365.837C525.071 363.946 525.92 361.898 526.144 361.322C526.367 360.746 527.887 357.072 529.496 353.188C531.106 349.303 532.625 345.629 532.849 345.053C533.099 344.485 534.163 341.892 535.218 339.331C536.273 336.77 537.757 333.119 538.562 331.228C539.331 329.359 540.02 327.771 540.056 327.748C540.12 327.733 540.943 327.663 541.903 327.633C543.924 327.534 546.072 326.361 547.099 324.734C547.82 323.559 547.527 323.543 551.733 325.176C553.423 325.824 555.728 326.715 556.83 327.129C557.931 327.543 559.318 328.105 559.906 328.34C560.494 328.574 561.936 329.152 563.111 329.621C565.288 330.441 565.611 330.769 565.284 331.921C565.062 332.699 565.77 335.862 566.286 336.245C566.471 336.432 566.601 336.704 566.539 336.922C566.486 337.109 561.317 343.786 555.053 351.699ZM598.155 219.692C597.803 219.256 596.449 217.323 595.131 215.366C593.804 213.441 587.187 203.752 580.414 193.885C573.64 184.017 565.575 172.2 562.448 167.609C559.339 163.057 554.133 155.419 550.895 150.695C547.656 145.972 543.638 140.118 541.958 137.655C540.279 135.192 534.6 126.914 529.339 119.26C524.086 111.575 519.613 105.02 519.445 104.669C519.138 104.077 519.227 103.867 521.005 101.376C523 98.5439 542.703 71.4951 547.371 65.1142L550.135 61.3557L551.209 61.762C551.797 61.9963 552.86 62.13 553.563 62.0607L554.843 61.9532L557.81 72.6577C559.459 78.5787 561.506 85.9254 562.359 88.9949C563.221 92.0333 565.155 99.045 566.708 104.569C568.234 110.085 570.036 116.621 570.727 119.106C571.428 121.56 574.508 132.6 577.569 143.6C580.649 154.64 585.936 173.509 589.29 185.569C592.645 197.629 596.18 210.313 597.146 213.717C598.076 217.145 598.854 220.059 598.81 220.215C598.774 220.339 598.479 220.121 598.155 219.692ZM567.368 326.993C566.671 327.771 566.092 328.448 566.074 328.511C566.038 328.534 563.191 327.456 559.766 326.112C556.313 324.761 552.401 323.245 551.032 322.722L548.553 321.816L548.635 320.795C548.792 319.09 548.409 317.298 547.563 315.88L546.763 314.508L552.533 305.613C555.679 300.718 558.348 296.663 558.42 296.617C558.566 296.523 559.788 299.967 564.55 313.672C568.154 324.019 568.624 325.398 568.598 325.492C568.58 325.554 568.029 326.239 567.368 326.993ZM588.763 212.547C585.651 209.475 582.206 206.106 581.115 205.023C580.017 203.97 576.996 200.991 574.364 198.426C559.76 183.977 554.255 178.542 545.204 169.676C539.717 164.281 532.227 156.935 528.578 153.341C519.046 143.968 513.098 138.104 509.468 134.549L506.3 131.461L506.915 129.818C507.727 127.693 507.633 125.512 506.645 123.548L505.907 122.06L511.641 114.13C514.81 109.78 517.474 106.162 517.629 106.038C517.747 105.936 520.695 110.005 524.166 115.064C537.232 134.192 541.788 140.872 549.147 151.612C553.304 157.708 558.185 164.816 559.976 167.412C561.767 170.007 566.499 176.905 570.489 182.751C579.25 195.573 585.448 204.638 590.71 212.292C592.872 215.465 594.599 218.076 594.535 218.091C594.49 218.146 591.867 215.651 588.763 212.547ZM422.791 784.608C420.403 787.362 416.341 792.132 413.717 795.189C411.093 798.247 407.492 802.441 405.71 804.526C403.928 806.611 401.711 809.179 400.824 810.205C399.901 811.256 396.997 814.671 394.356 817.791C386.92 826.583 386.576 826.957 385.95 826.543C385.673 826.364 384.957 826.059 384.406 825.903L383.416 825.621L383.35 821.665C383.321 816.743 382.458 773.719 382.308 768.595C382.27 766.531 382.106 759.988 381.985 754.03C381.769 743.905 381.798 743.173 382.372 742.933C383.657 742.389 384.993 741.456 385.735 740.623L386.486 739.76L389.404 742.575C392.101 745.226 404.753 757.437 419.852 772.027C420.878 773.025 422.955 775.029 424.479 776.471C425.966 777.937 427.177 779.224 427.142 779.348C427.106 779.473 425.153 781.846 422.791 784.608ZM551.464 303.929L545.409 313.517L543.429 313.157C542.32 312.976 541.431 312.757 541.412 312.718C541.356 312.601 515.736 192.672 512.573 177.738C511.308 171.724 509.238 162.048 507.975 156.237C506.739 150.433 505.608 145.097 505.473 144.419L505.232 143.173L505.617 144.124C505.823 144.653 507.375 149.032 509.041 153.847C510.706 158.662 513.454 166.578 515.147 171.401C518.365 180.595 529.243 211.924 538.362 238.244C541.326 246.76 545.231 258.034 547.047 263.262C548.863 268.49 551.131 275.058 552.073 277.816C553.014 280.574 554.634 285.343 555.706 288.374C556.778 291.404 557.618 293.999 557.582 294.123C557.547 294.248 554.808 298.653 551.464 303.929ZM433.223 688.856C424.835 695.661 414.704 703.889 410.746 707.14C388.751 725.089 383.839 728.978 383.262 728.915C382.685 728.852 382.702 728.688 384.377 722.164C385.33 718.497 386.617 713.443 387.242 710.929C387.868 708.414 389.165 703.431 390.109 699.795C391.044 696.19 392.366 691.012 393.063 688.35C393.733 685.679 395.074 680.54 396.018 676.904C396.953 673.3 398.383 667.849 399.15 664.836C400.799 658.405 402.854 650.44 405.015 642.102C405.853 638.839 407.176 633.763 407.925 630.812C409.248 625.634 410.483 620.869 414.145 606.832C415.106 603.133 416.252 598.579 416.691 596.718L417.482 593.307L418.341 593.215C418.807 593.145 419.41 593.115 419.667 593.154C420.153 593.225 421.646 597.284 427.145 613.42C428.774 618.258 430.826 624.227 444.067 662.42C446.673 669.892 448.709 676.125 448.646 676.242C448.556 676.351 441.62 682.02 433.223 688.856ZM346.658 1030.25C345.311 1033.83 343.831 1037.89 343.332 1039.23C342.86 1040.58 342.245 1042.22 341.995 1042.89C341.37 1044.46 339.22 1050.24 338.293 1052.77C337.92 1053.88 337.01 1056.35 336.287 1058.26C335.565 1060.18 334.701 1062.59 334.326 1063.6C332.507 1068.53 331.258 1071.78 331.121 1071.84C330.975 1071.93 288.67 1043.39 282.673 1039.16L279.955 1037.21L280.407 1035.62L280.894 1034.01L283.596 1033.29C285.101 1032.91 299.951 1029.22 316.609 1025.14L346.866 1017.68L347.205 1018.69C347.412 1019.22 348.015 1020.13 348.597 1020.7C349.853 1021.93 349.984 1021.26 346.658 1030.25ZM352.636 1007.85C351.511 1007.83 349.464 1009.06 348.406 1010.38C347.62 1011.37 347.306 1012.05 346.929 1013.7L346.436 1015.74L329.642 1019.89C298.326 1027.62 281.102 1031.81 280.882 1031.75C280.505 1031.61 278.789 1028.23 278.904 1027.82C279.011 1027.45 286.03 1014.36 342.646 909.118C362.789 871.727 379.399 840.804 379.597 840.422C379.794 840.041 380.094 839.823 380.26 839.971C380.582 840.198 379.991 844.371 377.726 857.998C377.052 862.148 375.981 868.744 375.35 872.637C374.72 876.531 372.682 889.145 370.817 900.631C368.942 912.147 367.39 921.904 367.321 922.356C367.252 922.807 366.984 924.481 366.716 926.054C366.411 927.651 365.867 931.03 365.462 933.607C364.765 938.155 362.77 950.513 359.807 968.687C358.176 978.825 358.226 978.334 357.493 983.007C357.201 984.977 356.449 989.509 355.862 993.145C355.247 996.774 354.565 1001.06 354.324 1002.64C353.636 1007.15 353.414 1007.83 352.636 1007.85ZM327.862 1081.11C327.808 1081.2 327.272 1082.56 326.729 1084.16C326.159 1085.74 325.481 1087.6 325.204 1088.27C324.954 1088.94 323.857 1091.85 322.787 1094.78C321.718 1097.71 320.799 1100.11 320.762 1100.13C320.698 1100.15 320.023 1100.32 319.238 1100.47C318.443 1100.65 317.567 1100.9 317.23 1101.04C316.656 1101.29 316.99 1101.78 292.763 1062.79C287.541 1054.37 278.619 1040.03 278.276 1039.56C278.258 1039.52 278.338 1039.34 278.465 1039.21C278.71 1038.97 282.696 1041.59 312.497 1061.8L330.409 1073.93L329.199 1077.45C328.531 1079.38 327.943 1081.03 327.862 1081.11ZM309.593 1124.05C306.616 1129.4 303.468 1135.03 302.623 1136.54C300.563 1140.23 285.841 1166.71 282.181 1173.31C280.589 1176.19 277.415 1181.92 275.14 1186.05L270.967 1193.51L269.811 1193.19C269.15 1193 268.088 1192.97 267.458 1193.09L266.308 1193.37L265.858 1192.23C265.623 1191.59 260.648 1179.37 254.791 1165.02C248.935 1150.67 244.155 1138.81 244.153 1138.61C244.195 1138.25 243.994 1138.33 275.55 1125.99C287.153 1121.48 300.451 1116.24 305.136 1114.4C313.567 1111.11 313.667 1111.07 314.05 1111.82C314.291 1112.22 314.69 1112.81 314.968 1113.09C315.245 1113.37 315.368 1113.78 315.251 1113.98C315.115 1114.14 312.57 1118.7 309.593 1124.05ZM535.174 334.775C533.815 338.091 532.063 342.373 531.258 344.264C530.481 346.164 529.006 349.784 527.977 352.251C526.94 354.75 525.457 358.401 524.625 360.386C523.793 362.371 521.433 368.061 519.395 373.036C513.637 387.017 509.123 397.985 505.984 405.575C504.393 409.397 502.82 413.258 502.471 414.169L501.811 415.866L500.301 415.841C499.468 415.84 498.199 416.119 497.443 416.476L496.123 417.144L491.901 411.906C489.568 409.021 484.067 402.208 479.642 396.743C475.216 391.278 471.511 386.624 471.399 386.391C471.231 386.04 473.025 384.227 478.667 379.133C489.723 369.115 530.882 331.772 534.328 328.645C535.942 327.151 537.34 326 537.442 326.063C537.543 326.125 537.819 326.305 538.095 326.484C538.473 326.726 538.466 326.96 538.089 327.761C537.847 328.298 536.533 331.459 535.174 334.775ZM538.138 314.817C537.285 315.517 536.539 315.945 536.282 315.804C536.043 315.703 534.671 314.876 533.19 314.017C531.718 313.128 524.763 309.132 517.734 305.081C510.705 301.031 501.459 295.678 497.171 293.18C492.884 290.683 482.616 284.736 474.308 279.952C466.037 275.145 453.847 268.114 447.232 264.282C440.644 260.458 434.204 256.743 432.944 256.049C431.693 255.323 430.625 254.683 430.56 254.597C430.523 254.519 433.607 248.9 437.43 242.144C441.217 235.412 448.278 222.811 453.135 214.195C457.965 205.571 462.409 197.679 463.03 196.644C463.624 195.601 468.068 187.709 472.898 179.085C485.814 156.032 497.957 134.442 498.057 134.403C498.094 134.379 498.9 134.474 499.835 134.638L501.539 134.921L505.086 151.748C507.042 160.987 508.853 169.478 509.129 170.6C509.396 171.753 513.544 191.072 518.316 213.532C523.116 235.998 529.87 267.603 533.338 283.768C536.806 299.932 539.624 313.254 539.616 313.386C539.581 313.511 538.919 314.164 538.138 314.817ZM530.033 330.049C521.507 337.757 504.637 353.057 486.47 369.57C478.008 377.263 470.798 383.797 470.453 384.069C469.745 384.675 470.383 385.361 460.289 372.733C458.9 371.025 449.835 359.8 440.15 347.826C430.465 335.852 420.084 322.973 417.047 319.216C414.038 315.466 410.63 311.233 409.51 309.838C408.205 308.255 407.554 307.195 407.716 306.938C407.861 306.744 408.193 306.098 408.471 305.537C408.731 304.938 409.037 304.487 409.147 304.518C409.23 304.541 412.161 304.903 415.642 305.32C424.775 306.468 432.185 307.395 440.182 308.456C443.26 308.826 447.529 309.399 449.663 309.636C451.788 309.903 455.553 310.367 457.99 310.689C460.435 310.98 469.733 312.175 478.664 313.299C499.302 315.932 502.178 316.278 506.365 316.828C510.093 317.316 517.925 318.329 524.594 319.147C534.193 320.327 535.357 320.523 535.369 320.795C535.352 320.959 535.553 321.824 535.781 322.696C535.981 323.561 536.181 324.324 536.163 324.387C536.173 324.457 533.398 327 530.033 330.049ZM294.443 1116.55C284.608 1120.38 269.049 1126.46 259.852 1130.04L243.182 1136.58L242.761 1135.65C242.461 1134.93 230.233 1104.9 225.331 1092.84C222.698 1086.3 207.866 1050.04 206.751 1047.37C206.011 1045.58 201.683 1035.06 197.194 1023.96C192.668 1012.88 188.835 1003.44 188.657 1003.02C188.395 1002.37 188.42 1002.18 188.883 1001.8C189.446 1001.29 189.612 1001.44 208.97 1017.47C222.279 1028.53 247.114 1049.05 252.214 1053.19C255.442 1055.85 286.088 1081.16 290.293 1084.67C292.147 1086.21 298.216 1091.23 303.832 1095.86L314.013 1104.2L313.545 1105.95C313.27 1106.92 313.08 1108.01 313.12 1108.39C313.151 1108.8 312.99 1109.16 312.735 1109.33C312.517 1109.47 304.278 1112.71 294.443 1116.55ZM306.647 1095.58C302.211 1091.93 296.53 1087.22 294.003 1085.12C291.495 1083.06 283.398 1076.39 276.047 1070.33C260.775 1057.71 250.483 1049.23 243.049 1043.04C236.769 1037.83 216.12 1020.78 212.929 1018.2C201.153 1008.56 191.524 1000.47 191.798 1000.44C191.981 1000.43 193.836 1001.12 195.903 1002.02C197.97 1002.91 200.138 1003.86 200.726 1004.09C201.305 1004.36 204.07 1005.51 206.835 1006.67C209.627 1007.83 212.31 1008.97 212.815 1009.18C213.339 1009.43 215.544 1010.36 217.721 1011.28C219.934 1012.18 222.801 1013.39 224.105 1013.93C225.428 1014.51 226.962 1015.18 227.55 1015.42C228.138 1015.65 229.7 1016.33 230.995 1016.9C232.327 1017.45 238.409 1020.02 244.545 1022.6C250.682 1025.19 256.239 1027.51 256.901 1027.8C257.562 1028.08 258.573 1028.51 259.152 1028.77C260.263 1029.26 261.65 1029.82 264.066 1030.84C267.952 1032.45 267.731 1032.29 267.56 1033.62C266.9 1038.24 271.029 1042.24 275.254 1041.09L276.768 1040.68L282.419 1049.79C285.522 1054.78 294.11 1068.63 301.506 1080.49C308.894 1092.38 314.871 1102.12 314.798 1102.17C314.753 1102.23 311.074 1099.26 306.647 1095.58ZM535.475 318.537C535.062 318.42 500.446 314.002 493.429 313.153C492.962 313.121 489.665 312.689 486.101 312.248C482.547 311.777 478.233 311.258 476.483 311.03C474.761 310.81 469.393 310.126 464.575 309.497C459.756 308.869 454.993 308.256 453.958 308.13C450.441 307.736 445.476 307.1 428.117 304.86C418.562 303.626 410.41 302.588 410.007 302.541C409.366 302.493 409.245 302.291 409.124 301.146C409.002 299.899 408.151 297.975 407.3 296.992C406.958 296.626 407.443 295.653 411.859 287.753C414.575 282.904 419.621 273.938 423.03 267.805C426.466 261.68 429.335 256.605 429.436 256.566C429.545 256.496 430.924 257.191 432.534 258.12C434.116 259.041 438.008 261.257 441.173 263.099C447.613 266.814 468.047 278.644 477.183 283.967C488.012 290.241 507.296 301.409 518.069 307.566C521.243 309.377 525.245 311.726 527.003 312.764C528.76 313.802 531.29 315.261 532.615 316.041C533.94 316.822 535.246 317.563 535.495 317.735C535.937 318.062 535.943 318.67 535.475 318.537ZM492.648 435.341C487.532 445.6 473.144 474.462 470.541 479.646C469.948 480.79 466.483 487.749 462.812 495.12C456.943 506.982 453.478 513.941 448.586 523.725C443.641 533.696 442.608 535.657 442.397 535.564C442.167 535.431 425.628 524.337 396.335 504.637C388.996 499.691 379.833 493.519 375.984 490.945L368.967 486.225L369.16 484.395C369.25 483.343 369.359 482.23 369.373 481.864C369.386 481.295 372.438 479.874 388.801 472.743C399.46 468.098 417.836 460.059 429.626 454.894C441.415 449.728 452.967 444.664 455.308 443.646C457.65 442.629 467.234 438.419 476.637 434.326L493.728 426.83L494.415 427.867C494.787 428.443 495.267 428.95 495.46 429.005C495.68 429.068 495.664 429.332 495.404 429.83C495.206 430.212 493.94 432.679 492.648 435.341ZM362.978 867.607C347.124 897.129 278.767 1024.01 277.679 1025.96C277.067 1027.06 276.994 1027.11 275.921 1026.81L274.765 1026.48L275.185 1012.12C276.496 965.848 277.546 929.493 277.649 925.989C277.738 923.793 278.304 904.634 278.886 883.428C281.453 793.687 281.643 787.784 282.009 787.753C282.74 787.691 285.04 786.191 285.627 785.382C286.305 784.464 286.424 784.464 288.199 785.439C288.87 785.798 293.118 788.015 297.614 790.302C302.101 792.621 309.88 796.649 314.855 799.24C319.857 801.839 327.948 806.023 332.877 808.568C337.814 811.082 343.359 813.97 345.198 814.93C347.064 815.898 350.559 817.732 352.977 818.958C355.413 820.222 359.661 822.439 362.438 823.868C365.215 825.296 369.362 827.451 371.651 828.606L375.807 830.729L375.619 832.123C375.517 832.902 375.585 834.234 375.757 835.091C376.065 836.625 377.32 838.698 378.036 838.902C378.256 838.964 378.276 839.206 378.097 839.525C377.934 839.782 371.13 852.422 362.978 867.607ZM380.965 825.766C380.636 825.774 379.689 826.279 378.871 826.854C378.017 827.453 377.207 827.896 377.069 827.857C376.932 827.818 375.172 826.577 373.182 825.103C371.192 823.629 365.23 819.276 359.932 815.415C354.653 811.592 348.544 807.13 346.388 805.508C344.222 803.916 333.313 795.936 322.119 787.808C310.924 779.679 301.701 772.885 301.617 772.76C301.515 772.596 310.769 768.293 322.175 763.22C333.562 758.109 350.078 750.753 358.906 746.799C371.923 740.973 374.949 739.746 375.227 740.128C376.183 741.477 377.409 742.498 378.603 742.905C379.529 743.202 379.972 743.529 379.993 743.872C380.005 744.145 380.122 750.539 380.268 758.086C380.413 765.633 380.584 774.769 380.683 778.398C380.782 782.028 380.991 792.386 381.161 801.421C381.33 810.455 381.544 819.435 381.609 821.406C381.741 825.549 381.724 825.713 380.965 825.766ZM479.186 431.112C471.615 434.413 462.987 438.188 460.035 439.47C457.055 440.743 450.022 443.827 444.346 446.321C438.698 448.822 429.186 452.985 423.21 455.595C417.233 458.205 407.913 462.322 402.483 464.683C397.081 467.052 387.232 471.355 380.636 474.26C374.04 477.165 368.6 479.456 368.535 479.37C368.469 479.183 370.773 477.044 383.353 465.642C386.763 462.538 400.377 450.218 413.573 438.216C426.76 426.245 439.83 414.376 442.587 411.894C445.354 409.382 448.918 406.154 450.515 404.723C454.06 401.456 459.947 396.128 465.443 391.127L469.597 387.393L471.273 389.451C472.199 390.59 477.801 397.567 483.764 404.949L494.561 418.35L493.786 420.553C493.35 421.775 493.052 423.138 493.066 423.613C493.107 424.096 493.103 424.633 493.059 424.789C493.006 424.976 486.757 427.811 479.186 431.112ZM263.512 1195.57C262.887 1196.3 262.239 1197.43 262.062 1198.05L261.744 1199.17L255.484 1199.01C252.034 1198.9 243.359 1198.66 236.211 1198.48C211.787 1197.87 207.568 1197.75 196.504 1197.43C190.427 1197.25 183.728 1197.06 181.596 1197.03C179.491 1197.01 173.964 1196.88 169.333 1196.74C164.694 1196.64 157.08 1196.43 152.349 1196.33C147.654 1196.2 141.724 1196.03 139.208 1195.99C136.7 1195.92 127.137 1195.66 117.949 1195.44C106.903 1195.16 101.246 1194.87 101.162 1194.64C101.105 1194.42 101.632 1194.03 102.315 1193.72C103.928 1193.07 141.946 1178.19 163.949 1169.63C173.419 1165.93 186.371 1160.86 192.724 1158.39C234.624 1141.99 241.916 1139.15 242.1 1139.24C242.265 1139.28 264.704 1193.99 264.642 1194.21C264.642 1194.21 264.136 1194.84 263.512 1195.57ZM364.54 822.648C362.048 821.367 357.405 818.971 354.187 817.316C346.307 813.226 343.897 811.969 337.075 808.448C333.857 806.794 327.687 803.593 323.329 801.345C318.97 799.097 311.734 795.358 307.247 793.04C302.751 790.752 298.19 788.379 297.124 787.841C296.066 787.271 293.455 785.889 291.303 784.773C289.179 783.665 287.395 782.72 287.349 782.673C287.311 782.596 287.343 782.066 287.42 781.482C287.524 780.906 287.552 780.072 287.539 779.597C287.525 779.122 287.621 778.678 287.767 778.585C288.122 778.383 297.888 774.056 298.69 773.746C299.155 773.575 301.374 775.081 309.722 781.189C315.481 785.417 328.334 794.824 338.285 802.095C348.236 809.365 359.293 817.454 362.841 820.044C366.388 822.634 369.245 824.826 369.172 824.873C369.1 824.919 367.013 823.889 364.54 822.648ZM430.088 560.876L421.211 578.717L419.938 578.591C419.27 578.535 418.109 578.643 417.434 578.821C416.375 579.093 416.082 579.077 415.822 578.632C415.469 578.095 392.428 535.871 390.741 532.699C390.257 531.787 384.939 522.03 378.913 510.995C365.521 486.524 366.799 489.041 367.479 488.427C368.023 487.976 368.603 488.343 381.965 497.323C389.627 502.495 406.055 513.558 418.496 521.906C430.937 530.254 441.223 537.182 441.37 537.291C441.711 537.557 441.478 538.062 430.088 560.876ZM379.757 728.794L378.588 729.034L371.167 713.698C367.078 705.266 356.903 684.234 348.512 666.973C340.121 649.712 333.369 635.475 333.487 635.374C333.668 635.156 347.89 627.081 383.487 606.905C390.293 603.05 399.584 597.78 404.051 595.246C408.556 592.689 412.378 590.544 412.578 590.467C412.77 590.42 413.322 590.779 413.839 591.263C414.32 591.769 414.928 592.245 415.203 592.323C415.451 592.394 415.7 592.565 415.711 592.737C415.815 593.103 414.281 599.129 405.478 633.146C404.587 636.595 403.281 641.609 402.611 644.279C401.942 646.95 400.512 652.4 399.48 656.348C398.438 660.326 397.143 665.41 396.569 667.637C396.015 669.903 394.674 675.041 393.615 679.082C392.556 683.123 391.268 688.075 390.793 690.06C390.29 692.038 388.808 697.776 387.511 702.759C386.206 707.773 384.458 714.446 383.666 717.653C382.846 720.853 381.903 724.591 381.56 726.008L380.907 728.515L379.757 728.794ZM376.401 730.869C376.237 730.924 375.768 731.632 375.327 732.449C374.563 733.881 374.527 733.905 373.555 733.662C372.977 733.498 372.023 733.294 371.4 733.184C370.172 733.004 365.975 732.282 351.422 729.695C346.345 728.825 341.643 727.994 340.929 727.892C339.847 727.719 336.759 727.178 328.043 725.61C327.117 725.414 325.074 725.069 323.516 724.795C321.958 724.52 319.859 724.16 318.842 723.972C317.824 723.783 315.863 723.462 314.443 723.227C313.05 722.999 310.869 722.615 309.631 722.364C308.385 722.145 307.001 721.886 306.515 721.815C306.049 721.784 304.124 721.439 302.254 721.109C300.385 720.78 298.24 720.373 297.443 720.247C296.673 720.129 293.108 719.487 289.515 718.836C285.95 718.193 282.55 717.597 282.001 717.542C281.46 717.456 280.122 717.244 279.022 717.032C276.657 716.562 268.217 715.073 266.421 714.798C265.715 714.665 264.377 714.453 263.442 714.288C262.517 714.092 259.511 713.575 256.798 713.073C254.085 712.572 250.758 712.03 249.421 711.818C248.083 711.607 246.122 711.285 245.022 711.073C242.455 710.58 237.58 709.733 232.283 708.8C229.955 708.408 226.445 707.78 224.493 707.428C222.541 707.075 220.506 706.699 219.957 706.644C219.416 706.557 217.941 706.306 216.703 706.056L214.439 705.648L214.28 704.324C214.092 702.789 213.583 703.217 219.498 699.883C223.384 697.722 303.549 652.279 308.8 649.294C319.6 643.107 331.384 636.493 331.494 636.525C331.852 636.626 376.932 729.943 376.817 730.348C376.746 730.597 376.565 730.815 376.401 730.869ZM355.324 746.32C345.111 750.856 335.601 755.121 334.179 755.727C332.722 756.356 324.614 759.975 316.124 763.79C307.606 767.596 300.354 770.819 299.962 770.944C299.369 771.145 297.629 769.944 286.13 761.527C278.896 756.207 259.676 742.197 243.414 730.34C227.179 718.49 213.8 708.63 213.725 708.474C213.389 707.773 214.349 707.642 216.576 708.073C217.905 708.316 219.491 708.598 220.114 708.708C220.746 708.786 222.78 709.163 224.65 709.492C226.52 709.821 230.799 710.566 234.136 711.177C237.481 711.758 240.881 712.354 241.65 712.471C242.447 712.597 245.252 713.091 247.882 713.569C250.549 714.024 253.353 714.518 254.114 714.667C254.911 714.792 260.52 715.78 266.578 716.862C272.663 717.952 278.281 718.908 279.042 719.057C279.839 719.183 286.785 720.383 294.484 721.762C302.191 723.111 309.156 724.35 309.926 724.467C310.723 724.593 314.976 725.33 319.412 726.153C323.857 726.945 328.696 727.815 330.18 728.035C331.655 728.286 335.119 728.866 337.832 729.368C340.554 729.838 343.248 730.301 343.789 730.387C344.329 730.474 346.456 730.842 348.463 731.21C351.992 731.877 359.644 733.21 362.622 733.719C365.179 734.143 373.528 735.64 373.913 735.75C374.326 735.867 374.508 737.635 374.117 737.86C373.999 737.962 365.545 741.752 355.324 746.32ZM413.599 581.535C413.202 582.095 412.77 582.881 412.655 583.286C412.434 584.065 412.956 584.112 401.009 582.4C399.213 582.125 397.152 581.843 396.437 581.741C395.723 581.638 393.03 581.277 390.428 580.908C387.826 580.539 385.251 580.178 384.702 580.122C384.161 580.036 381.532 579.659 378.839 579.298C376.182 578.913 369.805 578.01 364.684 577.295C359.572 576.549 351.675 575.45 347.094 574.821C342.55 574.169 335.715 573.203 331.932 572.701C328.157 572.167 321.268 571.185 316.632 570.541C312.006 569.866 307.855 569.292 307.416 569.268C306.784 569.19 306.654 569.018 306.647 568.208C306.623 567.663 306.282 566.456 305.87 565.497L305.14 563.775L308.851 558.67C310.928 555.861 314.622 550.819 317.096 547.449C321.738 541.162 328.538 531.886 339.97 516.253C343.537 511.343 349.271 503.515 352.712 498.838L358.934 490.341L360.913 490.701C362.233 490.975 363.304 490.977 364.125 490.705C365.174 490.364 365.43 490.403 365.699 490.816C365.885 491.104 370.979 500.394 376.968 511.452C382.985 522.519 388.89 533.351 390.11 535.549C398.426 550.668 414.428 580.188 414.384 580.344C414.348 580.469 413.987 581.006 413.599 581.535ZM406.041 591.908C402.82 593.719 398.671 596.073 396.815 597.162C394.94 598.211 382.738 605.144 369.689 612.543C356.641 619.942 342.919 627.722 339.189 629.859L332.446 633.699L328.956 626.615C327.034 622.703 320.621 609.471 314.684 597.182C304.938 577.046 303.902 574.833 304.382 574.397C304.663 574.141 305.241 573.362 305.655 572.639C306.069 571.915 306.42 571.308 306.465 571.253C306.575 571.183 312.593 571.985 323.66 573.548C326.977 574.019 331.722 574.694 334.242 575.04C336.761 575.385 345.254 576.587 353.115 577.71C360.975 578.833 372.619 580.459 379.005 581.331C385.381 582.234 391.107 583.019 391.73 583.129C392.362 583.208 394.936 583.569 397.456 583.915C406.818 585.195 411.949 585.98 411.978 586.089C412.139 586.673 412.152 587.99 412.044 588.262C411.955 588.472 409.263 590.097 406.041 591.908ZM454.535 398.528C449.039 403.53 440.631 411.137 435.897 415.446C431.163 419.755 417.767 431.936 406.112 442.491C394.476 453.084 381.061 465.226 376.327 469.535C371.593 473.844 367.62 477.461 367.475 477.555C367.329 477.648 366.715 477.507 366.145 477.21L365.069 476.703L365.497 474.569C365.969 472.28 366.521 469.711 367.6 464.868C368.004 463.131 368.389 461.356 368.458 460.905C368.527 460.453 369.072 458.117 369.643 455.688C370.242 453.266 370.724 451.047 370.739 450.783C370.755 450.518 371.167 448.649 371.614 446.656C372.089 444.67 372.817 441.377 373.237 439.376C374.164 434.961 374.839 431.854 375.646 428.28C376.182 425.976 377.111 421.763 379.943 408.971C380.223 407.67 380.653 405.739 380.863 404.688C381.1 403.645 381.555 401.519 381.915 399.938C382.266 398.389 382.757 396.24 382.967 395.189C383.37 393.351 383.685 391.825 384.894 386.313C385.201 384.919 386.849 377.444 388.577 369.689C390.277 361.926 391.855 354.802 392.038 353.844C392.248 352.894 392.686 350.831 393.046 349.25C393.397 347.701 394.125 344.407 394.668 341.97C396.308 334.526 396.597 333.195 397.255 330.252C397.578 328.695 397.972 326.888 398.085 326.281C398.199 325.673 398.68 323.454 399.182 321.376C399.683 319.297 400.201 316.953 400.367 316.159C401.446 310.475 401.641 309.79 402.219 309.954C402.522 310.04 403.535 309.823 404.474 309.45L406.151 308.782L410.17 313.795C414.939 319.727 414.513 319.236 433.559 342.756C441.791 352.937 450.615 363.858 453.134 367.031C455.69 370.181 460.042 375.591 462.819 379.005C465.616 382.459 467.986 385.421 468.135 385.631C468.321 385.92 467.868 386.464 466.471 387.717C465.428 388.666 460.059 393.535 454.535 398.528ZM543.487 67.376C540.751 71.1423 537.139 76.107 535.45 78.3869C533.78 80.7059 529.698 86.2775 526.42 90.7986C523.143 95.3197 519.973 99.6696 519.377 100.409C518.799 101.187 518.23 101.934 518.113 102.136C517.996 102.339 517.349 101.684 516.532 100.476C515.771 99.3843 510.667 91.9094 505.174 83.92C499.69 75.8995 494.159 67.8322 492.879 65.9537C491.626 64.0831 486.068 56.008 480.583 47.9874C468.028 29.6782 465.031 25.2587 465.066 25.1342C465.084 25.0719 465.372 24.5816 465.696 24.0679L466.318 23.134L469.32 24.189C470.964 24.7906 473.039 25.5485 473.92 25.9C474.802 26.2515 478.861 27.775 482.919 29.2984C486.978 30.8219 491.091 32.361 492.056 32.736C493.699 33.3376 510.346 39.5488 515.056 41.2911C516.241 41.7286 517.628 42.291 518.133 42.5018C518.638 42.7127 520.41 43.3846 522.035 43.9472C523.688 44.5177 525.542 45.213 526.213 45.4708C529.014 46.6034 545.955 52.9318 546.808 53.1742C547.304 53.315 547.424 53.5176 547.265 54.0782C546.956 55.2694 547.335 57.4973 548.106 58.7599C548.479 59.4379 548.732 60.1158 548.633 60.2558C548.552 60.4349 546.223 63.6097 543.487 67.376ZM231.77 1141.05C226.784 1142.99 214.844 1147.65 205.273 1151.39C195.712 1155.1 182.122 1160.43 175.067 1163.17C168.039 1165.92 156.427 1170.46 149.3 1173.25C142.172 1176.03 128.317 1181.45 118.51 1185.3L100.673 1192.28L100.077 1191.23C99.733 1190.67 99.1964 1190.04 98.8376 1189.84C98.1014 1189.39 98.0306 1189.64 99.9399 1185.54C100.764 1183.69 103.452 1177.79 105.915 1172.36C111.004 1161.15 116.119 1149.85 122.955 1134.8C131.601 1115.78 138.186 1101.29 144.887 1086.5C148.533 1078.49 153.882 1066.68 156.803 1060.27C159.687 1053.89 163.477 1045.58 165.179 1041.78C166.899 1038.03 169.919 1031.39 171.899 1027.03C173.879 1022.68 176.951 1015.85 178.779 1011.82C180.597 1007.83 182.265 1004.27 182.472 1003.95C182.734 1003.56 183.154 1003.44 183.804 1003.56C184.317 1003.64 185.177 1003.65 185.697 1003.49C186.592 1003.27 186.666 1003.33 187.058 1004.15C187.273 1004.65 191.518 1015.04 196.512 1027.3C201.479 1039.55 206.127 1050.93 206.838 1052.61C207.55 1054.3 211.523 1064.07 215.72 1074.32C219.882 1084.59 223.864 1094.34 224.575 1096.02C231.712 1113.2 241.292 1137.05 241.12 1137.24C240.993 1137.37 236.792 1139.07 231.77 1141.05ZM509.878 113.529L504.605 120.781L503.046 120.405C502.184 120.194 500.957 120.115 500.327 120.239C499.678 120.324 499.158 120.377 499.139 120.338C499.129 120.268 497.092 114.877 494.632 108.355C492.172 101.833 489.731 95.3506 489.224 93.9948C488.717 92.6391 486.671 87.2784 484.718 82.1125C482.738 76.9388 478.081 64.6435 474.336 54.7948C470.618 44.9539 466.695 34.6844 465.681 31.9729C464.63 29.2848 464.036 27.3993 464.369 27.7969C465.017 28.6544 508.139 91.5949 514.182 100.582L516.66 104.214L515.919 105.249C515.495 105.801 512.795 109.544 509.878 113.529ZM484.332 155.072C478.035 166.241 470.74 179.246 468.068 183.94C465.424 188.641 462.347 194.128 461.241 196.136C454.766 207.725 429.021 253.419 428.903 253.52C428.767 253.583 399.879 236.96 382.351 226.729C378.984 224.762 372.267 220.868 367.41 218.074C362.552 215.28 354.631 210.707 349.773 207.913L340.987 202.825L341.094 201.61C341.17 200.925 341.141 199.873 341.044 199.274C340.888 198.253 340.914 198.16 341.551 197.802C341.906 197.6 346.935 195.394 352.703 192.893C358.497 190.4 364.292 187.907 365.595 187.301C366.916 186.734 370.186 185.273 372.892 184.124C375.607 182.943 387.588 177.731 399.533 172.543C411.477 167.354 423.458 162.143 426.173 160.962C428.879 159.812 432.687 158.135 434.655 157.28C436.623 156.426 442.126 154.018 446.882 151.936C451.629 149.886 464.083 144.472 474.534 139.936C484.984 135.4 493.831 131.586 494.196 131.454C494.752 131.276 494.982 131.408 495.695 132.25C496.343 133.108 496.438 133.404 496.114 134.019C495.908 134.431 490.601 143.896 484.332 155.072ZM496.596 122.275C496.08 122.835 495.645 123.317 495.572 123.364C495.491 123.442 493.808 122.56 470.523 110.087C462.724 105.919 451.155 99.7368 444.828 96.3571C438.501 92.9774 431.015 88.9655 428.173 87.4512C425.332 85.937 421.947 84.1339 420.678 83.4704C419.382 82.7991 418.213 82.0968 418.056 81.9175C417.88 81.6992 418.871 80.096 421.524 76.3063C423.609 73.3647 432.336 60.8671 440.964 48.5095L456.658 26.0433L458.015 26.3954C458.786 26.6143 459.922 26.8026 460.59 26.8579L461.781 26.9605L473.384 57.6208C479.777 74.482 485.532 89.7148 486.198 91.4523C486.865 93.1899 489.699 100.592 492.477 107.877C495.256 115.163 497.537 121.162 497.528 121.193C497.546 121.232 497.112 121.715 496.596 122.275ZM483.087 134.12C477.074 136.754 462.314 143.161 450.269 148.389C438.234 153.585 426.863 158.533 424.987 159.38C423.119 160.195 408.76 166.448 393.089 173.236C377.409 180.056 359.051 188.033 352.291 190.992L340 196.352L339.353 195.596L338.741 194.816L348.064 181.478C353.181 174.147 363 160.109 369.831 150.304C376.69 140.507 383.919 130.141 385.922 127.277C387.926 124.414 395.597 113.433 402.979 102.842C410.361 92.2512 416.425 83.5745 416.462 83.5512C416.498 83.5278 419.247 84.9485 422.576 86.7359C425.905 88.5233 432.83 92.2075 437.943 94.9394C443.057 97.6713 449.052 100.856 451.241 102.05C453.439 103.213 457.752 105.516 460.796 107.155C463.849 108.763 466.866 110.394 467.51 110.745C468.154 111.096 471.17 112.728 474.223 114.336C477.267 115.975 483.107 119.081 487.181 121.282L494.593 125.24L494.387 126.595C494.302 127.311 494.265 128.175 494.304 128.456C494.371 128.744 494.31 129.063 494.219 129.172C494.138 129.25 489.127 131.495 483.087 134.12ZM292.065 774.556C289.405 775.752 287.163 776.731 287.053 776.7C286.971 776.676 286.526 776.146 286.045 775.538C284.293 773.223 280.683 772.634 278.118 774.228L276.918 774.998L269.498 767.403C265.442 763.255 255.259 752.822 246.897 744.253C238.534 735.684 228.472 725.353 224.499 721.33C220.562 717.283 217.346 713.946 217.41 713.93C217.492 713.853 266.205 749.37 283.712 762.287C289.397 766.461 294.75 770.338 295.625 770.923C296.481 771.469 297.127 772.023 297.064 772.14C296.974 772.248 294.733 773.328 292.065 774.556ZM319.625 640.927C313.61 644.3 307.759 647.618 306.576 648.326C304.293 649.663 300.316 651.932 254.273 677.992C237.995 687.233 222.608 695.953 220.051 697.415C213.09 701.394 213.4 701.246 212.936 700.576C212.491 699.945 212.499 699.914 216.84 693.641C217.904 692.093 225.951 680.21 234.719 667.252C254.158 638.513 273.878 609.416 284.92 593.167C289.458 586.514 293.923 579.907 294.861 578.491L296.529 575.969L298.061 576.337C299.005 576.572 300.131 576.589 300.961 576.387L302.312 576.03L316.445 605.222C324.23 621.267 330.587 634.483 330.561 634.576C330.525 634.701 325.612 637.546 319.625 640.927ZM422.941 264.246C420.251 269.001 415.196 277.998 411.678 284.201L405.31 295.518L403.88 295.314C402.332 295.11 401.3 295.287 400.163 295.94C399.344 296.414 401.943 300.249 362.952 241.613C339.131 205.798 338.517 204.816 340.275 204.911C340.54 204.92 349.243 209.883 359.612 215.892C369.972 221.932 379.733 227.567 381.27 228.441C382.834 229.323 388.989 232.889 395.024 236.354C418.696 250.082 427.639 255.248 427.777 255.287C427.997 255.35 428.149 255.023 422.941 264.246ZM362.843 476.373C362.66 476.388 361.062 467.15 359.325 455.886C357.569 444.583 355.951 434.262 355.746 432.891C355.22 429.611 354.158 422.881 353.113 415.987C352.653 412.895 352.009 408.774 351.698 406.835C351.386 404.895 350.791 401.023 350.343 398.204C349.922 395.392 348.684 387.399 347.601 380.428C345.61 367.544 345.251 365.355 342.86 349.799C342.09 344.969 340.801 336.525 339.925 331.026C338.521 322.044 338.392 320.089 339.218 320.324C339.356 320.363 341.692 319.782 344.393 319.068C352.698 316.851 355.371 316.129 366.715 313.16C372.72 311.601 378.807 309.965 380.221 309.593C385.167 308.205 390.222 306.848 393.17 306.104L396.109 305.39L396.65 306.419C397.246 307.565 398.226 308.617 399.294 309.257C399.68 309.468 399.931 309.842 399.869 310.06C399.763 310.434 396.108 327.065 395.249 331.028C394.987 332.266 394.04 336.541 393.145 340.527C392.269 344.553 391.356 348.602 391.173 349.56C390.963 350.509 390.543 352.511 390.21 353.998C389.455 357.283 387.676 365.428 387.053 368.246C386.79 369.383 386.37 371.384 386.09 372.685C385.809 373.985 385.31 376.266 384.976 377.753C384.643 379.241 384.012 382.09 383.592 384.091C383.172 386.092 382.489 389.23 382.058 391.06C381.627 392.89 381.172 395.015 381.006 395.81C380.84 396.604 380.384 398.73 379.954 400.559C379.523 402.389 379.068 404.515 378.902 405.309C378.735 406.103 378.315 408.104 377.938 409.747C377.56 411.39 377.096 413.547 376.886 414.497C376.466 416.498 376.299 417.191 372.721 433.339C371.257 439.957 369.645 447.308 369.127 449.651C368.61 451.995 367.9 455.226 367.549 456.776C367.189 458.356 366.814 460.202 366.674 460.902C366.534 461.603 366.052 463.822 365.605 465.816C365.13 467.801 364.499 470.651 364.193 472.146C363.441 475.735 363.236 476.35 362.843 476.373ZM439.878 46.8883C422.875 71.2377 420.565 74.5528 417.867 78.397C416.297 80.6771 415.998 80.9961 415.547 80.6996C415.243 80.5123 413.155 79.3806 410.875 78.1941C405.21 75.2046 401.495 73.2064 391.25 67.7037C380.388 61.8576 369.951 56.3001 366.199 54.3253C364.645 53.5135 363.173 52.7251 362.98 52.5692C362.547 52.3116 362.662 48.9784 363.117 48.7375C363.253 48.6754 367.806 47.31 373.243 45.7587C378.681 44.2075 396.472 39.0647 412.776 34.3408C429.08 29.6169 445.128 24.955 448.431 24.0087L454.426 22.279L454.966 23.3077C455.255 23.861 455.453 24.4219 455.417 24.5465C455.391 24.6399 448.397 34.7019 439.878 46.8883ZM454.343 18.486C454.213 19.2569 454.12 20.0044 454.185 20.0902C454.251 20.2772 452.062 20.9678 440.146 24.3806C435.703 25.676 427.893 27.9333 422.811 29.3837C417.72 30.8653 403.067 35.116 390.24 38.8082C377.403 42.5315 365.898 45.8591 364.694 46.2238C363.453 46.6117 362.367 46.8753 362.284 46.8518C362.183 46.7894 361.896 46.4386 361.654 46.0333L361.208 45.3007L364.983 40.1804C367.088 37.3792 377.493 23.3725 388.124 9.09362C398.754 -5.1853 411.499 -22.2967 416.404 -28.8798C421.317 -35.494 425.409 -40.8942 425.52 -40.8629C425.602 -40.8395 429.101 -34.7294 433.271 -27.3179C437.469 -19.8986 444.404 -7.56169 448.713 0.0914059L456.569 14.0026L455.568 15.5357C454.928 16.5319 454.526 17.5283 454.343 18.486ZM404.176 97.9995C398.355 106.342 392.192 115.158 390.45 117.625C385.657 124.442 356.923 165.585 353.386 170.705C337.937 193.039 337.305 193.903 336.535 193.684C335.847 193.489 335.827 193.348 336.103 191.643C336.304 190.623 336.682 188.038 336.99 185.904C338.165 177.689 338.868 172.807 340.979 158.261C342.171 149.983 343.808 138.568 344.622 132.875C346.276 121.195 348.832 103.511 349.999 95.5294C350.447 92.5937 351.242 86.8625 351.843 82.7588C352.408 78.6785 353.034 74.3801 353.215 73.2199C353.396 72.0596 353.919 68.3375 354.416 64.9113C354.886 61.4772 355.351 58.4793 355.422 58.2301C355.493 57.981 355.931 57.8024 356.406 57.8029C357.523 57.851 360.235 56.3666 361.029 55.246C361.364 54.8025 361.818 54.4603 362.01 54.5151C362.506 54.6559 366.718 56.896 408.506 79.2038C413.959 82.0996 414.824 82.6147 414.78 82.7704C414.762 82.8326 409.988 89.6885 404.176 97.9995ZM404.669 -16.1598C371.512 28.4045 360.049 43.7261 359.722 43.936C359.495 44.1071 359.546 43.7177 359.922 42.8147C360.253 42.0674 361.35 39.1481 362.402 36.2833C363.445 33.4496 364.596 30.3435 364.944 29.4326C366.264 25.9373 366.746 24.6606 367.485 22.582C368.198 20.5968 368.822 18.9231 369.982 15.887C370.232 15.2175 370.803 13.7307 371.231 12.5396C371.65 11.3796 372.23 9.86159 372.48 9.19209C372.729 8.5226 373.301 7.03571 373.728 5.84462C374.147 4.68467 374.763 3.04207 375.065 2.18572C375.387 1.36833 377.634 -4.65711 380.06 -11.2042C382.477 -17.7201 384.742 -23.8078 385.09 -24.7186C385.679 -26.2678 387.524 -31.2968 388.933 -35.1036C390.564 -39.5877 392.411 -44.5155 393.972 -48.6492C394.89 -51.1482 396.04 -54.2543 396.513 -55.4999C397.511 -58.2791 399.652 -64.0321 400.304 -65.698C400.553 -66.3675 401.151 -67.9478 401.596 -69.2012C402.773 -72.4008 403.016 -72.8366 403.567 -72.6802C403.842 -72.602 404.801 -72.7333 405.696 -72.9503L407.348 -73.3222L415.949 -58.055L424.531 -42.8267L419.816 -36.4926C417.224 -33.0221 410.404 -23.8868 404.669 -16.1598Z" fill="url(#paint0_linear_202_62)"/>
<defs>
<linearGradient id="paint0_linear_202_62" x1="182.879" y1="533.882" x2="832.731" y2="718.537" gradientUnits="userSpaceOnUse">
<stop stop-color="white"/>
<stop offset="1" stop-color="#460085"/>
</linearGradient>
</defs>
</svg>
