<svg width="503" height="1024" viewBox="0 0 503 1024" fill="none" xmlns="http://www.w3.org/2000/svg">
<path d="M501.867 1188.82C500.183 1184.83 496.188 1183.04 492.678 1184.64C491.729 1185.07 494.156 1188.09 474.115 1161.66C468.703 1154.55 462.529 1146.41 460.401 1143.58C458.249 1140.78 451.313 1131.62 444.98 1123.23C438.619 1114.86 430.743 1104.49 427.453 1100.19C424.164 1095.88 420.26 1090.73 418.747 1088.74C417.262 1086.75 413.512 1081.8 410.411 1077.74C407.309 1073.67 402.119 1066.83 398.859 1062.52C389.282 1049.93 382.613 1041.13 371.403 1026.36C365.61 1018.74 358.565 1009.46 355.754 1005.72C352.92 1002.01 350.597 998.701 350.544 998.372C350.521 998.038 350.333 997.797 350.158 997.825C349.954 997.858 349.244 997.16 348.601 996.317L347.389 994.72L347.565 996.01C347.702 996.866 347.644 997.247 347.389 997.153C346.11 996.816 279.839 979.531 267.112 976.226C258.721 974.053 249.92 971.743 247.61 971.132C245.3 970.522 239.122 968.907 233.881 967.548L224.338 965.086L224.075 963.439C223.696 961.067 222.894 959.607 221.277 958.277C220.284 957.49 219.343 957.032 218.119 956.856L216.368 956.561L215.383 952.833C214.877 950.785 214.367 948.907 214.261 948.619C214.185 948.328 213.839 947.099 213.546 945.828C213.05 943.846 212.591 942.095 211.168 936.747C210.965 936.036 208.362 926.112 205.401 914.692C196.611 881.023 196.086 879.046 195.833 878.208C195.701 877.756 195.394 876.589 195.149 875.614C194.194 871.881 188.503 850.118 188.218 849.082C187.949 848.145 187.981 847.971 188.898 847.352C192.51 844.882 192.871 838.911 189.626 835.443C188.221 833.944 186.562 833.297 184.49 833.425L182.68 833.512L183.172 810.963C183.461 798.55 183.797 784.373 183.903 779.422C184.008 774.472 184.208 766.365 184.303 761.349C184.855 737.675 184.963 734.043 184.975 732.622C184.989 731.775 185.139 725.229 185.335 718.035C185.501 710.845 185.742 701.312 185.834 696.837C185.926 692.362 186.111 685.101 186.219 680.725C186.327 676.349 186.48 669.634 186.526 665.809C186.68 658.351 186.802 653.499 187.003 645.966C187.093 643.35 187.28 634.974 187.431 627.313C187.587 619.686 187.823 609.376 187.929 604.426C188.035 599.476 188.326 586.893 188.571 576.447C188.786 566.006 189.051 555.691 189.098 553.555C189.176 549.927 189.3 545.65 189.538 533.853L189.672 529.27L191.335 528.633C193.442 527.789 194.652 526.379 195.352 523.835C196.424 519.879 194.499 515.693 190.997 514.36C188.287 513.307 185.745 514.051 183.71 516.471L182.5 517.881L180.264 516.988C179.046 516.473 175.308 514.975 171.957 513.652C168.63 512.292 162.593 509.878 158.538 508.262C154.511 506.642 149.531 504.667 147.521 503.873C145.505 503.046 140.114 500.934 135.545 499.097C130.975 497.259 125.579 495.114 123.569 494.32C121.558 493.526 117.953 492.109 115.585 491.136C111.074 489.289 79.7737 476.788 73.4242 474.289C71.4136 473.495 69.3342 472.645 68.7911 472.428C68.272 472.173 66.0998 471.303 63.9966 470.491C59.8483 468.856 55.3821 467.103 51.8643 465.672C50.6459 465.157 44.5162 462.724 38.2885 460.239C16.538 451.55 -6.65097 442.281 -14.5713 439.121C-18.95 437.354 -24.6003 435.114 -27.0903 434.127L-31.5909 432.346L-31.497 431.25C-31.3092 429.057 -32.6152 426.123 -34.4926 424.666L-35.6524 423.77L-35.0588 421.31C-34.3454 418.29 -30.8291 403.436 -29.8124 399.32C-29.4185 397.669 -28.2553 392.786 -27.2171 388.43C-26.2082 384.079 -24.6592 377.682 -23.8101 374.201C-22.9903 370.725 -21.7659 365.664 -21.127 362.926C-19.1812 354.708 -18.7925 353.024 -17.3366 346.98C-16.562 343.781 -15.7235 340.235 -15.46 339.077C-14.5842 335.389 -13.1283 329.345 -12.21 325.549L-11.3051 321.857L-9.35169 321.544C-6.32478 321.027 -4.65079 319.34 -3.91071 316.113C-2.96288 311.941 -5.78024 307.221 -9.61952 306.585L-10.8198 306.371L-18.4969 258.333L-26.174 210.295L-24.9567 209.492C-20.613 206.737 -20.3359 200.239 -24.4134 196.802C-26.5925 194.954 -28.927 194.753 -31.9097 196.108C-32.6309 196.46 -30.7859 198.463 -49.872 176.137C-57.6298 167.071 -69.1805 153.543 -75.5408 146.112C-81.9011 138.681 -89.2142 130.152 -91.7578 127.146C-94.3013 124.14 -98.6024 119.117 -101.313 116.002C-105.728 110.828 -109.327 106.639 -124.157 89.2426C-126.725 86.274 -131.875 80.2379 -135.658 75.8415C-142.457 67.9065 -142.532 67.817 -142.083 67.0695C-139.818 63.0921 -141.771 57.4234 -145.967 55.8639C-149.81 54.4508 -153.489 56.6943 -154.444 61.0031L-154.796 62.546L-157.189 62.7258C-158.522 62.8036 -160.356 62.9278 -161.241 63.0017C-162.132 63.0426 -163.99 63.2044 -165.376 63.3245C-166.762 63.4447 -168.479 63.5502 -169.219 63.6008C-169.958 63.6514 -171.734 63.7662 -173.207 63.9003C-174.652 64.0298 -176.602 64.1726 -177.487 64.2464C-178.879 64.3337 -190.752 65.2513 -198.305 65.884C-199.604 65.9901 -201.263 66.0863 -202.003 66.1369C-202.747 66.1546 -207.178 66.4911 -211.901 66.8741C-216.595 67.2526 -221.318 67.6356 -222.378 67.7375C-223.443 67.8064 -225.423 67.9538 -226.809 68.074C-228.195 68.1941 -229.971 68.309 -230.798 68.3735C-231.596 68.4334 -234.402 68.6455 -236.999 68.8578C-243.434 69.3793 -243.644 69.379 -243.786 68.4894C-243.999 67.3409 -245.328 65.3907 -246.562 64.4052C-248.065 63.2264 -249.721 62.7815 -251.471 63.061L-252.899 63.2894L-257.633 51.8142C-260.261 45.4763 -263.124 38.6015 -263.996 36.5108C-264.868 34.4201 -269.235 23.9337 -273.697 13.226C-278.13 2.51368 -283.816 -11.1746 -286.333 -17.1924C-288.82 -23.2149 -291.136 -28.7242 -291.432 -29.454C-291.923 -30.6594 -292.066 -30.8055 -292.824 -30.6844C-293.32 -30.6052 -293.673 -30.3799 -293.641 -30.1822C-293.61 -29.9845 -290.43 -22.2481 -286.589 -12.9954C-279.119 4.93551 -268.809 29.7788 -266.452 35.5517C-265.635 37.4823 -263.354 42.9633 -261.363 47.7473C-254.149 65.0096 -254.451 64.2469 -254.984 64.8389C-255.262 65.1538 -255.557 65.3698 -255.708 65.3601C-256.333 65.1897 -308.987 27.2118 -309.045 26.8493C-309.082 26.6187 -308.653 24.2524 -308.067 21.557C-307.505 18.8992 -306.615 14.7362 -306.133 12.3276C-304.428 3.91194 -298.486 -24.576 -297.935 -26.928C-297.639 -28.2592 -297.416 -29.4776 -297.442 -29.6423C-297.468 -29.8071 -297.927 -29.869 -298.451 -29.7851L-299.384 -29.636L-302.53 -14.3335C-309.053 17.2545 -310.832 25.5807 -311.037 25.6133C-311.211 25.6412 -313.73 23.915 -320.12 19.2933C-321.338 18.4068 -326.2 14.9263 -330.924 11.559C-335.648 8.19166 -339.596 5.37613 -339.665 5.31956C-339.734 5.26298 -339.654 4.64196 -339.467 3.93641C-339.268 3.12736 -339.282 1.91328 -339.549 0.435287L-339.912 -1.83811L-335.501 -5.4827C-333.071 -7.49287 -330.483 -9.62983 -329.775 -10.2499C-329.032 -10.8416 -323.884 -15.1109 -318.282 -19.7229L-308.134 -28.0688L-309.957 -27.8787C-312.043 -27.6467 -310.635 -28.7503 -328.817 -13.6129C-330.268 -12.4011 -333.676 -9.59254 -336.371 -7.37104L-341.288 -3.34139L-342.125 -4.08621C-345.22 -6.80156 -349.922 -5.91494 -351.821 -2.26637C-352.825 -0.315123 -352.988 1.09631 -352.471 3.58171C-351.867 6.42487 -350.562 8.04098 -348.152 8.90593L-346.475 9.48267L-346.199 12.1418C-346.055 13.6055 -345.833 16.3069 -345.689 18.1423C-345.545 19.9777 -345.333 22.6132 -345.234 23.9827C-345.105 25.3476 -344.904 27.9172 -344.776 29.6537C-344.648 31.3903 -344.373 34.7929 -344.174 37.1602C-343.97 39.5604 -343.774 42.097 -343.717 42.8312C-343.659 43.5654 -343.484 45.9702 -343.311 48.1728C-343.11 50.3706 -342.924 52.8414 -342.88 53.679C-342.77 55.1144 -342.31 60.9878 -341.938 65.1858C-341.852 66.2871 -341.603 69.525 -341.389 72.3628C-341.175 75.2006 -340.725 81.0081 -340.353 85.2061C-340.005 89.4418 -339.412 97.0847 -339.009 102.224C-338.577 107.358 -338.153 112.629 -338.041 113.895C-337.923 115.194 -337.821 116.766 -337.779 117.402C-337.701 118.639 -337.51 121.143 -337.204 124.743C-337.102 125.943 -336.99 127.581 -336.916 128.414C-336.843 129.247 -336.705 131.05 -336.576 132.414C-336.128 137.276 -336.123 137.309 -337.459 137.928C-340.079 139.124 -341.672 142.251 -341.416 145.724C-341.168 148.962 -338.37 152.062 -335.248 152.51C-334.61 152.576 -333.974 152.813 -333.879 153.034C-333.704 153.378 -329.941 165.887 -326.566 177.275C-325.866 179.596 -323.585 187.138 -321.496 194.035C-319.402 200.965 -316.821 209.439 -315.791 212.89C-314.762 216.341 -313.478 220.63 -312.926 222.4C-312.403 224.175 -311.643 226.689 -311.281 228.017C-310.925 229.311 -310.053 232.145 -309.409 234.306C-308.741 236.43 -307.412 240.813 -306.454 244.005C-305.495 247.197 -302.112 258.448 -298.903 268.985L-293.117 288.165L-294.295 289.4C-297.386 292.699 -296.616 298.827 -292.826 301.397C-290.117 303.195 -286.748 302.758 -284.602 300.286L-283.79 299.379L-270.106 307.734C-251.488 319.086 -240.095 326.016 -226.313 334.423C-219.888 338.33 -210.412 344.114 -205.208 347.303C-200.009 350.46 -194.079 354.074 -192.053 355.338C-188.944 357.206 -188.33 357.682 -188.415 358.271C-188.445 358.647 -188.33 360.115 -188.133 361.537L-187.751 364.111L-190.122 366.112C-191.414 367.197 -194.894 370.118 -197.883 372.556C-200.867 375.026 -204.299 377.873 -205.533 378.948C-206.771 379.991 -209.49 382.25 -211.601 384.007C-231.64 400.623 -236.412 404.63 -236.396 404.729C-236.38 404.827 -225.73 420.764 -219.221 430.434C-216.628 434.311 -213.054 439.653 -211.249 442.338C-209.445 445.023 -205.91 450.304 -203.391 454.091C-200.843 457.874 -197.223 463.31 -195.334 466.15C-193.44 469.024 -191.238 472.321 -190.426 473.476C-189.637 474.667 -187.6 477.687 -185.915 480.188C-184.224 482.723 -181.75 486.416 -180.411 488.432C-179.072 490.448 -175.617 495.606 -172.751 499.879C-169.886 504.151 -166.43 509.309 -165.091 511.326C-163.723 513.337 -161.675 516.422 -160.495 518.194C-159.315 519.965 -155.394 525.792 -151.809 531.2C-148.2 536.57 -145.229 541.13 -145.202 541.294C-145.176 541.459 -145.447 542.009 -145.787 542.503C-146.848 544.092 -147.056 545.409 -146.656 547.913C-146.24 550.516 -145.682 551.575 -143.765 553.094L-142.531 554.079L-143.679 559.804C-144.343 562.951 -146.215 572.373 -147.902 580.719C-149.559 589.059 -152.029 601.483 -153.392 608.29C-154.786 615.101 -156.203 622.322 -156.597 624.345C-156.992 626.368 -158.111 632.088 -159.136 637.084L-160.945 646.158L-162.925 646.677C-165.197 647.243 -165.868 647.722 -167.121 649.612C-168.886 652.225 -168.678 656.145 -166.619 658.925C-166.09 659.618 -165.214 660.424 -164.694 660.678C-164.146 660.929 -163.757 661.306 -163.784 661.513C-163.834 661.757 -164.264 664.495 -164.723 667.61C-165.216 670.696 -167.268 683.492 -169.308 695.982C-171.319 708.468 -173.861 724.181 -174.95 730.842C-176.033 737.537 -179.028 756.025 -181.626 771.949C-184.195 787.869 -186.705 803.408 -187.204 806.461C-188.479 814.572 -188.301 814.003 -189.207 813.945C-189.631 813.911 -190.583 814.131 -191.314 814.417C-195.572 816.212 -196.763 822.417 -193.638 826.445C-190.883 830.026 -185.612 829.893 -183.183 826.194L-182.413 825.023L-173.091 828.534C-167.971 830.453 -160.903 833.142 -157.401 834.474C-153.899 835.807 -143.237 839.847 -133.69 843.457C-124.143 847.067 -111.412 851.892 -105.367 854.17L-94.3866 858.328L-94.1898 860.121C-93.9301 862.681 -93.0416 864.499 -91.355 865.885C-89.8457 867.097 -87.5249 867.774 -86.0935 867.376C-85.6084 867.231 -85.2958 867.316 -85.1504 867.665C-83.2681 871.959 -32.5398 989.751 -8.0812 1046.63C2.72319 1071.76 11.693 1092.53 11.857 1092.81C12.0316 1093.15 11.8377 1093.62 11.2088 1094.37C10.7338 1094.95 10.1018 1096.23 9.83575 1097.19C9.50577 1098.49 9.24824 1098.94 8.84816 1098.87C8.57522 1098.84 7.41183 1098.86 6.25369 1098.91C5.12999 1098.99 1.23689 1099.14 -2.35939 1099.27C-5.95565 1099.41 -13.2409 1099.66 -18.5599 1099.87C-23.884 1100.04 -29.3539 1100.24 -30.7559 1100.26C-32.1525 1100.32 -34.6198 1100.41 -36.2549 1100.46C-37.8901 1100.52 -39.7002 1100.61 -40.2991 1100.6C-40.8636 1100.63 -43.9537 1100.75 -47.1365 1100.85C-50.3141 1100.99 -53.4333 1101.11 -54.0905 1101.12C-54.7425 1101.15 -60.1594 1101.31 -66.1063 1101.52C-72.0533 1101.72 -77.0276 1101.84 -77.1017 1101.75C-77.205 1101.67 -77.2155 1101.6 -77.0989 1101.59C-76.7199 1101.52 -78.2539 1098.66 -79.1671 1097.62C-79.7045 1097.07 -80.8962 1096.35 -81.781 1096.05C-88.0383 1093.94 -92.7154 1101.34 -88.9906 1107.44C-88.1017 1108.89 -87.4133 1109.45 -84.8997 1110.77C-84.4733 1111.01 -84.4162 1112.11 -84.3471 1119.47C-84.2458 1131.52 -84.1074 1148.66 -83.8658 1175.99C-83.7471 1189.08 -83.6004 1203.28 -83.5783 1207.54C-83.5511 1211.82 -83.4742 1219.41 -83.4238 1224.41C-83.3682 1229.43 -83.3136 1238.01 -83.2478 1243.47C-83.2111 1248.94 -83.1079 1259.13 -83.0436 1266.08C-82.9794 1273.03 -82.9049 1282.85 -82.8545 1287.84C-82.7988 1292.87 -82.7256 1301.37 -82.6756 1306.73C-82.5617 1319.42 -82.5685 1320.87 -82.6641 1321.02C-82.6827 1321.09 -83.2634 1321.39 -83.9368 1321.67C-86.3389 1322.73 -88.0642 1325.4 -88.0698 1328.17L-88.0843 1329.39L-89.8867 1329.71C-90.8488 1329.87 -92.1212 1330.14 -92.6646 1330.29C-93.2133 1330.41 -96.3941 1331.09 -99.755 1331.76C-103.087 1332.43 -106.302 1333.08 -106.846 1333.23C-107.389 1333.39 -110.575 1334.03 -113.936 1334.71C-117.273 1335.34 -120.221 1335.98 -120.443 1336.08C-120.666 1336.19 -123.677 1336.8 -127.096 1337.48C-130.521 1338.13 -133.906 1338.84 -134.624 1339.03C-135.343 1339.21 -138.057 1339.81 -140.694 1340.33C-143.332 1340.86 -146.722 1341.53 -148.222 1341.87C-149.722 1342.22 -152.733 1342.83 -154.875 1343.28C-157.017 1343.72 -160.285 1344.41 -162.106 1344.8L-165.427 1345.54L-166.03 1344.38C-166.829 1342.75 -169.069 1341.08 -170.792 1340.78C-173.558 1340.31 -175.957 1341.58 -177.473 1344.25C-179.523 1347.89 -178.198 1352.81 -174.609 1354.88C-173.486 1355.54 -173.229 1355.84 -173.167 1356.61C-173.123 1357.44 -173.054 1357.5 -172.15 1357.36C-171.392 1357.23 -171.209 1357.07 -171.293 1356.54C-171.377 1356.02 -171.194 1355.85 -170.29 1355.71C-169.707 1355.61 -168.965 1355.39 -168.631 1355.24C-168.215 1355.04 -167.955 1355.16 -167.593 1355.75C-167.22 1356.4 -166.902 1356.52 -166.086 1356.39C-165.532 1356.3 -165.076 1356.16 -165.086 1356.09C-165.102 1355.99 -165.459 1355.44 -165.909 1354.87L-166.711 1353.78L-165.882 1352.23C-165.144 1350.86 -164.724 1349.01 -164.908 1347.85C-164.955 1347.56 -164.277 1347.31 -162.562 1347C-161.25 1346.79 -159.977 1346.52 -159.749 1346.45C-159.527 1346.35 -156.725 1345.73 -153.539 1345.09C-150.353 1344.44 -147.283 1343.82 -146.74 1343.66C-146.191 1343.54 -143.063 1342.91 -139.79 1342.25C-136.516 1341.59 -133.132 1340.88 -132.267 1340.68C-131.403 1340.47 -128.397 1339.82 -125.614 1339.27C-122.831 1338.73 -119.621 1338.05 -118.524 1337.8C-117.397 1337.56 -114.275 1336.89 -111.579 1336.36C-108.854 1335.82 -105.936 1335.18 -105.072 1334.98C-102.941 1334.47 -92.4309 1332.32 -89.7485 1331.89C-87.5963 1331.51 -87.5963 1331.51 -87.1468 1332.45C-86.9115 1332.99 -86.234 1333.86 -85.6913 1334.45L-84.6854 1335.5L-85.9163 1339.22C-87.4796 1344.03 -87.482 1343.82 -86.2867 1343.63C-85.3537 1343.48 -85.2634 1343.3 -84.1362 1339.88L-82.9478 1336.27L-81.8613 1336.34C-81.2572 1336.38 -80.6769 1336.45 -80.5789 1336.5C-80.4517 1336.55 -80.1269 1337.65 -79.7997 1338.95C-78.9763 1342.23 -78.8811 1342.45 -77.8899 1342.29C-77.3359 1342.2 -77.0468 1341.95 -77.0172 1341.58C-76.9901 1341 -76.961 1340.99 -76.8423 1341.55C-76.7447 1341.97 -76.4612 1342.06 -75.7323 1341.95L-74.7411 1341.79L-76.071 1338.89C-76.806 1337.29 -77.4325 1335.8 -77.4641 1335.6C-77.4957 1335.4 -77.2276 1335.02 -76.8907 1334.7C-76.2542 1334.19 -76.0238 1334.32 -71.8876 1337.38C-67.7806 1340.44 -67.4813 1340.63 -66.2859 1340.44C-65.6154 1340.33 -65.0719 1340.18 -65.0824 1340.11C-65.0982 1340.01 -74.9435 1332.66 -75.1686 1332.56C-75.203 1332.54 -75.0937 1331.91 -74.8888 1331.13C-74.6787 1330.39 -74.5715 1329.19 -74.6529 1328.5C-74.7971 1327.03 -75.7013 1327.55 -65.9659 1323.36C-62.1878 1321.74 -49.6049 1316.28 -38.0003 1311.25C-26.3957 1306.22 -13.6192 1300.66 -9.61842 1298.94C3.13945 1293.46 13.6252 1288.91 22.5415 1285.02C27.3217 1282.94 38.9502 1277.87 48.4046 1273.79C57.8538 1269.68 68.1169 1265.23 71.1632 1263.9C74.2095 1262.57 76.874 1261.47 77.0781 1261.44C77.253 1261.41 77.6316 1261.72 77.875 1262.12C78.4067 1263.01 78.8793 1262.23 63.8698 1284.5C58.4791 1292.49 52.1223 1301.92 49.7361 1305.51C47.3446 1309.07 43.6287 1314.63 41.4523 1317.85L37.5108 1323.68L38.7511 1323.58C39.904 1323.5 40.087 1323.34 41.3398 1321.45C42.0857 1320.31 50.2076 1308.27 59.3672 1294.68C68.556 1281.08 76.8585 1268.67 77.8963 1267.12C79.0961 1265.27 79.8735 1264.33 80.2153 1264.41C80.5915 1264.52 80.5643 1265.1 79.9174 1267.98C75.5796 1287.79 68.9859 1318.38 69.028 1318.64C69.0491 1318.78 69.4625 1318.74 69.9768 1318.59C71.0636 1318.28 70.5713 1320.26 76.7816 1291.39C79.008 1281 81.189 1270.88 81.623 1268.92L82.4271 1265.34L84.0651 1265.12C86.1404 1264.82 87.8642 1263.63 88.8599 1261.82C89.2793 1261.07 89.6855 1260.43 89.773 1260.42C89.8604 1260.41 98.802 1262.66 109.643 1265.39C120.49 1268.15 132.772 1271.29 136.977 1272.34C141.181 1273.39 147.193 1274.9 150.372 1275.71C153.556 1276.55 159.66 1278.07 163.929 1279.15C168.226 1280.22 175.708 1282.13 180.596 1283.34L189.479 1285.61L189.737 1287.22C189.908 1288.11 190.164 1289.15 190.344 1289.52C190.653 1290.15 190.274 1290.58 186.186 1294.38C183.711 1296.67 181.03 1299.16 180.25 1299.89L178.854 1301.26L181.77 1300.79L184.685 1300.33L188.445 1296.35L192.199 1292.34L193.414 1293.02C194.1 1293.38 195.176 1293.75 195.82 1293.85L196.951 1294.01L197.288 1296.12L197.63 1298.26L198.505 1298.12C199.351 1297.98 199.351 1297.98 199.085 1295.76L198.825 1293.57L199.918 1292.93C200.493 1292.6 201.231 1291.97 201.493 1291.56L202 1290.8L206.55 1293.46C211.013 1296.12 211.106 1296.14 212.518 1295.81L213.96 1295.48L211.46 1294.06C210.078 1293.26 208.846 1292.48 208.738 1292.36C208.653 1292.21 210.417 1292.77 212.706 1293.62C216.619 1295.09 216.99 1295.17 218.827 1294.87L220.804 1294.52L219.694 1294.13C219.087 1293.88 215.14 1292.39 210.91 1290.8L203.265 1287.86L203.055 1285.8C202.934 1284.67 202.917 1283.63 203.012 1283.48C203.084 1283.37 209.022 1279.54 216.192 1275.02C223.363 1270.5 230.021 1266.32 230.997 1265.69C234.225 1263.62 276.797 1236.65 293.307 1226.2C302.27 1220.55 326.381 1205.27 346.911 1192.29C373.825 1175.29 384.297 1168.78 384.572 1169.01C384.847 1169.24 384.855 1169.47 384.616 1169.85C384.42 1170.12 375.813 1182.3 365.473 1196.93C355.162 1211.55 342.088 1230.03 336.459 1238.03C330.825 1245.99 321.907 1258.67 316.594 1266.21C311.304 1273.71 306.79 1280.07 306.599 1280.37C306.312 1280.82 306.439 1280.87 307.605 1280.68L308.946 1280.47L323.92 1259.29C339.937 1236.59 351.1 1220.75 372.693 1190.1C380.204 1179.47 386.414 1170.81 386.542 1170.86C386.634 1170.88 387.27 1171.11 387.964 1171.34C389.069 1171.7 389.177 1171.82 389.155 1172.81C389.162 1173.41 389.258 1175.69 389.343 1177.91C389.428 1180.13 389.663 1186.65 389.858 1192.36C390.294 1205.94 390.766 1218.81 391.35 1235.37C392.024 1254.56 392.4 1265.14 392.393 1266.22C392.408 1267.06 392.477 1267.12 393.352 1266.98L394.314 1266.83L394.144 1262.39C394.051 1259.94 393.79 1253.26 393.59 1247.51C393.199 1236.09 392.839 1225.6 392.059 1203.33C391.792 1195.29 391.478 1186.22 391.378 1183.16C391.278 1180.1 391.179 1176.3 391.101 1174.69C391.008 1172.24 391.075 1171.72 391.512 1171.65C391.775 1171.61 392.196 1171.44 392.443 1171.3C392.743 1171.12 393.171 1171.56 394.031 1173.01C394.706 1174.05 396.618 1177.22 398.351 1180.02C402.026 1185.99 400.854 1184.08 414.965 1207.27C421.163 1217.43 426.954 1226.91 427.814 1228.36C428.703 1229.81 429.88 1231.75 430.446 1232.67C431.013 1233.59 433.56 1237.75 436.108 1241.9C438.626 1246.06 441.944 1251.48 443.449 1253.97C446.142 1258.48 446.182 1258.54 447.144 1258.38C447.64 1258.31 448.066 1258.17 448.051 1258.07C448.035 1257.97 445.715 1254.12 442.913 1249.5C440.082 1244.88 435.056 1236.63 431.723 1231.11C428.36 1225.6 424.421 1219.1 422.892 1216.64C410.958 1197.16 395.411 1171.54 395.482 1171.42C395.578 1171.27 403.773 1172.97 419.911 1176.47C425.543 1177.67 434.027 1179.49 438.791 1180.48C443.56 1181.51 456.714 1184.31 468.044 1186.72L488.638 1191.17L489.129 1193.12C489.4 1194.26 489.966 1195.55 490.427 1196.19L491.263 1197.3L483.335 1210.94C479.005 1218.46 474.856 1225.61 474.155 1226.83C473.454 1228.06 469.31 1235.24 464.979 1242.76C460.62 1250.28 457.073 1256.53 457.089 1256.63C457.105 1256.72 457.611 1256.71 458.223 1256.61C459.302 1256.44 459.498 1256.17 466.242 1244.49C470.038 1237.93 473.548 1231.83 474.063 1230.94C492.817 1198.24 492.86 1198.13 494.165 1199C494.234 1199.06 493.581 1210.69 492.705 1224.85C491.834 1239.04 491.138 1250.78 491.169 1250.98C491.201 1251.17 491.606 1251.28 492.073 1251.2C492.831 1251.08 492.897 1250.94 493.058 1248.95C493.282 1245.67 496.105 1199.54 496.078 1199.37C496.063 1199.27 496.577 1199.12 497.218 1199.02C500.455 1198.5 502.7 1194.97 502.331 1190.97C502.273 1190.24 502.057 1189.26 501.867 1188.82ZM489.858 1187.39C489.558 1187.95 489.274 1188.6 489.247 1188.81C489.212 1189.15 485.718 1188.43 462.747 1183.51C460.272 1183 444.389 1179.59 427.456 1175.98C410.523 1172.36 396.309 1169.3 395.903 1169.19L395.156 1169.01L395.653 1168.19C396.826 1166.17 396.758 1162.57 395.494 1160.27C394.415 1158.38 392.593 1157.08 390.563 1156.73C389.3 1156.5 388.722 1156.25 388.664 1155.89C388.611 1155.56 386.854 1148.3 384.74 1139.76C380.255 1121.41 379.286 1117.41 378.624 1114.58C378.347 1113.41 377.98 1112.05 377.832 1111.5C377.69 1110.98 377.318 1109.58 377.041 1108.41C376.763 1107.24 375.969 1103.95 375.273 1101.09C374.576 1098.23 373.389 1093.42 372.66 1090.36C371.908 1087.34 371.185 1084.31 370.998 1083.7C370.647 1082.44 370.201 1080.58 368.795 1074.59C368.256 1072.34 367.699 1070.17 367.567 1069.72C367.435 1069.27 367.108 1067.97 366.831 1066.79C364.607 1057.55 363.599 1053.49 363.272 1052.19C363.052 1051.38 362.483 1048.94 361.96 1046.79C361.438 1044.65 360.68 1041.59 360.271 1039.97C359.366 1036.36 358.804 1034.15 358.121 1031.19C357.833 1029.95 357.424 1028.32 357.25 1027.61C357.047 1026.9 356.503 1024.62 355.996 1022.57C355.49 1020.52 354.88 1018.02 354.635 1017.05C353.218 1011.36 351.234 1003.06 351.292 1003.05C351.321 1003.05 353.888 1006.39 357 1010.52C360.107 1014.62 368.142 1025.23 374.879 1034.08C381.617 1042.94 389.538 1053.4 392.491 1057.29C395.445 1061.17 402.341 1070.28 407.827 1077.47C413.313 1084.67 423.02 1097.52 429.422 1105.95C435.828 1114.43 443.744 1124.85 447.004 1129.16C455.587 1140.39 461.186 1147.74 473.381 1163.8C479.293 1171.61 485.507 1179.81 487.208 1182.04C488.91 1184.27 490.35 1186.16 490.36 1186.23C490.4 1186.29 490.153 1186.8 489.858 1187.39ZM386.336 1157.41C385.92 1157.61 385.477 1157.65 385.339 1157.53C385.202 1157.42 382.407 1154.15 379.103 1150.32C372.491 1142.63 368.823 1138.38 356.825 1124.48C352.386 1119.35 347.28 1113.41 345.443 1111.27C343.641 1109.16 338.278 1102.92 333.549 1097.45C328.819 1091.99 321.482 1083.5 317.26 1078.6C313.038 1073.7 308.885 1068.86 308.012 1067.88C307.133 1066.87 306.411 1065.91 306.379 1065.71C306.347 1065.51 315.879 1050.88 327.585 1033.19L348.814 1001.01L349.357 1003.29C349.674 1004.53 350.17 1006.51 350.442 1007.65C352.075 1014.31 356.149 1030.83 356.556 1032.62C357.002 1034.47 357.901 1038.05 359.063 1042.69C359.253 1043.51 359.646 1045.03 359.907 1046.11C360.984 1050.6 363.868 1062.47 364.235 1063.83C364.424 1064.64 365.029 1067.12 365.567 1069.36C366.105 1071.61 367.053 1075.48 367.691 1077.98C368.33 1080.48 369.077 1083.46 369.354 1084.64C369.631 1085.81 371.019 1091.5 372.457 1097.32C373.866 1103.14 375.407 1109.42 375.858 1111.3C376.642 1114.52 378.782 1123.24 379.671 1126.75C380.898 1131.62 383.516 1142.38 384.054 1144.63C384.403 1146.06 385.11 1148.99 385.661 1151.13C387.184 1157.1 387.174 1157.04 386.336 1157.41ZM383.747 1159.17C383.194 1158.89 375.058 1154.01 357.526 1143.46C349.517 1138.63 339.758 1132.75 335.854 1130.4C300.795 1109.35 294.785 1105.61 294.905 1105.05C294.975 1104.73 294.947 1103.62 294.871 1102.59C294.695 1100.56 293.992 1098.78 292.857 1097.47C291.899 1096.34 289.589 1095.36 287.914 1095.35L286.536 1095.34L295.754 1081.36L304.949 1067.43L305.881 1068.39C306.389 1068.95 309.311 1072.27 312.328 1075.81C315.375 1079.34 321.725 1086.71 326.455 1092.17C339.376 1107.17 343.011 1111.38 348.333 1117.56C351.015 1120.68 360.144 1131.22 368.616 1141.01C377.089 1150.81 384.042 1158.96 384.063 1159.09C384.118 1159.25 383.943 1159.28 383.747 1159.17ZM382.966 1161.77C382.751 1161.73 357.297 1157.18 326.392 1151.65C295.493 1146.15 270.155 1141.58 270.121 1141.55C269.851 1141.36 285.768 1109.99 286.081 1110.08C289.029 1110.75 291.253 1110.26 292.97 1108.47L293.946 1107.47L316.015 1120.77C328.158 1128.08 343.18 1137.14 349.398 1140.88C355.587 1144.62 365.744 1150.73 371.962 1154.47C381.859 1160.46 384.431 1162.14 382.966 1161.77ZM375.564 1171.77C371.191 1174.53 359.865 1181.68 350.39 1187.68C340.915 1193.69 323.511 1204.72 311.698 1212.18C299.913 1219.64 283.349 1230.13 274.903 1235.46C266.457 1240.8 253.257 1249.13 245.569 1253.97C237.881 1258.82 230.851 1263.28 229.958 1263.87C229.069 1264.48 222.363 1268.73 215.086 1273.34L201.803 1281.71L201.163 1281.07C200.803 1280.69 200.583 1280.25 200.668 1280.04C200.758 1279.85 203.021 1275.3 205.693 1269.94C222.893 1235.56 228.332 1224.69 230.78 1219.81C234.304 1212.86 234.841 1211.73 253.011 1175.37C261.278 1158.81 268.286 1144.85 268.567 1144.37L269.112 1143.47L274.162 1144.38C291.151 1147.41 382.346 1163.69 382.624 1163.75C382.81 1163.78 383.071 1164.49 383.203 1165.31L383.464 1166.75L375.564 1171.77ZM326.572 1031.16C316.846 1045.89 307.957 1059.31 306.829 1061.04L304.788 1064.17L292.859 1050.33C286.287 1042.7 276.08 1030.85 270.17 1023.99C258.349 1010.27 248.582 998.921 233.173 981.076C223.49 969.885 223.075 969.343 223.298 968.496C223.463 968.031 223.739 967.514 223.928 967.382C224.286 967.19 227.611 967.976 240.163 971.309C243.348 972.151 250.903 974.154 256.949 975.688C263 977.255 270.458 979.206 273.486 980.006C276.515 980.806 286.312 983.362 295.23 985.654C304.153 987.979 319.19 991.894 328.611 994.342C338.067 996.818 346.179 998.934 346.677 999.057L347.61 999.28L345.927 1001.85C345.019 1003.28 336.302 1016.46 326.572 1031.16ZM290.224 1086.23C287.384 1090.54 284.987 1094.07 284.9 1094.08C284.783 1094.1 257.371 1040.63 250.797 1027.56C249.998 1025.93 247.735 1021.49 245.785 1017.72C243.836 1013.94 241.493 1009.38 240.576 1007.57C237.169 1000.85 231.769 990.254 227.122 981.198C224.475 976.046 222.359 971.789 222.378 971.718C222.431 971.676 227.145 977.038 232.878 983.725C238.606 990.378 246.936 1000.03 251.374 1005.16C261.61 1017.01 280.363 1038.75 289.714 1049.55C293.644 1054.13 298.414 1059.65 300.291 1061.85L303.673 1065.8L299.538 1072.11C297.252 1075.58 293.064 1081.93 290.224 1086.23ZM282.706 1098.32L281.607 1100.05L270.798 1097.14C264.834 1095.56 256.37 1093.3 251.993 1092.11C247.617 1090.91 232.841 1086.96 219.16 1083.3L194.265 1076.63L194.582 1075.06C194.742 1074.19 196.225 1067.2 197.895 1059.5C199.564 1051.8 202.118 1039.9 203.599 1033.07C205.079 1026.25 206.504 1019.63 206.81 1018.37C207.087 1017.11 207.75 1013.96 208.294 1011.37C208.837 1008.79 210.283 1001.93 211.543 996.156C214.712 981.56 215.796 976.555 216.296 974.076L216.709 971.982L218.392 971.848C219.307 971.77 220.086 971.78 220.149 971.804C220.253 971.889 226.026 983.131 229.358 989.761C230.535 992.074 232.799 996.51 234.369 999.604C243.179 1016.75 246.614 1023.46 248.534 1027.24C249.682 1029.56 258.073 1045.96 267.147 1063.63C276.197 1081.35 283.681 1096 283.713 1096.19C283.779 1096.42 283.303 1097.38 282.706 1098.32ZM277.739 1121.68C274.268 1128.59 270.694 1135.78 269.767 1137.65C268.806 1139.5 267.919 1141.06 267.773 1141.08C267.482 1141.13 245.36 1137.23 242.671 1136.68C241.739 1136.46 229.551 1134.28 215.582 1131.82C201.613 1129.35 190.064 1127.24 189.897 1127.14C189.19 1126.64 188.443 1126.83 204.917 1123.08C210.223 1121.86 215.501 1120.65 216.593 1120.37C217.72 1120.12 219.967 1119.59 221.643 1119.22C223.318 1118.86 225.513 1118.37 226.547 1118.1C228.707 1117.59 231.819 1116.86 235.917 1115.93C239.495 1115.12 257.265 1111.07 260.582 1110.3C265.106 1109.24 272.52 1107.55 275.293 1106.93C276.793 1106.59 278.866 1106.09 279.905 1105.86L281.769 1105.36L282.806 1106.98C283.367 1107.87 283.893 1108.74 283.914 1108.87C283.97 1109.03 281.181 1114.78 277.739 1121.68ZM281.228 1103.28C281.034 1103.38 278.593 1104.01 275.82 1104.62C273.053 1105.26 268.639 1106.27 266.018 1106.9C263.391 1107.48 260.221 1108.23 258.954 1108.53C257.681 1108.8 255.346 1109.34 253.758 1109.7C252.17 1110.05 250.039 1110.56 249 1110.8C247.961 1111.03 245.568 1111.58 243.659 1111.99C241.756 1112.43 239.882 1112.86 239.484 1112.99C239.087 1113.13 236.95 1113.6 234.726 1114.09C232.497 1114.55 230.22 1115.08 229.677 1115.24C229.133 1115.39 226.74 1115.94 224.335 1116.43C221.966 1116.94 219.8 1117.42 219.577 1117.53C219.349 1117.6 217.481 1118.07 215.397 1118.5C213.343 1118.93 210.804 1119.5 209.77 1119.77C207.527 1120.33 204.784 1120.94 197.51 1122.57C194.51 1123.26 191.422 1123.95 190.679 1124.17L189.301 1124.53L188.476 1123.11C188.018 1122.3 187.036 1121.21 186.289 1120.65L184.963 1119.65L187.36 1108.45C190.51 1093.93 192.174 1086.19 193.059 1082C193.445 1080.11 193.923 1078.61 194.08 1078.66C209.109 1082.71 244.414 1092.2 248.595 1093.29C251.779 1094.13 260.215 1096.4 267.336 1098.31C274.463 1100.24 280.548 1101.84 280.861 1101.92C281.481 1102.06 281.721 1103 281.228 1103.28ZM187.643 536.217C187.565 539.845 187.401 546.866 187.295 551.816C187.189 556.766 187.003 565.142 186.868 570.468C186.761 575.79 186.459 588.679 186.215 599.125C186 609.566 185.621 624.595 185.424 632.534C185.228 640.472 184.965 650.988 184.859 655.939C184.753 660.889 184.491 673.095 184.261 683.066C184.03 693.036 183.755 705.718 183.646 711.209C183.396 721.622 183.298 726.436 183.122 733.188C183.08 735.357 182.885 743.87 182.702 752.076C182.518 760.282 182.267 770.121 182.191 773.952C182.086 777.787 181.769 791.894 181.459 805.29L180.929 829.669L180.123 827.805C179.663 826.797 177.065 820.454 174.316 813.73C171.567 807.006 167.93 798.093 166.214 793.907C164.499 789.721 159.979 778.65 156.156 769.327C152.363 759.999 148.687 751.025 148.005 749.376C147.357 747.757 144.809 741.541 142.361 735.58C139.948 729.647 136.998 722.415 135.79 719.533C133.096 712.969 124.168 691.149 118.302 676.712C115.844 670.685 113.195 664.215 112.384 662.317L110.941 658.899L111.647 657.705C112.401 656.435 123.211 637.644 129.129 627.339C131.189 623.766 144.804 600.066 159.406 574.688C174.008 549.31 185.963 528.512 185.982 528.441C186.091 528.187 187.701 528.91 187.754 529.239C187.785 529.437 187.75 532.585 187.643 536.217ZM177.086 540.134C173.085 547.092 160.143 569.57 148.331 590.143C136.49 610.721 126.075 628.807 125.154 630.339C124.232 631.872 120.489 638.383 116.812 644.749C113.169 651.143 110.071 656.267 109.963 656.149C109.825 656.036 107.7 650.969 105.226 644.843C102.728 638.755 99.141 629.969 97.2352 625.34C95.3585 620.707 93.0562 615.094 92.1523 612.806C91.2245 610.555 88.5812 604.118 86.2789 598.505C83.9819 592.925 82.0444 588.099 81.997 587.802C81.9497 587.506 82.2788 586.947 82.7032 586.608C84.2363 585.35 85.3003 581.53 84.7224 579.224C84.5745 578.673 85.9667 577.842 95.9896 572.456C160.075 538.089 182.409 526.106 182.918 525.923C183.311 525.759 183.634 525.91 183.922 526.405C184.195 526.801 184.38 527.21 184.366 527.314C184.358 527.45 181.063 533.214 177.086 540.134ZM182.255 523.833C182.213 523.941 170.313 530.303 104.737 565.449L83.6702 576.756L83.0563 575.908C81.5478 573.953 78.2921 572.852 76.1342 573.568C75.596 573.755 74.9121 573.966 74.5914 574.017C74.0718 574.134 68.5299 567.147 51.1004 544.523C48.9885 541.785 44.9579 536.584 42.1341 532.947C39.3103 529.31 35.997 525.041 34.7505 523.416C33.5384 521.819 31.8473 519.656 31.0216 518.605C30.2012 517.588 27.9014 514.61 25.9377 512.052C23.9449 509.498 19.1231 503.274 15.2062 498.224C11.2895 493.173 5.02795 485.051 1.25939 480.179C-2.50919 475.307 -10.6444 464.815 -16.816 456.881C-34.5449 434.068 -32.9068 436.273 -32.6355 435.351C-32.4999 434.89 -32.2318 434.509 -32.0569 434.481C-31.8819 434.453 -30.009 435.134 -27.9058 435.947C-19.5934 439.315 -7.61748 444.091 -4.45203 445.376C-2.60303 446.095 1.70684 447.805 5.12133 449.151C8.54112 450.531 12.0828 451.925 12.949 452.293C13.8443 452.657 18.7316 454.613 23.8097 456.639C28.9169 458.661 36.3922 461.657 40.4186 463.277C44.4741 464.893 49.3614 466.849 51.2793 467.624C53.2263 468.394 57.1546 469.962 60.0605 471.12C62.9665 472.277 75.4562 477.275 87.8481 482.222C100.24 487.168 111.516 491.685 112.92 492.238C114.324 492.79 118.131 494.345 121.384 495.616C124.642 496.919 132.048 499.858 137.836 502.211C143.648 504.526 150.967 507.478 154.127 508.73C170.471 515.208 177.658 518.08 179.772 518.959L182.076 519.908L182.202 521.814C182.248 522.854 182.274 523.762 182.255 523.833ZM252.37 1172.3C244.464 1188.12 235.674 1205.71 232.84 1211.37C230.036 1217.02 226.228 1224.62 224.417 1228.26C222.576 1231.9 216.211 1244.64 210.249 1256.54C204.321 1268.47 199.305 1278.43 199.143 1278.72C198.88 1279.14 198.647 1279.18 197.714 1278.95C196.782 1278.73 196.604 1278.56 196.581 1277.85C196.595 1277.37 196.438 1275.64 196.291 1273.98C196.121 1272.35 195.956 1270.38 195.898 1269.65C195.841 1268.91 195.739 1267.34 195.637 1266.14C195.451 1264.04 193.925 1246.44 193.516 1241.64C193.404 1240.38 193.202 1237.81 193.058 1235.97C192.914 1234.14 192.671 1231.3 192.495 1229.64C192.325 1228.02 192.17 1226.11 192.129 1225.48C192.087 1224.84 191.747 1220.47 191.33 1215.81C190.914 1211.14 190.498 1206.48 190.427 1205.48C190.148 1201.67 188.626 1184.11 188.215 1179.47C187.969 1176.81 187.736 1174.04 187.678 1173.31C187.65 1172.57 187.286 1168.24 186.88 1163.64C186.48 1159.07 186.074 1154.47 186.003 1153.47C185.903 1152.47 185.6 1148.71 185.27 1145.14C184.94 1141.58 184.654 1138.11 184.642 1137.47C184.6 1136.84 184.511 1135.9 184.466 1135.44C184.351 1134.71 184.528 1134.52 185.777 1133.91C186.92 1133.39 187.517 1132.82 188.462 1131.25L189.704 1129.3L214.578 1133.77C228.274 1136.21 240.74 1138.44 242.248 1138.71C254.698 1140.84 266.931 1143.11 266.87 1143.29C266.833 1143.43 260.305 1156.47 252.37 1172.3ZM213.517 957.997C212.929 958.429 212.284 959.072 212.074 959.444C211.655 960.186 212.336 960.517 161.427 933.275C154.493 929.552 147.922 926.04 146.81 925.441C145.674 924.879 144.771 924.28 144.808 924.139C144.84 923.965 150.425 912.699 172.682 868.054C181.286 850.798 182.609 848.222 182.783 848.194C183.261 848.185 185.865 848.58 186.042 848.754C186.215 848.895 191.681 869.444 200.339 902.661C202.952 912.65 203.012 912.843 203.4 914.336C203.604 915.047 203.936 916.379 204.166 917.254C204.401 918.163 205.293 921.501 206.135 924.711C206.977 927.922 207.856 931.363 208.13 932.333C208.376 933.307 209.846 938.952 211.411 944.817C212.982 950.716 214.32 955.909 214.423 956.365C214.563 957.052 214.371 957.353 213.517 957.997ZM213.47 978.278C212.698 981.679 212.074 984.515 212.085 984.581C212.101 984.68 210.178 993.604 207.259 1007.15C206.397 1011.1 205.18 1016.77 204.548 1019.74C203.917 1022.72 202.005 1031.71 200.261 1039.69C198.546 1047.67 196.098 1059.11 194.807 1065.06C193.55 1071.04 192.479 1075.94 192.461 1076.01C192.418 1076.12 167.991 1069.58 108.133 1053.5C99.7265 1051.23 91.9799 1049.15 90.9493 1048.88L89.0788 1048.4L88.7362 1046.63L88.428 1044.89L105.604 1034.31C115.081 1028.5 139.225 1013.63 159.291 1001.3C179.352 988.934 197.05 978.064 198.631 977.102C200.216 976.172 203.865 973.933 206.721 972.159L211.974 968.921L213.362 970.118C214.124 970.773 214.775 971.48 214.812 971.711C214.844 971.909 214.242 974.877 213.47 978.278ZM210.804 965.154L210.945 967.159L208.765 968.487C207.567 969.22 204.135 971.322 201.139 973.153C198.142 974.983 171.466 991.411 141.845 1009.63C112.225 1027.84 87.7942 1042.8 87.5609 1042.83C87.3277 1042.87 86.9199 1042.56 86.6712 1042.13C86.3035 1041.51 86.2906 1041.24 86.5667 1040.73C86.7765 1040.36 90.6219 1032.61 95.1524 1023.54C99.6777 1014.44 104.413 1004.96 105.658 1002.47C120.947 971.845 134.215 945.227 137.542 938.546C139.776 933.999 142.11 929.334 142.705 928.192L143.78 926.128L161.534 935.624C171.309 940.853 184.677 947.975 191.243 951.453C210.858 961.936 210.922 961.959 210.783 962.59C210.748 962.933 210.752 964.081 210.804 965.154ZM180.59 835.028C180.24 835.084 173.309 828.758 140.318 798.383C126.257 785.425 104.137 765.071 82.3829 745.132L73.3046 736.783L73.6686 735.881C74.6517 733.426 74.3657 730.701 72.9054 728.299L71.9319 726.697L88.5649 697.751C108.79 662.655 109.658 661.165 109.899 661.363C110.002 661.448 110.333 662.206 110.639 663.002C110.98 663.826 116.092 676.356 122.021 690.816C127.955 705.309 133.488 718.786 134.286 720.787C135.113 722.783 137.662 728.999 139.93 734.583C142.227 740.163 145.015 746.948 146.104 749.646C147.193 752.344 149.194 757.194 150.518 760.429C151.843 763.664 154.631 770.449 156.693 775.492C158.76 780.568 161.303 786.751 162.337 789.289C173.031 815.422 176.999 825.094 178.765 829.407C181.247 835.396 181.085 834.949 180.59 835.028ZM166.95 875.221C160.029 889.167 151.757 905.694 148.634 911.972L142.954 923.388L124.162 913.382C113.832 907.87 103.826 902.508 101.93 901.493C100.028 900.446 89.5318 894.825 78.5508 888.977C34.8122 865.624 36.7138 866.672 36.6907 865.966C36.6473 864.385 36.2153 864.488 46.6501 862.989C52.0889 862.221 70.7748 859.404 88.1965 856.721C105.618 854.038 124.275 851.225 129.65 850.434C135.03 849.675 146.942 847.873 156.073 846.448C165.233 845.018 174.024 843.714 175.668 843.519L178.628 843.147L179.207 844.339C179.488 844.97 180.043 845.827 180.403 846.209C181.054 846.916 181.06 846.949 180.337 848.416C179.928 849.224 173.905 861.304 166.95 875.221ZM179.032 837.44C178.902 837.562 174.401 836.153 169.023 834.309C163.675 832.461 158.135 830.541 156.742 830.054C150.357 827.899 130.034 820.841 126.2 819.494C123.853 818.652 119.864 817.262 117.337 816.416C112.375 814.743 80.2543 803.657 73.4144 801.27C71.1017 800.457 65.2207 798.457 60.3755 796.765C55.5064 795.11 51.4958 793.588 51.4642 793.391C51.4326 793.193 52.191 790.267 53.138 786.838C54.1142 783.405 55.9576 776.792 57.2452 772.126C60.7936 759.53 62.0439 755.005 63.6772 749.135C64.4991 746.233 65.4194 743.011 65.7332 741.981L66.3049 740.132L67.736 740.106C68.6264 740.065 69.7133 739.756 70.7102 739.259L72.2587 738.471L73.789 739.815C74.6309 740.592 80.7255 746.174 87.323 752.282C93.9497 758.387 100.473 764.406 101.871 765.67C103.269 766.933 109.792 772.952 116.419 779.057C123.046 785.161 130.16 791.694 132.227 793.594C148.931 808.867 179.199 836.805 179.231 837.003C179.252 837.134 179.162 837.318 179.032 837.44ZM176.963 841.149C176.2 841.238 163.292 843.165 148.29 845.461C86.0915 854.962 72.2507 857.039 60.5674 858.771C53.8166 859.749 45.5842 860.997 42.2605 861.528C36.9833 862.371 36.1856 862.431 36.1172 862.003C35.9961 861.245 34.6386 859.299 33.8522 858.682L33.1452 858.187L34.2465 854.226C38.763 838.333 41.6146 828.112 42.5563 824.65C43.1576 822.425 43.7082 820.445 43.7933 820.229C43.8836 820.046 44.8119 816.687 45.8946 812.797C49.1454 800.958 50.4755 796.184 50.6666 795.883C50.733 795.738 52.9557 796.362 55.5519 797.265C61.5997 799.373 71.4756 802.796 73.7194 803.552C74.6678 803.874 77.3222 804.767 79.5713 805.557C81.8495 806.342 88.5915 808.677 94.6049 810.757C100.613 812.804 107.228 815.092 109.321 815.839C111.408 816.553 118.116 818.86 124.193 820.963C130.299 823.062 136.567 825.237 138.116 825.766C139.695 826.291 145.107 828.163 150.143 829.926C155.208 831.685 160.621 833.557 162.17 834.086C179.887 840.175 178.42 839.599 178.371 840.418C178.339 840.963 178.116 841.067 176.963 841.149ZM189.734 1088.51C188.65 1093.51 186.967 1101.32 186.013 1105.83C185.031 1110.34 183.984 1115.21 183.704 1116.64L183.132 1119.23L181.568 1119.55C180.611 1119.73 179.522 1120.21 178.832 1120.76L177.66 1121.66L175.237 1119.78C173.934 1118.74 165.003 1111.69 155.423 1104.13C145.838 1096.54 135.988 1088.78 133.53 1086.88C109.241 1067.92 88.1565 1051.05 88.3715 1050.71C88.5149 1050.49 90.086 1050.78 92.9288 1051.54C95.3078 1052.2 105.619 1054.98 115.832 1057.71C126.045 1060.44 141.597 1064.57 150.345 1066.93C159.122 1069.27 171.772 1072.66 178.459 1074.46C185.175 1076.26 190.959 1077.84 191.364 1077.94C191.931 1078.12 192.05 1078.3 191.885 1078.77C191.792 1079.12 190.818 1083.5 189.734 1088.51ZM106.545 662.642C105.282 664.838 96.6214 679.873 87.3318 696.022C78.0475 712.204 70.359 725.462 70.2529 725.546C70.1416 725.598 69.7945 725.484 69.4317 725.272C68.7405 724.876 68.4758 729.581 71.8302 682.28C72.6906 670.452 73.6405 656.75 73.9954 651.862C74.3212 646.978 75.2788 633.512 76.0939 621.961C76.9382 610.405 77.7937 598.172 78.0305 594.789L78.453 588.639L79.2985 588.504C80.2607 588.35 79.5467 586.876 85.8429 602.325C87.4738 606.356 93.2678 620.534 98.75 633.883C104.261 647.228 108.776 658.265 108.797 658.397C108.853 658.557 107.844 660.475 106.545 662.642ZM183.926 1150.76C184.518 1157.46 185.083 1163.99 185.196 1165.26C185.314 1166.56 185.436 1168.26 185.51 1169.09C185.554 1169.93 185.85 1173.47 186.164 1176.93C186.871 1185.1 187.253 1189.36 187.541 1193.03C187.653 1194.67 190.075 1222.73 190.614 1229.1C190.716 1230.3 190.884 1232.1 190.955 1233.1C191.025 1234.1 191.431 1238.7 191.832 1243.27C192.238 1247.86 192.628 1252.36 192.682 1253.27C192.772 1254.2 192.994 1256.9 193.193 1259.27C193.397 1261.67 193.649 1264.36 193.703 1265.27C193.792 1266.2 193.999 1268.8 194.187 1271.1C194.853 1278.63 194.858 1278.67 194.108 1279.02C193.744 1279.18 193.275 1279.43 193.063 1279.59C192.792 1279.77 190.757 1277.33 185.578 1270.55C181.656 1265.47 176.63 1258.91 174.405 1256.02C170.853 1251.38 164.991 1243.7 146.546 1219.59C143.939 1216.18 139.215 1210.01 136.039 1205.86C132.835 1201.71 130.207 1198.17 130.175 1197.97C130.138 1197.74 160.988 1157.1 178.417 1134.44L179.107 1133.52L180.477 1134.05C181.235 1134.3 182.016 1134.51 182.191 1134.48C182.453 1134.44 182.601 1134.99 182.727 1136.53C182.818 1137.66 183.363 1144.06 183.926 1150.76ZM175.38 1124.79C174.887 1124.7 155.185 1121.53 131.555 1117.74C107.921 1113.92 88.486 1110.74 88.3536 1110.66C88.2159 1110.54 88.0186 1109.12 87.9064 1107.48C87.7889 1105.81 87.5531 1103.22 87.4223 1101.65C87.2622 1100.09 87.1237 1098.28 87.082 1097.65C87.0402 1097.01 86.9227 1095.34 86.7943 1093.98C86.6659 1092.61 86.5484 1090.94 86.5066 1090.31C86.46 1089.27 85.7928 1081.16 85.1981 1074.63C85.096 1073.43 84.9104 1070.96 84.7666 1069.13C84.6228 1067.29 84.3534 1063.92 84.165 1061.62C83.6233 1055.05 83.6367 1054.95 84.453 1054.82C84.8612 1054.75 85.6593 1054.32 86.2668 1053.82L87.3516 1052.94L90.6454 1055.59C95.5915 1059.59 134.293 1090.34 142.088 1096.46C168.929 1117.55 176.526 1123.73 176.382 1124.33C176.247 1124.79 176.024 1124.89 175.38 1124.79ZM153.187 1164.22C139.809 1181.74 128.794 1196.07 128.677 1196.09C128.59 1196.1 128.121 1195.6 127.666 1195C127.235 1194.36 119.973 1184.84 111.549 1173.85L96.2451 1153.86L96.9116 1152.61C97.2833 1151.94 97.6291 1150.73 97.712 1149.94C97.7606 1149.13 97.8331 1148.27 97.8598 1148.06C97.8707 1147.76 98.5785 1147.51 100.002 1147.25C101.168 1147.06 102.586 1146.77 103.13 1146.61C103.649 1146.5 105.984 1145.95 108.33 1145.48C110.642 1144.97 113.361 1144.4 114.395 1144.14C115.434 1143.9 117.711 1143.37 119.445 1142.99C128.953 1140.93 131.007 1140.5 136.488 1139.25C137.755 1138.95 140.3 1138.41 142.121 1138.02C149.235 1136.51 159.602 1134.21 164.36 1133.11C165.545 1132.85 168.289 1132.25 170.43 1131.8C172.567 1131.33 174.878 1130.82 175.567 1130.64C176.625 1130.34 176.845 1130.4 177.178 1130.99C177.387 1131.37 177.524 1131.85 177.522 1132.02C177.524 1132.22 166.559 1146.68 153.187 1164.22ZM174.517 1128.75C173.6 1129 171.177 1129.55 169.094 1129.99C167.04 1130.42 164.233 1131 162.878 1131.32C161.524 1131.64 159.066 1132.17 157.391 1132.53C155.716 1132.9 153.381 1133.45 152.196 1133.7C151.011 1133.96 148.472 1134.53 146.563 1134.94C144.655 1135.35 141.94 1135.95 140.493 1136.25C139.08 1136.58 133.996 1137.69 129.228 1138.72C124.459 1139.76 119.404 1140.87 117.962 1141.2C116.55 1141.53 112.971 1142.34 110.024 1142.98C107.076 1143.62 103.031 1144.5 101.04 1144.95L97.3984 1145.74L96.4804 1144.3C95.4777 1142.7 93.5684 1141.42 91.7243 1141.1C90.5584 1140.92 90.5187 1140.86 90.4855 1139.71C90.4676 1139.04 90.2663 1136.47 90.0516 1134C89.8369 1131.54 89.6221 1129.07 89.6201 1128.5C89.5941 1127.96 89.2879 1124.36 88.9686 1120.49C88.6255 1116.66 88.4249 1113.35 88.5205 1113.2C88.6586 1112.94 174.822 1126.54 175.728 1126.97C175.855 1127.02 175.995 1127.33 176.053 1127.69C176.132 1128.19 175.861 1128.37 174.517 1128.75ZM138.423 932.458C136.498 936.313 133.94 941.453 132.713 943.879C131.516 946.3 123.225 962.898 114.331 980.775C105.408 998.656 96.1475 1017.23 93.7229 1022.08C91.2983 1026.93 88.2708 1033.06 86.9589 1035.7L84.5582 1040.51L83.5276 1040.23C82.9607 1040.05 82.1711 1039.98 81.7629 1040.04C81.3547 1040.11 80.9441 1039.97 80.8542 1039.78C80.759 1039.56 79.9616 1036.82 79.1062 1033.71C78.2509 1030.6 76.8253 1025.42 75.8958 1022.23C72.6113 1010.66 72.2099 1009.27 71.8062 1007.68C71.5474 1006.8 70.6207 1003.44 69.6913 1000.24C68.791 997.041 67.8907 993.839 67.6873 993.128C67.5132 992.413 66.7 989.569 65.9317 986.82C63.1858 977.122 62.5706 974.957 61.1001 969.684C60.271 966.742 58.8718 961.728 57.9423 958.531C56.0676 952.039 55.9251 951.521 54.9219 947.864C54.5153 946.442 53.9001 944.276 53.5489 943.015C53.2031 941.786 52.2764 938.42 51.4632 935.576C50.6791 932.728 49.4435 928.364 48.7173 925.878C47.0803 920.125 45.2348 913.629 42.1009 902.438C40.7519 897.552 39.334 892.609 39.0278 891.441C38.6925 890.278 37.7525 887.016 36.9684 884.168C36.1843 881.32 35.3974 878.641 35.2654 878.189C33.5251 872.351 33.3801 871.631 33.8284 871.255C34.0936 871.044 34.6694 870.344 35.1338 869.695L35.9911 868.511L46.1934 873.976C81.1122 892.656 104.03 904.908 126.448 916.835C134.915 921.361 141.889 925.146 141.905 925.245C141.921 925.344 140.343 928.569 138.423 932.458ZM190.014 1283.53C189.995 1283.6 183.144 1281.89 174.759 1279.75C166.379 1277.64 155.532 1274.88 150.644 1273.67C145.751 1272.42 139.52 1270.85 136.775 1270.14C134.03 1269.43 127.237 1267.71 121.66 1266.31C116.089 1264.93 106.707 1262.55 100.789 1261.06L90.0349 1258.32L89.7056 1256.44C89.5371 1255.39 89.0985 1254.14 88.7466 1253.62L88.1169 1252.68L93.7108 1245.4C96.7785 1241.39 100.536 1236.47 102.041 1234.47C103.546 1232.47 107.083 1227.85 109.848 1224.2C112.648 1220.58 118.04 1213.53 121.846 1208.53C125.627 1203.57 128.777 1199.52 128.811 1199.54C128.846 1199.57 130.775 1202.1 133.12 1205.17C135.465 1208.25 138.788 1212.58 140.519 1214.8C142.221 1217.03 148.607 1225.37 154.662 1233.32C160.746 1241.27 166.602 1248.92 167.695 1250.33C170.149 1253.52 181.367 1268.15 187.046 1275.62L191.286 1281.2L190.656 1282.31C190.303 1282.91 190.003 1283.46 190.014 1283.53ZM76.0978 595.605C75.9338 597.759 75.0997 609.753 74.2279 622.259C73.3562 634.765 72.3395 648.984 71.9846 653.873C71.6296 658.761 70.3705 676.702 69.1734 693.72L67.0049 724.68L65.2896 725.36C64.3299 725.716 63.3702 726.072 63.1183 726.18C62.8029 726.264 57.6141 721.112 47.6554 710.81C39.3882 702.299 31.2535 693.867 29.5381 692.114L26.4567 688.923L28.1962 685.402C30.0924 681.551 39.4673 662.381 56.3423 627.652C62.3337 615.375 68.458 602.806 69.9744 599.759C71.4563 596.684 73.3578 592.866 74.1121 591.225C75.4374 588.479 75.9363 587.859 76.487 588.311C76.5903 588.396 76.6 589.206 76.5276 590.062C76.4604 590.951 76.2617 593.45 76.0978 595.605ZM71.6427 578.205C71.4646 578.775 70.3384 578.65 59.6313 576.949C53.1291 575.927 41.8073 574.121 34.4811 572.994C27.1496 571.834 18.3157 570.441 14.8421 569.848C11.3738 569.287 7.84713 568.735 6.98863 568.602C6.10628 568.507 -2.51296 567.147 -12.1814 565.584C-21.8737 564.058 -32.2099 562.432 -35.1563 561.957C-38.0974 561.515 -40.625 561.04 -40.7283 560.955C-40.866 560.842 -40.896 559.158 -40.8224 557.186C-40.7488 555.214 -40.5668 548.495 -40.3986 542.251C-40.0925 530.883 -40.0185 528.539 -39.517 510.348C-39.3524 505.017 -39.1923 498.909 -39.145 496.773C-38.9958 490.971 -38.752 480.897 -38.513 472.85C-38.3896 468.945 -38.1681 459.854 -37.9724 452.659C-37.7766 445.465 -37.6165 439.357 -37.6003 439.084C-37.5655 438.741 -36.9476 438.304 -35.9587 437.943L-34.3787 437.353L-33.5238 438.399C-33.0686 439.002 -26.209 447.874 -18.2616 458.126C-10.3435 468.382 -1.68415 479.534 0.951721 482.931C3.58763 486.328 11.1248 496.071 17.7171 504.58C24.3095 513.089 32.0293 523.04 34.8531 526.677C37.6769 530.314 41.1437 534.795 42.5384 536.599C43.9384 538.436 46.1535 541.259 47.4344 542.912C50.1497 546.432 58.2056 556.802 66.7616 567.869L72.8194 575.652L72.3493 576.64C72.0731 577.157 71.7703 577.881 71.6427 578.205ZM70.9007 593.394C69.4559 596.328 62.4765 610.655 55.359 625.241C48.2415 639.826 41.8278 653.015 41.0868 654.553C39.8571 657.149 36.6648 663.741 28.4398 680.565C26.7295 684.082 25.1973 687.03 25.0568 687.086C24.8924 687.18 21.1571 683.452 16.7098 678.824C12.2679 674.229 7.67764 669.455 6.49437 668.225C5.31636 667.028 0.0855225 661.612 -5.11089 656.226C-10.3365 650.844 -15.7896 645.16 -17.288 643.642C-35.4531 625.022 -37.7719 622.486 -37.4188 621.889C-36.9277 621.034 -36.5252 618.874 -36.6779 617.919C-36.799 617.161 -36.6585 617.105 -32.8651 615.958C-30.7311 615.279 -23.8334 613.163 -17.5613 611.248C-11.2893 609.334 3.21921 604.886 14.6526 601.403C26.1099 597.883 37.0581 594.545 39.0225 593.927C40.9921 593.342 43.1022 592.701 43.7279 592.499C46.4344 591.661 59.0369 587.823 64.5375 586.133C67.8459 585.131 70.8096 584.218 71.1436 584.063C71.6474 583.848 71.9519 584.069 72.8781 585.374C73.7406 586.655 73.931 587.098 73.7318 587.535C73.599 587.827 72.3162 590.465 70.9007 593.394ZM70.5548 582.062C70.0511 582.278 67.5141 583.055 64.9189 583.842C60.5581 585.18 39.3216 591.683 23.159 596.631C19.3947 597.773 10.0476 600.653 2.34934 602.998C-5.31976 605.339 -16.8062 608.864 -23.1657 610.792C-29.52 612.754 -35.2778 614.519 -35.9909 614.734C-37.2765 615.109 -37.3057 615.113 -37.8346 614.049C-38.3185 613.079 -40.3652 611.311 -41.8007 610.56C-42.2563 610.329 -42.2847 609.59 -42.1014 604.189C-41.8903 597.465 -41.6812 590.166 -41.4459 580.6C-41.2353 571.815 -40.9404 563.557 -40.8209 563.369C-40.7201 563.252 -11.2005 567.792 1.99981 569.94C4.95146 570.448 8.5364 570.99 9.97519 571.2C12.5798 571.595 21.8084 573.026 36.0475 575.312C40.1888 575.967 49.5738 577.441 56.9053 578.601C64.2316 579.728 70.4899 580.721 70.7973 580.773C71.6611 580.939 71.5145 581.706 70.5548 582.062ZM63.8494 741.606C63.5303 742.603 62.7271 745.435 62.0699 747.871C54.8184 773.966 49.4853 792.795 49.2812 792.827C49.1646 792.846 47.3711 792.288 45.3127 791.569C43.2252 790.855 40.5655 789.929 39.3337 789.517C36.9336 788.718 25.0974 784.629 9.58426 779.236C4.2013 777.359 -1.65057 775.354 -3.39102 774.754L-6.55405 773.672L-7.1514 772.179C-7.46323 771.35 -7.84392 770.465 -7.97879 770.182C-8.21691 769.815 -7.09522 769.163 -1.50349 766.546C2.22432 764.801 10.1971 760.993 16.2237 758.104C57.8825 738.133 61.6395 736.384 62.0258 736.93C62.2534 737.232 62.8304 737.849 63.3573 738.339C63.8841 738.83 64.3527 739.329 64.379 739.494C64.4001 739.626 64.1632 740.576 63.8494 741.606ZM60.7157 732.848C60.8226 734.453 60.7509 734.566 59.807 735.021C51.5346 739.012 24.8086 751.765 14.0811 756.858C6.43717 760.479 -1.98101 764.493 -4.64304 765.797C-7.31032 767.068 -9.62493 768.114 -9.79987 768.142C-9.9748 768.17 -10.4887 767.948 -10.8859 767.707L-11.6805 767.226L-7.91724 759.529C-5.86962 755.316 -1.92578 747.252 0.820316 741.61C3.59557 735.962 10.2802 722.223 15.706 711.084C21.1318 699.945 25.6967 690.903 25.8397 691.049C25.9774 691.163 34.1069 699.561 43.883 709.656L61.6561 728.069L61.1536 729.602C60.8719 730.458 60.6848 731.907 60.7157 732.848ZM-13.7916 307.42C-14.6428 307.894 -14.9582 307.979 -15.3024 307.696C-16.38 306.753 -37.965 284.32 -38.0072 284.056C-38.0388 283.859 -33.2728 247.449 -28.7529 213.242C-28.5711 211.76 -28.289 210.532 -28.1723 210.513C-28.0266 210.49 -24.5088 232.127 -20.3045 258.622L-12.6991 306.773L-13.7916 307.42ZM-33.8478 237.303C-35.7897 251.906 -37.9426 267.996 -38.6211 273.105L-39.8392 282.322L-52.0401 269.776C-58.7588 262.909 -66.306 255.161 -68.7758 252.616C-82.2394 238.718 -115.141 204.78 -117.966 201.887C-119.755 200.044 -124.34 195.303 -128.171 191.353C-132.001 187.404 -137.227 182.022 -139.805 179.359C-153.121 165.64 -159.564 158.999 -159.831 158.637C-159.985 158.425 -160.019 158.025 -159.857 157.728C-159.61 157.216 -158.823 157.462 -143.313 163.025C-137.665 165.062 -134.849 166.031 -125.084 169.505C-122.899 170.271 -118.557 171.807 -115.418 172.927C-112.279 174.048 -108.001 175.56 -105.908 176.307C-103.82 177.021 -97.0969 179.427 -91.0094 181.596C-84.8874 183.794 -78.7018 186.016 -77.2157 186.521C-75.7295 187.027 -71.9599 188.351 -68.8207 189.471C-51.8243 195.54 -47.7023 197.01 -39.7816 199.799L-35.1271 201.42L-35.0307 202.959C-34.9087 205.406 -33.917 207.309 -32.0687 208.771C-31.1791 209.473 -30.4352 210.199 -30.3744 210.392C-30.3137 210.585 -31.8767 222.695 -33.8478 237.303ZM119.933 1207.79C116.39 1212.38 112.163 1217.92 110.534 1220.07C108.904 1222.22 105.444 1226.76 102.846 1230.15C100.272 1233.5 95.694 1239.47 92.7033 1243.4C89.7469 1247.35 87.1384 1250.67 86.9898 1250.86C86.5946 1251.2 84.7404 1250.45 84.6561 1249.92C84.6298 1249.75 85.0256 1243.81 85.5736 1236.76C86.0925 1229.72 86.6648 1222.26 86.7809 1220.18C87.2035 1214.03 88.1205 1201.25 88.8135 1192.49C89.1388 1187.98 89.8755 1177.99 90.4162 1170.34L91.4114 1156.36L92.7023 1156.02C93.3915 1155.84 94.1921 1155.61 94.4784 1155.53C94.876 1155.4 97.5994 1158.78 106.74 1170.7C113.205 1179.16 119.7 1187.62 121.139 1189.52C122.608 1191.41 124.617 1194.06 125.636 1195.39L127.451 1197.77L126.926 1198.6C126.61 1199.05 123.47 1203.17 119.933 1207.79ZM-17.5676 339.921C-19.9819 350.072 -22.5371 360.651 -23.1946 363.459C-23.8813 366.272 -24.7117 369.682 -25.0073 371.014C-25.734 374.137 -27.166 380.144 -31.4488 398.061C-33.3202 405.996 -35.4575 414.886 -36.1523 417.836C-36.8418 420.818 -37.4961 423.085 -37.5807 422.93C-37.7156 422.647 -38.1257 414.468 -38.8909 396.209C-39.0879 391.983 -39.2533 387.955 -39.2658 387.315C-39.3075 386.679 -39.4834 382.585 -39.6962 378.26C-39.8798 373.931 -40.1287 368.632 -40.2271 366.519C-40.2965 364.401 -40.3921 362.119 -40.4338 361.484C-40.4756 360.848 -40.6515 356.754 -40.8351 352.425C-41.0187 348.095 -41.1946 344.001 -41.2363 343.366C-41.2489 342.726 -41.381 339.841 -41.5079 336.989C-41.6347 334.137 -41.8345 330.081 -41.9038 327.963C-41.9971 325.883 -42.0429 324.099 -42.019 324.062C-41.966 324.02 -41.2261 323.597 -40.3406 323.152C-38.4925 322.181 -36.993 320.15 -36.7392 318.184C-36.5761 316.772 -36.8571 316.885 -32.2112 316.581C-30.3481 316.453 -27.8039 316.282 -26.5927 316.19C-25.3815 316.098 -23.8391 316.021 -23.1871 315.984C-22.5352 315.947 -20.9344 315.86 -19.6305 315.787C-17.2373 315.607 -16.7923 315.773 -16.5975 316.992C-16.4658 317.816 -14.4281 320.463 -13.7789 320.596C-13.5246 320.691 -13.2837 320.889 -13.2468 321.119C-13.2152 321.317 -15.1481 329.803 -17.5676 339.921ZM-34.6543 197.831C-35.1734 197.576 -37.2816 196.358 -39.3659 195.103C-41.4449 193.881 -51.8505 187.705 -62.4813 181.43C-73.112 175.154 -85.7979 167.619 -90.7213 164.689C-95.6103 161.788 -103.804 156.914 -108.889 153.908C-113.974 150.903 -120.28 147.18 -122.923 145.609C-125.566 144.038 -134.481 138.772 -142.734 133.907C-150.991 129.01 -158.028 124.829 -158.338 124.575C-158.883 124.155 -158.891 123.92 -158.31 120.82C-157.676 117.306 -151.004 83.4639 -149.411 75.4715L-148.46 70.758L-147.278 70.6705C-146.626 70.6339 -145.574 70.2967 -144.945 69.926L-143.795 69.269L-136.362 77.9815C-132.244 82.7972 -127.133 88.772 -125 91.2694C-122.871 93.7338 -118.012 99.4448 -114.156 103.931C-110.328 108.421 -105.8 113.746 -104.071 115.767C-102.348 117.756 -94.6644 126.732 -87.0152 135.68C-79.3315 144.657 -66.1768 159.99 -57.7917 169.8C-49.4066 179.611 -40.5821 189.925 -38.1973 192.686C-35.8364 195.485 -33.8408 197.87 -33.8145 198.034C-33.7934 198.166 -34.1643 198.09 -34.6543 197.831ZM-16.7904 311.481C-17.1042 312.511 -17.3516 313.396 -17.3411 313.462C-17.365 313.499 -20.4976 313.729 -24.2874 313.963C-28.1064 314.202 -32.4263 314.487 -33.9343 314.593L-36.6482 314.824L-37.0155 313.835C-37.6101 312.173 -38.748 310.665 -40.1568 309.708L-41.5021 308.774L-39.9722 297.954C-39.1577 292.012 -38.4237 287.062 -38.376 286.987C-38.2804 286.837 -35.6384 289.523 -25.2217 300.259C-17.349 308.361 -16.3086 309.445 -16.2928 309.543C-16.2823 309.609 -16.5005 310.489 -16.7904 311.481ZM-46.5504 195.238C-50.7995 193.721 -55.4884 192.071 -56.9798 191.532C-58.4659 191.026 -62.5879 189.556 -66.1668 188.304C-86.1169 181.152 -93.6323 178.468 -105.958 174.119C-113.439 171.462 -123.644 167.856 -128.621 166.083C-141.618 161.47 -149.734 158.577 -154.678 156.833L-158.985 155.325L-159.124 153.523C-159.288 151.184 -160.325 149.187 -162.104 147.782L-163.441 146.712L-161.526 136.809C-160.452 131.366 -159.533 126.827 -159.443 126.644C-159.376 126.498 -154.847 129.018 -149.399 132.236C-128.853 144.428 -121.684 148.688 -110.126 155.525C-103.584 159.413 -95.9252 163.933 -93.1205 165.58C-90.3159 167.226 -82.887 171.614 -76.6103 175.342C-62.8359 183.514 -53.0924 189.289 -44.8399 194.154C-41.4367 196.178 -38.6851 197.867 -38.7381 197.909C-38.7568 197.979 -42.296 196.788 -46.5504 195.238ZM46.9714 801.948C45.934 805.56 44.2076 811.783 43.0824 815.781C41.9572 819.779 40.4118 825.263 39.651 827.987C38.8902 830.71 37.9327 834.073 37.5496 835.418C37.1427 836.801 35.9111 841.255 34.7964 845.319C31.6626 856.768 31.5031 857.266 30.7373 857.152C30.4008 857.105 29.5978 857.132 29.0147 857.225L27.9651 857.392L26.1828 853.724C24.0146 849.137 4.49369 809.311 2.12419 804.587C1.19074 802.675 -1.80809 796.633 -4.5133 791.119C-9.11986 781.752 -9.41064 781.055 -8.9782 780.58C-8.01244 779.514 -7.16819 778.061 -6.83578 776.96L-6.50862 775.827L-2.55352 777.188C1.12341 778.493 18.2737 784.402 38.7486 791.469C40.142 791.956 42.958 792.925 45.0111 793.611C47.0403 794.334 48.733 795.01 48.754 795.142C48.7751 795.273 47.9795 798.34 46.9714 801.948ZM-41.7042 296.845L-43.2004 308.437L-45.2097 308.961C-46.3257 309.275 -47.2534 309.457 -47.2878 309.428C-47.3911 309.344 -123.53 208.419 -132.985 195.84C-136.786 190.77 -142.931 182.629 -146.641 177.748C-150.322 172.863 -153.701 168.368 -154.122 167.793L-154.889 166.733L-154.116 167.455C-153.693 167.86 -150.336 171.277 -146.683 175.052C-143.03 178.827 -137.015 185.029 -133.333 188.799C-126.323 195.991 -102.517 220.536 -82.5361 241.164C-76.0584 247.833 -67.5001 256.67 -63.5266 260.765C-59.5532 264.861 -54.5738 270.012 -52.4932 272.18C-50.4125 274.348 -46.823 278.099 -44.5014 280.465C-42.1797 282.831 -40.2659 284.89 -40.2448 285.022C-40.2238 285.154 -40.8707 290.461 -41.7042 296.845ZM15.0839 707.94C10.1946 717.946 4.29346 730.039 2.00409 734.798C-10.7704 761.134 -13.6756 766.903 -14.2429 767.095C-14.8103 767.287 -14.8657 767.127 -16.1359 760.302C-16.8394 756.461 -17.8329 751.18 -18.3416 748.558C-18.8503 745.936 -19.8042 740.716 -20.5025 736.908C-21.1954 733.133 -22.21 727.72 -22.7159 724.928C-23.2509 722.142 -24.2311 716.757 -24.9294 712.949C-25.6224 709.174 -26.6552 703.46 -27.2482 700.311C-28.5025 693.584 -30.044 685.248 -31.6487 676.517C-32.2838 673.104 -33.2534 667.785 -33.8359 664.702C-34.8505 659.289 -35.7674 654.3 -38.4471 639.59C-39.1559 635.716 -40.0652 630.962 -40.4633 629.032L-41.2069 625.502L-40.4432 625.042C-40.0375 624.774 -39.4859 624.483 -39.2288 624.409C-38.7437 624.263 -35.5802 627.407 -23.4165 640.094C-19.7872 643.907 -15.2711 648.591 13.7315 678.523C19.4203 684.371 24.0368 689.31 24.0287 689.447C23.9915 689.588 19.9679 697.901 15.0839 707.94ZM82.5745 1064.58C82.8751 1068.52 83.2547 1072.95 83.3698 1074.42C83.514 1075.88 83.6526 1077.69 83.7101 1078.42C83.809 1080.16 84.3137 1086.5 84.5467 1089.27C84.6779 1090.46 84.9003 1093.16 85.0571 1095.27C85.214 1097.37 85.455 1100 85.5413 1101.1C85.9861 1106.51 86.2288 1110.08 86.128 1110.2C86.0324 1110.35 34.0283 1102.07 26.5778 1100.73L23.1864 1100.09L22.9178 1098.41L22.6732 1096.69L24.8906 1094.85C26.1345 1093.84 38.4253 1083.93 52.2358 1072.87L77.3054 1052.75L78.0598 1053.54C78.4834 1053.95 79.4447 1054.54 80.2368 1054.82C81.9481 1055.42 81.7792 1054.74 82.5745 1064.58ZM78.4254 1041.05C77.3649 1041.52 75.9873 1043.57 75.5695 1045.26C75.2634 1046.52 75.2679 1047.3 75.6292 1049L76.0589 1051.12L62.1476 1062.3C36.2054 1083.14 21.9122 1094.55 21.679 1094.58C21.2655 1094.62 18.1887 1092.2 18.1202 1091.77C18.057 1091.38 18.9344 1076.1 26.134 953.14C28.7187 909.443 30.8105 873.326 30.8295 872.883C30.8485 872.441 31.0343 872.107 31.2542 872.173C31.6543 872.245 32.9166 876.402 36.7236 890.12C37.8985 894.291 39.7652 900.92 40.8687 904.832C41.9724 908.744 45.5525 921.417 48.8026 932.96C52.058 944.537 54.8488 954.329 54.9809 954.781C55.1129 955.233 55.5908 956.914 56.0237 958.5C56.4328 960.124 57.3938 963.518 58.1358 966.103C59.4613 970.655 62.9702 983.07 68.1027 1001.34C70.9859 1011.52 70.8194 1011.04 72.1661 1015.73C72.7496 1017.7 74.0169 1022.26 75.0492 1025.91C76.0524 1029.57 77.2775 1033.87 77.7396 1035.45C79.0599 1039.97 79.1466 1040.7 78.4254 1041.05ZM87.1112 1120.28C87.0978 1120.39 87.189 1121.89 87.3753 1123.62C87.5325 1125.35 87.7079 1127.38 87.7363 1128.12C87.7938 1128.86 88.0369 1132.06 88.3091 1135.26C88.5814 1138.46 88.7641 1141.1 88.7402 1141.14C88.6872 1141.18 88.1328 1141.64 87.4619 1142.12C86.7962 1142.63 86.088 1143.25 85.8332 1143.53C85.4008 1144.01 85.9304 1144.33 46.2995 1118.42C37.751 1112.83 23.1618 1103.3 22.6374 1103.01C22.603 1102.99 22.6005 1102.78 22.6617 1102.6C22.7892 1102.28 27.6566 1102.99 64.3352 1108.92L86.3694 1112.46L86.7709 1116.28C86.986 1118.38 87.1537 1120.17 87.1112 1120.28ZM88.6931 1168.35C88.2333 1174.64 87.7387 1181.27 87.6044 1183.05C87.2818 1187.39 85.023 1218.54 84.4689 1226.3C84.2322 1229.68 83.7534 1236.41 83.4223 1241.26L82.7638 1250.05L81.5393 1250.25C80.8396 1250.36 79.8321 1250.79 79.2964 1251.18L78.3415 1251.94L77.4255 1251.07C76.9278 1250.58 66.9574 1241.33 55.2344 1230.46C43.5113 1219.6 33.8798 1210.59 33.7899 1210.4C33.6737 1210.05 33.5198 1210.21 57.6805 1184.96C66.5759 1175.7 76.7395 1165.02 80.3263 1161.27C86.7837 1154.53 86.8606 1154.45 87.5438 1154.98C87.9463 1155.26 88.5739 1155.63 88.9554 1155.77C89.3369 1155.91 89.628 1156.24 89.6066 1156.48C89.5507 1156.69 89.1529 1162.06 88.6931 1168.35ZM-43.5307 332.751C-43.3597 336.44 -43.1368 341.203 -43.0675 343.32C-42.969 345.433 -42.7745 349.457 -42.6634 352.21C-42.5471 354.996 -42.3473 359.053 -42.2622 361.269C-42.177 363.486 -41.9108 369.829 -41.6542 375.363C-40.9604 390.931 -40.414 403.143 -40.0493 411.599C-39.8762 415.863 -39.6687 420.155 -39.5982 421.157L-39.4783 423.03L-40.902 423.663C-41.6815 424.024 -42.7477 424.837 -43.2996 425.499L-44.2443 426.698L-50.474 423.639C-53.912 421.958 -62.0224 417.983 -68.5408 414.801C-75.0593 411.619 -80.55 408.881 -80.7565 408.711C-81.0663 408.457 -80.1759 405.983 -77.1128 398.77C-71.1247 384.601 -48.8537 331.811 -46.9887 327.39C-46.1279 325.293 -45.3205 323.61 -45.1986 323.624C-45.0767 323.638 -44.7402 323.686 -44.4037 323.733C-43.9453 323.795 -43.8502 324.017 -43.8538 324.93C-43.8465 325.537 -43.7018 329.061 -43.5307 332.751ZM-49.4379 312.813C-49.9319 313.838 -50.4442 314.562 -50.7463 314.543C-51.0139 314.552 -52.6568 314.375 -54.4162 314.217C-56.181 314.026 -64.4272 313.316 -72.7662 312.588C-81.1052 311.859 -92.086 310.877 -97.1843 310.408C-102.282 309.939 -114.477 308.847 -124.332 307.989C-134.162 307.093 -148.628 305.823 -156.484 305.119C-164.312 304.41 -171.954 303.739 -173.435 303.638C-174.922 303.504 -176.199 303.37 -176.297 303.318C-176.366 303.262 -175.924 296.67 -175.285 288.695C-174.67 280.757 -173.544 265.913 -172.746 255.75C-171.978 245.592 -171.252 236.285 -171.121 235.048C-171.019 233.815 -170.294 224.508 -169.525 214.35C-167.467 187.192 -165.495 161.738 -165.418 161.658C-165.394 161.621 -164.599 161.358 -163.653 161.106L-161.935 160.629L-151.296 174.809C-145.448 182.592 -140.06 189.739 -139.314 190.668C-138.562 191.629 -126.278 207.878 -112.043 226.789C-97.7788 245.695 -77.7113 272.29 -67.4354 285.887C-57.1595 299.484 -48.7282 310.706 -48.678 310.833C-48.6569 310.965 -48.9918 311.863 -49.4379 312.813ZM-50.3974 330.571C-55.0226 341.48 -64.1536 363.112 -73.9701 386.441C-78.5423 397.308 -82.4476 406.549 -82.6521 406.953C-83.0505 407.828 -82.1552 408.192 -97.0938 400.78C-99.1359 399.789 -112.501 393.241 -126.772 386.263C-141.044 379.286 -156.358 371.765 -160.835 369.575C-165.282 367.38 -170.312 364.906 -171.967 364.089C-173.877 363.178 -174.947 362.47 -174.907 362.16C-174.856 361.915 -174.826 361.167 -174.81 360.523C-174.827 359.85 -174.737 359.295 -174.62 359.276C-174.533 359.262 -171.632 358.325 -168.194 357.201C-159.149 354.303 -151.811 351.948 -143.866 349.462C-140.826 348.469 -136.582 347.149 -134.482 346.441C-132.377 345.767 -128.653 344.564 -126.232 343.805C-123.817 343.014 -114.597 340.087 -105.751 337.254C-85.2936 330.741 -82.4518 329.814 -78.2951 328.508C-74.5944 327.342 -66.8244 324.884 -60.2289 322.748C-50.7331 319.677 -49.5588 319.354 -49.4292 319.603C-49.3737 319.763 -48.81 320.484 -48.2171 321.2C-47.6534 321.921 -47.1347 322.548 -47.1241 322.614C-47.0845 322.675 -48.5749 326.258 -50.3974 330.571ZM71.2535 1167.93C63.719 1175.79 51.8045 1188.23 44.7556 1195.58L32 1208.93L31.2031 1208.25C30.6074 1207.7 6.10229 1184.96 -3.73042 1175.82C-9.03859 1170.86 -38.6878 1143.43 -40.8932 1141.41C-42.3652 1140.06 -50.9908 1132.11 -60.0213 1123.69C-69.0757 1115.31 -76.7666 1108.15 -77.1161 1107.84C-77.6429 1107.35 -77.7037 1107.16 -77.4328 1106.61C-77.1299 1105.88 -76.91 1105.95 -51.8208 1112.51C-34.5604 1117.05 -2.39483 1125.43 4.17824 1127.08C8.35888 1128.17 48.0407 1138.49 53.5063 1139.95C55.9092 1140.58 63.7724 1142.63 71.0396 1144.51L84.1962 1147.88L84.5203 1149.72C84.6835 1150.74 84.9791 1151.84 85.1828 1152.18C85.3918 1152.56 85.3967 1152.96 85.2294 1153.22C85.0861 1153.45 78.7879 1160.06 71.2535 1167.93ZM73.5534 1143.03C67.8149 1141.54 60.4497 1139.61 57.1726 1138.75C53.9297 1137.92 43.449 1135.2 33.9352 1132.73C14.1552 1127.58 0.836958 1124.14 -8.80926 1121.59C-16.9559 1119.44 -43.6904 1112.5 -47.8022 1111.47C-63.0148 1107.58 -75.5434 1104.21 -75.2968 1104.07C-75.1324 1103.97 -73.0943 1103.82 -70.7728 1103.75C-68.4513 1103.68 -66.0079 1103.63 -65.3559 1103.59C-64.6987 1103.59 -61.6086 1103.47 -58.5185 1103.35C-55.3993 1103.22 -52.3966 1103.11 -51.8321 1103.09C-51.2332 1103.09 -48.7659 1103 -46.3278 1102.92C-43.8657 1102.8 -40.6537 1102.69 -39.1988 1102.62C-37.7094 1102.59 -35.9815 1102.55 -35.3296 1102.51C-34.6776 1102.48 -32.9206 1102.43 -31.4604 1102.4C-29.9763 1102.33 -23.168 1102.09 -16.3014 1101.84C-9.43483 1101.58 -3.22547 1101.34 -2.48079 1101.32C-1.7361 1101.3 -0.607143 1101.25 0.0500805 1101.25C1.30096 1101.22 2.84338 1101.14 5.54919 1101.05C9.88488 1100.86 9.60668 1100.81 10.0267 1102.12C11.421 1106.73 17.0239 1108.68 20.4747 1105.76L21.7134 1104.72L30.9637 1110.77C36.0377 1114.08 50.0972 1123.29 62.1785 1131.16C74.2651 1139.06 84.0953 1145.57 84.0475 1145.64C84.0289 1145.71 79.2971 1144.54 73.5534 1143.03ZM-50.312 317.447C-50.7494 317.517 -85.0633 328.441 -91.9982 330.698C-92.4489 330.871 -95.7228 331.901 -99.2486 333.039C-102.78 334.144 -107.042 335.535 -108.779 336.083C-110.486 336.626 -115.806 338.321 -120.589 339.828C-125.371 341.336 -130.095 342.834 -131.118 343.167C-134.581 344.328 -139.503 345.892 -156.721 351.347C-166.198 354.348 -174.278 356.924 -174.676 357.055C-175.296 357.289 -175.498 357.152 -176.109 356.135C-176.765 355.023 -178.398 353.595 -179.622 353.047C-180.102 352.853 -180.071 351.733 -179.375 342.432C-178.943 336.72 -178.12 326.147 -177.599 318.934C-177.048 311.717 -176.57 305.727 -176.493 305.647C-176.421 305.535 -174.829 305.584 -172.918 305.752C-171.037 305.924 -166.431 306.303 -162.669 306.648C-155.027 307.319 -130.76 309.489 -119.895 310.49C-107.033 311.644 -84.1308 313.695 -71.3719 314.764C-67.6145 315.076 -62.8475 315.53 -60.7515 315.736C-58.6555 315.942 -55.6533 316.205 -54.074 316.358C-52.4947 316.512 -50.9499 316.636 -50.6425 316.689C-50.0861 316.802 -49.8164 317.368 -50.312 317.447ZM-39.5811 445.212C-39.9062 457.023 -40.8156 490.248 -40.9968 496.224C-41.0539 497.551 -41.269 505.56 -41.4979 514.044C-41.8302 527.68 -42.0453 535.689 -42.3672 546.958C-42.6575 558.425 -42.7712 560.707 -43.0097 560.712C-43.2827 560.688 -63.5841 557.512 -99.5634 551.841C-108.583 550.411 -119.841 548.628 -124.563 547.896L-133.182 546.537L-133.797 544.743C-134.17 543.721 -134.553 542.633 -134.698 542.285C-134.934 541.748 -132.697 539.093 -120.487 525.315C-112.533 516.34 -98.834 500.838 -90.0492 490.885C-81.2644 480.933 -72.6573 471.178 -70.9088 469.209C-69.1604 467.24 -62.0232 459.139 -55.0054 451.225L-42.2726 436.79L-41.1789 437.46C-40.5803 437.837 -39.9102 438.102 -39.7061 438.069C-39.4728 438.032 -39.3724 438.286 -39.3995 438.865C-39.4185 439.307 -39.5302 442.163 -39.5811 445.212ZM27.1036 905.511C25.109 939.991 16.3351 1088.28 16.1631 1090.57C16.0716 1091.87 16.0239 1091.94 14.8868 1092.12L13.6623 1092.32L7.81194 1078.72C-11.09 1034.91 -25.9206 1000.49 -27.3482 997.166C-28.2205 995.075 -36.0244 976.927 -44.7035 956.858C-81.3361 871.887 -83.7258 866.288 -83.397 866.1C-82.7394 865.725 -81.2396 863.323 -81.0424 862.311C-80.808 861.159 -80.6967 861.107 -78.6112 861.247C-77.8269 861.291 -72.8874 861.515 -67.6855 861.697C-62.4783 861.913 -53.4473 862.294 -47.6652 862.552C-41.8538 862.806 -32.4624 863.198 -26.7439 863.433C-21.0305 863.635 -14.5859 863.922 -12.4474 864.02C-10.2797 864.113 -6.21206 864.307 -3.41635 864.401C-0.586203 864.523 4.35327 864.748 7.57296 864.875C10.7927 865.003 15.6102 865.212 18.2549 865.297L23.0672 865.474L23.4978 866.858C23.7408 867.63 24.3834 868.845 24.918 869.571C25.8733 870.871 27.9495 872.262 28.7075 872.141C28.9408 872.104 29.0651 872.321 29.0356 872.697C28.9955 873.007 28.1266 887.777 27.1036 905.511ZM25.7352 858.594C25.4302 858.744 24.7641 859.627 24.2491 860.521C23.7102 861.451 23.1449 862.218 22.9991 862.241C22.8533 862.264 20.6674 861.87 18.1637 861.358C15.6599 860.846 8.18827 859.37 1.55124 858.066C-5.05139 856.79 -12.7085 855.276 -15.4321 854.698C-18.1505 854.153 -31.8299 851.439 -45.8406 848.711C-59.8513 845.983 -71.4376 843.645 -71.57 843.565C-71.7368 843.456 -64.9495 835.411 -56.4829 825.712C-48.0508 815.985 -35.7954 801.93 -29.2551 794.397C-19.6078 783.293 -17.3102 780.831 -16.8838 781.067C-15.4033 781.911 -13.8111 782.333 -12.5177 782.193C-11.5212 782.068 -10.9648 782.182 -10.7955 782.493C-10.6659 782.742 -7.7756 788.666 -4.35641 795.655C-0.93723 802.644 3.19593 811.106 4.86726 814.455C6.53855 817.803 11.2403 827.391 15.3285 835.759C19.4167 844.128 23.5235 852.426 24.4412 854.239C26.3664 858.053 26.4219 858.214 25.7352 858.594ZM-54.018 447.114C-59.6666 453.491 -66.0981 460.77 -68.3029 463.251C-70.5368 465.736 -75.777 471.676 -80.0036 476.474C-84.201 481.267 -91.2904 489.293 -95.7478 494.33C-100.205 499.368 -107.135 507.267 -111.19 511.834C-115.214 516.397 -122.559 524.7 -127.467 530.283C-132.376 535.866 -136.469 540.372 -136.567 540.32C-136.71 540.174 -135.485 537.173 -128.674 521.049C-126.833 516.666 -119.452 499.234 -112.325 482.281C-105.191 465.362 -98.1245 448.588 -96.6235 445.07C-95.1278 441.52 -93.1964 436.954 -92.3251 434.922C-90.4281 430.328 -87.2375 422.79 -84.2699 415.727L-82.0065 410.432L-79.5432 411.626C-78.1817 412.287 -69.9046 416.371 -61.1136 420.676L-45.1816 428.503L-44.9483 430.899C-44.8251 432.231 -44.5113 433.634 -44.2918 434.071C-44.0431 434.505 -43.8131 435.009 -43.7868 435.173C-43.7552 435.371 -48.3693 440.738 -54.018 447.114ZM76.6818 1255.21C76.4158 1256.17 76.3004 1257.51 76.4057 1258.16L76.5953 1259.35L70.667 1261.92C67.3928 1263.32 59.1685 1266.87 52.4025 1269.81C29.2807 1279.85 25.28 1281.57 14.7889 1286.09C9.02508 1288.56 2.6753 1291.3 0.665619 1292.2C-1.31493 1293.09 -6.5406 1295.38 -10.9337 1297.26C-15.3216 1299.18 -22.5383 1302.29 -27.0084 1304.26C-31.4546 1306.18 -37.0779 1308.6 -39.4508 1309.66C-41.829 1310.68 -50.891 1314.59 -59.5846 1318.38C-70.0412 1322.93 -75.4629 1325.11 -75.6402 1324.94C-75.7885 1324.76 -75.4645 1324.16 -74.9604 1323.58C-73.7347 1322.27 -44.6315 1291.83 -27.764 1274.27C-20.5134 1266.69 -10.5992 1256.32 -5.72836 1251.25C26.3462 1217.71 31.9333 1211.88 32.1427 1211.88C32.3176 1211.86 77.1106 1253.22 77.1474 1253.45C77.1474 1253.45 76.9478 1254.26 76.6818 1255.21ZM9.0088 862.821C6.12036 862.708 0.733014 862.488 -2.99812 862.341C-12.151 861.945 -14.952 861.818 -22.8674 861.495C-26.5985 861.348 -33.764 861.04 -38.8201 860.835C-43.8762 860.629 -52.2739 860.282 -57.481 860.066C-62.6829 859.884 -67.9828 859.65 -69.215 859.61C-70.4525 859.538 -73.4973 859.382 -75.9962 859.275C-78.4659 859.163 -80.5461 859.056 -80.6097 859.032C-80.6785 858.976 -80.8794 858.467 -81.0617 857.888C-81.2147 857.304 -81.5505 856.513 -81.77 856.075C-81.9895 855.637 -82.0923 855.181 -81.9968 855.03C-81.7526 854.687 -74.496 846.398 -73.8805 845.759C-73.5197 845.397 -70.7879 845.839 -60.3197 847.917C-53.0919 849.363 -36.9723 852.565 -24.4984 855.032C-12.0244 857.499 1.84045 860.25 6.28633 861.127C10.7322 862.005 14.3593 862.811 14.3115 862.886C14.2637 862.961 11.8628 862.906 9.0088 862.821ZM-43.5172 589.716L-44.0635 610.246L-45.3095 610.682C-45.959 610.921 -46.9985 611.526 -47.5528 611.987C-48.4255 612.7 -48.7065 612.813 -49.1434 612.511C-49.7075 612.162 -89.6343 582.726 -92.592 580.496C-93.442 579.854 -102.662 573.049 -113.101 565.358C-136.276 548.315 -133.986 550.112 -133.617 549.242C-133.303 548.583 -132.601 548.674 -116.192 551.255C-106.773 552.757 -86.5877 555.951 -71.3152 558.342C-56.0428 560.733 -43.4041 562.734 -43.2186 562.772C-42.7841 562.872 -42.7821 563.446 -43.5172 589.716ZM-17.5755 768.506L-18.5648 769.239L-32.1798 758.135C-39.673 752.034 -58.3426 736.805 -73.7025 724.325C-89.0624 711.845 -101.573 701.478 -101.507 701.332C-101.432 701.05 -91.6363 687.32 -67.1031 652.989C-62.4109 646.427 -56.0095 637.464 -52.9309 633.153C-49.8284 628.806 -47.1851 625.139 -47.0312 624.98C-46.8721 624.853 -46.199 624.948 -45.505 625.175C-44.8348 625.44 -44.0585 625.62 -43.7669 625.573C-43.5045 625.531 -43.1972 625.583 -43.1125 625.739C-42.8558 626.036 -41.6699 632.334 -35.1113 667.947C-34.4447 671.557 -33.4855 676.81 -32.9505 679.597C-32.4155 682.383 -31.3827 688.098 -30.6317 692.235C-29.8756 696.406 -28.8768 701.72 -28.4446 704.05C-27.978 706.408 -26.9979 711.793 -26.2311 716.029C-25.4644 720.265 -24.5158 725.453 -24.0967 727.514C-23.7066 729.581 -22.5973 735.587 -21.6434 740.807C-20.6843 746.06 -19.417 753.055 -18.7633 756.397C-18.1388 759.743 -17.3955 763.645 -17.1003 765.119L-16.6207 767.745L-17.5755 768.506ZM-19.8131 771.905C-19.9431 772.027 -20.0739 772.892 -20.1305 773.848C-20.2224 775.518 -20.2463 775.556 -21.2614 775.752C-21.8737 775.849 -22.8545 776.074 -23.4854 776.242C-24.7127 776.607 -28.9541 777.758 -43.6978 781.669C-48.8271 783.063 -53.588 784.331 -54.3011 784.546C-55.3879 784.855 -58.5132 785.692 -67.351 788.017C-68.3026 788.236 -70.3649 788.803 -71.9422 789.224C-73.5194 789.645 -75.6401 790.22 -76.6739 790.487C-77.7077 790.753 -79.6825 791.305 -81.114 791.703C-82.5163 792.096 -84.7244 792.685 -85.9915 792.989C-87.2532 793.326 -88.6608 793.686 -89.1459 793.831C-89.5966 794.005 -91.5476 794.519 -93.4403 795.025C-95.333 795.53 -97.5172 796.082 -98.3177 796.311C-99.0891 796.535 -102.705 797.485 -106.35 798.439C-109.965 799.389 -113.406 800.31 -113.944 800.498C-114.488 800.652 -115.832 801.036 -116.953 801.316C-119.37 801.905 -127.917 804.184 -129.717 804.708C-130.435 804.89 -131.779 805.274 -132.725 805.526C-133.677 805.746 -136.715 806.569 -139.471 807.28C-142.228 807.991 -145.576 808.932 -146.92 809.315C-148.264 809.699 -150.239 810.251 -151.36 810.532C-153.977 811.187 -158.907 812.515 -164.27 813.947C-166.618 814.592 -170.176 815.532 -172.156 816.052C-174.136 816.571 -176.204 817.104 -176.742 817.291C-177.285 817.446 -178.775 817.853 -180.042 818.157L-182.338 818.76L-183.063 817.592C-183.907 816.24 -184.196 816.861 -180.112 811.173C-177.415 807.465 -122.168 730.145 -118.553 725.073C-111.138 714.596 -102.987 703.292 -102.871 703.273C-102.492 703.212 -19.7192 770.808 -19.6508 771.237C-19.6086 771.5 -19.6831 771.783 -19.8131 771.905ZM-32.8153 795.506C-40.3983 804.186 -47.4427 812.306 -48.5093 813.49C-49.5998 814.712 -55.6121 821.62 -61.8977 828.875C-68.2125 836.135 -73.5959 842.301 -73.909 842.587C-74.3758 843.033 -76.5273 842.668 -90.9486 839.803C-100.031 837.977 -124.11 833.242 -144.485 829.234C-164.83 825.22 -181.639 821.825 -181.776 821.711C-182.396 821.202 -181.555 820.662 -179.284 820.097C-177.934 819.746 -176.328 819.32 -175.697 819.152C-175.071 818.95 -173.004 818.417 -171.111 817.912C-169.218 817.407 -164.89 816.242 -161.502 815.363C-158.12 814.45 -154.679 813.529 -153.907 813.304C-153.107 813.075 -150.268 812.317 -147.598 811.62C-144.905 810.886 -142.066 810.128 -141.29 809.936C-140.489 809.707 -134.811 808.191 -128.672 806.568C-122.503 804.94 -116.831 803.392 -116.054 803.2C-115.253 802.971 -108.231 801.071 -100.427 799.013C-92.6287 796.922 -85.5723 795.051 -84.8009 794.826C-84.0003 794.597 -79.7007 793.437 -75.1917 792.277C-70.688 791.084 -65.7814 789.793 -64.2969 789.353C-62.8071 788.946 -59.3133 787.982 -56.5565 787.272C-53.805 786.528 -51.0826 785.789 -50.5391 785.634C-49.9957 785.48 -47.8459 784.9 -45.8075 784.371C-42.2157 783.459 -34.4753 781.377 -31.4666 780.559C-28.89 779.843 -20.426 777.612 -20.0178 777.546C-19.5805 777.477 -18.6413 779.05 -18.9094 779.43C-18.9758 779.576 -25.2376 786.794 -32.8153 795.506ZM-49.9609 616.19C-50.0888 616.886 -50.1507 617.808 -50.0823 618.236C-49.9506 619.06 -49.4417 618.877 -61.3654 622.472C-63.1654 622.997 -65.2172 623.629 -65.9303 623.844C-66.6434 624.059 -69.3208 624.893 -71.916 625.679C-74.5113 626.465 -77.0773 627.247 -77.6155 627.435C-78.1589 627.589 -80.7833 628.38 -83.4608 629.214C-86.1143 630.009 -92.4738 631.938 -97.5769 633.497C-102.685 635.023 -110.553 637.429 -115.113 638.833C-119.648 640.2 -126.464 642.269 -130.223 643.445C-133.987 644.587 -140.861 646.665 -145.479 648.079C-150.102 649.46 -154.235 650.728 -154.656 650.897C-155.282 651.099 -155.478 650.995 -155.838 650.241C-156.097 649.742 -156.941 648.762 -157.743 648.045L-159.176 646.754L-157.923 640.37C-157.201 636.842 -155.939 630.524 -155.089 626.3C-153.48 618.407 -151.152 606.783 -147.254 587.204C-146.052 581.065 -144.092 571.257 -142.906 565.391L-140.78 554.745L-138.771 554.221C-137.416 553.904 -136.414 553.439 -135.764 552.829C-134.931 552.054 -134.674 551.979 -134.243 552.248C-133.943 552.436 -125.136 558.902 -114.721 566.631C-104.278 574.355 -94.0405 581.91 -91.9432 583.433C-77.5856 593.945 -49.771 614.571 -49.7447 614.736C-49.7236 614.868 -49.8277 615.526 -49.9609 616.19ZM-52.5212 629.168C-54.7479 632.261 -57.6062 636.266 -58.8696 638.09C-60.1673 639.885 -68.5698 651.669 -77.5614 664.256C-86.5531 676.844 -96.0092 690.08 -98.5703 693.699L-103.209 700.219L-109.556 695.117C-113.057 692.297 -124.813 682.722 -135.714 673.82C-153.592 659.242 -155.525 657.625 -155.264 657.009C-155.113 656.647 -154.91 655.668 -154.838 654.812C-154.766 653.956 -154.701 653.236 -154.683 653.165C-154.611 653.052 -148.63 651.184 -137.595 647.833C-134.286 646.831 -129.552 645.398 -127.044 644.626C-124.536 643.854 -116.067 641.284 -108.223 638.915C-100.379 636.546 -88.7755 633.003 -82.4212 631.041C-76.0617 629.112 -70.3622 627.357 -69.7313 627.188C-69.1057 626.987 -66.5396 626.205 -64.0318 625.433C-54.7138 622.558 -49.5711 621.061 -49.497 621.15C-49.0921 621.626 -48.5077 622.85 -48.4895 623.152C-48.4818 623.387 -50.2946 626.076 -52.5212 629.168ZM-91.2571 427.386C-94.2247 434.449 -98.7835 445.213 -101.339 451.298C-103.895 457.383 -111.132 474.589 -117.447 489.52C-123.727 504.478 -130.998 521.657 -133.554 527.742C-136.11 533.827 -138.254 538.934 -138.35 539.084C-138.445 539.235 -139.081 539.37 -139.744 539.341L-140.971 539.334L-141.498 537.155C-142.052 534.81 -142.654 532.169 -143.751 527.175C-144.128 525.377 -144.54 523.55 -144.672 523.098C-144.804 522.647 -145.31 520.227 -145.832 517.709C-146.325 515.186 -146.839 512.903 -146.94 512.648C-147.04 512.394 -147.467 510.469 -147.916 508.412C-148.335 506.35 -149.087 502.956 -149.564 500.904C-150.617 496.375 -151.337 493.179 -152.136 489.488C-152.637 487.102 -153.6 482.762 -156.514 469.577C-156.818 468.24 -157.255 466.249 -157.517 465.175C-157.749 464.097 -158.247 461.913 -158.598 460.28C-158.943 458.679 -159.418 456.457 -159.679 455.384C-160.101 453.492 -160.471 451.929 -161.737 446.252C-162.056 444.816 -163.765 437.115 -165.522 429.117C-167.307 421.124 -168.929 413.781 -169.175 412.806C-169.391 411.827 -169.879 409.709 -170.23 408.076C-170.575 406.475 -171.327 403.081 -171.878 400.568C-173.582 392.899 -173.891 391.529 -174.555 388.493C-174.93 386.897 -175.347 385.038 -175.505 384.421C-175.664 383.805 -176.178 381.522 -176.613 379.361C-177.048 377.201 -177.583 374.786 -177.773 373.971C-179.235 368.19 -179.351 367.466 -178.739 367.368C-178.418 367.316 -177.564 366.673 -176.848 365.917L-175.569 364.563L-169.628 367.5C-162.585 370.97 -163.197 370.696 -135.145 384.391C-123.014 390.325 -110.006 396.694 -106.269 398.563C-102.507 400.395 -96.0817 403.558 -91.9974 405.541C-87.8787 407.552 -84.3718 409.289 -84.1414 409.421C-83.8421 409.61 -84.0284 410.316 -84.7908 412.093C-85.354 413.433 -88.2604 420.318 -91.2571 427.386ZM-152.063 79.2742C-152.985 83.9831 -154.205 90.1926 -154.793 93.0574C-155.348 95.9505 -156.744 102.931 -157.844 108.581C-158.944 114.231 -160.018 119.674 -160.255 120.624C-160.457 121.602 -160.665 122.548 -160.687 122.788C-160.708 123.028 -161.598 122.697 -162.888 121.923C-164.074 121.234 -172.102 116.469 -180.717 111.392C-189.338 106.282 -198.022 101.148 -200.037 99.9501C-202.024 98.747 -210.737 93.6181 -219.357 88.5083C-239.07 76.8588 -243.797 74.0326 -243.818 73.9009C-243.829 73.835 -243.772 73.2515 -243.692 72.6305L-243.516 71.4873L-240.248 71.1678C-238.449 71.0154 -236.177 70.8214 -235.199 70.7664C-234.221 70.7115 -229.761 70.3704 -225.301 70.0292C-220.84 69.6881 -216.322 69.3376 -215.256 69.2687C-213.457 69.1163 -195.178 67.6818 -190.012 67.2617C-188.714 67.1556 -187.171 67.078 -186.607 67.0554C-186.042 67.0328 -184.092 66.89 -182.326 66.7092C-180.532 66.5239 -178.494 66.3671 -177.755 66.3165C-174.641 66.1567 -156.036 64.7039 -155.132 64.5595C-154.607 64.4756 -154.406 64.6124 -154.311 65.2055C-154.082 66.4528 -152.759 68.3701 -151.488 69.2145C-150.844 69.686 -150.312 70.2092 -150.344 70.3833C-150.342 70.5856 -151.141 74.5653 -152.063 79.2742ZM23.2638 1218.07C19.4461 1222.06 10.2961 1231.59 2.96852 1239.25C-4.36428 1246.88 -14.764 1257.77 -20.1734 1263.39C-25.5536 1269.02 -34.4437 1278.31 -39.9009 1284.02C-45.3581 1289.72 -55.9647 1300.81 -63.47 1308.66L-77.1248 1322.94L-78.1364 1322.23C-78.7058 1321.84 -79.4792 1321.49 -79.9032 1321.46C-80.7856 1321.37 -80.7434 1321.63 -80.7412 1316.97C-80.7761 1314.88 -80.8274 1308.19 -80.8819 1302.05C-80.9957 1289.37 -81.1254 1276.58 -81.2771 1259.54C-81.4585 1238.01 -81.5976 1221.61 -81.7603 1204.88C-81.8355 1195.8 -81.9672 1182.44 -82.0206 1175.19C-82.0978 1167.97 -82.1674 1158.55 -82.2238 1154.27C-82.2459 1150.02 -82.3122 1142.49 -82.352 1137.57C-82.3919 1132.64 -82.4898 1124.92 -82.53 1120.36C-82.565 1115.84 -82.5555 1111.78 -82.4968 1111.4C-82.4247 1110.92 -82.0826 1110.63 -81.4225 1110.45C-80.9082 1110.3 -80.0996 1109.94 -79.6805 1109.57C-78.9378 1108.97 -78.8451 1108.99 -78.1223 1109.59C-77.704 1109.96 -69.2108 1117.83 -59.206 1127.11C-49.2303 1136.39 -39.9297 1145.01 -38.5318 1146.27C-37.1339 1147.54 -29.1623 1154.95 -20.7777 1162.7C-12.417 1170.48 -4.45074 1177.86 -3.05284 1179.12C11.0955 1192.07 30.4378 1210.2 30.358 1210.45C30.2969 1210.63 27.1053 1214.04 23.2638 1218.07ZM-163.436 137.013L-165.216 146.083L-166.838 146.41C-167.737 146.587 -168.919 147.046 -169.455 147.436C-170.025 147.798 -170.489 148.074 -170.524 148.046C-170.563 147.985 -174.815 143.832 -179.954 138.808C-185.092 133.784 -190.196 128.788 -191.26 127.741C-192.325 126.695 -196.571 122.576 -200.645 118.598C-204.749 114.624 -214.454 105.16 -222.242 97.5856C-230.002 90.0066 -238.14 82.1165 -240.268 80.0238C-242.42 77.9687 -243.797 76.4655 -243.312 76.6921C-242.332 77.2113 -174.604 117.274 -165.041 123.044L-161.143 125.361L-161.385 126.65C-161.542 127.351 -162.44 132.022 -163.436 137.013ZM-169.271 186.94C-170.305 200.114 -171.474 215.439 -171.933 220.986C-172.363 226.529 -172.855 232.993 -173.016 235.351C-174.035 248.995 -178.25 302.887 -178.316 303.033C-178.417 303.15 -212.679 300.179 -233.53 298.24C-237.537 297.866 -245.516 297.148 -251.276 296.649C-257.037 296.151 -266.439 295.322 -272.199 294.823L-282.634 293.889L-283.062 292.707C-283.289 292.034 -283.773 291.064 -284.125 290.546C-284.715 289.66 -284.731 289.561 -284.291 288.95C-284.046 288.607 -280.3 284.359 -275.991 279.515C-271.653 274.665 -267.315 269.816 -266.36 268.683C-265.371 267.579 -262.945 264.793 -260.913 262.542C-258.886 260.258 -249.942 250.179 -241.022 240.137C-232.102 230.095 -223.158 220.016 -221.131 217.732C-219.099 215.481 -216.265 212.257 -214.795 210.603C-213.325 208.949 -209.223 204.307 -205.679 200.294C-202.129 196.314 -192.829 185.839 -185.024 177.057C-177.218 168.274 -170.598 160.864 -170.314 160.582C-169.871 160.174 -169.598 160.198 -168.565 160.674C-167.585 161.194 -167.368 161.429 -167.404 162.144C-167.417 162.62 -168.266 173.771 -169.271 186.94ZM-172.061 150.961C-172.3 151.709 -172.497 152.349 -172.545 152.424C-172.588 152.532 -174.546 152.44 -201.76 150.909C-210.871 150.406 -224.385 149.66 -231.776 149.253C-239.166 148.846 -247.916 148.352 -251.234 148.172C-254.552 147.993 -258.503 147.78 -259.979 147.711C-261.484 147.648 -262.883 147.5 -263.108 147.401C-263.368 147.273 -263.138 145.344 -262.304 140.649C-261.632 136.994 -258.902 121.522 -256.204 106.223L-251.291 78.4064L-249.867 78.1452C-249.051 78.0147 -247.906 77.6965 -247.256 77.4576L-246.098 77.0359L-221.904 100.64C-208.587 113.616 -196.576 125.347 -195.197 126.681C-193.818 128.015 -187.946 133.699 -182.177 139.299C-176.409 144.898 -171.665 149.512 -171.66 149.545C-171.625 149.574 -171.822 150.213 -172.061 150.961ZM-179.55 167.904C-184.031 172.979 -195.055 185.384 -204.052 195.506C-213.054 205.595 -221.542 215.162 -222.929 216.769C-224.322 218.343 -235.039 230.429 -246.75 243.586C-258.456 256.777 -272.165 272.213 -277.203 277.918L-286.373 288.27L-287.308 287.845L-288.219 287.382L-285.297 270.865C-283.698 261.79 -280.616 244.403 -278.488 232.271C-276.332 220.134 -274.076 207.305 -273.447 203.758C-272.818 200.211 -270.416 186.615 -268.115 173.509C-265.814 160.403 -263.914 149.658 -263.89 149.62C-263.866 149.583 -260.675 149.715 -256.783 149.938C-252.89 150.16 -244.808 150.592 -238.835 150.921C-232.862 151.251 -225.866 151.619 -223.298 151.783C-220.736 151.915 -215.698 152.191 -212.137 152.399C-208.581 152.574 -205.048 152.786 -204.293 152.835C-203.538 152.883 -200.006 153.096 -196.449 153.271C-192.888 153.479 -186.072 153.842 -181.303 154.128L-172.645 154.602L-172.249 155.958C-172.017 156.665 -171.676 157.489 -171.517 157.733C-171.329 157.974 -171.247 158.299 -171.285 158.44C-171.327 158.548 -175.039 162.824 -179.55 167.904ZM-79.7277 849.396C-81.6964 851.671 -83.368 853.56 -83.4846 853.578C-83.572 853.592 -84.2183 853.29 -84.9335 852.931C-87.5794 851.53 -91.2137 852.55 -92.9205 855.154L-93.7088 856.395L-103.955 852.525C-109.555 850.413 -123.621 845.092 -135.174 840.721C-146.726 836.35 -160.636 831.071 -166.104 829.039C-171.547 826.97 -176.008 825.25 -175.955 825.208C-175.913 825.099 -114.881 837.106 -92.8797 841.564C-85.7446 842.992 -79.0492 844.287 -77.9761 844.454C-76.9374 844.592 -76.0923 844.828 -76.1004 844.965C-76.1377 845.106 -77.7642 847.089 -79.7277 849.396ZM-112.063 712.547C-116.224 718.315 -120.256 723.96 -121.055 725.135C-122.61 727.377 -125.344 731.227 -157.093 775.598C-168.306 791.311 -178.911 806.15 -180.668 808.627C-185.451 815.372 -185.225 815.099 -185.951 814.675C-186.642 814.278 -186.647 814.245 -185.314 806.497C-184.991 804.587 -182.631 789.985 -180.062 774.065C-174.372 738.758 -168.576 702.995 -165.311 683.01C-163.959 674.82 -162.655 666.705 -162.393 664.974L-161.929 661.892L-160.336 661.57C-159.35 661.379 -158.289 660.905 -157.6 660.356L-156.491 659.435L-130.569 680.567C-116.306 692.175 -104.608 701.76 -104.592 701.859C-104.571 701.99 -107.931 706.785 -112.063 712.547ZM-179.23 315.647C-179.679 321.26 -180.496 331.866 -181.089 339.191L-182.126 352.535L-183.552 352.966C-185.09 353.448 -185.978 354.063 -186.758 355.167C-187.318 355.967 -183.219 358.42 -245.209 320.582C-283.078 297.474 -284.079 296.823 -282.393 296.148C-282.141 296.04 -271.838 296.894 -259.522 298.001C-247.2 299.14 -235.615 300.161 -233.798 300.31C-231.951 300.454 -224.64 301.11 -217.485 301.724C-189.363 304.258 -178.748 305.197 -178.602 305.174C-178.369 305.136 -178.368 304.764 -179.23 315.647ZM-143.197 539.994C-143.362 540.088 -148.876 532.15 -155.401 522.38C-161.96 512.582 -167.964 503.641 -168.752 502.45C-170.671 499.614 -174.592 493.787 -178.569 487.799C-180.344 485.11 -182.739 481.539 -183.874 479.862C-185.009 478.185 -187.25 474.826 -188.896 472.386C-190.512 469.941 -195.148 463.012 -199.193 456.968C-206.66 445.795 -207.949 443.906 -216.953 430.41C-219.773 426.231 -224.652 418.902 -227.865 414.144C-233.085 406.362 -234.056 404.591 -233.181 404.451C-233.035 404.428 -231.102 402.869 -228.884 401.028C-222.078 395.345 -219.89 393.508 -210.567 385.801C-205.626 381.734 -200.642 377.558 -199.48 376.596C-195.456 373.148 -191.316 369.682 -188.881 367.705L-186.441 365.76L-185.488 366.487C-184.431 367.298 -183.056 367.855 -181.779 367.989C-181.326 368.018 -180.929 368.258 -180.892 368.489C-180.829 368.884 -177.015 386.014 -176.094 390.091C-175.801 391.362 -174.828 395.768 -173.931 399.882C-173 404.024 -172.093 408.204 -171.848 409.179C-171.631 410.158 -171.154 412.21 -170.819 413.745C-170.096 417.144 -168.218 425.527 -167.575 428.432C-167.327 429.609 -166.849 431.661 -166.546 432.998C-166.243 434.335 -165.718 436.684 -165.383 438.218C-165.048 439.753 -164.399 442.69 -163.922 444.743C-163.444 446.795 -162.719 450.024 -162.326 451.921C-161.933 453.818 -161.434 456.002 -161.244 456.817C-161.054 457.631 -160.556 459.815 -160.163 461.712C-159.77 463.609 -159.272 465.794 -159.082 466.608C-158.892 467.422 -158.414 469.475 -158.053 471.174C-157.692 472.873 -157.188 475.091 -156.972 476.07C-156.494 478.122 -156.349 478.842 -152.672 495.487C-151.164 502.308 -149.476 509.877 -148.94 512.292C-148.405 514.707 -147.664 518.035 -147.318 519.636C-146.967 521.269 -146.516 523.157 -146.342 523.872C-146.168 524.588 -145.654 526.871 -145.205 528.928C-144.786 530.99 -144.137 533.927 -143.773 535.457C-142.916 539.138 -142.84 539.802 -143.197 539.994ZM-257.925 105.18C-263.244 135.326 -263.964 139.428 -264.817 144.193C-265.294 147.007 -265.435 147.435 -265.986 147.354C-266.352 147.311 -268.798 147.161 -271.448 147.044C-278.049 146.713 -282.394 146.462 -294.375 145.775C-307.081 145.035 -319.265 144.38 -323.635 144.166C-325.442 144.083 -327.162 143.986 -327.411 143.925C-327.928 143.872 -329.271 140.708 -328.95 140.285C-328.849 140.167 -325.183 136.912 -320.769 133.098C-316.355 129.284 -301.945 116.743 -288.743 105.24C-275.542 93.7366 -262.552 82.4025 -259.873 80.0822L-255.017 75.8595L-254.063 76.5857C-253.552 76.977 -253.123 77.4153 -253.102 77.5471C-253.087 77.646 -255.254 90.089 -257.925 105.18ZM-256.743 72.351C-256.53 73.1278 -256.292 73.867 -256.194 73.9189C-256.051 74.065 -257.799 75.6621 -267.465 84.0323C-271.059 87.1747 -277.385 92.6796 -281.51 96.2447C-285.629 99.8427 -297.491 110.186 -307.889 119.213C-318.281 128.274 -327.599 136.386 -328.567 137.25C-329.559 138.152 -330.461 138.871 -330.549 138.885C-330.671 138.87 -331.092 138.667 -331.494 138.394L-332.23 137.903L-330.925 131.478C-330.174 127.945 -326.53 110.333 -322.793 92.3677C-319.057 74.4028 -314.574 52.8722 -312.848 44.5883C-311.127 36.2714 -309.647 29.4459 -309.53 29.4272C-309.443 29.4133 -303.511 33.6013 -296.385 38.7135C-289.23 43.821 -277.374 52.3335 -270.013 57.6108L-256.611 67.1939L-256.88 69.0616C-257.046 70.2707 -256.989 71.3766 -256.743 72.351ZM-269.101 168.463C-270.919 178.789 -272.852 189.708 -273.409 192.77C-274.928 201.224 -283.921 252.162 -285.003 258.485C-289.744 286.071 -289.96 287.153 -290.776 287.284C-291.505 287.4 -291.584 287.278 -292.068 285.564C-292.324 284.524 -293.095 281.944 -293.734 279.816C-296.208 271.629 -297.674 266.761 -302.026 252.251C-304.511 243.998 -307.944 232.619 -309.658 226.946C-313.192 215.313 -318.492 197.677 -320.871 189.712C-321.729 186.774 -323.478 181.073 -324.7 176.977C-325.947 172.919 -327.23 168.63 -327.566 167.467C-327.901 166.304 -329.031 162.599 -330.056 159.181C-331.11 155.768 -331.978 152.764 -332.021 152.501C-332.063 152.237 -331.731 151.88 -331.286 151.674C-330.22 151.233 -328.328 148.667 -328.072 147.274C-327.952 146.714 -327.676 146.197 -327.472 146.165C-326.947 146.081 -322.031 146.343 -273.225 149.017C-266.863 149.352 -265.829 149.457 -265.803 149.622C-265.793 149.688 -267.278 158.17 -269.101 168.463ZM-318.296 61.5764C-329.938 117.635 -334 136.936 -334.215 137.274C-334.353 137.533 -334.474 137.147 -334.516 136.14C-334.531 135.297 -334.774 132.093 -335.035 128.958C-335.292 125.857 -335.567 122.454 -335.637 121.452C-335.922 117.612 -336.026 116.209 -336.239 113.945C-336.435 111.78 -336.579 109.945 -336.814 106.604C-336.872 105.869 -336.984 104.232 -337.102 102.933C-337.214 101.667 -337.332 99.996 -337.389 99.2619C-337.447 98.5277 -337.559 96.89 -337.677 95.591C-337.79 94.325 -337.928 92.5225 -338.017 91.5907C-338.072 90.6871 -338.59 84.0796 -339.168 76.9073C-339.741 69.7679 -340.269 63.0945 -340.339 62.092C-340.462 60.3884 -340.923 54.8868 -341.26 50.7171C-341.685 45.8178 -342.1 40.4104 -342.437 35.8689C-342.665 33.1346 -342.94 29.7319 -343.039 28.3624C-343.314 25.3316 -343.814 19.0252 -343.928 17.1851C-343.986 16.451 -344.114 14.7144 -344.242 13.3495C-344.533 9.84808 -344.495 9.33523 -343.912 9.24204C-343.62 9.19544 -342.78 8.65563 -342.037 8.06389L-340.653 6.99791L-325.964 17.5242L-311.309 28.0221L-312.966 35.9909C-313.882 40.361 -316.29 51.8624 -318.296 61.5764Z" fill="url(#paint0_linear_156_197)"/>
<defs>
<linearGradient id="paint0_linear_156_197" x1="-286.583" y1="671.981" x2="401.83" y2="561.964" gradientUnits="userSpaceOnUse">
<stop offset="0.927083" stop-color="white"/>
</linearGradient>
</defs>
</svg>
