<svg width="705" height="1024" viewBox="0 0 705 1024" fill="none" xmlns="http://www.w3.org/2000/svg">
<path d="M704.56 1169.07C702.744 1164.86 697.831 1162.91 693.263 1164.53C692.029 1164.96 694.861 1168.17 671.588 1140.14C665.301 1132.6 658.131 1123.97 655.663 1120.97C653.161 1118 645.108 1108.28 637.756 1099.39C630.367 1090.51 621.219 1079.52 617.397 1074.95C613.574 1070.39 609.042 1064.92 607.284 1062.81C605.562 1060.7 601.207 1055.46 597.604 1051.15C594 1046.83 587.973 1039.58 584.188 1035.01C573.063 1021.65 565.319 1012.32 552.3 996.662C545.571 988.578 537.39 978.736 534.129 974.769C530.835 970.842 528.156 967.333 528.116 966.987C528.112 966.637 527.894 966.382 527.67 966.408C527.409 966.439 526.567 965.696 525.819 964.802L524.412 963.108L524.533 964.462C524.639 965.361 524.534 965.759 524.22 965.656C522.628 965.282 440.143 946.034 424.3 942.353C413.856 939.932 402.902 937.36 400.028 936.681C397.153 936.001 389.463 934.204 382.94 932.69L371.06 929.947L370.857 928.217C370.564 925.726 369.665 924.183 367.723 922.762C366.529 921.92 365.375 921.424 363.84 921.219L361.648 920.88L360.696 916.958C360.216 914.805 359.72 912.829 359.609 912.526C359.535 912.219 359.194 910.926 358.924 909.59C358.452 907.506 358.009 905.663 356.631 900.038C356.43 899.29 353.919 888.851 351.073 876.839C342.606 841.424 342.098 839.344 341.843 838.462C341.711 837.986 341.416 836.758 341.182 835.733C340.268 831.807 334.784 808.915 334.504 807.825C334.238 806.839 334.292 806.657 335.502 806.024C340.266 803.5 341.194 797.253 337.362 793.564C335.701 791.97 333.654 791.263 331.022 791.362L328.725 791.422L331.126 767.813C332.47 754.818 334.012 739.974 334.536 734.792C335.06 729.609 335.952 721.121 336.468 715.869C339.033 691.084 339.455 687.281 339.582 685.793C339.667 684.906 340.372 678.053 341.187 670.521C341.965 662.994 343.021 653.013 343.49 648.328C343.96 643.643 344.766 636.041 345.248 631.46C345.729 626.879 346.452 619.849 346.812 615.843C347.595 608.034 348.131 602.955 348.98 595.068C349.3 592.329 350.196 583.56 350.991 575.54C351.791 567.553 352.902 556.76 353.426 551.577C353.95 546.394 355.311 533.221 356.444 522.284C357.539 511.352 358.688 500.554 358.916 498.317C359.301 494.518 359.794 490.041 361.025 477.69L361.557 472.892L363.71 472.253C366.443 471.406 368.085 469.95 369.171 467.297C370.839 463.172 368.734 458.754 364.408 457.298C361.063 456.148 357.787 456.884 355.022 459.383L353.38 460.839L350.622 459.865C349.12 459.305 344.509 457.672 340.374 456.228C336.272 454.746 328.824 452.113 323.82 450.351C318.854 448.584 312.708 446.43 310.227 445.564C307.742 444.663 301.088 442.358 295.451 440.355C289.815 438.351 283.157 436.011 280.676 435.145C278.194 434.279 273.745 432.732 270.825 431.672C265.263 429.66 226.647 416.027 218.81 413.3C216.329 412.433 213.765 411.507 213.095 411.27C212.458 410.994 209.779 410.046 207.182 409.159C202.062 407.375 196.549 405.462 192.211 403.902C190.71 403.342 183.147 400.688 175.463 397.977C148.629 388.502 120.02 378.394 110.248 374.947C104.847 373.02 97.8751 370.577 94.8025 369.5L89.2486 367.557L89.4539 366.41C89.8643 364.117 88.4431 361.022 86.1827 359.464L84.7859 358.505L85.7309 355.939C86.8715 352.788 92.4916 337.291 94.1023 332.998C94.7309 331.275 96.5876 326.181 98.2444 321.637C99.8639 317.097 102.328 310.424 103.677 306.793C104.988 303.166 106.936 297.886 107.96 295.03C111.07 286.457 111.695 284.7 114.013 278.394C115.245 275.057 116.586 271.357 117.011 270.15C118.409 266.302 120.728 259.997 122.189 256.037L123.625 252.185L126.121 251.892C129.992 251.402 132.243 249.664 133.433 246.298C134.962 241.944 131.769 236.952 126.962 236.219L125.46 235.975L119.534 185.529L113.607 135.084L115.211 134.264C120.924 131.453 121.787 124.652 116.899 120.982C114.287 119.009 111.349 118.758 107.469 120.125C106.529 120.481 108.705 122.611 86.3166 98.8985C77.2159 89.2693 63.6681 74.901 56.2067 67.0084C48.7453 59.1158 40.1648 50.0568 37.1836 46.8643C34.2024 43.6718 29.1565 38.3366 25.9728 35.0276C20.7949 29.5325 16.5707 25.083 -0.821272 6.60632C-3.83566 3.45278 -9.8766 -2.9581 -14.3155 -7.62797C-22.2931 -16.0562 -22.3798 -16.1513 -21.7533 -16.9264C-18.5744 -21.0531 -20.5978 -27.0239 -25.7838 -28.7298C-30.5357 -30.2761 -35.366 -27.9899 -36.9152 -23.4935L-37.4814 -21.8836L-40.5235 -21.7366C-42.2163 -21.6781 -44.5465 -21.5797 -45.6723 -21.5176C-46.8022 -21.4901 -49.1656 -21.3528 -50.9288 -21.2509C-52.692 -21.1489 -54.8731 -21.0681 -55.8127 -21.0279C-56.7522 -20.9877 -59.0079 -20.898 -60.8829 -20.783C-62.7206 -20.6723 -65.1998 -20.5565 -66.3256 -20.4944C-68.0929 -20.427 -83.1876 -19.671 -92.7942 -19.1387C-94.4457 -19.0499 -96.5523 -18.9778 -97.4918 -18.9376C-98.4354 -18.932 -104.069 -18.656 -110.074 -18.3363C-116.043 -18.021 -122.048 -17.7013 -123.398 -17.613C-124.751 -17.5592 -127.267 -17.4389 -129.031 -17.337C-130.794 -17.2351 -133.05 -17.1455 -134.101 -17.0922C-135.115 -17.0432 -138.683 -16.8696 -141.986 -16.692C-150.168 -16.2569 -150.433 -16.2608 -150.543 -17.195C-150.722 -18.4016 -152.249 -20.4671 -153.733 -21.5206C-155.543 -22.7811 -157.603 -23.2758 -159.838 -23.0131L-161.664 -22.7987L-166.749 -34.899C-169.573 -41.5825 -172.654 -48.8323 -173.592 -51.0371C-174.531 -53.2418 -179.23 -64.3002 -184.031 -75.5921C-188.795 -86.8883 -194.91 -101.323 -197.62 -107.669C-200.292 -114.02 -202.788 -119.83 -203.105 -120.6C-203.632 -121.871 -203.801 -122.026 -204.77 -121.912C-205.403 -121.838 -205.867 -121.608 -205.843 -121.4C-205.818 -121.193 -202.405 -113.035 -198.275 -103.278C-190.237 -84.3688 -179.152 -58.171 -176.624 -52.084C-175.742 -50.0479 -173.288 -44.2679 -171.147 -39.2229C-163.381 -21.0185 -163.702 -21.8226 -164.423 -21.2117C-164.8 -20.8868 -165.19 -20.6656 -165.38 -20.6784C-166.158 -20.8676 -229.783 -61.5532 -229.828 -61.9338C-229.856 -62.176 -229.127 -64.6469 -228.173 -67.4599C-227.253 -70.2338 -225.799 -74.5787 -224.999 -77.093C-222.179 -85.8778 -212.415 -115.612 -211.532 -118.066C-211.053 -119.455 -210.674 -120.728 -210.694 -120.901C-210.714 -121.074 -211.289 -121.146 -211.96 -121.068L-213.152 -120.928L-218.339 -104.955C-229.082 -71.9832 -231.99 -63.2934 -232.25 -63.2628C-232.474 -63.2365 -235.524 -65.088 -243.244 -70.0389C-244.716 -70.9885 -250.593 -74.7177 -256.304 -78.326C-262.016 -81.9344 -266.79 -84.9514 -266.872 -85.0119C-266.955 -85.0723 -266.804 -85.7214 -266.513 -86.4571C-266.197 -87.301 -266.12 -88.5729 -266.34 -90.1254L-266.62 -92.5128L-260.752 -96.2538C-257.52 -98.3173 -254.076 -100.511 -253.131 -101.148C-252.145 -101.755 -245.294 -106.137 -237.843 -110.871L-224.346 -119.437L-226.668 -119.27C-229.325 -119.063 -227.456 -120.194 -251.654 -104.654C-253.586 -103.41 -258.119 -100.527 -261.704 -98.2466L-268.243 -94.111L-269.243 -94.9056C-272.945 -97.803 -278.964 -96.9555 -281.654 -93.1669C-283.078 -91.1406 -283.396 -89.6651 -282.938 -87.0531C-282.398 -84.0649 -280.874 -82.3497 -277.892 -81.4022L-275.816 -80.7692L-275.677 -77.9793C-275.61 -76.4438 -275.542 -73.6107 -275.505 -71.6858C-275.467 -69.761 -275.407 -66.997 -275.389 -65.561C-275.334 -64.1293 -275.282 -61.4345 -275.257 -59.6135C-275.232 -57.7924 -275.153 -54.2239 -275.088 -51.7411C-275.019 -49.2237 -274.97 -46.5635 -274.956 -45.7936C-274.941 -45.0237 -274.909 -42.5019 -274.864 -40.1921C-274.782 -37.8867 -274.742 -35.2957 -274.752 -34.4176C-274.726 -32.9123 -274.607 -26.7528 -274.468 -22.3496C-274.445 -21.1947 -274.386 -17.7991 -274.339 -14.8232C-274.291 -11.8473 -274.18 -5.75699 -274.041 -1.35373C-273.934 3.08851 -273.786 11.1036 -273.681 16.4932C-273.54 21.8783 -273.419 27.4063 -273.376 28.7342C-273.33 30.0967 -273.325 31.7447 -273.322 32.4109C-273.321 33.7085 -273.277 36.3341 -273.173 40.1102C-273.139 41.3689 -273.126 43.0862 -273.099 43.9599C-273.071 44.8336 -273.038 46.7238 -272.983 48.1556C-272.8 53.2552 -272.796 53.2898 -274.535 53.915C-277.944 55.1222 -280.206 58.3695 -280.156 62.0116C-280.097 65.4071 -276.802 68.703 -272.888 69.2254C-272.085 69.3065 -271.299 69.5649 -271.196 69.7984C-271.002 70.1614 -267.227 83.3277 -263.855 95.3136C-263.153 97.7566 -260.86 105.695 -258.761 112.955C-256.658 120.249 -254.061 129.17 -253.03 132.802C-251.999 136.434 -250.713 140.948 -250.155 142.811C-249.633 144.679 -248.869 147.326 -248.516 148.722C-248.167 150.084 -247.288 153.068 -246.643 155.342C-245.965 157.578 -244.63 162.191 -243.668 165.551C-242.707 168.91 -239.314 180.754 -236.085 191.844L-230.276 212.032L-231.864 213.306C-236.034 216.708 -235.543 223.139 -230.951 225.897C-227.665 227.826 -223.369 227.426 -220.458 224.875L-219.359 223.939L-202.704 232.926C-180.043 245.136 -166.174 252.592 -149.4 261.635C-141.579 265.838 -130.045 272.059 -123.713 275.49C-117.384 278.885 -110.166 282.773 -107.703 284.132C-103.916 286.142 -103.176 286.652 -103.331 287.266C-103.398 287.66 -103.368 289.2 -103.231 290.692L-102.951 293.395L-106.109 295.45C-107.829 296.564 -112.462 299.563 -116.436 302.065C-120.406 304.601 -124.973 307.522 -126.618 308.628C-128.268 309.698 -131.885 312.017 -134.695 313.821C-161.359 330.879 -167.712 334.992 -167.7 335.096C-167.687 335.2 -155.469 352.075 -147.996 362.316C-145.021 366.421 -140.92 372.078 -138.848 374.921C-136.777 377.765 -132.721 383.356 -129.832 387.366C-126.907 391.372 -122.755 397.128 -120.589 400.136C-118.419 403.178 -115.894 406.67 -114.957 407.893C-114.053 409.154 -111.713 412.352 -109.778 415.001C-107.839 417.685 -105 421.595 -103.465 423.73C-101.93 425.865 -97.9643 431.327 -94.6756 435.851C-91.3869 440.376 -87.4214 445.838 -85.8865 447.972C-84.3142 450.103 -81.9664 453.37 -80.613 455.245C-79.2595 457.121 -74.7576 463.291 -70.6479 469.017C-66.505 474.704 -63.1051 479.531 -63.0848 479.704C-63.0645 479.877 -63.4506 480.449 -63.9193 480.96C-65.3879 482.605 -65.755 483.981 -65.4461 486.611C-65.125 489.344 -64.5024 490.464 -62.1966 492.087L-60.7131 493.14L-62.6172 499.117C-63.7043 502.401 -66.8168 512.238 -69.6082 520.949C-72.3623 529.656 -76.4664 542.625 -78.7288 549.731C-81.0284 556.841 -83.391 564.379 -84.0494 566.491C-84.7078 568.603 -86.5746 574.575 -88.266 579.79L-91.27 589.262L-93.8163 589.772C-96.7351 590.325 -97.6218 590.815 -99.3559 592.773C-101.795 595.48 -101.841 599.589 -99.4554 602.536C-98.8403 603.27 -97.7951 604.13 -97.1583 604.406C-96.4843 604.677 -96.0217 605.079 -96.0718 605.295C-96.1551 605.551 -96.9144 608.411 -97.7408 611.665C-98.6085 614.889 -102.213 628.255 -105.779 641.302C-109.308 654.344 -113.763 670.757 -115.665 677.715C-117.563 684.708 -122.81 704.02 -127.353 720.654C-131.858 737.284 -136.258 753.515 -137.13 756.704C-139.383 765.177 -139.113 764.584 -140.255 764.507C-140.789 764.465 -142.01 764.679 -142.958 764.965C-148.487 766.772 -150.483 773.251 -146.846 777.524C-143.643 781.321 -136.963 781.273 -133.599 777.441L-132.533 776.228L-121.015 780.066C-114.688 782.164 -105.958 785.102 -101.632 786.558C-97.306 788.014 -84.1343 792.43 -72.3397 796.376C-60.5451 800.322 -44.8176 805.595 -37.3488 808.085L-23.7842 812.63L-23.6765 814.511C-23.5498 817.197 -22.5689 819.116 -20.5442 820.597C-18.7302 821.893 -15.8472 822.641 -14.0048 822.249C-13.3795 822.106 -12.9907 822.2 -12.8342 822.568C-10.7912 827.098 44.1057 951.345 70.5676 1011.34C82.2561 1037.85 91.9679 1059.76 92.1535 1060.05C92.3473 1060.41 92.0648 1060.9 91.2106 1061.67C90.5638 1062.27 89.6628 1063.6 89.251 1064.6C88.7308 1065.96 88.3698 1066.42 87.8692 1066.34C87.5258 1066.31 86.0525 1066.31 84.5832 1066.34C83.1553 1066.4 78.2179 1066.49 73.6571 1066.57C69.0963 1066.65 59.8588 1066.79 53.1128 1066.92C46.3627 1067.01 39.4264 1067.12 37.6509 1067.12C35.8796 1067.15 32.7508 1067.2 30.6773 1067.24C28.6038 1067.27 26.3068 1067.33 25.5495 1067.31C24.8336 1067.33 20.9142 1067.4 16.8791 1067.45C12.848 1067.54 8.89142 1067.62 8.0596 1067.61C7.23183 1067.64 0.365907 1067.71 -7.17469 1067.83C-14.7153 1067.94 -21.0183 1067.98 -21.105 1067.88C-21.229 1067.79 -21.2371 1067.72 -21.0881 1067.71C-20.6038 1067.65 -22.3189 1064.62 -23.3926 1063.52C-24.0286 1062.93 -25.4796 1062.15 -26.5756 1061.83C-34.3262 1059.51 -40.8276 1067.18 -36.5953 1073.63C-35.5846 1075.16 -34.7582 1075.77 -31.6822 1077.19C-31.1613 1077.45 -31.1762 1078.61 -31.6685 1086.31C-32.4901 1098.93 -33.6665 1116.89 -35.5154 1145.52C-36.3972 1159.23 -37.3311 1174.11 -37.6386 1178.56C-37.942 1183.05 -38.4432 1191.01 -38.773 1196.24C-39.0988 1201.5 -39.7056 1210.48 -40.053 1216.2C-40.4377 1221.93 -41.1103 1232.6 -41.5769 1239.88C-42.0435 1247.16 -42.7235 1257.45 -43.0533 1262.68C-43.3791 1267.95 -43.9568 1276.85 -44.3164 1282.47C-45.1725 1295.76 -45.2957 1297.29 -45.4285 1297.44C-45.4576 1297.52 -46.2156 1297.81 -47.0894 1298.09C-50.2121 1299.16 -52.606 1301.93 -52.8315 1304.84L-52.946 1306.11L-55.2518 1306.42C-56.4812 1306.56 -58.1123 1306.82 -58.8121 1306.98C-59.5159 1307.09 -63.5937 1307.75 -67.8991 1308.39C-72.1673 1309.04 -76.2864 1309.66 -76.9862 1309.81C-77.6859 1309.97 -81.7678 1310.59 -86.0732 1311.23C-90.3454 1311.84 -94.1252 1312.46 -94.4151 1312.56C-94.705 1312.67 -98.5634 1313.26 -102.943 1313.91C-107.327 1314.53 -111.666 1315.22 -112.589 1315.4C-113.512 1315.58 -116.994 1316.16 -120.372 1316.66C-123.75 1317.17 -128.093 1317.82 -130.018 1318.15C-131.943 1318.48 -135.802 1319.07 -138.546 1319.5C-141.291 1319.93 -145.481 1320.6 -147.816 1320.98L-152.076 1321.69L-152.748 1320.47C-153.63 1318.75 -156.332 1316.96 -158.488 1316.62C-161.951 1316.08 -165.086 1317.36 -167.215 1320.13C-170.095 1323.91 -168.807 1329.09 -164.429 1331.31C-163.061 1332.03 -162.759 1332.34 -162.74 1333.15C-162.75 1334.02 -162.668 1334.08 -161.513 1333.95C-160.544 1333.84 -160.3 1333.67 -160.365 1333.11C-160.43 1332.56 -160.185 1332.39 -159.03 1332.25C-158.285 1332.17 -157.329 1331.95 -156.894 1331.79C-156.351 1331.59 -156.033 1331.73 -155.62 1332.34C-155.2 1333.03 -154.807 1333.16 -153.764 1333.04C-153.056 1332.96 -152.468 1332.82 -152.476 1332.75C-152.488 1332.64 -152.896 1332.06 -153.421 1331.45L-154.349 1330.3L-153.179 1328.69C-152.137 1327.27 -151.458 1325.33 -151.601 1324.12C-151.637 1323.81 -150.759 1323.57 -148.565 1323.27C-146.889 1323.08 -145.258 1322.81 -144.964 1322.74C-144.674 1322.64 -141.08 1322.04 -136.999 1321.42C-132.917 1320.8 -128.984 1320.2 -128.284 1320.05C-127.58 1319.93 -123.573 1319.32 -119.379 1318.69C-115.186 1318.05 -110.847 1317.37 -109.737 1317.17C-108.628 1316.97 -104.774 1316.34 -101.209 1315.82C-97.6448 1315.29 -93.5297 1314.63 -92.1222 1314.4C-90.6773 1314.16 -86.674 1313.51 -83.2214 1313C-79.7315 1312.49 -75.989 1311.87 -74.8795 1311.67C-72.1429 1311.17 -58.6759 1309.1 -55.2484 1308.7C-52.4955 1308.34 -52.4955 1308.34 -52.001 1309.33C-51.7456 1309.9 -50.9571 1310.82 -50.317 1311.45L-49.1275 1312.57L-50.9774 1316.44C-53.3346 1321.45 -53.3217 1321.24 -51.7943 1321.06C-50.6021 1320.92 -50.4734 1320.73 -48.7772 1317.16L-46.9897 1313.41L-45.62 1313.49C-44.8586 1313.54 -44.1305 1313.63 -44.0106 1313.69C-43.8534 1313.74 -43.5289 1314.9 -43.2173 1316.26C-42.4342 1319.71 -42.3313 1319.95 -41.0646 1319.8C-40.3567 1319.72 -39.9713 1319.46 -39.9042 1319.07C-39.8243 1318.46 -39.787 1318.46 -39.6807 1319.04C-39.5906 1319.49 -39.239 1319.58 -38.3076 1319.47L-37.0409 1319.33L-38.4953 1316.27C-39.2987 1314.58 -39.9741 1313.01 -39.9984 1312.8C-40.0228 1312.59 -39.6537 1312.2 -39.2019 1311.86C-38.3565 1311.34 -38.0754 1311.49 -33.0831 1314.76C-28.128 1318.03 -27.7642 1318.24 -26.2367 1318.06C-25.3798 1317.96 -24.6801 1317.8 -24.6882 1317.73C-24.7004 1317.63 -36.5777 1309.77 -36.8548 1309.66C-36.8961 1309.63 -36.7085 1308.97 -36.3881 1308.17C-36.0636 1307.39 -35.8333 1306.14 -35.8814 1305.4C-35.9485 1303.87 -37.1332 1304.39 -24.4852 1300.17C-19.5776 1298.54 -3.2271 1293.04 11.852 1287.98C26.9311 1282.91 43.5343 1277.31 48.7318 1275.58C65.3059 1270.05 78.9314 1265.47 90.5192 1261.55C96.7315 1259.45 111.844 1254.34 124.127 1250.23C136.407 1246.09 149.742 1241.61 153.702 1240.27C157.661 1238.93 161.119 1237.82 161.38 1237.79C161.603 1237.76 162.058 1238.09 162.334 1238.52C162.936 1239.46 163.596 1238.65 142.85 1261.71C135.4 1269.99 126.614 1279.76 123.311 1283.48C120.005 1287.16 114.865 1292.92 111.858 1296.26L106.411 1302.3L107.988 1302.22C109.453 1302.15 109.698 1301.98 111.432 1300.02C112.465 1298.85 123.69 1286.38 136.351 1272.3C149.049 1258.21 160.532 1245.36 161.967 1243.75C163.631 1241.84 164.688 1240.87 165.114 1240.96C165.582 1241.08 165.502 1241.69 164.456 1244.69C157.406 1265.37 146.652 1297.29 146.685 1297.57C146.701 1297.71 147.227 1297.68 147.889 1297.53C149.288 1297.23 148.51 1299.28 158.643 1269.15C162.28 1258.31 165.836 1247.75 166.54 1245.71L167.839 1241.98L169.93 1241.77C172.579 1241.49 174.854 1240.27 176.256 1238.39C176.846 1237.62 177.41 1236.96 177.522 1236.94C177.633 1236.93 188.769 1239.45 202.271 1242.49C215.776 1245.57 231.069 1249.07 236.306 1250.24C241.542 1251.42 249.03 1253.1 252.988 1254C256.951 1254.94 264.554 1256.64 269.869 1257.84C275.222 1259.04 284.537 1261.17 290.626 1262.52L301.687 1265.05L301.886 1266.74C302.033 1267.67 302.275 1268.77 302.473 1269.16C302.815 1269.82 302.301 1270.27 296.83 1274.18C293.518 1276.53 289.929 1279.09 288.884 1279.84L287.011 1281.26L290.736 1280.82L294.462 1280.38L299.532 1276.28L304.598 1272.14L306.082 1272.88C306.921 1273.27 308.253 1273.68 309.06 1273.79L310.479 1273.98L310.739 1276.19L311.003 1278.44L312.121 1278.31C313.201 1278.18 313.201 1278.18 313.041 1275.85L312.884 1273.55L314.318 1272.89C315.072 1272.56 316.054 1271.92 316.419 1271.49L317.12 1270.7L322.668 1273.56C328.104 1276.43 328.22 1276.45 330.033 1276.13L331.884 1275.81L328.833 1274.27C327.146 1273.42 325.65 1272.58 325.522 1272.45C325.427 1272.29 327.615 1272.91 330.443 1273.84C335.278 1275.45 335.741 1275.53 338.088 1275.26L340.618 1274.92L339.245 1274.49C338.496 1274.23 333.62 1272.59 328.393 1270.85L318.952 1267.65L318.849 1265.49C318.785 1264.3 318.845 1263.21 318.978 1263.05C319.078 1262.93 326.891 1259.03 336.32 1254.42C345.749 1249.8 354.503 1245.55 355.787 1244.91C360.034 1242.79 416.024 1215.27 437.737 1204.62C449.523 1198.85 481.233 1183.27 508.231 1170.03C543.624 1152.69 557.386 1146.05 557.717 1146.29C558.047 1146.54 558.038 1146.78 557.706 1147.17C557.437 1147.45 545.586 1160.07 531.351 1175.21C517.152 1190.35 499.154 1209.47 491.402 1217.75C483.645 1225.99 471.363 1239.11 464.046 1246.92C456.762 1254.69 450.549 1261.27 450.283 1261.58C449.885 1262.05 450.042 1262.1 451.532 1261.93L453.246 1261.73L473.861 1239.8C495.916 1216.31 511.288 1199.91 541.025 1168.18C551.366 1157.18 559.906 1148.21 560.063 1148.26C560.179 1148.28 560.965 1148.54 561.825 1148.79C563.194 1149.19 563.322 1149.32 563.216 1150.35C563.178 1150.98 563.119 1153.38 563.052 1155.7C562.985 1158.02 562.767 1164.85 562.564 1170.84C562.045 1185.07 561.628 1198.55 561.061 1215.91C560.401 1236.02 560.042 1247.11 559.949 1248.25C559.902 1249.13 559.984 1249.19 561.102 1249.06L562.331 1248.91L562.465 1244.27C562.541 1241.7 562.738 1234.69 562.937 1228.67C563.344 1216.7 563.715 1205.71 564.485 1182.36C564.78 1173.95 565.098 1164.44 565.213 1161.23C565.327 1158.03 565.501 1154.04 565.53 1152.36C565.605 1149.79 565.731 1149.25 566.29 1149.18C566.625 1149.14 567.171 1148.97 567.495 1148.83C567.888 1148.64 568.396 1149.11 569.37 1150.64C570.141 1151.74 572.311 1155.1 574.283 1158.06C578.462 1164.38 577.129 1162.36 593.155 1186.89C600.196 1197.64 606.776 1207.67 607.749 1209.2C608.76 1210.73 610.096 1212.78 610.74 1213.76C611.383 1214.74 614.279 1219.13 617.175 1223.53C620.034 1227.93 623.804 1233.66 625.512 1236.3C628.564 1241.06 628.61 1241.13 629.839 1240.98C630.472 1240.91 631.023 1240.77 631.011 1240.67C630.999 1240.56 628.367 1236.49 625.187 1231.6C621.969 1226.72 616.26 1217.99 612.477 1212.15C608.658 1206.32 604.186 1199.45 602.445 1196.85C588.882 1176.24 571.231 1149.13 571.331 1149.01C571.463 1148.85 581.698 1150.77 601.84 1154.72C608.872 1156.07 619.463 1158.12 625.411 1159.25C631.364 1160.41 647.787 1163.56 661.931 1166.29L687.637 1171.3L688.104 1173.35C688.358 1174.55 688.972 1175.91 689.505 1176.59L690.475 1177.77L679.37 1191.91C673.299 1199.71 667.485 1207.13 666.501 1208.4C665.518 1209.68 659.708 1217.13 653.637 1224.93C647.528 1232.73 642.548 1239.21 642.56 1239.31C642.572 1239.42 643.214 1239.41 643.996 1239.32C645.375 1239.16 645.644 1238.88 655.098 1226.75C660.418 1219.96 665.339 1213.63 666.062 1212.7C692.368 1178.78 692.43 1178.66 694.013 1179.6C694.096 1179.66 692.352 1191.83 690.127 1206.64C687.906 1221.5 686.101 1233.78 686.125 1233.98C686.149 1234.19 686.654 1234.31 687.25 1234.24C688.219 1234.12 688.314 1233.97 688.675 1231.9C689.216 1228.46 696.425 1180.19 696.404 1180.02C696.392 1179.92 697.055 1179.77 697.874 1179.67C702.01 1179.19 705.13 1175.52 704.977 1171.33C704.962 1170.56 704.766 1169.53 704.56 1169.07ZM689.479 1167.36C689.055 1167.94 688.644 1168.62 688.594 1168.84C688.523 1169.2 684.159 1168.38 655.482 1162.84C652.392 1162.25 632.564 1158.41 611.425 1154.33C590.286 1150.25 572.544 1146.8 572.039 1146.68L571.108 1146.47L571.801 1145.62C573.445 1143.53 573.643 1139.76 572.225 1137.33C571.008 1135.33 568.805 1133.94 566.265 1133.54C564.685 1133.27 563.973 1133 563.929 1132.62C563.888 1132.28 562.236 1124.65 560.236 1115.66C556.006 1096.37 555.096 1092.16 554.482 1089.18C554.224 1087.95 553.867 1086.52 553.723 1085.94C553.584 1085.4 553.223 1083.93 552.965 1082.7C552.707 1081.46 551.961 1078.01 551.305 1075C550.649 1071.99 549.526 1066.93 548.846 1063.71C548.133 1060.54 547.457 1057.35 547.268 1056.71C546.923 1055.38 546.505 1053.43 545.198 1047.13C544.694 1044.77 544.161 1042.48 544.03 1042.01C543.898 1041.53 543.587 1040.16 543.328 1038.93C541.243 1029.21 540.288 1024.94 539.976 1023.58C539.763 1022.72 539.234 1020.16 538.742 1017.9C538.251 1015.64 537.533 1012.43 537.144 1010.72C536.283 1006.93 535.745 1004.61 535.115 1001.49C534.849 1000.19 534.459 998.478 534.295 997.725C534.094 996.977 533.586 994.581 533.106 992.428C532.627 990.274 532.053 987.641 531.819 986.616C530.475 980.635 528.618 971.909 528.693 971.9C528.73 971.896 531.715 975.439 535.327 979.82C538.934 984.167 548.263 995.418 556.09 1004.81C563.916 1014.2 573.113 1025.29 576.544 1029.42C579.974 1033.54 587.982 1043.19 594.356 1050.83C600.729 1058.46 611.998 1072.08 619.433 1081.03C626.871 1090.01 636.064 1101.07 639.849 1105.64C649.822 1117.55 656.328 1125.34 670.491 1142.38C677.355 1150.65 684.571 1159.35 686.548 1161.71C688.526 1164.07 690.197 1166.09 690.206 1166.16C690.251 1166.22 689.898 1166.75 689.479 1167.36ZM560.863 1134.17C560.32 1134.38 559.757 1134.41 559.592 1134.29C559.427 1134.17 556.148 1130.69 552.271 1126.62C544.512 1118.45 540.205 1113.94 526.12 1099.18C520.909 1093.72 514.918 1087.41 512.762 1085.14C510.648 1082.9 504.355 1076.27 498.801 1070.47C493.247 1064.67 484.634 1055.65 479.679 1050.44C474.723 1045.24 469.851 1040.09 468.823 1039.06C467.79 1037.98 466.952 1036.96 466.928 1036.75C466.904 1036.54 480.117 1021.38 496.321 1003.06L525.718 969.724L526.226 972.12C526.529 973.417 527.001 975.501 527.255 976.699C528.796 983.709 532.649 1001.08 533.022 1002.96C533.44 1004.91 534.297 1008.67 535.399 1013.56C535.576 1014.41 535.953 1016.02 536.199 1017.14C537.207 1021.87 539.92 1034.35 540.277 1035.78C540.453 1036.64 541.023 1039.24 541.527 1041.6C542.031 1043.96 542.924 1048.03 543.535 1050.66C544.146 1053.29 544.855 1056.43 545.114 1057.66C545.372 1058.9 546.679 1064.88 548.04 1071C549.364 1077.12 550.819 1083.72 551.241 1085.71C551.979 1089.09 553.999 1098.25 554.848 1101.94C556.017 1107.07 558.48 1118.39 558.984 1120.75C559.312 1122.25 559.975 1125.33 560.504 1127.59C561.96 1133.87 561.952 1133.8 560.863 1134.17ZM557.449 1135.98C556.771 1135.67 546.862 1130.42 525.511 1119.07C515.759 1113.87 503.875 1107.55 499.121 1105.02C456.422 1082.36 449.114 1078.34 449.31 1077.76C449.422 1077.43 449.474 1076.26 449.46 1075.18C449.399 1073.05 448.649 1071.17 447.316 1069.78C446.193 1068.58 443.348 1067.51 441.229 1067.48L439.486 1067.44L452.251 1052.96L464.983 1038.52L466.086 1039.55C466.685 1040.15 470.121 1043.67 473.659 1047.43C477.235 1051.19 484.689 1059.01 490.242 1064.81C505.409 1080.74 509.675 1085.22 515.922 1091.78C519.069 1095.1 529.788 1106.29 539.736 1116.7C549.683 1127.1 557.838 1135.76 557.855 1135.9C557.912 1136.06 557.689 1136.09 557.449 1135.98ZM556.255 1138.68C555.986 1138.64 524.139 1133.44 485.474 1127.11C446.814 1120.81 415.116 1115.59 415.074 1115.56C414.748 1115.35 437.36 1082.77 437.748 1082.87C441.426 1083.63 444.278 1083.15 446.592 1081.3L447.906 1080.27L474.78 1094.58C489.566 1102.46 507.858 1112.2 515.431 1116.22C522.967 1120.25 535.336 1126.83 542.909 1130.85C554.959 1137.29 558.08 1139.1 556.255 1138.68ZM546.102 1149.03C540.352 1151.84 525.459 1159.13 512.997 1165.26C500.535 1171.39 477.646 1182.64 462.11 1190.25C446.612 1197.86 424.829 1208.56 413.722 1214C402.615 1219.45 385.256 1227.94 375.148 1232.88C365.04 1237.82 355.793 1242.38 354.616 1242.97C353.444 1243.6 344.623 1247.94 335.053 1252.64L317.587 1261.18L316.827 1260.5C316.402 1260.09 316.159 1259.63 316.283 1259.4C316.412 1259.21 319.634 1254.48 323.436 1248.92C347.909 1213.21 355.647 1201.92 359.13 1196.84C364.137 1189.63 364.905 1188.45 390.76 1150.68C402.525 1133.48 412.493 1118.98 412.887 1118.48L413.646 1117.55L419.964 1118.6C441.22 1122.06 555.32 1140.68 555.667 1140.75C555.899 1140.79 556.175 1141.53 556.276 1142.39L556.492 1143.91L546.102 1149.03ZM495.2 1000.91C481.734 1016.18 469.43 1030.07 467.866 1031.87L465.036 1035.12L451.034 1020.41C443.32 1012.31 431.342 999.718 424.404 992.43C410.53 977.855 399.067 965.802 380.977 946.846C369.609 934.958 369.126 934.383 369.476 933.5C369.721 933.015 370.111 932.478 370.36 932.344C370.828 932.149 374.973 933.03 390.592 936.737C394.554 937.675 403.956 939.902 411.485 941.613C419.017 943.359 428.299 945.531 432.068 946.421C435.836 947.311 448.03 950.158 459.133 952.712C470.239 955.301 488.956 959.662 500.683 962.388C512.451 965.144 522.548 967.501 523.169 967.638L524.331 967.888L522 970.547C520.738 972.028 508.67 985.688 495.2 1000.91ZM444.87 1057.97C440.937 1062.43 437.627 1066.08 437.515 1066.09C437.366 1066.11 406.899 1009.64 399.612 995.834C398.73 994.113 396.215 989.428 394.047 985.438C391.878 981.449 389.273 976.634 388.255 974.719C384.475 967.621 378.478 956.435 373.312 946.87C370.369 941.428 368.028 936.932 368.057 936.859C368.128 936.815 373.669 942.513 380.396 949.615C387.118 956.683 396.896 966.934 402.108 972.39C414.124 984.974 436.137 1008.06 447.117 1019.54C451.729 1024.4 457.328 1030.27 459.529 1032.61L463.497 1036.8L457.768 1043.34C454.603 1046.93 448.803 1053.51 444.87 1057.97ZM434.406 1070.49L432.879 1072.29L419.432 1069.06C412.011 1067.3 401.48 1064.79 396.037 1063.46C390.593 1062.14 372.211 1057.74 355.19 1053.67L324.216 1046.26L324.741 1044.62C325.012 1043.71 327.441 1036.41 330.16 1028.37C332.88 1020.33 337.049 1007.92 339.46 1000.8C341.872 993.672 344.196 986.77 344.683 985.45C345.133 984.134 346.22 980.85 347.111 978.149C348.002 975.449 350.373 968.295 352.422 962.267C357.582 947.034 359.348 941.811 360.177 939.223L360.864 937.037L363.004 936.926C364.167 936.86 365.152 936.884 365.231 936.91C365.354 937.001 371.773 948.875 375.466 955.877C376.773 958.319 379.287 963.004 381.031 966.272C390.825 984.379 394.642 991.472 396.773 995.466C398.043 997.912 407.367 1015.23 417.454 1033.9C427.508 1052.61 435.822 1068.08 435.847 1068.29C435.913 1068.53 435.236 1069.52 434.406 1070.49ZM426.28 1094.88C421.344 1102.05 416.254 1109.53 414.934 1111.47C413.572 1113.38 412.327 1115 412.141 1115.03C411.769 1115.07 384.087 1110.6 380.728 1109.98C379.566 1109.73 364.317 1107.24 346.837 1104.42C329.358 1101.6 314.912 1099.19 314.709 1099.08C313.854 1098.55 312.893 1098.73 334.032 1095.09C340.843 1093.9 347.616 1092.72 349.019 1092.45C350.464 1092.21 353.35 1091.7 355.498 1091.34C357.647 1090.98 360.462 1090.51 361.791 1090.25C364.565 1089.75 368.56 1089.03 373.818 1088.13C378.409 1087.35 401.213 1083.41 405.469 1082.66C411.277 1081.63 420.791 1079.98 424.347 1079.39C426.272 1079.06 428.934 1078.57 430.267 1078.35L432.665 1077.85L433.849 1079.57C434.488 1080.52 435.086 1081.43 435.103 1081.57C435.16 1081.73 431.179 1087.71 426.28 1094.88ZM432.144 1075.67C431.891 1075.77 428.753 1076.38 425.197 1076.98C421.644 1077.6 415.981 1078.59 412.615 1079.19C409.245 1079.76 405.175 1080.49 403.548 1080.78C401.917 1081.04 398.92 1081.57 396.883 1081.92C394.846 1082.26 392.109 1082.76 390.776 1082.99C389.443 1083.21 386.371 1083.75 383.924 1084.14C381.482 1084.57 379.076 1084.99 378.563 1085.12C378.05 1085.25 375.309 1085.71 372.456 1086.19C369.6 1086.63 366.677 1087.15 365.977 1087.3C365.278 1087.45 362.206 1087.99 359.126 1088.46C356.087 1088.95 353.309 1089.42 353.019 1089.53C352.725 1089.59 350.324 1090.05 347.654 1090.47C345.021 1090.89 341.762 1091.44 340.433 1091.71C337.552 1092.25 334.033 1092.84 324.701 1094.43C320.851 1095.09 316.889 1095.77 315.933 1095.99L314.161 1096.34L313.228 1094.83C312.713 1093.98 311.557 1092.82 310.656 1092.22L309.056 1091.15L312.972 1079.46C318.103 1064.3 320.818 1056.23 322.268 1051.85C322.905 1049.88 323.628 1048.33 323.823 1048.37C342.519 1052.88 386.439 1063.43 391.643 1064.64C395.606 1065.58 406.1 1068.1 414.96 1070.22C423.824 1072.37 431.398 1074.14 431.787 1074.24C432.56 1074.39 432.79 1075.38 432.144 1075.67ZM358.441 480.133C358.057 483.931 357.296 491.281 356.772 496.464C356.248 501.647 355.352 510.416 354.76 515.993C354.206 521.565 352.808 535.058 351.675 545.995C350.58 556.927 348.916 572.662 348.041 580.972C347.167 589.283 346.005 600.293 345.481 605.476C344.957 610.659 343.663 623.438 342.586 633.877C341.508 644.317 340.16 657.594 339.589 663.343C338.452 674.245 337.949 679.285 337.193 686.354C336.969 688.625 336.052 697.537 335.173 706.129C334.293 714.721 333.2 725.022 332.802 729.032C332.367 733.047 330.854 747.817 329.405 761.842L326.813 787.367L325.94 785.4C325.437 784.336 322.65 777.649 319.702 770.559C316.754 763.469 312.855 754.07 311.014 749.656C309.174 745.242 304.328 733.57 300.227 723.739C296.163 713.904 292.219 704.441 291.486 702.703C290.794 700.995 288.06 694.441 285.433 688.156C282.847 681.9 279.685 674.274 278.384 671.235C275.494 664.314 265.917 641.306 259.634 626.084C256.999 619.729 254.158 612.907 253.28 610.906L251.724 607.3L252.711 606.062C253.765 604.745 268.925 585.251 277.225 574.56C280.113 570.853 299.207 546.266 319.682 519.938C340.158 493.61 356.923 472.033 356.952 471.959C357.11 471.695 359.091 472.48 359.132 472.826C359.156 473.033 358.863 476.33 358.441 480.133ZM344.776 484.053C339.165 491.272 321.018 514.59 304.451 535.933C287.848 557.281 273.244 576.044 271.958 577.634C270.672 579.223 265.422 585.978 260.268 592.582C255.155 599.215 250.832 604.529 250.703 604.404C250.538 604.283 248.249 598.939 245.601 592.481C242.921 586.061 239.075 576.796 237.029 571.916C235.02 567.03 232.549 561.112 231.586 558.7C230.589 556.326 227.753 549.539 225.282 543.621C222.816 537.737 220.745 532.649 220.708 532.337C220.672 532.026 221.132 531.446 221.696 531.099C223.735 529.807 225.382 525.825 224.833 523.399C224.689 522.82 226.516 521.974 239.622 516.506C323.414 481.617 352.617 469.452 353.275 469.27C353.784 469.105 354.181 469.268 354.507 469.791C354.821 470.21 355.023 470.643 354.998 470.751C354.976 470.894 350.353 476.874 344.776 484.053ZM352.601 467.069C352.539 467.181 336.981 473.639 251.242 509.318L223.696 520.797L222.986 519.898C221.232 517.824 217.199 516.614 214.413 517.327C213.717 517.514 212.835 517.723 212.425 517.771C211.759 517.885 205.298 510.471 185.029 486.474C182.573 483.571 177.883 478.054 174.597 474.195C171.311 470.337 167.455 465.809 166.006 464.085C164.599 462.392 162.63 460.097 161.668 458.983C160.71 457.903 158.035 454.744 155.752 452.031C153.432 449.322 147.822 442.72 143.264 437.363C138.707 432.005 131.425 423.39 127.041 418.223C122.657 413.055 113.191 401.926 106.008 393.509C85.3754 369.31 87.2741 371.647 87.69 370.687C87.8979 370.206 88.2671 369.812 88.4907 369.786C88.7142 369.759 91.0301 370.505 93.6272 371.392C103.879 375.063 118.654 380.273 122.558 381.673C124.841 382.457 130.159 384.323 134.373 385.792C138.591 387.296 142.962 388.817 144.029 389.218C145.133 389.614 151.163 391.747 157.428 393.958C163.73 396.164 172.952 399.43 177.919 401.196C182.923 402.959 188.952 405.092 191.317 405.936C193.72 406.776 198.567 408.487 202.152 409.749C205.737 411.012 221.146 416.463 236.434 421.857C251.723 427.252 265.634 432.177 267.367 432.78C269.1 433.383 273.793 435.077 277.809 436.464C281.829 437.886 290.968 441.092 298.105 443.656C305.276 446.181 314.304 449.399 318.203 450.765C338.372 457.832 347.238 460.964 349.843 461.921L352.684 462.955L352.692 464.953C352.669 466.044 352.63 466.995 352.601 467.069ZM390.192 1147.45C378.941 1163.89 366.433 1182.17 362.402 1188.04C358.408 1193.91 352.991 1201.81 350.412 1205.58C347.797 1209.36 338.739 1222.6 330.257 1234.96C321.817 1247.35 314.685 1257.7 314.457 1258C314.092 1258.43 313.794 1258.47 312.632 1258.22C311.469 1257.97 311.258 1257.78 311.285 1257.04C311.34 1256.55 311.277 1254.73 311.223 1252.98C311.136 1251.27 311.082 1249.21 311.067 1248.44C311.052 1247.67 311.048 1246.02 311.013 1244.76C310.943 1242.56 310.399 1224.11 310.261 1219.07C310.218 1217.74 310.166 1215.05 310.129 1213.12C310.091 1211.2 310.007 1208.23 309.915 1206.48C309.828 1204.78 309.783 1202.78 309.78 1202.11C309.777 1201.45 309.692 1196.86 309.532 1191.97C309.373 1187.08 309.214 1182.19 309.204 1181.14C309.15 1177.14 308.61 1158.72 308.455 1153.86C308.353 1151.07 308.277 1148.17 308.262 1147.4C308.284 1146.62 308.166 1142.08 308.014 1137.26C307.867 1132.47 307.716 1127.64 307.706 1126.59C307.659 1125.55 307.572 1121.59 307.435 1117.86C307.298 1114.12 307.211 1110.48 307.245 1109.81C307.243 1109.14 307.203 1108.17 307.184 1107.68C307.094 1106.92 307.335 1106.71 308.962 1106.1C310.449 1105.58 311.249 1104.99 312.569 1103.36L314.295 1101.34L345.414 1106.45C362.549 1109.24 378.146 1111.79 380.033 1112.1C395.617 1114.55 410.916 1117.13 410.824 1117.32C410.766 1117.47 401.479 1131.01 390.192 1147.45ZM357.928 922.334C357.149 922.777 356.283 923.44 355.988 923.825C355.399 924.596 356.234 924.954 293.971 895.543C285.492 891.523 277.454 887.732 276.094 887.085C274.701 886.477 273.605 885.834 273.664 885.687C273.718 885.505 281.672 873.802 313.352 827.427C325.599 809.502 327.475 806.827 327.699 806.8C328.303 806.8 331.567 807.258 331.778 807.444C331.985 807.595 337.281 829.211 345.616 864.15C348.135 874.658 348.196 874.861 348.57 876.431C348.771 877.179 349.087 878.58 349.308 879.501C349.534 880.457 350.399 883.968 351.212 887.345C352.024 890.722 352.864 894.342 353.135 895.362C353.369 896.387 354.784 902.324 356.302 908.495C357.824 914.7 359.108 920.161 359.202 920.641C359.325 921.363 359.059 921.675 357.928 922.334ZM356.269 943.575C355.024 947.124 354.012 950.084 354.02 950.153C354.032 950.257 350.896 959.57 346.136 973.704C344.732 977.833 342.745 983.748 341.712 986.851C340.679 989.954 337.551 999.336 334.715 1007.67C331.917 1015.99 327.918 1027.93 325.815 1034.14C323.753 1040.38 322.012 1045.5 321.983 1045.57C321.921 1045.68 291.531 1038.42 217.063 1020.54C206.607 1018.02 196.969 1015.71 195.687 1015.41L193.358 1014.87L193.064 1013.01L192.811 1011.18L215.376 1000.4C227.825 994.478 259.546 979.316 285.906 966.749C312.262 954.147 335.511 943.067 337.587 942.087C339.666 941.141 344.459 938.859 348.213 937.05L355.114 933.749L356.775 935.027C357.689 935.727 358.457 936.478 358.485 936.721C358.51 936.928 357.514 940.027 356.269 943.575ZM353.931 929.784L353.951 931.886L351.089 933.24C349.515 933.986 345.007 936.129 341.072 937.994C337.136 939.86 302.089 956.605 263.176 975.172C224.264 993.739 192.174 1008.98 191.876 1009.01C191.578 1009.05 191.086 1008.72 190.806 1008.26C190.389 1007.61 190.394 1007.33 190.784 1006.79C191.079 1006.41 196.555 998.362 203.002 988.941C209.445 979.485 216.183 969.643 217.956 967.05C239.713 935.24 258.598 907.591 263.335 900.65C266.52 895.927 269.841 891.082 270.683 889.896L272.207 887.752L293.92 898.004C305.877 903.65 322.228 911.34 330.261 915.097C354.253 926.414 354.331 926.44 354.107 927.098C354.035 927.457 353.95 928.659 353.931 929.784ZM325.961 792.974C325.514 793.026 317.243 786.281 277.897 753.898C261.129 740.083 234.746 718.383 208.794 697.124L197.966 688.224L198.497 687.284C199.935 684.73 199.788 681.871 198.129 679.33L197.024 677.636L220.351 647.606C248.707 611.198 249.923 609.652 250.212 609.863C250.336 609.954 250.694 610.754 251.019 611.592C251.386 612.461 256.866 625.673 263.227 640.92C269.593 656.203 275.53 670.413 276.382 672.522C277.272 674.628 280.006 681.182 282.435 687.07C284.901 692.953 287.895 700.108 289.06 702.953C290.225 705.797 292.374 710.912 293.795 714.323C295.215 717.734 298.209 724.888 300.42 730.206C302.635 735.558 305.365 742.077 306.472 744.753C317.943 772.309 322.201 782.507 324.095 787.055C326.763 793.371 326.595 792.899 325.961 792.974ZM305.535 834.835C295.68 849.322 283.91 866.489 279.464 873.009L271.377 884.868L248.39 874.064C235.755 868.112 223.518 862.324 221.198 861.229C218.875 860.099 206.038 854.03 192.605 847.716C139.107 822.502 141.43 823.632 141.457 822.892C141.526 821.235 140.972 821.336 154.292 819.946C161.234 819.236 185.098 816.608 207.352 814.099C229.606 811.59 253.433 808.966 260.296 808.23C267.163 807.528 282.376 805.846 294.041 804.511C305.744 803.171 316.97 801.958 319.064 801.782L322.839 801.443L323.478 802.701C323.783 803.367 324.418 804.274 324.844 804.68C325.612 805.432 325.616 805.467 324.586 806.991C324.005 807.831 315.432 820.378 305.535 834.835ZM323.8 795.473C323.626 795.598 318.042 794.045 311.383 792.021C304.762 789.992 297.905 787.887 296.18 787.353C288.272 784.984 263.114 777.242 258.371 775.764C255.467 774.843 250.529 773.318 247.398 772.388C241.253 770.55 201.487 758.384 193.021 755.766C190.159 754.875 182.876 752.679 176.879 750.822C170.849 749.005 165.894 747.342 165.87 747.135C165.846 746.927 167.036 743.876 168.504 740.301C170.01 736.722 172.864 729.827 174.861 724.963C180.343 711.831 182.282 707.114 184.811 700.994C186.08 697.968 187.498 694.61 187.976 693.536L188.845 691.61L190.658 691.608C191.788 691.58 193.187 691.276 194.488 690.772L196.509 689.973L198.34 691.407C199.343 692.236 206.615 698.187 214.48 704.699C222.383 711.207 230.163 717.624 231.832 718.971C233.501 720.318 241.28 726.736 249.183 733.243C257.086 739.751 265.572 746.717 268.038 748.742C287.967 765.026 324.062 794.811 324.086 795.018C324.102 795.157 323.974 795.347 323.8 795.473ZM320.89 799.322C319.918 799.401 303.434 801.197 284.273 803.343C204.828 812.22 187.152 814.157 172.233 815.769C163.615 816.676 153.101 817.841 148.854 818.34C142.11 819.132 141.096 819.181 141.043 818.732C140.95 817.936 139.386 815.875 138.44 815.214L137.584 814.683L139.29 810.554C146.257 793.986 150.671 783.331 152.135 779.721C153.071 777.401 153.924 775.337 154.049 775.112C154.177 774.921 155.617 771.42 157.293 767.364C162.34 755.021 164.399 750.044 164.664 749.732C164.76 749.58 167.523 750.273 170.736 751.263C178.222 753.576 190.447 757.331 193.227 758.162C194.401 758.515 197.689 759.497 200.473 760.363C203.293 761.224 211.639 763.786 219.084 766.068C226.524 768.316 234.713 770.827 237.302 771.645C239.887 772.429 248.192 774.961 255.715 777.269C263.275 779.573 271.034 781.959 272.953 782.54C274.909 783.117 281.609 785.171 287.842 787.104C294.111 789.034 300.811 791.088 302.73 791.669C324.667 798.352 322.855 797.723 322.729 798.58C322.646 799.151 322.356 799.255 320.89 799.322ZM317.548 1058.62C315.782 1063.84 313.037 1071.98 311.475 1076.69C309.876 1081.4 308.168 1086.48 307.702 1087.97L306.773 1090.68L304.769 1090.98C303.544 1091.16 302.128 1091.65 301.212 1092.21L299.658 1093.13L296.74 1091.12C295.174 1090.01 284.43 1082.46 272.905 1074.38C261.376 1066.27 249.525 1057.98 246.566 1055.94C217.329 1035.66 191.982 1017.63 192.281 1017.28C192.48 1017.05 194.445 1017.38 197.982 1018.22C200.939 1018.96 213.766 1022.05 226.473 1025.08C239.18 1028.12 258.53 1032.72 269.413 1035.33C280.333 1037.94 296.072 1041.71 304.39 1043.71C312.746 1045.71 319.939 1047.46 320.443 1047.58C321.147 1047.78 321.283 1047.97 321.037 1048.45C320.892 1048.82 319.314 1053.39 317.548 1058.62ZM245.868 611.145C244.096 613.423 231.953 629.02 218.927 645.774C205.904 662.562 195.131 676.315 194.99 676.402C194.845 676.454 194.415 676.329 193.973 676.1C193.13 675.673 192.424 680.597 200.397 631.114C202.418 618.74 204.7 604.406 205.534 599.292C206.332 594.183 208.605 580.095 210.547 568.011C212.526 555.923 214.573 543.125 215.139 539.586L216.158 533.152L217.239 533.025C218.468 532.881 217.681 531.325 224.429 547.614C226.175 551.864 232.388 566.813 238.272 580.889C244.193 594.961 249.035 606.599 249.051 606.737C249.109 606.906 247.681 608.898 245.868 611.145ZM305.291 1123.72C305.512 1130.74 305.713 1137.6 305.755 1138.92C305.802 1140.29 305.823 1142.07 305.85 1142.95C305.84 1143.82 305.936 1147.53 306.06 1151.16C306.311 1159.73 306.459 1164.2 306.533 1168.05C306.546 1169.77 307.398 1199.2 307.578 1205.88C307.613 1207.14 307.683 1209.03 307.694 1210.08C307.704 1211.13 307.855 1215.95 308.002 1220.74C308.153 1225.56 308.292 1230.28 308.29 1231.23C308.329 1232.21 308.398 1235.04 308.463 1237.52C308.532 1240.04 308.638 1242.87 308.635 1243.82C308.675 1244.79 308.731 1247.52 308.788 1249.94C309.036 1257.83 309.04 1257.87 308.063 1258.23C307.59 1258.39 306.977 1258.64 306.696 1258.81C306.339 1258.99 303.957 1256.4 297.938 1249.21C293.377 1243.82 287.536 1236.86 284.947 1233.8C280.819 1228.88 274.008 1220.73 252.572 1195.16C249.542 1191.55 244.051 1185 240.361 1180.6C236.633 1176.19 233.587 1172.45 233.563 1172.24C233.534 1172 275.77 1129.96 299.609 1106.53L300.554 1105.58L302.246 1106.15C303.184 1106.43 304.156 1106.67 304.38 1106.64C304.715 1106.6 304.859 1107.18 304.897 1108.79C304.923 1109.98 305.108 1116.69 305.291 1123.72ZM296.526 1096.37C295.91 1096.27 271.232 1092.61 241.634 1088.23C212.033 1083.81 187.694 1080.15 187.532 1080.06C187.367 1079.94 187.23 1078.45 187.217 1076.73C187.2 1074.98 187.106 1072.26 187.064 1070.61C186.985 1068.97 186.952 1067.08 186.949 1066.42C186.946 1065.75 186.929 1064 186.874 1062.57C186.819 1061.14 186.803 1059.38 186.8 1058.72C186.823 1057.63 186.617 1049.13 186.38 1042.28C186.345 1041.02 186.305 1038.43 186.268 1036.51C186.231 1034.58 186.155 1031.05 186.098 1028.63C185.931 1021.74 185.956 1021.64 186.999 1021.51C187.521 1021.45 188.565 1021.01 189.373 1020.5L190.815 1019.59L194.774 1022.42C200.716 1026.71 247.257 1059.58 256.638 1066.12C288.936 1088.67 298.06 1095.28 297.831 1095.9C297.623 1096.38 297.333 1096.49 296.526 1096.37ZM265.338 1137.29C247.032 1155.4 231.965 1170.22 231.816 1170.23C231.705 1170.25 231.151 1169.72 230.623 1169.08C230.128 1168.4 221.69 1158.31 211.898 1146.65L194.111 1125.45L195.053 1124.15C195.576 1123.46 196.108 1122.2 196.276 1121.37C196.402 1120.52 196.561 1119.62 196.611 1119.4C196.649 1119.08 197.564 1118.84 199.386 1118.59C200.876 1118.41 202.693 1118.13 203.393 1117.98C204.059 1117.86 207.057 1117.34 210.062 1116.88C213.027 1116.39 216.512 1115.84 217.841 1115.58C219.174 1115.35 222.097 1114.83 224.321 1114.47C236.513 1112.47 239.146 1112.06 246.18 1110.85C247.807 1110.55 251.069 1110.03 253.404 1109.65C262.524 1108.19 275.822 1105.96 281.928 1104.89C283.448 1104.64 286.967 1104.05 289.711 1103.63C292.452 1103.16 295.416 1102.68 296.302 1102.5C297.664 1102.2 297.937 1102.27 298.313 1102.9C298.548 1103.29 298.683 1103.8 298.666 1103.98C298.653 1104.19 283.64 1119.14 265.338 1137.29ZM295.123 1100.5C293.943 1100.74 290.834 1101.29 288.163 1101.7C285.53 1102.12 281.933 1102.68 280.194 1102.99C278.455 1103.3 275.305 1103.81 273.156 1104.17C271.007 1104.53 268.01 1105.05 266.491 1105.3C264.971 1105.55 261.713 1106.11 259.266 1106.5C256.82 1106.89 253.338 1107.48 251.483 1107.77C249.67 1108.09 243.15 1109.17 237.035 1110.17C230.92 1111.17 224.437 1112.24 222.586 1112.57C220.773 1112.88 216.182 1113.67 212.402 1114.29C208.622 1114.91 203.435 1115.76 200.88 1116.2L196.211 1116.96L195.163 1115.44C194.02 1113.75 191.705 1112.37 189.397 1112.01C187.936 1111.8 187.891 1111.73 187.939 1110.53C187.97 1109.83 187.917 1107.13 187.84 1104.55C187.763 1101.96 187.686 1099.37 187.728 1098.77C187.738 1098.21 187.634 1094.43 187.535 1090.38C187.403 1086.36 187.41 1082.88 187.543 1082.73C187.738 1082.46 295.682 1098.19 296.795 1098.66C296.952 1098.71 297.104 1099.04 297.149 1099.42C297.21 1099.94 296.854 1100.12 295.123 1100.5ZM264.93 894.29C262.19 898.294 258.549 903.633 256.805 906.153C255.099 908.668 243.301 925.909 230.639 944.479C217.939 963.053 204.758 982.35 201.309 987.386C197.859 992.421 193.545 998.786 191.677 1001.53L188.26 1006.53L186.978 1006.22C186.275 1006.02 185.282 1005.93 184.76 1005.99C184.239 1006.05 183.73 1005.9 183.631 1005.7C183.528 1005.47 182.736 1002.58 181.898 999.312C181.061 996.043 179.666 990.595 178.742 987.231C175.498 975.054 175.1 973.593 174.714 971.919C174.456 971.003 173.549 967.461 172.625 964.097C171.738 960.729 170.851 957.36 170.65 956.612C170.486 955.86 169.681 952.868 168.926 949.975C166.216 939.77 165.609 937.492 164.164 931.944C163.347 928.848 161.972 923.573 161.048 920.208C159.187 913.377 159.048 912.832 158.067 908.983C157.665 907.487 157.057 905.209 156.712 903.881C156.371 902.588 155.464 899.047 154.66 896.055C153.892 893.058 152.673 888.466 151.95 885.85C150.332 879.796 148.509 872.96 145.427 861.186C144.105 856.044 142.701 850.843 142.405 849.614C142.073 848.391 141.141 844.958 140.373 841.961C139.606 838.964 138.821 836.145 138.69 835.67C136.948 829.525 136.821 828.768 137.418 828.383C137.77 828.166 138.554 827.442 139.193 826.771L140.371 825.545L152.848 831.446C195.556 851.613 223.587 864.842 251.01 877.72C261.367 882.607 269.891 886.691 269.904 886.795C269.916 886.899 267.666 890.25 264.93 894.29ZM302.528 1262.88C302.499 1262.95 293.965 1261.04 283.524 1258.66C273.088 1256.3 259.582 1253.23 253.493 1251.87C247.4 1250.48 239.64 1248.73 236.224 1247.94C232.807 1247.15 224.348 1245.23 217.403 1243.66C210.461 1242.12 198.78 1239.46 191.409 1237.8L178.019 1234.75L177.75 1232.78C177.62 1231.67 177.163 1230.36 176.759 1229.81L176.037 1228.81L183.688 1221.28C187.885 1217.14 193.028 1212.04 195.089 1209.98C197.15 1207.91 201.99 1203.13 205.777 1199.36C209.605 1195.61 216.983 1188.32 222.192 1183.15C227.367 1178.02 231.672 1173.83 231.713 1173.86C231.755 1173.89 233.996 1176.57 236.721 1179.83C239.445 1183.09 243.309 1187.69 245.324 1190.04C247.301 1192.41 254.723 1201.25 261.757 1209.69C268.828 1218.12 275.635 1226.23 276.907 1227.72C279.759 1231.11 292.8 1246.62 299.396 1254.55L304.321 1260.46L303.437 1261.61C302.943 1262.23 302.52 1262.81 302.528 1262.88ZM212.629 540.407C212.252 542.661 210.251 555.208 208.162 568.291C206.073 581.375 203.666 596.25 202.832 601.364C201.997 606.478 198.99 625.246 196.133 643.05L190.949 675.438L188.725 676.121C187.483 676.477 186.241 676.833 185.914 676.942C185.508 677.025 179.349 671.54 167.561 660.578C157.772 651.52 148.144 642.549 146.112 640.683L142.465 637.288L144.944 633.63C147.646 629.629 161.019 609.713 185.108 573.631C193.656 560.876 202.395 547.818 204.554 544.653C206.672 541.458 209.378 537.492 210.462 535.786C212.356 532.933 213.036 532.291 213.697 532.775C213.821 532.866 213.769 533.714 213.61 534.609C213.455 535.539 213.007 538.153 212.629 540.407ZM208.364 522.107C208.094 522.7 206.679 522.55 193.266 520.583C185.12 519.401 170.938 517.314 161.757 516.007C152.572 514.666 141.505 513.054 137.157 512.373C132.813 511.725 128.395 511.087 127.319 510.933C126.21 510.817 115.412 509.245 103.302 507.44C91.1597 505.675 78.2102 503.794 74.5198 503.245C70.8335 502.731 67.6729 502.19 67.5489 502.1C67.3836 501.979 67.4784 500.214 67.727 498.15C67.9756 496.087 68.7355 489.052 69.4406 482.515C70.7241 470.614 71.0025 468.161 73.071 449.117C73.6995 443.536 74.3836 437.142 74.6119 434.905C75.258 428.831 76.3607 418.284 77.2974 409.86C77.7613 405.772 78.7584 396.254 79.5732 388.722C80.388 381.19 81.072 374.796 81.114 374.511C81.1852 374.152 82.0014 373.705 83.2809 373.344L85.3266 372.753L86.3258 373.863C86.8542 374.503 94.8338 383.913 104.081 394.788C113.291 405.667 123.367 417.497 126.435 421.1C129.502 424.703 138.27 435.038 145.94 444.064C153.61 453.089 162.593 463.644 165.879 467.503C169.165 471.361 173.198 476.114 174.821 478.028C176.447 479.976 179.027 482.97 180.517 484.724C183.675 488.457 193.05 499.457 203.003 511.196L210.054 519.453L209.382 520.479C208.992 521.016 208.551 521.769 208.364 522.107ZM206.228 538.002C204.169 541.05 194.209 555.935 184.054 571.089C173.899 586.242 164.744 599.945 163.685 601.543C161.925 604.24 157.366 611.089 145.633 628.568C143.192 632.222 141.021 635.283 140.839 635.34C140.623 635.435 136.191 631.466 130.929 626.542C125.671 621.653 120.24 616.573 118.84 615.265C117.444 613.991 111.253 608.229 105.103 602.497C98.9154 596.77 92.4639 590.723 90.6878 589.108C69.1727 569.291 66.4387 566.596 66.9325 565.977C67.6214 565.089 68.3008 562.834 68.1829 561.831C68.0894 561.035 68.2717 560.979 73.1617 559.843C75.9152 559.169 84.8092 557.072 92.8957 555.175C100.982 553.278 119.689 548.87 134.43 545.42C149.203 541.93 163.319 538.623 165.853 538.01C168.391 537.431 171.111 536.796 171.919 536.596C175.409 535.765 191.657 531.962 198.75 530.287C203.014 529.295 206.836 528.39 207.271 528.233C207.925 528.016 208.293 528.254 209.362 529.636C210.352 530.993 210.558 531.46 210.272 531.915C210.081 532.218 208.25 534.958 206.228 538.002ZM206.684 526.128C206.029 526.345 202.758 527.115 199.413 527.894C193.79 529.221 166.408 535.665 145.569 540.568C140.716 541.7 128.663 544.554 118.738 546.877C108.85 549.196 94.0391 552.69 85.8408 554.6C77.6465 556.545 70.2225 558.294 69.3033 558.507C67.6471 558.877 67.6098 558.882 67.0246 557.758C66.4887 556.733 64.0386 554.847 62.2815 554.036C61.7233 553.786 61.7457 553.011 62.4034 547.357C63.2006 540.318 64.0404 532.678 65.0923 522.663C66.0513 513.465 67.0755 504.821 67.2414 504.626C67.3782 504.505 104.369 509.77 120.902 512.248C124.596 512.831 129.089 513.461 130.893 513.705C134.157 514.163 145.721 515.821 163.556 518.461C168.744 519.22 180.502 520.925 189.687 522.267C198.867 523.573 206.707 524.722 207.092 524.782C208.172 524.971 207.926 525.771 206.684 526.128ZM185.622 693.111C185.14 694.15 183.901 697.102 182.877 699.643C171.645 726.849 163.413 746.476 163.152 746.507C163.003 746.525 160.778 745.909 158.23 745.121C155.646 744.337 152.354 743.321 150.827 742.869C147.854 741.991 133.201 737.503 113.998 731.586C107.335 729.528 100.089 727.328 97.9346 726.669L94.018 725.48L93.3799 723.907C93.0507 723.033 92.6388 722.1 92.4905 721.801C92.2182 721.412 93.6888 720.749 100.97 718.104C105.824 716.341 116.212 712.49 124.064 709.568C178.347 689.371 183.238 687.604 183.684 688.183C183.948 688.503 184.629 689.159 185.257 689.682C185.885 690.204 186.439 690.736 186.459 690.909C186.475 691.047 186.101 692.038 185.622 693.111ZM182.348 683.885C182.357 685.568 182.257 685.685 181.027 686.145C170.246 690.182 135.426 703.077 121.452 708.227C111.495 711.887 100.528 715.946 97.0567 717.266C93.5817 718.551 90.5708 719.606 90.3472 719.633C90.1237 719.659 89.491 719.418 89.0074 719.159L88.0401 718.641L93.4082 710.644C96.3311 706.267 101.957 697.889 105.876 692.027C109.832 686.16 119.373 671.886 127.116 660.313C134.859 648.74 141.348 639.349 141.517 639.504C141.682 639.625 151.306 648.562 162.879 659.304L183.915 678.896L183.158 680.493C182.734 681.384 182.383 682.899 182.348 683.885ZM121.617 237.022C120.503 237.504 120.097 237.587 119.684 237.285C118.395 236.279 92.8532 212.41 92.8207 212.134C92.7963 211.926 101.697 173.875 110.112 138.125C110.459 136.576 110.913 135.295 111.062 135.277C111.248 135.255 113.993 157.978 117.224 185.8L123.05 236.363L121.617 237.022ZM101.769 163.238C98.1608 178.499 94.1685 195.314 92.9073 200.653L90.6396 210.285L76.1915 196.935C68.2322 189.627 59.2941 181.381 56.3698 178.673C40.4309 163.884 1.47776 127.772 -1.86787 124.692C-3.98672 122.731 -9.41394 117.686 -13.9491 113.484C-18.4842 109.281 -24.6714 103.554 -27.7237 100.721C-43.4893 86.1217 -51.118 79.0555 -51.4275 78.671C-51.605 78.4463 -51.6166 78.0267 -51.3883 77.7193C-51.0354 77.1868 -50.0592 77.458 -30.8738 83.5523C-23.8886 85.7834 -20.4021 86.847 -8.32164 90.6542C-5.61686 91.494 -0.244505 93.1779 3.63892 94.4054C7.52234 95.6328 12.8161 97.2909 15.405 98.1092C17.9899 98.8929 26.3068 101.529 33.838 103.906C41.4104 106.314 49.0615 108.747 50.9019 109.303C52.7424 109.858 57.4075 111.309 61.2909 112.537C82.3169 119.187 87.4162 120.798 97.218 123.855L102.979 125.634L102.98 127.247C102.941 129.812 104.046 131.822 106.269 133.385C107.339 134.136 108.223 134.909 108.285 135.113C108.347 135.316 105.415 147.972 101.769 163.238ZM219.83 1182.34C214.986 1187.08 209.201 1192.81 206.97 1195.04C204.738 1197.27 200.002 1201.96 196.448 1205.47C192.927 1208.93 186.665 1215.11 182.571 1219.16C178.519 1223.25 174.957 1226.69 174.754 1226.89C174.227 1227.23 171.941 1226.41 171.876 1225.86C171.855 1225.68 172.825 1219.47 174.074 1212.09C175.285 1204.73 176.597 1196.93 176.908 1194.75C177.928 1188.32 180.096 1174.94 181.663 1165.78C182.431 1161.06 184.15 1150.61 185.437 1142.61L187.798 1127.98L189.459 1127.65C190.345 1127.47 191.376 1127.25 191.744 1127.17C192.258 1127.04 195.437 1130.63 206.062 1143.27C213.575 1152.24 221.125 1161.21 222.797 1163.23C224.506 1165.24 226.838 1168.05 228.023 1169.45L230.132 1171.98L229.402 1172.83C228.967 1173.3 224.67 1177.56 219.83 1182.34ZM114.277 270.997C110.423 281.587 106.356 292.623 105.302 295.553C104.212 298.487 102.892 302.044 102.413 303.434C101.248 306.692 98.9623 312.959 92.1312 331.651C89.1379 339.93 85.7328 349.204 84.6213 352.281C83.5138 355.393 82.5072 357.756 82.4124 357.592C82.264 357.293 82.3899 348.72 82.8612 329.583C82.9451 325.153 83.0534 320.931 83.088 320.261C83.0853 319.595 83.1855 315.304 83.2572 310.77C83.3662 306.233 83.4691 300.678 83.5111 298.464C83.5903 296.244 83.6493 293.852 83.6465 293.186C83.6438 292.52 83.744 288.229 83.853 283.691C83.962 279.154 84.0622 274.862 84.0595 274.196C84.094 273.526 84.1543 270.502 84.2186 267.513C84.2829 264.524 84.35 260.272 84.4292 258.053C84.4752 255.872 84.5578 254.004 84.591 253.965C84.6615 253.921 85.6308 253.492 86.7864 253.04C89.2013 252.055 91.2584 249.954 91.7346 247.899C92.0523 246.424 91.6879 246.537 97.5899 246.299C99.9573 246.196 103.19 246.062 104.729 245.987C106.269 245.911 108.227 245.856 109.055 245.829C109.882 245.802 111.914 245.739 113.57 245.685C116.612 245.538 117.162 245.719 117.312 246.999C117.414 247.864 119.784 250.672 120.594 250.822C120.909 250.926 121.198 251.137 121.226 251.38C121.251 251.587 118.136 260.442 114.277 270.997ZM103.86 121.882C103.224 121.606 100.652 120.295 98.1141 118.944C95.58 117.629 82.9014 110.98 69.9457 104.224C56.9901 97.4681 41.5335 89.3573 35.5353 86.2035C29.5784 83.0799 19.5951 77.8337 13.3984 74.5981C7.20167 71.3624 -0.483247 67.3545 -3.70354 65.6633C-6.92381 63.9721 -17.7877 58.3031 -27.8455 53.0657C-37.9074 47.7937 -46.481 43.2938 -46.8529 43.0218C-47.51 42.5729 -47.5012 42.3263 -46.5217 39.0894C-45.442 35.4198 -34.3334 0.0904358 -31.6876 -8.25294L-30.1128 -13.1733L-28.6103 -13.2446C-27.7826 -13.2717 -26.4245 -13.6066 -25.6001 -13.9841L-24.0922 -14.6523L-15.3756 -5.39884C-10.5445 -0.283968 -4.5489 6.06209 -2.04661 8.71457C0.451588 11.3324 6.14978 17.3977 10.6754 22.1626C15.1638 26.9319 20.4738 32.5868 22.5013 34.7339C24.5246 36.8463 33.5386 46.3805 42.5113 55.8845C51.5253 65.4187 66.9603 81.705 76.796 92.1248C86.6316 102.545 96.9835 113.5 99.7831 116.433C102.55 119.406 104.887 121.937 104.907 122.11C104.923 122.248 104.46 122.163 103.86 121.882ZM117.503 241.224C117.025 242.297 116.642 243.219 116.65 243.288C116.617 243.327 112.635 243.515 107.822 243.694C102.971 243.878 97.4828 244.102 95.5665 244.187L92.1146 244.382L91.7278 243.34C91.1066 241.589 89.7857 239.99 88.0787 238.963L86.4503 237.962L89.2389 226.655C90.7379 220.446 92.0567 215.275 92.123 215.197C92.2558 215.041 95.3867 217.9 107.72 229.325C117.042 237.946 118.273 239.099 118.285 239.203C118.293 239.272 117.948 240.189 117.503 241.224ZM89.0135 118.961C83.757 117.299 77.9545 115.49 76.11 114.9C74.2696 114.344 69.1702 112.734 64.7408 111.36C40.0631 103.526 30.766 100.584 15.5134 95.8165C6.25764 92.9051 -6.36877 88.9516 -12.5269 87.0092C-28.6066 81.9531 -38.6481 78.7832 -44.7649 76.8711L-50.0959 75.2173L-50.1291 73.3271C-50.1528 70.8745 -51.3071 68.7652 -53.4476 67.2629L-55.0551 66.1188L-51.8505 55.7805C-50.063 50.0986 -48.5423 45.36 -48.4136 45.1695C-48.3181 45.0179 -42.7866 47.7355 -36.1475 51.1998C-11.1128 64.3238 -2.37787 68.91 11.7063 76.2701C19.6764 80.4549 29.0108 85.3214 32.4295 87.0945C35.8483 88.8676 44.9015 93.5917 52.5492 97.604C69.3327 106.401 81.2052 112.618 91.263 117.855C95.4093 120.034 98.7576 121.85 98.6872 121.894C98.6581 121.967 94.274 120.658 89.0135 118.961ZM159.511 756.02C157.914 759.785 155.239 766.273 153.5 770.441C151.761 774.609 149.373 780.326 148.196 783.165C147.019 786.005 145.542 789.51 144.952 790.913C144.328 792.354 142.418 796.998 140.688 801.235C135.82 813.172 135.579 813.691 134.619 813.558C134.197 813.503 133.179 813.517 132.434 813.605L131.093 813.762L129.127 809.889C126.745 805.048 105.186 762.998 102.561 758.01C101.53 755.991 98.2126 749.611 95.2246 743.789C90.1347 733.899 89.8217 733.164 90.4063 732.674C91.7123 731.574 92.895 730.067 93.4023 728.92L93.9056 727.738L98.8024 729.233C103.352 730.662 124.585 737.148 149.933 744.903C151.658 745.437 155.144 746.501 157.688 747.254C160.198 748.047 162.287 748.784 162.303 748.922C162.319 749.06 161.071 752.259 159.511 756.02ZM87.1349 225.464L84.328 237.58L81.7445 238.094C80.3078 238.403 79.1197 238.577 79.0783 238.547C78.9544 238.457 -9.42261 131.437 -20.3943 118.099C-24.8027 112.724 -31.9357 104.092 -36.2452 98.9155C-40.5175 93.735 -44.4389 88.9693 -44.9259 88.36L-45.8133 87.2366L-44.8921 88.0053C-44.3881 88.4372 -40.4105 92.0738 -36.086 96.0907C-31.7616 100.108 -24.6409 106.707 -20.2792 110.72C-11.9772 118.373 16.2083 144.491 39.8626 166.442C47.5327 173.538 57.6644 182.941 62.3688 187.299C67.0733 191.657 72.9672 197.138 75.4288 199.445C77.8905 201.751 82.1363 205.742 84.8872 208.26C87.6381 210.778 89.8972 212.968 89.9134 213.107C89.9297 213.245 88.6928 218.792 87.1349 225.464ZM126.577 657.009C119.602 667.404 111.182 679.969 107.911 684.913C89.6718 712.276 85.5412 718.268 84.8083 718.459C84.0754 718.651 84.0178 718.482 82.9488 711.312C82.3615 707.277 81.5208 701.728 81.0838 698.973C80.6469 696.219 79.8516 690.735 79.2683 686.735C78.6891 682.769 77.8322 677.082 77.4121 674.15C76.9549 671.222 76.1393 665.565 75.556 661.565C74.9768 657.599 74.1205 651.596 73.6185 648.288C72.5617 641.221 71.2685 632.464 69.9265 623.291C69.392 619.706 68.5845 614.118 68.0907 610.879C67.2337 605.192 66.4669 599.951 64.2361 584.498C63.6447 580.429 62.869 575.434 62.5174 573.405L61.8549 569.695L62.8575 569.226C63.3919 568.953 64.1126 568.658 64.4439 568.584C65.0691 568.44 68.8238 571.788 83.2136 585.285C87.5048 589.341 92.8494 594.326 127.185 626.175C133.921 632.399 139.373 637.652 139.352 637.794C139.294 637.942 133.548 646.579 126.577 657.009ZM183.853 1031.7C183.923 1035.83 184.054 1040.48 184.083 1042.02C184.15 1043.56 184.184 1045.45 184.199 1046.22C184.186 1048.05 184.325 1054.69 184.402 1057.6C184.474 1058.85 184.542 1061.68 184.575 1063.89C184.607 1066.1 184.705 1068.86 184.727 1070.01C184.864 1075.68 184.889 1079.43 184.752 1079.55C184.62 1079.7 119.475 1070.13 110.154 1068.6L105.914 1067.87L105.707 1066.1L105.533 1064.3L108.483 1062.41C110.137 1061.37 126.468 1051.21 144.814 1039.87L178.119 1019.22L179.011 1020.07C179.515 1020.5 180.685 1021.13 181.665 1021.44C183.782 1022.1 183.622 1021.38 183.853 1031.7ZM180.458 1006.99C179.079 1007.47 177.175 1009.58 176.513 1011.34C176.026 1012.66 175.971 1013.48 176.294 1015.26L176.67 1017.5L158.188 1028.97C123.722 1050.34 104.739 1062.04 104.441 1062.08C103.915 1062.11 100.212 1059.52 100.159 1059.07C100.111 1058.66 102.425 1042.67 121.228 914.013C127.943 868.291 133.437 830.499 133.496 830.036C133.554 829.573 133.816 829.227 134.089 829.3C134.59 829.381 135.859 833.757 139.594 848.191C140.752 852.58 142.591 859.554 143.679 863.671C144.767 867.787 148.298 881.123 151.5 893.269C154.706 905.45 157.465 915.754 157.596 916.229C157.728 916.705 158.2 918.474 158.623 920.143C159.012 921.851 159.961 925.422 160.696 928.142C162.014 932.933 165.475 945.996 170.528 965.22C173.373 975.935 173.2 975.43 174.535 980.359C175.118 982.43 176.362 987.23 177.38 991.074C178.361 994.922 179.572 999.445 180.032 1001.11C181.346 1005.87 181.398 1006.63 180.458 1006.99ZM185.202 1090.12C185.176 1090.23 185.173 1091.81 185.273 1093.62C185.335 1095.44 185.397 1097.57 185.374 1098.35C185.389 1099.12 185.444 1102.48 185.536 1105.83C185.629 1109.19 185.652 1111.96 185.618 1112C185.548 1112.04 184.81 1112.51 183.924 1113C183.041 1113.53 182.096 1114.17 181.752 1114.45C181.167 1114.94 181.812 1115.29 133.712 1087.47C123.337 1081.47 105.629 1071.23 104.989 1070.92C104.947 1070.89 104.96 1070.68 105.052 1070.5C105.239 1070.16 111.341 1070.98 157.28 1077.83L184.88 1081.92L185.086 1085.93C185.193 1088.13 185.264 1090.01 185.202 1090.12ZM183.414 1140.49C182.336 1147.07 181.187 1154.01 180.877 1155.87C180.127 1160.42 174.814 1193 173.501 1201.11C172.935 1204.65 171.798 1211.7 170.997 1216.77L169.471 1225.96L167.906 1226.15C167.012 1226.25 165.703 1226.69 164.995 1227.09L163.727 1227.87L162.636 1226.94C162.045 1226.42 150.16 1216.55 136.184 1204.97C122.208 1193.39 110.732 1183.79 110.633 1183.59C110.514 1183.22 110.307 1183.39 142.866 1157.36C154.851 1147.81 168.552 1136.8 173.386 1132.94C182.087 1125.99 182.191 1125.9 183.013 1126.47C183.501 1126.77 184.266 1127.17 184.737 1127.32C185.209 1127.48 185.552 1127.82 185.505 1128.08C185.418 1128.3 184.491 1133.91 183.414 1140.49ZM81.9934 263.039C81.9189 266.906 81.8255 271.898 81.7463 274.117C81.7043 276.332 81.6332 280.55 81.5567 283.435C81.4842 286.355 81.4172 290.607 81.3502 292.93C81.2832 295.253 81.12 301.901 81.0083 307.702C80.6589 324.019 80.3875 336.819 80.1823 345.682C80.0652 350.15 79.9894 354.649 79.9995 355.7L80.0036 357.664L78.1523 358.303C77.1376 358.667 75.7246 359.5 74.9741 360.184L73.6844 361.423L66.0435 358.112C61.8261 356.292 51.8781 351.989 43.8816 348.543C35.885 345.098 29.1539 342.136 28.9059 341.955C28.5341 341.683 29.8556 339.107 34.2998 331.605C42.9931 316.868 75.3327 261.962 78.0408 257.365C79.2953 255.183 80.4495 253.434 80.6026 253.451C80.7557 253.468 81.1777 253.524 81.5997 253.58C82.1748 253.652 82.2778 253.886 82.2012 254.842C82.1626 255.478 82.0679 259.172 81.9934 263.039ZM76.0911 242.055C75.3853 243.12 74.6802 243.869 74.2995 243.844C73.9601 243.849 71.8954 243.635 69.6818 243.439C67.464 243.209 57.0865 242.323 46.5933 241.417C36.0999 240.51 22.2841 239.291 15.8706 238.712C9.45721 238.132 -5.88551 236.778 -18.2863 235.709C-30.6539 234.602 -48.8558 233.022 -58.7409 232.149C-68.5886 231.271 -78.2047 230.437 -80.0709 230.305C-81.9411 230.139 -83.5465 229.977 -83.6664 229.921C-83.7491 229.86 -82.6708 222.964 -81.2335 214.622C-79.8293 206.319 -77.2345 190.791 -75.424 180.161C-73.6507 169.535 -71.9993 159.8 -71.7359 158.506C-71.5096 157.217 -69.8583 147.482 -68.085 136.856C-63.3396 108.447 -58.8381 81.8216 -58.7344 81.7392C-58.7012 81.7003 -57.6743 81.4393 -56.4571 81.1911L-54.2461 80.7209L-41.9041 95.757C-35.118 104.01 -28.8643 111.588 -27.9932 112.573C-27.118 113.593 -12.8562 130.824 3.66327 150.876C20.22 170.924 43.5134 199.125 55.4429 213.543C67.3724 227.961 77.1553 239.861 77.2088 239.995C77.225 240.133 76.7306 241.068 76.0911 242.055ZM73.4773 260.637C66.7653 271.984 53.5072 294.482 39.2479 318.747C32.6063 330.05 26.9368 339.66 26.6462 340.08C26.0731 340.99 27.1773 341.386 8.8608 333.366C6.35517 332.292 -10.0389 325.203 -27.5452 317.649C-45.0515 310.094 -63.8353 301.953 -69.3262 299.582C-74.7798 297.206 -80.9487 294.528 -82.9788 293.644C-85.3233 292.657 -86.6211 291.898 -86.5459 291.573C-86.4626 291.318 -86.3658 290.535 -86.294 289.86C-86.2635 289.155 -86.105 288.575 -85.956 288.557C-85.8442 288.544 -82.101 287.613 -77.6622 286.495C-65.9896 283.616 -56.5198 281.276 -46.2718 278.809C-42.3464 277.822 -36.8725 276.512 -34.1603 275.808C-31.444 275.138 -26.6366 273.942 -23.5146 273.189C-20.3966 272.402 -8.5005 269.496 2.91537 266.682C29.3121 260.213 32.9808 259.291 38.3429 257.995C43.1171 256.838 53.1416 254.397 61.6549 252.275C73.9114 249.221 75.4226 248.903 75.5669 249.167C75.6245 249.336 76.2809 250.1 76.9745 250.861C77.6309 251.626 78.2379 252.291 78.246 252.36C78.2914 252.425 76.1231 256.152 73.4773 260.637ZM161.382 1139.75C151.23 1147.85 135.174 1160.68 125.676 1168.25L108.485 1182.02L107.53 1181.29C106.82 1180.71 77.6079 1156.47 65.8877 1146.72C59.563 1141.43 24.2122 1112.19 21.5806 1110.05C19.8248 1108.6 9.53801 1100.13 -1.22365 1091.15C-12.0185 1082.21 -21.1855 1074.59 -21.6028 1074.26C-22.2307 1073.73 -22.2924 1073.53 -21.9063 1072.96C-21.466 1072.21 -21.193 1072.28 10.0329 1079.59C31.5134 1084.64 71.55 1093.97 79.7362 1095.81C84.9398 1097.03 134.333 1108.52 141.133 1110.14C144.124 1110.84 153.911 1113.13 162.957 1115.22L179.338 1118.98L179.603 1120.91C179.729 1121.98 180.016 1123.14 180.247 1123.5C180.482 1123.9 180.456 1124.32 180.224 1124.59C180.025 1124.83 171.535 1131.65 161.382 1139.75ZM166.255 1113.71C159.111 1112.06 149.945 1109.91 145.866 1108.95C141.829 1108.02 128.783 1104.99 116.94 1102.25C92.3199 1096.51 75.741 1092.67 63.7371 1089.84C53.5987 1087.45 20.321 1079.71 15.2 1078.56C-3.74097 1074.23 -19.3269 1070.48 -19.0037 1070.34C-18.7883 1070.24 -16.1974 1070.11 -13.2548 1070.08C-10.3123 1070.05 -7.21665 1070.04 -6.3889 1070.01C-5.55707 1070.02 -1.63775 1069.95 2.28157 1069.87C6.23814 1069.79 10.0457 1069.73 10.7617 1069.72C11.519 1069.73 14.6478 1069.68 17.7394 1069.63C20.8641 1069.55 24.9365 1069.49 26.7824 1069.45C28.6696 1069.44 30.8589 1069.43 31.6866 1069.4C32.5144 1069.37 34.7409 1069.36 36.5909 1069.35C38.474 1069.3 47.1072 1069.17 55.8149 1069.02C64.5226 1068.87 72.3985 1068.72 73.3421 1068.71C74.2857 1068.71 75.7177 1068.68 76.5495 1068.69C78.1346 1068.68 80.0922 1068.62 83.5231 1068.57C89.0235 1068.45 88.676 1068.39 89.1034 1069.77C90.5043 1074.63 97.44 1076.76 102.036 1073.76L103.685 1072.69L114.912 1079.19C121.071 1082.75 138.133 1092.64 152.799 1101.09C167.468 1109.57 179.393 1116.55 179.326 1116.63C179.297 1116.7 173.403 1115.4 166.255 1113.71ZM74.6199 246.893C74.0611 246.959 29.7849 257.808 20.8327 260.052C20.2488 260.226 16.0253 261.248 11.4747 262.379C6.91998 263.475 1.41697 264.858 -0.823121 265.402C-3.02596 265.942 -9.89118 267.625 -16.0607 269.121C-22.2303 270.618 -28.3253 272.106 -29.6462 272.436C-34.1183 273.593 -40.4701 275.146 -62.6847 280.562C-74.912 283.542 -85.3382 286.099 -85.8517 286.23C-86.6551 286.465 -86.8989 286.318 -87.5919 285.242C-88.3343 284.066 -90.2886 282.542 -91.7937 281.947C-92.3851 281.736 -92.2584 280.564 -90.6443 270.833C-89.6466 264.858 -87.7731 253.799 -86.5444 246.254C-85.2785 238.704 -84.2015 232.439 -84.0979 232.357C-83.9983 232.24 -81.9872 232.319 -79.5832 232.528C-77.2164 232.741 -71.4194 233.217 -66.6858 233.643C-57.0697 234.478 -26.5375 237.17 -12.8706 238.405C3.312 239.837 32.1271 242.379 48.1858 243.72C52.9153 244.111 58.9108 244.67 61.5465 244.921C64.1821 245.173 67.9599 245.501 69.946 245.688C71.932 245.876 73.8768 246.033 74.2616 246.093C74.9566 246.222 75.2533 246.819 74.6199 246.893ZM78.1248 380.895C76.7824 393.26 73.0125 428.042 72.3122 434.298C72.1354 435.687 71.2318 444.071 70.2735 452.953C68.7779 467.23 67.8744 475.614 66.5787 487.411C65.3074 499.417 64.9837 501.805 64.6815 501.805C64.3381 501.775 38.9024 498.099 -6.17256 491.538C-17.4713 489.884 -31.575 487.823 -37.4913 486.975L-48.2894 485.402L-48.9268 483.513C-49.3177 482.436 -49.7167 481.29 -49.8732 480.923C-50.1286 480.357 -47.0892 477.614 -30.5545 463.395C-19.7829 454.132 -1.22895 438.132 10.6705 427.86C22.5699 417.588 34.2289 407.519 36.5963 405.487C38.9637 403.455 48.6325 395.093 58.1354 386.926L75.3834 372.027L76.7144 372.748C77.4419 373.153 78.269 373.442 78.5298 373.411C78.8279 373.376 78.9349 373.644 78.855 374.25C78.796 374.713 78.4296 377.702 78.1248 380.895ZM126.209 864.145C120.968 900.223 98.1768 1055.38 97.7785 1057.78C97.5604 1059.13 97.494 1059.21 96.041 1059.38L94.4763 1059.57L88.146 1045.23C67.6845 999.015 51.6343 962.702 50.0898 959.2C49.1509 956.996 40.7079 937.854 31.309 916.684C-8.34113 827.056 -10.9234 821.151 -10.4926 820.96C-9.63094 820.578 -7.54396 818.088 -7.21476 817.032C-6.82731 815.829 -6.68235 815.777 -4.05479 815.959C-3.06581 816.019 3.16608 816.339 9.73329 816.619C16.3046 816.935 27.7008 817.49 34.9962 817.861C42.3288 818.227 54.1803 818.799 61.3971 819.144C68.6099 819.454 76.7411 819.867 79.4391 820.006C82.1744 820.14 87.3055 820.415 90.8354 820.561C94.4065 820.738 100.638 821.058 104.702 821.247C108.766 821.436 114.844 821.739 118.184 821.873L124.259 822.142L124.694 823.599C124.941 824.412 125.658 825.695 126.277 826.464C127.384 827.843 129.901 829.336 130.869 829.222C131.167 829.187 131.308 829.416 131.241 829.81C131.165 830.134 128.902 845.589 126.209 864.145ZM128.177 814.982C127.779 815.134 126.867 816.048 126.144 816.974C125.389 817.94 124.614 818.733 124.427 818.754C124.241 818.776 121.506 818.326 118.379 817.746C115.252 817.167 105.915 815.492 97.62 814.011C89.3667 812.561 79.798 810.844 76.3976 810.191C73.0012 809.573 55.9075 806.495 38.3958 803.396C20.8841 800.297 6.40916 797.648 6.24795 797.561C6.04542 797.445 15.2672 789.136 26.7439 779.124C38.1793 769.081 54.7933 754.572 63.6621 746.795C76.7436 735.332 79.8446 732.793 80.3655 733.047C82.1721 733.957 84.1534 734.426 85.8008 734.303C87.0716 734.189 87.7666 734.317 87.9562 734.646C88.1005 734.909 91.2904 741.164 95.0655 748.543C98.8406 755.921 103.403 764.856 105.254 768.392C107.104 771.928 112.297 782.051 116.81 790.886C121.323 799.722 125.865 808.484 126.883 810.398C129.018 814.427 129.075 814.595 128.177 814.982ZM59.7089 382.638C52.0593 389.219 43.3483 396.731 40.3631 399.292C37.3407 401.857 30.2425 407.987 24.5166 412.939C18.828 417.887 9.22558 426.171 3.18884 431.37C-2.8479 436.569 -12.239 444.722 -17.7285 449.436C-23.1806 454.145 -33.1272 462.715 -39.7776 468.477C-46.4281 474.239 -51.9629 478.888 -52.0828 478.832C-52.2522 478.677 -50.4659 475.556 -40.5764 458.785C-37.9015 454.226 -27.1896 436.096 -16.8347 418.464C-6.47567 400.866 3.78777 383.42 5.96417 379.761C8.13648 376.069 10.9401 371.32 12.2027 369.207C14.965 364.428 19.5962 356.588 23.9076 349.241L27.1888 343.735L30.2113 345.028C31.8817 345.744 42.0323 350.164 52.8156 354.825L72.3561 363.298L72.4624 365.811C72.5132 367.208 72.7998 368.683 73.043 369.145C73.3234 369.603 73.5747 370.135 73.5951 370.308C73.6195 370.516 67.3585 376.057 59.7089 382.638ZM161.369 1231.27C160.957 1232.26 160.706 1233.66 160.787 1234.35L160.933 1235.6L153.23 1238.18C148.977 1239.6 138.292 1243.17 129.5 1246.13C99.4532 1256.25 94.2557 1257.99 80.6261 1262.53C73.1384 1265.03 64.8886 1267.79 62.2753 1268.69C59.6992 1269.59 52.9072 1271.89 47.2003 1273.79C41.4974 1275.72 32.1212 1278.86 26.3106 1280.84C20.5333 1282.78 13.2277 1285.22 10.1423 1286.28C7.05278 1287.31 -4.7214 1291.26 -16.0194 1295.07C-29.6076 1299.65 -36.6394 1301.85 -36.8501 1301.66C-37.0235 1301.47 -36.567 1300.86 -35.8828 1300.25C-34.2287 1298.9 4.99264 1267.53 27.7185 1249.42C37.4897 1241.61 50.8508 1230.92 57.4133 1225.69C100.639 1191.12 108.168 1185.11 108.432 1185.12C108.656 1185.09 162.069 1229.18 162.097 1229.43C162.097 1229.43 161.781 1230.27 161.369 1231.27ZM106.681 819.121C103.035 818.953 96.2361 818.629 91.527 818.41C79.9776 817.838 76.4437 817.657 66.4544 817.182C61.7453 816.963 52.7036 816.517 46.3226 816.214C39.9417 815.912 29.3441 815.403 22.7728 815.088C16.2056 814.807 9.51853 814.47 7.96259 814.407C6.40258 814.31 2.56251 814.095 -0.590697 813.939C-3.70664 813.779 -6.33014 813.631 -6.40872 813.605C-6.49137 813.545 -6.70541 813.009 -6.89034 812.399C-7.03802 811.785 -7.40043 810.951 -7.64362 810.488C-7.88681 810.025 -7.98096 809.546 -7.84821 809.39C-7.51222 809.034 2.32256 800.478 3.15168 799.819C3.63667 799.447 7.05812 799.957 20.139 802.313C29.1699 803.953 49.3125 807.585 64.9004 810.384C80.4883 813.183 97.8137 816.304 103.37 817.3C108.925 818.296 113.451 819.202 113.385 819.28C113.318 819.358 110.285 819.258 106.681 819.121ZM61.7529 532.175L59.4433 553.668L57.8325 554.102C56.9918 554.341 55.629 554.958 54.8913 555.43C53.7309 556.163 53.3665 556.276 52.8375 555.952C52.1513 555.577 3.95533 524.057 0.388905 521.67C-0.635985 520.984 -11.7654 513.698 -24.3661 505.462C-52.3449 487.211 -49.5886 489.133 -49.0528 488.228C-48.6044 487.544 -47.7231 487.651 -27.1653 490.637C-15.3659 492.373 9.92071 496.067 29.0554 498.835C48.19 501.603 64.0231 503.917 64.2548 503.96C64.7967 504.072 64.7541 504.673 61.7529 532.175ZM80.4805 719.88L79.1711 720.63L62.8204 708.766C53.8206 702.246 31.3998 685.974 12.9499 672.638C-5.50006 659.301 -20.5116 648.227 -20.4161 648.075C-20.2996 647.781 -6.82327 633.57 26.9234 598.037C33.3774 591.245 42.1832 581.968 46.4182 577.507C50.6863 573.006 54.3197 569.212 54.527 569.048C54.7384 568.917 55.5824 569.029 56.4426 569.279C57.2698 569.567 58.2377 569.769 58.6103 569.725C58.9456 569.686 59.3303 569.746 59.4252 569.91C59.7266 570.226 60.7306 576.842 66.2212 614.256C66.78 618.048 67.5794 623.567 68.0367 626.494C68.4939 629.422 69.3502 635.425 69.9741 639.771C70.6021 644.152 71.4469 649.736 71.81 652.183C72.2144 654.661 73.03 660.318 73.6661 664.768C74.3022 669.218 75.0935 674.668 75.4613 676.834C75.7919 679.005 76.722 685.315 77.5173 690.799C78.3167 696.317 79.3687 703.665 79.9324 707.176C80.4587 710.692 81.0915 714.792 81.3489 716.34L81.7485 719.1L80.4805 719.88ZM77.3815 723.401C77.2074 723.527 76.9737 724.431 76.8268 725.43C76.5789 727.178 76.5457 727.217 75.2458 727.405C74.4634 727.497 73.2049 727.715 72.3934 727.88C70.8117 728.242 65.3547 729.374 46.3922 733.215C39.7925 734.587 33.669 735.832 32.7498 736.045C31.3503 736.35 27.33 737.173 15.965 739.455C14.7437 739.669 12.0897 740.226 10.061 740.64C8.03222 741.054 5.30373 741.62 3.97471 741.881C2.6457 742.143 0.103496 742.687 -1.73898 743.079C-3.54419 743.466 -6.38444 744.045 -8.0115 744.342C-9.63449 744.673 -11.4438 745.025 -12.069 745.169C-12.6529 745.343 -15.1619 745.848 -17.5964 746.345C-20.0309 746.841 -22.838 747.381 -23.8689 747.608C-24.8626 747.83 -29.5122 748.762 -34.199 749.698C-38.8485 750.63 -43.2745 751.536 -43.9701 751.723C-44.6699 751.875 -46.4006 752.254 -47.8414 752.528C-50.9465 753.104 -61.939 755.342 -64.2576 755.86C-65.1809 756.039 -66.9116 756.417 -68.1288 756.666C-69.3502 756.879 -73.2586 757.689 -76.8027 758.386C-80.3467 759.083 -84.6569 760.01 -86.3876 760.389C-88.1183 760.768 -90.6605 761.312 -92.1013 761.586C-95.4631 762.227 -101.806 763.533 -108.704 764.94C-111.726 765.576 -116.301 766.499 -118.848 767.009C-121.394 767.518 -124.052 768.041 -124.748 768.228C-125.447 768.38 -127.364 768.781 -128.991 769.077L-131.943 769.669L-132.768 768.434C-133.73 767.003 -134.145 767.648 -128.529 761.762C-124.825 757.924 -48.8285 677.896 -43.8552 672.647C-33.6472 661.801 -22.4441 650.102 -22.2951 650.085C-21.8108 650.028 77.5868 722.254 77.6396 722.704C77.6721 722.981 77.5556 723.275 77.3815 723.401ZM59.0702 747.896C48.7917 756.855 39.2387 765.238 37.7959 766.46C36.3199 767.721 28.1684 774.852 19.6437 782.343C11.0816 789.838 3.78431 796.202 3.36568 796.497C2.73979 796.956 0.0465238 796.536 -17.9739 793.286C-29.3214 791.217 -59.4134 785.843 -84.8761 781.293C-110.302 776.738 -131.3 772.891 -131.466 772.77C-132.21 772.226 -131.103 771.675 -128.185 771.122C-126.45 770.778 -124.384 770.36 -123.572 770.194C-122.765 769.994 -120.107 769.472 -117.672 768.975C-115.238 768.479 -109.669 767.333 -105.314 766.471C-100.962 765.574 -96.536 764.668 -95.5423 764.446C-94.5114 764.22 -90.8596 763.475 -87.4273 762.791C-83.9619 762.068 -80.3101 761.324 -79.3124 761.136C-78.2814 760.91 -70.9779 759.421 -63.0824 757.827C-55.1496 756.228 -47.8501 754.704 -46.8524 754.517C-45.8214 754.291 -36.7872 752.422 -26.7512 750.402C-16.7192 748.346 -7.64366 746.508 -6.64994 746.286C-5.61899 746.06 -0.0875013 744.919 5.70882 743.782C11.5011 742.61 17.8109 741.343 19.7238 740.908C21.6408 740.507 26.1372 739.558 29.6812 738.861C33.2212 738.13 36.724 737.402 37.4237 737.25C38.1234 737.098 40.8892 736.527 43.5099 736.009C48.1263 735.116 58.0837 733.069 61.955 732.264C65.2714 731.558 76.1562 729.368 76.6778 729.306C77.2366 729.241 78.3008 730.904 77.9317 731.299C77.8362 731.45 69.3446 738.902 59.0702 747.896ZM51.5133 559.791C51.2965 560.518 51.1455 561.482 51.1983 561.932C51.2999 562.797 51.9583 562.615 36.5886 566.174C34.2699 566.692 31.6241 567.318 30.7049 567.532C29.7857 567.745 26.3324 568.572 22.9868 569.35C19.6413 570.129 16.3329 570.904 15.6373 571.091C14.9376 571.243 11.5547 572.026 8.10145 572.853C4.68135 573.641 -3.51694 575.551 -10.0963 577.095C-16.6798 578.605 -26.8242 580.99 -32.7038 582.382C-38.5503 583.735 -47.3366 585.785 -52.1852 586.951C-57.038 588.082 -65.8988 590.14 -71.8529 591.541C-77.8111 592.908 -83.1401 594.165 -83.6867 594.334C-84.4942 594.535 -84.7339 594.422 -85.1295 593.627C-85.4181 593.1 -86.4091 592.059 -87.3676 591.294L-89.078 589.917L-86.9904 583.253C-85.7989 579.57 -83.7032 572.975 -82.295 568.565C-79.637 560.325 -75.7748 548.191 -69.2999 527.753C-67.2956 521.344 -64.0416 511.105 -62.0793 504.981L-58.5503 493.868L-55.9667 493.354C-54.2279 493.045 -52.9233 492.576 -52.0529 491.948C-50.9379 491.15 -50.6067 491.076 -50.0817 491.365C-49.7179 491.568 -39.0843 498.492 -26.5168 506.767C-13.912 515.037 -1.55516 523.126 0.978252 524.758C18.3152 536.015 51.8811 558.099 51.9014 558.272C51.9176 558.41 51.7341 559.098 51.5133 559.791ZM47.2506 573.34C44.1896 576.541 40.2574 580.686 38.5152 582.574C36.7317 584.432 25.1717 596.629 12.8029 609.657C0.43406 622.686 -12.5735 636.385 -16.0992 640.132L-22.4828 646.88L-30.1108 641.427C-34.3174 638.414 -48.4368 628.181 -61.5273 618.67C-82.9977 603.093 -85.3157 601.366 -84.9378 600.725C-84.7176 600.349 -84.3844 599.327 -84.2252 598.432C-84.066 597.536 -83.9278 596.783 -83.8987 596.71C-83.7991 596.593 -76.0852 594.739 -61.8582 591.419C-57.5934 590.427 -51.4902 589.009 -48.2564 588.243C-45.0226 587.477 -34.1039 584.932 -23.9927 582.586C-13.8815 580.241 1.07841 576.73 9.27264 574.785C17.471 572.875 24.8205 571.134 25.632 570.969C26.4395 570.769 29.7478 569.994 32.9816 569.229C44.9976 566.379 51.6224 564.899 51.7091 564.994C52.1839 565.499 52.8268 566.792 52.8261 567.108C52.8173 567.354 50.3117 570.139 47.2506 573.34ZM14.1481 361.332C9.83664 368.678 3.22012 379.873 -0.493242 386.203C-4.20656 392.532 -14.7193 410.428 -23.8861 425.957C-33.0116 441.515 -43.5657 459.381 -47.279 465.711C-50.9923 472.04 -54.1075 477.352 -54.2403 477.507C-54.373 477.663 -55.1886 477.794 -56.0245 477.752L-57.5764 477.724L-58.0722 475.432C-58.5884 472.967 -59.1412 470.191 -60.1357 464.941C-60.471 463.051 -60.8476 461.131 -60.979 460.655C-61.1105 460.18 -61.5603 457.637 -62.0223 454.99C-62.447 452.339 -62.9178 449.939 -63.0249 449.671C-63.1319 449.403 -63.5207 447.379 -63.9258 445.217C-64.2937 443.051 -64.9772 439.483 -65.4195 437.325C-66.3943 432.564 -67.0535 429.204 -67.7736 425.325C-68.2193 422.817 -69.0952 418.254 -71.7432 404.394C-72.0217 402.989 -72.4186 400.896 -72.6645 399.767C-72.8732 398.634 -73.3318 396.338 -73.6468 394.621C-73.9577 392.939 -74.3832 390.604 -74.6291 389.475C-75.0138 387.486 -75.358 385.843 -76.5123 379.875C-76.8029 378.366 -78.3582 370.27 -79.9502 361.863C-81.5794 353.461 -83.0528 345.742 -83.2865 344.717C-83.4829 343.688 -83.9334 341.461 -84.2484 339.744C-84.5593 338.062 -85.2429 334.494 -85.7421 331.852C-87.2934 323.791 -87.5759 322.351 -88.1775 319.16C-88.5256 317.482 -88.9064 315.527 -89.0581 314.878C-89.2098 314.23 -89.6806 311.83 -90.0607 309.559C-90.4407 307.289 -90.9278 304.75 -91.1039 303.894C-92.498 297.814 -92.5875 297.053 -91.8051 296.961C-91.3953 296.913 -90.264 296.254 -89.2981 295.474L-87.5735 294.079L-80.2883 297.257C-71.6509 301.013 -72.4035 300.715 -37.9904 315.544C-23.1096 321.968 -7.15387 328.863 -2.57274 330.885C2.04161 332.869 9.92229 336.292 14.9336 338.44C19.9862 340.617 24.2862 342.497 24.5673 342.64C24.9311 342.842 24.6398 343.578 23.535 345.427C22.7168 346.821 18.4968 353.981 14.1481 361.332ZM-35.342 -4.31596C-36.8796 0.600034 -38.9131 7.08255 -39.8837 10.0729C-40.813 13.0934 -43.1296 20.3809 -44.9673 26.2792C-46.805 32.1775 -48.5925 37.8595 -48.9671 38.8505C-49.3003 39.8718 -49.6377 40.8585 -49.6837 41.1095C-49.7298 41.3604 -50.8298 40.9986 -52.4007 40.1659C-53.8476 39.4239 -63.6283 34.2942 -74.1285 28.8281C-84.6327 23.3274 -95.2154 17.8009 -97.671 16.5109C-100.089 15.2165 -110.709 9.69438 -121.213 4.19368C-145.236 -8.34782 -150.994 -11.3895 -151.01 -11.5278C-151.018 -11.597 -150.901 -12.2071 -150.751 -12.8562L-150.438 -14.0505L-146.278 -14.3287C-143.989 -14.4573 -141.1 -14.6213 -139.859 -14.6619C-138.617 -14.7026 -132.947 -14.9829 -127.276 -15.2632C-121.606 -15.5435 -115.861 -15.8325 -114.508 -15.8863C-112.219 -16.0149 -88.9785 -17.2017 -82.41 -17.5525C-80.7585 -17.6413 -78.8009 -17.6959 -78.0849 -17.7098C-77.3689 -17.7238 -74.8897 -17.8397 -72.6421 -17.9985C-70.3573 -18.1617 -67.7664 -18.2907 -66.8268 -18.3309C-62.8743 -18.4444 -39.2202 -19.6449 -38.0653 -19.7805C-37.3947 -19.8593 -37.1508 -19.7126 -37.0777 -19.0898C-36.8859 -17.7794 -35.3632 -15.7485 -33.8215 -14.8422C-33.0445 -14.3372 -32.4125 -13.78 -32.4667 -13.5983C-32.4795 -13.3863 -33.8044 -9.23194 -35.342 -4.31596ZM96.7111 1191.44C91.5664 1195.55 79.2375 1205.38 69.3628 1213.28C59.484 1221.14 45.4677 1232.36 38.1799 1238.16C30.9292 1243.96 18.9485 1253.54 11.5943 1259.42C4.24003 1265.3 -10.0539 1276.73 -20.1691 1284.83L-38.5714 1299.55L-39.7947 1298.78C-40.485 1298.37 -41.436 1297.99 -41.9698 1297.95C-43.0787 1297.83 -43.0461 1298.11 -42.6757 1293.22C-42.5551 1291.04 -42.0932 1284.04 -41.6781 1277.6C-40.822 1264.31 -39.9781 1250.92 -38.8268 1233.07C-37.3592 1210.52 -36.2424 1193.34 -35.1289 1175.81C-34.5086 1166.3 -33.622 1152.31 -33.1175 1144.71C-32.6461 1137.15 -31.9919 1127.28 -31.7257 1122.8C-31.4182 1118.34 -30.9089 1110.46 -30.571 1105.3C-30.233 1100.14 -29.7481 1092.05 -29.44 1087.28C-29.1277 1082.54 -28.7959 1078.29 -28.6916 1077.89C-28.5622 1077.39 -28.1063 1077.09 -27.2576 1076.92C-26.5951 1076.77 -25.5431 1076.4 -24.9836 1076.02C-23.9973 1075.41 -23.8815 1075.44 -23.0138 1076.07C-22.5139 1076.47 -12.3883 1084.85 -0.461541 1094.75C11.4279 1104.65 22.5161 1113.83 24.1852 1115.18C25.8542 1116.53 35.3559 1124.42 45.3535 1132.68C55.3178 1140.98 64.8155 1148.85 66.4846 1150.2C83.365 1164 106.408 1183.32 106.288 1183.58C106.196 1183.76 101.889 1187.29 96.7111 1191.44ZM-54.2843 55.9612L-57.2511 65.4297L-59.3293 65.744C-60.4802 65.9143 -62.0124 66.3749 -62.721 66.7738C-63.4708 67.1425 -64.0798 67.4245 -64.1211 67.3943C-64.1665 67.3295 -69.2184 62.907 -75.3237 57.556C-81.429 52.205 -87.493 46.8842 -88.757 45.7699C-90.021 44.6557 -95.0689 40.2678 -99.9102 36.031C-104.789 31.7987 -116.322 21.7186 -125.579 13.6511C-134.799 5.57922 -144.473 -2.82509 -147.001 -5.05362C-149.563 -7.24318 -151.186 -8.84142 -150.59 -8.59567C-149.391 -8.035 -66.8581 35.0946 -55.2132 41.3031L-50.4633 43.7968L-50.8718 45.1426C-51.1258 45.8739 -52.6302 50.751 -54.2843 55.9612ZM-65.6028 108.152C-67.9497 121.932 -70.6367 137.962 -71.6547 143.764C-72.6355 149.562 -73.7673 156.324 -74.1575 158.791C-76.5221 173.064 -86.103 229.435 -86.1985 229.587C-86.3353 229.708 -129.451 226.004 -155.679 223.613C-160.719 223.153 -170.757 222.263 -178.007 221.641C-185.256 221.02 -197.086 219.989 -204.335 219.368L-217.464 218.209L-217.912 216.964C-218.147 216.255 -218.683 215.23 -219.087 214.682C-219.764 213.744 -219.776 213.64 -219.17 213.008C-218.834 212.653 -213.76 208.268 -207.926 203.268C-202.055 198.264 -196.184 193.26 -194.887 192.09C-193.547 190.951 -190.259 188.074 -187.511 185.752C-184.766 183.395 -172.655 172.993 -160.578 162.629C-148.5 152.266 -136.389 141.864 -133.645 139.507C-130.896 137.184 -127.056 133.857 -125.066 132.15C-123.076 130.443 -117.52 125.651 -112.719 121.509C-107.914 117.402 -95.3221 106.592 -84.7538 97.5288C-74.1854 88.4651 -65.2258 80.8182 -64.8444 80.5278C-64.2517 80.1074 -63.9083 80.1372 -62.6388 80.6545C-61.4399 81.2152 -61.1838 81.4658 -61.2847 82.2142C-61.3396 82.7117 -63.293 94.3762 -65.6028 108.152ZM-66.2961 70.4209C-66.6578 71.2 -66.9572 71.8666 -67.0236 71.9445C-67.0859 72.057 -69.5564 71.9263 -103.868 69.854C-115.355 69.169 -132.396 68.1543 -141.714 67.6004C-151.033 67.0466 -162.065 66.3783 -166.248 66.1331C-170.432 65.888 -175.414 65.5964 -177.276 65.4995C-179.175 65.4069 -180.934 65.2276 -181.211 65.1199C-181.529 64.9819 -181.086 62.9656 -179.661 58.0627C-178.523 54.246 -173.849 38.0878 -169.229 22.1114L-160.82 -6.9379L-158.999 -7.18695C-157.955 -7.3095 -156.481 -7.62298 -155.641 -7.86204L-154.142 -8.28368L-125.391 16.8561C-109.566 30.6762 -95.2944 43.1706 -93.6545 44.5914C-92.0145 46.0123 -85.0334 52.0672 -78.1762 58.0314C-71.319 63.9956 -65.6804 68.9104 -65.6763 68.945C-65.635 68.9752 -65.9344 69.6418 -66.2961 70.4209ZM-77.1062 88.0366C-83.1762 93.2746 -98.1021 106.077 -110.283 116.523C-122.469 126.934 -133.962 136.808 -135.844 138.467C-137.731 140.092 -152.242 152.565 -168.096 166.143C-183.947 179.756 -202.509 195.687 -209.334 201.575L-221.751 212.259L-222.901 211.797L-224.017 211.297L-219.018 194.049C-216.279 184.572 -211.009 166.414 -207.361 153.744C-203.675 141.069 -199.811 127.672 -198.735 123.968C-197.659 120.263 -193.548 106.066 -189.604 92.3783C-185.66 78.691 -182.408 67.4703 -182.375 67.4313C-182.342 67.3924 -178.315 67.5858 -173.408 67.8862C-168.5 68.1866 -158.308 68.7781 -150.777 69.2263C-143.246 69.6745 -134.424 70.1814 -131.188 70.3976C-127.956 70.5791 -121.604 70.9554 -117.115 71.2347C-112.629 71.4794 -108.176 71.7631 -107.225 71.8267C-106.273 71.8903 -101.821 72.174 -97.335 72.4187C-92.8453 72.698 -84.2507 73.1966 -78.2383 73.5777L-67.3223 74.2245L-66.9281 75.6514C-66.6896 76.3951 -66.3232 77.264 -66.1416 77.5233C-65.9228 77.7782 -65.8449 78.1198 -65.9032 78.267C-65.9655 78.3795 -70.999 82.7942 -77.1062 88.0366ZM-4.53317 803.528C-7.20338 805.876 -9.46715 807.826 -9.61618 807.843C-9.72794 807.857 -10.5218 807.529 -11.3984 807.141C-14.6356 805.627 -19.3142 806.633 -21.679 809.331L-22.7743 810.617L-35.4332 806.387C-42.352 804.078 -59.7295 798.262 -74.0013 793.484C-88.2731 788.707 -105.456 782.939 -112.214 780.716C-118.938 778.454 -124.447 776.576 -124.376 776.532C-124.314 776.42 -48.0414 790.049 -20.556 795.098C-11.641 796.716 -3.27195 798.189 -1.92734 798.381C-0.624065 798.544 0.426558 798.806 0.405551 798.949C0.347309 799.096 -1.86703 801.145 -4.53317 803.528ZM-34.6565 659.64C-40.3762 665.608 -45.9219 671.451 -47.0253 672.668C-49.1699 674.99 -52.932 678.974 -96.6002 724.899C-112.026 741.162 -126.614 756.521 -129.032 759.085C-135.615 766.067 -135.308 765.785 -136.193 765.328C-137.036 764.901 -137.04 764.866 -134.742 756.774C-134.184 754.78 -130.046 739.526 -125.541 722.897C-115.558 686.016 -105.406 648.659 -99.6996 627.785C-97.3431 619.23 -95.053 610.753 -94.5856 608.944L-93.7552 605.725L-91.7142 605.415C-90.4516 605.231 -89.0724 604.754 -88.1566 604.19L-86.6813 603.245L-55.55 625.825C-38.4183 638.229 -24.3733 648.47 -24.3611 648.574C-24.3449 648.712 -28.9741 653.676 -34.6565 659.64ZM-88.3497 242.783C-89.3596 248.654 -91.229 259.747 -92.5573 267.41L-94.9212 281.367L-96.7596 281.794C-98.743 282.272 -99.9155 282.901 -100.99 284.045C-101.761 284.872 -96.7677 287.512 -172.217 246.813C-218.308 221.956 -219.523 221.257 -217.337 220.579C-217.009 220.471 -204.042 221.543 -188.546 222.915C-173.046 224.321 -158.469 225.59 -156.181 225.777C-153.855 225.96 -144.657 226.773 -135.653 227.54C-100.272 230.679 -86.9151 231.846 -86.7288 231.824C-86.4308 231.789 -86.401 231.399 -88.3497 242.783ZM-60.4457 478.377C-60.6612 478.472 -67.0124 470.063 -74.4975 459.718C-82.024 449.343 -88.9151 439.875 -89.8188 438.613C-92.0223 435.61 -96.5242 429.439 -101.084 423.1C-103.118 420.252 -105.866 416.471 -107.17 414.695C-108.474 412.919 -111.045 409.362 -112.935 406.778C-114.787 404.19 -120.106 396.852 -124.748 390.452C-133.315 378.621 -134.796 376.62 -145.124 362.329C-148.364 357.904 -153.959 350.143 -157.648 345.105C-163.639 336.864 -164.728 334.993 -163.61 334.861C-163.424 334.839 -160.855 333.24 -157.904 331.35C-148.845 325.515 -145.932 323.629 -133.528 315.718C-126.956 311.544 -120.321 307.256 -118.775 306.268C-113.412 302.727 -107.9 299.168 -104.664 297.139L-101.423 295.145L-100.274 295.922C-99.0016 296.789 -97.3061 297.397 -95.7007 297.559C-95.1297 297.597 -94.646 297.856 -94.6175 298.098C-94.5688 298.514 -91.0936 316.521 -90.2502 320.806C-89.9799 322.142 -89.0959 326.774 -88.2857 331.098C-87.4342 335.453 -86.6159 339.847 -86.3822 340.872C-86.1857 341.901 -85.7433 344.059 -85.4405 345.672C-84.7943 349.244 -83.079 358.057 -82.4938 361.11C-82.2729 362.347 -81.8306 364.505 -81.5521 365.91C-81.2737 367.315 -80.7948 369.785 -80.492 371.398C-80.1892 373.011 -79.5998 376.098 -79.1575 378.256C-78.7151 380.414 -78.0519 383.809 -77.7044 385.802C-77.3569 387.796 -76.8983 390.092 -76.7222 390.949C-76.546 391.805 -76.0874 394.101 -75.7399 396.095C-75.3924 398.088 -74.9338 400.385 -74.7576 401.241C-74.5815 402.097 -74.1391 404.255 -73.816 406.041C-73.4929 407.827 -73.0302 410.158 -72.8338 411.187C-72.3914 413.345 -72.2647 414.102 -68.925 431.598C-67.5539 438.768 -66.0149 446.725 -65.5278 449.264C-65.0407 451.802 -64.3653 455.301 -64.0544 456.983C-63.7394 458.7 -63.3174 460.685 -63.1534 461.437C-62.9895 462.19 -62.5187 464.59 -62.1136 466.752C-61.7457 468.918 -61.1564 472.006 -60.8163 473.615C-60.0217 477.485 -59.9777 478.181 -60.4457 478.377ZM-171.325 20.9896C-180.431 52.4708 -181.665 56.7548 -183.12 61.7312C-183.946 64.6694 -184.158 65.1153 -184.849 65.0211C-185.308 64.9698 -188.391 64.7707 -191.734 64.6023C-200.06 64.1422 -205.538 63.8037 -220.642 62.8772C-236.66 61.8827 -252.024 60.9867 -257.536 60.6872C-259.816 60.5692 -261.985 60.4381 -262.295 60.3693C-262.944 60.3053 -264.394 56.968 -263.954 56.5305C-263.818 56.4092 -258.923 53.0631 -253.038 49.1447C-247.153 45.2262 -227.931 32.3398 -210.321 20.5198C-192.712 8.69967 -175.384 -2.94699 -171.811 -5.33098L-165.333 -9.6698L-164.185 -8.89276C-163.569 -8.47403 -163.061 -8.00756 -163.045 -7.86917C-163.032 -7.76537 -166.756 5.22949 -171.325 20.9896ZM-167.242 -13.3742C-167.032 -12.557 -166.79 -11.7787 -166.67 -11.7226C-166.501 -11.5671 -168.838 -9.92452 -181.727 -1.32483C-186.522 1.90432 -194.96 7.56081 -200.46 11.2235C-205.956 14.9208 -221.779 25.5489 -235.646 34.8247C-249.509 44.1351 -261.939 52.4703 -263.232 53.3588C-264.558 54.2863 -265.756 55.0233 -265.867 55.0364C-266.02 55.0193 -266.537 54.7994 -267.025 54.506L-267.918 53.9795L-265.76 47.2719C-264.531 43.5848 -258.532 25.2014 -252.388 6.45017C-246.244 -12.3011 -238.875 -34.774 -236.038 -43.4204C-233.205 -52.1014 -230.794 -59.2247 -230.645 -59.2422C-230.533 -59.2553 -223.358 -54.7666 -214.745 -49.2892C-206.095 -43.8162 -191.766 -34.696 -182.868 -29.0417L-166.667 -18.7733L-167.156 -16.8218C-167.46 -15.5583 -167.475 -14.399 -167.242 -13.3742ZM-190.454 87.0763C-193.568 97.86 -196.874 109.262 -197.821 112.46C-200.409 121.288 -215.802 174.484 -217.67 181.087C-225.843 209.898 -226.202 211.028 -227.245 211.15C-228.176 211.26 -228.267 211.13 -228.743 209.327C-228.985 208.233 -229.757 205.517 -230.398 203.278C-232.884 194.66 -234.354 189.536 -238.717 174.264C-241.21 165.578 -244.657 153.601 -246.378 147.629C-249.932 135.384 -255.247 116.822 -257.63 108.438C-258.484 105.346 -260.247 99.3444 -261.471 95.0335C-262.728 90.7615 -264.014 86.2474 -264.346 85.0237C-264.679 83.8 -265.817 79.8999 -266.844 76.3024C-267.908 72.7093 -268.77 69.5485 -268.803 69.2717C-268.836 68.9949 -268.388 68.6266 -267.808 68.4182C-266.425 67.9751 -263.828 65.3199 -263.395 63.8659C-263.199 63.2817 -262.809 62.7448 -262.548 62.7141C-261.878 62.6353 -255.679 62.9945 -194.139 66.6386C-186.115 67.0991 -184.816 67.2271 -184.796 67.4001C-184.788 67.4693 -187.335 76.3273 -190.454 87.0763ZM-244.27 -25.7218C-263.42 32.7909 -270.08 52.9357 -270.379 53.2865C-270.574 53.5549 -270.697 53.1485 -270.67 52.093C-270.623 51.2105 -270.678 47.8496 -270.762 44.5623C-270.842 41.3095 -270.921 37.741 -270.931 36.6899C-270.989 32.6629 -271.01 31.1922 -271.1 28.8176C-271.178 26.5467 -271.216 24.6219 -271.25 21.1182C-271.264 20.3483 -271.277 18.631 -271.324 17.2685C-271.367 15.9407 -271.384 14.1888 -271.399 13.4189C-271.414 12.6489 -271.426 10.9317 -271.473 9.5692C-271.516 8.24129 -271.549 6.35106 -271.588 5.37353C-271.586 4.42622 -271.721 -2.50319 -271.887 -10.0252C-272.049 -17.5125 -272.191 -24.5112 -272.201 -25.5623C-272.222 -27.3487 -272.371 -33.1188 -272.47 -37.4919C-272.62 -42.6305 -272.72 -48.3012 -272.788 -53.0636C-272.861 -55.9313 -272.94 -59.4998 -272.957 -60.9359C-273.067 -64.1151 -273.201 -70.7287 -273.201 -72.6579C-273.216 -73.4279 -273.241 -75.2489 -273.296 -76.6806C-273.388 -80.3529 -273.3 -80.8894 -272.555 -80.9769C-272.182 -81.0207 -271.076 -81.5716 -270.09 -82.1785L-268.254 -83.2711L-250.499 -71.9927L-232.785 -60.7445L-235.51 -52.427C-237.014 -47.8658 -240.967 -35.8612 -244.27 -25.7218Z" fill="url(#paint0_linear_147_51)"/>
<defs>
<linearGradient id="paint0_linear_147_51" x1="-252.266" y1="614.14" x2="627.408" y2="510.797" gradientUnits="userSpaceOnUse">
<stop offset="0.453125" stop-color="#460085"/>
<stop offset="0.927083" stop-color="white"/>
</linearGradient>
</defs>
</svg>
