<svg width="633" height="394" viewBox="0 0 633 394" fill="none" xmlns="http://www.w3.org/2000/svg">
<path d="M374.893 989.419C376.693 986.872 376.21 983.621 373.812 981.922C373.171 981.458 372.265 984.137 380.648 961.485C382.894 955.378 385.473 948.402 386.381 945.986C387.257 943.568 390.168 935.723 392.835 928.554C395.488 921.368 398.769 912.474 400.125 908.768C401.481 905.062 403.117 900.647 403.745 898.939C404.388 897.249 405.955 893.011 407.237 889.515C408.519 886.018 410.687 880.153 412.058 876.464C416.041 865.653 418.834 858.113 423.511 845.449C425.923 838.907 428.864 830.948 430.061 827.759C431.225 824.568 432.35 821.852 432.533 821.698C432.731 821.561 432.805 821.352 432.718 821.248C432.616 821.127 432.765 820.412 433.031 819.687L433.537 818.317L432.808 818.901C432.332 819.302 432.072 819.402 432.029 819.202C431.727 818.247 415.984 768.844 412.951 759.362C410.948 753.113 408.867 746.546 408.323 744.821C407.779 743.096 406.313 738.489 405.063 734.585L402.78 727.481L403.696 726.711C405.015 725.601 405.6 724.549 405.778 723.013C405.87 722.08 405.778 721.302 405.399 720.442L404.882 719.195L406.8 717.198C407.867 716.124 408.828 715.109 408.964 714.936C409.114 714.78 409.738 714.108 410.409 713.455C411.439 712.412 412.342 711.476 415.089 708.605C415.448 708.214 420.561 702.912 426.458 696.831C443.819 678.867 444.835 677.806 445.254 677.336C445.481 677.086 446.082 676.462 446.588 675.948C448.521 673.968 459.74 662.35 460.268 661.788C460.741 661.272 460.862 661.23 461.612 661.601C464.585 663.053 468.431 661.116 469.285 657.743C469.653 656.284 469.392 654.97 468.485 653.668L467.709 652.522L481.883 644.641C489.693 640.314 498.615 635.376 501.726 633.644C504.837 631.912 509.942 629.093 513.09 627.331C527.985 619.08 530.279 617.828 531.165 617.319C531.696 617.02 535.813 614.737 540.351 612.248C544.875 609.741 550.88 606.43 553.691 604.862C556.502 603.295 561.076 600.775 563.832 599.253C566.588 597.732 570.811 595.389 573.201 594.028C577.885 591.415 580.941 589.729 585.692 587.12C587.349 586.228 592.616 583.302 597.425 580.614C602.215 577.942 608.7 574.346 611.811 572.614C614.922 570.883 622.838 566.496 629.411 562.855C635.969 559.197 642.469 555.618 643.812 554.872C646.092 553.603 648.793 552.128 656.2 547.992L659.095 546.413L660.154 547.262C661.518 548.327 662.875 548.601 664.732 548.131C667.612 547.39 669.439 544.615 668.867 541.851C668.438 539.705 666.962 538.322 664.649 537.878L663.292 537.604L662.953 535.824C662.785 534.844 662.222 531.868 661.704 529.207C661.219 526.547 660.305 521.741 659.688 518.515C659.085 515.306 658.32 511.348 658.01 509.751C657.717 508.139 656.874 503.864 656.189 500.222C655.504 496.581 654.679 492.29 654.369 490.693C654.058 489.097 653.497 486.235 653.155 484.341C652.499 480.734 647.752 455.823 646.766 450.783C646.455 449.186 646.152 447.524 646.07 447.092C646.021 446.661 645.693 444.932 645.357 443.268C644.714 439.975 644.017 436.431 643.5 433.622C643.333 432.642 642.394 427.769 641.448 422.813C638.15 405.502 634.638 387.044 633.435 380.741C632.782 377.25 631.914 372.759 631.532 370.78L630.84 367.204L631.557 366.867C632.991 366.191 634.288 364.275 634.441 362.523L634.534 361.443L636.296 360.934C638.453 360.3 649.065 357.185 652.022 356.349C653.203 356.005 656.694 354.986 659.808 354.077C662.908 353.151 667.492 351.832 669.989 351.118C672.471 350.387 676.097 349.343 678.049 348.763C683.92 347.04 685.119 346.68 689.447 345.429C691.739 344.769 694.273 344.025 695.095 343.776C697.731 343.004 702.059 341.753 704.779 340.97L707.429 340.215L708.402 341.373C709.932 343.154 711.646 343.629 713.941 342.937C716.906 342.036 718.707 338.487 717.569 335.757L717.222 334.899L743.935 312.432L770.648 289.964L771.631 290.464C775.074 292.288 779.212 290.105 779.715 286.202C779.99 284.112 779.183 282.52 777.152 281.073C776.646 280.731 776.141 282.66 782.361 262.122C784.883 253.778 788.658 241.342 790.725 234.501C792.792 227.661 795.159 219.801 796.007 217.052C796.855 214.304 798.251 209.679 799.1 206.782C800.545 202.028 801.704 198.163 806.567 182.187C807.383 179.437 809.068 173.89 810.283 169.83C812.487 162.52 812.513 162.439 813.156 162.459C816.525 162.486 819.26 159.154 818.551 155.857C817.892 152.842 815.033 151.265 811.981 152.211L810.884 152.543L809.817 151.051C809.237 150.212 808.428 149.064 808.028 148.515C807.647 147.951 806.805 146.801 806.178 145.943C805.55 145.085 804.799 144.006 804.472 143.543C804.145 143.08 803.365 141.967 802.694 141.057C802.037 140.164 801.17 138.947 800.771 138.398C800.161 137.525 794.852 130.134 791.444 125.45C790.86 124.643 790.138 123.599 789.811 123.136C789.503 122.658 787.525 119.898 785.402 116.964C783.294 114.048 781.171 111.115 780.684 110.462C780.216 109.794 779.334 108.56 778.707 107.701C778.079 106.843 777.299 105.73 776.928 105.215C776.573 104.718 775.321 102.969 774.152 101.357C771.26 97.3597 771.177 97.2234 771.671 96.8074C772.298 96.2507 772.977 94.6772 773.095 93.516C773.225 92.1088 772.84 90.8696 771.968 89.8332L771.256 88.9868L776.479 81.7329C779.359 77.7182 782.478 73.3552 783.426 72.0272C784.373 70.6993 789.13 64.044 793.986 57.2464C798.857 50.466 805.072 41.7881 807.798 37.962C810.538 34.1532 813.028 30.6428 813.363 30.1847C813.914 29.4264 813.947 29.2803 813.569 28.8312C813.322 28.5375 813.042 28.39 812.932 28.4825C812.822 28.5749 809.296 33.4576 805.094 39.3219C796.961 50.7039 785.677 66.447 783.04 70.0807C782.169 71.3144 779.682 74.7921 777.511 77.8272C769.691 88.7992 770.043 88.3257 769.463 88.1941C769.157 88.1274 768.906 88.0144 768.851 87.9126C768.707 87.4439 771.228 39.3736 771.429 39.2041C771.557 39.0962 773.196 38.5148 775.1 37.9156C776.972 37.3145 779.908 36.379 781.593 35.8167C787.491 33.865 807.522 27.3694 809.2 26.8724C810.144 26.5805 810.988 26.2831 811.08 26.206C811.171 26.129 811.027 25.8082 810.765 25.4973L810.3 24.9445L799.559 28.4636C777.373 35.7088 771.502 37.5797 771.4 37.4588C771.313 37.3552 771.378 35.0888 771.691 29.2506C771.755 28.1357 771.971 23.7066 772.172 19.4083C772.374 15.1099 772.543 11.5171 772.55 11.4517C772.558 11.3864 772.975 11.2126 773.487 11.0772C774.068 10.9128 774.814 10.4617 775.624 9.75098L776.889 8.68772L780.909 10.2319C783.125 11.0814 785.483 11.9884 786.15 12.2236C786.814 12.4916 791.515 14.2883 796.611 16.2553L805.836 19.8221L804.99 18.7048C804.013 17.4322 805.26 17.947 788.617 11.6234C787.287 11.1203 784.185 9.92433 781.732 8.97908L777.271 7.24542L777.399 6.4302C777.846 3.4289 775.419 0.692142 772.4 0.783935C770.789 0.840583 769.849 1.24781 768.515 2.48803C766.994 3.91503 766.513 5.35174 766.939 7.23472L767.251 8.53548L765.713 9.68187C764.863 10.3081 763.277 11.4353 762.197 12.1965C761.116 12.9576 759.567 14.0541 758.758 14.6168C757.963 15.1967 756.451 16.2623 755.425 16.9773C754.4 17.6922 752.4 19.1085 751.012 20.0989C749.606 21.1048 748.112 22.155 747.68 22.4594C747.248 22.7639 745.827 23.7525 744.53 24.6659C743.249 25.5965 741.791 26.6159 741.289 26.9493C740.443 27.5428 736.986 29.9785 734.533 31.7474C733.884 32.2041 731.976 33.5433 730.303 34.7149C728.629 35.8866 725.209 38.2914 722.755 40.0603C720.268 41.8273 715.768 44.9933 712.743 47.1245C709.732 49.273 706.634 51.4659 705.894 51.9997C705.136 52.5488 704.202 53.1867 703.825 53.4449C703.089 53.946 701.613 54.9808 699.504 56.4895C698.801 56.9925 697.83 57.6611 697.343 58.0118C696.856 58.3625 695.794 59.1083 694.999 59.6882C692.165 61.748 692.146 61.7634 691.229 61.1192C689.442 59.8498 686.868 59.9505 684.817 61.3803C682.909 62.7196 682.104 65.6677 683.073 67.8611C683.286 68.3009 683.394 68.8005 683.294 68.9429C683.151 69.1815 676.899 76.1796 671.187 82.5174C670.028 83.8169 666.264 88.0446 662.822 91.9123C659.363 95.7953 655.14 100.556 653.412 102.481C651.684 104.407 649.538 106.802 648.661 107.805C647.769 108.79 646.514 110.2 645.836 110.918C645.176 111.62 643.767 113.218 642.684 114.424C641.635 115.631 639.448 118.089 637.853 119.874C636.257 121.658 630.632 127.952 625.382 133.872L615.803 144.612L614.567 144.295C611.288 143.484 607.797 146.214 607.716 149.615C607.684 152.031 609.3 154.064 611.689 154.561L612.575 154.759L612.859 166.701C613.256 182.943 613.508 192.876 613.799 204.901C613.942 210.502 614.14 218.771 614.241 223.316C614.36 227.847 614.487 233.019 614.512 234.797C614.595 237.5 614.545 238.072 614.147 238.231C613.902 238.348 613.037 238.957 612.235 239.603L610.791 240.787L608.604 239.972C607.416 239.527 604.216 238.325 601.511 237.267C598.789 236.224 595.654 235.026 594.495 234.615C593.354 234.188 590.868 233.241 588.937 232.507C570.636 225.513 566.247 223.866 566.192 223.912C566.137 223.958 560.511 236.683 557.114 244.436C555.746 247.533 553.862 251.801 552.918 253.952C551.974 256.103 550.112 260.323 548.77 263.339C547.443 266.373 545.518 270.705 544.511 272.967C543.486 275.245 542.321 277.877 541.93 278.825C541.506 279.771 540.448 282.195 539.57 284.202C538.674 286.223 537.373 289.176 536.657 290.781C535.942 292.385 534.124 296.509 532.62 299.928C531.115 303.346 529.297 307.47 528.582 309.075C527.881 310.696 526.786 313.151 526.16 314.563C525.533 315.975 523.486 320.645 521.565 324.945C519.677 329.246 518.037 332.838 517.946 332.915C517.854 332.992 517.405 333.016 516.963 332.974C515.554 332.861 514.655 333.205 513.262 334.376C511.815 335.593 511.381 336.342 511.205 338.141L511.087 339.303L507.08 340.638C504.864 341.351 498.276 343.56 492.429 345.498C486.598 347.453 477.91 350.365 473.146 351.954C468.368 353.525 463.326 355.229 461.914 355.708C460.503 356.187 456.51 357.54 453.004 358.69L446.657 360.813L445.544 359.714C444.287 358.442 443.722 358.179 442.05 358.051C439.726 357.854 437.379 359.415 436.478 361.765C436.26 362.362 436.11 363.225 436.159 363.655C436.223 364.103 436.144 364.493 436.006 364.551C435.834 364.607 433.965 365.324 431.851 366.158C429.741 366.959 420.99 370.279 412.433 373.494C403.89 376.727 393.135 380.788 388.571 382.503C383.989 384.233 371.333 389.009 360.424 393.111C349.53 397.23 338.896 401.249 336.804 402.035C331.267 404.155 331.691 404.064 331.365 403.453C331.217 403.165 330.701 402.626 330.231 402.254C327.418 400.137 323.097 401.619 321.847 405.117C320.728 408.212 322.915 411.593 326.177 411.828L327.21 411.903L328.756 419.245C329.611 423.274 330.766 428.85 331.338 431.613C331.91 434.376 333.662 442.783 335.236 450.307C336.809 457.832 338.901 467.869 339.903 472.631L341.709 481.287L340.676 482.067C339.193 483.167 338.421 484.407 338.235 486.008C338.086 487.431 338.593 489.187 339.411 489.973C339.695 490.236 339.767 490.471 339.609 490.692C337.698 493.479 284.934 569.326 259.441 605.927C248.173 622.098 238.882 635.487 238.775 635.695C238.631 635.934 238.263 635.978 237.551 635.839C237 635.742 235.952 635.798 235.254 635.972C234.315 636.231 233.935 636.226 233.82 635.94C233.725 635.754 233.25 635.003 232.757 634.268C232.26 633.565 230.613 631.086 229.093 628.796C227.574 626.505 224.509 621.857 222.256 618.472C220.022 615.072 217.715 611.586 217.143 610.681C216.551 609.792 215.51 608.22 214.821 607.177C214.132 606.135 213.356 604.989 213.12 604.597C212.881 604.238 211.571 602.272 210.237 600.239C208.884 598.221 207.56 596.238 207.295 595.811C207.012 595.4 204.753 591.933 202.25 588.139C199.747 584.345 197.688 581.152 197.714 581.072C197.725 580.974 197.762 580.943 197.82 581.012C198.009 581.236 199.171 579.197 199.449 578.226C199.579 577.674 199.551 576.636 199.382 575.952C198.191 571.114 191.734 570.764 189.443 575.404C188.902 576.508 188.826 577.162 189.01 579.278C189.034 579.641 188.371 580.081 183.84 582.801C176.413 587.248 165.841 593.574 148.996 603.672C140.928 608.51 132.183 613.771 129.555 615.333C126.909 616.91 122.234 619.721 119.159 621.569C116.066 623.433 110.773 626.587 107.413 628.617C104.038 630.63 97.764 634.403 93.4812 636.973C89.1985 639.542 83.1405 643.163 80.0657 645.011C76.9725 646.876 71.7308 650.016 68.4253 652C60.6066 656.688 59.7025 657.213 59.5711 657.205C59.5199 657.219 59.1049 656.948 58.6646 656.611C57.0488 655.434 54.7019 655.284 52.9816 656.288L52.2203 656.722L51.3012 655.667C50.8218 655.097 50.1458 654.367 49.8332 654.07C49.5388 653.757 47.8491 651.934 46.0905 649.992C44.3465 648.067 42.6605 646.211 42.3478 645.914C42.0351 645.616 40.3637 643.778 38.6051 641.836C36.8794 639.895 35.3059 638.211 35.153 638.103C35.0001 637.996 33.4159 636.261 31.6282 634.284C29.8589 632.292 28.0675 630.348 27.6676 629.947C27.2678 629.546 25.8105 627.999 24.4334 626.474C23.0564 624.948 21.2833 622.988 20.4728 622.136C19.6624 621.284 18.0781 619.55 16.9481 618.318C15.818 617.085 14.0847 615.211 13.1144 614.169L11.3337 612.274L11.8082 611.462C12.4994 610.35 12.6398 608.286 12.1377 607.056C11.3248 605.086 9.58449 603.983 7.32099 603.97C4.24697 603.96 1.7236 606.613 1.87809 609.698C1.91401 610.671 1.83251 610.946 1.38203 611.266C0.880449 611.599 0.872838 611.664 1.32322 612.2C1.70096 612.649 1.87595 612.708 2.1691 612.462C2.46226 612.215 2.63725 612.274 3.08763 612.81C3.3782 613.155 3.81087 613.558 4.04019 613.719C4.33141 613.917 4.35603 614.132 4.13866 614.58C3.88466 615.059 3.93834 615.309 4.34514 615.793C4.62118 616.121 4.8903 616.367 4.92692 616.336C4.9819 616.289 5.18092 615.857 5.35472 615.357L5.70917 614.439L7.00171 614.414C8.14453 614.396 9.46423 613.994 10.1055 613.455C10.2704 613.316 10.6924 613.669 11.5679 614.673C12.2217 615.45 12.8975 616.18 13.0321 616.302C13.185 616.41 14.6858 618.008 16.3572 619.847C18.0287 621.685 19.642 623.455 19.9547 623.752C20.249 624.065 21.8914 625.869 23.6064 627.759C25.3214 629.649 27.1128 631.593 27.5853 632.081C28.0578 632.568 29.6604 634.288 31.1101 635.9C32.5598 637.512 34.2641 639.352 34.8528 639.978C35.456 640.621 37.1167 642.409 38.5228 643.97C39.9434 645.547 41.5024 647.215 41.9749 647.702C43.1416 648.903 48.672 654.958 50.0086 656.547C51.102 657.81 51.102 657.81 50.6977 658.445C50.4589 658.794 50.189 659.551 50.0405 660.119L49.7877 661.157L46.9961 661.706C43.3894 662.439 43.5139 662.364 44.1095 663.072C44.5744 663.625 44.7241 663.617 47.2966 663.105L50.0043 662.568L50.399 663.297C50.6163 663.704 50.8008 664.11 50.8077 664.192C50.8292 664.292 50.2789 664.903 49.6042 665.588C47.899 667.317 47.7998 667.46 48.2937 668.047C48.5698 668.375 48.8395 668.473 49.0846 668.355C49.4542 668.162 49.4687 668.179 49.1718 668.459C48.9481 668.676 49.0056 668.893 49.3688 669.325L49.8628 669.912L51.1271 667.994C51.829 666.932 52.5012 665.983 52.6112 665.89C52.7211 665.798 53.0641 665.834 53.3996 665.935C53.9681 666.165 53.9782 666.363 53.7353 670.165C53.4779 673.95 53.4804 674.214 54.076 674.922C54.4102 675.319 54.7229 675.617 54.7595 675.586C54.8145 675.54 55.4381 666.462 55.4097 666.279C55.4136 666.247 55.845 666.09 56.4079 665.941C56.9525 665.808 57.739 665.441 58.1383 665.135C58.9881 664.509 58.3071 664.108 64.7921 668.917C67.3031 670.787 75.7097 676.989 83.4612 682.709C91.2128 688.429 99.7577 694.721 102.422 696.698C110.915 703.003 117.921 708.171 123.893 712.557C127.092 714.91 134.876 720.632 141.179 725.299C147.501 729.951 154.353 735.012 156.395 736.509C158.437 738.007 160.183 739.34 160.285 739.461C160.372 739.565 160.33 739.924 160.179 740.228C159.837 740.899 160.512 740.921 140.717 739.255C133.611 738.654 125.228 737.948 122.049 737.702C118.889 737.44 113.958 737.045 111.093 736.8L105.903 736.358L106.459 737.13C106.97 737.849 107.145 737.909 108.817 738.036C109.817 738.11 120.525 739.014 132.609 740.028C144.707 741.061 155.714 741.949 157.09 742.06C158.714 742.168 159.604 742.334 159.691 742.585C159.774 742.87 159.404 743.063 157.364 743.687C143.347 748.073 121.755 754.908 121.609 755.031C121.535 755.093 121.721 755.35 122.019 755.63C122.644 756.225 121.226 756.621 141.6 750.162C148.931 747.831 156.071 745.571 157.46 745.14L159.997 744.363L160.792 745.346C161.806 746.588 163.23 747.277 164.753 747.265C165.38 747.267 165.939 747.299 165.983 747.351C166.026 747.403 168.199 754.04 170.836 762.086C173.455 770.146 176.413 779.279 177.44 782.397C178.467 785.515 179.933 789.974 180.701 792.337C181.45 794.715 182.941 799.241 183.979 802.409C185.031 805.594 186.833 811.157 188.033 814.779L190.176 821.381L189.278 822.137C188.798 822.57 188.255 823.115 188.094 823.369C187.829 823.798 187.41 823.708 183.425 822.429C181.018 821.651 178.404 820.812 177.639 820.571L176.231 820.162L177.684 821.89L179.137 823.617L183.105 824.615L187.091 825.598L187.152 826.638C187.201 827.217 187.402 828.05 187.597 828.506L187.951 829.299L186.779 830.285L185.588 831.287L186.023 831.805C186.445 832.306 186.445 832.306 187.716 831.325L188.969 830.36L189.806 830.835C190.24 831.09 190.921 831.343 191.283 831.363L191.954 831.418L192.127 835.343C192.256 839.216 192.281 839.283 193.048 840.083L193.83 840.9L193.715 838.755C193.654 837.568 193.648 836.482 193.678 836.368C193.74 836.257 194.096 837.609 194.482 839.408C195.133 842.488 195.235 842.757 196.15 843.845L197.156 845.004L196.959 844.138C196.866 843.655 196.219 840.543 195.514 837.213L194.281 831.172L195.475 830.285C196.127 829.796 196.768 829.405 196.899 829.412C196.998 829.418 201.737 831.891 207.404 834.91C213.072 837.93 218.317 840.744 219.097 841.15C221.668 842.497 255.387 860.383 268.453 867.326C275.537 871.1 294.631 881.231 310.873 889.868C332.16 901.193 340.373 905.64 340.343 905.901C340.312 906.163 340.17 906.253 339.841 906.235C339.597 906.204 328.605 905.038 315.409 903.631C302.228 902.241 285.555 900.456 278.352 899.701C271.166 898.932 259.748 897.741 252.953 897.026C246.191 896.313 240.443 895.691 240.181 895.676C239.786 895.654 239.808 895.754 240.389 896.445L241.057 897.239L260.165 899.278C280.629 901.443 294.905 902.944 322.526 905.844C332.113 906.865 339.962 907.755 339.984 907.855C340.009 907.922 340.116 908.421 340.253 908.956C340.468 909.807 340.438 909.92 339.82 910.263C339.446 910.489 338.07 911.381 336.73 912.243C335.39 913.105 331.443 915.628 327.98 917.833C319.735 923.056 311.948 928.043 301.913 934.447C290.289 941.864 283.879 945.958 283.205 946.348C282.689 946.664 282.681 946.729 283.117 947.248L283.597 947.818L286.277 946.094C287.759 945.142 291.798 942.542 295.279 940.322C302.206 935.912 308.562 931.864 322.06 923.254C326.933 920.158 332.432 916.654 334.288 915.476C336.144 914.299 338.461 912.851 339.428 912.215C340.911 911.263 341.258 911.118 341.476 911.377C341.607 911.533 341.88 911.746 342.066 911.855C342.299 911.983 342.198 912.422 341.642 913.509C341.266 914.326 340.062 916.725 339.019 918.87C336.787 923.432 337.502 921.975 328.761 939.59C324.938 947.318 321.373 954.535 320.817 955.622C320.275 956.726 319.542 958.198 319.196 958.902C318.85 959.606 317.291 962.774 315.733 965.943C314.161 969.094 312.127 973.223 311.181 975.11C309.465 978.5 309.443 978.548 309.922 979.118C310.169 979.412 310.424 979.64 310.479 979.594C310.534 979.548 311.996 976.637 313.741 973.134C315.473 969.613 318.581 963.341 320.67 959.166C322.743 954.974 325.2 950.047 326.114 948.158C333.425 933.308 343.105 913.871 343.203 913.877C343.334 913.884 345.554 919.834 349.825 931.607C351.334 935.706 353.592 941.888 354.877 945.349C356.143 948.826 359.661 958.402 362.688 966.651L368.154 981.667L367.142 982.695C366.544 983.286 365.967 984.125 365.757 984.656L365.399 985.606L353.782 985.407C347.394 985.324 341.304 985.226 340.264 985.216C339.223 985.206 333.116 985.123 326.727 985.04C320.324 984.939 315.037 984.903 314.982 984.949C314.928 984.995 315.138 985.32 315.443 985.682C315.981 986.321 316.225 986.352 326.162 986.488C331.74 986.574 336.924 986.638 337.684 986.649C365.44 986.957 365.524 986.946 365.505 988.113C365.497 988.178 358.029 991.982 348.9 996.563C339.753 1001.16 332.201 1004.97 332.091 1005.07C331.981 1005.16 332.078 1005.46 332.31 1005.74C332.688 1006.19 332.805 1006.18 334.1 1005.56C336.222 1004.51 365.947 989.569 366.039 989.492C366.094 989.445 366.392 989.726 366.712 990.106C368.324 992.023 371.412 992.198 373.742 990.505C374.174 990.2 374.694 989.703 374.893 989.419ZM370.982 981.087C370.519 981.094 370 981.146 369.861 981.204C369.634 981.307 368.689 978.769 362.562 962.038C361.895 960.24 357.666 948.666 353.145 936.335C348.624 924.005 344.851 913.641 344.753 913.34L344.57 912.787L345.278 912.81C346.994 912.842 349.201 911.487 350.121 909.828C350.861 908.439 350.937 906.782 350.345 905.334C349.987 904.425 349.909 903.96 350.111 903.791C350.294 903.637 354.089 899.855 358.544 895.37C368.122 885.781 370.216 883.696 371.708 882.234C372.324 881.628 373.021 880.894 373.304 880.597C373.568 880.316 374.283 879.567 374.899 878.961C375.515 878.354 377.235 876.642 378.731 875.148C380.227 873.654 382.735 871.132 384.341 869.545C385.914 867.956 387.502 866.385 387.806 866.04C388.448 865.353 389.42 864.388 392.573 861.294C393.75 860.127 394.876 858.974 395.104 858.723C395.331 858.473 396.006 857.788 396.622 857.181C401.462 852.373 403.578 850.239 404.253 849.554C404.667 849.117 405.954 847.858 407.076 846.737C408.198 845.616 409.79 844.012 410.633 843.155C412.507 841.255 413.651 840.086 415.217 838.563C415.869 837.926 416.713 837.069 417.087 836.695C417.446 836.304 418.642 835.122 419.709 834.048C420.776 832.973 422.085 831.666 422.591 831.152C425.55 828.161 429.903 823.852 429.932 823.886C429.946 823.904 428.9 826.789 427.582 830.316C426.281 833.828 422.912 842.915 420.112 850.52C417.311 858.125 413.99 867.082 412.76 870.418C411.529 873.753 408.64 881.55 406.368 887.738C404.096 893.926 400.01 904.912 397.335 912.146C394.642 919.396 391.339 928.338 389.969 932.027C386.433 941.696 384.113 948.012 379.025 961.788C376.547 968.474 373.946 975.498 373.244 977.416C372.542 979.333 371.939 980.96 371.903 980.991C371.881 981.039 371.464 981.065 370.982 981.087ZM348.238 902.829C347.947 902.632 347.748 902.357 347.763 902.226C347.778 902.096 348.689 899.088 349.745 895.545C351.875 888.445 353.042 884.514 356.866 871.654C358.278 866.898 359.923 861.415 360.515 859.441C361.104 857.501 362.831 851.743 364.328 846.679C365.825 841.616 368.159 833.754 369.511 829.224C370.864 824.695 372.208 820.232 372.464 819.309C372.739 818.37 373.049 817.549 373.159 817.456C373.269 817.364 386.145 818.243 401.781 819.426L430.205 821.533L429.009 822.715C428.371 823.37 427.341 824.414 426.743 825.005C423.263 828.492 414.653 837.149 413.704 838.066C412.732 839.031 410.876 840.916 408.46 843.361C408.031 843.781 407.242 844.591 406.681 845.152C404.327 847.486 398.119 853.68 397.422 854.414C396.993 854.833 395.703 856.125 394.526 857.292C393.349 858.459 391.328 860.483 390.034 861.808C388.739 863.132 387.184 864.706 386.568 865.312C385.952 865.919 382.978 868.892 379.946 871.944C376.899 874.978 373.624 878.263 372.634 879.244C370.951 880.925 366.404 885.486 364.585 887.34C362.055 889.911 356.426 895.53 355.249 896.697C354.501 897.444 352.968 898.969 351.861 900.107C348.766 903.27 348.802 903.239 348.238 902.829ZM346.111 901.787C346.065 901.324 345.844 894.255 345.381 879.013C345.181 872.043 344.926 863.557 344.824 860.163C343.88 829.694 343.797 824.426 344.192 824.3C344.415 824.231 345.092 823.808 345.704 823.382C346.894 822.529 347.716 821.424 348.072 820.211C348.391 819.176 348.078 817.316 347.411 816.225L346.87 815.323L359.214 816.237L371.524 817.15L371.298 818.107C371.153 818.642 370.263 821.75 369.274 825C368.3 828.267 366.269 835.077 364.772 840.141C360.634 854.003 359.471 857.902 357.766 863.612C356.903 866.491 354.017 876.262 351.326 885.338C348.636 894.413 346.362 901.9 346.289 901.962C346.212 902.056 346.125 901.952 346.111 901.787ZM344.192 902.221C344.127 902.069 336.784 883.854 327.877 861.734C318.952 839.629 311.667 821.483 311.671 821.451C311.683 821.205 337.481 820.152 337.553 820.387C338.31 822.552 339.502 823.82 341.3 824.284L342.31 824.555L342.877 843.751C343.189 854.313 343.573 867.379 343.74 872.784C343.892 878.171 344.156 887.003 344.322 892.408C344.562 901.025 344.545 903.31 344.192 902.221ZM335.037 901.044C331.58 899.202 322.627 894.434 315.12 890.455C307.613 886.475 293.83 879.163 284.487 874.191C275.158 869.237 262.045 862.274 255.365 858.721C248.685 855.167 238.253 849.607 232.181 846.367C226.109 843.127 220.532 840.179 219.814 839.809C219.078 839.455 213.768 836.637 208.005 833.579L197.511 827.983L197.653 827.333C197.746 826.96 197.93 826.658 198.098 826.634C198.247 826.626 201.972 826.443 206.361 826.231C234.538 824.919 243.448 824.504 247.453 824.32C253.168 824.085 254.085 824.022 283.875 822.62C297.441 821.976 308.893 821.458 309.305 821.465L310.079 821.492L311.527 825.111C316.432 837.266 342.752 902.518 342.828 902.719C342.879 902.854 342.548 903.279 342.09 903.665L341.299 904.36L335.037 901.044ZM402.637 818.027C389.622 817.058 377.757 816.155 376.232 816.052L373.476 815.862L377.292 803.067C379.4 796.015 382.672 785.064 384.565 778.724C388.351 766.042 391.486 755.561 396.395 739.045C399.467 728.675 399.637 728.208 400.251 728.045C400.605 727.983 401.036 727.974 401.193 728.049C401.455 728.212 402.295 730.661 405.24 740.04C405.989 742.419 407.765 748.063 409.227 752.554C410.672 757.061 412.44 762.623 413.153 764.884C413.866 767.145 416.193 774.449 418.333 781.085C420.454 787.735 424.031 798.943 426.275 805.963C428.515 813.015 430.442 819.063 430.564 819.432L430.799 820.119L428.536 819.958C427.288 819.887 415.634 819.012 402.637 818.027ZM353.986 814.411C350.183 814.129 347.041 813.852 346.998 813.8C346.939 813.731 369.139 776.45 374.618 767.418C375.309 766.305 377.155 763.219 378.718 760.577C380.282 757.935 382.172 754.753 382.93 753.496C385.735 748.836 390.145 741.47 393.904 735.153C396.041 731.557 397.835 728.632 397.886 728.618C397.933 728.637 396.491 733.655 394.635 739.817C392.798 745.963 390.141 754.892 388.73 759.649C385.473 770.616 379.485 790.723 376.521 800.737C375.254 804.959 373.735 810.07 373.12 812.092L372.02 815.73L366.461 815.333C363.395 815.109 357.789 814.692 353.986 814.411ZM343.496 813.914L341.985 813.828L339.468 805.74C338.067 801.285 336.09 794.955 335.082 791.674C334.074 788.392 330.629 777.34 327.435 767.108L321.627 748.487L322.727 748.122C323.331 747.909 328.259 746.33 333.699 744.616C339.139 742.901 347.533 740.236 352.355 738.716C357.178 737.197 361.846 735.718 362.753 735.457C363.645 735.179 365.86 734.466 367.681 733.878C369.502 733.291 374.328 731.739 378.411 730.457C388.725 727.21 392.26 726.095 393.997 725.519L395.459 725.026L396.214 726.072C396.628 726.639 396.932 727.149 396.943 727.199C396.932 727.297 392.268 735.142 389.488 739.722C388.525 741.329 386.678 744.415 385.388 746.562C378.278 758.529 375.487 763.207 373.909 765.831C372.931 767.421 366.116 778.844 358.783 791.177C351.416 803.507 345.322 813.705 345.212 813.797C345.099 813.923 344.317 813.96 343.496 813.914ZM327.029 819.181C321.362 819.435 315.475 819.726 313.945 819.803C312.419 819.848 311.097 819.839 311.025 819.753C310.88 819.58 304.464 803.77 303.732 801.82C303.497 801.132 299.979 792.412 295.93 782.428C291.881 772.443 288.576 764.163 288.577 764.015C288.602 763.374 288.187 762.956 297.088 772.311C299.962 775.32 302.823 778.312 303.43 778.922C304.033 779.565 305.258 780.835 306.155 781.791C307.053 782.746 308.23 783.998 308.808 784.573C309.99 785.792 311.687 787.549 313.897 789.879C315.826 791.913 325.436 801.999 327.235 803.878C329.699 806.436 333.707 810.644 335.194 812.225C336.004 813.077 337.142 814.244 337.701 814.835L338.756 815.866L338.162 817.131C337.835 817.82 337.51 818.476 337.437 818.538C337.36 818.632 332.682 818.909 327.029 819.181ZM339.827 814.758C339.688 814.668 338.325 813.308 336.839 811.727C335.334 810.161 332.946 807.656 331.514 806.177C330.101 804.682 328.374 802.89 327.68 802.176C327.004 801.447 325.736 800.125 324.882 799.221C324.028 798.317 322.861 797.116 322.301 796.525C321.742 795.934 320.444 794.577 319.43 793.483C318.398 792.405 317.381 791.343 317.141 791.132C316.9 790.921 315.752 789.705 314.56 788.436C313.386 787.152 312.147 785.865 311.834 785.567C311.522 785.27 310.224 783.913 308.963 782.526C307.699 781.171 306.536 779.937 306.383 779.83C306.248 779.707 305.213 778.661 304.111 777.464C303.025 776.283 301.655 774.84 301.077 774.265C299.834 773.01 298.362 771.446 294.444 767.308C292.823 765.604 291.159 763.849 290.726 763.446L289.956 762.678L290.508 761.624C290.824 761.033 291.11 759.997 291.157 759.308L291.25 758.08L299.147 755.567C309.409 752.333 314.867 750.604 317.821 749.653C319.145 749.218 320.263 748.985 320.299 749.102C323.788 760.354 331.997 786.778 332.991 789.894C333.74 792.272 335.702 798.585 337.366 803.91C339.011 809.251 340.452 813.79 340.524 814.025C340.686 814.478 340.198 814.977 339.827 814.758ZM653.979 547.619C651.699 548.888 647.281 551.335 644.17 553.067C641.06 554.798 635.793 557.723 632.437 559.573C629.096 561.439 620.986 565.93 614.413 569.571C607.855 573.228 598.387 578.448 593.388 581.208C588.389 583.967 581.765 587.621 578.654 589.353C575.543 591.084 567.872 595.354 561.599 598.83C555.327 602.307 547.356 606.74 543.908 608.666C537.353 612.292 534.33 613.979 530.074 616.32C528.713 617.081 523.359 620.051 518.198 622.916C513.038 625.782 506.839 629.197 504.434 630.541C502.015 631.867 493.144 636.792 484.715 641.463L469.392 649.985L470.226 648.783C470.667 648.117 473.561 644.119 476.632 639.885C479.702 635.651 483.776 630.043 485.686 627.404C487.596 624.765 492.653 617.798 496.907 611.92C501.174 606.06 505.27 600.403 506.019 599.36C506.765 598.35 509.6 594.431 512.318 590.671C515.033 586.943 518.338 582.393 519.642 580.559C522.636 576.419 532.597 562.673 539.204 553.606C541.959 549.815 544.912 545.738 545.764 544.52L547.307 542.338L548.329 542.363C549.417 542.392 565.382 542.591 574.133 542.692C577.17 542.733 597.297 542.971 618.858 543.241C640.419 543.51 658.085 543.723 658.136 543.71C658.337 543.688 658.532 544.999 658.349 545.153C658.239 545.246 656.273 546.368 653.979 547.619ZM647.336 542.176C641.425 542.103 622.325 541.858 604.856 541.656C587.373 541.437 572.003 541.239 570.685 541.197C569.368 541.155 563.837 541.088 558.423 541.011C553.005 540.967 548.592 540.815 548.621 540.702C548.637 540.571 550.929 537.345 553.738 533.508C556.515 529.668 560.53 524.138 562.638 521.215C564.761 518.309 567.321 514.769 568.379 513.349C569.404 511.927 572.338 507.866 574.898 504.326C577.44 500.802 579.659 497.787 579.823 497.648C579.988 497.509 580.466 497.52 580.846 497.673C582.238 498.213 585.03 497.516 586.229 496.301C586.512 496.004 587.582 496.608 594.923 501.17C641.812 530.364 658.157 540.536 658.473 540.801C658.732 540.997 658.767 541.262 658.576 541.629C658.439 541.951 658.259 542.22 658.19 542.249C658.102 542.293 653.213 542.246 647.336 542.176ZM659.504 539.609C659.42 539.621 650.726 534.193 602.759 504.312L587.339 494.719L587.619 494.011C588.229 492.318 587.612 489.799 586.306 488.656C585.975 488.374 585.572 488.006 585.412 487.816C585.132 487.52 587.251 481.373 594.317 461.805C595.17 459.435 596.785 454.921 597.913 451.761C599.04 448.601 600.363 444.892 600.873 443.49C601.379 442.121 602.044 440.234 602.366 439.315C602.669 438.411 603.597 435.831 604.399 433.623C605.186 431.398 607.119 425.997 608.686 421.612C610.253 417.226 612.788 410.198 614.304 405.975C615.819 401.751 619.075 392.642 621.529 385.741C628.593 365.909 627.88 367.777 628.56 367.618C628.899 367.538 629.242 367.574 629.33 367.678C629.417 367.781 629.743 369.248 630.079 370.912C631.309 377.545 633.13 387.074 633.597 389.6C633.89 391.065 634.551 394.491 635.079 397.202C635.589 399.929 636.139 402.74 636.257 403.437C636.389 404.152 637.127 408.043 637.899 412.084C638.684 416.142 639.812 422.095 640.415 425.304C641.032 428.531 641.771 432.422 642.057 433.951C642.357 435.498 642.953 438.624 643.395 440.936C643.838 443.248 645.726 453.192 647.607 463.053C649.488 472.914 651.191 481.893 651.408 483.008C651.626 484.122 652.183 487.164 652.694 489.743C653.186 492.337 654.321 498.225 655.174 502.846C656.059 507.469 657.151 513.305 657.637 515.816C660.147 528.806 661.235 534.526 661.534 536.221L661.866 538.066L660.734 538.84C660.108 539.249 659.556 539.596 659.504 539.609ZM285.525 821.085C272.558 821.698 258.144 822.377 253.507 822.591C248.884 822.822 242.65 823.11 239.674 823.253C236.684 823.38 226.244 823.873 216.486 824.322C206.725 824.805 198.549 825.163 198.301 825.165C197.94 825.145 197.824 825.007 197.589 824.319C197.355 823.631 197.392 823.452 197.821 823.181C198.121 823.017 199.132 822.285 200.106 821.583C201.047 820.88 202.201 820.057 202.633 819.753C203.065 819.448 203.999 818.81 204.702 818.307C205.929 817.423 216.227 810.029 219.04 808.018C219.78 807.484 221.292 806.418 222.373 805.657C223.453 804.896 225.112 803.707 226.072 802.989C227.013 802.285 228.13 801.493 228.507 801.235C228.884 800.977 231.459 799.166 234.184 797.198C236.908 795.231 239.633 793.264 240.227 792.853C242.475 791.286 252.755 783.908 255.462 781.957C257.015 780.827 258.637 779.669 259.069 779.365C259.516 779.078 262.057 777.264 264.746 775.328C267.416 773.407 270.104 771.47 270.697 771.06C271.276 770.632 273.491 769.064 275.568 767.553C277.645 766.042 279.681 764.595 280.073 764.354C280.45 764.096 280.992 763.699 281.263 763.501C281.666 763.162 281.859 763.206 282.733 763.798C283.512 764.352 284.102 764.534 285.453 764.577L287.161 764.674L294.32 782.484C298.275 792.282 301.869 801.204 302.306 802.282C305.955 811.158 309.432 819.942 309.297 819.967C309.195 819.994 298.506 820.49 285.525 821.085ZM402.854 717.863C402.351 717.637 401.695 717.451 401.381 717.45C400.753 717.447 400.82 718.01 397.382 674.981C396.922 669.115 396.475 663.563 396.403 662.621C396.297 661.677 396.308 660.872 396.41 660.845C396.531 660.802 405.744 660.338 442.305 658.581C456.437 657.902 458.562 657.826 458.649 657.929C458.845 658.237 459.64 660.075 459.603 660.254C459.584 660.417 449.029 671.448 431.894 689.162C426.745 694.495 426.65 694.605 425.88 695.4C425.52 695.791 424.827 696.492 424.376 696.96C423.907 697.443 422.194 699.237 420.54 700.953C418.886 702.669 417.104 704.492 416.612 705.023C416.106 705.537 413.194 708.547 410.183 711.699C407.154 714.866 404.469 717.625 404.227 717.858C403.857 718.199 403.594 718.184 402.854 717.863ZM390.263 725.208C387.847 725.943 385.84 726.569 385.803 726.6C385.748 726.646 379.449 728.641 369.889 731.668C367.092 732.545 363.092 733.815 360.997 734.486C358.902 735.157 352.566 737.182 346.922 738.951C341.292 740.737 333.223 743.305 329.019 744.63C324.81 745.986 321.345 747.073 321.293 747.086C321.209 747.098 315.51 728.828 301.579 684.035C299.631 677.74 297.824 671.945 297.583 671.175L297.132 669.784L298.093 668.918L299.049 668.084L312.467 675.409C319.85 679.463 338.71 689.761 354.364 698.332C370.037 706.887 383.841 714.448 385.068 715.126C386.277 715.82 389.122 717.379 391.362 718.592L395.467 720.832L395.278 722.17C395.176 722.904 394.998 723.585 394.87 723.693C394.76 723.786 392.68 724.473 390.263 725.208ZM397.334 718.701L396.148 719.522L394.454 718.587C393.522 718.073 390.848 716.605 388.517 715.322C386.186 714.038 365.353 702.657 342.235 690.011C319.118 677.365 300.095 666.909 299.979 666.771C299.862 666.633 299.89 666.256 300.059 665.937C300.295 665.473 300.456 665.367 300.887 665.359C301.2 665.36 307.536 665.045 314.967 664.694C322.417 664.327 330.18 663.962 332.225 663.864C357.312 662.672 379.109 661.623 384.579 661.358C388.289 661.157 392.113 660.979 393.058 660.951L394.767 660.9L395.969 675.904C396.63 684.166 397.552 695.454 398.017 700.991C399.351 717.565 399.361 717.615 398.915 717.754C398.689 717.856 397.979 718.277 397.334 718.701ZM465.934 651.714C465.76 651.506 466.914 644.696 472.572 612.184C474.991 598.323 478.777 576.528 482.452 555.122L484.002 546.18L484.707 546.088C486.621 545.835 488.196 544.658 489.102 542.834L489.706 541.618L514.29 541.911C544.12 542.305 545.391 542.328 545.364 542.556C545.353 542.654 545.015 543.145 544.644 543.634C544.269 544.156 538.543 552.039 531.946 561.156C525.331 570.288 519.186 578.789 518.264 580.036C517.357 581.301 514.522 585.219 511.965 588.726C509.424 592.25 506.331 596.532 505.093 598.222C503.855 599.912 501.648 602.978 500.171 605.016C498.695 607.054 495.602 611.336 493.299 614.512C490.978 617.703 488.161 621.606 487 623.202C475.07 639.665 470.659 645.764 468.69 648.482C465.968 652.275 466.181 652.007 465.934 651.714ZM435.574 657.459C424.166 658.028 410.618 658.658 405.48 658.909L396.136 659.365L394.836 643.5C394.129 634.775 393.457 626.314 393.329 624.712C393.22 623.093 392.513 614.22 391.754 604.949C388.768 567.998 388.878 569.616 389.306 569.345C390.269 568.741 390.033 568.498 395.128 574.742C397.775 578.001 406.982 589.133 415.6 599.492C424.219 609.851 433.411 620.966 436.047 624.175C438.666 627.4 444.538 634.494 449.067 639.916C453.611 645.356 457.929 650.601 458.706 651.6L460.118 653.39L459.611 654.201C459.332 654.612 459.022 655.286 458.929 655.659C458.751 656.34 458.733 656.355 457.535 656.419C456.87 656.447 446.978 656.921 435.574 657.459ZM463.817 651.577C463.69 651.537 462.766 648.096 461.762 643.927C460.773 639.775 459.751 635.473 459.496 634.389C458.284 629.451 454.545 613.661 453.849 610.677C453.434 608.844 452.703 605.743 452.218 603.791C451.275 599.954 445.323 575.024 444.072 569.706C443.653 567.906 442.544 563.352 441.659 559.584C440.741 555.815 440.083 552.652 440.192 552.559C440.302 552.467 442.419 551.896 444.922 551.265C447.441 550.651 452.276 549.445 455.682 548.586C464.907 546.313 468.211 545.481 472.502 544.408C474.629 543.888 476.994 543.315 477.758 543.144L479.132 542.844L479.719 543.765C480.1 544.33 480.725 544.925 481.432 545.392L482.538 546.113L482.316 547.597C482.17 548.428 481.144 554.423 479.991 560.938C478.853 567.469 477.726 573.903 477.501 575.272C477.276 576.641 476.149 583.074 475.011 589.606C473.872 596.137 472.663 603.142 472.311 605.178C469.512 621.6 464.278 651.455 464.168 651.548C464.095 651.609 463.945 651.617 463.817 651.577ZM460.692 651.581C460.333 651.116 453.984 643.419 446.572 634.494C415.85 597.483 409.037 589.233 403.299 582.262C399.997 578.226 395.937 573.324 394.281 571.354C391.651 568.228 391.296 567.73 391.534 567.53C391.955 567.176 392.619 565.585 392.688 564.849L392.713 564.208L395.607 563.484C407.263 560.642 414.737 558.78 417.259 558.134C418.878 557.716 420.325 557.354 420.493 557.33C420.643 557.322 423.095 556.705 425.939 555.994C434.576 553.803 438.066 552.932 438.329 552.947C438.446 552.937 438.946 554.611 439.423 556.628C440.53 561.33 442.352 569 442.779 570.735C442.958 571.469 443.464 573.521 443.872 575.271C444.295 577.039 445.54 582.275 446.651 586.943C447.781 591.597 449.003 596.733 449.376 598.366C449.767 599.984 451.015 605.187 452.137 609.906C453.274 614.642 454.428 619.511 454.719 620.711C455.024 621.93 456.024 626.132 456.941 630.049C457.874 633.984 458.874 638.186 459.164 639.387C462.463 653.129 462.235 651.964 461.708 652.231C461.357 652.408 461.204 652.301 460.692 651.581ZM312.457 749.858C308.922 750.973 303.412 752.717 300.235 753.737C297.044 754.741 293.611 755.829 292.613 756.167L290.777 756.737L289.956 755.835C289.458 755.281 288.727 754.746 288.111 754.497L287.087 754.06L287.283 751.801C287.409 750.575 288.216 742.199 289.076 733.217C289.955 724.219 290.828 714.991 291.027 712.7C293.083 690.001 295.123 670.147 295.418 670.164C295.616 670.175 296.063 671.303 296.726 673.429C297.262 675.22 299.656 682.939 302.044 690.575C304.431 698.212 308.075 709.835 310.109 716.382C312.158 722.946 315.111 732.408 316.662 737.414C318.229 742.438 319.561 746.774 319.658 747.076C319.773 747.51 319.706 747.654 319.352 747.716C319.096 747.784 315.992 748.743 312.457 749.858ZM543.232 540.84C541.367 540.816 528.589 540.65 514.87 540.48C501.132 540.325 489.844 540.145 489.749 540.107C489.673 540.053 489.605 539.786 489.592 539.473C489.561 538.879 486.539 540.418 517.199 525.397C524.875 521.654 533.747 517.289 536.919 515.742C540.077 514.177 548.807 509.902 556.292 506.231C563.793 502.578 571.718 498.685 573.909 497.608L577.89 495.646L578.311 496.147C578.791 496.717 579.419 495.717 572.356 505.432C570.509 507.959 564.033 516.886 557.947 525.308C551.875 533.747 546.836 540.699 546.763 540.761C546.686 540.855 545.094 540.896 543.232 540.84ZM271.547 768.723C267.632 771.544 263.808 774.288 263.068 774.822C262.31 775.371 261.303 776.07 260.816 776.421C260.315 776.754 258.242 778.232 256.22 779.697C251.441 783.126 248.95 784.926 246.79 786.448C245.819 787.117 229.39 798.9 225.658 801.567C224.955 802.07 223.907 802.833 223.314 803.243C222.721 803.654 220.033 805.59 217.363 807.511C214.675 809.448 212.041 811.338 211.503 811.702C210.961 812.099 209.375 813.227 207.987 814.217C206.581 815.223 205.01 816.367 204.471 816.732C203.929 817.129 202.399 818.21 201.047 819.169C196.645 822.341 196.627 822.356 196.106 821.998C195.862 821.819 195.524 821.603 195.334 821.526C195.116 821.415 195.819 819.201 197.951 813.368C199.536 808.967 201.598 803.31 202.5 800.812C203.956 796.815 206.376 790.208 213.962 769.435C215.03 766.502 216.969 761.184 218.277 757.606C219.571 754.011 220.712 751.017 220.822 750.924C220.95 750.816 258.462 756.104 279.463 759.204L280.31 759.318L280.532 760.4C280.679 760.984 280.859 761.57 280.946 761.673C281.077 761.829 280.794 762.125 279.893 762.765C279.227 763.237 275.477 765.919 271.547 768.723ZM284.233 753.717C284.093 753.364 278.191 739.392 271.109 722.64C264.044 705.871 258.255 692.071 258.252 691.955C258.267 691.825 259.07 691.179 260.04 690.511C261.029 689.827 262.545 688.728 263.464 688.073C264.369 687.401 265.431 686.655 265.808 686.397C266.185 686.139 267.174 685.454 267.969 684.874C268.764 684.295 269.752 683.61 270.13 683.352C270.756 682.944 275.513 679.562 279.322 676.801C280.025 676.298 281.483 675.278 282.563 674.517C283.643 673.756 285.624 672.355 286.976 671.396C290.832 668.654 290.902 668.625 291.308 669.108C291.512 669.35 292.098 669.712 292.652 669.925L293.632 670.309L293.305 673.416C292.795 678.092 289.187 714.454 288.505 721.752C286.151 746.885 285.349 754.077 284.921 754.201C284.581 754.28 284.429 754.173 284.233 753.717ZM250.93 753.62C234.734 751.286 221.453 749.332 221.395 749.262C221.351 749.211 221.474 748.724 221.666 748.209C221.891 747.695 224.891 739.509 228.339 730.032L234.62 712.804L235.665 712.781C236.227 712.781 237.111 712.568 237.634 712.334C238.161 712.068 238.721 711.804 238.86 711.746C239.054 711.641 239.491 712.012 240.221 712.843C240.802 713.534 241.55 714.349 241.863 714.647C242.143 714.942 243.411 716.264 244.643 717.617C245.879 718.938 247.318 720.5 247.896 721.075C248.455 721.666 249.695 722.954 250.621 723.944C255.694 729.381 256.781 730.561 259.743 733.674C260.437 734.387 261.789 735.846 262.759 736.888C266.535 740.968 272.098 746.877 274.679 749.573C275.311 750.25 276.783 751.814 277.913 753.046C279.061 754.263 280.297 755.583 280.682 755.967C281.293 756.544 281.34 756.711 281.108 757.142C280.961 757.414 280.715 757.679 280.609 757.739C280.484 757.814 267.145 755.939 250.93 753.62ZM281.437 754.595C280.917 754.088 279.605 752.714 278.504 751.517C277.417 750.337 275.935 748.723 275.197 747.957C274.459 747.191 273.151 745.785 272.253 744.829C271.356 743.873 270.087 742.551 269.455 741.874C268.823 741.196 267.453 739.753 266.439 738.66C265.425 737.566 263.968 736.019 263.205 735.186C262.438 734.386 259.716 731.484 257.172 728.757C254.628 726.03 251.921 723.146 251.139 722.329C250.373 721.529 248.443 719.494 246.869 717.809C245.296 716.125 243.134 713.814 242.058 712.684L240.117 710.6L240.644 709.478C241.234 708.245 241.267 706.536 240.725 705.222C240.374 704.396 240.396 704.348 241.092 703.911C241.502 703.654 243.014 702.589 244.457 701.552C245.9 700.515 247.343 699.479 247.698 699.269C248.021 699.057 250.13 697.548 252.401 695.933C254.638 694.317 256.612 692.981 256.744 692.988C256.959 692.984 282.929 753.989 283.024 754.734C283.046 754.834 282.906 755.04 282.705 755.21C282.43 755.441 282.211 755.33 281.437 754.595ZM388.705 659.717C385.546 659.866 381.339 660.072 379.345 660.156C377.366 660.257 363.767 660.9 349.135 661.616C334.488 662.314 319.275 663.047 315.302 663.232C311.329 663.418 306.323 663.677 304.161 663.784L300.221 663.972L299.98 663.202C299.865 662.767 299.597 662.226 299.393 661.984C299.19 661.742 299.111 661.425 299.192 661.298C299.291 661.156 300.674 659.639 302.259 657.952C303.843 656.265 306.484 653.454 308.095 651.687C313.956 645.341 314.657 644.575 315.482 643.734C315.919 643.248 317.635 641.421 319.246 639.654C320.871 637.904 322.496 636.154 322.855 635.763C323.229 635.389 324.667 633.826 326.065 632.326C330.98 627.012 332.077 625.824 334.758 622.95C336.251 621.34 338.8 618.606 340.411 616.839C343.687 613.258 343.951 612.977 345.818 610.994C346.537 610.212 347.633 609.024 348.275 608.337C348.899 607.665 350.615 605.838 352.053 604.274C353.506 602.728 355.718 600.337 356.969 598.961C359.881 595.803 363.172 592.239 368.857 586.13C371.348 583.475 373.846 580.755 374.447 580.131C375.034 579.49 376.681 577.692 378.134 576.146C379.586 574.6 380.933 573.113 381.16 572.863C384.084 569.608 384.473 569.251 384.885 569.406C385.121 569.502 385.785 569.622 386.373 569.688L387.449 569.815L388.135 578.441C390.496 607.953 392.051 627.32 393.608 646.243C394.183 653.399 394.621 659.312 394.566 659.359C394.511 659.405 391.882 659.552 388.705 659.717ZM191.678 820.973C191.627 820.987 189.952 815.907 187.931 809.674C185.891 803.455 183.272 795.394 182.072 791.773C180.891 788.136 179.377 783.51 178.722 781.466C178.066 779.422 176.42 774.378 175.065 770.238C173.692 766.113 171.426 759.142 169.985 754.75L167.391 746.757L168.421 745.861C169.007 745.368 169.605 744.629 169.786 744.211L170.121 743.457L176.868 744.449C180.575 744.988 185.128 745.641 186.967 745.894C188.806 746.146 193.082 746.767 196.45 747.238C199.814 747.741 206.334 748.687 210.953 749.344C215.539 749.999 219.308 750.575 219.305 750.608C219.301 750.641 218.503 752.816 217.535 755.459C216.567 758.101 215.207 761.84 214.519 763.775C213.817 765.693 211.197 772.881 208.685 779.713C206.187 786.562 203.785 793.154 203.346 794.379C202.348 797.135 197.759 809.754 195.394 816.167L193.632 820.952L192.69 820.948C192.179 820.936 191.715 820.942 191.678 820.973ZM572.632 496.647C571.231 497.325 563.463 501.144 555.363 505.126C547.262 509.107 538.042 513.618 534.87 515.165C531.698 516.712 520.074 522.418 509.047 527.829L488.99 537.679L487.884 536.81C487.28 536.315 486.676 535.82 486.508 535.696C486.33 535.521 487.452 530.272 489.862 520.045C491.838 511.571 493.817 503.212 494.218 501.458L494.966 498.293L497.844 498.143C500.988 497.976 516.614 497.103 544.879 495.451C554.881 494.883 565.118 494.296 567.612 494.175C570.109 494.02 573.235 493.869 574.554 493.763C576.785 493.626 577.369 493.725 577.308 494.248C577.297 494.346 576.799 494.647 576.239 494.911C575.661 495.191 574.033 495.97 572.632 496.647ZM581.639 487.421C581.215 487.512 580.842 486.734 577.622 479.149C575.66 474.547 572.259 466.524 570.033 461.347C567.825 456.156 565.161 449.902 564.142 447.426C563.105 444.965 562.039 442.47 561.779 441.863C561.486 441.255 558.887 435.152 555.996 428.293C553.073 421.433 549.954 414.117 549.072 412.027C548.172 409.952 547.457 408.135 547.468 408.037C547.484 407.906 548.516 407.274 549.767 406.605C551.019 405.936 555.257 403.61 559.195 401.449C566.364 397.513 567.846 396.709 579.323 390.418C582.693 388.586 586.543 386.469 587.886 385.723C591.542 383.71 597.885 380.204 602.968 377.433C605.438 376.093 611.162 372.93 615.7 370.441C620.238 367.951 624.088 365.834 624.263 365.745C624.49 365.643 625.007 365.886 625.626 366.398L626.623 367.212L626.316 368.148C626.123 368.664 623.363 376.353 620.181 385.253C616.984 394.135 613.528 403.825 612.475 406.776C611.421 409.726 608.391 418.174 605.748 425.557C603.106 432.941 600.02 441.583 598.892 444.743C597.765 447.903 596.372 451.788 595.81 453.352C595.23 454.931 594.365 457.399 593.851 458.834C592.754 461.88 589.542 470.893 586.097 480.485L583.691 487.257L582.891 487.311C582.46 487.319 581.891 487.386 581.639 487.421ZM571.927 492.462C569.532 492.589 557.864 493.26 545.981 493.934C534.098 494.608 523.362 495.233 522.113 495.31C520.013 495.454 514.652 495.775 500.939 496.543C498.076 496.709 495.637 496.784 495.546 496.714C495.422 496.641 496.242 492.855 497.335 488.278C498.41 483.717 499.537 478.994 499.827 477.776C500.099 476.575 501.367 471.202 502.632 465.862C503.882 460.504 505.228 454.889 505.57 453.362C509.861 434.771 510.507 432.341 511.018 432.353C511.744 432.362 513.243 431.838 513.775 431.391C514.196 431.037 514.287 431.108 516.513 433.159C517.785 434.3 521.851 438.018 525.542 441.402C529.233 444.787 537.782 452.608 544.506 458.78C551.262 464.954 557.702 470.863 558.87 471.916C560.019 472.985 561.259 474.124 561.633 474.458C563.233 475.914 570.644 482.717 573.888 485.681C575.83 487.469 577.579 489.065 577.808 489.226C578.143 489.476 578.127 489.755 577.688 490.832C577.238 491.859 577.04 492.144 576.689 492.173C576.455 492.193 574.308 492.318 571.927 492.462ZM578.813 488.116C578.479 487.866 576.984 486.498 575.46 485.096C572.889 482.746 560.38 471.294 550.86 462.579C548.649 460.545 543.133 455.511 538.605 451.355C534.093 447.217 527.321 441.026 523.587 437.59C519.834 434.17 516.441 431.065 516.023 430.68C515.278 429.98 515.263 429.962 515.712 429.231C516.12 428.563 516.399 426.589 516.291 425.382C516.252 425.001 516.699 424.714 520.121 422.869C524.373 420.56 528.98 418.042 535.004 414.716C540.534 411.657 545.771 408.846 545.935 408.855C546.048 408.878 555.019 429.735 558.958 439.104C559.821 441.21 560.916 443.739 561.361 444.751C562.156 446.589 564.954 453.114 569.221 463.21C570.468 466.143 573.302 472.784 575.51 477.976C577.736 483.153 579.619 487.586 579.709 487.805C579.951 488.427 579.417 488.61 578.813 488.116ZM477.238 541.782C476.492 541.937 474.416 542.445 472.644 542.903C453.572 547.677 439.772 551.055 439.67 550.934C439.612 550.865 439.242 549.495 438.866 547.895C438.475 546.277 437.987 544.21 437.75 543.258C437.287 541.406 435.097 532.218 432.247 520.164C431.261 515.979 430.167 511.442 429.845 510.092L429.253 507.64L429.94 506.709C430.329 506.204 430.726 505.635 430.847 505.444C430.98 505.156 431.832 505.648 435.686 508.334C438.256 510.125 443.8 513.927 447.997 516.797C477.008 536.637 479.593 538.445 479.408 538.895C479.312 539.153 479.16 539.753 479.066 540.274C478.973 540.795 478.85 541.282 478.758 541.359C478.685 541.42 478.002 541.612 477.238 541.782ZM481.415 536.558C480.463 537.211 480.365 537.206 479.706 536.757C473.929 532.827 455.354 520.077 447.914 514.95C442.617 511.294 436.768 507.277 434.897 506.019C433.044 504.746 431.472 503.621 431.385 503.517C431.297 503.414 431.23 502.998 431.22 502.652L431.202 501.961L437.475 501.609C440.904 501.409 447.478 501.042 452.072 500.776C456.68 500.528 467.866 499.88 476.937 499.358C486.008 498.837 493.435 498.518 493.402 498.664C493.387 498.795 491.426 507.139 489.072 517.171L484.753 535.432L483.602 535.662C482.959 535.79 481.986 536.196 481.415 536.558ZM715.385 333.347C714.751 332.965 714.573 332.791 714.611 332.464C714.765 331.42 720.054 309.217 720.2 309.094C720.31 309.002 744.783 298.859 767.792 289.358C768.783 288.937 769.657 288.674 769.715 288.744C769.788 288.83 757.779 298.989 743.034 311.361L716.223 333.822L715.385 333.347ZM750.843 294.795C741.015 298.843 730.182 303.295 726.744 304.711L720.544 307.271L723.45 294.77C725.024 287.901 726.814 280.173 727.405 277.64C730.645 263.826 738.547 230.076 739.213 227.186C739.641 225.351 740.749 220.644 741.668 216.715C742.587 212.787 743.837 207.429 744.458 204.783C747.647 191.13 749.19 184.523 749.309 184.217C749.379 184.04 749.613 183.872 749.861 183.87C750.278 183.844 750.439 184.446 753.183 196.56C754.175 200.976 754.699 203.16 756.444 210.777C756.842 212.477 757.623 215.861 758.182 218.31C758.74 220.76 759.511 224.094 759.884 225.727C760.274 227.345 761.467 232.594 762.553 237.344C763.635 242.126 764.727 246.959 765.007 248.109C765.287 249.26 765.971 252.194 766.53 254.644C769.554 267.909 770.288 271.126 771.722 277.294L772.575 280.911L771.659 281.534C770.191 282.503 769.408 283.841 769.24 285.575C769.159 286.409 769.006 287.157 768.911 287.267C768.815 287.377 760.685 290.764 750.843 294.795ZM210.649 747.83C206.391 747.194 201.269 746.459 199.284 746.182C197.299 745.904 193.103 745.304 189.965 744.847C186.86 744.391 181.333 743.584 177.706 743.065C174.075 742.579 170.974 742.091 170.796 742.064C170.431 741.928 170.156 740.449 170.449 740.202C170.541 740.125 174.383 738.221 178.971 736.014C183.544 733.79 188.395 731.45 189.731 730.769C193.712 728.807 202.002 724.754 207.71 722.019C210.636 720.589 217.12 717.437 222.081 715.004L231.143 710.567L231.871 711.283C232.256 711.667 232.718 712.104 232.881 712.262C233.121 712.473 232.111 715.475 228.372 725.757C225.708 733.041 223.059 740.343 222.456 741.97C221.869 743.614 221.026 745.886 220.613 747.03L219.862 749.077L219.14 749.036C218.731 748.996 214.926 748.451 210.649 747.83ZM693.731 342.711C686.475 344.833 678.897 347.018 676.893 347.611C674.876 348.188 672.43 348.888 671.487 349.18C669.261 349.843 664.965 351.096 652.149 354.827C646.483 356.495 640.119 358.338 638.013 358.959C635.889 359.595 634.222 359.994 634.285 359.882C634.406 359.692 639.313 356.45 650.326 349.311C652.867 347.646 655.298 346.073 655.689 345.832C656.067 345.574 658.534 343.97 661.13 342.259C663.741 340.565 666.926 338.476 668.197 337.643C669.482 336.828 670.858 335.935 671.235 335.677C671.613 335.419 674.08 333.815 676.691 332.121C679.301 330.427 681.769 328.823 682.146 328.565C682.538 328.324 684.273 327.189 685.99 326.069C687.708 324.949 690.142 323.344 691.427 322.529C692.68 321.711 693.767 321.033 693.8 321.035C693.847 321.054 694.404 321.382 695.034 321.796C696.374 322.645 698.231 322.882 699.552 322.332C700.492 321.924 700.31 321.783 702.352 324.695C703.176 325.86 704.297 327.454 704.838 328.208C705.379 328.963 706.043 329.938 706.326 330.349C706.609 330.76 707.301 331.769 707.867 332.591C708.934 334.083 709.009 334.432 708.332 335.003C707.874 335.388 707.046 337.677 707.223 338.147C707.266 338.347 707.239 338.576 707.111 338.684C707.001 338.776 700.969 340.605 693.731 342.711ZM774.989 279.913C774.94 279.483 774.853 277.669 774.798 275.856C774.726 274.059 774.4 265.043 774.046 255.844C773.691 246.645 773.298 235.651 773.148 231.382C772.995 227.146 772.745 220.042 772.578 215.64C772.411 211.239 772.201 205.782 772.12 203.491C772.038 201.2 771.743 193.485 771.464 186.346C771.203 179.192 770.985 173.094 771.019 172.8C771.062 172.292 771.204 172.202 773.358 171.452C775.79 170.587 799.431 162.618 805.021 160.748L808.323 159.652L808.849 160.389C809.132 160.8 809.761 161.362 810.242 161.636L811.109 162.146L808.675 170.15C807.334 174.581 805.671 180.08 804.975 182.376C804.297 184.657 802.697 189.896 801.456 194.036C800.2 198.16 798.707 203.043 798.144 204.902C797.6 206.747 795.103 215.011 792.61 223.242C790.113 231.506 785.861 245.641 783.127 254.665C780.393 263.689 777.523 273.181 776.763 275.737C775.971 278.291 775.289 280.457 775.198 280.534C775.125 280.596 775.023 280.327 774.989 279.913ZM711.67 332.873C710.907 333.043 710.26 333.204 710.223 333.235C710.19 333.233 708.797 331.279 707.139 328.898C705.466 326.5 703.565 323.793 702.897 322.851L701.67 321.169L702.137 320.57C702.93 319.579 703.41 318.29 703.441 317.025L703.483 315.811L710.801 312.87C714.81 311.239 718.17 309.916 718.236 309.92C718.368 309.928 717.757 312.624 715.261 323.306C713.382 331.374 713.125 332.445 713.07 332.492C713.034 332.522 712.401 332.7 711.67 332.873ZM771.847 271.231C771.091 267.914 770.241 264.264 769.98 263.097C769.7 261.947 768.966 258.73 768.313 255.946C764.781 240.365 763.445 234.499 761.22 224.898C759.88 219.065 758.041 211.114 757.153 207.231C754.824 197.097 753.376 190.764 752.484 186.914L751.699 183.563L752.761 182.817C754.145 181.86 754.969 180.459 755.13 178.79L755.259 177.531L762.163 175.176C765.965 173.895 769.146 172.841 769.296 172.833C769.413 172.824 769.659 176.687 769.839 181.402C770.484 199.204 770.706 205.418 771.082 215.424C771.284 221.094 771.539 227.721 771.638 230.145C771.737 232.568 771.983 238.998 772.179 244.437C772.612 256.371 772.922 264.811 773.202 271.949C773.306 274.9 773.357 277.304 773.31 277.285C773.259 277.299 772.584 274.563 771.847 271.231ZM433.094 552.749C430.441 553.388 425.894 554.528 422.967 555.25C420.039 555.972 416.023 556.961 414.031 557.457C412.039 557.952 409.572 558.553 408.585 558.793C407.565 559.031 404.312 559.85 401.348 560.603C393 562.728 392.628 562.805 392.393 562.266C392.288 562.029 391.951 561.517 391.66 561.171L391.137 560.549L392.699 558.056C394.677 554.977 411.571 527.791 413.553 524.531C414.366 523.228 416.914 519.079 419.252 515.314C423.22 508.91 423.535 508.467 424.002 508.576C425.049 508.816 426.287 508.837 427.102 508.653L427.935 508.454L428.67 511.522C429.329 514.389 432.513 527.696 436.307 543.588C436.561 544.671 437.085 546.856 437.48 548.441C437.841 550.024 438.098 551.371 438.025 551.433C437.952 551.495 435.733 552.092 433.094 552.749ZM710.797 311.34L703.013 314.583L701.887 313.466C701.247 312.854 700.763 312.317 700.767 312.284C700.779 312.186 732.942 225.941 736.965 215.214C738.59 210.898 741.183 203.939 742.728 199.75C744.287 195.578 745.723 191.745 745.912 191.262L746.262 190.377L746.124 191.142C746.042 191.565 745.264 194.992 744.382 198.742C743.501 202.492 742.057 208.661 741.19 212.428C739.531 219.604 733.82 244.02 729.01 264.523C727.463 271.163 725.402 279.945 724.45 284.019C723.497 288.094 722.292 293.207 721.779 295.35C721.266 297.492 720.373 301.192 719.834 303.563C719.294 305.934 718.782 307.928 718.708 307.989C718.635 308.051 715.087 309.56 710.797 311.34ZM478.638 497.81C470.483 498.268 460.631 498.828 456.767 499.069C435.341 500.337 430.605 500.545 430.26 500.246C429.914 499.946 429.991 499.852 433.715 496.543C435.815 494.689 438.692 492.121 440.114 490.837C441.536 489.552 444.392 487.033 446.473 485.194C448.537 483.37 451.487 480.741 453.015 479.396C454.529 478.035 457.476 475.438 459.557 473.599C461.621 471.775 464.751 469.025 466.466 467.494C470.135 464.231 474.687 460.196 479.459 455.976C481.321 454.322 484.23 451.756 485.909 450.256C488.86 447.627 491.586 445.216 499.635 438.122C501.753 436.252 504.337 433.931 505.374 432.97L507.266 431.203L507.856 431.532C508.184 431.699 508.584 431.952 508.733 432.092C509.017 432.355 508.331 435.556 505.323 448.085C504.409 451.833 503.308 456.475 496.333 486.231C494.979 492.059 493.76 496.859 493.672 496.903C493.57 496.93 486.81 497.336 478.638 497.81ZM284.508 671.436C282.186 673.065 279.589 674.924 278.725 675.533C277.875 676.159 276.813 676.905 276.381 677.209C275.341 677.907 271.613 680.541 269.991 681.699C269.302 682.22 267.716 683.347 266.475 684.214C265.233 685.081 263.699 686.195 263.051 686.651C259.879 688.906 257.759 690.365 257.646 690.342C257.514 690.334 241.885 653.489 239.743 648.153L238.786 645.713L239.72 644.927L240.688 644.143L242.714 644.916C243.837 645.358 254.884 649.752 267.253 654.715L289.737 663.706L289.547 664.485C289.465 664.908 289.483 665.748 289.626 666.364C289.935 667.698 290.29 667.34 284.508 671.436ZM297.437 660.179C296.72 659.661 294.903 659.508 293.689 659.851C292.782 660.112 292.303 660.397 291.394 661.25L290.246 662.304L277.764 657.318C254.49 648.019 241.712 642.869 241.596 642.731C241.411 642.474 241.679 639.594 241.917 639.394C242.137 639.209 251.957 634.223 331.053 594.183C359.173 579.971 382.396 568.196 382.678 568.047C382.96 567.899 383.241 567.898 383.288 568.065C383.403 568.352 381.33 570.685 374.346 578.151C372.23 580.433 368.866 584.058 366.882 586.199C364.897 588.34 358.471 595.279 352.613 601.592C346.736 607.92 341.781 613.298 341.553 613.548C341.326 613.798 340.475 614.721 339.664 615.579C338.821 616.436 337.1 618.296 335.794 619.719C333.502 622.237 327.207 629.035 317.93 639.02C312.769 644.599 313.001 644.316 310.634 646.896C309.648 647.992 307.326 650.475 305.473 652.476C303.606 654.459 301.431 656.819 300.635 657.695C298.361 660.198 297.943 660.52 297.437 660.179ZM251.789 694.648C251.72 694.677 250.823 695.284 249.826 696.034C248.816 696.766 247.625 697.62 247.179 697.907C246.747 698.211 244.857 699.535 242.982 700.876C241.107 702.217 239.543 703.296 239.51 703.295C239.463 703.275 238.956 703.082 238.391 702.82C237.808 702.573 237.141 702.338 236.868 702.273C236.401 702.164 236.413 702.625 236.647 667.42C236.702 659.824 236.784 646.866 236.753 646.42C236.757 646.388 236.881 646.313 237.016 646.287C237.269 646.252 238.772 649.677 249.74 675.697L256.342 691.321L254.133 692.972C252.921 693.874 251.873 694.637 251.789 694.648ZM222.626 713.16C218.543 715.149 214.233 717.24 213.076 717.8C210.256 719.169 190.049 729.027 185.018 731.489C182.826 732.565 178.462 734.702 175.322 736.251L169.611 739.02L169.001 738.294C168.652 737.88 167.983 737.381 167.527 737.174L166.675 736.83L166.846 735.918C166.954 735.415 168.71 725.562 170.764 713.983C172.819 702.404 174.555 692.864 174.636 692.736C174.808 692.532 174.648 692.49 199.946 699.026C209.238 701.445 219.916 704.173 223.672 705.143C230.429 706.892 230.51 706.913 230.452 707.551C230.443 707.912 230.463 708.456 230.527 708.756C230.591 709.056 230.506 709.363 230.349 709.437C230.195 709.477 226.709 711.171 222.626 713.16ZM687.81 323.212C685.591 324.665 682.728 326.542 681.443 327.357C680.173 328.19 677.756 329.78 676.094 330.853C674.413 331.942 671.978 333.548 670.638 334.409C669.298 335.271 665.472 337.752 662.144 339.931C652.771 346.045 645.419 350.842 640.323 354.155C637.749 355.819 635.172 357.515 634.578 357.925L633.465 358.684L632.504 357.988C631.969 357.613 631.04 357.214 630.409 357.096L629.289 356.918L628.698 351.752C628.367 348.904 627.593 342.181 626.963 336.783C626.333 331.385 625.838 326.817 625.861 326.621C625.895 326.326 627.784 326.006 633.479 325.375C644.652 324.118 686.268 319.406 689.752 319.012C691.396 318.809 692.762 318.722 692.802 318.807C692.842 318.891 692.946 319.127 693.051 319.364C693.196 319.684 693.097 319.827 692.529 320.157C692.156 320.382 690.029 321.758 687.81 323.212ZM697.811 312.116C696.978 312.168 696.325 312.098 696.216 311.894C696.104 311.724 695.557 310.59 694.953 309.388C694.367 308.171 691.514 302.547 688.637 296.857C685.759 291.167 681.984 283.665 680.239 280.178C678.495 276.69 674.303 268.359 670.9 261.636C667.531 254.914 662.543 245.041 659.843 239.673C657.157 234.323 654.522 229.107 653.993 228.106C653.483 227.09 653.056 226.21 653.049 226.128C653.056 226.062 657.319 223.952 662.518 221.467C667.684 218.98 677.335 214.314 683.953 211.136C690.557 207.942 696.616 205.029 697.435 204.664C698.24 204.282 704.299 201.369 710.902 198.174C728.559 189.636 745.125 181.66 745.205 181.681C745.238 181.683 745.718 182.105 746.252 182.629L747.234 183.573L742.691 195.652C740.201 202.288 737.922 208.393 737.645 209.216C737.349 210.055 732.181 223.957 726.141 240.097C720.116 256.254 711.642 278.983 707.316 290.614C702.99 302.245 699.4 311.812 699.341 311.891C699.268 311.952 698.578 312.061 697.811 312.116ZM686.42 317.951C677.811 318.91 660.756 320.837 642.376 322.936C633.814 323.914 626.526 324.734 626.194 324.748C625.493 324.807 625.625 325.521 624.255 313.107C624.054 311.417 622.777 300.34 621.405 288.517C620.032 276.695 618.58 263.995 618.151 260.286C617.736 256.595 617.261 252.422 617.107 251.048C616.909 249.474 616.92 248.521 617.129 248.434C617.301 248.378 617.776 248.126 618.183 247.902C618.593 247.645 618.973 247.503 619.031 247.572C619.075 247.623 620.813 249.17 622.883 250.998C628.29 255.828 632.68 259.746 637.393 264.011C639.222 265.628 641.735 267.909 643.012 269.018C644.27 270.142 646.503 272.127 647.94 273.426C649.394 274.709 654.89 279.644 660.177 284.369C672.382 295.309 674.092 296.821 676.561 299.05C678.761 301.034 683.387 305.195 687.344 308.71C693.039 313.77 693.708 314.417 693.605 314.592C693.528 314.686 693.306 315.315 693.099 315.961C692.877 316.59 692.696 317.156 692.659 317.187C692.637 317.235 689.821 317.568 686.42 317.951ZM215.925 701.66C208.044 699.617 195.572 696.392 188.206 694.477L174.833 691.037L174.938 690.27C175.04 689.683 179.354 665.468 181.094 655.746C182.052 650.488 187.218 621.221 187.585 619.054C187.836 617.604 189.319 609.102 190.935 600.163C192.518 591.222 193.88 583.618 193.936 583.275C194.03 582.754 194.125 582.644 194.574 582.621C195.144 582.554 195.191 582.721 201.137 601.433C205.214 614.314 212.864 638.287 214.464 643.165C215.458 646.281 224.906 675.85 226.184 679.937C226.753 681.729 228.618 687.592 230.355 693.004L233.518 702.79L232.506 703.67C231.938 704.148 231.373 704.741 231.244 704.997C231.097 705.268 230.848 705.418 230.618 705.405C230.421 705.394 223.806 703.703 215.925 701.66ZM232.278 694.1C230.905 689.828 229.162 684.333 228.388 681.888C227.61 679.475 225.11 671.667 222.841 664.581C218.137 649.838 214.956 639.919 212.684 632.717C210.761 626.637 204.393 606.717 203.391 603.666C199.727 592.355 196.814 582.978 197 583.087C197.124 583.16 198.035 584.429 199.003 585.915C199.971 587.401 200.98 588.972 201.263 589.383C201.527 589.809 202.837 591.775 204.146 593.741C205.47 595.724 206.736 597.638 206.975 597.997C207.211 598.389 208.252 599.962 209.278 601.517C210.338 603.074 211.687 605.124 212.307 606.048C212.924 607.004 213.638 608.114 213.921 608.524C214.204 608.935 214.933 610.062 215.535 611.001C216.17 611.942 219.039 616.283 221.937 620.659C224.835 625.034 227.468 628.983 227.776 629.461C228.084 629.94 228.563 630.658 228.828 631.084C229.347 631.886 230.01 632.862 231.149 634.588C232.996 637.341 232.92 637.139 232.27 637.892C229.97 640.475 231.002 644.827 234.188 646.012L235.329 646.438L235.268 654.66C235.241 659.165 235.146 671.661 235.092 682.383C235.02 693.121 234.912 701.882 234.847 701.878C234.796 701.892 233.632 698.388 232.278 694.1ZM694.589 313.233C694.371 312.974 673.9 294.622 669.732 290.932C669.445 290.701 667.499 288.946 665.386 287.066C663.292 285.171 660.728 282.903 659.695 281.973C658.677 281.059 655.502 278.214 652.658 275.651C649.814 273.088 646.999 270.56 646.385 270.015C644.282 268.185 641.348 265.551 631.092 256.333C625.448 251.259 620.626 246.938 620.386 246.727C619.993 246.409 619.997 246.228 620.384 245.461C620.811 244.63 621.044 243.047 620.895 242.052C620.824 241.669 621.53 241.282 627.574 238.351C631.288 236.555 638.17 233.245 642.849 230.961C647.543 228.694 651.447 226.826 651.527 226.847C651.625 226.853 652.231 227.907 652.889 229.211C653.534 230.498 655.137 233.632 656.426 236.206C659.061 241.422 667.404 257.999 671.121 265.431C675.541 274.22 683.413 289.866 687.844 298.556C689.151 301.114 690.773 304.381 691.482 305.819C692.191 307.257 693.226 309.307 693.762 310.39C694.298 311.473 694.837 312.523 694.927 312.742C695.079 313.146 694.836 313.527 694.589 313.233ZM619.674 366.686C612.223 370.77 591.264 382.263 587.487 384.318C586.642 384.764 581.591 387.537 576.241 390.474C567.655 395.217 562.605 397.99 555.491 401.88C548.266 405.862 546.806 406.618 546.709 406.464C546.614 406.278 540.478 391.915 529.629 366.444C526.915 360.055 523.525 352.082 522.093 348.744L519.495 342.642L520.361 341.589C520.846 340.975 521.367 340.33 521.525 340.109C521.764 339.761 524.303 340.25 537.718 343.183C546.457 345.094 561.536 348.367 571.213 350.463C580.889 352.558 590.373 354.61 592.291 355.032C594.21 355.453 602.081 357.15 609.788 358.837L623.82 361.871L623.842 362.826C623.847 363.353 623.95 363.885 624.052 364.006C624.168 364.144 624.051 364.302 623.681 364.495C623.399 364.644 621.584 365.61 619.674 366.686ZM360.965 577.491C338.795 588.734 243.373 636.959 241.884 637.681C241.043 638.094 240.977 638.09 240.41 637.416L239.8 636.691L245.891 627.94C265.503 599.707 280.922 577.537 282.41 575.401C283.358 574.073 291.492 562.395 300.467 549.448C338.514 494.709 341.031 491.118 341.279 491.264C341.774 491.555 343.862 491.657 344.567 491.418C345.375 491.151 345.452 491.205 346.198 492.612C346.484 493.138 348.317 496.434 350.281 499.884C352.226 503.35 355.595 509.365 357.744 513.221C359.906 517.094 363.413 523.346 365.551 527.152C367.706 530.943 370.101 535.241 370.894 536.667C371.702 538.111 373.206 540.829 374.264 542.682C375.318 544.567 377.151 547.863 378.357 550.004C379.564 552.145 381.357 555.356 382.361 557.107L384.172 560.302L383.486 561.086C383.104 561.525 382.608 562.385 382.371 562.996C381.947 564.091 381.913 565.948 382.291 566.397C382.407 566.535 382.322 566.695 382.077 566.812C381.869 566.899 372.366 571.706 360.965 577.491ZM389.502 559.535C389.287 559.392 388.474 559.28 387.714 559.27C386.922 559.257 386.222 559.168 386.149 559.082C386.076 558.996 385.448 557.43 384.766 555.615C384.084 553.8 382.015 548.402 380.174 543.609C378.329 538.849 376.21 533.317 375.481 531.335C374.734 529.368 370.955 519.481 367.052 509.373C363.149 499.266 359.973 490.877 359.97 490.762C359.97 490.614 367.667 492.104 377.06 494.084C386.456 496.032 400.062 498.894 407.342 500.409C418.077 502.647 420.521 503.246 420.545 503.609C420.612 504.88 420.987 506.069 421.589 506.86C422.065 507.462 422.216 507.866 422.091 508.089C421.988 508.264 419.47 512.299 416.503 517.066C413.536 521.832 409.94 527.599 408.532 529.904C407.123 532.21 403.057 538.756 399.502 544.46C395.947 550.163 392.442 555.853 391.685 557.11C390.089 559.75 390.012 559.844 389.502 559.535ZM612.731 357.985C606.523 356.629 599.443 355.092 597.025 354.56C594.592 354.011 588.818 352.762 584.157 351.757C579.51 350.769 571.704 349.076 566.802 348.008C561.9 346.941 554.236 345.305 549.787 344.328C545.351 343.369 537.272 341.611 531.852 340.448C526.432 339.285 522.004 338.261 521.997 338.178C522.031 338.032 524.379 337.738 537.094 336.305C540.546 335.908 554.299 334.369 567.653 332.841C580.989 331.328 594.208 329.825 596.988 329.522C599.786 329.204 603.388 328.799 604.995 328.627C608.6 328.191 614.547 327.525 620.11 326.886L624.296 326.433L624.539 328.47C624.673 329.596 625.446 336.467 626.287 343.752L627.795 356.964L626.404 357.988C625.627 358.552 624.883 359.267 624.699 359.569C624.53 359.888 624.309 360.221 624.218 360.298C624.108 360.39 618.939 359.34 612.731 357.985ZM163.983 736.94C163.285 737.114 162.411 737.525 162.044 737.834L161.385 738.388L157.425 735.466C155.249 733.845 149.769 729.784 145.245 726.451C129.786 715.062 127.122 713.085 120.134 707.902C116.299 705.052 112.066 701.917 110.709 700.935C109.366 699.971 105.861 697.403 102.939 695.23C99.9986 693.073 95.1875 689.51 92.1851 687.316C89.2155 685.125 85.4708 682.346 83.8694 681.186C82.2864 680.01 76.2417 675.538 70.4225 671.26C63.4315 666.11 59.913 663.377 59.9503 663.198C60.0021 663.036 60.4987 663.032 61.064 663.146C62.366 663.467 92.8498 671.332 110.471 675.919C118.064 677.879 128.45 680.558 133.537 681.883C167.135 690.551 172.977 692.067 173.061 692.203C173.148 692.307 165.391 736.494 165.263 736.602C165.263 736.602 164.681 736.766 163.983 736.94ZM380.204 550.191C379.12 548.271 377.106 544.685 375.708 542.204C372.299 536.106 371.259 534.237 368.299 528.97C366.901 526.489 364.231 521.715 362.34 518.351C360.449 514.986 357.311 509.396 355.366 505.93C353.402 502.48 351.431 498.946 350.964 498.13C350.515 497.299 349.395 495.261 348.464 493.596C347.548 491.949 346.784 490.556 346.773 490.506C346.78 490.441 347.016 490.125 347.302 489.796C347.602 489.484 347.959 488.978 348.143 488.676C348.327 488.374 348.568 488.141 348.7 488.148C349.01 488.182 357.046 489.889 357.687 490.057C358.056 490.16 358.872 492.098 361.764 499.664C363.753 504.893 368.204 516.545 371.655 525.558C375.106 534.571 378.936 544.592 380.167 547.804C381.398 551.015 382.346 553.668 382.281 553.664C382.215 553.661 381.291 552.078 380.204 550.191ZM528.526 416.684L515.582 423.795L514.815 423.143C514.407 422.808 513.617 422.351 513.11 422.158C512.319 421.85 512.137 421.708 512.15 421.314C512.141 420.82 514.448 384.137 514.649 381.402C514.708 380.615 515.245 372.141 515.845 362.553C517.157 341.276 516.958 343.419 517.645 343.343C518.178 343.307 518.402 343.797 523.353 355.412C526.183 362.087 532.261 376.381 536.877 387.187C541.492 397.993 545.297 406.943 545.348 407.078C545.46 407.397 545.105 407.607 528.526 416.684ZM428.055 498.591L427.206 498.214L428.653 485.317C429.443 478.223 431.429 460.537 433.033 446.005C434.637 431.472 436.069 419.562 436.186 419.552C436.391 419.498 448.812 420.877 479.888 424.352C485.829 425.018 493.941 425.923 497.842 426.358C501.776 426.795 505.104 427.181 505.264 427.223C505.406 427.281 505.616 427.753 505.753 428.287C505.856 428.82 506.054 429.39 506.2 429.563C506.33 429.718 506.421 429.937 506.358 430.049C506.277 430.324 502.846 433.386 483.388 450.607C481.417 452.353 478.543 454.888 477.03 456.25C475.516 457.611 472.386 460.362 470.121 462.355C467.838 464.364 464.942 466.947 463.671 468.075C462.395 469.237 459.448 471.833 457.128 473.872C454.809 475.912 451.972 478.416 450.861 479.439C449.736 480.444 446.456 483.35 443.601 485.869C440.727 488.404 436.897 491.773 435.087 493.413C433.262 495.037 431.139 496.94 430.344 497.668L428.907 498.935L428.055 498.591ZM425.054 498.371C424.927 498.331 424.338 498.561 423.723 498.871C422.651 499.419 422.618 499.417 422.092 498.828C421.786 498.465 421.256 497.909 420.9 497.56C420.183 496.894 417.776 494.553 409.466 486.383C406.554 483.553 403.867 480.916 403.449 480.531C402.824 479.936 401.057 478.207 396.088 473.303C395.572 472.764 394.397 471.628 393.507 470.755C392.616 469.882 391.413 468.711 390.835 468.136C390.257 467.56 389.126 466.476 388.308 465.689C387.504 464.92 386.257 463.698 385.563 462.984C384.851 462.286 384.065 461.501 383.782 461.238C383.494 461.008 382.397 459.926 381.328 458.878C380.259 457.83 379.045 456.61 378.583 456.173C378.136 455.752 376.104 453.745 374.057 451.721C372.025 449.714 370.08 447.811 369.749 447.529C369.436 447.231 368.662 446.496 368.04 445.869C366.71 444.51 361.886 439.779 360.842 438.798C360.442 438.397 359.668 437.662 359.134 437.139C358.617 436.599 356.894 434.922 355.353 433.387C353.812 431.852 351.892 430.016 351.117 429.281C350.343 428.547 349.212 427.463 348.591 426.835C347.14 425.371 344.348 422.646 341.32 419.678C339.982 418.385 337.979 416.412 336.867 415.313C335.754 414.214 334.598 413.062 334.267 412.78C333.955 412.483 333.108 411.662 332.413 410.948L331.123 409.674L331.558 408.777C332.059 407.737 331.558 407.774 336.714 408.363C340.09 408.768 410.077 416.59 414.664 417.097C424.119 418.11 434.38 419.302 434.438 419.371C434.627 419.595 425.771 498.033 425.533 498.234C425.387 498.357 425.182 498.411 425.054 498.371ZM405.233 498.496C396.825 496.719 388.979 495.09 387.82 494.827C386.627 494.561 379.944 493.162 372.937 491.712C365.916 490.244 359.945 488.984 359.642 488.885C359.179 488.743 358.547 487.21 354.565 476.786C352.071 470.212 345.393 452.825 339.743 438.111C334.108 423.414 329.502 411.243 329.517 411.113C329.586 410.524 330.256 410.875 331.514 412.147C332.27 412.897 333.175 413.788 333.531 414.137C333.906 414.471 335.062 415.622 336.131 416.669C337.199 417.717 339.65 420.11 341.547 421.994C343.463 423.863 345.408 425.766 345.855 426.186C346.317 426.624 347.92 428.195 349.418 429.678C350.949 431.164 352.552 432.735 352.981 433.171C353.443 433.608 356.649 436.751 360.106 440.155C363.578 443.576 366.803 446.703 367.232 447.139C367.693 447.576 371.674 451.454 376.066 455.783C380.475 460.096 384.453 464.007 384.9 464.427C385.362 464.864 387.797 467.24 390.316 469.751C392.854 472.248 395.613 474.97 396.479 475.776C397.326 476.597 399.318 478.52 400.859 480.055C402.419 481.574 403.964 483.077 404.277 483.374C404.589 483.672 405.807 484.859 406.949 485.993C408.948 487.998 413.329 492.277 415.037 493.937C416.51 495.353 421.272 500.048 421.475 500.29C421.693 500.549 421.093 501.732 420.75 501.696C420.633 501.706 413.659 500.257 405.233 498.496ZM509.544 422.12C509.061 422.29 508.464 422.585 508.226 422.786C507.768 423.171 508.085 423.436 501.096 416.986C500.052 416.005 498.841 414.9 498.423 414.514C498.005 414.129 496.419 412.69 494.896 411.288C493.372 409.885 491.863 408.5 491.532 408.218C491.219 407.921 489.681 406.501 488.096 405.062C486.543 403.625 482.808 400.189 479.805 397.436C476.819 394.667 472.187 390.424 469.496 387.968C466.837 385.514 462.834 381.833 460.605 379.814C458.394 377.781 454.361 374.065 451.641 371.574C448.939 369.069 446.503 366.841 446.23 366.629C445.855 366.295 445.842 366.129 446.165 365.621C446.371 365.271 446.641 364.365 446.765 363.583L446.994 362.181L451.451 360.674C453.926 359.861 458.347 358.384 461.305 357.401C466.84 355.576 474.975 352.863 488.668 348.278C492.953 346.827 499.816 344.535 503.925 343.173L511.373 340.684L512.5 341.801C513.238 342.567 513.926 343.05 514.564 343.25C515.377 343.51 515.526 343.65 515.531 344.029C515.534 344.292 515.042 352.374 514.409 361.961C513.791 371.565 513.195 380.974 513.088 382.892C512.304 396.056 510.623 421.655 510.531 421.732C510.458 421.794 510.008 421.966 509.544 422.12ZM500.476 425.175C497.67 424.851 494.046 424.448 492.411 424.29C490.78 424.098 480.121 422.918 468.728 421.646C457.336 420.374 445.356 419.036 442.09 418.686L436.196 418.039L436.825 412.054C437.175 408.752 438.417 397.62 439.583 387.29C441.482 370.356 441.713 368.511 442.199 368.456C442.484 368.423 443.171 368.199 443.731 367.934C444.29 367.67 444.762 367.45 444.814 367.436C444.912 367.442 448.458 370.654 454.941 376.614C456.883 378.402 459.661 380.962 461.141 382.312C462.621 383.663 467.596 388.239 472.196 392.48C476.796 396.722 483.625 402.982 487.378 406.403C491.112 409.839 494.476 412.909 494.832 413.258C495.207 413.592 496.716 414.977 498.196 416.327C503.698 421.344 506.68 424.145 506.654 424.226C506.52 424.663 505.995 425.488 505.815 425.61C505.673 425.7 503.282 425.499 500.476 425.175ZM610.093 326.581C604.53 327.219 596.037 328.168 591.245 328.719C586.453 329.269 572.897 330.819 561.121 332.141C549.341 333.496 535.789 335.013 530.997 335.564C526.205 336.114 522.183 336.577 522.052 336.569C521.92 336.562 521.582 336.197 521.336 335.756L520.85 334.955L521.99 333.819C523.222 332.606 524.619 331.254 527.277 328.723C528.241 327.824 529.209 326.892 529.437 326.642C529.664 326.391 530.962 325.182 532.315 323.926C533.682 322.688 534.892 321.523 535.009 321.365C535.127 321.207 536.149 320.229 537.246 319.189C538.356 318.167 540.16 316.443 541.242 315.386C543.629 313.054 545.322 311.423 547.291 309.561C548.57 308.367 550.876 306.162 557.886 299.47C558.594 298.786 559.653 297.777 560.214 297.217C560.79 296.674 561.945 295.555 562.817 294.733C563.671 293.926 564.859 292.809 565.42 292.249C566.425 291.286 567.246 290.477 570.26 287.588C571.022 286.859 575.114 282.946 579.37 278.894C583.612 274.825 587.516 271.099 588.022 270.584C588.543 270.088 589.661 269 590.534 268.177C591.388 267.37 593.192 265.647 594.53 264.374C598.603 260.476 599.329 259.777 600.946 258.241C601.785 257.417 602.771 256.469 603.09 256.142C603.41 255.814 604.619 254.649 605.785 253.581C606.951 252.512 608.234 251.285 608.663 250.865C611.663 247.811 612.066 247.472 612.371 247.835C612.531 248.025 613.27 248.347 614.025 248.538L615.375 248.877L615.926 253.811C616.587 259.655 616.513 259.157 619.223 282.39C620.387 292.44 621.633 303.22 621.966 306.331C622.332 309.444 622.937 314.776 623.339 318.154C623.736 321.565 624.06 324.479 624.07 324.677C624.072 324.94 623.56 325.075 622.154 325.226C621.099 325.347 615.671 325.96 610.093 326.581ZM801.606 160.406C798.319 161.519 793.982 162.983 791.971 163.642C789.957 164.334 785.072 165.965 781.131 167.304C777.189 168.643 773.387 169.924 772.703 170.115C772.016 170.339 771.347 170.548 771.189 170.622C771.032 170.695 770.882 169.995 770.846 168.875C770.8 167.852 770.549 160.896 770.256 153.445C769.982 145.978 769.697 138.46 769.636 136.713C769.588 134.983 769.289 127.449 769.015 119.982C768.366 102.92 768.231 98.8163 768.304 98.7547C768.341 98.7238 768.725 98.5482 769.142 98.3745L769.921 98.0733L771.423 100.083C772.236 101.199 773.263 102.606 773.688 103.222C774.112 103.838 776.105 106.616 778.097 109.394C780.089 112.172 782.11 114.984 782.578 115.652C783.391 116.768 791.578 128.138 793.901 131.346C794.485 132.153 795.149 133.128 795.389 133.487C795.628 133.846 796.495 135.063 797.312 136.146C798.143 137.246 799.054 138.515 799.381 138.977C800.723 140.945 809.051 152.521 809.502 153.057C809.763 153.368 809.759 153.548 809.429 153.826C808.747 154.429 808.087 155.987 808.071 157.121C808.036 157.711 807.924 158.248 807.803 158.29C807.679 158.365 804.893 159.293 801.606 160.406ZM165.683 688.675C161.686 687.642 152.121 685.158 144.448 683.177C136.793 681.18 125.893 678.373 120.244 676.901C114.61 675.446 105.299 673.043 99.5847 671.567C93.8701 670.091 82.7619 667.223 74.8957 665.198L60.5929 661.507L60.6334 660.588C60.643 660.079 60.5508 659.449 60.4023 659.16C60.1092 658.552 59.9627 658.675 62.8543 656.98C64.1355 656.198 68.2572 653.734 72.0421 651.465C79.8608 646.776 87.7345 642.042 98.2364 635.746C111.509 627.797 121.619 621.742 131.927 615.55C137.524 612.199 145.753 607.254 150.23 604.58C154.674 601.905 160.483 598.435 163.115 596.84C165.743 595.279 170.381 592.499 173.419 590.681C176.457 588.863 181.205 585.991 184.012 584.308C186.801 582.64 189.32 581.171 189.579 581.071C189.908 580.941 190.226 581.058 190.596 581.424C190.895 581.704 191.444 582.098 191.841 582.235C192.505 582.503 192.53 582.57 192.45 583.257C192.387 583.664 190.901 592.051 189.142 601.936C187.368 611.804 185.74 620.989 185.515 622.358C185.29 623.727 183.879 631.609 182.423 639.882C180.934 648.154 179.542 656.02 179.317 657.389C176.941 671.302 173.426 690.48 173.24 690.519C173.104 690.544 169.713 689.71 165.683 688.675ZM761.273 174.007L754.941 176.147L754.09 175.211C753.622 174.691 752.865 174.089 752.409 173.882C751.958 173.642 751.601 173.441 751.605 173.408C751.627 173.36 752.503 169.084 753.566 163.913C754.629 158.743 755.689 153.605 755.912 152.532C756.136 151.459 756.994 147.198 757.834 143.1C758.658 138.985 760.65 129.229 762.236 121.407C763.836 113.602 765.478 105.437 765.926 103.291C766.34 101.144 766.723 99.7012 766.776 100.099C766.845 100.925 769.051 159.561 769.292 167.882L769.412 171.261L768.516 171.572C768.019 171.725 764.765 172.839 761.273 174.007ZM727.995 188.37C719.415 192.489 709.449 197.302 705.828 199.021C702.22 200.757 698.016 202.789 696.491 203.541C687.626 207.841 652.537 224.701 652.42 224.71C652.307 224.687 640.47 201.315 633.347 187.044C631.979 184.302 629.239 178.85 627.248 174.92C625.257 170.991 622.017 164.573 620.027 160.643L616.44 153.515L617.001 152.806C617.328 152.414 617.736 151.746 617.917 151.329C618.23 150.623 618.285 150.576 618.84 150.641C619.15 150.675 623.279 151.567 628.002 152.608C632.74 153.667 637.478 154.725 638.562 154.935C639.641 155.177 642.337 155.741 644.543 156.245C646.768 156.733 656.587 158.886 666.373 161.037C676.159 163.188 685.978 165.341 688.203 165.829C690.41 166.333 693.539 167.004 695.151 167.358C696.763 167.713 701.279 168.693 705.182 169.54C709.066 170.402 719.272 172.642 727.832 174.527C736.393 176.411 743.629 178.022 743.917 178.104C744.347 178.244 744.442 178.43 744.558 179.276C744.628 180.102 744.568 180.329 744.111 180.566C743.811 180.73 736.56 184.234 727.995 188.37ZM749.184 173.468C748.625 173.585 748.15 173.689 748.084 173.686C748 173.697 747.275 172.39 737.359 154.127C734.034 148.017 729.101 138.953 726.402 133.996C723.704 129.04 720.517 123.167 719.303 120.944C718.09 118.72 716.645 116.072 716.098 115.087C715.536 114.084 715.07 113.12 715.041 112.938C715.016 112.722 716.304 112.17 719.547 111.006C722.081 110.113 732.762 106.262 743.323 102.453L762.528 95.5317L763.258 96.3627C763.665 96.8464 764.319 97.4757 764.726 97.8114L765.45 98.4117L760.478 122.738C757.751 136.121 755.274 148.202 754.998 149.585C754.722 150.967 753.542 156.855 752.374 162.645C751.206 168.435 750.24 173.199 750.222 173.215C750.218 173.248 749.743 173.352 749.184 173.468ZM735.692 174.759C730.757 173.689 718.665 171.029 708.799 168.857C698.951 166.669 689.632 164.627 688.082 164.309C686.55 163.975 674.78 161.399 661.948 158.565C649.098 155.747 634.056 152.442 628.508 151.239L618.43 149.038L618.321 148.275L618.244 147.514L629.649 143.408C635.913 141.148 647.921 136.829 656.291 133.8C664.676 130.789 673.529 127.59 675.978 126.709C678.428 125.829 687.815 122.446 696.858 119.176C705.901 115.906 713.32 113.235 713.353 113.237C713.386 113.238 714.578 115.362 715.994 117.976C717.41 120.589 720.369 126.005 722.55 130.011C724.73 134.016 727.295 138.702 728.218 140.432C729.16 142.147 731 145.525 732.293 147.918C733.604 150.295 734.882 152.671 735.154 153.18C735.426 153.688 736.704 156.064 738.015 158.441C739.308 160.834 741.804 165.401 743.531 168.608L746.693 174.413L746.011 175.164C745.666 175.572 745.291 176.093 745.203 176.286C745.129 176.495 744.96 176.667 744.858 176.694C744.774 176.705 740.641 175.846 735.692 174.759ZM353.098 487.576C350.902 487.122 349.064 486.722 349.006 486.652C348.962 486.601 348.891 486.07 348.828 485.474C348.641 483.243 346.558 481.25 344.262 481.086L343.178 481.025L341.486 472.951C340.56 468.539 338.242 457.452 336.34 448.346C334.437 439.241 332.155 428.271 331.232 423.975C330.342 419.68 329.627 416.152 329.674 416.171C329.758 416.16 346.682 460.234 352.702 476.17C354.666 481.332 356.536 486.159 356.861 486.917C357.19 487.643 357.381 488.279 357.293 488.324C357.191 488.351 355.312 488.014 353.098 487.576ZM425.019 416.763C419.783 416.154 414.674 415.584 413.626 415.492C411.616 415.295 408.138 414.917 367.957 410.399C353.74 408.819 340.308 407.317 338.071 407.074C331.98 406.416 332.239 406.464 332.213 405.837C332.183 405.243 332.201 405.228 337.536 403.277C338.849 402.792 348.843 399.017 359.737 394.898C383.895 385.758 408.378 376.521 422.069 371.376C427.686 369.277 433.238 367.174 434.415 366.715L436.511 365.896L437.346 366.815C437.859 367.387 438.576 367.905 439.192 368.154L440.205 368.54L437.455 393.091C435.954 406.593 434.683 417.69 434.628 417.736C434.554 417.798 430.241 417.356 425.019 416.763ZM644.235 228.704C640.577 230.453 633.677 233.779 628.899 236.058L620.213 240.236L619.377 239.465C618.464 238.64 617.728 238.286 616.732 238.18C616.013 238.106 616.129 241.666 614.835 187.573C614.04 154.53 614.044 153.642 615.136 154.493C615.303 154.618 618.887 161.632 623.118 170.047C627.331 178.478 631.324 186.387 631.957 187.623C632.605 188.877 635.117 193.873 637.593 198.751C647.25 217.969 650.906 225.217 650.979 225.303C651.095 225.441 651.325 225.306 644.235 228.704ZM519.552 333.746C519.428 333.673 522.147 327.198 525.598 319.4C529.053 311.569 532.199 304.411 532.623 303.464C533.615 301.185 535.661 296.514 537.785 291.749C538.743 289.616 540.001 286.759 540.587 285.411C541.174 284.062 542.361 281.383 543.216 279.424C544.086 277.483 546.531 271.947 548.662 267.117C552.608 258.195 553.264 256.669 558.035 245.903C559.499 242.548 562.095 236.707 563.762 232.887C566.502 226.66 567.212 225.385 567.648 225.903C567.72 225.989 569.459 226.68 571.485 227.453C577.725 229.814 579.737 230.57 588.237 233.832C592.731 235.568 597.309 237.292 598.37 237.697C602.113 239.061 605.915 240.494 608.113 241.359L610.292 242.24L610.223 243.124C610.142 244.106 610.345 245.203 610.772 246.083C610.935 246.388 610.944 246.734 610.816 246.842C610.596 247.027 601.5 255.739 599.341 257.821C598.67 258.473 596.327 260.709 594.135 262.789C591.939 264.901 589.71 267.012 589.204 267.526C588.683 268.023 587.602 269.08 586.784 269.856C584.966 271.562 580.519 275.834 578.975 277.309C578.345 277.898 577.263 278.955 576.556 279.639C575.848 280.322 574.601 281.518 573.784 282.294C572.966 283.07 571.405 284.561 570.323 285.618C569.241 286.675 567.529 288.322 566.51 289.267C565.491 290.213 564.336 291.332 563.907 291.751C563.478 292.171 562.323 293.29 561.304 294.236C560.285 295.181 559.13 296.3 558.701 296.72C558.272 297.14 557.191 298.197 556.282 299.05C555.372 299.903 554.199 301.037 553.679 301.534C552.597 302.591 552.208 302.948 543.358 311.394C539.733 314.856 535.714 318.708 534.431 319.934C533.148 321.161 531.381 322.854 530.527 323.66C529.654 324.483 528.664 325.463 528.29 325.836C527.916 326.21 526.706 327.375 525.61 328.415C524.499 329.438 522.938 330.928 522.135 331.721C520.195 333.618 519.814 333.909 519.552 333.746ZM743.282 100.953C722.472 108.457 719.642 109.481 716.347 110.659C714.413 111.372 714.091 111.436 713.921 111.048C713.802 110.795 712.918 109.149 711.933 107.382C709.502 102.967 707.923 100.048 703.566 92.0042C698.952 83.4682 694.493 75.3029 692.881 72.3821C692.211 71.1762 691.585 70.0221 691.523 69.8376C691.35 69.4823 692.775 67.4577 693.165 67.5128C693.278 67.5356 696.76 68.7367 700.886 70.221C705.013 71.7054 718.54 76.5198 730.941 80.9248C743.343 85.3298 755.554 89.6582 758.062 90.5573L762.619 92.1812L762.549 93.0655C762.511 93.5403 762.41 93.9788 762.337 94.0404C762.282 94.0866 753.703 97.2022 743.282 100.953ZM764.104 89.7816C763.708 90.2033 763.345 90.6268 763.352 90.7094C763.318 90.8556 761.63 90.2992 752.583 87.0551C749.2 85.8596 743.262 83.746 739.405 82.3592C735.53 80.9878 724.383 77.0323 714.636 73.5511C704.87 70.0853 696.121 66.9732 695.199 66.6577C694.244 66.3403 693.438 66.0149 693.395 65.9631C693.355 65.8786 693.313 65.5308 693.322 65.1694L693.332 64.512L697.836 63.024C700.326 62.2277 712.698 58.1925 725.326 54.0896C737.954 49.9866 753.091 45.072 758.915 43.1819C764.757 41.2764 769.579 39.7571 769.637 39.8262C769.681 39.878 769.453 45.2605 769.129 51.7561C768.82 58.2689 768.276 69.0783 767.944 75.7872L767.354 87.9921L766.089 88.4961C765.273 88.8281 764.61 89.2675 764.104 89.7816ZM699.592 116.7C692.465 119.272 684.925 121.986 682.805 122.738C676.958 124.824 641.792 137.501 637.44 139.096C618.447 146.045 617.69 146.299 617.284 145.815C616.92 145.383 616.965 145.287 617.834 144.349C618.377 143.804 619.668 142.364 620.732 141.174C624.819 136.587 627.251 133.863 634.508 125.754C638.632 121.135 644.315 114.763 647.147 111.584C652.948 105.054 661.764 95.1914 665.752 90.7461C667.23 89.1193 670.066 85.9081 672.117 83.6229C674.135 81.3358 676.281 78.9409 676.868 78.2998C677.455 77.6587 679.301 75.5756 681.01 73.6658C682.705 71.7388 684.22 70.0811 684.367 69.9578C684.514 69.8346 684.867 69.9204 685.173 70.1352C685.872 70.6683 688.218 70.966 689.183 70.626C689.578 70.5004 690.009 70.4919 690.111 70.6128C690.372 70.9238 692.172 74.2171 710 106.944C712.332 111.205 712.68 111.915 712.588 111.992C712.552 112.023 706.701 114.142 699.592 116.7ZM746.209 45.8164C706.811 58.6315 693.225 63.009 692.93 62.9922C692.714 62.9965 692.905 62.777 693.513 62.3838C694.029 62.0677 695.918 60.7438 697.757 59.4335C699.577 58.1386 701.577 56.7223 702.17 56.3119C704.437 54.7298 705.264 54.1517 706.583 53.1902C707.846 52.2749 708.927 51.5138 710.904 50.1456C711.336 49.8411 712.307 49.1724 713.065 48.6233C713.805 48.0895 714.793 47.4054 715.225 47.101C715.658 46.7965 716.628 46.1278 717.386 45.5787C718.126 45.0449 719.188 44.2992 719.73 43.9023C720.268 43.538 724.157 40.7979 728.373 37.813C732.57 34.8436 736.495 32.0726 737.089 31.6622C738.096 30.9626 741.322 28.6619 743.772 26.9257C746.64 24.8678 749.826 22.6306 752.506 20.7595C754.11 19.6168 756.11 18.2005 756.919 17.6378C758.688 16.3564 762.398 13.7377 763.493 12.9938C763.925 12.6894 764.95 11.9744 765.745 11.3945C767.8 9.93194 768.133 9.76989 768.423 10.1154C768.569 10.2881 769.239 10.6387 769.902 10.9066L771.116 11.4196L770.455 24.8049L769.798 38.1575L764.197 39.978C761.122 40.9714 753.031 43.5882 746.209 45.8164Z" fill="url(#paint0_linear_153_177)"/>
<defs>
<linearGradient id="paint0_linear_153_177" x1="380.49" y1="288.465" x2="723.531" y2="696.335" gradientUnits="userSpaceOnUse">
<stop stop-color="white"/>
<stop offset="1" stop-color="#460085"/>
</linearGradient>
</defs>
</svg>
