<svg width="554" height="693" viewBox="0 0 554 693" fill="none" xmlns="http://www.w3.org/2000/svg">
<g clip-path="url(#clip0_41_202)">
<path d="M1255.97 386.324C1253.22 384.058 1249.02 384.486 1246.31 387.275C1245.58 388.019 1248.72 389.223 1222.36 378.179C1215.25 375.217 1207.13 371.819 1204.32 370.624C1201.5 369.468 1192.37 365.633 1184.03 362.121C1175.67 358.625 1165.32 354.301 1161 352.512C1156.68 350.724 1151.55 348.568 1149.56 347.74C1147.59 346.895 1142.66 344.831 1138.59 343.14C1134.52 341.45 1127.69 338.592 1123.4 336.787C1110.82 331.537 1102.04 327.858 1087.3 321.694C1079.69 318.514 1070.43 314.639 1066.72 313.064C1063 311.528 1059.87 310.06 1059.72 309.835C1059.6 309.592 1059.35 309.494 1059.2 309.594C1059.03 309.71 1058.17 309.499 1057.32 309.148L1055.73 308.481L1056.28 309.379C1056.67 309.966 1056.73 310.281 1056.47 310.323C1055.2 310.641 989.472 327.206 976.853 330.399C968.536 332.508 959.802 334.697 957.508 335.268C955.214 335.839 949.086 337.382 943.89 338.698L934.434 341.103L933.69 339.974C932.619 338.347 931.441 337.6 929.559 337.318C928.413 337.166 927.415 337.24 926.245 337.654L924.557 338.215L922.519 335.832C921.431 334.509 920.392 333.314 920.208 333.144C920.049 332.957 919.358 332.182 918.702 331.351C917.643 330.072 916.689 328.952 913.756 325.539C913.353 325.092 907.945 318.742 901.752 311.42C883.441 289.86 882.357 288.598 881.87 288.077C881.611 287.794 880.975 287.047 880.453 286.419C878.44 284.02 866.596 270.088 866.019 269.431C865.487 268.843 865.463 268.696 866.11 267.817C868.65 264.331 867.153 259.648 863.133 258.474C861.393 257.968 859.682 258.22 857.831 259.245L856.207 260.12L849.762 242.827C846.229 233.299 842.2 222.414 840.783 218.619C839.366 214.823 837.069 208.595 835.622 204.754C828.888 186.583 827.875 183.784 827.451 182.703C827.205 182.055 825.341 177.032 823.319 171.497C821.273 165.979 818.577 158.653 817.293 155.224C816.009 151.794 813.958 146.214 812.718 142.852C811.478 139.49 809.565 134.338 808.437 131.42C806.297 125.705 804.924 121.977 802.805 116.183C802.087 114.162 799.696 107.736 797.491 101.868C795.302 96.0231 792.365 88.1114 790.948 84.3159C789.531 80.5204 785.949 70.8631 782.978 62.8444C779.982 54.8423 777.07 46.9139 776.46 45.2753C775.421 42.4934 774.226 39.1995 770.836 30.1611L769.558 26.6307L770.879 25.4044C772.543 23.8225 773.216 22.2137 773.076 19.9739C772.844 16.499 769.809 14.1906 766.207 14.7486C763.413 15.1633 761.322 16.8643 760.206 19.6074L759.533 21.2162L757.221 21.5405C755.952 21.6959 752.085 22.2344 748.625 22.7322C745.174 23.1907 738.93 24.0641 734.737 24.6554C730.569 25.2301 725.423 25.9631 723.346 26.2618C721.255 26.5378 715.693 27.3508 710.963 28.0039C706.233 28.6571 700.656 29.4474 698.579 29.7461C696.503 30.0447 692.781 30.5847 690.324 30.9075C685.645 31.5275 653.274 36.0677 646.719 37.0165C644.642 37.3151 642.486 37.6017 641.924 37.6801C641.372 37.7194 639.125 38.0332 636.959 38.359C632.675 38.9774 628.066 39.6485 624.42 40.1388C623.151 40.2942 616.816 41.1947 610.376 42.0997C587.881 45.2537 563.897 48.6114 555.707 49.7622C551.173 50.3837 545.334 51.2163 542.761 51.5828L538.112 52.248L537.862 51.3759C537.363 49.6318 535.275 47.9949 533.117 47.7317L531.785 47.5723L531.575 45.444C531.302 42.8383 529.967 30.0174 529.636 26.4461C529.49 25.0197 529.058 20.8023 528.673 17.0398C528.263 13.2938 527.72 7.75692 527.43 4.74146C527.115 1.74257 526.684 -2.63751 526.429 -4.99626C525.692 -12.089 525.531 -13.538 525.011 -18.7661C524.739 -21.5346 524.42 -24.5952 524.306 -25.5893C523.977 -28.7735 523.457 -34.0016 523.134 -37.2866L522.83 -40.4874L524.516 -41.5978C527.119 -43.344 528.13 -45.3702 527.818 -48.1446C527.407 -51.7279 523.394 -54.0407 519.698 -52.8049L518.538 -52.4296L496.847 -85.367L475.157 -118.304L476.022 -119.457C479.141 -123.487 477.407 -128.531 472.637 -129.309C470.084 -129.733 467.894 -128.841 465.587 -126.48C465.037 -125.891 467.332 -125.2 443.098 -133.564C433.25 -136.957 418.579 -142.032 410.505 -144.812C402.432 -147.593 393.154 -150.778 389.915 -151.916C386.676 -153.054 381.217 -154.933 377.793 -156.079C372.184 -158.021 367.62 -159.582 348.774 -166.118C345.525 -167.217 338.982 -169.483 334.188 -171.119C325.559 -174.085 325.464 -174.119 325.645 -174.886C326.494 -178.911 322.98 -182.329 318.676 -181.632C314.739 -180.983 312.07 -177.638 312.516 -173.948L312.667 -172.622L310.539 -171.415C309.347 -170.76 307.712 -169.845 306.927 -169.393C306.128 -168.964 304.483 -168.01 303.255 -167.299C302.028 -166.588 300.494 -165.739 299.835 -165.37C299.176 -165.001 297.591 -164.12 296.288 -163.359C295.01 -162.614 293.275 -161.634 292.49 -161.181C291.248 -160.493 280.699 -154.485 274.003 -150.627C272.851 -149.965 271.367 -149.15 270.709 -148.781C270.035 -148.434 266.096 -146.197 261.905 -143.793C257.74 -141.407 253.55 -139.003 252.614 -138.452C251.663 -137.923 249.903 -136.925 248.675 -136.214C247.448 -135.503 245.863 -134.622 245.129 -134.203C244.42 -133.8 241.924 -132.384 239.62 -131.061C233.911 -127.787 233.72 -127.693 233.318 -128.303C232.772 -129.078 230.964 -129.96 229.538 -130.154C227.805 -130.373 226.159 -129.969 224.649 -128.975L223.416 -128.163L215.589 -134.733C211.255 -138.356 206.542 -142.281 205.107 -143.473C203.672 -144.666 196.483 -150.652 189.139 -156.763C181.82 -162.89 172.449 -170.71 168.313 -174.141C164.203 -177.588 160.407 -180.723 159.913 -181.143C159.096 -181.836 158.921 -181.883 158.267 -181.452C157.839 -181.17 157.586 -180.842 157.676 -180.706C157.765 -180.57 163.031 -176.136 169.363 -170.848C181.659 -160.614 198.658 -146.417 202.574 -143.101C203.909 -142.004 207.666 -138.875 210.944 -136.144C222.802 -126.301 222.294 -126.744 221.988 -126.057C221.831 -125.694 221.628 -125.399 221.487 -125.338C220.865 -125.188 161.228 -130.383 161.064 -130.631C160.96 -130.789 160.628 -132.773 160.338 -135.076C160.038 -137.34 159.577 -140.89 159.28 -142.93C158.262 -150.064 154.971 -174.293 154.754 -176.321C154.617 -177.461 154.449 -178.484 154.374 -178.597C154.3 -178.71 153.863 -178.551 153.41 -178.253L152.604 -177.723L154.414 -164.729C158.123 -137.892 159.046 -130.792 158.87 -130.676C158.719 -130.577 155.894 -130.757 148.653 -131.397C147.271 -131.523 141.772 -131.983 136.434 -132.419C131.096 -132.855 126.634 -133.22 126.553 -133.232C126.473 -133.244 126.357 -133.75 126.311 -134.368C126.245 -135.069 125.861 -135.982 125.166 -136.982L124.14 -138.541L127.048 -143.274C128.65 -145.883 130.357 -148.66 130.814 -149.446C131.31 -150.226 134.7 -155.762 138.399 -161.761L145.103 -172.621L143.498 -171.661C141.667 -170.552 142.614 -172.018 130.659 -152.421C129.706 -150.854 127.456 -147.203 125.678 -144.315L122.425 -139.063L121.434 -139.253C117.781 -139.924 113.763 -137.149 113.147 -133.537C112.828 -131.61 113.111 -130.468 114.342 -128.818C115.762 -126.935 117.446 -126.295 119.91 -126.719L121.615 -127.033L122.68 -125.143C123.259 -124.099 124.288 -122.153 124.98 -120.828C125.672 -119.502 126.672 -117.602 127.181 -116.609C127.715 -115.633 128.685 -113.778 129.332 -112.52C129.98 -111.262 131.271 -108.809 132.176 -107.106C133.096 -105.38 134.051 -103.547 134.328 -103.017C134.605 -102.486 135.5 -100.744 136.331 -99.1534C137.187 -97.5795 138.111 -95.7918 138.408 -95.1773C138.947 -94.1396 141.163 -89.8984 142.785 -86.8862C143.201 -86.091 144.417 -83.7505 145.481 -81.6977C146.544 -79.6449 148.73 -75.4489 150.352 -72.4367C151.965 -69.3854 154.843 -63.864 156.782 -60.153C158.746 -56.4586 160.744 -52.6572 161.234 -51.749C161.739 -50.8183 162.312 -49.6736 162.544 -49.2112C162.994 -48.3091 163.934 -46.4988 165.314 -43.9098C165.774 -43.0468 166.377 -41.857 166.699 -41.2591C167.02 -40.6611 167.698 -39.3584 168.232 -38.3824C170.127 -34.9019 170.142 -34.8793 169.113 -33.8126C167.089 -31.7351 166.592 -28.6547 167.887 -26.1396C169.104 -23.7991 172.604 -22.7032 175.588 -23.7612C176.19 -23.9963 176.843 -24.1019 176.997 -23.9769C177.261 -23.7947 184.519 -16.0073 191.079 -8.89453C192.427 -7.4503 196.814 -2.7607 200.828 1.5268C204.857 5.8369 209.802 11.0988 211.796 13.2508C213.791 15.4028 216.273 18.0759 217.317 19.1693C218.337 20.2792 219.799 21.8424 220.535 22.6857C221.256 23.5065 222.918 25.2625 224.166 26.6103C225.425 27.919 227.977 30.6433 229.827 32.6312C231.677 34.6191 238.203 41.6249 244.351 48.1668L255.493 60.1001L254.797 61.5629C252.986 65.4433 255.562 69.7386 259.805 69.9893C262.825 70.1379 265.764 68.2996 266.966 65.4677L267.429 64.4177L282.465 64.6211C302.917 64.8852 315.428 65.0348 330.569 65.2337C337.623 65.3167 348.035 65.4562 353.756 65.5424C359.463 65.6061 365.976 65.6891 368.211 65.7399C371.618 65.7633 372.324 65.849 372.426 66.3325C372.514 66.6308 373.068 67.691 373.682 68.679L374.818 70.4577L373.267 73.0337C372.42 74.4331 370.14 78.2022 368.158 81.3854C366.192 84.591 363.932 88.2818 363.136 89.6481C362.325 90.9918 360.536 93.9189 359.148 96.1936C345.952 117.742 342.824 122.91 342.869 122.978C342.914 123.046 357.5 130.347 366.394 134.757C369.944 136.532 374.838 138.977 377.305 140.203C379.772 141.428 384.61 143.845 388.066 145.585C391.546 147.309 396.51 149.806 399.101 151.111C401.708 152.439 404.724 153.951 405.818 154.461C406.901 155.011 409.683 156.385 411.985 157.525C414.302 158.688 417.688 160.377 419.525 161.304C421.363 162.232 426.092 164.591 430.012 166.544C433.932 168.497 438.661 170.856 440.498 171.784C442.361 172.695 445.172 174.115 446.79 174.928C448.408 175.741 453.766 178.398 458.69 180.889C463.623 183.34 467.728 185.463 467.802 185.576C467.876 185.689 467.798 186.226 467.639 186.752C467.156 188.43 467.369 189.521 468.5 191.238C469.675 193.022 470.508 193.575 472.721 193.867L474.147 194.061L474.851 198.909C475.208 201.589 476.381 209.561 477.395 216.634C478.433 223.691 479.98 234.203 480.817 239.967C481.629 245.748 482.544 251.849 482.803 253.557C483.062 255.265 483.79 260.097 484.382 264.339L485.507 272.019L483.86 273.298C481.961 274.743 481.495 275.406 480.93 277.397C480.12 280.166 481.508 283.041 484.236 284.224C484.93 284.512 485.976 284.73 486.527 284.691C487.104 284.635 487.574 284.746 487.613 284.915C487.642 285.123 488.087 287.388 488.621 289.952C489.114 292.509 491.156 303.116 493.114 313.486C495.097 323.84 497.583 336.874 498.627 342.405C499.687 347.958 502.608 363.297 505.107 376.517C507.632 389.721 510.094 402.609 510.573 405.144C511.889 411.856 511.878 411.345 511.034 411.707C510.637 411.871 509.836 412.463 509.256 413.007C505.921 416.272 506.732 421.503 510.815 423.154C514.422 424.633 519.189 422.173 520.273 418.286L520.618 417.055L530.193 415.542C535.45 414.704 542.719 413.577 546.32 413.019C549.922 412.461 560.882 410.749 570.693 409.211C580.505 407.673 593.592 405.629 599.802 404.649L611.088 402.884L611.816 404.154C612.836 405.976 614.202 406.955 616.164 407.25C617.911 407.492 620.235 406.966 621.419 406.024C621.817 405.697 622.128 405.622 622.367 405.821C625.397 408.23 707.682 474.72 747.382 506.842C764.922 521.039 779.453 532.749 779.687 532.886C779.952 533.068 779.919 533.511 779.572 534.354C779.317 535.008 779.133 536.263 779.182 537.105C779.28 538.239 779.181 538.692 778.795 538.818C778.538 538.922 777.483 539.455 776.442 540.011C775.441 540.573 771.935 542.428 768.697 544.14C765.458 545.851 758.89 549.302 754.103 551.839C749.3 554.354 744.372 556.952 743.1 557.596C741.842 558.262 739.62 559.434 738.146 560.21C736.673 560.986 735.048 561.861 734.5 562.125C733.992 562.395 731.211 563.87 728.34 565.372C725.483 566.897 722.677 568.389 722.079 568.686C721.495 569.005 716.602 571.547 711.241 574.365C705.881 577.183 701.38 579.499 701.285 579.464C701.165 579.446 701.135 579.401 701.236 579.334C701.563 579.119 699.288 577.637 698.139 577.261C697.478 577.08 696.171 577.067 695.273 577.237C688.921 578.441 686.919 586.14 692.18 589.088C693.433 589.785 694.233 589.905 696.93 589.781C697.391 589.769 697.781 590.581 700.093 596.119C703.869 605.195 709.237 618.113 717.814 638.699C721.925 648.558 726.402 659.245 727.723 662.456C729.058 665.69 731.449 671.403 733.022 675.16C734.609 678.941 737.281 685.408 739.011 689.515C740.716 693.639 743.926 701.307 746.11 706.541C748.293 711.774 751.364 719.177 752.937 722.935C754.524 726.715 757.191 733.121 758.877 737.16C762.86 746.715 763.298 747.819 763.257 747.976C763.262 748.037 762.822 748.521 762.293 749.032C760.426 750.909 759.67 753.706 760.512 755.807L760.872 756.736L759.326 757.787C758.496 758.334 757.418 759.108 756.97 759.468C756.506 759.806 753.812 761.742 750.952 763.755C748.118 765.751 745.384 767.681 744.935 768.041C744.487 768.401 741.778 770.315 738.918 772.327C736.068 774.301 733.576 776.105 733.404 776.282C733.232 776.46 730.675 778.274 727.764 780.32C724.839 782.344 721.969 784.396 721.37 784.855C720.77 785.315 718.479 786.986 716.233 788.562C713.987 790.138 711.102 792.167 709.838 793.097C708.574 794.026 706.016 795.841 704.199 797.135C702.381 798.429 699.611 800.415 698.07 801.527L695.265 803.568L694.363 802.964C693.136 802.088 690.582 801.826 688.92 802.371C686.253 803.252 684.45 805.281 683.886 807.985C683.129 811.658 685.843 814.793 689.747 814.749C690.974 814.75 691.299 814.86 691.591 815.413C691.888 816.027 691.968 816.039 692.748 815.525C693.402 815.094 693.519 814.888 693.281 814.527C693.043 814.165 693.16 813.959 693.94 813.445C694.443 813.114 695.053 812.615 695.31 812.348C695.628 812.009 695.904 811.99 696.413 812.27C696.952 812.595 697.278 812.542 697.983 812.078C698.461 811.763 698.834 811.453 698.804 811.408C698.759 811.34 698.265 811.082 697.681 810.852L696.616 810.387L696.898 808.841C697.153 807.475 696.968 805.88 696.447 805.089C696.314 804.886 696.858 804.398 698.328 803.397C699.461 802.652 700.538 801.877 700.725 801.722C700.896 801.544 703.263 799.824 705.972 797.91C708.681 795.997 711.289 794.149 711.738 793.789C712.201 793.452 714.86 791.572 717.644 789.608C720.428 787.645 723.299 785.593 724.024 785.051C724.749 784.508 727.292 782.672 729.664 781.013C732.035 779.354 734.754 777.401 735.681 776.726C736.633 776.035 739.276 774.132 741.572 772.523C743.893 770.897 746.361 769.11 747.086 768.568C748.874 767.228 757.802 760.896 760.117 759.371C761.965 758.122 761.965 758.122 762.663 758.634C763.041 758.935 763.926 759.292 764.601 759.495L765.841 759.844L765.853 763.205C765.898 767.547 765.834 767.395 766.866 766.716C767.672 766.185 767.698 766.006 767.679 762.909L767.661 759.65L768.672 759.211C769.234 758.97 769.787 758.768 769.892 758.764C770.023 758.742 770.654 759.428 771.35 760.265C773.104 762.381 773.259 762.506 774.114 761.942C774.593 761.628 774.78 761.31 774.692 761.011C774.54 760.561 774.565 760.545 774.843 760.912C775.062 761.189 775.348 761.13 775.977 760.716L776.833 760.152L774.734 758.555C773.573 757.668 772.546 756.822 772.457 756.686C772.368 756.55 772.496 756.142 772.704 755.746C773.129 755.077 773.38 755.074 778.087 755.537C782.769 756.017 783.099 756.026 784.131 755.346C784.71 754.965 785.158 754.605 785.129 754.56C785.084 754.492 773.858 753.334 773.622 753.36C773.582 753.354 773.491 752.831 773.44 752.152C773.405 751.495 773.136 750.539 772.848 750.048C772.269 749.004 771.602 749.8 779.2 742.27C782.152 739.355 791.96 729.592 801.006 720.591C810.052 711.589 820.006 701.665 823.129 698.572C833.088 688.711 841.261 680.575 848.204 673.639C851.927 669.924 860.983 660.883 868.359 653.564C875.72 646.223 883.722 638.265 886.093 635.894C888.465 633.523 890.558 631.496 890.734 631.38C890.885 631.281 891.326 631.347 891.67 631.541C892.429 631.981 892.62 631.175 885.738 654.751C883.265 663.213 880.35 673.197 879.272 676.984C878.179 680.749 876.49 686.622 875.49 690.034L873.678 696.214L874.78 695.586C875.806 695.007 875.923 694.801 876.488 692.809C876.822 691.618 880.547 678.865 884.745 664.474C888.967 650.066 892.745 636.954 893.218 635.316C893.747 633.38 894.17 632.324 894.507 632.232C894.883 632.146 895.035 632.596 895.324 635.062C897.427 652.009 900.765 678.117 900.884 678.298C900.944 678.388 901.311 678.179 901.734 677.835C902.631 677.115 902.785 678.828 899.622 654.191C898.475 645.327 897.372 636.693 897.168 635.014L896.809 631.947L898.233 631.041C900.035 629.887 901.244 628.217 901.597 626.397C901.752 625.647 901.927 624.981 902.003 624.931C902.078 624.881 910.923 622.587 921.645 619.802C932.382 617.039 944.544 613.92 948.701 612.834C952.857 611.749 958.8 610.199 961.948 609.39C965.11 608.603 971.143 607.026 975.365 605.93C979.612 604.818 987.021 602.919 991.85 601.649L1000.64 599.388L1001.37 600.495C1001.8 601.089 1002.35 601.762 1002.63 601.967C1003.1 602.302 1002.89 602.8 1000.32 607.503C998.765 610.342 997.08 613.427 996.593 614.331L995.74 615.994L998.256 614.337L1000.77 612.679L1002.99 607.984L1005.18 603.266L1006.5 603.24C1007.24 603.208 1008.33 603.006 1008.95 602.794L1010.03 602.407L1010.98 603.852L1011.95 605.321L1012.7 604.823C1013.43 604.343 1013.43 604.343 1012.51 602.78L1011.6 601.239L1012.4 600.26C1012.83 599.753 1013.31 598.951 1013.42 598.52L1013.65 597.72L1018.61 597.692C1023.5 597.713 1023.59 597.686 1024.78 596.806L1025.99 595.91L1023.28 595.95C1021.77 595.968 1020.41 595.926 1020.27 595.885C1020.15 595.806 1021.93 595.442 1024.28 595.062C1028.3 594.424 1028.66 594.316 1030.24 593.272L1031.94 592.122L1030.81 592.318C1030.18 592.407 1026.12 593.039 1021.78 593.73L1013.91 594.929L1013.09 593.462C1012.63 592.661 1012.3 591.877 1012.34 591.721C1012.37 591.603 1016.61 586.053 1021.77 579.419C1026.93 572.784 1031.72 566.645 1032.42 565.732C1034.73 562.721 1065.31 523.247 1077.18 507.951C1083.63 499.658 1100.95 477.305 1115.7 458.292C1135.05 433.373 1142.61 423.761 1142.93 423.81C1143.25 423.858 1143.33 424.033 1143.23 424.424C1143.13 424.715 1139.01 437.794 1134.05 453.497C1129.12 469.182 1122.84 489.022 1120.15 497.595C1117.45 506.145 1113.19 519.734 1110.65 527.82C1108.12 535.867 1105.95 542.705 1105.87 543.019C1105.74 543.489 1105.87 543.468 1106.88 542.805L1108.04 542.042L1115.22 519.305C1122.89 494.952 1128.22 477.964 1138.55 445.094C1142.15 433.686 1145.16 424.349 1145.29 424.327C1145.38 424.3 1146.04 424.195 1146.74 424.056C1147.86 423.837 1147.99 423.878 1148.27 424.633C1148.47 425.089 1149.25 426.774 1150.01 428.414C1150.76 430.055 1152.97 434.885 1154.89 439.123C1159.44 449.211 1163.81 458.742 1169.41 471.022C1175.89 485.248 1179.47 493.093 1179.79 493.915C1180.06 494.546 1180.14 494.558 1180.9 494.061L1181.73 493.514L1180.22 490.234C1179.38 488.419 1177.1 483.476 1175.16 479.215C1171.31 470.739 1167.78 462.961 1160.25 446.442C1157.55 440.48 1154.49 433.75 1153.47 431.479C1152.44 429.208 1151.19 426.373 1150.62 425.189C1149.79 423.375 1149.69 422.953 1150.07 422.704C1150.3 422.555 1150.63 422.239 1150.81 422.022C1151.03 421.749 1151.55 421.889 1152.78 422.603C1153.72 423.089 1156.43 424.637 1158.87 425.98C1164.04 428.854 1162.39 427.934 1182.35 439.178C1191.11 444.097 1199.29 448.685 1200.52 449.399C1201.77 450.096 1203.44 451.038 1204.24 451.484C1205.04 451.93 1208.63 453.935 1212.23 455.941C1215.79 457.963 1220.48 460.58 1222.61 461.797C1226.45 464.001 1226.5 464.03 1227.33 463.483C1227.76 463.201 1228.11 462.907 1228.06 462.839C1228.02 462.772 1224.72 460.892 1220.76 458.647C1216.76 456.419 1209.65 452.42 1204.93 449.735C1200.18 447.067 1194.6 443.908 1192.45 442.73C1175.61 433.32 1153.59 420.872 1153.62 420.754C1153.66 420.598 1161.66 418.216 1177.45 413.648C1182.95 412.032 1191.24 409.614 1195.89 408.237C1200.56 406.882 1213.41 403.113 1224.48 399.871L1244.62 394.023L1245.67 395.279C1246.26 396.02 1247.18 396.747 1247.79 397.023L1248.89 397.494L1245.83 411.364C1244.18 418.994 1242.58 426.265 1242.32 427.507C1242.06 428.75 1240.47 436.044 1238.82 443.673C1237.15 451.319 1235.82 457.634 1235.86 457.702C1235.91 457.769 1236.37 457.533 1236.89 457.185C1237.83 456.571 1237.92 456.281 1240.5 444.414C1241.96 437.753 1243.29 431.562 1243.49 430.655C1250.6 397.506 1250.6 397.405 1252.06 397.481C1252.14 397.494 1255.1 406.589 1258.63 417.705C1262.18 428.843 1265.13 438.039 1265.22 438.175C1265.31 438.31 1265.71 438.208 1266.11 437.943C1266.77 437.512 1266.78 437.372 1266.32 435.796C1265.53 433.213 1253.99 397.019 1253.92 396.906C1253.87 396.838 1254.3 396.494 1254.85 396.13C1257.65 394.29 1258.61 390.609 1257.05 387.749C1256.78 387.218 1256.28 386.574 1255.97 386.324ZM1244.58 390.617C1244.48 391.172 1244.42 391.794 1244.46 391.963C1244.53 392.238 1241.12 393.253 1218.67 399.812C1216.25 400.528 1200.72 405.055 1184.18 409.896C1167.63 414.737 1153.73 418.775 1153.32 418.878L1152.59 419.072L1152.79 418.227C1153.24 416.179 1152.08 413.48 1150.22 412.305C1148.66 411.358 1146.6 411.191 1144.64 411.833C1143.42 412.219 1142.82 412.291 1142.65 412.043C1142.5 411.817 1138.68 407.111 1134.14 401.584C1124.44 389.704 1122.34 387.108 1120.86 385.259C1120.25 384.495 1119.5 383.629 1119.2 383.278C1118.91 382.95 1118.15 382.061 1117.53 381.298C1116.92 380.534 1115.19 378.402 1113.68 376.546C1112.17 374.691 1109.62 371.579 1108.02 369.589C1106.41 367.637 1104.82 365.668 1104.47 365.289C1103.76 364.491 1102.79 363.286 1099.67 359.378C1098.49 357.918 1097.32 356.521 1097.06 356.238C1096.8 355.955 1096.11 355.117 1095.5 354.354C1090.64 348.352 1088.48 345.727 1087.79 344.89C1087.34 344.375 1086.07 342.78 1084.94 341.389C1083.81 339.997 1082.18 338.023 1081.31 336.976C1079.38 334.651 1078.2 333.231 1076.67 331.291C1076.02 330.482 1075.15 329.435 1074.78 328.971C1074.37 328.524 1073.18 327.042 1072.09 325.719C1071.01 324.395 1069.68 322.771 1069.16 322.143C1066.13 318.472 1061.78 313.076 1061.83 313.042C1061.86 313.026 1065.22 314.406 1069.32 316.142C1073.41 317.856 1083.98 322.294 1092.84 325.986C1101.69 329.677 1112.11 334.052 1115.99 335.674C1119.88 337.295 1128.95 341.101 1136.15 344.097C1143.36 347.093 1156.14 352.474 1164.56 355.999C1172.99 359.546 1183.4 363.898 1187.69 365.703C1198.95 370.367 1206.31 373.427 1222.34 380.131C1230.12 383.396 1238.3 386.823 1240.53 387.749C1242.76 388.675 1244.66 389.468 1244.69 389.513C1244.74 389.542 1244.67 390.041 1244.58 390.617ZM1140.99 414.236C1140.68 414.575 1140.28 414.801 1140.12 414.777C1139.96 414.753 1136.41 413.528 1132.23 412.105C1123.85 409.237 1119.2 407.664 1104.01 402.511C1098.39 400.609 1091.92 398.394 1089.59 397.596C1087.3 396.805 1080.5 394.48 1074.52 392.462C1068.53 390.443 1059.24 387.297 1053.89 385.475C1048.55 383.654 1043.28 381.844 1042.18 381.496C1041.07 381.126 1040.12 380.718 1040.03 380.583C1039.94 380.447 1044.16 365.102 1049.43 346.475L1058.95 312.609L1060.14 314.091C1060.81 314.883 1061.87 316.162 1062.46 316.903C1065.99 321.219 1074.76 331.9 1075.68 333.076C1076.65 334.281 1078.56 336.583 1081.04 339.582C1081.47 340.113 1082.29 341.092 1082.86 341.788C1085.21 344.707 1091.47 352.405 1092.22 353.271C1092.65 353.803 1093.95 355.404 1095.13 356.863C1096.31 358.323 1098.35 360.829 1099.7 362.435C1101.05 364.042 1102.64 365.972 1103.25 366.735C1103.87 367.499 1106.87 371.187 1109.96 374.949C1113.03 378.727 1116.35 382.789 1117.34 384.017C1119.04 386.104 1123.66 391.744 1125.54 394.001C1128.15 397.141 1133.83 404.122 1135.01 405.581C1135.76 406.509 1137.3 408.409 1138.46 409.784C1141.67 413.626 1141.64 413.581 1140.99 414.236ZM1139.17 416.731C1138.58 416.764 1129.67 416.707 1110.45 416.568C1101.67 416.49 1090.97 416.409 1086.69 416.377C1048.28 416.121 1041.65 415.981 1041.59 415.503C1041.56 415.234 1041.19 414.405 1040.81 413.655C1040.03 412.194 1038.84 411.161 1037.41 410.681C1036.19 410.253 1033.78 410.543 1032.25 411.291L1030.99 411.895L1035.12 397.188L1039.25 382.521L1040.39 382.836C1041.03 383.033 1044.71 384.237 1048.54 385.567C1052.4 386.879 1060.45 389.615 1066.43 391.633C1082.8 397.208 1087.41 398.775 1094.15 401.07C1097.55 402.233 1109.1 406.125 1119.82 409.752C1130.54 413.378 1139.38 416.436 1139.43 416.526C1139.53 416.623 1139.38 416.722 1139.17 416.731ZM1139.25 419.043C1139.05 419.114 1114.44 427.06 1084.56 436.697C1054.69 446.356 1030.19 454.236 1030.15 454.23C1029.84 454.204 1034.77 423.332 1035.08 423.257C1037.98 422.451 1039.86 421.084 1040.87 418.957L1041.46 417.763L1065.65 417.958C1078.97 418.065 1095.43 418.199 1102.25 418.246C1109.04 418.31 1120.17 418.395 1126.99 418.442C1137.84 418.546 1140.7 418.671 1139.25 419.043ZM1135.56 429.928C1132.42 433.974 1124.27 444.455 1117.47 453.244C1110.66 462.033 1098.16 478.169 1089.67 489.106C1081.2 500.026 1069.3 515.377 1063.23 523.197C1057.15 531.018 1047.66 543.229 1042.13 550.337C1036.6 557.444 1031.55 563.973 1030.92 564.814C1030.29 565.677 1025.48 571.894 1020.25 578.64L1010.69 590.924L1009.91 590.726C1009.47 590.598 1009.13 590.364 1009.15 590.162C1009.17 589.983 1009.84 585.525 1010.64 580.271C1015.82 546.546 1017.46 535.881 1018.19 531.087C1019.28 524.248 1019.43 523.15 1024.88 487.493C1027.36 471.255 1029.48 457.55 1029.59 457.057L1029.81 456.134L1034.7 454.568C1051.12 449.259 1139.28 420.777 1139.55 420.695C1139.73 420.641 1140.18 421.055 1140.55 421.62L1141.23 422.598L1135.56 429.928ZM1047.88 345.387C1043.52 360.894 1039.51 375.029 1039.01 376.847L1038.11 380.131L1023 374.99C1014.67 372.151 1001.73 367.745 994.246 365.195C979.269 360.094 966.892 355.873 947.38 349.257C935.128 345.116 934.583 344.892 934.528 344.151C934.536 343.724 934.63 343.209 934.761 343.025C935.029 342.72 938.302 341.827 950.77 338.734C953.932 337.947 961.436 336.082 967.419 334.539C973.418 333.018 980.816 331.158 983.823 330.408C986.829 329.659 996.547 327.211 1005.38 324.956C1014.23 322.723 1029.14 318.959 1038.48 316.597C1047.87 314.241 1055.91 312.214 1056.4 312.084L1057.32 311.835L1056.57 314.532C1056.18 316.02 1052.26 329.904 1047.88 345.387ZM1031.57 403.351C1030.3 407.882 1029.19 411.624 1029.11 411.674C1029.01 411.74 987.662 383.523 977.668 376.566C976.441 375.689 973.02 373.343 970.087 371.355C967.155 369.368 963.624 366.964 962.232 366.002C957.071 362.438 948.907 356.835 941.9 352.057C937.91 349.34 934.678 347.064 934.674 347.002C934.709 346.946 940.649 348.897 947.922 351.394C955.181 353.869 965.729 357.449 971.348 359.352C984.305 363.742 1008.06 371.809 1019.89 375.806C1024.87 377.511 1030.91 379.559 1033.3 380.385L1037.59 381.865L1035.75 388.488C1034.72 392.141 1032.84 398.82 1031.57 403.351ZM1028.41 415.863L1027.93 417.664L1017.19 420.304C1011.26 421.775 1002.85 423.849 998.496 424.905C994.139 425.96 979.453 429.575 965.856 432.926L941.111 439.019L940.92 437.688C940.8 436.957 940.014 430.997 939.182 424.419C938.351 417.842 937.043 407.691 936.306 401.861C935.569 396.03 934.847 390.385 934.739 389.29C934.606 388.211 934.249 385.532 933.953 383.33C933.658 381.128 932.881 375.291 932.263 370.354C930.691 357.884 930.149 353.609 929.848 351.508L929.584 349.738L931.078 348.884C931.888 348.415 932.602 348.075 932.667 348.064C932.787 348.082 941.49 354.011 946.557 357.54C948.337 358.764 951.759 361.111 954.137 362.75C967.414 371.788 972.601 375.336 975.508 377.34C977.263 378.581 989.931 387.242 1003.61 396.565C1017.28 405.927 1028.59 413.671 1028.68 413.807C1028.81 413.948 1028.66 414.884 1028.41 415.863ZM1031.02 435.776C1029.97 442.559 1028.91 449.606 1028.63 451.437C1028.32 453.263 1027.99 454.842 1027.86 454.924C1027.61 455.09 1006.24 462.037 1003.62 462.823C1002.7 463.072 990.922 466.879 977.428 471.264C963.934 475.648 952.756 479.22 952.57 479.213C951.774 479.154 951.149 479.63 965.029 469.421C969.496 466.123 973.938 462.841 974.85 462.144C975.802 461.452 977.69 460.047 979.106 459.018C980.521 457.988 982.374 456.639 983.235 455.974C985.048 454.618 987.662 452.67 991.117 450.136C994.134 447.922 1009.1 436.9 1011.89 434.836C1015.69 432.008 1021.94 427.409 1024.28 425.705C1025.54 424.776 1027.28 423.47 1028.16 422.828L1029.71 421.615L1031.15 422.381C1031.93 422.804 1032.68 423.221 1032.74 423.312C1032.83 423.408 1032.05 429.01 1031.02 435.776ZM1028.58 420.285C1028.43 420.446 1026.4 422.013 1024.05 423.717C1021.73 425.444 1018.01 428.183 1015.81 429.827C1013.59 431.448 1010.93 433.429 1009.87 434.226C1008.79 435.001 1006.82 436.456 1005.49 437.435C1004.15 438.415 1002.36 439.754 1001.48 440.396C1000.6 441.038 998.59 442.526 996.974 443.688C995.372 444.872 993.796 446.04 993.473 446.317C993.151 446.594 991.348 447.911 989.47 449.278C987.576 450.622 985.662 452.044 985.214 452.404C984.766 452.764 982.751 454.253 980.707 455.696C978.703 457.145 976.874 458.479 976.703 458.656C976.516 458.812 974.955 460.002 973.187 461.263C971.445 462.508 969.305 464.079 968.443 464.743C966.57 466.172 964.253 467.859 958.119 472.352C955.591 474.211 952.987 476.12 952.378 476.619L951.229 477.505L950.041 476.797C949.378 476.392 948.148 476.004 947.297 475.916L945.78 475.75L944.542 466.2C942.974 453.792 942.128 447.192 941.651 443.619C941.427 442.018 941.406 440.671 941.561 440.634C956.508 436.976 991.613 428.369 995.759 427.323C998.921 426.536 1007.31 424.478 1014.38 422.732C1021.48 421.009 1027.52 419.494 1027.83 419.419C1028.43 419.246 1028.94 419.851 1028.58 420.285ZM769.831 32.7988C770.869 35.5806 772.866 40.9696 774.283 44.765C775.7 48.5605 778.092 54.9857 779.597 59.0794C781.127 63.1565 784.792 73.0504 787.763 81.0691C790.76 89.0712 795.01 100.62 797.258 106.719C799.506 112.817 802.482 120.897 803.899 124.693C805.316 128.488 808.809 137.848 811.648 145.5C814.486 153.153 818.112 162.878 819.692 167.085C822.648 175.081 824.031 178.769 825.934 183.961C826.559 185.622 828.985 192.154 831.326 198.45C833.668 204.746 836.447 212.308 837.55 215.242C838.627 218.193 842.651 229.016 846.464 239.298L853.435 257.994L852.13 256.943C851.402 256.386 847.093 252.746 842.53 248.885C837.966 245.024 831.923 239.902 829.079 237.5C826.234 235.098 818.727 228.739 812.39 223.39C806.078 218.024 799.98 212.874 798.855 211.931C797.769 210.995 793.544 207.429 789.489 204.01C785.474 200.598 780.572 196.442 778.589 194.8C774.125 191.036 759.309 178.51 749.545 170.203C745.46 166.739 741.066 163.026 739.746 161.952L737.384 160.01L737.663 158.789C737.963 157.491 742.077 138.426 744.324 127.975C745.11 124.348 750.281 100.311 755.84 74.5623C761.398 48.8134 765.943 27.7159 765.938 27.6542C765.96 27.4132 767.649 27.2396 767.798 27.4655C767.887 27.6011 768.818 30.0004 769.831 32.7988ZM761.4 40.4884C759.879 47.5469 754.947 70.3571 750.464 91.2195C745.956 112.099 741.987 130.453 741.615 132.026C741.244 133.598 739.82 140.203 738.413 146.669C737.045 153.14 735.787 158.406 735.652 158.365C735.491 158.341 732.004 155.456 727.874 151.924C723.734 148.432 717.776 143.384 714.623 140.733C711.494 138.064 707.678 134.844 706.154 133.516C704.62 132.227 700.241 128.536 696.424 125.317C692.623 122.12 689.38 119.332 689.246 119.129C689.113 118.926 689.242 118.355 689.525 117.909C690.539 116.27 690.342 112.902 689.109 111.414C688.806 111.063 689.822 109.811 697.316 101.248C745.259 46.5512 761.966 27.4848 762.374 27.1186C762.682 26.8188 763.023 26.7887 763.437 27.0341C763.806 27.2118 764.1 27.4392 764.12 27.5235C764.154 27.6304 762.912 33.4689 761.4 40.4884ZM761.13 25.8325C761.124 25.9335 752.216 36.0753 703.152 92.0286L687.395 110.016L686.576 109.649C684.602 108.844 681.296 109.466 679.547 110.974C679.113 111.357 678.554 111.823 678.277 112.005C677.839 112.326 670.648 109.515 647.833 100.184C645.07 99.0563 639.803 96.9214 636.115 95.431C632.428 93.9405 628.1 92.1911 626.467 91.5181C624.873 90.8512 622.669 89.9704 621.595 89.5444C620.535 89.1409 617.527 87.9154 614.954 86.8571C612.356 85.8152 606.055 83.2604 600.938 81.1888C595.821 79.1172 587.626 75.7689 582.7 73.7666C577.773 71.7642 567.145 67.4599 559.09 64.2141C535.944 54.8738 538.112 55.8103 538.078 54.9909C538.061 54.5812 538.189 54.173 538.34 54.0735C538.491 53.9741 540.407 53.6514 542.574 53.3256C551.185 52.1566 563.569 50.4144 566.849 49.9709C568.755 49.6874 573.209 49.0539 576.735 48.5456C580.276 48.0599 583.932 47.5304 584.835 47.4218C585.763 47.2966 590.818 46.5907 596.07 45.8531C601.346 45.0989 609.08 44.0219 613.248 43.4472C617.441 42.856 622.497 42.15 624.483 41.8785C626.494 41.5904 630.557 41.0202 633.561 40.5964C636.565 40.1725 649.485 38.3685 662.3 36.569C675.115 34.7696 686.781 33.1435 688.23 32.9339C689.68 32.7242 693.627 32.1977 696.983 31.7046C700.353 31.2339 708.007 30.1449 714.005 29.3364C720.014 28.4887 727.592 27.4494 730.857 26.9833C747.745 24.5745 755.178 23.5337 757.375 23.2531L759.767 22.9408L760.464 24.3279C760.825 25.0946 761.126 25.7708 761.13 25.8325ZM1023.36 485.453C1020.99 500.973 1018.35 518.225 1017.49 523.776C1016.66 529.31 1015.52 536.771 1014.97 540.333C1014.41 543.912 1012.5 556.408 1010.7 568.086C1008.94 579.771 1007.41 589.556 1007.35 589.852C1007.24 590.283 1007.04 590.416 1006.12 590.665C1005.2 590.913 1004.99 590.861 1004.75 590.336C1004.62 589.97 1003.94 588.729 1003.3 587.534C1002.65 586.377 1001.9 584.961 1001.62 584.431C1001.34 583.901 1000.77 582.756 1000.31 581.893C999.497 580.387 992.724 567.747 990.884 564.295C990.394 563.386 989.425 561.531 988.732 560.206C988.04 558.88 986.951 556.844 986.283 555.665C985.63 554.508 984.907 553.137 984.675 552.675C984.443 552.213 982.796 549.054 980.99 545.709C979.184 542.364 977.378 539.019 977.007 538.292C975.588 535.534 968.83 522.916 967.039 519.594C966 517.687 964.942 515.696 964.665 515.166C964.413 514.619 962.756 511.5 960.979 508.2C959.218 504.923 957.442 501.623 957.071 500.896C956.675 500.185 955.246 497.466 953.855 494.916C952.465 492.367 951.144 489.868 950.937 489.389C950.705 488.927 950.338 488.261 950.155 487.928C949.828 487.431 949.93 487.202 950.884 486.185C951.767 485.28 952.138 484.582 952.519 482.971L953.055 480.934L977.109 473.19C990.347 468.91 1002.4 465.021 1003.86 464.548C1015.86 460.592 1027.71 456.836 1027.71 456.999C1027.72 457.122 1025.76 469.915 1023.36 485.453ZM922.397 340.577C921.992 341.168 921.6 341.943 921.523 342.319C921.367 343.069 922.089 343.014 867.327 345.167C859.864 345.45 852.797 345.732 851.599 345.776C850.391 345.859 849.384 345.809 849.375 345.686C849.351 345.54 851 334.51 857.65 290.748C860.221 273.832 860.64 271.29 860.791 271.19C861.223 270.97 863.719 270.104 863.934 270.156C864.135 270.186 875.404 283.299 893.457 304.576C898.894 310.97 899.009 311.089 899.819 312.046C900.222 312.493 900.932 313.353 901.41 313.913C901.902 314.496 903.736 316.624 905.486 318.678C907.235 320.732 909.089 322.945 909.636 323.556C910.158 324.184 913.225 327.8 916.446 331.541C919.682 335.304 922.49 338.637 922.724 338.937C923.061 339.395 922.979 339.708 922.397 340.577ZM928.554 355.955C928.89 358.875 929.189 361.302 929.219 361.347C929.263 361.415 930.238 369.032 931.717 380.592C932.14 383.973 932.763 388.81 933.096 391.343C933.43 393.877 934.434 401.539 935.284 408.363C936.159 415.172 937.425 424.929 938.067 430.012C938.748 435.102 939.271 439.292 939.275 439.354C939.27 439.455 914.992 445.435 855.479 460.044C847.117 462.085 839.418 463.981 838.394 464.234L836.542 464.709L835.688 463.522L834.874 462.342L847.303 446.643C854.172 438.006 871.646 415.94 886.178 397.626C900.695 379.289 913.513 363.14 914.66 361.704C915.822 360.291 918.466 356.963 920.528 354.342L924.329 349.539L925.961 349.825C926.857 349.98 927.667 350.224 927.771 350.382C927.86 350.517 928.219 353.034 928.554 355.955ZM922.11 347.211L922.852 348.666L921.27 350.647C920.401 351.737 917.914 354.865 915.741 357.592C913.567 360.318 894.259 384.693 872.812 411.739C851.366 438.785 833.656 461.039 833.454 461.172C833.253 461.304 832.787 461.255 832.428 461.038C831.904 460.735 831.81 460.538 831.904 460.023C831.982 459.648 833.121 452.063 834.48 443.169C835.824 434.251 837.246 424.959 837.618 422.511C842.199 392.483 846.161 366.393 847.153 359.845C847.8 355.403 848.503 350.827 848.696 349.695L849.046 347.651L868.142 346.898C878.657 346.483 893.027 345.894 900.079 345.59C921.175 344.75 921.241 344.739 921.307 345.278C921.38 345.554 921.735 346.422 922.11 347.211ZM854.764 262.204C854.462 262.403 846.206 260.714 806.829 252.477C790.042 248.957 763.643 243.443 737.704 238.08L726.872 235.821L726.928 234.975C727.074 232.676 725.98 230.741 723.913 229.575L722.536 228.798L728.855 199.439C736.571 163.816 736.907 162.299 737.188 162.341C737.308 162.359 737.841 162.786 738.364 163.251C738.927 163.722 747.421 170.922 757.25 179.218C767.094 187.536 776.26 195.265 777.6 196.423C778.966 197.564 783.19 201.13 786.966 204.344C790.767 207.541 795.386 211.431 797.204 212.986C799.022 214.542 802.33 217.319 804.527 219.175C806.724 221.032 811.342 224.922 814.765 227.818C818.202 230.736 822.412 234.28 824.13 235.739C841.875 250.741 848.451 256.288 851.381 258.764C855.476 262.188 855.192 261.922 854.764 262.204ZM854.613 298.739C852.565 312.395 850.074 328.611 849.145 334.761L847.454 345.947L827.255 346.779C816.149 347.227 805.383 347.645 803.343 347.725C801.288 347.783 789.996 348.223 778.192 348.709C731.159 350.598 733.213 350.541 732.977 350.017C732.454 348.839 732.091 349.11 741.15 343.306C745.876 340.291 762.057 329.797 777.127 319.97C792.197 310.143 808.353 299.666 813.014 296.661C817.689 293.68 828.002 286.985 835.894 281.82C843.812 276.639 851.432 271.718 852.871 270.835L855.458 269.229L856.35 269.872C856.799 270.224 857.568 270.625 858.013 270.752C858.823 270.996 858.838 271.019 858.627 272.453C858.502 273.248 856.702 285.089 854.613 298.739ZM854.081 264.727C853.999 264.877 849.463 265.824 843.995 266.834C838.551 267.828 832.912 268.854 831.492 269.108C825.01 270.333 804.315 274.083 800.407 274.778C798.009 275.191 793.945 275.924 791.381 276.414C786.344 277.367 753.658 283.346 746.69 284.599C744.332 285.018 738.356 286.135 733.42 287.022C728.473 287.948 724.349 288.59 724.26 288.455C724.171 288.319 723.968 285.765 723.783 282.745C723.624 279.708 723.283 273.876 723.031 269.767C722.416 258.642 722.172 254.656 721.867 249.481C721.73 246.916 721.584 244.065 721.555 243.144L721.511 241.489L722.809 240.829C723.608 240.399 724.505 239.679 725.262 238.857L726.434 237.567L728.24 237.9C729.246 238.112 736.511 239.611 744.397 241.284C752.307 242.941 760.098 244.58 761.759 244.911C763.42 245.242 771.211 246.88 779.121 248.537C787.032 250.194 795.518 251.958 797.985 252.471C817.889 256.561 854.039 264.171 854.129 264.306C854.188 264.397 854.162 264.576 854.081 264.727ZM853.328 268.461C852.659 268.869 841.476 276.104 828.495 284.556C774.67 319.58 762.681 327.346 752.554 333.885C746.696 337.646 739.569 342.275 736.7 344.164C732.144 347.164 731.435 347.566 731.242 347.272C730.9 346.753 729.067 345.887 728.16 345.771L727.364 345.713L727.158 342.221C726.417 328.167 725.893 319.152 725.694 316.109C725.562 314.156 725.458 312.41 725.47 312.208C725.496 312.029 725.316 309.071 725.114 305.641C724.459 295.222 724.212 291.012 724.295 290.699C724.311 290.559 726.529 290.037 729.173 289.559C735.334 288.45 745.388 286.622 747.666 286.191C748.629 286.01 751.323 285.499 753.616 285.09C755.934 284.665 762.797 283.416 768.918 282.3C775.024 281.162 781.757 279.935 783.894 279.564C786.016 279.17 792.839 277.915 799.025 276.789C805.236 275.646 811.618 274.488 813.193 274.196C814.794 273.886 820.302 272.882 825.435 271.964C830.592 271.029 836.101 270.025 837.676 269.732C855.697 266.415 854.183 266.635 854.389 267.277C854.526 267.705 854.355 267.882 853.328 268.461ZM940.61 450.037C941.152 454.312 942.003 460.974 942.513 464.816C942.997 468.675 943.53 472.826 943.712 474.034L943.982 476.253L942.653 477.193C941.837 477.763 940.99 478.612 940.529 479.337L939.734 480.541L936.95 480.204C935.443 479.998 925.14 478.653 914.092 477.217C903.028 475.758 891.674 474.296 888.85 473.953C860.899 470.466 836.51 467.127 836.603 466.774C836.664 466.539 838.186 466.055 841.012 465.36C843.386 464.801 853.64 462.291 863.789 459.786C873.938 457.28 889.387 453.455 898.085 451.321C906.808 449.172 919.382 446.074 926.032 444.447C932.708 442.804 938.464 441.41 938.866 441.307C939.438 441.19 939.603 441.276 939.595 441.702C939.618 442.011 940.068 445.763 940.61 450.037ZM734.52 164.811C734.039 167.038 730.737 182.297 727.202 198.682C723.682 215.088 720.723 228.567 720.652 228.678C720.567 228.767 720.215 228.837 719.819 228.838C719.068 228.847 720.265 232.528 708.862 195.213C706.03 185.872 702.707 175.073 701.536 171.213C700.339 167.369 697.095 156.744 694.307 147.634C691.544 138.506 688.583 128.861 687.765 126.194L686.27 121.348L687 120.868C687.83 120.321 686.728 119.524 697.195 128.404C699.915 130.726 709.535 138.869 718.616 146.523C727.724 154.161 735.216 160.498 735.276 160.588C735.375 160.685 735.041 162.589 734.52 164.811ZM954.348 499.774C956.936 504.58 959.449 509.273 959.939 510.181C960.443 511.112 961.076 512.347 961.398 512.945C961.694 513.559 963.045 516.103 964.391 518.585C967.532 524.451 969.185 527.509 970.569 530.159C971.173 531.349 981.962 551.514 984.401 556.094C984.861 556.957 985.564 558.244 985.935 558.971C986.305 559.698 988.082 562.998 989.843 566.276C991.619 569.575 993.351 572.807 993.677 573.467C994.043 574.133 995.072 576.079 995.977 577.782C996.897 579.508 997.951 581.437 998.277 582.097C998.644 582.763 999.628 584.641 1000.5 586.299C1003.41 591.703 1003.43 591.726 1002.85 592.331C1002.57 592.614 1002.22 593.009 1002.07 593.232C1001.88 593.488 999.278 592.547 992.483 589.735C987.351 587.641 980.761 584.92 977.848 583.729C973.191 581.808 965.496 578.617 941.298 568.609C937.88 567.2 931.685 564.641 927.518 562.915C923.325 561.207 919.848 559.707 919.759 559.572C919.655 559.413 935.364 514.834 944.334 489.883L944.682 488.877L946.092 488.661C946.859 488.512 947.637 488.323 947.788 488.224C948.015 488.075 948.318 488.426 948.902 489.531C949.332 490.349 951.786 494.952 954.348 499.774ZM938.613 483.934C938.136 484.087 919.196 490.502 896.485 498.204C873.759 505.883 855.061 512.172 854.915 512.171C854.755 512.146 854.141 511.158 853.538 509.969C852.919 508.756 851.91 506.895 851.312 505.767C850.688 504.655 850.01 503.352 849.778 502.89C849.546 502.428 848.928 501.215 848.393 500.239C847.859 499.263 847.241 498.051 847.008 497.589C846.648 496.822 843.561 490.984 841.023 486.308C840.563 485.445 839.638 483.657 838.946 482.332C838.253 481.006 836.977 478.576 836.102 476.917C833.599 472.185 833.58 472.101 834.284 471.637C834.637 471.405 835.233 470.721 835.633 470.069L836.352 468.915L840.167 469.447C845.903 470.268 890.603 476.232 899.585 477.378C930.514 481.333 939.334 482.618 939.385 483.134C939.402 483.544 939.231 483.722 938.613 483.934ZM930.428 523.721C923.581 542.966 917.916 558.745 917.815 558.811C917.74 558.861 917.159 558.692 916.56 558.439C915.971 558.147 906.437 554.191 895.395 549.641L875.324 541.353L875.548 540.104C875.683 539.433 875.63 538.366 875.464 537.731C875.258 537.089 875.062 536.408 875.023 536.239C874.94 536.003 875.509 535.498 876.728 534.664C877.734 534.001 878.938 533.143 879.386 532.783C879.824 532.462 881.789 531.007 883.783 529.597C885.736 528.18 888.043 526.532 888.904 525.868C889.78 525.226 891.694 523.804 893.16 522.741C901.202 516.927 902.944 515.683 907.562 512.285C908.625 511.488 910.78 509.939 912.321 508.827C918.349 504.502 927.101 498.123 931.105 495.162C932.107 494.437 934.424 492.75 936.241 491.456C938.044 490.139 939.998 488.722 940.572 488.28C941.444 487.576 941.665 487.528 942.149 487.824C942.453 488.013 942.727 488.318 942.776 488.448C942.84 488.6 937.259 504.453 930.428 523.721ZM939.036 487.316C938.275 487.914 936.235 489.419 934.468 490.68C932.726 491.925 930.344 493.623 929.206 494.469C928.067 495.316 925.988 496.815 924.573 497.844C923.158 498.873 921.193 500.329 920.191 501.054C919.189 501.778 917.049 503.35 915.432 504.511C913.816 505.673 911.525 507.344 910.296 508.218C909.107 509.098 904.812 512.218 900.778 515.133C896.745 518.049 892.474 521.152 891.26 522.049C890.072 522.929 887.055 525.142 884.562 526.945C882.07 528.749 878.65 531.227 876.973 532.461L873.892 534.685L872.613 534.005C871.211 533.244 869.077 533.127 867.299 533.715C866.179 534.096 866.124 534.068 865.744 533.217C865.522 532.715 864.553 530.86 863.603 529.088C862.653 527.317 861.703 525.546 861.526 525.112C861.338 524.718 859.958 522.129 858.484 519.343C856.999 516.595 855.803 514.177 855.845 514.02C855.892 513.762 938.637 485.505 939.595 485.425C939.725 485.404 939.95 485.58 940.113 485.829C940.336 486.168 940.144 486.424 939.036 487.316ZM846.095 354.841C845.518 358.622 844.757 363.658 844.38 366.044C844.028 368.413 841.541 384.69 838.895 402.205C836.224 419.737 833.458 437.947 832.729 442.702C832 447.457 831.112 453.451 830.724 456.039L830.005 460.755L828.981 461.008C828.409 461.126 827.665 461.421 827.313 461.653C826.96 461.885 826.544 461.965 826.404 461.863C826.25 461.738 824.683 460.017 822.953 458.047C821.223 456.077 818.339 452.794 816.514 450.789C809.98 443.497 809.189 442.625 808.335 441.601C807.832 441.058 805.958 438.924 804.133 436.919C802.333 434.898 800.533 432.877 800.13 432.43C799.752 431.966 798.141 430.177 796.6 428.439C791.13 422.325 789.907 420.96 786.953 417.626C785.298 415.769 782.488 412.599 780.663 410.595C776.968 406.518 776.68 406.19 774.646 403.869C773.841 402.974 772.618 401.61 771.911 400.812C771.22 400.036 769.346 397.902 767.735 396.113C766.149 394.307 763.687 391.556 762.265 389.999C759.013 386.375 755.343 382.282 749.063 375.211C746.339 372.115 743.534 369.007 742.898 368.26C742.236 367.529 740.381 365.48 738.795 363.674C737.209 361.868 735.673 360.192 735.414 359.909C732.042 356.268 731.689 355.787 731.983 355.302C732.16 355.023 732.472 354.236 732.697 353.537L733.116 352.256L744.093 351.829C781.653 350.349 806.303 349.371 830.396 348.371C839.503 348.009 847.021 347.754 847.066 347.822C847.11 347.89 846.658 351.038 846.095 354.841ZM1000.5 597.575C1000.5 597.637 993.729 599.408 985.427 601.539C977.139 603.693 966.402 606.456 961.573 607.726C956.729 608.972 950.565 610.57 947.845 611.261C945.124 611.951 938.403 613.689 932.886 615.119C927.384 616.573 918.098 618.963 912.245 620.486L901.599 623.222L900.725 621.951C900.249 621.228 899.468 620.479 898.988 620.244L898.125 619.809L901.001 611.794C902.574 607.389 904.495 601.978 905.257 599.793C906.019 597.607 907.832 592.526 909.238 588.524C910.683 584.527 913.447 576.78 915.389 571.291C917.321 565.841 918.955 561.364 918.995 561.37C919.035 561.376 921.568 562.428 924.646 563.705C927.724 564.982 932.081 566.776 934.34 567.686C936.573 568.612 944.947 572.068 952.901 575.381C960.881 578.676 968.561 581.845 969.99 582.426C973.203 583.744 987.907 589.801 995.372 592.917L1000.94 595.24L1000.71 596.365C1000.57 596.975 1000.47 597.53 1000.5 597.575ZM686.251 127.676C686.761 129.381 689.667 138.835 692.696 148.694C695.725 158.554 699.145 169.775 700.316 173.635C701.487 177.495 705.825 191.643 709.936 205.064L717.425 229.476L716.068 230.758C715.302 231.457 714.535 232.156 714.339 232.35C714.077 232.555 707.769 230.976 695.536 227.632C685.393 224.887 675.395 222.143 673.295 221.583L669.509 220.546L670.018 217.101C670.57 213.337 673.26 194.627 678.032 160.78C679.743 148.804 681.485 136.547 681.937 133.562C682.348 130.57 682.915 126.829 683.101 125.249C683.471 122.576 683.736 121.883 684.377 121.98C684.497 121.998 684.753 122.606 684.949 123.287C685.159 123.99 685.742 125.971 686.251 127.676ZM676.868 116.495C676.88 117.006 675.815 117.416 665.529 120.918C659.285 123.054 648.407 126.753 641.38 129.177C634.339 131.58 625.856 134.478 622.506 135.583C619.171 136.71 615.786 137.871 614.962 138.154C614.128 138.476 605.851 141.304 596.555 144.446C587.248 147.628 577.323 151.022 574.491 151.98C571.673 152.961 569.222 153.733 569.102 153.715C568.942 153.691 568.4 152.429 567.864 150.903C567.328 149.377 565.44 144.208 563.684 139.405C560.487 130.661 559.838 128.853 554.733 114.855C553.253 110.745 551.532 106.049 550.922 104.41C549.284 99.9503 546.426 92.2132 544.183 86.0139C543.102 83.0017 540.524 76.0192 538.503 70.4841C536.481 64.949 534.76 60.2529 534.691 60.039C534.618 59.7634 535.048 59.1563 535.84 58.4407L537.1 57.2866L538.2 57.6961C538.799 57.9491 547.768 61.5969 558.152 65.8033C568.51 70.0263 579.818 74.5956 583.261 75.9882C586.703 77.3808 596.557 81.3855 605.172 84.8783C613.786 88.3711 623.87 92.451 627.557 93.9415C631.245 95.4319 635.777 97.2732 637.601 98.0154C639.44 98.7802 642.323 99.9259 643.997 100.605C647.549 102.055 658.068 106.302 669.255 110.853L677.161 114.036L677.034 114.994C676.94 115.509 676.885 116.193 676.868 116.495ZM680.835 128.328C680.415 131.196 678.43 145.167 676.398 159.395C674.366 173.623 672.549 186.48 672.343 187.975C672.015 190.491 671.119 196.911 668.762 213.329C668.277 216.758 667.781 219.675 667.67 219.781C667.549 219.925 663.002 218.774 657.531 217.26C652.074 215.768 646.428 214.207 644.972 213.806C643.532 213.426 637.105 211.667 630.719 209.913C624.307 208.176 617.595 206.313 615.765 205.834C593.503 199.863 590.613 198.981 590.752 198.371C590.939 197.503 590.646 195.689 590.214 195.033C589.872 194.514 589.983 194.408 593.092 191.843C594.831 190.374 600.475 185.685 605.61 181.429C610.745 177.173 622.619 167.313 631.982 159.56C641.355 151.768 650.32 144.342 651.923 142.995C653.541 141.671 655.269 140.241 655.778 139.809C657.99 137.963 668.311 129.418 672.811 125.677C675.523 123.438 677.947 121.421 678.204 121.154C678.598 120.765 678.943 120.797 680.187 121.37C681.365 121.955 681.674 122.205 681.626 122.625C681.594 122.905 681.231 125.476 680.835 128.328ZM677.055 119.902C676.662 120.291 674.585 122.015 672.459 123.771C668.891 126.736 651.51 141.162 638.281 152.141C635.197 154.69 627.552 161.052 621.248 166.273C614.969 171.477 605.57 179.285 600.359 183.591C595.163 187.92 590.452 191.833 589.867 192.315C588.809 193.173 588.784 193.19 587.976 192.621C587.238 192.103 584.831 191.68 583.292 191.754C582.806 191.783 582.554 191.236 581.069 187.064C579.206 181.878 577.165 176.259 574.455 168.911C571.96 162.165 569.704 155.78 569.756 155.584C569.812 155.45 598.124 145.679 610.821 141.399C613.669 140.463 617.104 139.27 618.48 138.784C620.977 137.918 629.831 134.872 643.518 130.231C647.495 128.875 656.506 125.791 663.547 123.389C670.574 120.964 676.586 118.916 676.882 118.818C677.721 118.557 677.822 119.203 677.055 119.902ZM719.722 243.703C719.736 244.601 719.869 247.104 720.015 249.243C721.38 272.247 722.273 288.889 722.097 289.005C721.996 289.071 720.19 289.451 718.093 289.828C715.97 290.222 713.261 290.71 712.012 290.95C709.578 291.419 697.533 293.619 681.734 296.476C676.251 297.464 670.3 298.565 668.529 298.889L665.313 299.485L664.312 298.622C663.774 298.134 663.156 297.634 662.947 297.48C662.618 297.309 663.441 296.313 667.741 291.829C670.608 288.84 676.715 282.389 681.328 277.505C713.218 243.744 716.11 240.738 716.629 240.979C716.929 241.106 717.644 241.315 718.275 241.45C718.905 241.586 719.485 241.754 719.56 241.867C719.619 241.958 719.694 242.783 719.722 243.703ZM714.186 238.475C714.775 239.642 714.744 239.76 714.022 240.526C707.697 247.25 687.22 268.864 678.993 277.521C673.128 283.682 666.678 290.489 664.649 292.667C662.605 294.823 660.813 296.651 660.662 296.75C660.511 296.85 659.975 296.911 659.539 296.907L658.667 296.898L659.746 289.386C660.325 285.28 661.457 277.41 662.236 271.909C663.04 266.391 664.936 252.997 666.479 242.135C668.022 231.273 669.421 222.385 669.596 222.431C669.756 222.456 679.739 225.177 691.742 228.446L713.583 234.435L713.593 235.821C713.598 236.595 713.87 237.776 714.186 238.475ZM516.148 -50.3053C515.517 -49.5656 515.255 -49.3607 514.854 -49.4208C513.583 -49.6526 487.037 -56.9798 486.918 -57.1605C486.828 -57.296 480.043 -86.9965 473.706 -114.92C473.418 -116.123 473.3 -117.179 473.401 -117.245C473.527 -117.328 483.351 -102.519 495.287 -84.3394L516.947 -51.2845L516.148 -50.3053ZM476.416 -94.4216C479.11 -82.4956 482.066 -69.3496 483.009 -65.1775L484.716 -57.6541L469.752 -61.6939C461.525 -63.8869 452.272 -66.3764 449.241 -67.1982C432.711 -71.6972 392.325 -82.6713 388.864 -83.5984C386.669 -84.193 381.037 -85.7312 376.336 -87.0076C371.635 -88.284 365.223 -90.0209 362.057 -90.8834C345.717 -95.3131 337.81 -97.4579 337.455 -97.613C337.251 -97.7048 337.097 -97.9925 337.154 -98.2892C337.223 -98.7878 338.016 -98.9537 353.863 -101.682C359.637 -102.666 362.502 -103.193 372.47 -104.931C374.698 -105.329 379.128 -106.109 382.333 -106.665C385.539 -107.222 389.904 -107.991 392.041 -108.362C394.163 -108.755 401.031 -109.942 407.247 -111.023C413.502 -112.099 419.823 -113.184 421.334 -113.466C422.844 -113.748 426.687 -114.433 429.892 -114.989C447.25 -117.999 451.459 -118.731 459.536 -120.163L464.277 -121.018L464.836 -119.896C465.695 -118.098 467.182 -117.101 469.314 -116.821C470.34 -116.687 471.241 -116.471 471.355 -116.352C471.47 -116.233 473.747 -106.364 476.416 -94.4216ZM913.418 571.585C911.589 576.643 909.428 582.731 908.6 585.09C907.772 587.449 906.004 592.435 904.671 596.163C903.348 599.852 900.998 606.42 899.47 610.729C897.982 615.045 896.619 618.728 896.542 618.94C896.284 619.37 894.363 619.631 894.125 619.269C894.05 619.156 892.594 614.48 890.939 608.898C889.259 603.333 887.5 597.43 886.97 595.803C885.475 590.958 882.403 580.868 880.356 573.925C879.273 570.363 876.892 562.473 875.045 556.435L871.678 545.406L872.751 544.569C873.326 544.126 873.986 543.595 874.222 543.406C874.545 543.129 878.063 544.472 890.045 549.407C898.529 552.921 907.038 556.418 908.932 557.212C910.851 557.989 913.494 559.098 914.828 559.645L917.211 560.634L916.985 561.495C916.836 561.982 915.232 566.504 913.418 571.585ZM522.642 -24.0074C523.544 -15.2412 524.448 -6.08791 524.707 -3.66742C524.94 -1.23033 525.226 1.72337 525.363 2.86355C525.655 5.55368 526.186 10.7426 527.758 26.225C528.478 33.0708 529.247 40.7586 529.515 43.3026C529.798 45.8692 529.894 47.8785 529.77 47.7987C529.56 47.6451 526.685 41.6357 520.404 28.153C518.932 25.0414 517.55 22.0653 517.343 21.5864C517.11 21.124 515.698 18.1027 514.182 14.9233C512.69 11.7273 510.843 7.82652 510.107 6.2707C509.397 4.69832 508.611 3.01299 508.379 2.5506C508.147 2.08824 506.734 -0.933035 505.243 -4.12901C503.752 -7.32497 502.34 -10.3462 502.107 -10.8086C501.9 -11.2876 500.898 -13.4127 499.91 -15.5152C498.922 -17.6177 497.5 -20.5998 496.789 -22.1722C496.068 -23.7054 495.481 -25.0353 495.491 -25.0745C495.526 -25.1302 496.072 -25.7811 496.744 -26.5147C498.132 -28.077 498.879 -30.2853 498.509 -31.8879C498.226 -33.0296 498.004 -32.8186 502.149 -35.127C503.809 -36.0582 506.078 -37.3254 507.154 -37.9372C508.231 -38.5489 509.614 -39.2978 510.197 -39.6173C510.781 -39.9367 512.214 -40.7187 513.381 -41.3576C515.509 -42.5645 515.965 -42.6384 516.516 -41.8026C516.888 -41.2378 519.556 -40.1448 520.188 -40.3347C520.449 -40.3769 520.73 -40.3348 520.834 -40.1767C520.923 -40.0411 521.755 -32.751 522.642 -24.0074ZM463.611 -123.948C463.059 -123.908 460.764 -123.887 458.48 -123.904C456.21 -123.899 444.831 -123.92 433.216 -123.914C421.601 -123.909 407.726 -123.938 402.34 -123.954C396.993 -123.963 388.029 -123.987 382.473 -123.987C376.916 -123.988 370.026 -123.985 367.135 -123.992C364.244 -123.999 354.503 -123.997 345.488 -123.988C336.459 -124.001 328.763 -124.017 328.402 -124.072C327.777 -124.145 327.698 -124.32 327.28 -126.927C326.784 -129.872 322.521 -158.481 321.53 -165.245L320.956 -169.24L322.008 -169.835C322.591 -170.154 323.448 -170.88 323.908 -171.442L324.756 -172.455L334.199 -169.183C339.428 -167.38 345.917 -165.143 348.626 -164.207C351.321 -163.293 357.499 -161.143 362.388 -159.472C367.252 -157.785 373.01 -155.779 375.205 -155.022C377.384 -154.288 387.137 -150.929 396.85 -147.577C406.603 -144.218 423.289 -138.495 433.937 -134.818C444.585 -131.142 455.787 -127.281 458.806 -126.257C461.816 -125.194 464.365 -124.282 464.439 -124.169C464.499 -124.079 464.137 -123.97 463.611 -123.948ZM514.655 -45.8886C514.683 -44.9683 514.728 -44.1881 514.758 -44.1429C514.748 -44.1038 511.961 -42.5277 508.576 -40.6547C505.166 -38.7652 501.313 -36.6166 499.97 -35.8617L497.565 -34.4724L496.928 -35.0567C495.877 -36.0491 494.378 -36.6815 492.8 -36.776L491.288 -36.8812L489.375 -45.7587C488.301 -50.6221 487.457 -54.6979 487.478 -54.7762C487.519 -54.9329 490.75 -54.0809 503.533 -50.6131C513.191 -48.0016 514.471 -47.6464 514.516 -47.5786C514.546 -47.5335 514.616 -46.7698 514.655 -45.8886ZM451.968 -120.588C447.628 -119.835 442.847 -118.986 441.322 -118.727C439.812 -118.445 435.603 -117.714 431.956 -117.061C411.573 -113.549 403.898 -112.219 391.326 -109.996C383.69 -108.66 373.28 -106.825 368.198 -105.94C354.934 -103.617 346.646 -102.176 341.604 -101.285L337.215 -100.499L336.537 -101.802C335.672 -103.499 334.116 -104.547 332.063 -104.815L330.516 -105.027L329.236 -113.382C328.551 -117.983 328.001 -121.832 328.028 -122.011C328.044 -122.151 332.945 -122.269 338.898 -122.271C361.365 -122.233 369.207 -122.215 381.839 -122.21C388.994 -122.193 397.362 -122.198 400.424 -122.206C403.485 -122.214 411.603 -122.216 418.467 -122.202C433.529 -122.178 444.182 -122.165 453.196 -122.174C456.919 -122.164 459.945 -122.117 459.91 -122.061C459.915 -121.999 456.322 -121.318 451.968 -120.588ZM722.779 296.944C722.937 300.144 723.265 305.628 723.461 309.158C723.658 312.689 723.925 317.533 724.064 319.935C724.203 322.338 724.358 325.313 724.42 326.503C724.471 327.732 724.71 331.655 724.936 335.231C725.578 345.302 725.585 345.751 724.852 346.007C724.53 346.121 723.806 346.501 723.303 346.833L722.397 347.429L719.649 345.449C716.269 342.946 686.287 321.526 682.682 319.01C681.246 317.98 676.663 314.747 672.509 311.782C665.444 306.751 664.966 306.353 665.215 305.8C665.77 304.561 666.095 303.083 666.062 302.101L666.014 301.096L670.038 300.357C673.79 299.7 691.239 296.5 712.075 292.69C713.495 292.435 716.36 291.909 718.442 291.509C720.514 291.149 722.264 290.903 722.324 290.993C722.383 291.084 722.595 293.762 722.779 296.944ZM487.456 -45.823L489.636 -36.3762L487.964 -35.0806C487.041 -34.3438 486.251 -33.7909 486.211 -33.7969C486.091 -33.8149 385.787 -76.163 373.316 -81.4565C368.3 -83.5944 360.206 -87.009 355.33 -89.0444C350.479 -91.0965 346.022 -92.9875 345.462 -93.2344L344.438 -93.6936L345.364 -93.4934C345.874 -93.3761 349.981 -92.2909 354.467 -91.0672C358.953 -89.8435 366.335 -87.8386 370.846 -86.6315C379.439 -84.3226 408.657 -76.3904 433.189 -69.712C441.136 -67.5612 451.644 -64.6998 456.52 -63.3768C461.397 -62.0538 467.513 -60.3815 470.074 -59.6711C472.634 -58.9607 477.055 -57.7264 479.896 -56.9738C482.737 -56.2213 485.113 -55.5183 485.172 -55.4279C485.232 -55.3376 486.264 -51.0299 487.456 -45.823ZM664.95 240.033C663.55 249.797 661.866 261.594 661.233 266.221C657.634 291.878 656.748 297.546 656.29 297.945C655.831 298.345 655.731 298.248 652.486 293.649C650.67 291.055 648.149 287.501 646.883 285.744C645.618 283.986 643.151 280.461 641.35 277.89C639.564 275.341 636.983 271.697 635.668 269.81C634.328 267.939 631.788 264.301 629.987 261.73C628.2 259.182 625.511 255.317 624.007 253.198C620.807 248.666 616.852 243.044 612.718 237.151C611.096 234.852 608.585 231.258 607.111 229.184C604.53 225.54 602.169 222.172 595.227 212.234C593.396 209.618 591.113 206.425 590.16 205.142L588.402 202.801L588.958 202.111C589.246 201.727 589.66 201.26 589.872 201.089C590.27 200.762 594.117 201.726 609.09 205.89C613.566 207.153 619.117 208.679 654.722 218.365C661.699 220.247 667.42 221.921 667.454 222.028C667.463 222.152 666.335 230.247 664.95 240.033ZM835.555 479.868C837.034 482.716 838.736 485.903 839.29 486.963C839.869 488.007 840.546 489.31 840.823 489.84C841.446 491.114 843.845 495.688 844.903 497.679C845.389 498.526 846.417 500.472 847.204 501.994C847.99 503.517 849.014 505.401 849.43 506.196C851.487 510.088 852.802 512.688 852.746 512.822C852.705 512.978 802.742 529.979 795.535 532.295L792.246 533.328L791.487 532.175L790.739 530.984L792.198 528.598C793.024 527.277 801.206 514.278 810.421 499.724L827.133 473.27L828.063 473.531C828.573 473.649 829.63 473.665 830.438 473.522C832.184 473.214 831.821 472.773 835.555 479.868ZM824.576 463.909C823.754 464.742 823.123 466.906 823.258 468.372C823.366 469.467 823.607 470.053 824.456 471.178L825.499 472.597L816.228 487.284C798.938 514.67 789.39 529.703 789.189 529.835C788.821 530.045 785.277 529.594 785.083 529.3C784.905 529.029 781.034 517.068 750.003 420.745C738.999 386.503 729.864 358.22 729.746 357.877C729.628 357.533 729.695 357.197 729.916 357.149C730.303 357.024 732.725 359.607 740.392 368.29C742.739 370.923 746.468 375.106 748.671 377.575C750.874 380.043 758.014 388.037 764.508 395.323C771.017 402.631 776.557 408.797 776.815 409.08C777.074 409.363 778.024 410.422 778.904 411.429C779.773 412.476 781.688 414.616 783.155 416.241C785.756 419.095 792.752 426.924 803.02 438.462C808.763 444.882 808.464 444.593 811.125 447.537C812.259 448.766 814.81 451.653 816.868 453.957C818.902 456.278 821.333 458.984 822.238 459.975C824.825 462.806 825.127 463.32 824.576 463.909ZM856.725 520.015C856.745 520.099 857.289 521.199 857.987 522.423C858.66 523.664 859.441 525.125 859.693 525.672C859.97 526.202 861.172 528.52 862.398 530.821C863.625 533.122 864.599 535.039 864.589 535.079C864.553 535.134 864.189 535.731 863.723 536.394C863.272 537.079 862.816 537.866 862.669 538.189C862.419 538.742 863 538.748 818.934 536.87C809.426 536.459 793.206 535.772 792.64 535.789C792.6 535.783 792.536 535.631 792.537 535.468C792.554 535.165 797.21 533.524 832.478 521.603L853.657 514.424L855.192 517.138C856.028 518.628 856.731 519.914 856.725 520.015ZM872.865 555.701C874.369 560.669 875.947 565.914 876.368 567.321C877.402 570.753 884.864 595.344 886.731 601.467C887.549 604.134 889.172 609.447 890.353 613.268L892.44 620.217L891.383 620.913C890.779 621.311 889.992 622.088 889.622 622.623L888.984 623.626L887.883 623.38C887.278 623.228 875.355 620.683 861.34 617.702C847.326 614.721 835.788 612.213 835.649 612.111C835.435 611.896 835.343 612.086 849.659 582.157C854.941 571.164 860.945 558.53 863.07 554.086C866.898 546.092 866.944 545.997 867.73 546.095C868.181 546.122 868.867 546.123 869.259 546.06C869.65 545.996 870.015 546.112 870.069 546.304C870.082 546.489 871.361 550.732 872.865 555.701ZM496.769 -17.8192C498.053 -15.1021 499.713 -11.5959 500.423 -10.0235C501.159 -8.4677 502.567 -5.5082 503.51 -3.47344C504.468 -1.41607 505.891 1.566 506.646 3.20617C507.401 4.84632 509.584 9.53035 511.51 13.6059C516.903 25.0824 521.135 34.0845 524.054 40.3243C525.515 43.4751 527.017 46.6319 527.387 47.3593L528.07 48.7239L526.965 49.8402C526.364 50.4624 525.64 51.5546 525.339 52.3032L524.844 53.6334L518.227 54.1046C514.577 54.3705 505.964 54.9897 499.046 55.4972C492.128 56.0046 486.283 56.3884 486.042 56.3523C485.682 56.2981 485.738 54.0267 486.326 47.1942C487.455 33.7868 491.627 -16.1492 491.976 -20.3306C492.12 -22.3038 492.341 -23.9397 492.457 -23.9834C492.573 -24.0271 492.894 -24.1416 493.216 -24.2562C493.653 -24.4144 493.807 -24.2894 494.083 -23.5966C494.275 -23.1403 495.485 -20.5362 496.769 -17.8192ZM485.285 -30.2721C485.148 -29.2749 484.902 -28.4976 484.62 -28.3771C484.379 -28.2505 482.827 -27.6492 481.173 -26.9816C479.505 -26.3366 471.767 -23.184 463.939 -20.0043C456.11 -16.8245 445.794 -12.6547 441.001 -10.7288C436.208 -8.80282 424.751 -4.17335 415.501 -0.413444C406.26 3.30733 392.679 8.81836 385.297 11.8007C377.941 14.7664 370.766 17.6779 369.384 18.2641C367.987 18.8278 366.781 19.2979 366.676 19.3025C366.596 19.2904 364.983 14.1017 363.128 7.77736C361.262 1.49214 357.75 -10.2514 355.37 -18.3034C352.965 -26.3387 350.781 -33.7099 350.522 -34.7055C350.238 -35.6845 348.054 -43.0557 345.649 -51.091C339.222 -72.5749 333.238 -92.7304 333.284 -92.8253C333.294 -92.8645 333.939 -93.4189 334.725 -94.0336L336.146 -95.1636L350.185 -89.1865C357.899 -85.9104 364.998 -82.9099 365.963 -82.541C366.942 -82.1496 383.115 -75.3431 401.881 -67.3937C420.672 -59.461 447.107 -48.3034 460.637 -42.6064C474.167 -36.9094 485.288 -32.185 485.373 -32.1112C485.432 -32.0209 485.401 -31.1909 485.285 -30.2721ZM489.839 -16.3974C488.957 -6.06735 487.243 14.3969 485.422 36.4533C484.575 46.7276 483.839 55.4716 483.776 55.8692C483.68 56.7097 484.608 56.5845 468.716 57.6571C466.551 57.8202 452.358 58.8427 437.208 59.9453C422.058 61.0479 405.79 62.2064 401.038 62.5507C396.311 62.8785 390.967 63.2561 389.207 63.3785C387.187 63.5431 385.994 63.486 385.936 63.233C385.907 63.0252 385.706 62.4453 385.524 61.9498C385.302 61.4482 385.215 60.9873 385.316 60.9211C385.391 60.8713 387.75 58.8645 390.542 56.4751C397.906 50.2332 403.878 45.1665 410.364 39.7292C412.834 37.6169 416.301 34.7182 418 33.2432C419.714 31.7909 422.743 29.2131 424.719 27.5558C426.679 25.876 434.194 19.5347 441.396 13.4314C458.063 -0.653789 460.372 -2.62744 463.764 -5.47644C466.783 -8.01506 473.118 -13.353 478.481 -17.921C486.202 -24.4958 487.175 -25.2657 487.369 -25.1347C487.469 -25.0383 488.203 -24.7447 488.963 -24.4677C489.697 -24.1741 490.362 -23.9317 490.392 -23.8866C490.447 -23.858 490.183 -20.4779 489.839 -16.3974ZM856.83 563.184C852.361 572.507 845.3 587.262 841.116 595.977L833.566 611.798L832.63 611.637C831.92 611.49 802.615 605.234 790.852 602.713C784.493 601.33 749.064 593.829 746.437 593.292C744.681 592.926 734.383 590.768 723.571 588.431C712.749 586.133 703.548 584.16 703.132 584.077C702.502 583.942 702.388 583.823 702.466 583.285C702.521 582.601 702.742 582.553 727.633 576.299C744.764 572.013 776.663 563.962 783.163 562.272C787.309 561.226 826.657 551.281 832.087 549.94C834.472 549.341 842.272 547.379 849.475 545.55L862.506 542.216L863.364 543.464C863.825 544.165 864.431 544.866 864.721 545.032C865.025 545.22 865.154 545.524 865.081 545.799C865.02 546.034 861.298 553.861 856.83 563.184ZM851.314 543.302C845.627 544.748 838.319 546.581 835.066 547.395C831.854 548.215 821.464 550.847 812.032 553.236C792.416 558.187 779.215 561.536 769.638 563.924C761.552 565.946 735.044 572.649 730.978 573.707C715.914 577.571 703.457 580.625 703.639 580.408C703.76 580.263 705.571 579.233 707.668 578.143C709.765 577.054 711.977 575.921 712.561 575.601C713.159 575.304 715.94 573.829 718.721 572.354C721.527 570.862 724.233 569.437 724.741 569.167C725.289 568.903 727.512 567.731 729.709 566.575C731.917 565.38 734.814 563.862 736.121 563.162C737.469 562.469 739.033 561.666 739.616 561.347C740.2 561.027 741.789 560.208 743.111 559.531C744.444 558.815 750.579 555.585 756.765 552.321C762.951 549.057 768.538 546.09 769.212 545.744C769.886 545.397 770.901 544.858 771.5 544.561C772.631 543.978 774.014 543.229 776.453 541.946C780.351 539.866 780.08 539.947 780.866 540.757C783.547 543.623 789.251 542.587 791.507 538.835L792.318 537.491L802.607 537.938C808.247 538.175 823.886 538.855 837.311 539.407C850.751 539.981 861.706 540.508 861.685 540.586C861.69 540.648 857.016 541.879 851.314 543.302ZM485.904 -26.3725C485.527 -26.1239 457.57 -2.49886 451.935 2.31322C451.577 2.64616 448.906 4.89101 446.038 7.33019C443.155 9.7468 439.692 12.7073 438.276 13.899C436.885 15.0741 432.551 18.7382 428.65 22.0196C424.749 25.301 420.899 28.5492 420.067 29.2588C417.264 31.6874 413.253 35.0743 399.216 46.9087C391.49 53.4217 384.908 58.9871 384.585 59.2643C384.091 59.7193 383.866 59.7058 382.997 59.2089C382.059 58.6608 380.132 58.3102 378.849 58.443C378.352 58.5109 378.037 57.6494 375.828 50.2948C374.476 45.7763 371.993 37.4036 370.264 31.7088C368.559 25.9974 367.164 21.2484 367.209 21.1536C367.24 21.0361 368.708 20.361 370.502 19.6331C372.271 18.9218 376.587 17.1481 380.124 15.7255C387.3 12.814 410.097 3.59877 420.312 -0.504755C432.396 -5.38588 453.912 -14.0812 465.876 -18.9804C469.398 -20.4256 473.885 -22.2144 475.86 -22.9965C477.834 -23.7787 480.653 -24.9225 482.14 -25.5132C483.628 -26.1039 485.075 -26.7007 485.371 -26.7987C485.913 -26.9615 486.332 -26.6543 485.904 -26.3725ZM534.758 65.5655C538.073 74.6535 547.403 100.217 549.065 104.823C549.418 105.853 551.671 112.013 554.056 118.54C557.923 129.013 560.175 135.173 563.328 143.85C566.569 152.663 567.163 154.441 566.947 154.551C566.691 154.655 547.203 161.335 512.653 173.14C503.989 176.093 493.176 179.781 488.646 181.339L480.369 184.166L479.259 183.084C478.606 182.477 477.924 181.825 477.685 181.626C477.307 181.325 478.535 178.313 485.459 162.418C489.969 152.063 497.723 134.196 502.693 122.729C507.662 111.263 512.529 100.025 513.522 97.7522C514.515 95.4791 518.547 86.1516 522.529 77.0199L529.728 60.3925L530.931 60.4103C531.592 60.4282 532.284 60.3287 532.46 60.2127C532.661 60.0801 532.831 60.2277 532.983 60.678C533.101 61.0214 533.872 63.234 534.758 65.5655ZM736.324 384.248C745.047 411.248 782.385 527.449 782.929 529.261C783.243 530.285 783.222 530.364 782.241 531.01L781.184 531.706L771.691 524.031C741.055 499.316 717.002 479.886 714.685 478.011C713.25 476.818 700.583 466.569 686.53 455.257C627.137 407.311 623.246 404.141 623.488 403.852C623.973 403.273 624.607 400.783 624.477 399.929C624.339 398.952 624.424 398.863 626.369 398.036C627.098 397.718 631.672 395.677 636.472 393.488C641.287 391.321 649.641 387.569 654.994 385.177C660.372 382.769 669.057 378.863 674.345 376.482C679.617 374.079 685.583 371.413 687.564 370.53C689.569 369.63 693.339 367.958 695.917 366.778C698.536 365.604 703.11 363.564 706.085 362.219C709.061 360.875 713.519 358.879 715.957 357.759L720.4 355.74L721.216 356.595C721.674 357.071 722.632 357.703 723.341 358.014C724.61 358.571 726.929 358.695 727.583 358.264C727.785 358.132 727.964 358.24 728.053 358.538C728.111 358.791 731.835 370.363 736.324 384.248ZM720.73 349.337C720.498 349.587 720.16 350.554 719.964 351.461C719.757 352.407 719.476 353.24 719.35 353.322C719.224 353.405 717.11 354.085 714.669 354.818C712.229 355.55 704.963 357.776 698.511 359.758C692.099 361.746 684.652 364.027 681.991 364.807C679.345 365.611 666.039 369.677 652.426 373.881C638.813 378.084 627.53 381.498 627.385 381.497C627.199 381.489 630.93 372.361 635.687 361.229C640.403 350.091 647.283 333.965 650.945 325.335C656.349 312.61 657.692 309.718 658.153 309.706C659.762 309.683 661.343 309.29 662.48 308.606C663.35 308.065 663.893 307.902 664.142 308.061C664.337 308.192 668.784 311.385 674.04 315.146C679.295 318.908 685.652 323.466 688.201 325.254C690.749 327.041 697.969 332.197 704.256 336.704C710.544 341.211 716.827 345.656 718.218 346.618C721.141 348.645 721.24 348.742 720.73 349.337ZM522.172 73.4652C518.97 80.8209 515.33 89.2099 514.077 92.075C512.8 94.9568 509.837 101.799 507.449 107.323C505.086 112.83 501.074 122.079 498.548 127.888C496.023 133.696 492.118 142.778 489.817 148.051C487.541 153.306 483.381 162.879 480.611 169.303C477.841 175.726 475.485 180.97 475.38 180.974C475.205 180.927 475.405 178.108 476.687 162.851C477.026 158.708 478.427 142.207 479.745 126.182C481.078 110.179 482.394 94.3166 482.688 90.9817C482.966 87.6242 483.332 83.3027 483.505 81.3746C483.831 77.0471 484.436 69.9119 484.983 63.2361L485.428 58.2141L488.04 58.0163C489.484 57.9076 498.282 57.2958 507.617 56.6221L524.541 55.4199L525.486 57.1293C526.006 58.0826 526.721 59.0043 527.055 59.2377C527.415 59.4545 527.778 59.7331 527.853 59.8461C527.942 59.9816 525.375 66.1095 522.172 73.4652ZM888.471 626.847C888.52 627.689 888.823 628.752 889.121 629.204L889.656 630.017L885.035 634.615C882.477 637.142 876.06 643.505 870.788 648.759C852.771 666.712 849.648 669.805 841.46 677.918C836.96 682.371 832.005 687.286 830.446 688.863C828.912 690.424 824.846 694.495 821.415 697.887C817.999 701.303 812.369 706.889 808.893 710.377C805.426 713.825 801.037 718.173 799.196 720.034C797.339 721.872 790.271 728.891 783.5 735.649C775.352 743.768 771.075 747.848 770.86 747.795C770.67 747.726 770.784 747.132 771.064 746.462C771.781 744.921 789.02 708.856 799.035 688.011C803.331 679.028 809.202 666.741 812.095 660.722C831.093 620.973 834.408 614.062 834.599 613.968C834.75 613.869 888.252 625.145 888.356 625.303C888.356 625.303 888.421 626.005 888.471 626.847ZM706.767 360.022C704.098 361.229 699.117 363.472 695.669 365.031C687.2 368.827 684.606 369.984 677.288 373.281C673.84 374.839 667.21 377.812 662.536 379.919C657.861 382.026 650.096 385.52 645.281 387.687C640.48 389.877 635.575 392.071 634.439 392.592C633.288 393.091 630.463 394.336 628.151 395.372C625.864 396.393 623.934 397.242 623.869 397.253C623.789 397.241 623.45 396.946 623.107 396.589C622.789 396.215 622.241 395.767 621.907 395.533C621.573 395.3 621.339 395 621.38 394.843C621.498 394.474 625.582 384.951 625.948 384.192C626.167 383.757 628.793 382.869 638.976 379.758C646.011 377.619 661.693 372.831 673.824 369.117C685.955 365.403 699.443 361.282 703.766 359.958C708.089 358.633 711.644 357.62 711.623 357.698C711.603 357.776 709.396 358.809 706.767 360.022ZM575.353 176.74L581.132 192.529L580.129 193.416C579.609 193.888 578.846 194.811 578.481 195.408C577.904 196.339 577.682 196.55 577.191 196.517C576.57 196.505 531.153 192.082 527.773 191.717C526.802 191.612 516.311 190.585 504.439 189.432C478.09 186.898 480.728 187.233 480.799 186.409C480.884 185.77 481.552 185.525 497.307 180.137C506.358 177.059 525.745 170.446 540.406 165.423C555.066 160.4 567.206 156.259 567.387 156.205C567.813 156.086 567.991 156.52 575.353 176.74ZM653.682 300.505L653.003 301.502L637.19 299.187C628.49 297.921 606.806 294.744 588.98 292.167C571.155 289.591 556.574 287.339 556.59 287.198C556.572 286.951 561.308 272.173 573.187 235.201C575.46 228.133 578.558 218.482 580.048 213.841C581.549 209.161 582.839 205.202 582.93 205.012C583.036 204.845 583.679 204.616 584.382 204.477C585.074 204.378 585.837 204.167 586.089 204.001C586.315 203.852 586.612 203.754 586.736 203.834C587.061 203.943 590.069 208.181 606.94 232.212C608.652 234.647 611.133 238.195 612.473 240.066C613.813 241.936 616.502 245.801 618.452 248.598C620.417 251.417 622.953 254.994 624.059 256.565C625.206 258.141 627.747 261.78 629.741 264.644C631.736 267.509 634.187 271.012 635.2 272.386C636.187 273.776 639.036 277.827 641.502 281.353C643.983 284.901 647.277 289.63 648.895 291.868C650.488 294.122 652.359 296.744 653.079 297.728L654.32 299.502L653.682 300.505ZM652.68 304.08C652.599 304.23 652.744 304.944 652.984 305.693C653.411 306.999 653.401 307.038 652.535 307.64C652.007 307.989 651.181 308.597 650.657 309.007C649.649 309.833 646.132 312.602 633.881 322.16C629.629 325.511 625.674 328.601 625.089 329.083C624.192 329.803 621.598 331.835 614.248 337.55C613.447 338.142 611.739 339.494 610.43 340.518C609.12 341.543 607.361 342.927 606.5 343.592C605.639 344.256 604.006 345.558 602.822 346.499C601.663 347.425 599.83 348.859 598.767 349.656C597.719 350.475 596.545 351.378 596.147 351.705C595.789 352.038 594.167 353.3 592.595 354.53C591.023 355.759 589.2 357.154 588.54 357.686C587.905 358.201 584.898 360.538 581.865 362.892C578.858 365.228 576.001 367.466 575.567 367.848C575.119 368.209 574.011 369.1 573.074 369.815C571.049 371.342 563.951 376.891 562.469 378.094C561.87 378.553 560.761 379.445 559.975 380.06C559.175 380.652 556.656 382.635 554.359 384.406C552.062 386.178 549.295 388.388 548.187 389.28C547.078 390.172 545.446 391.474 544.509 392.188C542.323 393.854 538.232 397.067 533.779 400.55C531.834 402.09 528.877 404.393 527.23 405.672C525.582 406.952 523.86 408.28 523.426 408.663C522.978 409.023 521.743 409.998 520.681 410.795L518.771 412.279L517.753 411.719C516.57 411.073 516.496 411.672 518.482 405.539C519.807 401.524 546.556 318.259 548.302 312.802C551.861 301.551 555.839 289.345 555.939 289.279C556.267 289.063 652.43 303.208 652.624 303.501C652.743 303.682 652.761 303.929 652.68 304.08ZM648.037 327.768C643.775 337.733 639.833 347.033 639.222 348.407C638.601 349.82 635.229 357.74 631.715 366.046C628.175 374.369 625.15 381.446 624.952 381.803C624.663 382.35 622.589 383.036 608.56 387.319C599.717 390.001 576.308 397.19 556.499 403.272C536.715 409.337 520.346 414.287 520.186 414.262C519.465 414.154 520.067 413.369 521.966 411.924C523.089 411.055 524.424 410.014 524.948 409.604C525.457 409.172 527.18 407.843 528.752 406.614C530.323 405.384 533.915 402.565 536.736 400.384C539.542 398.179 542.399 395.942 543.034 395.427C543.694 394.895 546.052 393.051 548.273 391.329C550.505 389.568 552.863 387.723 553.512 387.231C554.172 386.699 558.888 383.011 563.991 379.035C569.119 375.042 573.82 371.331 574.47 370.839C575.13 370.307 580.954 365.727 587.442 360.676C593.916 355.604 599.78 351.029 600.415 350.514C601.075 349.982 604.641 347.18 608.399 344.284C612.142 341.366 616.223 338.193 617.442 337.196C618.677 336.221 621.569 333.928 623.866 332.156C626.148 330.361 628.405 328.584 628.853 328.224C629.302 327.863 631.085 326.462 632.783 325.15C635.78 322.852 642.203 317.813 644.697 315.847C646.828 314.152 653.866 308.675 654.218 308.443C654.596 308.194 655.933 308.965 655.805 309.374C655.789 309.514 652.285 317.781 648.037 327.768ZM577.57 199.668C577.666 200.252 577.892 200.978 578.085 201.272C578.457 201.836 578.866 201.47 569.089 209.528C567.608 210.73 565.93 212.127 565.345 212.609C564.761 213.091 562.574 214.92 560.447 216.677C558.32 218.433 556.219 220.173 555.785 220.556C555.337 220.916 553.185 222.689 550.998 224.518C548.821 226.308 543.61 230.614 539.433 234.078C535.24 237.519 528.8 242.861 525.07 245.965C521.351 249.029 515.768 253.646 512.699 256.218C509.615 258.767 503.981 263.416 500.201 266.553C496.407 269.667 493.025 272.477 492.692 272.793C492.183 273.226 491.973 273.235 491.414 272.825C491.025 272.563 489.955 272.199 489.005 272.015L487.303 271.678L486.494 266.284C486.073 263.29 485.293 257.942 484.777 254.363C483.831 247.666 482.4 237.823 479.968 221.255C479.187 216.069 477.977 207.765 477.264 202.793L475.948 193.782L477.621 192.486C478.759 191.639 479.531 190.839 479.937 190.086C480.46 189.126 480.671 188.955 481.147 188.965C481.478 188.974 491.488 189.929 503.35 191.121C515.237 192.296 526.885 193.436 529.263 193.651C545.573 195.185 577.249 198.357 577.323 198.47C577.382 198.561 577.489 199.106 577.57 199.668ZM579.203 210.64C578.118 213.978 576.736 218.29 576.141 220.236C575.506 222.176 571.446 234.858 567.094 248.412C562.741 261.966 558.164 276.219 556.934 280.105L554.697 287.117L547.348 286.095C543.293 285.526 529.643 283.536 516.978 281.674C496.215 278.635 493.957 278.276 494.006 277.693C494.034 277.351 493.919 276.519 493.723 275.839C493.528 275.158 493.366 274.584 493.362 274.522C493.393 274.405 498.276 270.314 507.317 262.839C510.028 260.6 513.908 257.397 515.959 255.69C518.01 253.983 524.949 248.247 531.38 242.944C537.81 237.64 547.309 229.765 552.505 225.437C557.716 221.131 562.377 217.252 562.901 216.842C563.41 216.409 565.512 214.669 567.563 212.962C575.182 206.616 579.415 203.181 579.51 203.216C580.025 203.395 580.932 204.061 581.041 204.281C581.12 204.455 580.289 207.302 579.203 210.64ZM482.175 75.1902C481.628 81.866 480.761 92.056 480.291 97.807C479.82 103.558 478.481 119.824 477.286 133.955C476.132 148.091 474.752 164.351 474.282 170.102C473.812 175.853 473.418 180.679 473.376 180.836C473.335 180.993 472.797 181.38 472.183 181.654L471.062 182.198L469.914 180.784C468.692 179.257 467.336 177.526 464.808 174.236C463.915 173.043 462.981 171.844 462.722 171.561C462.464 171.278 461.262 169.672 460.016 167.999C458.795 166.309 457.628 164.811 457.458 164.663C457.289 164.516 456.311 163.249 455.273 161.892C454.26 160.519 452.537 158.285 451.473 156.945C449.129 153.987 447.495 151.889 445.637 149.453C444.451 147.87 442.246 145.014 435.556 136.335C434.87 135.459 433.862 134.147 433.296 133.451C432.754 132.739 431.632 131.308 430.813 130.228C430.008 129.171 428.896 127.701 428.329 127.005C427.366 125.761 426.551 124.743 423.66 121.011C422.93 120.067 419.017 115.001 414.969 109.731C410.896 104.478 407.172 99.644 406.65 99.0159C406.153 98.3714 405.06 96.9858 404.241 95.906C403.437 94.8488 401.713 92.6154 400.442 90.9587C396.543 85.9151 395.843 85.016 394.308 83.0145C393.479 81.9738 392.53 80.7524 392.197 80.3563C391.864 79.9603 390.697 78.4618 389.639 77.0205C388.582 75.5792 387.355 73.9904 386.933 73.4588C383.832 69.7359 383.505 69.2389 384.033 68.8909C384.31 68.7086 384.892 67.8393 385.314 66.946L386.067 65.3493L392.383 64.9142C399.868 64.3901 399.226 64.4565 429 62.2741C441.879 61.3392 455.69 60.3408 459.67 60.084C463.661 59.7879 470.489 59.3076 474.82 58.9814C479.192 58.6612 482.922 58.4074 483.172 58.4044C483.503 58.4134 483.549 59.0309 483.397 60.7179C483.293 61.9847 482.747 68.4978 482.175 75.1902ZM320.275 -161.179C320.874 -157.202 321.659 -151.954 321.998 -149.521C322.377 -147.083 323.239 -141.172 323.963 -136.402C324.686 -131.632 325.371 -127.031 325.446 -126.205C325.56 -125.374 325.66 -124.565 325.714 -124.374C325.768 -124.182 324.855 -124.035 323.442 -124.043C322.149 -124.034 313.37 -124.05 303.96 -124.04C294.535 -124.051 285.045 -124.052 282.84 -124.058C280.66 -124.08 271.145 -124.065 261.72 -124.076C240.179 -124.077 235.003 -124.101 234.943 -124.192C234.914 -124.237 234.787 -124.704 234.67 -125.21L234.481 -126.154L237.364 -127.858C238.958 -128.779 240.971 -129.942 241.846 -130.421C242.721 -130.901 246.685 -133.155 250.649 -135.409C254.613 -137.663 258.627 -139.95 259.578 -140.479C261.172 -141.4 277.406 -150.665 281.989 -153.294C283.141 -153.956 284.524 -154.705 285.032 -154.974C285.54 -155.244 287.275 -156.225 288.83 -157.152C290.41 -158.095 292.22 -159.125 292.879 -159.495C295.671 -161.009 312.196 -170.434 312.976 -170.948C313.429 -171.246 313.654 -171.232 313.922 -170.826C314.513 -169.984 316.306 -169.124 317.723 -169.054C318.454 -168.984 319.1 -168.826 319.124 -168.68C319.188 -168.528 319.676 -165.157 320.275 -161.179ZM828.391 622.623C826.129 627.352 820.7 638.668 816.358 647.745C812.002 656.8 805.845 669.696 802.632 676.379C799.445 683.045 794.178 694.059 790.945 700.82C787.711 707.581 781.428 720.722 776.984 730.029L768.896 746.95L767.754 746.86C767.118 746.826 766.306 746.907 765.909 747.071C765.075 747.394 765.194 747.575 763.77 744.043C763.099 742.476 761.01 737.44 759.082 732.815C755.099 723.26 751.071 713.637 745.723 700.803C738.975 684.584 733.834 672.229 728.569 659.632C725.725 652.793 721.52 642.736 719.252 637.266C716.975 631.835 714.032 624.736 712.671 621.519C711.35 618.308 708.989 612.641 707.446 608.928C705.903 605.215 703.453 599.412 702.023 595.981C700.609 592.573 699.377 589.497 699.314 589.183C699.232 588.784 699.455 588.41 700.004 587.984C700.427 587.64 701.053 587.001 701.322 586.533C701.818 585.752 701.909 585.725 702.749 585.852C703.245 585.947 713.397 588.103 725.36 590.654C737.298 593.221 748.415 595.584 750.077 595.915C751.738 596.246 761.274 598.289 771.291 600.405C781.298 602.56 790.819 604.581 792.481 604.912C809.343 608.382 832.528 613.454 832.531 613.678C832.53 613.841 830.664 617.855 828.391 622.623ZM327.555 -112.372L328.705 -104.709L327.326 -103.735C326.56 -103.199 325.622 -102.322 325.253 -101.787C324.843 -101.259 324.505 -100.841 324.465 -100.847C324.41 -100.876 319.262 -102.118 313.039 -103.623C306.816 -105.128 300.633 -106.627 299.343 -106.943C298.052 -107.259 292.92 -108.478 287.987 -109.667C283.03 -110.839 271.284 -113.663 261.864 -115.913C252.47 -118.179 242.635 -120.512 240.053 -121.144C237.462 -121.737 235.747 -122.259 236.258 -122.305C237.311 -122.35 311.334 -122.321 321.821 -122.231L326.085 -122.221L326.258 -121.137C326.329 -120.536 326.938 -116.597 327.555 -112.372ZM337.5 -71.9585C340.585 -61.5208 344.204 -49.3947 345.482 -44.9892C346.784 -40.6002 348.313 -35.4853 348.886 -33.6282C352.129 -22.8411 364.763 19.8496 364.747 19.9897C364.691 20.1238 332.533 33.2044 312.922 41.0664C309.153 42.5764 301.657 45.6024 296.25 47.8026C290.843 50.0028 282.015 53.5819 276.608 55.7821L266.805 59.7439L266.053 59.0407C265.64 58.6326 264.902 58.1146 264.423 57.8797C263.614 57.4732 263.569 57.4054 263.784 56.7456C263.902 56.3765 266.02 51.4838 268.469 45.8876C270.942 40.2748 273.416 34.6621 273.941 33.3771C274.506 32.0982 275.866 28.9032 277.031 26.2896C278.182 23.6534 283.258 12.0196 288.323 0.425033C293.388 -11.1696 298.464 -22.8034 299.614 -25.4395C300.78 -28.0531 302.379 -31.7618 303.214 -33.6719C304.048 -35.582 306.37 -40.9326 308.376 -45.5572C310.397 -50.1592 315.676 -62.251 320.11 -72.3934C324.544 -82.5359 328.316 -91.1087 328.489 -91.4491C328.768 -91.9568 329.024 -92.0608 330.112 -92.1619C331.165 -92.2073 331.435 -92.126 331.621 -91.5688C331.754 -91.2028 334.389 -82.3797 337.5 -71.9585ZM323.954 -97.9522C323.964 -97.2789 323.98 -96.7066 323.96 -96.6282C323.954 -96.5273 322.14 -95.7211 296.85 -84.7024C288.387 -81.0074 275.832 -75.5252 268.967 -72.5264C262.102 -69.5276 253.97 -65.9863 250.889 -64.6376C247.808 -63.2889 244.139 -61.6825 242.772 -61.0737C241.38 -60.4484 240.059 -59.9345 239.823 -59.9088C239.547 -59.8892 239.167 -61.4526 238.493 -65.3808C237.988 -68.4489 235.746 -81.3857 233.529 -94.1763L229.505 -117.437L230.724 -118.271C231.428 -118.735 232.376 -119.489 232.895 -119.96L233.823 -120.798L263.107 -113.751C279.22 -109.885 293.762 -106.377 295.428 -105.984C297.094 -105.591 304.187 -103.915 311.161 -102.256C318.135 -100.598 323.872 -99.2265 323.887 -99.2039C323.927 -99.1979 323.943 -98.6255 323.954 -97.9522ZM322.304 -81.7733C319.769 -75.9255 313.507 -61.5998 308.396 -49.9103C303.27 -38.2434 298.454 -27.2016 297.68 -25.3638C296.891 -23.5486 290.812 -9.60257 284.153 5.59983C277.51 20.8248 269.726 38.6468 266.875 45.2207L261.677 57.1617L260.694 57.2583L259.722 57.3158L257.336 43.5024C256.02 35.9157 253.515 21.3718 251.746 11.2336C250.001 1.07878 248.136 -9.64386 247.625 -12.6111C247.114 -15.5783 245.148 -26.9471 243.239 -37.9002C241.33 -48.8532 239.779 -57.8392 239.789 -57.8784C239.799 -57.9176 242.75 -59.2451 246.368 -60.8184C249.987 -62.3916 257.49 -65.6813 263.039 -68.1044C268.587 -70.5275 275.081 -73.3787 277.473 -74.4034C279.85 -75.4507 284.529 -77.4956 287.841 -78.9317C291.138 -80.3904 294.425 -81.8099 295.129 -82.1113C295.832 -82.4127 299.119 -83.8323 302.416 -85.291C305.728 -86.7271 312.055 -89.5013 316.493 -91.4197L324.534 -94.9338L325.31 -94.0845C325.738 -93.6538 326.301 -93.1824 326.521 -93.068C326.766 -92.9701 326.94 -92.7608 326.949 -92.6373C326.943 -92.5364 324.865 -87.6376 322.304 -81.7733ZM621.727 389.563C620.627 392.166 619.68 394.344 619.579 394.41C619.504 394.46 618.822 394.52 618.06 394.568C615.218 394.691 612.215 397.09 611.455 399.825L611.115 401.118L600.587 402.772C594.833 403.678 580.377 405.944 568.503 407.803C556.63 409.663 542.329 411.89 536.721 412.798C531.123 413.667 526.529 414.361 526.564 414.305C526.57 414.204 585.907 395.986 607.337 389.517C614.281 387.405 620.784 385.39 621.814 385.036C622.803 384.676 623.646 384.477 623.681 384.584C623.69 384.707 622.813 386.937 621.727 389.563ZM550.391 300.414C548.359 306.643 546.408 312.721 546.039 313.968C545.306 316.362 543.99 320.5 528.599 368.302C523.176 385.217 518.041 401.198 517.196 403.859C514.896 411.106 515.018 410.799 514.227 410.802C513.475 410.811 513.46 410.789 512.307 404.326C512.017 402.735 509.705 390.622 507.181 377.419C501.574 348.14 495.926 318.468 492.793 301.876C491.522 295.069 490.23 288.341 489.939 286.913L489.421 284.372L490.775 283.416C491.616 282.83 492.438 281.997 492.899 281.272L493.629 280.079L523.733 284.48C540.292 286.887 553.893 288.91 553.937 288.978C553.997 289.068 552.398 294.202 550.391 300.414ZM367.77 29.95C369.078 34.4007 371.575 42.796 373.274 48.6083L376.408 59.1756L375.239 60.1398C373.984 61.1929 373.362 62.0561 372.988 63.2416C372.722 64.0972 377.211 64.1204 309.102 63.209C267.497 62.6569 266.384 62.6119 267.716 61.3464C267.913 61.1521 277.571 57.1887 289.142 52.5156C300.729 47.865 311.608 43.454 313.311 42.7533C315.04 42.036 321.908 39.2616 328.622 36.5249C355.046 25.86 365.015 21.8213 365.141 21.7384C365.342 21.6058 365.229 21.3241 367.77 29.95ZM469.233 183.694C469.112 183.839 461.655 180.296 452.717 175.818C443.738 171.334 435.529 167.251 434.445 166.701C431.828 165.413 426.47 162.755 421.012 160.001C418.571 158.759 415.295 157.127 413.747 156.365C412.199 155.603 409.128 154.063 406.88 152.952C404.658 151.824 398.312 148.652 392.774 145.886C382.547 140.766 380.794 139.913 368.455 133.723C364.605 131.821 357.914 128.455 353.529 126.29C346.388 122.733 344.961 121.827 345.716 121.33C345.842 121.247 347.129 119.201 348.589 116.815C353.059 109.466 354.493 107.097 360.64 97.0895C363.903 91.7989 367.172 86.4074 367.937 85.1585C370.553 80.7477 373.269 76.2706 374.886 73.6841L376.517 71.1201L377.608 71.2434C378.82 71.3847 380.244 71.1917 381.45 70.7215C381.872 70.5406 382.308 70.5451 382.412 70.7032C382.591 70.9743 391.307 82.2378 393.393 84.9125C394.049 85.7438 396.284 88.6444 398.36 91.3583C400.476 94.0782 402.581 96.8372 403.103 97.4652C403.6 98.1098 404.663 99.4501 405.437 100.462C407.136 102.712 411.412 108.22 412.887 110.131C413.473 110.911 414.536 112.251 415.221 113.128C415.907 114.004 417.104 115.548 417.879 116.56C418.653 117.572 420.143 119.506 421.206 120.846C422.269 122.187 423.918 124.307 424.857 125.568C425.795 126.828 426.918 128.259 427.34 128.79C427.762 129.322 428.885 130.753 429.823 132.013C430.762 133.274 431.884 134.705 432.306 135.236C432.729 135.768 433.792 137.108 434.641 138.233C435.49 139.358 436.627 140.812 437.124 141.456C438.187 142.796 438.54 143.277 446.982 154.235C450.444 158.724 454.298 163.7 455.525 165.289C456.752 166.878 458.445 169.066 459.25 170.123C460.069 171.203 461.058 172.43 461.435 172.894C461.813 173.358 462.98 174.857 464.018 176.214C465.031 177.587 466.521 179.521 467.321 180.516C469.228 182.92 469.501 183.388 469.233 183.694ZM231.641 -94.1955C236.007 -68.9908 236.605 -65.5627 237.284 -61.5727C237.709 -59.2291 237.711 -58.842 237.184 -58.6566C236.837 -58.5255 234.56 -57.5445 232.108 -56.4474C225.986 -53.744 221.945 -51.9899 210.808 -47.1497C198.993 -42.0246 187.68 -37.0683 183.629 -35.2751C181.955 -34.5291 180.357 -33.8329 180.111 -33.7681C179.624 -33.5767 177.431 -35.3717 177.595 -35.8357C177.651 -35.9698 179.999 -40.0748 182.858 -44.9375C185.718 -49.8002 195.027 -65.7442 203.551 -80.3611C212.074 -94.9779 220.456 -109.372 222.19 -112.327L225.328 -117.698L226.42 -117.575C227.006 -117.507 227.531 -117.367 227.59 -117.277C227.635 -117.209 229.462 -106.817 231.641 -94.1955ZM222.681 -119.582C223.113 -119.089 223.556 -118.636 223.661 -118.64C223.836 -118.594 222.73 -116.602 216.474 -105.94C214.156 -101.952 210.07 -94.9534 207.398 -90.4085C204.741 -85.8411 197.084 -72.702 190.361 -61.214C183.653 -49.7034 177.634 -39.392 177.015 -38.3043C176.386 -37.1775 175.784 -36.23 175.708 -36.1803C175.592 -36.1365 175.146 -36.1018 174.696 -36.1288L173.874 -36.1708L173.1 -41.6203C172.705 -44.6312 170.643 -59.5969 168.558 -74.8714C166.473 -90.1459 163.979 -108.454 163.02 -115.498C162.046 -122.566 161.31 -128.396 161.41 -128.462C161.486 -128.512 168.177 -127.995 176.239 -127.313C184.327 -126.647 197.743 -125.507 206.071 -124.805L221.225 -123.546L221.55 -122.011C221.768 -121.021 222.159 -120.21 222.681 -119.582ZM240.797 -41.2797C242.296 -32.6477 243.872 -23.5156 244.3 -20.9475C245.499 -13.8669 252.873 28.7255 253.819 33.9971C257.93 57.0058 258.064 57.9216 257.359 58.3857C256.73 58.8 256.62 58.7428 255.655 57.6615C255.104 56.9883 253.612 55.3799 252.378 54.0547C247.618 48.963 244.793 45.9329 236.387 36.8941C231.597 31.7572 224.986 24.6776 221.688 21.1491C214.908 13.922 204.682 2.94041 200.076 -2.02629C198.395 -3.8666 195.057 -7.40112 192.69 -9.95525C190.312 -12.4702 187.83 -15.1433 187.168 -15.8737C186.507 -16.6041 184.343 -18.9037 182.363 -21.0332C180.359 -23.1461 178.648 -25.0316 178.529 -25.2123C178.41 -25.393 178.603 -25.8118 178.946 -26.1673C179.784 -26.9779 180.725 -29.7676 180.532 -30.9364C180.471 -31.4139 180.564 -31.9291 180.74 -32.0451C181.193 -32.3434 185.757 -34.3446 231.09 -54.1577C236.995 -56.7512 237.97 -57.134 238.044 -57.021C238.074 -56.9758 239.313 -49.8892 240.797 -41.2797ZM163.245 -100.198C169.768 -52.543 171.965 -36.1117 171.872 -35.7592C171.825 -35.5017 171.596 -35.7396 171.251 -36.4836C170.979 -37.1147 169.778 -39.4326 168.581 -41.6887C167.398 -43.9223 166.107 -46.3757 165.737 -47.1031C164.303 -49.8834 163.778 -50.8985 162.893 -52.5175C162.051 -54.0688 161.359 -55.3942 160.123 -57.819C159.846 -58.3491 159.243 -59.539 158.738 -60.4697C158.248 -61.3779 157.63 -62.5903 157.354 -63.1204C157.077 -63.6506 156.473 -64.8404 155.969 -65.7712C155.479 -66.6794 154.801 -67.9821 154.435 -68.6478C154.109 -69.3075 151.616 -74.0788 148.896 -79.2507C146.191 -84.4001 143.668 -89.2166 143.297 -89.944C142.665 -91.179 140.562 -95.1385 138.979 -98.1447C137.095 -101.664 135.062 -105.573 133.366 -108.861C132.322 -110.829 131.031 -113.282 130.522 -114.275C129.344 -116.447 126.96 -120.998 126.293 -122.34C126.016 -122.87 125.369 -124.128 124.834 -125.104C123.498 -127.625 123.376 -128.03 123.879 -128.362C124.131 -128.527 124.733 -129.312 125.229 -130.093L126.166 -131.519L142.782 -130.122L159.358 -128.73L160.283 -121.955C160.784 -118.236 162.105 -108.451 163.245 -100.198Z" fill="url(#paint0_linear_41_202)"/>
</g>
<defs>
<linearGradient id="paint0_linear_41_202" x1="378.812" y1="347.788" x2="973.059" y2="-43.5455" gradientUnits="userSpaceOnUse">
<stop stop-color="#460085"/>
</linearGradient>
<clipPath id="clip0_41_202">
<rect width="1126.61" height="1255.1" fill="white" transform="translate(1049.1 -939) rotate(56.6336)"/>
</clipPath>
</defs>
</svg>
