<svg width="19" height="19" viewBox="0 0 19 19" fill="none" xmlns="http://www.w3.org/2000/svg">
<path d="M3.27083 9.02083V3.24688H9.04479V9.02083H3.27083ZM3.27083 15.7531V9.97917H9.04479V15.7531H3.27083ZM9.97917 9.02083V3.24688H15.7531V9.02083H9.97917ZM9.97917 15.7531V9.97917H15.7531V15.7531H9.97917ZM4.70833 7.58333H7.60729V4.68437H4.70833V7.58333ZM11.4167 7.58333H14.3156V4.68437H11.4167V7.58333ZM4.70833 14.3156H7.60729V11.4167H4.70833V14.3156ZM11.4167 14.3156H14.3156V11.4167H11.4167V14.3156ZM2.3125 18.125C1.92917 18.125 1.59375 17.9812 1.30625 17.6938C1.01875 17.4062 0.875 17.0708 0.875 16.6875V2.3125C0.875 1.92917 1.01875 1.59375 1.30625 1.30625C1.59375 1.01875 1.92917 0.875 2.3125 0.875H16.6875C17.0708 0.875 17.4062 1.01875 17.6938 1.30625C17.9812 1.59375 18.125 1.92917 18.125 2.3125V16.6875C18.125 17.0708 17.9812 17.4062 17.6938 17.6938C17.4062 17.9812 17.0708 18.125 16.6875 18.125H2.3125ZM2.3125 16.6875H16.6875V2.3125H2.3125V16.6875Z" fill="white"/>
</svg>
