<svg width="183" height="42" viewBox="0 0 183 42" fill="none" xmlns="http://www.w3.org/2000/svg">
<path d="M6.12 31C5.3 31 4.55 30.8 3.87 30.4C3.21 30 2.68 29.47 2.28 28.81C1.88 28.13 1.68 27.38 1.68 26.56V13.84C1.68 13.02 1.88 12.28 2.28 11.62C2.68 10.94 3.21 10.4 3.87 10C4.55 9.6 5.3 9.4 6.12 9.4H23.22V14.08H7.32C7 14.08 6.75 14.16 6.57 14.32C6.41 14.48 6.33 14.73 6.33 15.07V25.33C6.33 25.65 6.41 25.9 6.57 26.08C6.75 26.24 7 26.32 7.32 26.32H23.22V31H6.12ZM34.388 31V22.93L24.398 9.4H29.948L36.728 17.92L43.478 9.4H49.088L39.068 22.96V31H34.388ZM50.6079 31V9.4H66.9279C67.7279 9.4 68.4579 9.6 69.1179 10C69.7979 10.4 70.3379 10.94 70.7379 11.62C71.1579 12.28 71.3679 13.02 71.3679 13.84V17.89C71.3679 18.15 71.3479 18.4 71.3079 18.64C71.2879 18.86 71.2379 19.07 71.1579 19.27C71.4579 19.65 71.7079 20.09 71.9079 20.59C72.1079 21.09 72.2079 21.59 72.2079 22.09V26.56C72.2079 27.36 71.9979 28.1 71.5779 28.78C71.1779 29.46 70.6379 30 69.9579 30.4C69.2979 30.8 68.5579 31 67.7379 31H50.6079ZM55.2579 26.32H67.4979V22.36H55.2579V26.32ZM55.2579 17.68H66.6579V14.08H55.2579V17.68ZM75.5388 31V9.4H95.4888V14.08H80.2488V17.86H92.5188V22.54H80.2488V26.32H95.4888V31H75.5388ZM115.218 31L108.948 23.53H115.038L120.018 29.41V31H115.218ZM98.4476 31V9.43H115.578C116.398 9.43 117.138 9.63 117.798 10.03C118.478 10.43 119.018 10.97 119.418 11.65C119.838 12.33 120.048 13.07 120.048 13.87V19.45C120.048 20.25 119.838 20.99 119.418 21.67C119.018 22.35 118.478 22.89 117.798 23.29C117.138 23.69 116.398 23.89 115.578 23.89L103.098 23.92V31H98.4476ZM103.098 19.21H115.338V14.08H103.098V19.21ZM123.293 31V9.4H139.613C140.413 9.4 141.143 9.6 141.803 10C142.483 10.4 143.023 10.94 143.423 11.62C143.843 12.28 144.053 13.02 144.053 13.84V17.89C144.053 18.15 144.033 18.4 143.993 18.64C143.973 18.86 143.923 19.07 143.843 19.27C144.143 19.65 144.393 20.09 144.593 20.59C144.793 21.09 144.893 21.59 144.893 22.09V26.56C144.893 27.36 144.683 28.1 144.263 28.78C143.863 29.46 143.323 30 142.643 30.4C141.983 30.8 141.243 31 140.423 31H123.293ZM127.943 26.32H140.183V22.36H127.943V26.32ZM127.943 17.68H139.343V14.08H127.943V17.68ZM147.414 31V9.4H152.004V31H147.414ZM154.43 31V26.23L168.89 14.08H154.43V9.4H176.03V14.17L161.57 26.32H176.03V31H154.43Z" fill="white"/>
</svg>
