<svg width="23" height="19" viewBox="0 0 23 19" fill="none" xmlns="http://www.w3.org/2000/svg">
<path d="M10.5418 18.101L8.16995 15.9208C6.78037 14.6431 5.62638 13.549 4.70798 12.6385C3.78957 11.7281 3.05086 10.9056 2.49183 10.1708C1.9328 9.43611 1.53749 8.74531 1.30589 8.09844C1.07429 7.45156 0.958496 6.76076 0.958496 6.02604C0.958496 4.58854 1.44166 3.37066 2.40798 2.3724C3.37429 1.37413 4.56822 0.875 5.98975 0.875C6.90016 0.875 7.7427 1.08663 8.51735 1.5099C9.292 1.93316 9.96683 2.55208 10.5418 3.36667C11.2127 2.50417 11.9234 1.87326 12.6741 1.47396C13.4248 1.07465 14.2314 0.875 15.0939 0.875C16.3809 0.875 17.4613 1.31424 18.3352 2.19271C19.2091 3.07118 19.7418 4.13333 19.9335 5.37917H18.52C18.3762 4.50069 18.0049 3.76997 17.4059 3.18698C16.8069 2.60399 16.0363 2.3125 15.0939 2.3125C14.2793 2.3125 13.5206 2.56007 12.8179 3.05521C12.1151 3.55035 11.5481 4.25312 11.1168 5.16354H9.94287C9.52759 4.2691 8.96857 3.57031 8.26579 3.06719C7.56301 2.56406 6.80433 2.3125 5.98975 2.3125C4.93558 2.3125 4.07308 2.66788 3.40225 3.37865C2.73141 4.08941 2.396 4.97187 2.396 6.02604C2.396 6.64896 2.51978 7.2559 2.76735 7.84687C3.01492 8.43785 3.44528 9.10921 4.05842 9.86098C4.67156 10.6128 5.50611 11.4912 6.56206 12.4964C7.61802 13.5016 8.94461 14.7389 10.5418 16.2083C11.0529 15.7451 11.5361 15.3139 11.9913 14.9146C12.4465 14.5153 12.8977 14.124 13.345 13.7406L13.5038 13.8957L13.8481 14.2318L14.1923 14.5678L14.3512 14.7229C13.92 15.1062 13.4727 15.4976 13.0095 15.8969C12.5463 16.2962 12.0512 16.7354 11.5241 17.2146L10.5418 18.101ZM17.4897 14.2917V11.1771H14.3752V9.73958H17.4897V6.625H18.9272V9.73958H22.0418V11.1771H18.9272V14.2917H17.4897Z" fill="white"/>
</svg>
