<svg width="23" height="23" viewBox="0 0 23 23" fill="none" xmlns="http://www.w3.org/2000/svg">
<path d="M11.4998 1.91667C8.95818 1.91667 6.52062 2.92634 4.7234 4.72357C2.92617 6.52079 1.9165 8.95835 1.9165 11.5C1.9165 14.0417 2.92617 16.4792 4.7234 18.2764C6.52062 20.0737 8.95818 21.0833 11.4998 21.0833C14.0415 21.0833 16.4791 20.0737 18.2763 18.2764C20.0735 16.4792 21.0832 14.0417 21.0832 11.5C21.0832 8.95835 20.0735 6.52079 18.2763 4.72357C16.4791 2.92634 14.0415 1.91667 11.4998 1.91667Z" fill="white"/>
<path d="M16.2675 7.1875L14.4726 16.352C14.4726 16.352 14.3954 16.7708 13.876 16.7708C13.6 16.7708 13.4577 16.6395 13.4577 16.6395L9.56975 13.4133L7.66746 12.4545L5.22611 11.8052C5.22611 11.8052 4.7915 11.6797 4.7915 11.3203C4.7915 11.0208 5.23857 10.878 5.23857 10.878L15.4525 6.82045C15.4525 6.82045 15.7644 6.70785 15.992 6.70833C16.1319 6.70833 16.2915 6.76823 16.2915 6.94791C16.2915 7.0677 16.2675 7.1875 16.2675 7.1875Z" fill="#102A5A"/>
<path d="M11.0207 14.617L9.37911 16.2337C9.37911 16.2337 9.30771 16.2888 9.21236 16.2912C9.1793 16.2921 9.14384 16.2869 9.10742 16.2706L9.56934 13.4124L11.0207 14.617Z" fill="#102A5A"/>
<path d="M14.3255 8.71891C14.2445 8.61349 14.095 8.59433 13.9896 8.67435L7.6665 12.4583C7.6665 12.4583 8.67563 15.2816 8.82944 15.7703C8.98373 16.2596 9.10736 16.2711 9.10736 16.2711L9.56928 13.4128L14.2804 9.05433C14.3859 8.97431 14.4055 8.82433 14.3255 8.71891Z" fill="#0C1E3E"/>
</svg>
