<svg width="23" height="23" viewBox="0 0 23 23" fill="none" xmlns="http://www.w3.org/2000/svg">
<path d="M7.66667 2.875C5.02071 2.875 2.875 5.02071 2.875 7.66667V15.3333C2.875 17.9793 5.02071 20.125 7.66667 20.125H15.3333C17.9793 20.125 20.125 17.9793 20.125 15.3333V7.66667C20.125 5.02071 17.9793 2.875 15.3333 2.875H7.66667ZM17.25 4.79167C17.779 4.79167 18.2083 5.221 18.2083 5.75C18.2083 6.279 17.779 6.70833 17.25 6.70833C16.721 6.70833 16.2917 6.279 16.2917 5.75C16.2917 5.221 16.721 4.79167 17.25 4.79167ZM11.5 6.70833C14.146 6.70833 16.2917 8.85404 16.2917 11.5C16.2917 14.146 14.146 16.2917 11.5 16.2917C8.85404 16.2917 6.70833 14.146 6.70833 11.5C6.70833 8.85404 8.85404 6.70833 11.5 6.70833ZM11.5 8.625C10.7375 8.625 10.0062 8.9279 9.46707 9.46707C8.9279 10.0062 8.625 10.7375 8.625 11.5C8.625 12.2625 8.9279 12.9938 9.46707 13.5329C10.0062 14.0721 10.7375 14.375 11.5 14.375C12.2625 14.375 12.9938 14.0721 13.5329 13.5329C14.0721 12.9938 14.375 12.2625 14.375 11.5C14.375 10.7375 14.0721 10.0062 13.5329 9.46707C12.9938 8.9279 12.2625 8.625 11.5 8.625Z" fill="white"/>
</svg>
