<svg width="23" height="23" viewBox="0 0 23 23" fill="none" xmlns="http://www.w3.org/2000/svg">
<path d="M11.5002 2.39583C9.08559 2.39583 6.76991 3.35501 5.06254 5.06238C3.35518 6.76974 2.396 9.08542 2.396 11.5C2.396 13.9146 3.35518 16.2303 5.06254 17.9376C6.76991 19.645 9.08559 20.6042 11.5002 20.6042C13.9147 20.6042 16.2304 19.645 17.9378 17.9376C19.6451 16.2303 20.6043 13.9146 20.6043 11.5C20.6043 9.08542 19.6451 6.76974 17.9378 5.06238C16.2304 3.35501 13.9147 2.39583 11.5002 2.39583Z" fill="white"/>
<path d="M12.7325 13.9131H15.0886L15.4585 11.5197H12.732V10.2115C12.732 9.21726 13.0569 8.33559 13.987 8.33559H15.4815V6.2469C15.2189 6.21144 14.6636 6.13382 13.6142 6.13382C11.423 6.13382 10.1383 7.29101 10.1383 9.92738V11.5197H7.88574V13.9131H10.1383V20.4916C10.5844 20.5587 11.0363 20.6042 11.5001 20.6042C11.9194 20.6042 12.3286 20.5658 12.7325 20.5112V13.9131Z" fill="#102A59"/>
</svg>
