<svg width="20" height="21" viewBox="0 0 20 21" fill="none" xmlns="http://www.w3.org/2000/svg">
<path d="M10.4999 8.24791L9.49368 7.24166L11.2666 5.46874H6.90618V4.03124H11.2666L9.49368 2.25832L10.4999 1.25207L13.9979 4.74999L10.4999 8.24791ZM5.94277 20.0833C5.46699 20.0833 5.06139 19.9139 4.72598 19.5751C4.39056 19.2363 4.22285 18.829 4.22285 18.3532C4.22285 17.8775 4.39225 17.4719 4.73106 17.1364C5.06987 16.801 5.47717 16.6333 5.95293 16.6333C6.42871 16.6333 6.83431 16.8027 7.16973 17.1415C7.50514 17.4803 7.67285 17.8876 7.67285 18.3634C7.67285 18.8392 7.50345 19.2448 7.16465 19.5802C6.82583 19.9156 6.41854 20.0833 5.94277 20.0833ZM15.6219 20.0833C15.1462 20.0833 14.7406 19.9139 14.4051 19.5751C14.0697 19.2363 13.902 18.829 13.902 18.3532C13.902 17.8775 14.0714 17.4719 14.4102 17.1364C14.749 16.801 15.1563 16.6333 15.6321 16.6333C16.1079 16.6333 16.5135 16.8027 16.8489 17.1415C17.1843 17.4803 17.352 17.8876 17.352 18.3634C17.352 18.8392 17.1826 19.2448 16.8438 19.5802C16.505 19.9156 16.0977 20.0833 15.6219 20.0833ZM0.485352 2.35416V0.916656H3.26452L7.33743 9.63749H14.2304L18.0708 2.92916H19.676L15.7947 10.1885C15.619 10.492 15.391 10.7356 15.1105 10.9193C14.83 11.1029 14.523 11.1948 14.1895 11.1948H6.93014L5.58848 13.6864H17.352V15.1239H5.8041C5.20254 15.1239 4.74468 14.8844 4.43052 14.4052C4.11638 13.926 4.09507 13.4389 4.3666 12.9437L5.89993 10.1167L2.3541 2.35416H0.485352Z" fill="white"/>
</svg>
