<svg width="22" height="21" viewBox="0 0 22 21" fill="none" xmlns="http://www.w3.org/2000/svg">
<path d="M10.6667 10C9.2 10 8 9.53333 7.06667 8.6C6.13333 7.66667 5.66667 6.46667 5.66667 5C5.66667 3.53333 6.13333 2.33333 7.06667 1.4C8 0.466667 9.2 0 10.6667 0C12.1333 0 13.3333 0.466667 14.2667 1.4C15.2 2.33333 15.6667 3.53333 15.6667 5C15.6667 6.46667 15.2 7.66667 14.2667 8.6C13.3333 9.53333 12.1333 10 10.6667 10ZM0 20.7V17.5667C0 16.7222 0.211111 16 0.633333 15.4C1.05556 14.8 1.6 14.3444 2.26667 14.0333C3.75556 13.3667 5.18333 12.8667 6.55 12.5333C7.91667 12.2 9.28889 12.0333 10.6667 12.0333C12.0444 12.0333 13.4111 12.2056 14.7667 12.55C16.1222 12.8944 17.5436 13.391 19.0307 14.0398C19.7263 14.3537 20.2839 14.8089 20.7037 15.4053C21.1235 16.0018 21.3333 16.7222 21.3333 17.5667V20.7H0ZM2 18.7H19.3333V17.5667C19.3333 17.2111 19.2278 16.8722 19.0167 16.55C18.8056 16.2278 18.5444 15.9889 18.2333 15.8333C16.8111 15.1444 15.5111 14.6722 14.3333 14.4167C13.1556 14.1611 11.9333 14.0333 10.6667 14.0333C9.4 14.0333 8.16667 14.1611 6.96667 14.4167C5.76667 14.6722 4.46667 15.1444 3.06667 15.8333C2.75556 15.9889 2.5 16.2278 2.3 16.55C2.1 16.8722 2 17.2111 2 17.5667V18.7ZM10.6667 8C11.5333 8 12.25 7.71667 12.8167 7.15C13.3833 6.58333 13.6667 5.86667 13.6667 5C13.6667 4.13333 13.3833 3.41667 12.8167 2.85C12.25 2.28333 11.5333 2 10.6667 2C9.8 2 9.08333 2.28333 8.51667 2.85C7.95 3.41667 7.66667 4.13333 7.66667 5C7.66667 5.86667 7.95 6.58333 8.51667 7.15C9.08333 7.71667 9.8 8 10.6667 8Z" fill="white"/>
</svg>
